<svg xmlns="http://www.w3.org/2000/svg" xmlns:xlink="http://www.w3.org/1999/xlink" viewBox="0 0 96 96"><defs><style>.cls-1{fill:none;}.cls-2{clip-path:url(#clip-path);}.cls-3{fill:#8f4651;}.cls-4{fill:#ff9819;}.cls-5{fill:#fff7eb;}.cls-6{opacity:0.1;}.cls-7{fill:#854422;}.cls-8{fill:#e6ded4;}.cls-9{fill:#ffc566;}.cls-10{fill:#c9beb7;}.cls-11{fill:#9c552c;}.cls-12,.cls-13,.cls-20{fill:#66241b;}.cls-12{opacity:0.4;}.cls-13,.cls-14,.cls-17,.cls-24{opacity:0.7;}.cls-14{fill:#f0eae6;}.cls-15{fill:#d17642;}.cls-16{fill:#261b18;}.cls-17{fill:#f0ded1;}.cls-18{fill:#121b21;}.cls-19{fill:#611f16;}.cls-20,.cls-22{opacity:0.3;}.cls-21{fill:#ff6daa;}.cls-22,.cls-23,.cls-24{fill:#fff;}.cls-25{fill:#ffd1e2;}</style><clipPath id="clip-path" transform="translate(0)"><circle class="cls-1" cx="48" cy="48" r="48"/></clipPath></defs><g id="Layer_2" data-name="Layer 2"><g id="Layer_4" data-name="Layer 4"><g class="cls-2"><rect class="cls-3" width="96" height="96"/><path class="cls-4" d="M63.73,74l-5.46,4.31c1.44,1.83,3.57,10.63,4.19,17.69h8.1C70,89.73,68.23,77.56,63.73,74Z" transform="translate(0)"/><path class="cls-4" d="M31.94,74c-4.5,3.56-6.29,15.73-6.83,22h8.1c.62-7.06,2.75-15.86,4.19-17.69Z" transform="translate(0)"/><path class="cls-5" d="M58.16,70.41c-7.07-3.59-16.35-2.36-21,.54-8,4.93-3.89,10.24-2.12,25h25.7C62.55,83.52,66.13,74.46,58.16,70.41Z" transform="translate(0)"/><path class="cls-4" d="M64.29,74.56c-.6-1.47-6.5-4.79-6.5-4.79C54.63,79.47,55.56,90.7,56.18,96h8C64.52,83.82,64.79,75.8,64.29,74.56Z" transform="translate(0)"/><path class="cls-4" d="M37.93,69.77s-5.9,3.32-6.5,4.79c-.5,1.24-.23,9.26.1,21.44h8.62C40.67,90.27,40.93,79,37.93,69.77Z" transform="translate(0)"/><path class="cls-6" d="M38.37,74.19c1.37,4.59,6.08,7.18,6.08,7.18l3.36-3.67,4.4,3.64c3-1.54,5.92-5.23,6-8.32C58.21,70.8,37,69.61,38.37,74.19Z" transform="translate(0)"/><path class="cls-5" d="M38.42,68.74c-3.75,5.05,5.73,11.42,5.73,11.42l3.68-2.9,4.19,3s8.58-4.71,5.54-11C54.82,63.56,42.2,63.67,38.42,68.74Z" transform="translate(0)"/><path class="cls-7" d="M45.76,62.73c-2.18.6-3.62,3.21-3.77,5.89-.19,3.41,3.7,7.95,6.4,8,2,0,10.69-6.29,4.61-12.45C51.26,62.44,47.85,62.15,45.76,62.73Z" transform="translate(0)"/><path class="cls-8" d="M47.86,81.78a.89.89,0,1,0,.94.88A.91.91,0,0,0,47.86,81.78Z" transform="translate(0)"/><path class="cls-8" d="M47.86,86.91a.89.89,0,1,0,.94.88A.91.91,0,0,0,47.86,86.91Z" transform="translate(0)"/><path class="cls-8" d="M47.86,92a.89.89,0,1,0,.94.88A.91.91,0,0,0,47.86,92Z" transform="translate(0)"/><path class="cls-9" d="M37.81,80.56A1.42,1.42,0,1,0,39.24,82,1.43,1.43,0,0,0,37.81,80.56Z" transform="translate(0)"/><path class="cls-9" d="M37.81,86.25a1.43,1.43,0,1,0,1.43,1.43A1.43,1.43,0,0,0,37.81,86.25Z" transform="translate(0)"/><path class="cls-9" d="M37.81,92a1.43,1.43,0,1,0,1.43,1.42A1.43,1.43,0,0,0,37.81,92Z" transform="translate(0)"/><rect class="cls-9" x="57.65" y="81.95" width="5.29" height="2.53"/><path class="cls-10" d="M79.17,35.54a4,4,0,0,0,1.4-1.39c1.22-2.15-.49-5-2.68-6.55,4.3-1.47.59-7.69-4-6.48,3.93-3.76-2.14-8.34-5.94-4.45.18-4.32-5.21-7.39-8.26-3.47-.56-6.61-7.39-5.7-9.42-1C48.65,6,40.64,8,39.65,13.32c-2.07-3.8-9.67-3.57-8.83,2.39-4-3.11-11.29-.1-8.84,5.71-4.11-1.18-10.11,3.38-5.52,7.18-5.36.19-6.23,7.61-2,9.38C9.86,39.84,11,48.21,16.73,47.22c-3.74,4-1.78,9.64,3.89,9.33-1.26,2.53-1,8,3.14,7-3.17,5.48,6.28,7.78,8,1.93.13,4.95,5.43,4,6.35,4,3,.07,5.68-1.57,8.68-1.58,5.37,0,13.35,4.8,16.74-1.68,2.77,2,8.44-.52,6.43-4.25,4.79,2.32,7.27-3.75,6.32-7.37,3.52,1.9,5.61-3.47,1.93-6.84C81.52,47.8,83.24,44,80,42,83.68,40.05,82.7,37.09,79.17,35.54Z" transform="translate(0)"/><path class="cls-5" d="M69.11,56.8a2,2,0,1,0,2,2A2,2,0,0,0,69.11,56.8Z" transform="translate(0)"/><path class="cls-11" d="M44.31,19.18C33.21,21.49,25.58,37.6,27.83,52.59,29.51,63.8,38.35,76,51.4,74.92c13.31-1.13,19.72-17.75,17.81-31.55C67.14,28.36,59.85,15.93,44.31,19.18Z" transform="translate(0)"/><path class="cls-12" d="M66.31,24a33.74,33.74,0,0,0-7.63-2.69A53.21,53.21,0,0,0,45.16,19.4c-4.07,0-8.48-.2-12.24,1.46-7.47,3.29-7,10.62-6.63,17.53.11,2.32,0,8.61,1.72,9.33,2.92,1.2,4.16-3.14,3.16-4.44.53.69,3.94-1.54,3.15-3A3.59,3.59,0,0,0,38,39.13c.3,1.48,2.64,2.46,4,2.66,1.75.27,3.05-.86,4-2.18,1.92,1.59,5.4,2.9,6.29-.36,1.67,2.58,4.73.19,6-1.19.14,1.4,3.24,2,4.39,1.72,1.61-.35,2.42-1.74,3-3.15,1,.95,3.5.8,4.52,0,1.45-1.16,1-3.68.83-5.24A10.3,10.3,0,0,0,66.31,24Z" transform="translate(0)"/><path class="cls-11" d="M23.86,46.38C18.42,48,20.72,55.9,25.2,57.45a10.9,10.9,0,0,0,4.42.42l.09-.14c.64-1-.35-6.85-.7-7.94C28.13,47.05,26.48,45.63,23.86,46.38Z" transform="translate(0)"/><path class="cls-13" d="M25.82,49.29c-1.24-.55-4.29.51-2.81,2.89.73-2.23,2.1-.78,1.92.79-.13,1.07-1.27,1.1-.12,2.44.63.74,1.86.44,2.48,0C29.26,54.17,27.33,50,25.82,49.29Z" transform="translate(0)"/><path class="cls-10" d="M69.07,22.39a29,29,0,0,0-15.75-7.91,39.94,39.94,0,0,0-11.45-.17c-6.29.8-13.86,3.75-15.76,10.14-1.18,3.92-.48,8.44-.11,12.42.28,3-.08,7.48,1,10.33.5,1.33,3.39-.39,2.09-5.41,1.85.89,3.63,0,3.58-3.38,1.66.71,5.07.65,5.31-1.81,1.13,3.07,6.71,3.68,8.54,1,.91,1.9,5.27,1.31,5.33-1.24,1.32,2.31,6.28,1.77,7.54-.61.82,2.68,5.8,2.32,6.44-.77,4.86,1.53,7.73-5.28,5.11-9.82A13,13,0,0,0,69.07,22.39Z" transform="translate(0)"/><path class="cls-14" d="M31.92,35.41h0C31.93,35.33,31.92,35.33,31.92,35.41Z" transform="translate(0)"/><path class="cls-14" d="M74.89,27.75c5.2-1.47-.37-7.21-4.27-4.9,1.58-4.63-1.21-5-4.74-3.64C65.36,16,61.53,13,59.27,17c-.69-4.71-6.6-5-8.39-.94-3-2.94-7.8-4.45-9.17,1.07-3.14-2.63-9.08-3.67-9,2.32-2.53-1.57-6.13-3-7.86,0-1.15,2-.67,3.8.36,5.78-4.88-3.09-7.49,1.48-3.53,4.78-1.85.4-4.52,1-4.6,3.31-.06,2,1.81,2.63,3.64,2.54C19.4,37,18.22,39.4,20,40.59c2.5,1.66,4.47-1.41,5.67-3.05-.31,3.57,6.36,2,6.25-2.12h0c0-.08,0-.08,0,0h0c2.54,2.39,6.11.78,7.65-1.82a5.07,5.07,0,0,0,.48-1c-.74,2.12,3.5,2.48,4.55,1.12A3.27,3.27,0,0,0,50.33,33c1.32,4,6.19.66,7.08-1.68A4.86,4.86,0,0,0,61.31,34c2.1.1,2.7-1.41,3.12-3.26,1.62,1.39,4.92,1.87,5.87-.58a2.41,2.41,0,0,0,3-.19c-.34,1.69-1.84,5.75.1,6.95,3.06,1.91,3.57-3.54,2.68-5.16C78.72,33.73,77.93,28.68,74.89,27.75Z" transform="translate(0)"/><path class="cls-5" d="M26.87,58.67a2,2,0,1,0,2,1.94A2,2,0,0,0,26.87,58.67Z" transform="translate(0)"/><path class="cls-13" d="M32.42,49.2c.06.91,2.14.47,2.76.62-.55.56-2.16.56-2.82.94s-.64.69.2.67a15.26,15.26,0,0,0,3.67-1C37.76,49.16,33.13,49,32.42,49.2Z" transform="translate(0)"/><path class="cls-13" d="M68.6,50c-.66-.39-2.28-.39-2.82-.95.62-.15,2.69.29,2.76-.62-.71-.19-5.34,0-3.82,1.25a15.26,15.26,0,0,0,3.67,1C69.23,50.65,69.31,50.38,68.6,50Z" transform="translate(0)"/><path class="cls-15" d="M63.44,51.71c-1.9,0-4.54.77-3.21,3.82.72,1.62,8.19,2.8,7.75-1a3,3,0,0,0-.28-1C66.93,52,64.91,51.73,63.44,51.71Z" transform="translate(0)"/><path class="cls-15" d="M40.26,53.43c-1.14-1.49-3.38-1.45-5-1.2-2.07.32-4.77,1.62-2.71,4.6,1.1,1.59,9.43,1.5,8.2-2.37A3.43,3.43,0,0,0,40.26,53.43Z" transform="translate(0)"/><path class="cls-16" d="M37.93,44.54c-3.11-1.09-4.56,4.62-2.37,6.25a4.22,4.22,0,0,1,3,0C40.48,49.54,40.23,45.34,37.93,44.54Z" transform="translate(0)"/><path class="cls-17" d="M37.4,46.6c-1.28.23-.74,2.83.57,2.13C38.92,48.24,38.52,46.4,37.4,46.6Z" transform="translate(0)"/><path class="cls-16" d="M65.46,44.27c-3.09-2-5.81,5.26-2.38,6.3a3.64,3.64,0,0,1,2.72-.43C67,48.6,67.11,45.33,65.46,44.27Z" transform="translate(0)"/><path class="cls-17" d="M64.22,46c-1.22,0-1,2.73.28,2.25C65.45,47.91,65.31,46,64.22,46Z" transform="translate(0)"/><path class="cls-18" d="M65.54,44.12c-2.83-1.09-3.76,2.26-3.76,2.26a2.63,2.63,0,0,1,3.3-.61c4.38,2.45,7.2-.52,7.2-.52C68.81,46.41,67.06,44.71,65.54,44.12Z" transform="translate(0)"/><path class="cls-18" d="M35.87,44.73c-1.12.6-3.71,2.39-7.22,1.45a6.44,6.44,0,0,0,7.55.11,2.93,2.93,0,0,1,3.43.18S38.79,43.16,35.87,44.73Z" transform="translate(0)"/><path class="cls-13" d="M35.8,59.39c1.56,3,5.38,1.53,3.77-1.5A2.85,2.85,0,0,1,35.8,59.39Z" transform="translate(0)"/><path class="cls-13" d="M61,57.38c-.83,3.14,3.3,4.23,4.11,1.15A3.2,3.2,0,0,1,61,57.38Z" transform="translate(0)"/><path class="cls-19" d="M62.81,59a.88.88,0,0,0-1.13.46c-1.51,4.24-6.06,7-11.35,7-5.09,0-9.16-2.68-10.82-6.19a1,1,0,0,0-1.19-.48.73.73,0,0,0-.48,1c1.91,4,6.45,7.05,12.11,7.24h.48c6.08,0,11.23-3.13,13-8A.82.82,0,0,0,62.81,59Z" transform="translate(0)"/><path class="cls-13" d="M51.27,53.78c-1.23,0-2.32-.6-3.45,0s.24,2.47,3.48,2.34,4.08-1.85,3.46-2.48S52.62,53.74,51.27,53.78Z" transform="translate(0)"/><path class="cls-15" d="M51.08,48.19c-2.3-.16-4,4-3,5.36.71.94,5.78.84,6.54-.28C54.93,52.86,53.29,48.34,51.08,48.19Z" transform="translate(0)"/><path class="cls-10" d="M35.69,39.55c-2.86.41-5,1.5-4.91,2.33.09.55,1.37-.38,5.32-.52,3.15-.11,5.91,1.31,6-.51C42.2,39.75,38.82,39.1,35.69,39.55Z" transform="translate(0)"/><path class="cls-10" d="M65.5,39.11c-3.13-.46-6.51.2-6.44,1.3.12,1.82,2.88.4,6,.51,4,.14,4,1.16,4.11.62C69.34,40.71,68.36,39.52,65.5,39.11Z" transform="translate(0)"/><path class="cls-20" d="M67,41.11a32.81,32.81,0,0,0-6.67,1c-1.85.48-4,.7-5.75,1.58S52.36,45.06,50.45,45c-3.41-.15-6.27-2.28-9.68-2.65s-7.17-.8-10.67.15c-.9.25-3.66,1.28-1.8,2.26s4.52.66,6.5.75c.92,0,1.84.06,2.75.15,3.24.31,8.23-.13,8,3.92-.19,2.78-2,5.63-4.25,6.14a29.44,29.44,0,0,1-6.67.67,11.68,11.68,0,0,1-4.83-1.06c-.43-.2-1.72-1-2.15-.45-.72,1,1.91,2.66,2.6,3a15.62,15.62,0,0,0,5,1.12c4.22.47,8.57.26,11-3.62,1.39-2.25,2.1-4.89,3.39-7.2,2.11-3.78,3.08,1.36,3.74,3.61A11.72,11.72,0,0,0,55,55.29a8.58,8.58,0,0,0,6.29,3,9.53,9.53,0,0,0,4.1-.53c.79-.32,1.11-1.23.17-1.58a7.17,7.17,0,0,0-2.07-.09,17.7,17.7,0,0,1-2.62-.22,7.68,7.68,0,0,1-3.12-1.35,6,6,0,0,1-1.62-1.76A5.56,5.56,0,0,1,55.76,48c.78-2.15,3.13-2.31,5.09-2.47,2.36-.2,4.76-.15,7.11-.36a25.28,25.28,0,0,1,3.14.09c1.35,0,4.26-.37,2.67-2.33S69.21,41,67,41.11Z" transform="translate(0)"/><path class="cls-21" d="M26.75,41c-2.79.08-5.18-.69-5.83-.14-.86.73.63,3.22.63,3.22a4.84,4.84,0,0,0,2.2.74c.17,1.94.06,7,3.61,10.11,3,2.65,12.66,3.43,15.68,1.91,3.74-1.87,5.34-5.35,6-8.79C50.68,39.59,30.68,40.85,26.75,41ZM43.24,54.54c-3.69,2.38-13.12,1.24-15.56-1.79-1.89-2.35-2.21-7.23-1.06-7.92,3.54-2.12,16.82-1.29,19.89,1.06C48,47,46.05,52.74,43.24,54.54Z" transform="translate(0)"/><path class="cls-21" d="M72.5,40.28c-3.56,0-21.65-.68-19.94,7.7.7,3.41,2.24,6.85,5.67,8.61C61,58,69.73,57,72.34,54.22,75.46,51,75.21,46,75.32,44a4.13,4.13,0,0,0,2-.8s1.28-2.54.49-3.24C77.15,39.43,75,40.28,72.5,40.28ZM72,52.08c-2.13,3.1-10.61,4.51-14,2.25-2.58-1.72-4.5-7.37-3.18-8.56,2.7-2.44,14.66-3.66,17.92-1.64C73.78,44.79,73.62,49.68,72,52.08Z" transform="translate(0)"/><path class="cls-22" d="M57.14,45c-2,.85,1.6,1.89,2.37,2A27.06,27.06,0,0,0,68,46.71c1.5-.28,4.7-1.64,3.78-2.46C70.53,43.1,59.31,44.09,57.14,45Z" transform="translate(0)"/><path class="cls-23" d="M65.93,44.53c-1.07.17-1.77.48-1.47,1,.58.95,6.85.41,7.27-.32S68.21,44.16,65.93,44.53Z" transform="translate(0)"/><path class="cls-24" d="M59.13,52.35c-.67,0-1.14.11-1,.53.23.83,4.12,1.37,4.48.86S60.57,52.41,59.13,52.35Z" transform="translate(0)"/><path class="cls-24" d="M29.85,52.05c-.7-.11-1.21,0-1.14.41.13.85,4.14,1.86,4.58,1.41S31.34,52.29,29.85,52.05Z" transform="translate(0)"/><path class="cls-22" d="M45,45.39c-2.48-.88-14.86-1.83-16.13-.74-.92.79,2.75,2.08,4.42,2.34a33.36,33.36,0,0,0,9.36.31C43.5,47.2,47.29,46.21,45,45.39Z" transform="translate(0)"/><path class="cls-23" d="M39.66,44.67c-1.14,0-1.91.26-1.67.77.48,1,7.12,1.26,7.66.59S42.08,44.59,39.66,44.67Z" transform="translate(0)"/><path class="cls-21" d="M54.92,42.93c-2.59,1.18-5.11,1.36-8.71.08-2.72-1,1.43,1.77,1.74,3.18s-.16,5.73.79,3.16,2.85-2.73,4.06-.37,1.12-3.95,1.62-4.52S57.5,41.75,54.92,42.93Z" transform="translate(0)"/><path class="cls-25" d="M28.05,41.8c7.54.39,13.55.62,18.1,2.38C43.19,41.74,38.08,41.19,28.05,41.8Z" transform="translate(0)"/><path class="cls-25" d="M71.86,40.93c-9.19.32-13.48.38-16,2.71C59.89,41.76,65,41.9,71.86,40.93Z" transform="translate(0)"/></g></g></g></svg>