<svg xmlns="http://www.w3.org/2000/svg" xmlns:xlink="http://www.w3.org/1999/xlink" viewBox="0 0 96 96"><defs><style>.cls-1{fill:none;}.cls-2{clip-path:url(#clip-path);}.cls-3{fill:#ffc36b;}.cls-4{fill:#85b428;}.cls-5{fill:#acd14b;}.cls-6{fill:#854422;}.cls-7{fill:#9c552c;}.cls-8{opacity:0.1;}.cls-9{fill:#261b18;}.cls-10,.cls-11{fill:#66241b;}.cls-10{opacity:0.4;}.cls-11,.cls-14{opacity:0.7;}.cls-12{fill:#45362e;}.cls-13{fill:#d17642;}.cls-14{fill:#f0ded1;}.cls-15{opacity:0.8;}.cls-16{fill:#611f16;}</style><clipPath id="clip-path"><circle class="cls-1" cx="48" cy="48" r="48"/></clipPath></defs><g id="Layer_2" data-name="Layer 2"><g id="Layer_4" data-name="Layer 4"><g class="cls-2"><rect class="cls-3" width="96" height="96"/><path class="cls-4" d="M57,77.65c-5.47-2.21-14.23-1.49-18.79.09-2.87,1-2.41,10.32-2,18.26H59.13C59.54,88.11,59.94,78.84,57,77.65Z"/><path class="cls-5" d="M39.33,76.27c-2.78,4.47,8.33,9.08,8.33,9.08s9.82-4.28,8.76-8.33C55.17,72.22,41.83,72.24,39.33,76.27Z"/><path class="cls-6" d="M47.54,70.49c-2.88,0-6.95,1.46-7.24,5.3a4.14,4.14,0,0,0,1.24,3.82,9.56,9.56,0,0,0,6,2.91,9.51,9.51,0,0,0,6-2.91,4.09,4.09,0,0,0,1.24-3.82C54.49,72,50.43,70.49,47.54,70.49Z"/><path class="cls-7" d="M36.24,89.21A2.6,2.6,0,0,0,31.8,86.5,15.81,15.81,0,0,0,29.15,96h5.23A10.63,10.63,0,0,1,36.24,89.21Z"/><path class="cls-4" d="M37.66,78c-7.61,3.43-9.61,7.22-12.5,13,1.87,1.22,8.58,2.48,11.18,1.75C36.25,86.9,39.5,77.14,37.66,78Z"/><g class="cls-8"><path d="M35.43,84.76c-1.79.29-.16,4.29,0,5.12-.07-.35-2.21-2.09-2.52-1.64-.46.65,2.53,2.94,3.46,3.67C36.37,91.91,36,84.67,35.43,84.76Z"/></g><path class="cls-7" d="M63.51,86.5a2.6,2.6,0,0,0-4.44,2.71A10.63,10.63,0,0,1,60.93,96h5.23A15.81,15.81,0,0,0,63.51,86.5Z"/><path class="cls-4" d="M57.65,78c-1.84-.83,1.41,8.93,1.32,14.8,2.6.73,9.31-.53,11.18-1.75C67.26,85.19,65.26,81.4,57.65,78Z"/><g class="cls-8"><path d="M59.88,89.88c.16-.83,1.79-4.83,0-5.12-.55-.09-.93,7.15-.93,7.15.92-.73,3.91-3,3.46-3.67C62.09,87.79,60,89.53,59.88,89.88Z"/></g><path class="cls-9" d="M65.8,43.14c.76-1.37.21-13.9,2-12.84,3.46,2,6.68,10.42,2.74,16,4.7,1.87,1.36,9.69-3.51,5.85C64.81,50.37,64.53,45.44,65.8,43.14Z"/><path class="cls-9" d="M65,41.52c2.64-1.07,5.72-1.9,2.53-13.18C64,16.06,48.07,10.27,35.76,14.29,5.94,24,15.86,58.42,24.6,55.79S62.33,42.58,65,41.52Z"/><path class="cls-7" d="M22,53.16c2.54,16,15.23,27.2,28.35,25.11S72,61.55,69.46,45.6,54.23,18.4,41.12,20.49,19.43,37.21,22,53.16Z"/><path class="cls-7" d="M20.05,61.84a14.42,14.42,0,0,0,5.28,0s.06-.1.1-.15c.71-1.15-1-6.5-1.51-7.6-1.18-2.75-3-4.6-6-3.53C11.5,52.75,14.64,60.73,20.05,61.84Z"/><path class="cls-10" d="M25.55,45a27.9,27.9,0,0,1,1.8-7.8c2-5,6.92-7.28,11.8-8.58a59,59,0,0,1,19-1.71c3,.2,11.61.38,7.52,5.9-2.2,3-9.95,4.29-13.23,5.2-5.8,1.6-15.1,4.38-20.91,2.1-.42,1-.75,2.1-1.21,3.1-1,2.17-2,5-4,6.37A7.34,7.34,0,0,1,25.55,45Z"/><path class="cls-9" d="M30.47,22.93C22,27.73,18.34,42.66,20.15,51.16c1,4.85,7.83,4.29,7.47,1.53-1.1-8.41-.5-14.54,11.54-19.08,9.59-3.62,21.43-3.86,24.65-2.2s-.77-6-10-10.11S37,19.25,30.47,22.93Z"/><path class="cls-11" d="M23.27,59.86c2.94-1.24.47-5.8-1.65-6.59-1.74-.65-6.21.3-4.28,2.9,1.23-2.32,3.1-.72,2.71.94-.26,1.11-1.91,1.08-.35,2.57C20.54,60.48,22.34,60.25,23.27,59.86Z"/><path class="cls-9" d="M69.78,29.51C66,33.15,59.35,34,54.43,35.07c-8.11,1.84-23.58,7.7-28.3-2.47-2.5-5.41-2.31-11,2.36-14.53,6.47-5,14.92-6,23-4.89C65.57,15.09,73.58,25.84,69.78,29.51Z"/><path class="cls-9" d="M27.62,58.37c1.61-1.38.14-5.45-.11-7.62s-.47-2.33-2-3c-3.84-1.71-5.33.9-5.06,4.17.19,2.19,2.13,6.34,4.56,6.82A3,3,0,0,0,27.62,58.37Z"/><path class="cls-9" d="M18.84,21.41a2.63,2.63,0,0,0,.46,2.34C22,28,32.09,24.87,29.71,18.85c-2-5.11-10.2-4.38-7.3,1.49C20.69,19.84,19.25,20.34,18.84,21.41Z"/><path class="cls-12" d="M64.78,30.75a6,6,0,0,0,3.32-2.81c1.56-3.49-2.19-7.16-4.77-9-5.86-4.11-13.88-4.86-21-4.24-5.75.51-15.2,3.07-17.1,9.43-2,6.79,6.3,10.46,11.52,10.67A73.7,73.7,0,0,0,54.14,33C56.58,32.47,61.41,32.18,64.78,30.75Z"/><path class="cls-12" d="M24.89,16.24a1.46,1.46,0,0,0-1.16.61c-1.16,1.47.64,3.81,2.35,3.26C28.72,19.26,26.68,16.22,24.89,16.24Z"/><path class="cls-12" d="M22,21.1h0c-2.67,0-1,2.56.76,2.3C24.82,23.1,23.58,21.15,22,21.1Z"/><path class="cls-9" d="M65,38.51c1.64-.28,2-1.17.33-1.69a8.71,8.71,0,0,0-3.18-.06c-.62.06-3,0-3.42.54C57.26,39.42,64.4,38.62,65,38.51Z"/><path class="cls-9" d="M34,42.59c-1.67.14-2.29-.61-.75-1.55a8.54,8.54,0,0,1,3.06-.87c.61-.1,2.92-.79,3.45-.34C41.71,41.5,34.59,42.54,34,42.59Z"/><path class="cls-13" d="M68.26,51.6a2.78,2.78,0,0,1,.47.81c1.14,3-6.07,2.74-7.05,1.47-1.85-2.39.46-3.27,2.25-3.42C65.3,50.33,67.23,50.4,68.26,51.6Z"/><path class="cls-13" d="M38.64,54.05a2.82,2.82,0,0,1,.61.78c1.6,3-5.94,3.68-7.14,2.49-2.25-2.23,0-3.46,1.87-3.87C35.39,53.14,37.42,52.94,38.64,54.05Z"/><path class="cls-9" d="M37.63,52.2a4.28,4.28,0,0,0-2.93.07c-2.18-1.48-.91-6.88,2.16-5.94C39.14,47,39.48,51,37.63,52.2Z"/><path class="cls-11" d="M55.33,54.21c-.83-.81-1.75.29-3.64.52-1.72.21-2.48-.5-3.6.34S48.93,58,52,57.57,56,54.92,55.33,54.21Z"/><path class="cls-13" d="M50.54,48.34c-3.25.07-2.75,6.9-2,7.4,2,1.23,5.62-.18,6.6-1.45C55.56,53.79,53.64,48.28,50.54,48.34Z"/><path class="cls-9" d="M64.94,43.63c1.7.78,2,4.08,1,5.54a3.87,3.87,0,0,0-3.1.34C60.2,48.15,61.76,42.16,64.94,43.63Z"/><path class="cls-14" d="M35.59,47.76c1-.47,1.85,1.08,1.08,1.78C35.6,50.51,34.45,48.29,35.59,47.76Z"/><path class="cls-14" d="M63.51,44.79c1-.32,1.62,1.26.8,1.82C63.18,47.4,62.36,45.15,63.51,44.79Z"/><g class="cls-15"><path class="cls-16" d="M66,56.85a3.35,3.35,0,0,1-4.39-.73,2.46,2.46,0,0,0,.81,2.41c-1.22,4.39-5.53,7.65-10.88,8.19s-9.7-1.7-11.85-5.08a2.28,2.28,0,0,0-.29-2.58,3,3,0,0,1-3.75,2,3,3,0,0,0,2.42,1.44c2.48,3.83,7.46,6.37,13.25,5.94l.49,0C58,67.74,62.86,64,64.26,58.94A2.34,2.34,0,0,0,66,56.85Z"/></g></g></g></g></svg>