<svg xmlns="http://www.w3.org/2000/svg" xmlns:xlink="http://www.w3.org/1999/xlink" viewBox="0 0 96 96"><defs><style>.cls-1{fill:none;}.cls-2{clip-path:url(#clip-path);}.cls-3{fill:#fff;}.cls-4{fill:#765aa3;}.cls-5{fill:#fff7eb;}.cls-6{opacity:0.1;}.cls-7{fill:#854422;}.cls-8{fill:#e6ded4;}.cls-9{fill:#242222;}.cls-10{fill:#ff9819;}.cls-11{fill:#9c552c;}.cls-12,.cls-13{fill:#66241b;}.cls-12{opacity:0.4;}.cls-13,.cls-18{opacity:0.7;}.cls-14{fill:#54504f;}.cls-15{fill:#d17642;}.cls-16{fill:#423f3f;}.cls-17{fill:#261b18;}.cls-18{fill:#f0ded1;}.cls-19{fill:#121b21;}.cls-20{opacity:0.8;}.cls-21{fill:#611f16;}.cls-22{fill:#f06799;}.cls-23{fill:#de3e78;}.cls-24{fill:#ff87b3;}</style><clipPath id="clip-path"><circle class="cls-1" cx="48" cy="48" r="48"/></clipPath></defs><g id="Layer_2" data-name="Layer 2"><g id="Layer_4" data-name="Layer 4"><g class="cls-2"><rect class="cls-3" width="96" height="96"/><path class="cls-4" d="M33.43,77.11c-4.34,2-7,8.72-7.75,18.89H35.82c.31-5.26.84-11.07,2.11-12.39Z"/><path class="cls-4" d="M62.17,77.11l-4.5,6.5c1.26,1.32,1.8,7.13,2.1,12.39H69.91C69.13,85.83,66.5,79.06,62.17,77.11Z"/><path class="cls-5" d="M58.19,74.35c-7.12-3.82-16.45-2.5-21.18.57-7,4.58-4.78,9.46-2.9,21.08h27.5C63.4,85.6,65,78,58.19,74.35Z"/><path class="cls-4" d="M64.35,78.76c-.6-1.56-6.54-5.09-6.54-5.09C55.46,81.29,55.36,89.8,55.72,96h8.67C64.65,86.21,64.78,79.88,64.35,78.76Z"/><path class="cls-4" d="M37.83,73.67s-5.94,3.53-6.54,5.09c-.43,1.12-.3,7.45,0,17.24h9.11C40.51,89.59,40.09,81,37.83,73.67Z"/><path class="cls-6" d="M38.27,78.38C39.65,83.25,44.39,86,44.39,86l3.38-3.9L52.2,86c3-1.65,5.95-5.58,6-8.86C58.24,74.77,36.89,73.5,38.27,78.38Z"/><path class="cls-5" d="M38.32,72.58C34.55,78,44.09,84.73,44.09,84.73l3.71-3.09L52,84.87s8.63-5,5.57-11.75C54.83,67.07,42.13,67.17,38.32,72.58Z"/><path class="cls-7" d="M45.71,66.18c-2.19.64-3.65,3.42-3.8,6.27-.19,3.62,3.73,8.46,6.45,8.56,2,0,10.75-6.7,4.64-13.26C51.24,65.87,47.81,65.56,45.71,66.18Z"/><path class="cls-8" d="M47.82,86.45a.95.95,0,1,0,.94.94A.94.94,0,0,0,47.82,86.45Z"/><path class="cls-8" d="M47.82,91.91a.94.94,0,1,0,.94.94A.94.94,0,0,0,47.82,91.91Z"/><path class="cls-9" d="M75.64,44.38c7.9-1.25,5.72-9.26.94-10.19,4.91-3,3.48-11-4.35-9.82,3.35-5.66-2.92-11.25-8.7-7.4-.21-5.82-7.16-7.23-9.05-2.26-1.42-3.51-8.63-5.32-11.12-.35-2.91-3.58-9-2.14-9.86,3-2.79-2.36-8.18-1.78-7.24,3.1-3.83-1.51-8.29,3.26-6.41,6.76-5-.31-11,7.75-3.53,10.88-5.82,2.15-5.21,9.2.49,10.3-2.16,2.33-3.17,8.68,1.32,9.07-1.25,3.14-.38,7.35,3.69,7,.16,3.48,1.89,6,5.62,5.74-.06,4.14,3.73,6.38,6.61,3.31,2.09,3,5,1.16,7.52-.18s5.59-2.49,8.38-1c.9.48,1.27,1.41,2.3,1.7.42.11,3.69-.51,3.38-1,1.46,2,5.68,4.28,6.6.24,2.74,2.5,6.25-.47,5.89-3.59,4.12.62,5-3.06,4.63-6.38,3.91-.33,6.69-7.15,1.44-9.85C78.45,53.33,79.06,46.63,75.64,44.38Z"/><path class="cls-10" d="M70.94,59.83a2,2,0,1,1-2-1.94A2,2,0,0,1,70.94,59.83Z"/><path class="cls-11" d="M27.86,53.7C29.54,64.86,38.34,77,51.32,75.93,64.57,74.81,71,58.27,69.05,44.53,67,29.6,59.73,17.22,44.27,20.45,33.22,22.76,25.63,38.79,27.86,53.7Z"/><path class="cls-12" d="M68.64,36.84c-2.59,3.77-8.91,5-13.56,3.74a6.37,6.37,0,0,0-5.19.33c-2.25.89-4.18,1.82-6.68,1.79A12.31,12.31,0,0,1,35.47,40a4.93,4.93,0,0,1-4.28,4.45c1,1.3,2.44,5.29-.65,4.71s-4.1-7.27-4.21-9.58c-.33-6.87-.84-14.16,6.61-17.45,3.73-1.65,8.13-1.48,12.17-1.44a52.24,52.24,0,0,1,13.46,1.88,33.2,33.2,0,0,1,7.59,2.67,7.88,7.88,0,0,1,2.78,2.43c.94,1.4.71,2.93.86,4.51A6.86,6.86,0,0,1,68.64,36.84Z"/><path class="cls-11" d="M25.25,58.54a10.65,10.65,0,0,0,4.4.42l.09-.14c.63-1-.35-6.81-.7-7.9-.88-2.73-2.52-4.14-5.12-3.39C18.5,49.1,20.79,57,25.25,58.54Z"/><path class="cls-13" d="M27.33,56.55c2-1.27,0-5.46-1.47-6.12-1.22-.55-4.26.5-2.79,2.87.72-2.22,2.09-.78,1.91.79-.13,1.06-1.26,1.09-.12,2.43C25.48,57.25,26.72,57,27.33,56.55Z"/><path class="cls-9" d="M70.75,26.38a9.12,9.12,0,0,0-1.84-2.73,28.93,28.93,0,0,0-15.68-7.87,39.88,39.88,0,0,0-11.39-.17c-6.26.8-13.79,3.73-15.69,10.09-1.17,3.9-.47,8.4-.1,12.36.27,2.95-.46,6.24.6,9.06.5,1.34,4.7,6.47,5,2.15.15-1.89-1.28-3.81-1.68-5.62,3.13,1.14,4.67-3.51,5.31-5.51a15.1,15.1,0,0,0,13.57,1.29c1.68-.63,3-1.32,4.86-1s3.21,1.08,5.07,1C65.7,39.31,73.37,32.7,70.75,26.38Z"/><path class="cls-14" d="M40.17,35.21A8.55,8.55,0,0,1,39.31,34c-.9,3.53-5.57,3-8.21,1.31,1.93,5.55-5,9.21-5.89,3.13C18.32,42.9,14.9,29.34,23,28.59c-2.1-3.95,3.44-7.18,6.15-5.78.23-3.1,3.85-4,6.07-2.31,1.21-3.82,7.27-4,9.91-1.48,1-3.54,6.38-3.74,7.61-.88,2.64-2.77,9.67-2.39,10.34,1.7,3.5-2.72,10.18.65,6.43,6.5,6.66.51,4.58,8.34-1.77,5,0,8.06-9.18,6.36-13.33,2.65C50.74,38.55,44,39.87,40.17,35.21Z"/><path class="cls-10" d="M28.9,61.68a2,2,0,1,1-2-1.92A2,2,0,0,1,28.9,61.68Z"/><path class="cls-13" d="M36.8,51.58c1.52-1.29-3.09-1.44-3.8-1.25.06.91,2.13.47,2.74.62-.54.56-2.14.55-2.8.94s-.63.68.2.66A15.17,15.17,0,0,0,36.8,51.58Z"/><path class="cls-13" d="M65.15,50.79c-1.52-1.28,3.09-1.43,3.79-1.24-.06.9-2.12.47-2.74.61.54.56,2.15.56,2.81.94s.62.68-.21.66A14.65,14.65,0,0,1,65.15,50.79Z"/><path class="cls-15" d="M67.56,54.21a2,2,0,0,1,.25.72c.44,2.63-5.16,1.58-5.74.42-1.09-2.17.85-2.63,2.27-2.56C65.43,52.84,66.94,53.11,67.56,54.21Z"/><path class="cls-15" d="M40.11,54.2a2.54,2.54,0,0,1,.4.77c.93,3-5.41,3-6.24,1.81-1.57-2.27.48-3.25,2.06-3.5C37.54,53.09,39.24,53.06,40.11,54.2Z"/><path class="cls-16" d="M70,44.23c-1.61-2.65-8.37-3.09-10.83-.79A87.73,87.73,0,0,0,70,44.23Z"/><path class="cls-13" d="M56.11,54.51c.66.78-1.25,3.46-3.56,3.62-2,.16-4.72-2.4-3.61-3.09s1.84.1,3.5.11C54.28,55.17,55.33,53.59,56.11,54.51Z"/><path class="cls-16" d="M32,44.7c2.33-2.49,9.41-3.4,11.8-.9C39.75,44.31,37.77,44.25,32,44.7Z"/><path class="cls-15" d="M48.52,52.46c1.32-3.45,4.93-3.89,7-.9a4.16,4.16,0,0,1,.63,1.3C57.26,57.16,46.57,57.57,48.52,52.46Z"/><path class="cls-17" d="M39.1,51.92a4.11,4.11,0,0,0-3,0c-2.18-1.62-.74-7.3,2.35-6.22C40.78,46.49,41,50.67,39.1,51.92Z"/><path class="cls-18" d="M38,47.74c1.13-.19,1.52,1.64.58,2.13C37.22,50.56,36.69,48,38,47.74Z"/><path class="cls-17" d="M65.88,45.43c1.65,1,1.52,4.3.34,5.83a3.66,3.66,0,0,0-2.71.43C60.1,50.66,62.8,43.47,65.88,45.43Z"/><path class="cls-18" d="M64.65,47.17c1.08,0,1.22,1.88.27,2.23C63.61,49.89,63.44,47.2,64.65,47.17Z"/><path class="cls-19" d="M72.67,46.4s-2.81,3-7.16.52a2.62,2.62,0,0,0-3.29.61s.93-3.34,3.74-2.25C67.48,45.86,69.22,47.55,72.67,46.4Z"/><path class="cls-19" d="M29.25,47.33a6.38,6.38,0,0,0,7.51.1,2.93,2.93,0,0,1,3.42.18s-.84-3.28-3.75-1.72C35.32,46.48,32.74,48.27,29.25,47.33Z"/><g class="cls-20"><path class="cls-21" d="M65.9,58.11A3.17,3.17,0,0,1,61.82,57a2.33,2.33,0,0,0,.52,2.37c-1.61,4.05-6,6.68-11.17,6.65s-9-2.6-10.7-6a2.16,2.16,0,0,0,0-2.47A2.83,2.83,0,0,1,36.71,59a2.75,2.75,0,0,0,2.14,1.61c2,3.9,6.42,6.81,11.94,7h.48c5.92.05,10.94-3,12.79-7.66A2.22,2.22,0,0,0,65.9,58.11Z"/></g><path class="cls-22" d="M26.36,23.85a2.52,2.52,0,0,0-2.46,1.54c-2-3.56-7.53-2.74-5.88,2.32C11.66,25.1,8.82,36.3,14.61,37c-1.51,4.65,3.51,6.62,5.56,4.56,2.45,3.36,10.4,5,10.77-1.21,6.51-.69,7.13-12.19,1-14.07a6.54,6.54,0,0,0-3-.18A2.82,2.82,0,0,0,26.36,23.85Z"/><path class="cls-23" d="M28.94,29.22c5.41,1.8,2.46,11.08-2.25,9C26.61,41.76,22,40.8,20.8,39c2.36.32,3.51-.49,4.19-3.24,3.23,2,5.61-1.94,3.67-5.32a5.45,5.45,0,0,0-1.32-1.53Z"/><path class="cls-24" d="M19.57,34.29c-1.88,1.1-3.59.23-3.87-1.73-.34-2.27,3-3.8,4.37-3.39-.74-2.82,5.4-3.42,2.74.95,1.23-.2,4.25-.23,4.62,1.76.26,1.39-1.64,2.5-2.55,2.5a1.81,1.81,0,0,0-2.36-2.33c-1.33.66-1.36,2.89-.29,3.85a2.37,2.37,0,0,0,1.59.56C20.06,39.21,18.6,35.66,19.57,34.29Z"/></g></g></g></svg>