<svg xmlns="http://www.w3.org/2000/svg" xmlns:xlink="http://www.w3.org/1999/xlink" viewBox="0 0 66 66"><defs><style>.cls-1{fill:none;}.cls-2{clip-path:url(#clip-path);}.cls-3{fill:#ddd3c7;}.cls-4{fill:#3a3a4a;}.cls-5{fill:#f5b28c;}.cls-6{fill:#e0e0e0;}.cls-7{fill:#2b221c;}.cls-8{fill:#ffcb9e;}.cls-9{fill:#bf3c1b;}.cls-10,.cls-18,.cls-9{opacity:0.3;}.cls-10{fill:#c94614;}.cls-11,.cls-21{fill:#45362e;}.cls-12{fill:#f7a286;}.cls-13{fill:#8f3935;}.cls-14{fill:#fff9f0;}.cls-15{fill:#e8dac5;}.cls-16{fill:#ffa073;}.cls-17{fill:#261b18;}.cls-18{fill:#b54d26;}.cls-19{fill:#ffdfc2;}.cls-20{fill:#e6d2c3;}.cls-20,.cls-21{opacity:0.7;}</style><clipPath id="clip-path" transform="translate(0)"><circle class="cls-1" cx="33" cy="33" r="33"/></clipPath></defs><g id="Layer_2" data-name="Layer 2"><g id="avatars"><g class="cls-2"><rect class="cls-3" width="66" height="66"/><path class="cls-4" d="M26.32,55.08c-2.51,1.13-4,5-4.48,10.92H27.7c.18-3,.48-6.4,1.22-7.16Z" transform="translate(0)"/><path class="cls-4" d="M41.55,55.08l-2.61,3.76c.74.76,1,4.12,1.22,7.16H46C45.57,60.12,44.05,56.21,41.55,55.08Z" transform="translate(0)"/><path class="cls-4" d="M41.88,61.57a11.23,11.23,0,0,1,1.08-5c.15-.31-1-2.92-9.21-2.88-8,0-9,2.74-8.87,3a16.88,16.88,0,0,1,.83,4.9c0,1.63.09,3.08.18,4.38H41.7C41.79,64.69,41.87,63.23,41.88,61.57Z" transform="translate(0)"/><path class="cls-5" d="M29,54.5c-1.58,2.8,4.75,5.94,4.75,5.94s5.58-2.93,5-5.47C38.07,52,30.47,52,29,54.5Z" transform="translate(0)"/><path class="cls-5" d="M33.81,48.81A4.5,4.5,0,0,0,29.15,53a3.78,3.78,0,0,0,.8,3,5.72,5.72,0,0,0,3.86,2.32,5.72,5.72,0,0,0,3.85-2.32,3.78,3.78,0,0,0,.8-3A4.5,4.5,0,0,0,33.81,48.81Z" transform="translate(0)"/><path class="cls-6" d="M33.76,62a.8.8,0,1,0,.79.79A.79.79,0,0,0,33.76,62Z" transform="translate(0)"/><path class="cls-7" d="M45.43,11.9C40.35,6.32,31.91,5.72,22.36,9.85a18.19,18.19,0,0,0,5-.2C22.31,12,16.38,15,15.09,20.89c-1.48,6.75-.21,14.64,3.55,15.12,3.23.4,7.17-6.71,9.37-6.08,4.64,1.32,16.18-.17,19.41-5,1.46-2.16,1.54-5.42.71-8.29A12.14,12.14,0,0,0,45.43,11.9Z" transform="translate(0)"/><path class="cls-8" d="M30.28,15.09c-7.84,1.52-13.36,12.79-11.92,23.36,1.08,7.92,7.18,16.6,16.38,15.95,9.39-.67,14.06-12.31,12.84-22C46.27,21.77,41.25,13,30.28,15.09Z" transform="translate(0)"/><path class="cls-9" d="M40.61,17a35.93,35.93,0,0,0-9.33-1.43c-2.81,0-5.86-.2-8.48,1-1.43.64-3.2,1.5-3.74,3-.44,1.27-1,2.94-.26,4.05,1.5,2.35,4.43.95,5.53.37,2.41-1.24,13.33-.39,18.43-.4,2.12,0,5.18-.37,4.3-3.23C46.37,18.11,42.61,17.59,40.61,17Z" transform="translate(0)"/><path class="cls-8" d="M15.63,34.05c-3.85,1.06-2.31,6.68.83,7.8a7.67,7.67,0,0,0,3.11.34l.06-.1c.47-.73-.18-4.82-.41-5.59C18.62,34.56,17.47,33.54,15.63,34.05Z" transform="translate(0)"/><path class="cls-10" d="M17,36.11c-.87-.39-3,.32-2,2,.53-1.56,1.49-.53,1.34.58-.1.75-.9.76-.1,1.72.43.51,1.3.32,1.75,0C19.36,39.58,18,36.6,17,36.11Z" transform="translate(0)"/><path class="cls-7" d="M42.59,12.06c-5.92-3.1-15-2.29-20,1.4S16.23,24,16.23,30a5.77,5.77,0,0,0,2.11,4.89c1.83,1.57,1.66-3.2,1.83-5,.38-4.06,2-7.35,6.49-7.51,3-.11,14.62-.66,17.35.28,1.5.51,3.49,1.29,3.79-1.09a8.89,8.89,0,0,0-2.16-7.22A11.56,11.56,0,0,0,42.59,12.06Z" transform="translate(0)"/><path class="cls-11" d="M44,13.06a14.79,14.79,0,0,0-8.4-4c-1.57-.15-4.74-.09-6.25.57a19.45,19.45,0,0,1,2.24.92,33.33,33.33,0,0,0-6.34,2.07c-.63.28-5.81,3.8-5.8,3.8,1.44.78,3.13.49,4.68.14a15.82,15.82,0,0,1,7.11-.19c2.21.5,4.2,1.61,6.4,2.12.07-1-.88-1.86-1.3-2.53,1.25,0,6.07,3,7.06,3.83-.24-.85-1.41-2.63-1.53-3.53,1.23.18,4,2.66,4.86,4.1a10.64,10.64,0,0,0-.33-3.6A8.54,8.54,0,0,0,44,13.06Z" transform="translate(0)"/><path class="cls-12" d="M41.42,41.62c-1.69.17-3.58.23-6,.36a68.39,68.39,0,0,1-7.57.32c-1.13-.08-1.86.86-1.33,1.48,3.38,4,5.59,4.35,8.47,4.43,4.17.13,5.76-1.79,6.36-3.69a5.86,5.86,0,0,1,1.19-1.64C43.26,42.13,42.5,41.51,41.42,41.62Z" transform="translate(0)"/><path class="cls-13" d="M26.87,42.67a9.72,9.72,0,0,0,7.83,4c3.32,0,5.48-1,6.07-2.46a4.25,4.25,0,0,1,2-2.13A37.41,37.41,0,0,1,26.87,42.67Z" transform="translate(0)"/><path class="cls-14" d="M28.8,43s.19,1.24,2,1.68a19.25,19.25,0,0,0,7.54.11A4,4,0,0,0,41,42.52,40.23,40.23,0,0,1,28.8,43Z" transform="translate(0)"/><path class="cls-14" d="M36,45c-2.37.14-4.34,0-5.54-.61-.85-.47-.92.06-.73.38,0,0,.8,1.69,4.74,2s5.71-1.8,5.27-2.14S38.18,44.88,36,45Z" transform="translate(0)"/><path class="cls-15" d="M28.8,43a2,2,0,0,0,.49.87s8.86-.88,11-.24a4.11,4.11,0,0,0,.71-1.1A46.81,46.81,0,0,1,28.8,43Z" transform="translate(0)"/><path class="cls-15" d="M31.15,44.62c3.21,1.63,7,.11,7,.11A14,14,0,0,1,31.15,44.62Z" transform="translate(0)"/><path class="cls-16" d="M46.13,37a3.54,3.54,0,0,0-2.86-1.1c-1.23,0-2.87.41-1.79,2.17.58.94,5.47,1.68,4.91-.48A1.86,1.86,0,0,0,46.13,37Z" transform="translate(0)"/><path class="cls-16" d="M27.79,36.73a3.7,3.7,0,0,0-3.2-.38c-1.25.3-2.81,1.15-1.25,2.66.83.81,6,.29,4.87-1.76A2,2,0,0,0,27.79,36.73Z" transform="translate(0)"/><path class="cls-17" d="M25.91,31.54c-2-.87-3.29,2.71-1.91,3.88a2.88,2.88,0,0,1,2,.17C27.36,34.89,27.42,32.19,25.91,31.54Z" transform="translate(0)"/><path class="cls-18" d="M35.51,38c-1.18,0-1.64-.52-2.47,0s.35,2.06,2.44,2,3-1.51,2.55-2S36.82,38,35.51,38Z" transform="translate(0)"/><path class="cls-19" d="M35.2,33.55C33,33.36,32.82,38,33.33,38.44c1.24,1,3.84.29,4.59-.5C38.22,37.63,37.32,33.73,35.2,33.55Z" transform="translate(0)"/><path class="cls-17" d="M45.36,31.4c-2-1.23-3.56,2.73-1.87,3.85a2.7,2.7,0,0,1,2.14,0C46.45,34.34,46.46,32.06,45.36,31.4Z" transform="translate(0)"/><path class="cls-20" d="M24.94,32.42c-.82.27-.19,1.87.61,1.29C26.12,33.29,25.67,32.17,24.94,32.42Z" transform="translate(0)"/><path class="cls-20" d="M44.3,32.09c-.8.16-.42,1.75.41,1.3C45.31,33.06,45,31.94,44.3,32.09Z" transform="translate(0)"/><path class="cls-7" d="M28,27.93a9,9,0,0,0-4.79-.7,1.89,1.89,0,0,0-1.63,2.62c.14.48.39-.64,2.8-.73,2.22-.07,4.3,1.47,4.66.75C29.47,29,28.68,28.23,28,27.93Z" transform="translate(0)"/><path class="cls-7" d="M45.81,27.23a9,9,0,0,0-4.79.7c-.69.3-1.49,1-1,1.94.36.72,2.44-.82,4.66-.75,2.41.09,2.66,1.21,2.8.73A1.89,1.89,0,0,0,45.81,27.23Z" transform="translate(0)"/><path class="cls-7" d="M41.51,39.88c-2.13-1.49-3.34-.83-5.89-.52-3.39,0-4.65-1-7.22,1.82a4.24,4.24,0,0,1-6-.16c.53,5,8.26,4.43,10.19,1.82.8.88,2.87.38,3.31-.67.73.77,2.92,2.32,3.79.81a3.6,3.6,0,0,0,1.52.86c2.48.76,5.29-.5,5.52-3.26C44.45,42,43.56,41.32,41.51,39.88Z" transform="translate(0)"/><path class="cls-21" d="M40,39.74a6.7,6.7,0,0,0-3.69-.08,11,11,0,0,1-3.13-.09,3.19,3.19,0,0,0-2.27.31c-.5.33-2.45,1.63-1.94,2.28.28.35,1.24.35,1.63.32a3.85,3.85,0,0,0,2.11-1c.44.55.72,1,1.54.81a1.74,1.74,0,0,0,1.32-1c.29.39,2.56,1.51,2.69.56a5.53,5.53,0,0,0,2.39.18c.38-.07,1.31-.28,1.48-.71a.51.51,0,0,0,0-.36C41.87,40.44,40.55,40,40,39.74Z" transform="translate(0)"/></g></g></g></svg>