<svg xmlns="http://www.w3.org/2000/svg" xmlns:xlink="http://www.w3.org/1999/xlink" viewBox="0 0 66 66"><defs><style>.cls-1{fill:none;}.cls-2{clip-path:url(#clip-path);}.cls-3{fill:#d6bb40;}.cls-4{fill:#ffc38f;}.cls-5{fill:url(#linear-gradient);}.cls-6{fill:#5e4684;}.cls-7{opacity:0.1;}.cls-8{fill:#bba7db;}.cls-20,.cls-21,.cls-22,.cls-9{fill:#fff;}.cls-9{opacity:0.07;}.cls-10{fill:#231e1a;}.cls-11{fill:#f06799;}.cls-12{fill:#ffc088;}.cls-13{fill:#1a1614;}.cls-14{fill:#d14f2e;}.cls-14,.cls-18,.cls-20{opacity:0.3;}.cls-15{fill:#2b241e;}.cls-16{fill:#a88686;}.cls-17{fill:#ffa26f;}.cls-18{fill:#bf3c1b;}.cls-19{fill:#6e7073;}.cls-22{opacity:0.7;}.cls-23{fill:#423631;}.cls-24{fill:#ff5c5c;}</style><clipPath id="clip-path" transform="translate(0.01)"><circle class="cls-1" cx="33" cy="33" r="33"/></clipPath><linearGradient id="linear-gradient" x1="33.89" y1="49.03" x2="33.89" y2="55.56" gradientUnits="userSpaceOnUse"><stop offset="0" stop-color="#ee996d"/><stop offset="0.02" stop-color="#ee9a6e"/><stop offset="0.37" stop-color="#f8b181"/><stop offset="0.71" stop-color="#fdbf8d"/><stop offset="1" stop-color="#ffc491"/></linearGradient></defs><g id="Layer_2" data-name="Layer 2"><g id="avatars"><g class="cls-2"><rect class="cls-3" width="66" height="66"/><path class="cls-4" d="M29.43,56.42c1.33-1.11,1.13-4.79-.79-4.12-4.18,1.47-4.15,5-6.15,13.7h3.57C27,62.15,27.44,58.09,29.43,56.42Z" transform="translate(0.01)"/><path class="cls-4" d="M38.13,56.42c-1.33-1.11-1.13-4.79.79-4.12,4.19,1.47,4.15,5,6.15,13.7H41.5C40.57,62.15,40.12,58.09,38.13,56.42Z" transform="translate(0.01)"/><path class="cls-5" d="M37.25,51.42c-2.13-.94-.7-3.49-3.49-3.49s-1.52,2.88-3.52,3.63c-4.66,1.76-4.62,4.47-1.86,7.22s7.59,3.16,11.38-.27S39.39,52.35,37.25,51.42Z" transform="translate(0.01)"/><path class="cls-6" d="M39.61,60.94c2-4.4-.1-6.72-1.13-9.08a5.05,5.05,0,0,0-1.26-.57c.39,1.72,1,5.91-3.34,5.91S30,53.73,30.26,51.41a1.52,1.52,0,0,0-.94.43c-1.22,3.71-3.26,4.75-1.39,9.22A12.48,12.48,0,0,1,29,66h9.29A12.84,12.84,0,0,1,39.61,60.94Z" transform="translate(0.01)"/><path class="cls-7" d="M29.83,61.67c.43.73,1.76.72,2.8.92-.18,0-.36.09-.55.12a8.74,8.74,0,0,0,4.24-.28c.39-.12,1.46-.78,1.67-.81a31.22,31.22,0,0,1-4.32.26C32.36,61.86,31.1,61.69,29.83,61.67Z" transform="translate(0.01)"/><path class="cls-8" d="M36.89,50.83a.46.46,0,0,0-.36.56c.2.88.72,3.22-.27,4.45a2.88,2.88,0,0,1-2.38.89,3.26,3.26,0,0,1-2.55-.84c-.84-1-.6-2.69-.41-4.09l0-.29a.46.46,0,0,0-.4-.53.48.48,0,0,0-.53.4l0,.3c-.21,1.58-.49,3.55.63,4.82a4.1,4.1,0,0,0,3.26,1.17A3.76,3.76,0,0,0,37,56.43c1.28-1.59.68-4.25.46-5.25A.47.47,0,0,0,36.89,50.83Z" transform="translate(0.01)"/><path class="cls-8" d="M29.13,51.67a.47.47,0,0,0-.59.3c-.3.91-.61,1.63-.88,2.26a9,9,0,0,0-.95,3.37.47.47,0,0,0,.45.49h0a.47.47,0,0,0,.47-.45,8.14,8.14,0,0,1,.87-3c.28-.65.6-1.39.91-2.34A.47.47,0,0,0,29.13,51.67Z" transform="translate(0.01)"/><path class="cls-8" d="M39.07,52a.47.47,0,1,0-.89.29c.31,1,.63,1.69.91,2.34a8.14,8.14,0,0,1,.87,3,.47.47,0,0,0,.47.45h0a.47.47,0,0,0,.45-.49A9,9,0,0,0,40,54.23C39.68,53.6,39.37,52.88,39.07,52Z" transform="translate(0.01)"/><path class="cls-9" d="M36.9,57.39A12.83,12.83,0,0,1,30,57.31c-1.25-.29-2,1.07-1.58,2.23.5,1.53,3.09,1.92,5.36,1.88,4.45-.08,6.12-1.67,5.38-3.56C39,57.35,38,57,36.9,57.39Z" transform="translate(0.01)"/><path class="cls-10" d="M47.59,14.58c-1.85-2.32-2.42-4.94.63-5.1-2-1.41-7.6-2.92-13.8-2.6.19-.52,0-.91.58-1.34-2.66.35-5.84.4-9.24,2.39-1.56.91-2.24,2.3-4,2.79a17.21,17.21,0,0,0-4.44,1.74c-3.58,2-5.53,6.22-5.94,7.49a4,4,0,0,1,3-.81,6.32,6.32,0,0,0-.65,6.05c.83,2.18-1.44,5.77-.4,10.36.89,3.9,6.26,4.76,6.14,8.87a38.28,38.28,0,0,0,4.15-2.76c.8-1.08,1-2.41,1.84-3.47,2.16-2.64,6-3.81,9.35-3.73,2.44.06,3.32,1.08,4.78,2.65,1,1,4.54,2.36,6.74,6.69A8.43,8.43,0,0,0,48.44,39c.37.64,3.29.68,4.75,0-1.72-1.34-3.36-5.24-3.32-7.29.06-3.26,2.57-4.77-.19-8.69,1.32-.19,3.39-.27,4.75-1.74C50.72,21.18,49.75,17.31,47.59,14.58Z" transform="translate(0.01)"/><path class="cls-11" d="M46.38,37a1.33,1.33,0,0,0,.23,2.61,1.24,1.24,0,0,0,1-1.41A1.21,1.21,0,0,0,46.38,37Z" transform="translate(0.01)"/><path class="cls-12" d="M32.43,15c-7.85.7-13.87,7.53-13.27,18.38S26.76,51,34.63,51.21c6,.18,13.35-9.77,12.4-20.6S40.26,14.31,32.43,15Z" transform="translate(0.01)"/><path class="cls-13" d="M29,31.39c-2.05-.71-3.05,2.92-1.6,4a2.84,2.84,0,0,1,2,0C30.71,34.6,30.58,31.92,29,31.39Z" transform="translate(0.01)"/><path class="cls-13" d="M44,31.26c-2-1.12-3.79,3.11-1.53,3.69a2.68,2.68,0,0,1,1.77-.28C45,33.77,45,31.87,44,31.26Z" transform="translate(0.01)"/><path class="cls-12" d="M16.44,30.52c-3.49,1.58-1.79,7.62,1.15,8.53a5.74,5.74,0,0,0,2.88,0l.06-.11c.39-.85-.56-4.89-.81-5.72C19.08,31.17,18.12,29.76,16.44,30.52Z" transform="translate(0.01)"/><path class="cls-14" d="M18.46,32.64c-.94-.52-3.38.14-2.33,2.11.67-1.72,1.69-.5,1.47.74-.14.84-1,.79-.19,1.93a1.59,1.59,0,0,0,1.94.18C21,36.7,19.62,33.26,18.46,32.64Z" transform="translate(0.01)"/><path class="cls-15" d="M23.52,30.08a11.25,11.25,0,0,1,4.78-.75c1.73.07,2.56.72,2.9-1.21a36.68,36.68,0,0,1-3.92.42A6.21,6.21,0,0,0,23.52,30.08Z" transform="translate(0.01)"/><path class="cls-15" d="M40.22,28c.35,1.9,1,1.19,2.5,1a8,8,0,0,1,4.09.44,4.61,4.61,0,0,0-3.24-1.29A25,25,0,0,1,40.22,28Z" transform="translate(0.01)"/><path class="cls-14" d="M36.35,38.12c-.73.07-1.05-.22-1.54.1s.73,1.23,1.63,1.09,1.77-1.07,1.47-1.36S37.16,38.05,36.35,38.12Z" transform="translate(0.01)"/><path class="cls-13" d="M23.35,32.33a3.71,3.71,0,0,0,4.69.28l-.3-1.05A3.75,3.75,0,0,1,23.35,32.33Z" transform="translate(0.01)"/><path class="cls-13" d="M44,31.33l-.31.93c2.53,1.8,4.22.1,4.22.1C46,33.18,44,31.33,44,31.33Z" transform="translate(0.01)"/><path class="cls-16" d="M28.12,32c-.79.33-.06,1.86.69,1.23C29.35,32.77,28.82,31.7,28.12,32Z" transform="translate(0.01)"/><path class="cls-16" d="M42.94,31.69c-.78.18-.35,1.7.44,1.24C44,32.6,43.63,31.53,42.94,31.69Z" transform="translate(0.01)"/><path class="cls-17" d="M43.43,36.49c-1.12.09-2,.78-1.91,1.54s1,1.29,2.15,1.2,2-.78,1.91-1.54S44.56,36.4,43.43,36.49Z" transform="translate(0.01)"/><path class="cls-17" d="M27.15,36.9c-1.23-.11-2.29.49-2.37,1.32s.88,1.59,2.11,1.69,2.3-.49,2.37-1.32S28.39,37,27.15,36.9Z" transform="translate(0.01)"/><path class="cls-11" d="M19,38.12A1.21,1.21,0,0,0,18,39.45a1.22,1.22,0,0,0,1.12,1.29A1.33,1.33,0,0,0,19,38.12Z" transform="translate(0.01)"/><path class="cls-18" d="M41.92,15.71a39.76,39.76,0,0,0-12.86,1c-6.5,1.66-11.53,8.81-10.94,15.56.33,3.88,1.65,9,6.41,8.75a16.45,16.45,0,0,1-1.1-1.66c-1.8-3.43-2.54-9-1.22-12.74.24.06,1.56.48,1.53.81.26-2.86,1.45-4,4-5a21.84,21.84,0,0,1,6.37-1.69c1.55-.06,3,1.35,4.36,2a8.38,8.38,0,0,0,4.88,1,3.55,3.55,0,0,1-.46-1.66c0-.36,2.13,1.79,2.22,1.92a7.13,7.13,0,0,1,1.48,3.4c-.58-3.91-1.18-5.61-1.54-8.33S44.19,15.88,41.92,15.71Z" transform="translate(0.01)"/><path class="cls-19" d="M38.11,30.85c-.84,1-.37,4.28.21,5.35s7.1,1.11,8.52.57,1.83-4.22.8-5.74S39.34,29.39,38.11,30.85Zm8.58,5.33c-1.11.4-7.33.37-7.86-.36s-.76-3.84-.13-4.55c.92-1.05,7.39-1,8.34.06S47.81,35.78,46.69,36.18Z" transform="translate(0.01)"/><path class="cls-19" d="M23.34,31.32c-1.06,1-.39,4.3.52,5.33s8,.5,9.3-.11,1.3-4.31.13-5.76S24.89,29.78,23.34,31.32ZM32.8,36c-1.06.43-7.52.84-8.34.16s-1.37-3.78-.59-4.5c1.15-1.07,7.85-1.44,8.89-.48S33.87,35.59,32.8,36Z" transform="translate(0.01)"/><path class="cls-19" d="M34.34,32.84c-.16.08-1.12.89-.64,1.1a4.51,4.51,0,0,1,3.9-.58c.27.11.77.68.48-.08C37.56,32,35.3,32.35,34.34,32.84Z" transform="translate(0.01)"/><path class="cls-19" d="M21.83,33.23a14.69,14.69,0,0,0-3-.18c-.26.19.54.44.91.54.73.2,2,.39,2.72.55,1.08.23,1.08.09,1-.38S22.73,33.31,21.83,33.23Z" transform="translate(0.01)"/><path class="cls-20" d="M42.55,30.79c-.41.11-3.26.69-2.71,2,.36.87,7,1.39,7.44-.07C48.15,29.75,43.37,30.57,42.55,30.79Z" transform="translate(0.01)"/><path class="cls-20" d="M32.27,30.75a13.22,13.22,0,0,0-4.71.13c-.47.08-2.65.47-1.88,1.89S32,34.36,33,33.14A1.46,1.46,0,0,0,32.27,30.75Z" transform="translate(0.01)"/><path class="cls-21" d="M43,31c-.72,0-1.2.2-1.05.55.32.71,4.5.83,4.83.36S44.55,30.94,43,31Z" transform="translate(0.01)"/><path class="cls-22" d="M39.84,34.89c-.44,0-.76,0-.7.33.12.59,2.68,1.14,2.94.8S40.79,35,39.84,34.89Z" transform="translate(0.01)"/><path class="cls-21" d="M29.24,30.89c-.71.05-1.18.21-1,.54.32.64,4.42.68,4.74.24S30.74,30.8,29.24,30.89Z" transform="translate(0.01)"/><path class="cls-22" d="M25.1,35.11c-.43,0-.74,0-.68.32.13.55,2.65,1,2.9.69S26,35.2,25.1,35.11Z" transform="translate(0.01)"/><path class="cls-10" d="M43.3,14.36C35.72,10.92,28,13,20.91,16.45a8.54,8.54,0,0,0-3.69,3.45c-1.53,2.73-.2,9.77,1.17,15.43,1.09,4.48,4.74,4.84,4.74,4.84-3.5-4.6-1.46-15.81,0-18.2a3.64,3.64,0,0,0,.34,3.64c0-2.53,2.21-3.41,4.11-4.38a20.74,20.74,0,0,1,7.73-2.16c.93,1.72,4.66,3.81,6.65,3.57a1.58,1.58,0,0,1-.59-2c1.07.47,1.9.45,2.83,1.19.24.19,3.21,2.94,3.22,3.05-.06-1.94.71-5,.08-6.84S44.94,15.11,43.3,14.36Z" transform="translate(0.01)"/><path class="cls-23" d="M47.08,16.31C46,15,44.28,12.27,41,11.56a10.9,10.9,0,0,1,4-2.24,22.4,22.4,0,0,0-7.35-1.14c-1,0-2,.62-3,.26-.31-.11-1.63-1-.95-2.19A30,30,0,0,0,28,8.12c-1.59.77-2.84,2-4.4,2.85-2,1.08-4,.76-6.58,2.46-1.58,1-2.58,3.29-3.18,4,1.06-.5,4.11-1.9,5.25-1.7-1.46,3.35-1.24,5.17-4.44,8.26,6.32.9,7.61-4,9.86-4.69-.13,1.06-.58,2.05-.64,3.12,2.9-3.77,7.38-4.51,11.76-5.07a8.56,8.56,0,0,0,4.15,3,7.67,7.67,0,0,1,.28-2.82c1.85.22,9.18,5.25,10.75,4C48.64,21.47,48.59,18.13,47.08,16.31Z" transform="translate(0.01)"/><path class="cls-23" d="M21.6,23.51c-2.36,1.7-2.68,3.62-3,6.43A10.48,10.48,0,0,0,18.8,34a6.84,6.84,0,0,0,2.31,3.72A25.17,25.17,0,0,1,20.34,29C20.73,26.76,21.2,25.59,21.6,23.51Z" transform="translate(0.01)"/><path class="cls-24" d="M26.52,41c1,1.83,3.26.92,2.27-.95A1.71,1.71,0,0,1,26.52,41Z" transform="translate(0.01)"/><path class="cls-24" d="M41.75,39.63a1.3,1.3,0,1,0,2.48.68A1.9,1.9,0,0,1,41.75,39.63Z" transform="translate(0.01)"/><path class="cls-24" d="M42.83,40.61a.54.54,0,0,0-.68.3,7,7,0,0,1-6.8,4.39,7.1,7.1,0,0,1-6.58-3.75.59.59,0,0,0-.72-.29.45.45,0,0,0-.28.63,8.21,8.21,0,0,0,7.36,4.4h.29c3.67,0,6.76-2,7.78-5A.52.52,0,0,0,42.83,40.61Z" transform="translate(0.01)"/></g></g></g></svg>