<svg xmlns="http://www.w3.org/2000/svg" xmlns:xlink="http://www.w3.org/1999/xlink" viewBox="0 0 96 96"><defs><style>.cls-1{fill:none;}.cls-2{clip-path:url(#clip-path);}.cls-3,.cls-9{fill:#fff;}.cls-4{fill:#d47844;}.cls-5{fill:url(#linear-gradient);}.cls-6{fill:#3a3a4a;}.cls-7,.cls-9{opacity:0.1;}.cls-8{fill:#ff9819;}.cls-10{fill:#331f1b;}.cls-11{fill:#593c2d;}.cls-12{fill:#85b428;}.cls-13{fill:#588a17;}.cls-14,.cls-15{fill:#661004;}.cls-14{opacity:0.2;}.cls-15{opacity:0.3;}.cls-16{fill:#d4502c;}.cls-17{fill:#e6d2c3;opacity:0.7;}.cls-18{fill:#2b221c;}.cls-19{fill:#960800;opacity:0.4;}.cls-20{fill:#8f2621;}.cls-21{fill:#fff9f0;}.cls-22{fill:#e8dac5;}.cls-23{fill:#b54d26;opacity:0.6;}.cls-24{fill:#f7a25b;}.cls-25{fill:#121b21;}</style><clipPath id="clip-path"><circle class="cls-1" cx="48" cy="48" r="48"/></clipPath><linearGradient id="linear-gradient" x1="49.08" y1="71.81" x2="49.08" y2="79.37" gradientUnits="userSpaceOnUse"><stop offset="0" stop-color="#c25421"/><stop offset="1" stop-color="#d47844"/></linearGradient></defs><g id="Layer_2" data-name="Layer 2"><g id="Layer_4" data-name="Layer 4"><g class="cls-2"><rect class="cls-3" width="96" height="96"/><path class="cls-4" d="M42.23,81.3a2.3,2.3,0,0,0-.53-4.56c-5.14.62-6.09,5.31-6.86,9.07C34.39,88.05,33,93.35,32.07,96h4.84c.87-2.57,2-7.62,2.34-9.26C40.07,82.7,40.56,81.5,42.23,81.3Z"/><path class="cls-4" d="M56.46,76.74a2.26,2.26,0,0,0-2.5,2,2.29,2.29,0,0,0,2,2.55c1.67.2,2.16,1.4,3,5.44.34,1.64,1.48,6.69,2.35,9.26H66.1c-.89-2.65-2.32-8-2.78-10.19C62.56,82.05,61.61,77.36,56.46,76.74Z"/><path class="cls-5" d="M54,75.33c-3.14-1.38-1-5.14-5.15-5.14s-2.23,4.24-5.18,5.35c-6.86,2.6-6.81,6.58-2.75,10.64s11.2,4.65,16.78-.39S57.19,76.7,54,75.33Z"/><path class="cls-6" d="M57.52,89.36c2.89-6.48-.14-9.9-1.66-13.37A8,8,0,0,0,54,75.13c.57,2.55,1.44,8.73-4.92,8.73s-5.8-5.12-5.34-8.54a2.16,2.16,0,0,0-1.39.64c-1.8,5.46-4.79,7-2,13.59A18,18,0,0,1,42,96H55.59A18.24,18.24,0,0,1,57.52,89.36Z"/><path class="cls-7" d="M43.1,90.44c.65,1.08,2.6,1.07,4.13,1.35-.26,0-.53.14-.8.18a12.75,12.75,0,0,0,6.24-.41c.58-.18,2.15-1.15,2.46-1.19a45.11,45.11,0,0,1-6.37.38C46.83,90.71,45,90.47,43.1,90.44Z"/><path class="cls-8" d="M53.51,74.46a.69.69,0,0,0-.53.83c.29,1.29,1.06,4.74-.4,6.56a4.23,4.23,0,0,1-3.5,1.31c-1.78,0-3-.41-3.77-1.24-1.23-1.41-.87-4-.59-6l.06-.44a.69.69,0,1,0-1.37-.18l-.06.43c-.32,2.33-.72,5.23.92,7.12,1,1.14,2.61,1.72,4.81,1.72a5.58,5.58,0,0,0,4.59-1.83c1.87-2.34,1-6.26.66-7.74A.69.69,0,0,0,53.51,74.46Z"/><path class="cls-8" d="M42.08,75.7a.7.7,0,0,0-.88.45c-.44,1.34-.89,2.39-1.29,3.32a13.15,13.15,0,0,0-1.4,5,.69.69,0,0,0,.66.72h0a.69.69,0,0,0,.69-.66A12,12,0,0,1,41.18,80c.41-1,.88-2,1.34-3.44A.7.7,0,0,0,42.08,75.7Z"/><path class="cls-8" d="M56.73,76.15a.69.69,0,1,0-1.31.43A36.85,36.85,0,0,0,56.76,80,12.13,12.13,0,0,1,58,84.51a.69.69,0,0,0,.69.66h0a.69.69,0,0,0,.66-.72,13.32,13.32,0,0,0-1.39-5C57.63,78.54,57.17,77.49,56.73,76.15Z"/><path class="cls-9" d="M53.53,84.14c-3.14,1.07-6.93.64-10.13-.12-1.84-.44-2.88,1.57-2.33,3.27.75,2.27,4.56,2.85,7.9,2.79,6.56-.13,9-2.47,7.93-5.26C56.6,84.07,55.2,83.57,53.53,84.14Z"/><polygon class="cls-8" points="67.49 57.32 64.61 63.52 70.38 63.52 67.49 57.32"/><path class="cls-10" d="M33.38,44.7C23,40.62,18.38,47.46,17,60.83c-.95,9,1.34,13.61,6.3,12,1,4.14,9.76,2.87,14.21-1.62C52,56.59,38.33,46.66,33.38,44.7Z"/><path class="cls-11" d="M22.5,58.91c-1.3-.86-2.92-1.11-4,.12C17,60.88,16.79,72,21.36,69.86c1.84-.88,3.43-6.55,3.16-8.22A4.5,4.5,0,0,0,22.5,58.91Z"/><path class="cls-12" d="M25.83,32.92c-13,3.3-10.59,29.09,6.37,27.36C44.94,59,34.92,30.62,25.83,32.92Z"/><path class="cls-13" d="M32.28,48.2a9.07,9.07,0,0,1-4.27.58c-1.58-.23-4.82-2.24-6-.72-.4.53-.13,1.82-.52,2.48-1.25,2.08-2.53,2.21-.94,4.64A14.12,14.12,0,0,0,24,58.72c2.58,1.82,5.49,1.88,8.61,1.56,3.3-.33,5.4-2.19,6-5.29.45-2.65.73-7.48-3-7.45A10.92,10.92,0,0,0,32.28,48.2Z"/><path class="cls-10" d="M68.33,25.65a15.6,15.6,0,0,0-1.55-1.81.25.25,0,0,0-.17,0c5.23-2,2.35-7.09-1.72-5,0-.06-.2.2,0,.09,1.4-3.9-4.14-6.15-6.75-3.32,0-3.52-4.35-4.74-6.68-2.27-.31-4.49-7.58-2.94-8.71.61-2.28-3.19-8.7-1.73-9.13,2.42-3.51-3-7.7,1-6.09,4.87-3.92-2-7.92,1.34-4.72,6.54-6.33-1.86-2.22,11.39-2.15,12.07.91,8.57,4,16.61,10.75,22.33,4.52,3.83,9.85,5,15.52,6.19,7.06,1.42,13,.22,17.49-5.79C71.26,53.42,75.8,35.75,68.33,25.65Z"/><path class="cls-4" d="M29.74,54.31C31,65,39.83,76.2,51.25,76.2c11.12,0,19.23-16.1,17.89-29.2-1.46-14.25-7.92-26.23-22.71-23.68C35.87,25.13,28.13,40.08,29.74,54.31Z"/><path class="cls-14" d="M51.93,35c4.44,4.13-8.24,4.56-16.8,1.38,2.54,4.88-4,2.95-3.15,10.35-2.57-4.28-2.9-11.86-1.8-16.68.68-2.95,2.58-4.16,5.42-5.38,3.62-1.54,7.78-1.23,11.62-1.08a40.81,40.81,0,0,1,11.87,2.29c3.57,1.25,6.21,2.75,9.77,4.09,3.9,1.47,1,3.57-2.83,4.47A37.68,37.68,0,0,1,51.93,35Z"/><path class="cls-4" d="M27.1,58.82a10.22,10.22,0,0,0,4.16.54l.09-.12c.64-1-.11-6.48-.4-7.52-.74-2.63-2.25-4-4.74-3.4C21,49.63,22.92,57.21,27.1,58.82Z"/><path class="cls-15" d="M29.14,57c1.91-1.14.22-5.18-1.18-5.86-1.15-.56-4.07.34-2.76,2.63.77-2.08,2-.68,1.79.81-.15,1-1.23,1-.19,2.31C27.36,57.59,28.54,57.36,29.14,57Z"/><path class="cls-10" d="M73.28,27.73c-.18-3.6-10.24-6.38-13-8.13-5.79-3.73-12.34-4-19-3A25.77,25.77,0,0,0,33.15,19c-2.16,1.14-3.07,3.93-4.1,6-2.74,5.59-2.93,23.13,2.87,27,1.83-3.69.58-8.64-.6-12.45,3.08.95,4.09-1.88,2.13-5.3,8,4.1,23.95,3.49,15.41-.36,6.2.78,14.31.68,20.06-2C72.15,30.42,73.35,29,73.28,27.73Z"/><path class="cls-11" d="M49.69,16.87c1.8-2.14,7.36-3,6.06,1.74,2.49-2.22,7.84-2.18,4.9,2.45,2.65-1.91,6.74.43,3.16,2.67,2-.13,4.36.65,3.86,3-.59,2.8-6,1.54-5.93,1.39.16,4.19-5.56,4-8.4,1,.58,2.45-2.66,4.17-9,2.07,1.23,4.51-4,2.28-5.25,0,1.85,4.75-6.82-.05-7.73-.51,2.07,3.56,1.91,8.88-1.93,6.52,1.08,2.21,2.49,6.63-.35,8-3.46,1.66-4.52-2.38-5.31-4.66-3.33,3.23-4.14-11.56,1-8.48-1.95-1.83-1.37-5.94,1.85-5-2.23-3.35-.29-5.83,3.24-3.9-1.4-3.88,2.95-6.92,5.84-3.54,0-.07.14-.08.18,0-.61-4.32,5.56-6.15,6.76-2.11C44.85,13.75,49.51,13,49.69,16.87Z"/><polygon class="cls-8" points="28.61 58.39 25.51 64.6 31.71 64.6 28.61 58.39"/><path class="cls-16" d="M68.61,54.48c-.43-1.33-2.16-1.81-3.46-2-1.69-.23-4.16.08-3.47,2.69.37,1.39,6.8,3.21,7,.15A2.1,2.1,0,0,0,68.61,54.48Z"/><path class="cls-16" d="M42.81,54.62a2.49,2.49,0,0,0-.47-.78c-1-1.14-3-1-4.38-.78-1.82.32-4.18,1.43-2.33,3.7C36.61,58,43.93,57.63,42.81,54.62Z"/><path class="cls-10" d="M40.8,51.29a4.78,4.78,0,0,0-3-.32c-2-1.62-.08-6.34,2.9-5.09C43,46.82,42.83,50.42,40.8,51.29Z"/><path class="cls-17" d="M39.58,46.78c1.08-.3,1.74,1.22.87,1.75C39.26,49.26,38.36,47.11,39.58,46.78Z"/><path class="cls-10" d="M66.31,51.3a4.71,4.71,0,0,0-3-.32c-2-1.63-.09-6.34,2.9-5.09C68.47,46.82,68.33,50.42,66.31,51.3Z"/><path class="cls-17" d="M65,46.83a1,1,0,0,1,.87,1.76C64.71,49.32,63.81,47.17,65,46.83Z"/><path class="cls-18" d="M41.57,43.84c1,0,2.23-.12,2.36-.87.17-1-.56-1.39-1.71-1.4-1.6,0-8.31.67-8.5,1.33C33.45,43.86,36.39,44,41.57,43.84Z"/><path class="cls-18" d="M69.41,43.19c-.16-.67-5.56-1.31-6.84-1.29-.93,0-1.51.4-1.35,1.41.12.75,1.07.83,1.91.86C67.29,44.32,69.64,44.13,69.41,43.19Z"/><path class="cls-19" d="M53,59.34c5.51-.26,8.71.38,12.24-.85-1.23.58-3.42,3.55-3.76,4.69-.87,2.94-3,7-9,7.07-5.5.06-9.19-4.15-13.91-11.65C42.27,60.5,48.32,59.55,53,59.34Z"/><path class="cls-20" d="M40.54,60.11a50.57,50.57,0,0,0,23-.62,6.25,6.25,0,0,0-3,3.26c-.87,2.18-4,3.73-8.79,3.71C44.33,66.44,40.54,60.11,40.54,60.11Z"/><path class="cls-21" d="M43.33,60.64s.23,1.43,2.91,2.14a26.2,26.2,0,0,0,10.9.28,5.71,5.71,0,0,0,3.78-3A54.41,54.41,0,0,1,43.33,60.64Z"/><path class="cls-21" d="M44.62,63.4c-.27-.5-.17-1.31,1.06-.57,1.73,1,4.62,1.53,8,1.35,3.17-.15,4.73-1.4,5.36-.86s-2.15,3.74-7.62,3.23C45.76,66,44.62,63.4,44.62,63.4Z"/><path class="cls-22" d="M44.28,61.91s12.41-1.29,15.49-.26a4.78,4.78,0,0,0,1.15-1.57,62.59,62.59,0,0,1-17.59.56A1.94,1.94,0,0,0,44.28,61.91Z"/><path class="cls-22" d="M46.85,63.39a19.09,19.09,0,0,0,10.1.25S51.48,66,46.85,63.39Z"/><path class="cls-23" d="M56.29,54.65c-.55-1-1.53-.1-3.18-.29-1.48-.17-1.41-1-2.52-.4s-.41,2.95,2.23,3.17S56.77,55.47,56.29,54.65Z"/><path class="cls-24" d="M52.93,50c-1.22,0-3.21,4-2.63,4.64,1.44,1.6,4.79,1,5.85,0C56.56,54.29,54.32,50.05,52.93,50Z"/><path class="cls-25" d="M72,43s-.81,4.31-6.33,3.95a3.22,3.22,0,0,0-3.15,2.32,3.5,3.5,0,0,1,2.92-4C67.16,45,69.5,45.78,72,43Z"/><path class="cls-25" d="M32.48,43.19s1.07,4.25,6.56,3.56a3.22,3.22,0,0,1,3.29,2.13,3.5,3.5,0,0,0-3.15-3.8C37.44,44.9,35.15,45.85,32.48,43.19Z"/></g></g></g></svg>