<svg xmlns="http://www.w3.org/2000/svg" xmlns:xlink="http://www.w3.org/1999/xlink" viewBox="0 0 66 66"><defs><style>.cls-1{fill:none;}.cls-2{clip-path:url(#clip-path);}.cls-3{fill:#fff;}.cls-4{fill:#ffcb9e;}.cls-5{fill:url(#linear-gradient);}.cls-6{fill:#ff87b3;}.cls-7{fill:#f06799;opacity:0.7;}.cls-8{fill:#fdd281;}.cls-9{fill:#f4bb6e;}.cls-10{fill:#fff9f0;}.cls-11{fill:#ffb387;}.cls-12,.cls-14{fill:#bf3c1b;}.cls-12{opacity:0.2;}.cls-13{fill:#a16b43;}.cls-14{opacity:0.15;}.cls-15{opacity:0.5;}.cls-16{fill:#f04d4d;}.cls-17{fill:#8f3935;}.cls-18{fill:#e8dac5;}.cls-19{fill:#305d80;}.cls-20{fill:#86bae3;}.cls-21{fill:#121b21;}.cls-22{fill:#ffe8bd;}</style><clipPath id="clip-path" transform="translate(0 0)"><circle class="cls-1" cx="33" cy="33" r="33"/></clipPath><linearGradient id="linear-gradient" x1="33.17" y1="50.58" x2="33.17" y2="55.7" gradientUnits="userSpaceOnUse"><stop offset="0" stop-color="#eea17a"/><stop offset="0" stop-color="#eea17a"/><stop offset="0.36" stop-color="#f7b88e"/><stop offset="0.7" stop-color="#fdc69a"/><stop offset="1" stop-color="#ffcb9e"/></linearGradient></defs><g id="Layer_2" data-name="Layer 2"><g id="avatars"><g class="cls-2"><rect class="cls-3" width="66" height="66"/><path class="cls-4" d="M29.55,57.5c1.09-.91-.18-4.19-1.65-3.39-3,1.63-3.95,7.38-5,11.89h3.24C26.92,62.66,27.81,59,29.55,57.5Z" transform="translate(0 0)"/><path class="cls-4" d="M38.08,54.11c-1.47-.8-2.74,2.48-1.65,3.39,1.74,1.47,2.63,5.16,3.43,8.5H43.1C42,61.49,41.1,55.74,38.08,54.11Z" transform="translate(0 0)"/><path class="cls-5" d="M36.55,53.2c-2.14-.94-.7-3.51-3.52-3.51s-1.52,2.9-3.53,3.66C25,55.07,25,58,27.62,60.61c2.77,2.77,7.7,3.22,11.45-.27C42.63,57,38.7,54.14,36.55,53.2Z" transform="translate(0 0)"/><path class="cls-6" d="M38.93,62.78c2-4.42-.58-7-1.61-9.37a1.92,1.92,0,0,0-.8-.34c.39,1.73,1,6-3.36,6s-4-3.49-3.64-5.83a1.52,1.52,0,0,0-.95.43c-1.23,3.74-3.28,4.78-1.4,9.28A13.24,13.24,0,0,1,28.25,66h9.42A13.39,13.39,0,0,1,38.93,62.78Z" transform="translate(0 0)"/><path class="cls-7" d="M29.08,63.51c.44.75,1.78.74,2.82.93-.18,0-.36.09-.55.12a8.7,8.7,0,0,0,4.26-.28c.4-.12,1.47-.79,1.68-.81a31.46,31.46,0,0,1-4.35.26C31.63,63.71,30.36,63.54,29.08,63.51Z" transform="translate(0 0)"/><path class="cls-8" d="M52.16,28.94c2.48-.66,5.28-6.07,1.07-5.77,1.14,1.71-1.56,2.49-2.45,1.2a.68.68,0,0,1-.14-.32c-.14-2.13-2.34-3.59-4-4.91a23,23,0,0,0-8.74-4.2c-5.48-1.26-12-.95-16.39,2.67-1.76,1.46-3.29,4.52-5.72,5.09-3,.71-4.65,3.75-2.28,5.66a1.74,1.74,0,0,1-2.62-1.29c-2.57,1.78-3.54,5.25,0,6.82C6.74,36,7.78,40.41,12.23,42.31c-2.09,1.94-1,5.23,1.08,6.53-.16-1.37,1.12-4.42,3.49-2.86,1.45,1,.68,3.52-1.3,2.23C15,50.54,18.9,52,20.05,50.05c-.13,1.74,1.07,2.42,2.68,2.32,2.4-.16,3.24-1.77,4.86-2.26a24.86,24.86,0,0,1,6.56-.71c4-.07,7.41,3.86,11.38,2.16,1.53-.66,2.27-1.64,2.11-3.13-1.09.76-3.92-.34-1.61-2.15,1.16-.91,2.87-.07,4-.75,1.38-.81.82-3.71.92-3.78,1-.62,2.65-.67,2.75,1.07,2-4,.1-5.16-2.1-5.46C56.51,36.59,57.45,29.89,52.16,28.94Z" transform="translate(0 0)"/><path class="cls-9" d="M49,30.89c0-3.69-4.67-2.55-6.34-2.8-5.62-.88-13.28.29-18.92.72-3.43.26-9.49.61-10.22,5.31A8.9,8.9,0,0,0,14.45,39c-1.64,1.06-1,3.9,1.16,3.15a1.77,1.77,0,0,0-.46,2c.57.91,2.39.59,3.33,1.15a2.66,2.66,0,0,1,1.29,3.43c.45-.17.94-.29,1.39-.42.34,1.16.41,3,2,2.93a4.73,4.73,0,0,0,2.19-.82,8.42,8.42,0,0,1,2.07-1c1.61-.42,2.44.69,3.89,1.08a6.09,6.09,0,0,0,3.35-.49c2.18-.72,3.17-1,5.48,0,1.13.48,3.18.87,4.54,0a3,3,0,0,1,.39-3.84c.28-.35,2.44-2.14,1.8-2.64a1.54,1.54,0,0,0,1.38.32c2-.81.15-4.24,2-4.38-3.66-2.22.88-2,.76-4.32C49.14,34.87,49,32.35,49,30.89Z" transform="translate(0 0)"/><path class="cls-10" d="M47.13,39.86a1.41,1.41,0,0,0-1.36,1.42,1.34,1.34,0,0,0,1.39,1.33,1.4,1.4,0,0,0,1.36-1.41A1.35,1.35,0,0,0,47.13,39.86Z" transform="translate(0 0)"/><path class="cls-4" d="M32.55,14.5c-8.09.73-14.38,7.62-13.88,18.51s8.39,19.57,16.95,18.61c7.1-.78,13.14-9.62,11.8-21.55C46.22,19.39,40.64,13.75,32.55,14.5Z" transform="translate(0 0)"/><path class="cls-11" d="M46.39,37.21a2.63,2.63,0,0,0-2.22-1.05c-1-.07-2.35.22-1.63,1.75.39.81,4.28,1.64,4-.2A1.28,1.28,0,0,0,46.39,37.21Z" transform="translate(0 0)"/><path class="cls-11" d="M27.38,37.07a2.73,2.73,0,0,0-2.62-.69c-1.1.15-2.54.8-1.49,2.4.56.86,5,.91,4.38-1.16A2.17,2.17,0,0,0,27.38,37.07Z" transform="translate(0 0)"/><path class="cls-4" d="M16.58,31.29c-3.52,1.6-1.88,7.65,1.06,8.54a5.89,5.89,0,0,0,2.89,0,.61.61,0,0,0,0-.12c.4-.86-.5-4.91-.74-5.73C19.22,31.92,18.27,30.51,16.58,31.29Z" transform="translate(0 0)"/><path class="cls-12" d="M18.59,33.4c-.95-.51-3.4.16-2.37,2.13.69-1.73,1.7-.51,1.47.74-.15.84-1.05.79-.22,1.93.45.61,1.44.45,2,.17C21,37.46,19.74,34,18.59,33.4Z" transform="translate(0 0)"/><path class="cls-13" d="M40.79,29.2c2.16.2,4-.44,7.21-.17C46.81,27.54,42.41,27.51,40.79,29.2Z" transform="translate(0 0)"/><path class="cls-12" d="M36,37.9c-.74,0-1-.3-1.55,0S35,39.17,36,39.09s1.88-.93,1.6-1.23S36.8,37.89,36,37.9Z" transform="translate(0 0)"/><path class="cls-14" d="M29.54,18.73a23.56,23.56,0,0,0-6.17,2.05c-2.88,1.46-3.06,3-4.46,5.72-.71,1.38-2.42,2.78-.78,4.24-1.65.63-2,3.47-1,4.76a1.72,1.72,0,0,0,1.08.68A2.83,2.83,0,0,0,18,38.62c.41.9,1.13,1.7,2,1.53a5.51,5.51,0,0,0,.81,2.6c1.15,1.47,3.21,2,4.5.89a1.79,1.79,0,0,0-.5-3.25c-.14.45-.69,1-1.17.58s.2-2,.18-2.62c0-1.66-1.06-1-2-1.89.48-.46,1.17-1,1.16-1.82,0-1-.72-1.14-1.34-1.66-1-.87-.71-.72-.15-1.64.68-1.13,1.11-2.62-.27-3.5a1.43,1.43,0,0,0,1.46-1.08c1.18.63,2.57-.62,3-1.68-.12.32,1.3-.3,1.39-.36A4,4,0,0,0,28.13,23c.11,1.49,1.64,2.49,2.84,1.32.77,1.85,2.33,1.79,4,1.37.6,2.12-1.2,1.24-1.81,2.3-1,1.76,2.62,2.53,3.59,2.18a2.79,2.79,0,0,0,1.71-2.8c.13,1.38,2.11.73,2.82.22.42,1.93,2.21,2.34,3.62,1,.24,3.19,4.41,3.14,3.58-.58C46.6,19.48,37.46,17.26,29.54,18.73Z" transform="translate(0 0)"/><path class="cls-8" d="M49.55,15.27c1.78-3.71-5.54-6.55-8.32-4.53C40.8,6.16,35,5.89,32.28,9.13A5.55,5.55,0,0,0,28.63,7a4.67,4.67,0,0,0-4.35,1.26c1.54,0,4.14,2.94-.48,2.51-1.92-.17-3.06-.91-5,.13-1.55.84-2.6,2.31-1.14,3.74,0,0-3.43-.2-3.94,2.89-.21,1.26.31,1.58-1,2.53a3,3,0,0,1-2.85.67A5.13,5.13,0,0,0,11.68,24a3.49,3.49,0,0,0,3.78.1c-.13.78,2.2,7.42,3.23,6.72C17,32,16.27,34.32,17.94,35.4a3.33,3.33,0,0,0,1,.41c-2.56.94-.53,4.76,2,3.51-2.19,2.61,4.34,5.66,4.48,2.52A1.94,1.94,0,0,0,24,39.9c.43.09.6,2-.55,1.52-1.69-.71,1.26-3-.28-4-.76-.47-3,0-2.15-1.36.58-1,1.85-1.51.33-2.72-.45-.36-1.23-.41-1.27-1.11s.77-1,1.07-1.37c1.06-1.49-.58-3.25-1.93-3.8.86-.05,3.32.38,3-1.27,1.36,1.19,3.35-.48,2.81-2.08.24.72,1.55.49,2,.19.81-.55.74-1.61,1.15-2.41a2.73,2.73,0,0,0,1.18,2.18,1.5,1.5,0,0,0,2.19-.56c.51,1.78,2.27,3.23,3.82,1.44a2.25,2.25,0,0,1,.06,2.31c-.75,1-1.73,0-2.36.43-.79.59.65,1.84,1.18,2a3.12,3.12,0,0,0,3.13-1.06,4,4,0,0,0,.42-2.35c.87,1.4,2.31,2.33,3.75.87,1,1.32,2.07,1.95,3.56.64.72,1.19.6,2.79,2.32,3,2,.29,1.88-2,1.52-3.36-.45-1.67-1.07-4.95.87-6.42,1.2-.91,3-.32,2.43,1.26a3.15,3.15,0,0,0,1.16-4.36A5.1,5.1,0,0,0,49.55,15.27Z" transform="translate(0 0)"/><path class="cls-10" d="M19,40.44a1.29,1.29,0,0,0-1.25,1.3A1.24,1.24,0,0,0,19,43a1.3,1.3,0,0,0,1.25-1.31A1.24,1.24,0,0,0,19,40.44Z" transform="translate(0 0)"/><path class="cls-13" d="M21.5,28.73c4.05.1,5.42.28,8.24.21C28.26,27,23.29,27.17,21.5,28.73Z" transform="translate(0 0)"/><g class="cls-15"><path class="cls-16" d="M35.4,40.45c-2.9.06-7.16.88-9.43-.46,3.72,6.39,6.05,7.59,9,7.82,3.72.28,5-2.3,5.62-4.24a11.31,11.31,0,0,1,2.9-3.39C41.19,40.71,38.91,40.38,35.4,40.45Z" transform="translate(0 0)"/></g><path class="cls-17" d="M27.71,41.12s2.23,4.29,6.87,4.45c3,.11,4.93-.87,5.51-2.31A4,4,0,0,1,42,41.14,29.17,29.17,0,0,1,27.71,41.12Z" transform="translate(0 0)"/><path class="cls-10" d="M29.43,41.52a2.31,2.31,0,0,0,1.76,1.81,15,15,0,0,0,6.74.4c1.59-.23,2.4-2.25,2.4-2.25A31,31,0,0,1,29.43,41.52Z" transform="translate(0 0)"/><path class="cls-10" d="M35.78,43.87c-2.12.05-3.88-.12-4.93-.84-.75-.52-.83,0-.67.36,0,0,.66,1.78,4.17,2.24s5.16-1.65,4.78-2S37.75,43.82,35.78,43.87Z" transform="translate(0 0)"/><path class="cls-18" d="M29.43,41.52a2.23,2.23,0,0,0,.4.92s8-.59,9.83.16a4.16,4.16,0,0,0,.67-1.12A35.94,35.94,0,0,1,29.43,41.52Z" transform="translate(0 0)"/><path class="cls-18" d="M31.47,43.3c2.82,1.8,6.25.36,6.25.36A11,11,0,0,1,31.47,43.3Z" transform="translate(0 0)"/><path class="cls-19" d="M26.27,30.8c-2.13-.8-3.23,3.13-1.74,4.3a2.92,2.92,0,0,1,2.08,0C28,34.31,27.86,31.4,26.27,30.8Z" transform="translate(0 0)"/><path class="cls-20" d="M26.6,32.1c-.88.13-.55,1.95.37,1.49C27.64,33.26,27.39,32,26.6,32.1Z" transform="translate(0 0)"/><path class="cls-19" d="M45.06,30.84c-2.14-1.37-4,3.65-1.64,4.37a2.55,2.55,0,0,1,1.88-.31C46.12,33.84,46.21,31.57,45.06,30.84Z" transform="translate(0 0)"/><path class="cls-20" d="M44.93,31.91c-.84,0-.72,1.9.19,1.55C45.78,33.21,45.68,31.89,44.93,31.91Z" transform="translate(0 0)"/><path class="cls-21" d="M45.12,30.73c-2-.75-2.61,1.58-2.61,1.58a1.81,1.81,0,0,1,2.29-.43,4,4,0,0,0,5-.37C47.39,32.32,46.17,31.14,45.12,30.73Z" transform="translate(0 0)"/><path class="cls-21" d="M24.84,30.91a6.36,6.36,0,0,1-5,.89A4.46,4.46,0,0,0,25,32a2,2,0,0,1,2.38.18S26.89,29.87,24.84,30.91Z" transform="translate(0 0)"/><path class="cls-22" d="M28.35,13.7v0C28.36,13.63,28.35,13.63,28.35,13.7Z" transform="translate(0 0)"/><path class="cls-22" d="M48.78,24.24a11.61,11.61,0,0,0-.2-2.46c-.29-1.29-1-1.63-2.24-1.58a3.63,3.63,0,0,1,5.75-.69c.64-2.31-2.17-4.35-4.44-3.76.47-1.34.87-3-.45-4a4.85,4.85,0,0,0-5.2-.3c-1.24.76-2.64,2.27-4.41,1.17,1,.65,3.58-2.94.59-4.23-1.87-.8-3.49.25-4.75,1.49a4.16,4.16,0,0,0-1,1.32C31.14,8.76,29.19,7.29,26.12,8c2.33,0,3.31,3.68,1.2,4.7C26.1,13.32,25,12,24,11.57a5.58,5.58,0,0,0-3.33-.31,4.28,4.28,0,0,0-2.52,2c1.67-.22,2.62,3.06,6.28,2a4.17,4.17,0,0,1-4.6.76,3.52,3.52,0,0,0-3.21-.23c-1.55.85-1.16,3-1.93,4.36s-1.34,1.36-2.6,1.72a4.68,4.68,0,0,0,3.73.79c-1.11.11-1.76,1.67-1.85,2.52-.12,1.11.84,2,.67,3-.13.87-1.32,1.44-2.13,1.41a2,2,0,0,0,2.17.37c.94-.33,1.14-1.56,1.91-1.73,1.06-.23,2.16,1.55,2.14,2.36,1.59-.76-.29-3.21-1.22-3.93,1,0,3.91-.12,3.72-1.59.12.89,2,0,2.26-.47a1.69,1.69,0,0,0-.5-2.12c.59.08,1.69.65,2.15.1s-.07-1.56-.33-2c4.78,1.85,3.42-3.1.49-3,2.22-.18,2.81-.51,3.07-3.91v0c0-.07,0-.07,0,0v0c.16,2-.36,4,3,3.64-4.83,1.71-2.91,5.61,1.91,4.49-.74.17-.79,1.55.31,2.34a2.4,2.4,0,0,0,2.4-.14c.85,1.32,1.12,2.47.09,3.64,1.16.06,1.6-1.67,1.77-2.51.88.53,1.67,1.34,2.76.91.82-.33,1.26-1.22,1.8-1.85,0,1.45.56,2.53,1.44,2.72A2.67,2.67,0,0,0,46.46,26,3.83,3.83,0,0,0,47.59,29a2.59,2.59,0,0,0,3.26.52,1.29,1.29,0,0,1-1.19-.71c2-.2,3.63-1.28,3.45-3.37C51.72,26,48.88,26.37,48.78,24.24Z" transform="translate(0 0)"/><path class="cls-8" d="M40,21.43c.92,3.24,3.7,4.11,5.36,1.46C43.59,24.44,40.75,23.12,40,21.43Z" transform="translate(0 0)"/><path class="cls-8" d="M18.42,25.06c2,1.66,4.32.07,3.33-2.32C21.53,24.3,19.63,25.52,18.42,25.06Z" transform="translate(0 0)"/><path class="cls-8" d="M45.5,24.06c-1.2,2.22,1,4,3.2,2.47C47.06,26.72,45.33,25.29,45.5,24.06Z" transform="translate(0 0)"/><path class="cls-8" d="M42.78,18.9a4.55,4.55,0,0,0,5.56,1.22l-.09-1.49A6.89,6.89,0,0,1,42.78,18.9Z" transform="translate(0 0)"/><path class="cls-8" d="M43.83,14.57a3.4,3.4,0,0,0,4.24,1.1L48.31,14A4.33,4.33,0,0,1,43.83,14.57Z" transform="translate(0 0)"/><path class="cls-8" d="M13.65,22.79l.46,1.46c2.37.05,4-.93,4.72-3A6.74,6.74,0,0,1,13.65,22.79Z" transform="translate(0 0)"/><path class="cls-22" d="M10.54,29.1l-.06-1c-1,1.1-1.73,2.35-1,3.71.48.89,1.83,1.84,2.91,1.08.43-.31.57-1.12.67-1.58L13,31.3C11.66,31.44,10.24,30.4,10.54,29.1Z" transform="translate(0 0)"/><path class="cls-22" d="M12,34.32l-.81.48c-1.93,0-2.91,3.24-2.08,4.61A3.94,3.94,0,0,0,11.67,41a4.76,4.76,0,0,1-1-3.65C10.94,36.29,12,35.49,12,34.32Z" transform="translate(0 0)"/><path class="cls-22" d="M53.57,30.56a4.41,4.41,0,0,0-1.73-.71v.32c1.72,2.2,1.4,3.87.43,6.12,0,0,.09.08.09.06C54.76,35.37,55.9,32.15,53.57,30.56Z" transform="translate(0 0)"/><path class="cls-22" d="M52.36,38.31l-.8-.21c-.36,1.88,2,1.44,2.3,2.83C54.26,39.77,54.07,38.22,52.36,38.31Z" transform="translate(0 0)"/><path class="cls-22" d="M12.32,43.43a3,3,0,0,0,.19,4c0-.61.44-1.08.44-1.69s-.41-1-.34-1.65Z" transform="translate(0 0)"/></g></g></g></svg>