<svg xmlns="http://www.w3.org/2000/svg" xmlns:xlink="http://www.w3.org/1999/xlink" viewBox="0 0 96 96"><defs><style>.cls-1{fill:none;}.cls-2{clip-path:url(#clip-path);}.cls-3{fill:#fff;}.cls-4{fill:#e62628;}.cls-5{fill:#c21f23;}.cls-6{fill:#261b18;}.cls-7{fill:#9c552c;}.cls-8{fill:#66241b;}.cls-12,.cls-8{opacity:0.7;}.cls-9{fill:#573d2f;}.cls-10{fill:#bf6c3c;}.cls-11{fill:#661004;opacity:0.4;}.cls-12{fill:#f0ded1;}.cls-13{fill:#d47b48;}.cls-14{fill:#78231f;}.cls-15{fill:#fff7ea;}.cls-16{fill:#ecdcc4;}</style><clipPath id="clip-path"><circle class="cls-1" cx="48" cy="48" r="48"/></clipPath></defs><g id="Layer_2" data-name="Layer 2"><g id="Layer_4" data-name="Layer 4"><g class="cls-2"><rect class="cls-3" width="96" height="96"/><path class="cls-4" d="M64.37,83c-3.21-7.06-23.24-8.62-29.19-1-2.49,3.19-2.52,8.73-1.77,14.06H65.56C66.11,91.4,66,86.59,64.37,83Z"/><path class="cls-5" d="M49.12,87.92c11.46,0,14.77-19.08-1-19.08C36.83,68.84,36.86,87.92,49.12,87.92Z"/><path class="cls-4" d="M49.1,86.26c12.23,0,15.77-18.06-1-18.06C36,68.2,36,86.26,49.1,86.26Z"/><path class="cls-4" d="M39.33,78.83l-1.25,4.81c-1.2,1.32-1.71,7.11-2,12.36H26.44C27.18,85.85,33.54,80.09,39.33,78.83Z"/><path class="cls-4" d="M58.88,78.83l1.25,4.81c1.2,1.32,1.71,7.11,2,12.36h9.64C71,85.85,64.67,80.09,58.88,78.83Z"/><path class="cls-5" d="M49.66,82.25c11.34,0,14.62-14-.95-14C37.51,68.26,37.54,82.25,49.66,82.25Z"/><path class="cls-6" d="M75,22c.8-1,1.55-1.76.38-3.15-1-1.21-3.91-2.17-5.32-1.17.53-1.41,1.12-3.63-.41-4.64-1.3-.85-4.42-.21-5.41.84,1.83-5-7.07-7.7-9.09-3.21-.95-2.51-2.57-4.52-5.57-4.26-1.88.17-5,2-5.26,4C43,8.94,42.14,7.36,39.69,7.35c-2.71,0-5.37,2.12-4.87,5-2.06-1.25-4.63-2.21-6.83-.79-2,1.27-2.92,3.26-2,5.49-1.53-.58-3.65-1.53-5.1-.27s-.11,4.46,1.08,5.62a3.27,3.27,0,0,0-3.63,2.64c-.66,3.22,1.8,6.26,2.83,9.08,1.63,4.45,2.33,9.33,3.33,13.94,1.09,5,2.11,10.75,4.64,15.3,1.83,3.3,3.5,1.83,6,.41,3.21-1.83,8-2.28,11.62-2.57s9.15-.8,12.67.71c2.3,1,3.53,1.82,5.78,0a13.87,13.87,0,0,0,3.63-5.41c1.3-3.12,1.25-6.2,1.4-9.52.32-6.67,1.13-13.41,6-18.38a6.68,6.68,0,0,0,1.69-2.15c.47-1.83-1.86-3.85-3.57-3.32A5.89,5.89,0,0,1,75,22Z"/><path class="cls-7" d="M27.48,58.61c2,11.52,11.31,23.91,24.72,22.5,13.68-1.44,19.93-18.67,17.68-32.84-2.44-15.4-10.2-28.05-26.14-24.39C32.37,26.5,24.86,43.24,27.48,58.61Z"/><path class="cls-8" d="M46,35.64c-3.45-1-9.27.58-11.24,1.72-3.2,1.85-3.57,6.23-5,9.31a8.55,8.55,0,0,1-2.53-4,32.37,32.37,0,0,1-.73-5.64,17.1,17.1,0,0,1,.17-6.22c.72-2.4,3.3-3.82,5.41-4.86,3.84-1.9,8.39-1.81,12.57-1.88a51.36,51.36,0,0,1,14,1.71c3,.79,8.64,1.4,9.78,4.83,1.42,4.22-3,5.29-6,5.87-1.78.35-2.77.6-3.9,2a24.34,24.34,0,0,1-3.43,3.67,15.74,15.74,0,0,1-.71-2c-1.48,3.15-6.16,3.22-8.88,1.7,1.61-.81,3.84-2.43,2.86-4.52A3.54,3.54,0,0,0,46,35.64Z"/><path class="cls-7" d="M24.88,63.68a11,11,0,0,0,4.56.34,1,1,0,0,1,.08-.14c.64-1.09-.5-7-.89-8.16-1-2.81-2.69-4.24-5.36-3.41C17.7,54.05,20.23,62.19,24.88,63.68Z"/><path class="cls-8" d="M27,61.58c2-1.36-.07-5.65-1.64-6.31-1.28-.54-4.4.62-2.83,3,.7-2.32,2.15-.86,2,.77-.11,1.1-1.28,1.15-.07,2.51C25.09,62.33,26.36,62,27,61.58Z"/><path class="cls-6" d="M68,31.76l.06-.31c.92-4.83-4.58-8.74-7.81-11.3C53.76,15,45.52,15.32,37.77,16.93A27.93,27.93,0,0,0,29,20c-2.28,1.38-3.1,4.47-4.09,6.82-1.17,2.77.87,25.21,1.8,26C28,53.88,28,55.13,28.37,55.74a3.61,3.61,0,0,0,2.57.59,54.35,54.35,0,0,1-.71-11.61c.23-6.15.85-9.49,7.86-10,3.22-.23,11.76-1.75,12.72,3,.43,2.11-1.33,3.36-3,4.19,2.62.72,5.89.47,6.58-2.75a3.58,3.58,0,0,1,1.22,2.44c3.17-2.28,1.11-5.69,5.41-6.2C63.81,35,67.2,35.05,68,31.76Z"/><path class="cls-9" d="M42.68,11.6a9.88,9.88,0,0,1,2.67,1.82c1.9-1.36,4.81-4.35,7.43-3.48A2.55,2.55,0,0,1,54,14.08c1.26-1.7,7.08-.7,6.36,2.17,2.17-1.14,7.26-1.49,5.63,2.54,1.77-.29,7.31-.07,4,2.77.67-.58,3.07,1.38,3.16,2.19.13,1.31-2,3-2.73,3.9.28-3.94-5.21-3.66-4.8-.54-1.51-3.33-4.33-3.88-4.38.12-.06,3.73-2,6.31-6.18,6,3.43-2.49,2.73-4.3,1.41-8.09-.86,3.94-4.12.58-5.44-.49-.32,1.76-1.92,3-2.36,4.75a34.85,34.85,0,0,0-3.48-4.89c-.9,2.38-4.44,4.21-5.37.71-.84,1.55-1.9,3.55-4,3.46a3.49,3.49,0,0,1-3.08-3.47c-1.16.47-3.36,5.35-2.57,6.45-1.47-2.07-2.5-4-4.41-5.81-1-1-3.33-3.46-.43-4-1.28-3.06,3-1.71,4.2-1-.83-1.5-1.13-4.53.06-5.91,1.88-2.16,5.41-.49,7.3.71.67-1.5.62-3.82,2.53-4.53A4.73,4.73,0,0,1,42.68,11.6Z"/><path class="cls-6" d="M40.35,43.3c3,.31,5.08,1.53,3.1,3.07s-6.54-1-11.89-.09C32.63,44.08,36.7,42.94,40.35,43.3Z"/><path class="cls-6" d="M62.65,42c-2.81.62-4.69,2.07-2.82,3.44s6-1.65,11-1.29C69.84,42,66,41.27,62.65,42Z"/><path class="cls-10" d="M68.86,52.36a2.5,2.5,0,0,1,.57.73C71,56,63.94,56.81,62.8,55.69c-2.14-2.1,0-3.35,1.69-3.79C65.8,51.56,67.69,51.31,68.86,52.36Z"/><path class="cls-10" d="M41,54.49a2.7,2.7,0,0,1,.42.83c1,3-5.64,2.68-7.29,1.2-2.3-2.07.9-3.35,2.67-3.4C38.1,53.08,40,53.26,41,54.49Z"/><path class="cls-6" d="M39.33,47.17c-4.16-1-6.61,3.69-3.75,5.11a9.24,9.24,0,0,1,4.09.09C42.41,51.39,42.43,47.91,39.33,47.17Z"/><path class="cls-11" d="M57.89,56c-1-.89-3,.19-5,.27-1.73.07-3.28-.67-4.89.1s.34,3,4.94,2.77S58.76,56.76,57.89,56Z"/><path class="cls-10" d="M52.56,47.88c-3.27-.19-5.64,6.22-4.19,8.26,1,1.42,8.2,1.15,9.28-.59C58,54.92,55.69,48.05,52.56,47.88Z"/><path class="cls-12" d="M37.89,48c-1.66.41-.33,2.42,1.28,1.62C40.33,49.07,39.37,47.66,37.89,48Z"/><path class="cls-6" d="M66,45.65c-4.25-.43-6.07,4.54-3,5.56A9.12,9.12,0,0,1,67,50.76C69.63,49.42,69.18,46,66,45.65Z"/><path class="cls-12" d="M64.7,46.68c-1.59.63,0,2.44,1.49,1.44C67.26,47.39,66.12,46.13,64.7,46.68Z"/><path class="cls-13" d="M64.57,59.29C57.11,58,45.14,60.88,38.49,61.46c-.54,0-.93.07-.69.85.93,3,4.56,13.8,16.24,13.31,8.58-.36,7.71-6.39,7.76-10.09,0-1.82,1.89-4.11,3.38-5.53C65.67,59.54,65.26,59.4,64.57,59.29Z"/><path class="cls-14" d="M39.64,62.93s10.65,2.32,24.06-2.31a5.69,5.69,0,0,0-2.36,4.24c-.21,2.2-.94,5.38-9,6.15C43.5,71.87,39.64,62.93,39.64,62.93Z"/><path class="cls-15" d="M42.63,63.69a4.83,4.83,0,0,0,3.12,3.9,17.77,17.77,0,0,0,11.53-.24c2.66-.91,3.92-5.5,3.92-5.5A77.79,77.79,0,0,1,42.63,63.69Z"/><path class="cls-15" d="M44,68c-.33-.73-.37-1.57,1.16-1.06a25.25,25.25,0,0,0,9,.62c3.81-.3,4.59-1.9,5.32-1.14s-1.64,4.78-7.75,4.7C44.72,71.05,44,68,44,68Z"/><path class="cls-16" d="M43,64.92s14.32-2.35,17.6-1.38a7.14,7.14,0,0,0,.6-1.69S51.1,64,42.61,63.64A4.75,4.75,0,0,0,43,64.92Z"/><path class="cls-16" d="M46,66.93a26.11,26.11,0,0,0,12.64-.6S52.17,69.47,46,66.93Z"/><path class="cls-11" d="M60.75,58.16c1.7-.2,3.76-.56,5.3.4a4.08,4.08,0,0,1,1.46,4.87c-.87,1.76-1-.72-1.27-1.48a4.69,4.69,0,0,0-2.83-2.63,10.89,10.89,0,0,0-4-.86Z"/><path class="cls-11" d="M42.37,59.53c-1.7-.05-3.78-.22-5.23.87a4.11,4.11,0,0,0-1,5c1,1.68,1-.81,1.14-1.59a4.68,4.68,0,0,1,2.59-2.87,11,11,0,0,1,3.88-1.22Z"/></g></g></g></svg>