<svg xmlns="http://www.w3.org/2000/svg" xmlns:xlink="http://www.w3.org/1999/xlink" viewBox="0 0 96 96"><defs><style>.cls-1{fill:none;}.cls-2{clip-path:url(#clip-path);}.cls-3{fill:#fff;}.cls-4{fill:#9c552c;}.cls-5{fill:#ff9819;}.cls-6{fill:#854422;}.cls-7{fill:#261b18;}.cls-8{fill:#783618;}.cls-9{fill:#66241b;}.cls-11,.cls-9{opacity:0.7;}.cls-10{fill:#45362e;}.cls-11{fill:#f0ded1;}.cls-12{fill:#d17642;}.cls-13{opacity:0.8;}.cls-14{fill:#611f16;}</style><clipPath id="clip-path"><circle class="cls-1" cx="48" cy="48" r="48"/></clipPath></defs><g id="Layer_2" data-name="Layer 2"><g id="Layer_4" data-name="Layer 4"><g class="cls-2"><rect class="cls-3" width="96" height="96"/><path class="cls-4" d="M38.94,85l-3.06-5.63c-5,2-6.16,6.59-7.36,11.44A53.38,53.38,0,0,1,27,96h7.44c.39-1.31.72-2.59,1-3.8C36.48,88.2,37.18,85.7,38.94,85Z"/><path class="cls-4" d="M59.69,79.37,56.62,85c1.77.7,2.46,3.2,3.46,7.2.3,1.21.63,2.49,1,3.8h7.44c-.62-1.75-1.07-3.51-1.5-5.19C65.84,86,64.7,81.39,59.69,79.37Z"/><path class="cls-4" d="M48.38,76.88c-8.21-.11-13.63,2.47-13.66,3.27C34.41,88.79,37.3,90.61,40,92.53c1.9,1.34,13.83,1.24,15.73,0,3-2,5.76-3.87,5.51-12.16C61.25,79.66,56.27,77,48.38,76.88Z"/><path class="cls-5" d="M59.54,90.15c-.89-2.2-.51-4.47-.08-11.27a8,8,0,0,0-2-.88c.33,11.7-2.45,13.83-9.65,13.83-6.36,0-9.66-1.38-9.24-14.09a6.7,6.7,0,0,0-2.37.93c.39,5.72.84,9.11-.14,11.36,0,2,.14,4,.25,6h23C59.39,94.07,59.49,92.07,59.54,90.15Z"/><path class="cls-6" d="M50.34,81.41c7-.47,9.44-4.32,1-5.81-2.4-.43-13.81-1.46-11.22,3.25C41.29,81,48.16,81.56,50.34,81.41Z"/><path class="cls-7" d="M26.94,55.42c-2.54-.73-5.07-1.44-6.43-4.07-1.44-2.79-.57-5.61,2.34-6.67-5.52.13-4.81-6.27-.36-7.55-1.75-1.57-3.1-3.35-2.53-5.84.53-2.27,2.3-3.22,4.49-3.14-1.89-5.44,1.82-10.57,7.51-7.86-.86-5.83,6.5-8,9.86-4.72,2.2-4.68,9.07-5.28,11.26.38,3.39-5,10.52-1.94,10,2.44a6.69,6.69,0,0,1,6,2.3c1.29,1.58,1.88,4.54.67,6.34,4.6.14,6.21,5.09,2.7,7.67,2.86.94,4.36,5.87.73,6.79,1.52,1.41,2.37,5.74-1.24,6.4,2.26,4.45-2.73,8.06-5.48,10.83-3.8,3.83-9.24,4.48-14.39,3.93a53.65,53.65,0,0,1-8.86-1.85A91.8,91.8,0,0,1,30,56.44,21.87,21.87,0,0,0,26.94,55.42Z"/><path class="cls-8" d="M70,61.14a11.64,11.64,0,0,1-4.82.52l-.1-.14c-.71-1.13.56-6.93.93-8.12.92-3,2.42-5.14,5.29-4.35C77.24,50.69,74.85,59.39,70,61.14Z"/><path class="cls-4" d="M25.16,55.87C26.83,68.14,36.29,81.6,50.54,80.58c14.54-1,21.43-19,19.9-34.16-.84-8.32-2-27.86-23.76-27.86C19.49,18.56,24.44,50.58,25.16,55.87Z"/><path class="cls-7" d="M23.54,48.33c.7,1.75,3.88,5,5.06,2.05.69-1.72-.67-4.22-2.66-4,2.95-2.08.9-5.18-1.19-6.77.63-.37,3.33-4.91,1.55-4.88,3.05,0,3.82-2.6,3.5-5.17,2.28.47,5.27-1.45,5.08-4,2.36,1.5,4.15.17,5.7-1.63.79,2.12,2,5.08,5,2.94-.34,2.46-.12,5.37,2.43,6.57,4.23,2,7.31-1.52,9-4.79-.84,1.62,4.9,1.62,5.62-1.27h0c.15,1.74,1.79,3.27,3.49,2.61.13,1.42,0,4.5,2.21,4.06,0,.72.8,2.69,1.86,1.72,2-1.8-2.5-9.47-3.76-10.83-2.54-2.75-6.3-5.75-9.83-7-7.44-2.66-18.33-.74-24.91,3.48a18.29,18.29,0,0,0-8,11.12C22.6,37.41,21.66,43.54,23.54,48.33Z"/><path class="cls-4" d="M22.22,61.14a11.64,11.64,0,0,0,4.82.52l.09-.14c.72-1.13-.56-6.93-.93-8.12-.91-3-2.41-5.14-5.28-4.35C15,50.69,17.35,59.39,22.22,61.14Z"/><path class="cls-9" d="M24.53,59c2.17-1.37.12-6-1.52-6.74-1.34-.62-4.68.5-3.11,3.12.83-2.43,2.31-.84,2.08.88-.15,1.16-1.39,1.18-.16,2.66C22.49,59.72,23.85,59.42,24.53,59Z"/><path class="cls-10" d="M29.16,26.52c2.15.84,4.48-.84,4.88-3,2.81.89,5.61.35,6.84-2.48a7,7,0,0,0,2.2,3.32c1.72,1,5-.67,6.11-2-.85,1.89-1.95,6.49,1.39,7.23,4.12.92,5.49-3.48,5.94-6.38-.11,1.58,1.08,3.27,2.35,3.39,1.79.17,2.22-.61,2.69-2.18-.42,2.44,3.78,3.31,5.35,2.5,2.63-1.37.89-5.21-1-6.36-1.19-.71-3.58-1.33-4.65-.1.1-2.22-.73-3.94-2.35-4.37a3.86,3.86,0,0,0-4.69,2.59,6.71,6.71,0,0,0-6.72-3.19c-2.17.3-3.27,1.57-3.94,3.72a7.07,7.07,0,0,0-6.67-2.42c-1.83.52-3.6,3.37-4,5.2C26.46,21,27.09,25.72,29.16,26.52Z"/><path class="cls-7" d="M65.68,51.69a4.43,4.43,0,0,0-3-.26c-2.08-1.76-.16-7.17,2.89-5.86C67.81,46.55,67.72,50.64,65.68,51.69Z"/><path class="cls-11" d="M64.06,46.68c1.1-.37,1.79,1.32.91,2C63.77,49.51,62.83,47.1,64.06,46.68Z"/><path class="cls-12" d="M67.88,53.71a3,3,0,0,1,.53.84c1.33,3.19-6.34,3.14-7.42,1.83-2.05-2.47.36-3.49,2.25-3.72C64.7,52.48,66.75,52.48,67.88,53.71Z"/><path class="cls-12" d="M38.5,54.24a3.29,3.29,0,0,1,.53.9c1.28,3.39-6.75,3.07-7.85,1.66-2.07-2.65.5-3.64,2.49-3.82C35.2,52.84,37.36,52.91,38.5,54.24Z"/><path class="cls-9" d="M54.93,55.79c-1-.89-3,.09-4.85.11-1.7,0-3.19-.75-4.78,0s.24,3,4.74,2.85S55.77,56.55,54.93,55.79Z"/><path class="cls-12" d="M50,47.69c-3.19-.28-5.69,5.91-4.34,7.94,1,1.42,8,1.37,9.08-.29C55.12,54.73,53,48,50,47.69Z"/><path class="cls-7" d="M63.39,39.33c2.44-.25,6.07,1,5.49,2.52s-1.93,1.09-3.76,1-3.36-.38-4.06-1.13C59.91,40.48,61.37,39.52,63.39,39.33Z"/><path class="cls-7" d="M33.35,51.69a4.43,4.43,0,0,1,3-.26c2.08-1.76.16-7.17-2.89-5.86C31.22,46.55,31.31,50.64,33.35,51.69Z"/><path class="cls-11" d="M35,46.68c-1.1-.37-1.79,1.32-.91,2C35.26,49.51,36.21,47.1,35,46.68Z"/><path class="cls-7" d="M35.64,39.33c-2.44-.25-6.07,1-5.49,2.52s1.93,1.09,3.76,1,3.37-.38,4.06-1.13C39.12,40.48,37.66,39.52,35.64,39.33Z"/><g class="cls-13"><path class="cls-14" d="M66.32,59.91a3.45,3.45,0,0,1-4.41-1.24,2.53,2.53,0,0,0,.56,2.56c-1.74,4.36-6.5,7.2-12,7.17s-9.72-2.82-11.56-6.51a2.32,2.32,0,0,0,0-2.67,3.06,3.06,0,0,1-4,1.61,3,3,0,0,0,2.31,1.73C39.23,66.76,44,69.92,50,70.11h.52c6.38,0,11.8-3.22,13.8-8.27A2.42,2.42,0,0,0,66.32,59.91Z"/></g></g></g></g></svg>