<svg xmlns="http://www.w3.org/2000/svg" xmlns:xlink="http://www.w3.org/1999/xlink" viewBox="0 0 66 66"><defs><style>.cls-1{fill:none;}.cls-2{isolation:isolate;}.cls-3{clip-path:url(#clip-path);}.cls-4{fill:#fff;}.cls-5{fill:#e8e8e8;}.cls-6{fill:#1e1e29;}.cls-7{fill:#313142;}.cls-8{fill:url(#linear-gradient);}.cls-9{fill:#121219;}.cls-10,.cls-19,.cls-24,.cls-9{opacity:0.5;}.cls-10{fill:#d9af96;mix-blend-mode:multiply;}.cls-11{fill:#261b18;}.cls-12{fill:#fff9f0;}.cls-13{fill:#ffcb9e;}.cls-14,.cls-19{fill:#e89361;}.cls-14{opacity:0.7;}.cls-15{fill:#2f2120;}.cls-16{fill:#7d4732;}.cls-17{fill:#b08a72;}.cls-18{fill:#ff9d73;}.cls-20{fill:#121b21;}.cls-21{fill:#57443a;}.cls-22{fill:#784430;}.cls-23{fill:#b54d26;opacity:0.3;}.cls-24{fill:#c20902;}</style><clipPath id="clip-path" transform="translate(0 0)"><circle class="cls-1" cx="33" cy="33" r="33"/></clipPath><linearGradient id="linear-gradient" x1="32.84" y1="49.86" x2="32.84" y2="54.19" gradientUnits="userSpaceOnUse"><stop offset="0" stop-color="#eea17a"/><stop offset="1" stop-color="#ffcca6"/></linearGradient></defs><g class="cls-2"><g id="Layer_2" data-name="Layer 2"><g id="avatars"><g class="cls-3"><rect class="cls-4" width="66" height="66"/><path class="cls-5" d="M28,53.73c-2,1-2.54,3.26-3.1,5.66-.24,1-1.07,4.47-1.72,6.61h3.46c.75-2.86,2.31-9.16,2.85-9.43Z" transform="translate(0 0)"/><path class="cls-5" d="M37.43,53.73l-1.5,2.84c.55.27,2.11,6.57,2.86,9.43h3.46c-.66-2.14-1.48-5.57-1.73-6.61C40,57,39.45,54.73,37.43,53.73Z" transform="translate(0 0)"/><path class="cls-6" d="M38.7,62.22c.75-2.3.24-6.81-1-8.27-2.82-3.35-7.67-2.25-9.58-.48-.75.7-2,3.91-.93,8.92A14.77,14.77,0,0,1,27.49,66H38.24A9,9,0,0,1,38.7,62.22Z" transform="translate(0 0)"/><path class="cls-7" d="M33.1,60.76a.52.52,0,1,0,.5.52A.5.5,0,0,0,33.1,60.76Z" transform="translate(0 0)"/><path class="cls-7" d="M33.16,63.55a.52.52,0,1,0,.49.51A.5.5,0,0,0,33.16,63.55Z" transform="translate(0 0)"/><path class="cls-8" d="M36.51,52.7c-1.79-1.06.15-5.9-1.29-7.11a4.16,4.16,0,0,0-4.11-.46c-2.46,1.06,0,6.94-2.39,8-.47.22-.57.81.34,2.35a8,8,0,0,0,4.06,3.9,8.1,8.1,0,0,0,4-4.25A2,2,0,0,0,36.51,52.7Z" transform="translate(0 0)"/><path class="cls-9" d="M28,58.09l.4,3.54s4.34-2,4.76-2A50.58,50.58,0,0,1,38,61.79V58.12a44.15,44.15,0,0,1-4.86,1.26C32.57,59.39,28,58.09,28,58.09Z" transform="translate(0 0)"/><path class="cls-7" d="M36.56,52.73a3.85,3.85,0,0,1-.1,3.61,13.48,13.48,0,0,1-3.34,3L37.7,60.8S38.77,54.15,36.56,52.73Z" transform="translate(0 0)"/><path class="cls-7" d="M29.88,56.71C28.37,54.45,28.83,53,28.83,53c-2.23,1.59-.26,7.82-.26,7.82l4.55-1.39A9.16,9.16,0,0,1,29.88,56.71Z" transform="translate(0 0)"/><path class="cls-10" d="M18,31.19c-1.86-.19-3.4,1.19-2.86,5.52a4.06,4.06,0,0,0,4.58,3.8S19.89,31.38,18,31.19Z" transform="translate(0 0)"/><path class="cls-11" d="M34.76,8.58C3.73,11,1.05,52.16,25,46.25c4.4-1.09,1.81-5.47,8.74-6,4.36-.32,5.87,5.12,7.63,5.61C61.15,51.41,58.69,13.91,34.76,8.58Z" transform="translate(0 0)"/><path class="cls-12" d="M43.94,39.08a3,3,0,0,0-2.48,3.41,3.06,3.06,0,0,0,3.08,2.95A3,3,0,0,0,47,42,3,3,0,0,0,43.94,39.08Zm.51,5.25a2.22,2.22,0,0,1-2.24-2.14A2.16,2.16,0,0,1,44,39.71a2.22,2.22,0,0,1,2.23,2.15A2.15,2.15,0,0,1,44.45,44.33Z" transform="translate(0 0)"/><path class="cls-13" d="M32.15,16.58c-10.51.33-14,7.26-13.7,17.62s7.71,17.19,15.47,17.65c6,.35,13.48-8.92,12.87-19.27S42.25,16.27,32.15,16.58Z" transform="translate(0 0)"/><path class="cls-14" d="M41.93,16.64c-2.15-1.35-4.84-1.24-7.23-.76a21.61,21.61,0,0,0-4.48,1.42c-4.31,1.87-8.58,4.91-11,9.06-.51.89-2.14,3.74-1.17,4.74.63.65.32,2,.94,1.42,3.93-3.8,10.86-2.66,15.69-7.16a29.52,29.52,0,0,0,4.11-5.49c-.38,1.86,6.51,6.46,7.54,9.42.84,2.41.76-2.1.84-3.34C47.46,22,45.15,18.65,41.93,16.64Z" transform="translate(0 0)"/><path class="cls-15" d="M24.92,31c-2.16-.82-3.27,3.17-1.76,4.35a3,3,0,0,1,2.11.06C26.64,34.57,26.54,31.62,24.92,31Z" transform="translate(0 0)"/><path class="cls-16" d="M24.63,26.19a3.11,3.11,0,0,0-2.43,2.15c2.65-2.21,4.4-.91,5.36-.53A2.87,2.87,0,0,0,24.63,26.19Z" transform="translate(0 0)"/><path class="cls-17" d="M24.41,32.06c-.9.13-.57,2,.37,1.5C25.45,33.23,25.2,31.94,24.41,32.06Z" transform="translate(0 0)"/><path class="cls-11" d="M44.05,17.1c-2.2-2.57-5.4-3.9-8.52-5a13.41,13.41,0,0,0-7.15-.64c-6.12,1.2-9.91,7.08-10.89,12.88-.31,1.83-2,8.22.4,11.26.55-3.28,1.45-5.1,8.8-7.24a21.4,21.4,0,0,0,12.44-9.6c.22,4.52,7.53,6.27,7.59,12.87,0-1.65,1.16-4.5.88-6.16A17.05,17.05,0,0,0,44.05,17.1Z" transform="translate(0 0)"/><path class="cls-18" d="M45.18,37.42a2.69,2.69,0,0,0-2.25-1.05c-1-.08-2.38.22-1.65,1.77.39.83,4.33,1.66,4.06-.21A1.69,1.69,0,0,0,45.18,37.42Z" transform="translate(0 0)"/><path class="cls-18" d="M25.91,37.29a2.8,2.8,0,0,0-2.65-.71c-1.12.16-2.58.82-1.51,2.44.56.87,5,.93,4.43-1.18A1.66,1.66,0,0,0,25.91,37.29Z" transform="translate(0 0)"/><path class="cls-19" d="M34.59,36.82c-.67,0-.94-.31-1.41-.06s.54,1.19,1.37,1.15,1.73-.8,1.49-1.09S35.34,36.83,34.59,36.82Z" transform="translate(0 0)"/><path class="cls-15" d="M44,31.06c-2.17-1.39-4.08,3.69-1.66,4.42a2.56,2.56,0,0,1,1.9-.3C45,34.1,45.13,31.8,44,31.06Z" transform="translate(0 0)"/><path class="cls-17" d="M42.92,31.82c-.86,0-.73,1.92.19,1.57C43.78,33.14,43.68,31.8,42.92,31.82Z" transform="translate(0 0)"/><path class="cls-20" d="M44,31c-2-.77-2.64,1.6-2.64,1.6a1.85,1.85,0,0,1,2.32-.44,4.1,4.1,0,0,0,5.06-.37C46.33,32.56,45.1,31.36,44,31Z" transform="translate(0 0)"/><path class="cls-20" d="M23.48,31.13a6.48,6.48,0,0,1-5.1.9,4.51,4.51,0,0,0,5.3.19,2.07,2.07,0,0,1,2.41.19S25.55,30.07,23.48,31.13Z" transform="translate(0 0)"/><path class="cls-21" d="M43.22,12.74C34.33,20.9,20.73,13.9,20.73,13.9c-4.27,2.5-8,8.15-8,8.16.18-.26,3.27.84,3.57,1,1.57.64,3.05,1.49,4.66,2.06a20.6,20.6,0,0,0,5.83,1.21c3.83.1,9.21-3.5,12.71-8.58A6.12,6.12,0,0,0,41,21.62c4.21,4.74,9.86-.05,9.86-.05A20.62,20.62,0,0,0,43.22,12.74Z" transform="translate(0 0)"/><path class="cls-22" d="M43.69,26.13a2.88,2.88,0,0,0-3,1.54c1-.35,2.75-1.6,5.35.68A3.14,3.14,0,0,0,43.69,26.13Z" transform="translate(0 0)"/><path class="cls-13" d="M16.79,31.16c-2.8,1.25-1.67,7,.62,8.08a3.83,3.83,0,0,0,2.26.23.69.69,0,0,1,0-.1c.33-.78-.27-4.63-.44-5.42C18.84,32,18.13,30.56,16.79,31.16Z" transform="translate(0 0)"/><path class="cls-23" d="M17.68,33.09c-.56-.3-1.76.62-.95,2.19.13-1.6.83-.68.88.44,0,.75-.44.84.15,1.71.32.47.82.19,1-.13C19.54,36.28,18.38,33.47,17.68,33.09Z" transform="translate(0 0)"/><path class="cls-12" d="M18.73,39.64A3,3,0,0,0,16,42.86,3.07,3.07,0,0,0,18.86,46a3,3,0,0,0,2.72-3.22A3.06,3.06,0,0,0,18.73,39.64Zm.12,5.28a2.21,2.21,0,0,1-2.06-2.3,2.15,2.15,0,0,1,2-2.34,2.21,2.21,0,0,1,2.06,2.3A2.15,2.15,0,0,1,18.85,44.92Z" transform="translate(0 0)"/><path class="cls-24" d="M40.16,41.3c-.2.2-5,5-11.93.28a.66.66,0,0,0-.85.09.52.52,0,0,0,.15.77,13,13,0,0,0,4.79,2.08A10,10,0,0,0,41.1,42a.51.51,0,0,0-.08-.77A.65.65,0,0,0,40.16,41.3Z" transform="translate(0 0)"/></g></g></g></g></svg>