<svg xmlns="http://www.w3.org/2000/svg" xmlns:xlink="http://www.w3.org/1999/xlink" viewBox="0 0 66 66"><defs><style>.cls-1{fill:none;}.cls-2{clip-path:url(#clip-path);}.cls-3{fill:#507d52;}.cls-4{fill:#85b428;}.cls-5{fill:#bbe351;}.cls-6{fill:#8f4721;}.cls-7{fill:#261b18;}.cls-8{fill:#9c552c;}.cls-9{fill:#661004;opacity:0.4;}.cls-10{fill:#bf6c3c;}.cls-11{fill:#f0ded1;opacity:0.7;}.cls-12{opacity:0.8;}.cls-13{fill:#541d15;}.cls-14{fill:#45362e;}</style><clipPath id="clip-path" transform="translate(0.01)"><circle class="cls-1" cx="33" cy="33" r="33"/></clipPath></defs><g id="Layer_2" data-name="Layer 2"><g id="avatars"><g class="cls-2"><rect class="cls-3" width="66" height="66"/><path class="cls-4" d="M26.06,55.9C21.94,57.52,18,61.09,17,66h7.3C26.17,61.14,27.31,55.4,26.06,55.9Z" transform="translate(0.01)"/><path class="cls-4" d="M39.92,55.9c-1.25-.5-.11,5.24,1.8,10.1H49C48,61.09,44,57.52,39.92,55.9Z" transform="translate(0.01)"/><path class="cls-4" d="M33,54.82c-8.1,0-9.08,2.65-9,3,.27.74-.14,4.32.06,8.23H41.89c.29-4,0-7.51.41-8.28C42.45,57.42,41.3,54.78,33,54.82Z" transform="translate(0.01)"/><path class="cls-5" d="M27.47,55.62C25.63,58.33,33,61.36,33,61.36s6.51-2.83,5.81-5.28C38,53.17,29.13,53.18,27.47,55.62Z" transform="translate(0.01)"/><path class="cls-6" d="M33,50.12a4.46,4.46,0,0,0-4.7,4.09,3.53,3.53,0,0,0,.8,2.94A5.91,5.91,0,0,0,33,59.4a5.9,5.9,0,0,0,3.91-2.25,3.53,3.53,0,0,0,.8-2.94A4.47,4.47,0,0,0,33,50.12Z" transform="translate(0.01)"/><path class="cls-7" d="M50.67,15.8c.78-1-.41-2.56-1.62-2.45.25-.93-.58-1.65-1.67-1.17-.09-1.74-1.61-2.09-3-1.53A1.37,1.37,0,0,0,42,9.93c-.32-1.49-2-1.36-3.13-.7a2.52,2.52,0,0,0-3.62-.52c-1-1.05-2.9-.67-3.85.38-1.16-1-2.46-.47-3.18.76-1.12-1.18-2.61-.06-3.41,1-1.1-1-2.76-.09-3.12,1.19a2.28,2.28,0,0,0-3.1,1.62c-1.67-.14-3.42,1.35-2.4,3-1.24.2-2.57,1.7-1.24,2.72-1.34.14-1.42,1.59-.71,2.47-1.49.68-1.6,3.87-.24,3.1-1,.6-1.15,2,.21,2.14-1,.65-2,2-.09,2.25-.63.6-1.11,2,0,2.29-.69,1.22-.69,1.69.52,2.56-.33-.23-.26,1.44-.19,1.59.28.66,1,1.06,1.53,1.47a20.82,20.82,0,0,1,2.42,2.62c2.16,2.41,3.7,5.28,5.79,7.68s4.34-1.66,6-2.63a12,12,0,0,1,7.56-1.6c2.29.34,3.9,2.73,6.23,2.78s3.45-3.4,3.92-5.18c.31-1.16.38-2.77,1-3.69s1.73-1.27.87-2.6c.74.06,1.14-1.61.24-1.89.9-.15,1-1.56.29-2,1.12-.41,1.53-1.19.24-1.79,1.91-.43,1-2.51-.43-2.88,1.47-.65,1.61-2.14.5-2.58,1.29-.41,1.5-2.13.43-2.48,1.09-.41.85-1.78-.08-2.68C52.39,18.12,52.47,15.35,50.67,15.8Z" transform="translate(0.01)"/><path class="cls-8" d="M30.9,13.85c-8.37,1.64-14.27,13.67-12.74,25,1.16,8.46,7.68,17.74,17.5,17,10-.71,15-13.15,13.72-23.55C48,21,42.62,11.57,30.9,13.85Z" transform="translate(0.01)"/><path class="cls-7" d="M27.93,28.9c-2.64-.35-5.62.39-6.44,2,3.9-.52,7.23,1.33,8.61.33S30.12,29.19,27.93,28.9Z" transform="translate(0.01)"/><path class="cls-7" d="M44.12,28.46c-2,.39-3.44,1.4-2.11,2.43s4.42-1.06,8-.69C49.34,28.63,46.6,28,44.12,28.46Z" transform="translate(0.01)"/><path class="cls-9" d="M41.68,15.63A37.59,37.59,0,0,0,31.53,14c-3.06-.06-6.37-.23-9.22,1.06-1.57.71-3.49,1.68-4.08,3.41-.72,2.16-.37,4.87,0,7.08a19.09,19.09,0,0,0,2.26,7,29.24,29.24,0,0,1,1.1-4.38c1.06-4.69,4.08-6.39,7.71-7,3-.51,6.44-.25,9.53-.33,1.66-.05,11.24,1.57,9.18-2.27C47.07,16.88,43.37,16.14,41.68,15.63Z" transform="translate(0.01)"/><path class="cls-8" d="M15.24,34.11c-4.11,1.13-2.46,7.13.9,8.34a8.18,8.18,0,0,0,3.32.36.36.36,0,0,1,.07-.1c.49-.78-.2-5.16-.45-6C18.45,34.65,17.22,33.57,15.24,34.11Z" transform="translate(0.01)"/><path class="cls-9" d="M16.69,36.32c-.93-.43-3.23.34-2.15,2.15.57-1.68,1.59-.58,1.44.61-.11.8-1,.81-.11,1.83.46.56,1.39.35,1.86.05C19.23,40,17.81,36.84,16.69,36.32Z" transform="translate(0.01)"/><path class="cls-7" d="M37.72,10.44a28.25,28.25,0,0,0-8.61-.26c-4.74.56-10.46,2.81-12,7.84-.92,3.08-.44,6.66-.2,9.81.14,1.91-.63,5.6,1,7,1.9,1.68,2.66-.85,2.84-2.66.2-2,0-4.27.63-6.25,1.43-4.83,4-5.75,10.93-6.29,3.6-.27,12.5-1,14.21,2.24.64,1.2,5.86-2.31,1.15-7.55C45.66,12.07,40.63,11,37.72,10.44Z" transform="translate(0.01)"/><path class="cls-10" d="M48.4,36.09c-.82-.78-2.2-.64-3.16-.42-1.25.28-2.81,1.14-1.31,2.71.8.84,5.93.38,4.87-1.74A1.9,1.9,0,0,0,48.4,36.09Z" transform="translate(0.01)"/><path class="cls-10" d="M28.11,37c-.65-.92-2-1.09-3-1.09-1.28,0-3.63.86-2,2.4,1.17,1.12,6,1.52,5.32-.71A1.86,1.86,0,0,0,28.11,37Z" transform="translate(0.01)"/><path class="cls-7" d="M27.1,31.68c-3-.81-4.88,2.53-2.84,3.62a6.74,6.74,0,0,1,3,.16A1.92,1.92,0,0,0,27.1,31.68Z" transform="translate(0.01)"/><path class="cls-9" d="M36.76,38.58c-1.26,0-2.37-.55-3.56,0s.18,2.2,3.53,2.12,4.25-1.6,3.63-2.17S38.16,38.57,36.76,38.58Z" transform="translate(0.01)"/><path class="cls-10" d="M36.68,32.49c-2.37-.21-4.23,4.39-3.22,5.89.7,1.06,5.92,1,6.74-.22C40.5,37.71,38.94,32.68,36.68,32.49Z" transform="translate(0.01)"/><path class="cls-11" d="M26,32.26c-1.22.26-.29,1.75.89,1.21C27.79,33.08,27.12,32,26,32.26Z" transform="translate(0.01)"/><path class="cls-7" d="M46.49,31.17c-3.08-.41-4.5,3.16-2.33,4a6.63,6.63,0,0,1,3-.23A1.92,1.92,0,0,0,46.49,31.17Z" transform="translate(0.01)"/><path class="cls-11" d="M45.51,31.89c-1.17.42-.06,1.77,1.05,1.07C47.35,32.46,46.55,31.52,45.51,31.89Z" transform="translate(0.01)"/><g class="cls-12"><path class="cls-13" d="M44.6,40.19c-1.17,2.49,1.94,3.49,3.08,1.05A2.3,2.3,0,0,1,44.6,40.19Z" transform="translate(0.01)"/><path class="cls-13" d="M24.15,41.72a1.72,1.72,0,1,0,3.24-1.09A2.56,2.56,0,0,1,24.15,41.72Z" transform="translate(0.01)"/><path class="cls-13" d="M45.67,41.64a.8.8,0,0,0-.93.43,9.48,9.48,0,0,1-8.42,5.39c-4.24.24-8-1.81-9.36-5.14A.72.72,0,0,0,26,42a.67.67,0,0,0-.44.85c1.59,3.85,5.85,6.18,10.71,5.9l.39,0a10.93,10.93,0,0,0,9.4-6.28A.58.58,0,0,0,45.67,41.64Z" transform="translate(0.01)"/></g><path class="cls-14" d="M17.45,22.48h0S17.49,22.48,17.45,22.48Z" transform="translate(0.01)"/><path class="cls-14" d="M48.36,15.73c.32-.88-.43-2.13-1.43-1.53.67-.92-.53-2.64-1.51-1.23-.24-.53,0-1-.78-1s-.91.63-1.22,1.18c-.33-1.05-.38-2.42-1.67-2.83-1.49-.48-1.76.87-2.46,1.77-.37-.63-.46-1.44-1.12-1.89-.9-.63-1.36.27-1.8.94-.5-.33-.66-1-1.37-.74s-1.06,1.49-1.44,2.15c-.69-.79-1.27-2.06-2.37-2.32-1.42-.34-2,.75-2.51,1.79-.57-.31-.92-.88-1.64-.59s-.94,1.1-1.16,1.74a.9.9,0,0,0-1.46.88A2.59,2.59,0,0,0,21.63,13a1.31,1.31,0,0,0-1,1.16A2.19,2.19,0,0,0,21,15.42c-1.26-.64-1.71.4-1.07,1.49-.5-.47-1.78-1.3-2.47-.86s-.56,2.45-.11,3c0,0,0,0,0,0-1.3.17-.32.87.42,1.1-1.92-.58-1.56,2.36-.28,2.36h0s.05,0,0,0h0a.93.93,0,0,0-.35,1.83c-1.44-.3-.75,1.15.2,1.39,1.28.31,1.58-1,.55-1.57,1.37.78,1.68-.61.7-1.45,1.73.72.81-1.87.5-2.55.5.22,1,.86,1.55.71s.66-1,.64-1.61c.24.68,1.48,1.29,2.08.76s.28-1.75.44-2.32c.42.56,1.45,2,2.35,1.59.67-.32.44-1.63.63-2.25a2.62,2.62,0,0,0,2.42,1.72c1.34-.12,1.4-1,1.77-2.17.19.74,1.13,1.84,2,1.77,1.16-.09,1.36-1.23,1.78-2.26,1.18,2.22,3.7,2.65,4.61,0,.7,3.46,3.43,2.16,5.33.59-.32,2,1.11,2.55,2.21,1.05-.93,1.27.5,2.23,1.72,1.89a1.75,1.75,0,0,0,1.28-1.53,2.05,2.05,0,0,0-.35-1.38C49.47,16.58,48.41,15.6,48.36,15.73Z" transform="translate(0.01)"/></g></g></g></svg>