<svg xmlns="http://www.w3.org/2000/svg" xmlns:xlink="http://www.w3.org/1999/xlink" viewBox="0 0 96 96"><defs><style>.cls-1{fill:none;}.cls-2{clip-path:url(#clip-path);}.cls-3{fill:#bc4b4d;}.cls-4{fill:#3a3a4a;}.cls-5{fill:#fff;}.cls-6{fill:#27b3b0;}.cls-7{fill:#c9beb7;}.cls-8{fill:#9c552c;}.cls-10,.cls-9{fill:#66241b;}.cls-9{opacity:0.4;}.cls-10,.cls-11,.cls-14{opacity:0.7;}.cls-11{fill:#f0eae6;}.cls-12{fill:#d17642;}.cls-13{fill:#261b18;}.cls-14{fill:#f0ded1;}.cls-15{fill:#121b21;}.cls-16{fill:#d47b48;}.cls-17{fill:#78231f;}.cls-18{fill:#fff7ea;}.cls-19{fill:#ecdcc4;}</style><clipPath id="clip-path"><circle class="cls-1" cx="48" cy="48" r="48"/></clipPath></defs><g id="Layer_2" data-name="Layer 2"><g id="Layer_4" data-name="Layer 4"><g class="cls-2"><rect class="cls-3" width="96" height="96"/><path class="cls-4" d="M59.88,94.31c0-9.69,6.58-12.47.58-16.38-3.4-2.22-20.48-2.88-24.71.19-6.14,4.44,1.19,6.82,1,16.49,0,.48,0,.94,0,1.39H59.91C59.89,95.44,59.88,94.88,59.88,94.31Z"/><path class="cls-5" d="M46.88,83.4a1.32,1.32,0,1,0,1.32-1.32A1.32,1.32,0,0,0,46.88,83.4Z"/><path class="cls-5" d="M47,91.13a1.32,1.32,0,1,0,1.32-1.31A1.32,1.32,0,0,0,47,91.13Z"/><path class="cls-6" d="M42.49,74a2.23,2.23,0,0,1,1-1c1.17-.47,3.24,1.14,4.55,1.17s3.49-1.51,4.74-1.27,1.67,2.92,1.56,4.29c-.27,3.37-7.31,2.9-9.33,2.35-1-.26-2.8-1.15-3.11-2.42A5,5,0,0,1,42.49,74Z"/><path class="cls-4" d="M38.91,84.09l-4.13-5C32.25,80.93,31,88.58,30.25,96h7.08A105.71,105.71,0,0,0,38.91,84.09Z"/><path class="cls-4" d="M61.61,79.1l-4.14,5A106.44,106.44,0,0,0,59.06,96h7.08C65.38,88.58,64.13,80.93,61.61,79.1Z"/><path class="cls-7" d="M78.55,36.65A4,4,0,0,0,80,35.26c1.22-2.15-.48-5-2.67-6.55,4.29-1.47.58-7.69-4-6.48,3.94-3.76-2.14-8.34-5.94-4.45.19-4.32-5.21-7.39-8.26-3.47-.56-6.61-7.39-5.7-9.42-1C48,7.11,40,9.08,39,14.43c-2.07-3.8-9.66-3.57-8.82,2.39-4.05-3.11-11.29-.1-8.85,5.71-4.11-1.18-10.1,3.38-5.52,7.18-5.36.19-6.23,7.61-1.95,9.38C9.24,41,10.38,49.32,16.11,48.33c-3.74,4-1.77,9.64,3.89,9.33-1.26,2.53-1,8,3.14,7-3.17,5.48,6.28,7.78,8,1.93.13,4.95,5.43,4,6.35,4,3,.07,5.68-1.57,8.69-1.58,5.36,0,13.35,4.8,16.73-1.68,2.77,2,8.44-.52,6.43-4.25,4.79,2.32,7.27-3.75,6.32-7.37,3.52,1.9,5.61-3.47,1.94-6.84,3.34,0,5.06-3.88,1.85-5.86C83.06,41.16,82.08,38.2,78.55,36.65Z"/><path class="cls-8" d="M43.69,20.28C32.59,22.6,25,38.71,27.21,53.7,28.9,64.91,37.73,77.13,50.78,76,64.09,74.9,70.5,58.28,68.59,44.48,66.52,29.47,59.23,17,43.69,20.28Z"/><path class="cls-9" d="M65.69,25.09a33.66,33.66,0,0,0-7.62-2.69,52.84,52.84,0,0,0-13.53-1.89c-4.06,0-8.48-.2-12.23,1.46-7.48,3.29-7,10.62-6.64,17.53.11,2.32,0,8.61,1.72,9.33,2.92,1.19,4.16-3.14,3.16-4.44.53.69,3.95-1.54,3.15-3a3.61,3.61,0,0,0,3.64-1.19c.31,1.47,2.64,2.45,4,2.66,1.74.27,3-.86,4-2.18,1.93,1.59,5.41,2.9,6.29-.36,1.67,2.58,4.73.19,6-1.19.14,1.4,3.23,2,4.38,1.71,1.62-.35,2.42-1.73,3-3.14,1,.95,3.49.8,4.51,0,1.45-1.15,1-3.67.83-5.23A10.3,10.3,0,0,0,65.69,25.09Z"/><path class="cls-8" d="M23.24,47.49C17.8,49.07,20.11,57,24.58,58.56A11,11,0,0,0,29,59l.08-.14c.64-1.05-.35-6.85-.7-7.94C27.51,48.16,25.86,46.74,23.24,47.49Z"/><path class="cls-10" d="M25.2,50.4c-1.23-.55-4.29.51-2.81,2.89.73-2.23,2.11-.79,1.92.79-.13,1.07-1.27,1.1-.11,2.44.62.74,1.85.44,2.47,0C28.65,55.28,26.71,51.07,25.2,50.4Z"/><path class="cls-7" d="M68.45,23.5A29,29,0,0,0,52.7,15.59a39.94,39.94,0,0,0-11.45-.17c-6.29.8-13.86,3.75-15.76,10.13C24.32,29.48,25,34,25.38,38c.28,3-.08,7.48,1,10.32.49,1.34,3.38-.38,2.08-5.4,1.85.88,3.63,0,3.59-3.38,1.65.7,5.06.65,5.3-1.81,1.13,3.07,6.71,3.68,8.54,1,.91,1.91,5.27,1.32,5.33-1.23,1.32,2.31,6.28,1.77,7.54-.61.83,2.67,5.8,2.32,6.44-.77,4.86,1.53,7.73-5.29,5.11-9.82A12.71,12.71,0,0,0,68.45,23.5Z"/><path class="cls-11" d="M31.3,36.52h0C31.31,36.44,31.3,36.44,31.3,36.52Z"/><path class="cls-11" d="M74.28,28.86c5.19-1.47-.38-7.22-4.27-4.9,1.57-4.63-1.22-5-4.74-3.64-.53-3.18-4.36-6.17-6.61-2.22-.7-4.71-6.61-5-8.39-.94-3-2.94-7.81-4.45-9.17,1.07-3.14-2.63-9.09-3.68-9,2.32-2.53-1.57-6.14-3.05-7.87,0-1.15,2.05-.67,3.81.37,5.79-4.89-3.09-7.5,1.48-3.53,4.77-1.86.4-4.53,1-4.6,3.32-.07,2,1.8,2.63,3.63,2.54-1.28,1.1-2.45,3.51-.68,4.7,2.5,1.66,4.48-1.42,5.68-3.05-.32,3.57,6.35,2,6.25-2.12h0c0-.08,0-.08,0,0h0c2.54,2.39,6.11.78,7.65-1.82a5.67,5.67,0,0,0,.48-1c-.74,2.12,3.5,2.48,4.54,1.12a3.27,3.27,0,0,0,5.73-.65c1.33,4,6.19.66,7.08-1.68A4.88,4.88,0,0,0,60.7,35.1c2.09.1,2.7-1.42,3.11-3.26,1.62,1.39,4.93,1.87,5.87-.58a2.42,2.42,0,0,0,3-.19c-.35,1.69-1.85,5.75.09,7,3.07,1.91,3.57-3.54,2.69-5.16C78.1,34.84,77.31,29.79,74.28,28.86Z"/><path class="cls-10" d="M31.8,50.31c.07.91,2.14.47,2.76.61-.55.57-2.16.57-2.82.95s-.63.68.21.66a14.8,14.8,0,0,0,3.67-1C37.14,50.27,32.51,50.12,31.8,50.31Z"/><path class="cls-10" d="M68,51.08c-.67-.38-2.28-.38-2.83-.94.62-.15,2.69.29,2.76-.62-.71-.19-5.34,0-3.82,1.25a15.47,15.47,0,0,0,3.68,1C68.61,51.76,68.69,51.49,68,51.08Z"/><path class="cls-12" d="M62.83,52.82c-1.91,0-4.55.77-3.22,3.81.72,1.63,8.19,2.81,7.76-.94a2.89,2.89,0,0,0-.29-1C66.31,53.13,64.29,52.83,62.83,52.82Z"/><path class="cls-12" d="M39.65,54.54c-1.15-1.49-3.39-1.45-5-1.21C32.6,53.66,29.9,55,32,57.94c1.1,1.58,9.43,1.5,8.21-2.37A3.43,3.43,0,0,0,39.65,54.54Z"/><path class="cls-13" d="M37.31,45.64c-3.1-1.08-4.55,4.63-2.36,6.25a4.22,4.22,0,0,1,3,0C39.86,50.64,39.62,46.45,37.31,45.64Z"/><path class="cls-14" d="M36.78,47.71c-1.27.23-.74,2.82.58,2.13C38.31,49.35,37.91,47.51,36.78,47.71Z"/><path class="cls-13" d="M64.84,45.38c-3.09-2-5.81,5.26-2.38,6.29a3.64,3.64,0,0,1,2.72-.42C66.36,49.7,66.49,46.44,64.84,45.38Z"/><path class="cls-14" d="M63.61,47.13c-1.22,0-1,2.73.27,2.24C64.83,49,64.69,47.1,63.61,47.13Z"/><path class="cls-15" d="M64.92,45.23c-2.83-1.09-3.76,2.26-3.76,2.26a2.63,2.63,0,0,1,3.31-.61c4.37,2.45,7.19-.52,7.19-.52C68.19,47.52,66.45,45.82,64.92,45.23Z"/><path class="cls-15" d="M35.25,45.84c-1.12.6-3.71,2.39-7.22,1.45a6.43,6.43,0,0,0,7.55.1,3,3,0,0,1,3.44.19S38.17,44.27,35.25,45.84Z"/><path class="cls-10" d="M50.65,54.89c-1.22,0-2.32-.61-3.45,0s.24,2.47,3.49,2.34,4.08-1.85,3.46-2.48S52,54.85,50.65,54.89Z"/><path class="cls-12" d="M50.47,49.3c-2.31-.16-4,4-3,5.36.72.94,5.78.84,6.54-.28C54.31,54,52.67,49.45,50.47,49.3Z"/><path class="cls-7" d="M35.07,40.66c-2.86.41-5,1.5-4.91,2.33.09.55,1.38-.38,5.32-.52,3.16-.12,5.91,1.31,6-.51C41.59,40.86,38.2,40.2,35.07,40.66Z"/><path class="cls-7" d="M64.89,40.22c-3.13-.46-6.52.2-6.45,1.3.13,1.82,2.88.4,6,.51,4,.14,4,1.16,4.12.61C68.72,41.81,67.75,40.63,64.89,40.22Z"/><path class="cls-16" d="M61.53,59.53c-6.65-1.11-17.05.42-23.13.59-.49,0-.88.16-.66.69.93,2.24,4.49,10.48,12.8,10.42,7-.06,7.6-4.91,8-7.47C58.67,62.5,60.56,61,62,60.05,62.51,59.74,62.15,59.64,61.53,59.53Z"/><path class="cls-17" d="M38.67,60.94a11.08,11.08,0,0,0,10.82,6.5c7.33-.3,8.28-2.66,8.66-4.31A4.86,4.86,0,0,1,60.68,60C48.11,63.05,38.67,60.94,38.67,60.94Z"/><path class="cls-18" d="M41.31,61.61a3.38,3.38,0,0,0,2.48,3,19.37,19.37,0,0,0,10.47.22c2.49-.6,4-4,4-4A85.8,85.8,0,0,1,41.31,61.61Z"/><path class="cls-18" d="M51.38,64.92a26.48,26.48,0,0,1-8.05-.77c-1.34-.43-1.38.21-1.15.76,0,0,.36,2.29,6.68,2.6,5.53.27,8-2.67,7.45-3.26S54.86,64.83,51.38,64.92Z"/><path class="cls-19" d="M41.3,61.58a3,3,0,0,0,.23,1s13.19-1.27,16.08-.43a5.33,5.33,0,0,0,.69-1.26A99.73,99.73,0,0,1,41.3,61.58Z"/><path class="cls-19" d="M44.05,64.16c5.38,2.12,11.5,0,11.5,0A28.35,28.35,0,0,1,44.05,64.16Z"/></g></g></g></svg>