<svg xmlns="http://www.w3.org/2000/svg" xmlns:xlink="http://www.w3.org/1999/xlink" viewBox="0 0 66 66"><defs><style>.cls-1{fill:none;}.cls-2{clip-path:url(#clip-path);}.cls-20,.cls-21,.cls-3{fill:#fff;}.cls-4{fill:#313142;}.cls-5{fill:#6e7073;}.cls-6{opacity:0.2;}.cls-7{fill:#9fa2a6;}.cls-8{fill:#854422;}.cls-9{fill:#70442d;}.cls-10{fill:#9c552c;}.cls-11{fill:#66241b;}.cls-11,.cls-14,.cls-21{opacity:0.7;}.cls-12{fill:#261b18;}.cls-13{fill:#bf6c3c;}.cls-14{fill:#e6d2c3;}.cls-15{fill:#d47b48;}.cls-16{fill:#78231f;}.cls-17{fill:#fff7ea;}.cls-18{fill:#ecdcc4;}.cls-19{fill:#d9c9b2;}.cls-20{opacity:0.3;}</style><clipPath id="clip-path" transform="translate(0)"><circle class="cls-1" cx="33" cy="33" r="33"/></clipPath></defs><g id="Layer_2" data-name="Layer 2"><g id="avatars"><g class="cls-2"><rect class="cls-3" width="66" height="66"/><path class="cls-4" d="M25.07,58.83l-2.62-4.16A12.65,12.65,0,0,0,16.86,66h4.91v-.06A7.78,7.78,0,0,1,25.07,58.83Z" transform="translate(0)"/><path class="cls-4" d="M44.67,54.67l-2.62,4.16a7.81,7.81,0,0,1,3.31,7.11.13.13,0,0,0,0,.06h4.92A12.68,12.68,0,0,0,44.67,54.67Z" transform="translate(0)"/><path class="cls-5" d="M41.4,53.19c-4.87-2.61-12-1.71-15.19.4-3.88,2.52-3.62,6.48-2.7,12.41H43.84C44.85,60.12,45.19,55.23,41.4,53.19Z" transform="translate(0)"/><path class="cls-4" d="M21.52,55.41c-.3.77.67,5.68,1.53,10.59h5.34a48.73,48.73,0,0,0-1.66-13.33S21.93,54.35,21.52,55.41Z" transform="translate(0)"/><path class="cls-4" d="M45.61,55.41c-.41-1.06-5.22-2.74-5.22-2.74A49.12,49.12,0,0,0,38.73,66h5.35C44.93,61.09,45.9,56.18,45.61,55.41Z" transform="translate(0)"/><path class="cls-6" d="M27.07,56a9.92,9.92,0,0,0,4.19,5.21l2.3-2.67,3,2.66c2.06-1.13,4.06-3.81,4.09-6.06C40.72,53.48,26.13,52.61,27.07,56Z" transform="translate(0)"/><path class="cls-7" d="M27.11,52c-2.58,3.67,3.94,8.31,3.94,8.31l2.53-2.11,2.88,2.2s5.9-3.43,3.81-8C38.39,48.22,29.71,48.29,27.11,52Z" transform="translate(0)"/><path class="cls-8" d="M38.24,48.69c-1.64-1.29-4.83-1.5-6.78-1.08a4.69,4.69,0,0,0-3.53,4.29c-.18,2.47,3.47,5.78,6,5.84C35.83,57.78,43.93,53.17,38.24,48.69Z" transform="translate(0)"/><path class="cls-7" d="M33.7,60.62a.64.64,0,0,0-.64.64.65.65,0,1,0,.64-.64Z" transform="translate(0)"/><circle class="cls-7" cx="33.72" cy="64.17" r="0.64"/><path class="cls-8" d="M48.81,34.42c-1.55-.65-2.5.39-3,2.45-.19.82-.72,5.2-.33,6a.47.47,0,0,1,0,.1,4.87,4.87,0,0,0,2.59-.19C50.75,41.75,52,35.78,48.81,34.42Z" transform="translate(0)"/><path class="cls-9" d="M17.49,21.22c-1,4.83-1.25,11.24,1.08,15.85,1.21,2.41,4.11.8,6.15.3,2.51-.63,5-1.19,7.57-1.75,4.16-.92,8.72,0,12.94.4,3.3.31,3.54,1.85,3.55-.83,0-3.34.85-8.83,0-12.48C44.66,4.92,20,9.61,17.49,21.22Z" transform="translate(0)"/><path class="cls-10" d="M31.9,15.3c-11.79,1.6-13.65,12.38-12.5,23,.86,7.91,6.71,16.72,15.88,16.32C44.65,54.16,49.61,42.69,48.66,33,47.64,22.39,45.36,13.47,31.9,15.3Z" transform="translate(0)"/><path class="cls-10" d="M16.8,33.76c-3.84.76-1.88,7,1,8.44a2.05,2.05,0,0,0,3-.91c.64-.84.22-3.23-.48-5.3C19.77,34.31,18.64,33.39,16.8,33.76Z" transform="translate(0)"/><path class="cls-11" d="M18.09,35.88c-.86-.42-3,.24-2.06,1.95.58-1.54,1.5-.5,1.32.61-.11.74-.91.73-.15,1.71.42.52,1.3.35,1.74.09C20.36,39.4,19.12,36.39,18.09,35.88Z" transform="translate(0)"/><path class="cls-9" d="M33.05,13.23C23.49,13.16,16.7,20,17.33,33.7a2.34,2.34,0,0,1,1.81.57,4.56,4.56,0,0,1,1,2.06c.1.22.22.58,1,.54-1.42-4.59-.6-11,1-13.14,3.88-5.19,12.58,1.83,15.47,1.72,2.17-.08,7.41-6.63,9.49-1.71C48.43,27.09,48.39,13.36,33.05,13.23Z" transform="translate(0)"/><path class="cls-12" d="M27.18,30.8c-2.28-.74-3.31,3.28-1.7,4.41a3.17,3.17,0,0,1,2.19,0C29.07,34.31,28.87,31.36,27.18,30.8Z" transform="translate(0)"/><path class="cls-11" d="M36.66,38.24c-1.46,0-2-.62-3.06-.14s.34,2.16,2.93,2.16,3.77-1.43,3.26-2S38.29,38.28,36.66,38.24Z" transform="translate(0)"/><path class="cls-13" d="M36.13,32.76c-1.36.1-3.45,5.35-2.73,5.76,1.76,1,5.52.63,6.58-.19C40.4,38,37.67,32.66,36.13,32.76Z" transform="translate(0)"/><path class="cls-12" d="M46.59,30.81c-2.23-1.37-3.92,2.94-2.08,4.18a2.91,2.91,0,0,1,2.33,0C47.75,34,47.78,31.54,46.59,30.81Z" transform="translate(0)"/><path class="cls-14" d="M26.46,31.55c-.87.39,0,2.06.78,1.35C27.82,32.39,27.23,31.21,26.46,31.55Z" transform="translate(0)"/><path class="cls-14" d="M45.71,31.27c-.89.17-.48,1.91.43,1.43C46.79,32.35,46.49,31.12,45.71,31.27Z" transform="translate(0)"/><path class="cls-12" d="M40.48,29c.38.9,2.14.35,2.68,0a3.41,3.41,0,0,1,2.92-.3c.26.06,2.73.59,3,.09-1-1-3-2.42-4.26-2.37C44,26.53,39.73,27.25,40.48,29Z" transform="translate(0)"/><path class="cls-12" d="M25.85,26.94c-1.4,0-3.54,1.41-4.57,2.39.24.5,2.83.08,3.11,0a5.3,5.3,0,0,1,3.66,0c.57.3,1.93,1,2.34.12C31.22,27.64,26.72,27,25.85,26.94Z" transform="translate(0)"/><path class="cls-13" d="M47.8,37.09a3.51,3.51,0,0,0-2.88-1c-1.23,0-2.85.48-1.72,2.21.6.91,5.49,1.51,4.88-.63A1.9,1.9,0,0,0,47.8,37.09Z" transform="translate(0)"/><path class="cls-13" d="M28.9,36.64a3.68,3.68,0,0,0-3.18-.39c-1.25.29-2.8,1.13-1.26,2.65.82.81,6,.31,4.86-1.73A2,2,0,0,0,28.9,36.64Z" transform="translate(0)"/><path class="cls-15" d="M26.46,40.48s1.83,10.43,9.27,10.32c4.13-.06,5.54-2.4,7-5.91.68-1.66.89-3.46,1.93-4.72C42.49,42,32.77,43.91,26.46,40.48Z" transform="translate(0)"/><path class="cls-11" d="M43.17,40.38c-.23.16.27,0,.95-.06s.45,1,.87.89.52-.93,0-1.36S43.17,40.38,43.17,40.38Z" transform="translate(0)"/><path class="cls-11" d="M26.29,40.13c-.6.17-.9,1.2-.52,1.38s.59-.75,1.24-.93,1.55.06,1.35-.14A5,5,0,0,0,26.29,40.13Z" transform="translate(0)"/><path class="cls-16" d="M27.84,41.67s2.28,6.06,8.06,6.27a6.09,6.09,0,0,0,5.49-3.62,12.35,12.35,0,0,1,2-2.94A14.28,14.28,0,0,1,27.84,41.67Z" transform="translate(0)"/><path class="cls-17" d="M27.84,41.67A10.5,10.5,0,0,0,31.51,45a11.52,11.52,0,0,0,7.68.46c1.91-.47,4.25-4.1,4.25-4.1S36.92,45.92,27.84,41.67Z" transform="translate(0)"/><path class="cls-17" d="M36.51,45.56a12.4,12.4,0,0,1-5.33-1.11c-1-.45-.88.62-.67,1.14,0,0,1.08,1.9,4.91,2.32,3.6.39,5.21-2.4,4.72-3S39.16,45.58,36.51,45.56Z" transform="translate(0)"/><path class="cls-18" d="M27.84,41.67a8,8,0,0,0,1.6,1.89,28.14,28.14,0,0,0,12.71-.44s1.21-1.25,1.29-1.74C43.44,41.38,36.69,45.84,27.84,41.67Z" transform="translate(0)"/><path class="cls-18" d="M30.45,44.44c5.77,3.41,9.26.73,9.26.73A15.61,15.61,0,0,1,30.45,44.44Z" transform="translate(0)"/><path class="cls-6" d="M45.48,38.42a4.21,4.21,0,0,0-1.28-.05,9.71,9.71,0,0,1-1.61-.13,4.69,4.69,0,0,1-1.94-.86,4,4,0,0,1-1-1.14,3.9,3.9,0,0,1-.22-3.12c.47-1.41,1.92-1.53,3.13-1.65a40.83,40.83,0,0,0,4.56-.38c.18,0-.07-1.3-.13-1.44a1.42,1.42,0,0,0-.89-.87c-1.18-.4-2.71.13-3.86.46a16.08,16.08,0,0,0-3.54,1.07,4,4,0,0,1-2.56.85C34,31.07,32,29.7,29.76,29.47a18.88,18.88,0,0,0-7,.16c-.59.17-2.38.86-1.17,1.49s3,.41,4.26.45c.6,0,1.21,0,1.81.08,2.12.19,5.38-.12,5.22,2.53-.1,1.82-1.26,3.69-2.74,4a19.56,19.56,0,0,1-4.37.47A7.53,7.53,0,0,1,22.62,38c-.28-.13-1.14-.67-1.41-.28-.46.65,1.27,1.72,1.72,1.93a10.55,10.55,0,0,0,3.26.7c2.76.29,5.61.12,7.16-2.43.9-1.48,1.34-3.21,2.17-4.73,1.36-2.49,2,.87,2.39,2.34A7.62,7.62,0,0,0,39,37.88a5.16,5.16,0,0,0,3.9,1.95c.85,0,3.7.63,4.56-1.11C47.66,38.23,46.06,38.65,45.48,38.42Z" transform="translate(0)"/><path class="cls-19" d="M20.38,29.4c-1.82.18-3.41-.23-3.82.17s.56,2.07.56,2.07a3,3,0,0,0,1.46.39c.2,1.26.34,4.54,2.8,6.45,2.05,1.6,8.42,1.69,10.32.57a7.68,7.68,0,0,0,3.55-6C36,27.47,22.94,29.16,20.38,29.4ZM31.5,37.13c-2.17,1.61-8,1.3-9.65-.47-1.25-1.37-1.65-4.36-1-4.83,2.09-1.45,10.29-1.47,12.28-.15C34.11,32.32,33.15,35.91,31.5,37.13Z" transform="translate(0)"/><path class="cls-19" d="M49.84,28.46c-2.2-.07-13.34-.88-12.45,4.63.37,2.26,1.25,4.53,3.33,5.76,1.68,1,7.09.47,8.75-1.27,2-2.07,1.93-5.35,2-6.62a2.48,2.48,0,0,0,1.22-.48s.84-1.63.36-2.11S51.39,28.52,49.84,28.46Zm-.77,7.31c-1.29,1.86-6.23,2.57-8.16,1.11-1.46-1.1-2.47-4.61-1.69-5.32,1.61-1.44,8.57-2,10.42-.67C50.24,31.32,50.06,34.33,49.07,35.77Z" transform="translate(0)"/><path class="cls-20" d="M40.27,31.25c-1.23.52.95,1.27,1.43,1.36a15.25,15.25,0,0,0,5.26,0c.93-.15,2.93-1,2.38-1.53C48.57,30.27,41.63,30.69,40.27,31.25Z" transform="translate(0)"/><path class="cls-3" d="M45.7,31.11c-.66.09-1.1.28-.92.6.34.63,4.22.41,4.49-.06S47.12,30.92,45.7,31.11Z" transform="translate(0)"/><path class="cls-21" d="M41.53,35.93c-.42,0-.71.08-.63.36.14.54,2.55.87,2.77.54S42.41,36,41.53,35.93Z" transform="translate(0)"/><path class="cls-21" d="M23.29,36.35c-.47,0-.79,0-.73.31.12.56,2.79,1,3.05.72S24.27,36.44,23.29,36.35Z" transform="translate(0)"/><path class="cls-20" d="M32.51,31.51c-1.66-.48-9.78-.56-10.57.21-.56.55,1.89,1.24,3,1.34a22.12,22.12,0,0,0,6.12-.21C31.59,32.75,34,31.94,32.51,31.51Z" transform="translate(0)"/><path class="cls-3" d="M29,31.27c-.74.07-1.24.25-1.06.57.36.64,4.71.51,5,.05S30.55,31.11,29,31.27Z" transform="translate(0)"/><path class="cls-19" d="M39,29.8a9.19,9.19,0,0,1-5.7.15c-1.82-.49,1,1.09,1.18,2s0,3.91.56,2.23,1.76-1.76,2.52-.22.81-2.52,1.11-2.9S40.68,29.25,39,29.8Z" transform="translate(0)"/><path class="cls-3" d="M21.27,29.89c4.93-.07,8.87-.18,11.92.77C31.15,29.2,27.79,29.06,21.27,29.89Z" transform="translate(0)"/><path class="cls-3" d="M49.43,28.88c-5.68,0-8.32,0-9.9,1.45C42,29.18,45.2,29.37,49.43,28.88Z" transform="translate(0)"/></g></g></g></svg>