<svg xmlns="http://www.w3.org/2000/svg" xmlns:xlink="http://www.w3.org/1999/xlink" viewBox="0 0 66 66"><defs><style>.cls-1{fill:none;}.cls-2{clip-path:url(#clip-path);}.cls-3{fill:#fff;}.cls-4{fill:#e0e0e0;}.cls-5{opacity:0.1;}.cls-6{fill:#1f1a17;}.cls-7{fill:#ffb06b;}.cls-8{fill:#b54319;opacity:0.4;}.cls-9{fill:#332823;}.cls-10{fill:#f2f2f2;}.cls-11{fill:#ffc896;}.cls-12{fill:#a88888;}.cls-13{fill:#ff7752;}.cls-13,.cls-14{opacity:0.7;}.cls-14{fill:#c76835;}.cls-15{fill:#8f322d;}.cls-16{fill:#fff3e2;}.cls-17{fill:#e8dac5;}</style><clipPath id="clip-path" transform="translate(0)"><circle class="cls-1" cx="33" cy="33" r="33"/></clipPath></defs><g id="Layer_2" data-name="Layer 2"><g id="avatars"><g class="cls-2"><rect class="cls-3" width="66" height="66"/><path class="cls-4" d="M31.52,48.05c-3.38.31-10.15,2.31-12.34,6.57A24.86,24.86,0,0,0,16.64,66h35.6c-.08-4.76-1.66-9.67-3.76-12.19C44.36,48.84,38.43,47.42,31.52,48.05Z" transform="translate(0)"/><path class="cls-5" d="M45.92,66h.66a28.28,28.28,0,0,0-2.73-9.89A39.54,39.54,0,0,1,45.92,66Z" transform="translate(0)"/><path class="cls-6" d="M44.81,14.42a19.11,19.11,0,0,0-15.12-2.76c-21.52,4.93-17.26,28-11,26.72,4.91-1,10.28-3.71,15.34-1.8,3.54,1.33,6.74,3.53,10.32,4.85,3.19,1.17,6.3,4.25,7.2-.12,2-9.69-1.25-16.44-2.82-18.81C52.46,19.26,47.52,16.34,44.81,14.42Z" transform="translate(0)"/><path class="cls-7" d="M32.56,14.69C23.23,15.31,15.21,25.56,16,36.91s8.48,19,19.35,18.86c12-.11,16.64-10,15.87-21.35S41.88,14.06,32.56,14.69Z" transform="translate(0)"/><path class="cls-8" d="M49,22.52c-1.35-1.85-2.68-1.91-4.84-2.26a61.68,61.68,0,0,0-15.54-.16c-3.1.31-6.32,1.34-8.2,4a12.26,12.26,0,0,0-2.24,6.74,8.74,8.74,0,0,0,.72,3.79c.69,1.55,1.95,2.09,2.62.34.58-1.52.9-3.14,1.54-4.64A7.44,7.44,0,0,1,27.72,26c2.54-.77,5.17-.23,7.79-.19s6.39-.94,8.84-.26c2.22.62,3.13,1.7,4.64,3.34.42.45,1.16,2.68,1.9,2.62,1.47-.12.25-3.24,0-3.93A15.8,15.8,0,0,0,49,22.52Z" transform="translate(0)"/><path class="cls-6" d="M47,17.2A13,13,0,0,0,42.65,14c-5.16-2.4-13.13-3.1-18.69-.29a11.49,11.49,0,0,0-4.34,3.69c-2.42,3.5-5.48,9.25-4.23,13.49.28.95-.57,4.06-.23,5,.84,2.35,2,10.15,4.06,10.19.75,0,3.68.12,3.31-.57a18.83,18.83,0,0,1-2-7.06,32.36,32.36,0,0,1-.14-3.94c0-2.38,2.82-6.51,4.3-7.66s2.71-2.48,4.62-2.41c1.52.05,3,.14,4.57.15,2.8,0,5.58-.49,8.36-.49a8.5,8.5,0,0,1,5.51,2.23,11.07,11.07,0,0,1,3.09,5.14c.23.83.48-.78.52-2.69.06-2.47-.9-5.27-1.65-7.6A11.51,11.51,0,0,0,47,17.2Z" transform="translate(0)"/><path class="cls-9" d="M20.45,28.35c-2.06,2.61-6.34-1.89-5.69,3.2.18,1.4,1.08,3,2.15.6-.35,3.45,3.19,8.85,2.9,6.58a20.38,20.38,0,0,1,1-10.27S20.47,28.31,20.45,28.35Z" transform="translate(0)"/><path class="cls-9" d="M39,21.89c-1-.12-8.72.71-9.71.73-.35,0-1.16.13-1.2.49a.31.31,0,0,0,.05.2c.33.6,9.35.58,12.2.19C42.37,23.22,39.74,22,39,21.89Z" transform="translate(0)"/><path class="cls-4" d="M30.61,5.9A22.24,22.24,0,0,0,10,28.4c.61,11.45,5.41,13,6.6,12.69-.11-3.52,1.49-11.18,11-17.55,10.45-7,14.74-14.61,12.45-16.3C38.18,5.83,33.38,5.64,30.61,5.9Z" transform="translate(0)"/><path class="cls-5" d="M23.34,13.37c-4.21,2.83-8.7,8.56-9.38,12.81a25.58,25.58,0,0,1,10.7-11.87c.62.41,2.48,1.71,3.13,2.19-2.28.79-10.29,9.76-10.63,14.69,3.47-8.47,10.13-12.94,12-13.64,7.45,4.65,13,3.69,13.08,3.68C39.58,18.71,21.61,8.77,21.61,8.77,21.4,9.79,22.72,12.58,23.34,13.37Z" transform="translate(0)"/><path class="cls-4" d="M30.73,4.19c-2.77.31-7.42,1.48-9,3.24-1.89,2.13,4.24,8.74,16.55,13,15.36,5.3,13.31,11.5,13.92,15,1.23.09,5-2.06,3.28-13.39A22.24,22.24,0,0,0,30.73,4.19Z" transform="translate(0)"/><path class="cls-10" d="M37.14,6.29a32.3,32.3,0,0,0-8.07-.57c-2.81.24-5,1.18-4,3.67a8,8,0,0,0,3.41,4c4.66,2.84,9.88,5.47,15.45,4.74,2.19-.29,7.78.05,5.93-3.4C47.32,10.08,42.11,7.39,37.14,6.29Z" transform="translate(0)"/><path class="cls-10" d="M19,11.42c-2.55.83-4.49,4.93-3.89,7.4a14.6,14.6,0,0,0,4.2-3.65C20.36,13.9,22.16,10.41,19,11.42Z" transform="translate(0)"/><path class="cls-10" d="M23.47,16.31c-3.08.83-4.78,4.07-5.1,7.45A36.84,36.84,0,0,0,22,20.39c1.15-1.17,3.54-2.39,3.33-4.27A6,6,0,0,0,23.47,16.31Z" transform="translate(0)"/><path class="cls-8" d="M49.55,33.47c-.4-.21-3.25-.56-2.54.51A7.7,7.7,0,0,0,49.07,35c.51.1.6-.09.24-.45s-1.32-.49-1.55-.95C48.17,33.59,49.35,34.1,49.55,33.47Z" transform="translate(0)"/><path class="cls-8" d="M23.36,35.18c.25.62,1.39,0,1.8,0-.2.47-1.17.7-1.48,1.06s-.22.57.28.43a7.51,7.51,0,0,0,2-1.21C26.56,34.38,23.74,34.94,23.36,35.18Z" transform="translate(0)"/><path class="cls-6" d="M27.55,31.83c-2.08-.91-3.41,2.79-2,4a3.08,3.08,0,0,1,2.07.19C29,35.31,29.1,32.51,27.55,31.83Z" transform="translate(0)"/><path class="cls-8" d="M37,37.42c-1.16,0-1.64-.46-2.45,0s.25,2.25,2.32,2.17,3.06-1.76,2.62-2.24S38.3,37.4,37,37.42Z" transform="translate(0)"/><path class="cls-11" d="M36.16,31.15c-1.06.05-1.8,1.53-2,3.45s-.16,2.83.34,3.22a4.13,4.13,0,0,0,4.88-.25C40.88,36.14,38.69,31,36.16,31.15Z" transform="translate(0)"/><path class="cls-6" d="M46.7,30.89c-2.22-1-3.53,3.68-1.13,4.06a2.7,2.7,0,0,1,1.77-.66C48.05,33.27,47.89,31.41,46.7,30.89Z" transform="translate(0)"/><path class="cls-12" d="M26.48,32.59c-.85.29-.21,1.93.62,1.34C27.7,33.5,27.24,32.34,26.48,32.59Z" transform="translate(0)"/><path class="cls-12" d="M45.68,31.74c-.79.27-.2,1.81.58,1.25C46.82,32.59,46.39,31.51,45.68,31.74Z" transform="translate(0)"/><path class="cls-13" d="M29.55,37.54c-1.1-.91-2.83-.63-4-.28-1.56.46-3.46,1.67-1.43,3.53,1.08,1,7.52,0,6-2.59A2.58,2.58,0,0,0,29.55,37.54Z" transform="translate(0)"/><path class="cls-13" d="M46,36.08a3.22,3.22,0,0,0-1.78,1c-.67.79-.68,1.85.69,2.57s4.23.91,5-.84C51,36.44,47.59,35.75,46,36.08Z" transform="translate(0)"/><path class="cls-6" d="M29.21,27.49c-.8-.15-1.64-.57-2.43-.65-2-.2-4,2.46-2.76,4.19a8.84,8.84,0,0,0,.72-.77C26,28.94,27.8,30,29.3,30.21c2,.35,3-.91,2.87-2.82A5.82,5.82,0,0,1,29.21,27.49Z" transform="translate(0)"/><path class="cls-6" d="M45.71,26.57c-.78.14-1.58.62-2.37.83a5.73,5.73,0,0,1-3,.14c.06,1.91,1.12,3.09,3.09,2.58,1.47-.38,3.19-1.53,4.54-.31a8.62,8.62,0,0,0,.78.71C49.93,28.7,47.69,26.2,45.71,26.57Z" transform="translate(0)"/><path class="cls-14" d="M44.49,40c.21-.08.81.58.82.79,0,.41-.47.66-.78.82a11.14,11.14,0,0,1-3.48.73,32.59,32.59,0,0,1-8.6.13,18.86,18.86,0,0,1-4.73-1.24.58.58,0,0,1,.15-.11c.81-.47,2-.5,1.66-.66-1.77-.84-3.82,0-5.28,1,1.65-.3,3.37-.11,4.25,1.51C30.72,47.09,33,49.85,37,49.9c5.13.08,6.3-3.28,7-5.53a4.56,4.56,0,0,1,1.29-2.06,6.69,6.69,0,0,1,2.23-1.65,4.32,4.32,0,0,1,1.82-.32C48.21,39.23,45.78,39.55,44.49,40Z" transform="translate(0)"/><path class="cls-15" d="M28.82,42.24s2.41,6,8.47,5.7c4.11-.2,5.81-2.17,6.32-3.89a3.66,3.66,0,0,1,1.61-2.32A23.91,23.91,0,0,1,28.82,42.24Z" transform="translate(0)"/><path class="cls-16" d="M30.83,42.85a3.23,3.23,0,0,0,2,2.63,12.82,12.82,0,0,0,7.84.31c1.83-.47,2.79-3.37,2.79-3.37A27.71,27.71,0,0,1,30.83,42.85Z" transform="translate(0)"/><path class="cls-16" d="M38.56,45.81a18.22,18.22,0,0,1-6.08-.76c-1-.39-1,.15-.8.63,0,0,.4,2,5.14,2.32,4.15.3,5.86-2.19,5.38-2.71S41.15,45.77,38.56,45.81Z" transform="translate(0)"/><path class="cls-17" d="M30.82,42.82a2.64,2.64,0,0,0,.73,1.73s8.73-.93,10.94-.17a6.17,6.17,0,0,0,1-2A30.73,30.73,0,0,1,30.82,42.82Z" transform="translate(0)"/><path class="cls-17" d="M33,45.06a12.14,12.14,0,0,0,8.6.13A18.87,18.87,0,0,1,33,45.06Z" transform="translate(0)"/><path class="cls-6" d="M45,38c.75-.43,1.44,0,1.39.57-.08.8-1.08.69-1.63.62-1.77-.23-3.63-.93-5.46-.42-2.38.68-4-.22-6.42.08a32.15,32.15,0,0,0-3.64.81c-.6.15-1.39.23-1.52-.43a.72.72,0,0,1,1.17-.59c-.26-.56-1.34-.74-1.86-.56a1.41,1.41,0,0,0-1,1.75c.2,1.19,1.87,2,2.88,2.46a22.08,22.08,0,0,0,4.88,1.22,22.46,22.46,0,0,0,3.48.26A20.54,20.54,0,0,0,41,43.43a13.1,13.1,0,0,0,4.37-1.62c1-.64,2.62-1.48,2.52-3.05A1.55,1.55,0,0,0,45,38Z" transform="translate(0)"/><path class="cls-9" d="M42.81,39.6a6.28,6.28,0,0,0-3.84,0,4.44,4.44,0,0,1-3.77,0c-1.78-.8-5.87.42-5.33,1.1s2.43.41,2.43.41a1.28,1.28,0,0,0,.8,1.14c.77.24,2.25-.77,2.25-.77a1,1,0,0,0,1,1.14c1,.09,2-1.1,2-1.1s.63,1.14,1.69,1a1,1,0,0,0,1-1.08,3.62,3.62,0,0,0,2.05.45c.79-.21.37-1.32.37-1.32a2.47,2.47,0,0,0,2.06-.05C46.63,40,44.25,39.92,42.81,39.6Z" transform="translate(0)"/><path class="cls-6" d="M51.6,46.88c-.17-2.25.49-4.54.26-6.77-.15-1.49-.77-1-1.73-.31a4.18,4.18,0,0,1-3,.81c-2.93-.25-2.83,3-3.19,5.31-.2,1.21-.39,3.07-1.57,3.78-1,.6-2.13,0-3.18-.08s-2.16.51-3.32.65c-1.56.2-2.83-.75-3.87-1.82a11.4,11.4,0,0,1-2.55-4c-.24-.67-.41-2.74-1.14-3.09s-2,1.16-2.71,1.45A3.76,3.76,0,0,1,22,42.07a11.72,11.72,0,0,1-1.51-1.44,3.27,3.27,0,0,0-2.24-1.22c-2.82.05-.26,8.18.12,9.36a26.79,26.79,0,0,0,5.29,9.95C26.5,61.8,30,63,34.11,63.26c4.84.29,10.51-.36,14.49-2.53,2.39-1.3,5-3,4.35-6.28C52.56,52.46,51.75,48.91,51.6,46.88Z" transform="translate(0)"/><path class="cls-9" d="M47.68,45.59a3.85,3.85,0,0,0-.78.6A8.23,8.23,0,0,0,45.2,49c-.73,1.72-.86,3.18-3.1,2.52-1.83-.54-3.66-1.55-5.55-.43-1.41.84-2.2,2.46-4.07,2a11.3,11.3,0,0,1-4.63-2.83c-1.43-1.21-6.52-3.5-6.48.08,0,.15,0,.29,0,.43.37,3.33,4.48,5.26,6.8,7.05,3.27,2.54,6.91,2.5,10.89,2.08A14.67,14.67,0,0,0,45.75,58a10,10,0,0,0,4.49-7.36C50.45,49,50.61,43.92,47.68,45.59Z" transform="translate(0)"/><path class="cls-6" d="M32.75,17c.32-1.41,2.18-.74,2.57.28a1.29,1.29,0,0,0,.29-1.76c-1.51-3-7.08-1.48-7.62,1.82a4.08,4.08,0,0,0,2.7,4.52c2.43.72,5.88-2,5.32-2.18C35.09,19.41,32.45,18.32,32.75,17Z" transform="translate(0)"/><path class="cls-9" d="M32,16.5a2.21,2.21,0,0,1,1.61-1c.27,0,1.76.25,1.67.72.35-1.91-2.72-1.62-3.81-1.37A4.47,4.47,0,0,0,29,16.41a3,3,0,0,0-.06,2.81,5.91,5.91,0,0,0,1.39,1.59C33.58,23.12,36.8,23,39,21.89a23.46,23.46,0,0,1-4.77-1.65C32.83,19.63,30.79,18.24,32,16.5Z" transform="translate(0)"/></g></g></g></svg>