<svg xmlns="http://www.w3.org/2000/svg" xmlns:xlink="http://www.w3.org/1999/xlink" viewBox="0 0 96 96"><defs><style>.cls-1{fill:none;}.cls-2{clip-path:url(#clip-path);}.cls-3{fill:#ffb571;}.cls-4{fill:#1e1e29;}.cls-5{fill:#6e7073;}.cls-6{fill:#ff9819;}.cls-7{fill:#1c1c26;}.cls-8{fill:#313142;}.cls-9{opacity:0.1;}.cls-10{fill:#ed9d6c;}.cls-11{fill:#c9beb7;}.cls-12{fill:#9c552c;}.cls-13,.cls-16{fill:#66241b;}.cls-13,.cls-15,.cls-19{opacity:0.7;}.cls-14{fill:#66261e;}.cls-14,.cls-16{opacity:0.4;}.cls-15{fill:#f0eae6;}.cls-17{fill:#d17642;}.cls-18{fill:#261b18;}.cls-19{fill:#f0ded1;}.cls-20{opacity:0.8;}.cls-21{fill:#611f16;}</style><clipPath id="clip-path"><circle class="cls-1" cx="48" cy="48" r="48"/></clipPath></defs><g id="Layer_2" data-name="Layer 2"><g id="Layer_4" data-name="Layer 4"><g class="cls-2"><rect class="cls-3" width="96" height="96"/><path class="cls-4" d="M22.9,96H33.6L27.7,81.76C25.8,83.32,23,86.37,22.9,96Z"/><path class="cls-4" d="M67.57,81.34,61.77,96H73.08C73,86.37,69.47,82.9,67.57,81.34Z"/><path class="cls-5" d="M60.85,78.85c-3.07-7.47-19.42-5.28-23.75-1.66s-5.51,8,1,14.34A37.08,37.08,0,0,0,43.51,96h8.22C55.71,91.72,62.69,83.33,60.85,78.85Z"/><path class="cls-6" d="M52.17,84.44a3.73,3.73,0,0,0-4.28-1.9,3.9,3.9,0,0,0-3.25,3L47,87.9,44.58,96H54l-3.2-8.58Z"/><path class="cls-7" d="M37,77.94a6.75,6.75,0,0,1,.79-1.48C34.33,77.93,28,81,27.46,82.06,27,83,30.08,89.39,31.54,96H45.12C40.93,90.49,35.38,82.06,37,77.94Z"/><path class="cls-7" d="M67.72,81.49C66.65,80.32,61.41,77,59.5,76c.21.47.89,1.49.84,2-.53,5.78-4.48,13.11-7.49,18H65C66.12,90.47,68.37,82.2,67.72,81.49Z"/><path class="cls-8" d="M62.81,90.07a37.1,37.1,0,0,0-2.7-4.58l4.72-2.81a20.94,20.94,0,0,0-6.59-7.29C59,83.12,55,91.11,52.06,96h4.53C59.79,93.08,62.84,90.25,62.81,90.07Z"/><path class="cls-8" d="M32,83.59l5.63,2.23a53,53,0,0,0-2.5,5.72A47.63,47.63,0,0,0,40.57,96h5.32c-3.08-4.39-7.25-11.57-7.25-19.71A14.8,14.8,0,0,0,32,83.59Z"/><path class="cls-9" d="M38.54,81a14.21,14.21,0,0,0,5.54,7.3l4.56-4.34,4.85,4.11c4.63-4.1,5.54-6.68,5.93-8.14C60.62,75.32,36.52,74.58,38.54,81Z"/><path class="cls-5" d="M37.78,76.53c-2.26,5.77,6,10.47,6,10.47l4.9-3.06,4.57,2.87s9-4.69,5.62-11.42C55.75,69.34,40.4,69.83,37.78,76.53Z"/><path class="cls-10" d="M45.06,68.45A6.83,6.83,0,0,0,40,74.72c-.16,2.22.19,3.5,1.43,4.73a10,10,0,0,0,3.86,2.23c1.08.33,3,1.59,3.3,1.6.13,0,.76-.55,1.77-1.07,1.49-.76,3.59-1.78,4.41-3.38,1.2-2.34,2.27-7,0-8.8S47.86,67.84,45.06,68.45Z"/><path class="cls-11" d="M71.13,22.19c1-1.61,2-2.43.22-3.87a5.86,5.86,0,0,0-5.52-.84c1-4.08-4.65-5.06-6.86-2.76-.63-4.52-5-5.13-7.62-1.88-1.28-3.42-6.19-4.09-7.06,0-2.95-3.81-8.37-1.81-9.34,2.57-2.4-3.1-8.12-1.79-7.77,2.54A4.31,4.31,0,0,0,22,19.27c-1.36,1.45-1,4.47-.09,6-5.18-.34-5,4.33-2.44,6.9-4,.25-5.78,5.93-.95,6.37-2.62.93-2.94,4.46.24,5-3.24,1.16-1.86,4,1,4.64-1,2.88-.35,4,1.89,5.79a30.81,30.81,0,0,1,3.51,3.78c3.11,3.48,5.34,7.64,8.36,11.11s6.27-2.41,8.72-3.81a17.39,17.39,0,0,1,10.93-2.31c3.31.49,5.64,3.95,9,4,2,0,3.35-1.68,4.19-3.32,1-1.85.65-3.29,1-5.1s2-2.18,3-3.37c.45-.52,1.78-3.91,0-3.89,3,0,3-2.54,2-4.46a5.5,5.5,0,0,0-.74-1.11c3.27-.49,2-3,.84-4.86,1.14-.75,1.95-.85,1.85-2.36A4,4,0,0,0,72,35.29c1.15-.83,2.58-.86,2.73-2.47s-1.25-3-2.28-3.83C77.32,27.86,75.12,22.68,71.13,22.19Z"/><path class="cls-12" d="M44.47,20.06c-12.1,2.37-20.62,19.76-18.4,36.09,1.66,12.22,11.09,25.64,25.3,24.62,14.49-1,21.7-19,19.82-34C69.16,30.38,61.42,16.76,44.47,20.06Z"/><path class="cls-12" d="M21.85,49.35c-6,1.63-3.56,10.31,1.29,12a11.73,11.73,0,0,0,4.8.52,1.3,1.3,0,0,1,.1-.15c.71-1.13-.29-7.45-.65-8.64C26.47,50.13,24.7,48.56,21.85,49.35Z"/><path class="cls-13" d="M23.93,52.54c-1.34-.62-4.67.49-3.1,3.1.82-2.42,2.3-.83,2.07.89-.15,1.15-1.39,1.17-.15,2.65.66.8,2,.5,2.69.07C27.61,57.89,25.56,53.29,23.93,52.54Z"/><path class="cls-14" d="M36.89,38.36c9.49-.08,17-.45,28.18-1.2C55.73,35.67,42.5,37.08,36.89,38.36Z"/><path class="cls-14" d="M38.09,35.4c8.33-.06,14.89-.39,24.74-1C54.62,33,43,34.28,38.09,35.4Z"/><path class="cls-11" d="M71.28,62.35c1.7-.71,1-3.77-.4-4-9.35,18.91-27.15,16.4-34.4,8.31-4-4.52-2.36-8.13-5.27-7.16-5.89,2-8.8,6-3.9,7.15-2,1.52-1.06,4.07,1.54,3.66-1.06,2.24-.54,5.49,2.79,4.84-1.31,2.75.85,4.82,3.79,3.32C35.3,81.29,38.51,81,40,79.4c.55,2.7,3.37,3,5.69,1.91.17,2.88,4.7,2.6,6.05.74,1.83,2.18,7.43,2.08,7.41-1.38,2.07,1.41,8.1-.23,6-3.33,2.74,2.07,6.1-4.1,3-5.85,2.88.48,4.13-2.56,1.76-4.38C72.57,67.24,74,63.17,71.28,62.35Z"/><path class="cls-15" d="M37.08,69.15A31.43,31.43,0,0,1,32.21,63c-1.46,1.36-5.13,6.19-.68,6.11-.85,1.9-1.07,5,2,3.87-.32.92-.76,2.49-.2,3.35,1,1.48,2.65.09,3.81-.46.39,3.37,2.54,1.85,4.93,1-.8,3.27,3,3,4.9,1.49.05,2.79,5.53,2.9,6.42.86,1.29,2.8,5,.38,5.85-1.32,2.52,1.87,6.34.17,4.76-2.83,3.68,1.32,4.07-2,2.85-4.34,3.79-1,2.49-4.89,1.49-6C62,76.36,45.35,77.18,37.08,69.15Z"/><path class="cls-16" d="M58.64,22.66A54.45,54.45,0,0,0,44,20.35c-4.42-.07-9.22-.32-13.34,1.54-2.26,1-5,2.43-5.89,4.93-1,3.09-.62,6.58-.12,9.73.25,1.59,1.46,5.93,4,5.29,1.41-.37,1.32-4.67,1.83-4.69A3.75,3.75,0,0,0,34.19,33c1.57.05,3.57-.56,3.86-2.3a4,4,0,0,0,2.61,1h.2c1.76,0,2-1.12,3.2-1.58,1.61-.64,4.37,1.19,5.45-1.23,1.89,1.19,4.27,2,6,0,1.22,1.85,4.69,3,6.49,1.29,1.87,1.83,7.38-.24,5.78-3.22C66.43,24.46,61.09,23.39,58.64,22.66Z"/><path class="cls-11" d="M52.91,15.15a41.19,41.19,0,0,0-12.44-.38c-6.85.82-15.12,4.07-17.29,11.33-1.33,4.46-.64,9.63-.29,14.19.17,2.3-.59,5,0,7.21.49,1.88,2.35,2.57,3.7.88.89-1.13,4.11-13.1,3.22-13.18,2.48.22,3.61-1.88,3.5-4.05,2,.48,4.42.09,5.13-2.09a5.06,5.06,0,0,0,3.25.8c1.13-.21,1.55-1.54,2.18-1.72.9-.26,2.32.91,3.41.71s1.76-1.08,2.38-2.1c1.65,2.6,5.43,2,7.37.19a3.91,3.91,0,0,0,6,1.91c-.93.61,1.35,2.52,2.53,3.21a2.06,2.06,0,0,0,.56.26c1.62.19,2.49-1,3.22-2.33,1.83-3.23.4-6.59-1.93-9.18C64.38,17.51,57.12,16,52.91,15.15Z"/><path class="cls-15" d="M69.21,24c.67-1,1.13-2.73,0-3.64s-4.23-.53-5,.49c.38-1.45.2-3.8-1.3-4.63-1.31-.72-3,1.55-3.62,2.59a7.16,7.16,0,0,0-2.91-4.88c-2.14-1.39-3.22,1.24-4.14,2.77a4.76,4.76,0,0,0-3.68-3.23C46.59,13.13,45.74,15.58,45,17c-1.43-1.36-2.21-3.37-4.46-3.37a3.15,3.15,0,0,0-3.1,1.5c-.6,1.12-.18,2.34-.61,3.47-1.79-.88-2.85-2.39-5-2.24-2.59.19-2.61,2.15-2.72,4.28-5.71-2.38-7.53,2.72-5.06,6.07-2.69.41-3.12,6.1,0,6.28-2.13,1.1-2.71,3.21-.1,4.33,2.95,1.27,3.7-2.46,2.93-4.57,2,.17,2.31-1.55,2.28-3.13,1.05.32,1.56.86,2.67.38s1.18-1.3,1.3-2.5c1,.49,1.93,1.46,3.14.9.9-.41,1.35-1.74,1.53-2.65a3.05,3.05,0,0,0,2.71,1.43c1.34-.17,1.65-1,2.16-2a3.74,3.74,0,0,0,3.52,1c1.58-.43,1.86-1.3,2.41-2.7,2.14,1.65,6.18,3.3,7.87,0,1.53,2.16,5.33,4.83,7.65,2,1.61,1.87,3.09,4.36,6,3.37C73.36,27.8,72.45,24.06,69.21,24Z"/><path class="cls-13" d="M31.79,50.1c.19,1,2.41.24,3.11.32-.52.69-2.3.9-3,1.41s-.61.83.32.7A17.14,17.14,0,0,0,36.15,51C37.66,49.36,32.54,49.79,31.79,50.1Z"/><path class="cls-13" d="M66.54,50a14.13,14.13,0,0,0,3.53,1.55c.82.12.93-.17.28-.71s-2.21-.71-2.68-1.4c.63-.08,3.15.67,3.32-.33C70.31,48.77,65.18,48.35,66.54,50Z"/><path class="cls-17" d="M69.75,53.19c-1.12-1.39-3.29-1.48-4.83-1.34-2,.18-4.62,1.19-2.61,4,1.07,1.47,9.15,1.83,8-1.69A3.19,3.19,0,0,0,69.75,53.19Z"/><path class="cls-17" d="M40.93,53.63c-1.2-1.21-3.31-1.14-4.8-.9-1.94.31-5.28,2.18-2.48,4.1,2,1.38,9.31.82,7.85-2.37A2.78,2.78,0,0,0,40.93,53.63Z"/><path class="cls-18" d="M39.81,46c-4.33-1.17-7.05,3.66-4.1,5.24a9.54,9.54,0,0,1,4.29.23C42.9,50.5,43,46.86,39.81,46Z"/><path class="cls-13" d="M52.37,55.81c-1.82,0-3.42-.8-5.13-.05s.26,3.19,5.09,3.07,6.15-2.32,5.25-3.14S54.4,55.79,52.37,55.81Z"/><path class="cls-17" d="M52.27,47c-3.43-.3-6.12,6.35-4.66,8.52,1,1.53,8.56,1.48,9.75-.31C57.79,54.56,55.54,47.28,52.27,47Z"/><path class="cls-19" d="M38.27,46.83c-1.76.37-.42,2.52,1.29,1.74C40.8,48,39.83,46.5,38.27,46.83Z"/><path class="cls-18" d="M66.44,45.09c-4.44-.58-6.5,4.57-3.36,5.74a9.61,9.61,0,0,1,4.28-.35C70.11,49.16,69.75,45.53,66.44,45.09Z"/><path class="cls-19" d="M65,46.13c-1.69.61-.08,2.56,1.51,1.56C67.69,47,66.53,45.6,65,46.13Z"/><g class="cls-20"><path class="cls-21" d="M48.31,67.64a17.29,17.29,0,0,0,15.1-5,.88.88,0,0,0-.2-1.33,1.14,1.14,0,0,0-1.48.12c-.34.38-8.3,9.06-20.76,1.39a1.14,1.14,0,0,0-1.47.22.9.9,0,0,0,.31,1.32A22.81,22.81,0,0,0,48.31,67.64Z"/></g><path class="cls-11" d="M40.53,39.4c-3.82-.5-9.88.83-9.31,2.84s2.73.39,5.64.46c3.09.06,5.54.93,6.81,0C45.81,41.17,43.7,39.82,40.53,39.4Z"/><path class="cls-11" d="M62.79,39.37c-2.83.4-4.82,1.71-3.1,3.23,1,.9,3.26,0,6,0,2.56-.05,4.29,1.53,5-.43S66.19,38.89,62.79,39.37Z"/></g></g></g></svg>