<svg xmlns="http://www.w3.org/2000/svg" xmlns:xlink="http://www.w3.org/1999/xlink" viewBox="0 0 66 66"><defs><style>.cls-1{fill:none;}.cls-2{clip-path:url(#clip-path);}.cls-3{fill:#fff;}.cls-4{fill:#8d573e;}.cls-5{fill:#ffbc82;}.cls-6{fill:url(#linear-gradient);}.cls-7{fill:#a1664c;}.cls-8{fill:#261b18;}.cls-9{fill:#bc551e;opacity:0.3;}.cls-10{fill:#57443a;}.cls-11{fill:#ff3b3b;}.cls-12{fill:#a80a0a;}.cls-13{fill:#fff9f0;}.cls-14{fill:#e8dac5;}.cls-15{fill:#ff7752;}.cls-16{fill:#d14f2e;opacity:0.4;}.cls-17{fill:#425361;}.cls-18{fill:#c3d5e3;}.cls-19{fill:#121b21;}</style><clipPath id="clip-path" transform="translate(0.01)"><circle class="cls-1" cx="33" cy="33" r="33"/></clipPath><linearGradient id="linear-gradient" x1="33.43" y1="50.02" x2="33.43" y2="52.61" gradientUnits="userSpaceOnUse"><stop offset="0" stop-color="#e88958"/><stop offset="0.34" stop-color="#f49d62"/><stop offset="0.69" stop-color="#fcab69"/><stop offset="1" stop-color="#ffb06b"/></linearGradient></defs><g id="Layer_2" data-name="Layer 2"><g id="avatars"><g class="cls-2"><rect class="cls-3" width="66" height="66"/><path class="cls-4" d="M25,59.93A32.4,32.4,0,0,1,24,63.47l3.4,1.18a36.12,36.12,0,0,0,1-3.93c.4-1.78.81-3.62,1.5-4l-1.63-3.21C26.13,54.66,25.56,57.22,25,59.93Z" transform="translate(0.01)"/><path class="cls-5" d="M24.32,63.57A11.18,11.18,0,0,1,23.17,66h3.36c.21-.46.42-.94.6-1.45Z" transform="translate(0.01)"/><path class="cls-4" d="M39.05,53.54l-1.64,3.21c.7.35,1.11,2.19,1.51,4a36.12,36.12,0,0,0,1,3.93l3.4-1.18a32.4,32.4,0,0,1-.93-3.54C41.83,57.22,41.26,54.66,39.05,53.54Z" transform="translate(0.01)"/><path class="cls-5" d="M40.26,64.55a14.64,14.64,0,0,0,.6,1.45h3.36a11.18,11.18,0,0,1-1.15-2.43Z" transform="translate(0.01)"/><path class="cls-4" d="M39.84,60.38c1.08-4,1.2-6.48-1.3-7.3S31.64,52,29,53.15c-2.12.91-2.8,2.38-1.35,6.85a18.29,18.29,0,0,1,1.14,6H38.84A19.77,19.77,0,0,1,39.84,60.38Z" transform="translate(0.01)"/><path class="cls-6" d="M36.58,48.91c.21-3.58-6-3.71-5.95.19,0,1.73.13,3-.23,3.6-1.93,3,7.64,2.86,6.15.18C36,52,36.49,50.48,36.58,48.91Z" transform="translate(0.01)"/><path class="cls-7" d="M36.23,57.42a10.41,10.41,0,0,1-5.67-.09c-1-.26-1.61.91-1.29,1.9.42,1.33,2.56,1.67,4.42,1.64,3.68,0,5.06-1.42,4.44-3C38,57.38,37.17,57.08,36.23,57.42Z" transform="translate(0.01)"/><path class="cls-8" d="M54.48,25c-1.3-1.13-2.12-1.82-2.24-3.54s.22-3.84-.61-5.52c-.75-1.52-2.49-1.84-3.91-2.52-1.59-.76-2.29-1.93-3.21-3.37a6.63,6.63,0,0,0-8.38-2c-.29-1.49-2.24-2.13-4.3-2.19A10.91,10.91,0,0,0,25.52,8.1c-2,1.49-3.49,3.55-5.36,5.24-3.6,3.25-11.25,6.91-9.07,13.1.79,2.26,2.22,2.9.91,5.36-1.21,2.27-1.84,3.54.06,5.62.74.81,1.54,1.2,1.57,2.4s-1,2-.9,3.16c.14,2.42,2,4.16,4.31,5.58,2.92,1.79,6.6,3.09,8.55,4.64C29.06,56,30.88,51.1,33.67,51c1.46-.05,2.16,1.34,4,2.86,3,2.37,7.25,4.85,9.62,1.15a4.19,4.19,0,0,1-2.62-1.13c3.88.06,7.42-1.21,7.12-5.68-.11-1.71-.76-2.35.49-3.72s3.73-1.35,3.85-3.58c.11-2-2.35-2.45-2.8-4.1s1-2.46,1.95-3.69C57.68,29.94,57.27,27.46,54.48,25Z" transform="translate(0.01)"/><path class="cls-5" d="M31.79,14.57c-8,1.34-13.89,12.15-12.61,22.4,1,7.61,7.8,15.81,16.07,15.32,9.94-.59,15-11.67,13.93-20.71C48,21.31,43.05,12.69,31.79,14.57Z" transform="translate(0.01)"/><path class="cls-9" d="M48.62,23.23a8,8,0,0,0-4.24-5.59c-2.92-1.21-7.81-3.69-11-2.66a25,25,0,0,0-9.88,6.58c-3.42,3.57-5.92,11.88-3.28,16.36a12.15,12.15,0,0,0,1-2.91c1.28-3.39,5-5.38,7.64-7.69.79,1.85,2.39,2.17,4.14,2.55a4.61,4.61,0,0,1,.29-3.33,7.27,7.27,0,0,1,1-1.58c.43-.53,3.23-2.83,2.78-3.55,1.4,2.24,4,3.63,6.34,4.7,3,1.38,3.63,3.5,5,6.32-.31-.64.54-3.48.54-4.35A24.61,24.61,0,0,0,48.62,23.23Z" transform="translate(0.01)"/><path class="cls-8" d="M50.24,22.1c-.4-1.93-3.22-3.92-4.32-5.64a15.15,15.15,0,0,0-5.32-5.35c-4-2.16-8.85-2-13.2-1.35-5.14.8-9.19,5.21-11.15,9.65-2.22,5.05-2.54,9.91-1.75,17,.41,3.68.89,8.43,3,11.6.64,1,2.33,2,1.66,3.36-.87,1.83-2.58-.41-2.29-.76a5.71,5.71,0,0,0-.38.54A4,4,0,0,0,17.53,54c2.5,2.55,5.68.92,6.88-2,1.58-3.9-1.95-5.91-3-9.41-1.1-3.82-1.32-7.28,1.06-10.64,2.23-3.16,3.9-5.71,7.56-7.44-1.07,2.27,1,6,3.8,4.89-2.35-.85-1.64-2.93-.51-4.53.4-.57,4.26-4.58,3.64-5.2a27.59,27.59,0,0,0,5,4.1c1.77,1.08,3.46,1.49,4.7,3.26a10.14,10.14,0,0,1,1.42,3c.24.79.07,2.16.5,2.83,1.16,1.81,3.61.1,3.88-1.48.37-2.14-1-3.25-1.95-5S50.56,23.68,50.24,22.1Z" transform="translate(0.01)"/><path class="cls-10" d="M32.08,24.74Z" transform="translate(0.01)"/><path class="cls-10" d="M46.46,14.87c-2.58-1.06-3.1-3.77-5.07-5.37-1.73-1.41-4.53-.84-5.92.75C34.72,8,32.28,7.5,30.81,7.66S28,9,27,10.21a23.68,23.68,0,0,1-6.66,5.44C18,17,14.85,19.41,14.72,22.37c-.05,1.14.66,4.14,1.73,4.78,1.23.74,2.85.3,4.13,0a24.91,24.91,0,0,0,12.07-8.33,33.12,33.12,0,0,0-.57,6c.69-1.32,1.82-2.37,2.5-3.71a12.09,12.09,0,0,0,.85-2.84,9.6,9.6,0,0,1,1.28-2.66c1.4,2.47,3.11,5.16,6.12,5.71,1,.19,2.08,0,3.09.19a7.51,7.51,0,0,1,2.33,1.17c2,1.13,2.3-1.92,2.42-3.48C50.91,15.93,48.86,15.85,46.46,14.87Z" transform="translate(0.01)"/><path class="cls-10" d="M17,40.33a1.78,1.78,0,0,0-1.1.33c-1.13.87-1.87,5.93,4,5.61A4.44,4.44,0,0,1,19,44.16C18.93,43,18.86,40.31,17,40.33Z" transform="translate(0.01)"/><path class="cls-10" d="M51.19,25.71a1.79,1.79,0,0,0-.95.65c-1.2,1.41.84,3.19,1.67,4a4.45,4.45,0,0,1,1.09,2C57,28,52.58,25.39,51.19,25.71Z" transform="translate(0.01)"/><path class="cls-10" d="M47.41,48.08c-.14,1.29.76,2.33-.09,3.7,1.55-.19,3.49-1.84,3-3.76C49.83,45.75,47.56,46.81,47.41,48.08Z" transform="translate(0.01)"/><path class="cls-10" d="M14.82,33.31c-1,1.69.32,3.86,1.72,4.52-.38-1.57.8-2.27,1.07-3.54S16,31.32,14.82,33.31Z" transform="translate(0.01)"/><path class="cls-10" d="M51.36,39.27c-.65,1.11-.25,2.43-1.59,3.33,1.49.46,3.94-.25,4.31-2.19C54.52,38.12,52,38.16,51.36,39.27Z" transform="translate(0.01)"/><path class="cls-11" d="M27,40.63c4.26,6.11,6.77,7.16,9.88,7.2,3.91.05,5.12-2.59,5.63-4.55a11.38,11.38,0,0,1,2.83-3.54c-2.4.68-4.81.49-8.46.77C33.81,40.74,29.4,41.82,27,40.63Z" transform="translate(0.01)"/><path class="cls-12" d="M28.84,41.64a9.08,9.08,0,0,0,7.43,4c3.11-.08,5.11-1.17,5.62-2.63a4,4,0,0,1,1.86-2.22A32,32,0,0,1,28.84,41.64Z" transform="translate(0.01)"/><path class="cls-13" d="M30.66,41.94a2.33,2.33,0,0,0,1.95,1.69,16.64,16.64,0,0,0,7.06,0c1.65-.33,2.37-2.38,2.37-2.38A34.12,34.12,0,0,1,30.66,41.94Z" transform="translate(0.01)"/><path class="cls-13" d="M37.43,43.88c-2.21.18-4.06.11-5.2-.54-.82-.46-.86.08-.68.41,0,0,.8,1.72,4.49,2s5.29-2,4.87-2.3S39.48,43.71,37.43,43.88Z" transform="translate(0.01)"/><path class="cls-14" d="M30.66,41.94a2,2,0,0,0,.48.88s8.26-1.06,10.27-.44A3.9,3.9,0,0,0,42,41.23,39.73,39.73,0,0,1,30.66,41.94Z" transform="translate(0.01)"/><path class="cls-14" d="M32.9,43.57c3.05,1.62,6.55,0,6.55,0A12,12,0,0,1,32.9,43.57Z" transform="translate(0.01)"/><path class="cls-15" d="M47.19,36.94a3.14,3.14,0,0,0-2.63-1.17c-1.16-.05-2.75.33-1.86,2.1.47.94,5,1.8,4.69-.35A1.54,1.54,0,0,0,47.19,36.94Z" transform="translate(0.01)"/><path class="cls-15" d="M28,36.88c-.68-.89-2-.86-3-.72-1.23.2-2.84,1-1.61,2.74.65,1,5.61.9,4.88-1.41A2.06,2.06,0,0,0,28,36.88Z" transform="translate(0.01)"/><path class="cls-8" d="M41.08,29a61.16,61.16,0,0,0,7.53.55C47.49,27.68,42.79,27.37,41.08,29Z" transform="translate(0.01)"/><path class="cls-16" d="M36.32,37.72c-.73,0-1-.28-1.54,0s.63,1.26,1.54,1.17,1.85-1,1.57-1.28S37.14,37.69,36.32,37.72Z" transform="translate(0.01)"/><path class="cls-8" d="M21.93,29.62c4-.31,5.41-.27,8.2-.62C28.47,27.26,23.55,27.89,21.93,29.62Z" transform="translate(0.01)"/><path class="cls-17" d="M26.64,31.07c-2.15-.75-3.15,3.19-1.64,4.32a2.9,2.9,0,0,1,2.07,0C28.4,34.53,28.24,31.63,26.64,31.07Z" transform="translate(0.01)"/><path class="cls-18" d="M26.27,32.5c-.88.16-.51,2,.4,1.47C27.33,33.63,27.05,32.36,26.27,32.5Z" transform="translate(0.01)"/><path class="cls-17" d="M45.68,30.89c-2.14-1.37-4,3.63-1.64,4.35a2.6,2.6,0,0,1,1.88-.3C46.74,33.88,46.83,31.62,45.68,30.89Z" transform="translate(0.01)"/><path class="cls-18" d="M44.83,32.09c-.84,0-.72,1.9.19,1.56C45.68,33.4,45.58,32.08,44.83,32.09Z" transform="translate(0.01)"/><path class="cls-19" d="M45.74,30.78c-2-.75-2.6,1.57-2.6,1.57a1.82,1.82,0,0,1,2.28-.43,4.06,4.06,0,0,0,5-.36C48,32.37,46.79,31.19,45.74,30.78Z" transform="translate(0.01)"/><path class="cls-19" d="M25.21,31.21a6.32,6.32,0,0,1-5,1,4.45,4.45,0,0,0,5.22.07,2,2,0,0,1,2.38.13S27.23,30.12,25.21,31.21Z" transform="translate(0.01)"/></g></g></g></svg>