<svg xmlns="http://www.w3.org/2000/svg" xmlns:xlink="http://www.w3.org/1999/xlink" viewBox="0 0 96 96"><defs><style>.cls-1{fill:none;}.cls-2{clip-path:url(#clip-path);}.cls-3{fill:#fea470;}.cls-4{fill:#9c552c;}.cls-5{fill:#c4bab1;}.cls-6{fill:#968c83;}.cls-7{fill:#854422;}.cls-8{fill:#261b18;}.cls-10,.cls-9{fill:#66241b;}.cls-9{opacity:0.4;}.cls-10,.cls-14,.cls-22{opacity:0.7;}.cls-11{fill:#45362e;}.cls-12{fill:#70442d;}.cls-13{fill:#d17642;}.cls-14{fill:#f0ded1;}.cls-15{opacity:0.8;}.cls-16{fill:#611f16;}.cls-17{fill:#2b221c;}.cls-18{opacity:0.2;}.cls-19{fill:#3a3a4a;}.cls-20,.cls-21,.cls-22{fill:#fff;}.cls-20{opacity:0.3;}.cls-23{fill:#c1c5c9;}</style><clipPath id="clip-path" transform="translate(0)"><circle class="cls-1" cx="48" cy="48" r="48"/></clipPath></defs><g id="Layer_2" data-name="Layer 2"><g id="Layer_4" data-name="Layer 4"><g class="cls-2"><rect class="cls-3" width="96" height="96"/><path class="cls-4" d="M39.62,85.91a3.07,3.07,0,1,0-4.65-4C30,87.69,28.35,92.42,28.2,96h6.19C34.61,93.16,36.42,89.62,39.62,85.91Z" transform="translate(0)"/><path class="cls-4" d="M57.5,81.57a3.08,3.08,0,0,0-.31,4.34c3.2,3.71,5,7.25,5.23,10.09h6.19c-.15-3.58-1.76-8.31-6.77-14.11A3.08,3.08,0,0,0,57.5,81.57Z" transform="translate(0)"/><path class="cls-5" d="M60.45,89.66a15.91,15.91,0,0,1,1.64-7.29c.24-.45-1.47-4.25-14-4.19-12.17.06-13.65,4-13.49,4.43a23.39,23.39,0,0,1,1.26,7.11c0,2.34.14,4.41.27,6.28H60.19C60.32,94.12,60.45,92,60.45,89.66Z" transform="translate(0)"/><path class="cls-6" d="M39.84,79.38C37.07,83.45,48.13,88,48.13,88s9.79-4.26,8.74-8C55.63,75.7,42.33,75.71,39.84,79.38Z" transform="translate(0)"/><path class="cls-7" d="M48.17,71.1c-2.82,0-6.8,1.69-7.08,6.15-.13,2.07.17,3.28,1.21,4.43C44,83.52,46,85,48.17,85.05s4.2-1.53,5.87-3.37c1-1.15,1.34-2.36,1.21-4.43C55,72.79,51,71.1,48.17,71.1Z" transform="translate(0)"/><path class="cls-8" d="M63.87,13.85C52.22,10.31,32,12.24,24.86,22a12,12,0,0,0-2.44,9.47,6.5,6.5,0,0,0,3.12,4.7c5.67,2.93,31,7.72,37.41,5.79,3.85-1.15,7.75-2,6.48-6.75,4.47,1,7.65-3.76,3-6.35C81.46,27.79,77.61,18,63.87,13.85Z" transform="translate(0)"/><path class="cls-4" d="M26.2,56C27.77,67.48,36.62,80.08,50,79.13c13.61-1,20.38-17.85,18.62-32-1.91-15.36-9.18-28.16-25.1-25C32.13,24.32,24.12,40.67,26.2,56Z" transform="translate(0)"/><path class="cls-9" d="M34.87,35c-1.61.83-5.85,2.88-8-.54-1-1.61-.27-4,.37-5.87.78-2.25,3.34-3.5,5.43-4.42,3.8-1.67,8.22-1.45,12.29-1.38A51.7,51.7,0,0,1,58.48,24.9c2.9.84,8.35,1.59,9.36,4.87,1.27,4.14-3.16,4.68-6.24,4.68C54.21,34.47,38.35,33.23,34.87,35Z" transform="translate(0)"/><path class="cls-4" d="M23.45,60.93a10.85,10.85,0,0,0,4.51.49l.09-.14c.67-1.05-.26-7-.61-8.11-.86-2.82-2.52-4.3-5.2-3.56C16.66,51.15,18.89,59.3,23.45,60.93Z" transform="translate(0)"/><path class="cls-10" d="M25.62,58.92c2-1.28.11-5.6-1.42-6.31-1.26-.58-4.39.46-2.92,2.92.78-2.28,2.16-.78,1.95.83-.14,1.08-1.3,1.1-.15,2.49C23.71,59.6,25,59.32,25.62,58.92Z" transform="translate(0)"/><path class="cls-8" d="M61.5,17.31a20.3,20.3,0,0,0-8.59-1.74c-2.29,0-4.55-.48-6.86-.46a46.5,46.5,0,0,0-7.54.72,27.6,27.6,0,0,0-8.59,2.61c-2.27,1.23-3.17,4.12-4.22,6.31a9.55,9.55,0,0,0-.47,3.41,54.55,54.55,0,0,0-.07,5.72c.16,3.35,4.67,3.87,6.57,1.46,1.62-2.05,3.91-2.58,6.51-2.68,4.31-.16,21.2-.95,25.17.41,2.18.74,5.06,1.87,5.5-1.59.24-1.89-.52-4.35-1.15-6.14a15.37,15.37,0,0,0-3.49-6.14A10.6,10.6,0,0,0,61.5,17.31Z" transform="translate(0)"/><path class="cls-11" d="M29.3,23.79c-2.12-.94-.44-3.46,3.25-5.23a38.39,38.39,0,0,1,15.14-4c7.32-.35,14.68.34,21.41,3.41,5.79,2.65,2.34,7.5-2.94,4.94C67.87,28.56,34.88,26.28,29.3,23.79Z" transform="translate(0)"/><path class="cls-12" d="M30.72,36.23c-1.28,7.15-2.29,10.63-1.36,17.1,0,0-3.29-3.59-5.95-3.9-.37-1-1-12.07.57-14.56C26.47,35.43,28.22,36.19,30.72,36.23Z" transform="translate(0)"/><path class="cls-13" d="M68.91,53.85a2.63,2.63,0,0,1,.38.85c.81,3.15-6.33,2.08-7.17.7-1.58-2.57.81-3.19,2.61-3.16C66.1,52.27,68,52.55,68.91,53.85Z" transform="translate(0)"/><path class="cls-13" d="M39.2,53.09a2.72,2.72,0,0,1,.52.84c1.27,3.16-6.3,3-7.36,1.7-2-2.46.41-3.43,2.27-3.64C36.07,51.83,38.1,51.86,39.2,53.09Z" transform="translate(0)"/><path class="cls-8" d="M38.39,51.14a4.26,4.26,0,0,0-2.92-.25c-2-1.71-.15-6.93,2.8-5.67C40.46,46.17,40.37,50.12,38.39,51.14Z" transform="translate(0)"/><path class="cls-10" d="M55.78,55.05c-.74-.9-1.77.1-3.68.12-1.73,0-2.41-.76-3.61,0s.51,3,3.56,2.9S56.41,55.83,55.78,55.05Z" transform="translate(0)"/><path class="cls-13" d="M51.65,48.7c-3.24-.28-3.49,6.56-2.75,7.14,1.82,1.44,5.61.42,6.71-.73C56.05,54.66,54.73,49,51.65,48.7Z" transform="translate(0)"/><path class="cls-8" d="M66.47,45.57c1.61,1,1.59,4.28.39,5.61a3.89,3.89,0,0,0-3.12,0C61.27,49.55,63.47,43.77,66.47,45.57Z" transform="translate(0)"/><path class="cls-14" d="M36.85,46.51c1.06-.36,1.72,1.27.88,1.88C36.56,49.24,35.65,46.91,36.85,46.51Z" transform="translate(0)"/><path class="cls-14" d="M64.93,46.57c1-.21,1.47,1.42.59,1.9C64.31,49.12,63.75,46.8,64.93,46.57Z" transform="translate(0)"/><g class="cls-15"><path class="cls-16" d="M66.08,58.83a3.37,3.37,0,0,1-4.29-1.21,2.43,2.43,0,0,0,.55,2.48c-1.69,4.24-6.32,7-11.71,7s-9.45-2.73-11.23-6.32a2.27,2.27,0,0,0,0-2.6,3,3,0,0,1-3.93,1.57,2.91,2.91,0,0,0,2.25,1.68c2,4.09,6.72,7.15,12.52,7.34h.5c6.21.05,11.47-3.12,13.41-8A2.33,2.33,0,0,0,66.08,58.83Z" transform="translate(0)"/></g><path class="cls-17" d="M45.26,39.68a1.57,1.57,0,0,1,1.23,2.49c-.57,1-3.32.21-7-.1-4-.33-6.63-.11-6.89-.87s2.17-1.83,5.75-2.05A27,27,0,0,1,45.26,39.68Z" transform="translate(0)"/><path class="cls-17" d="M58.83,39.66a1.61,1.61,0,0,0-1.2,2.46c.45,1,2.93.28,6.25.06,3.6-.24,5.9,0,6.16-.71s-1.84-1.88-5-2.18A21.49,21.49,0,0,0,58.83,39.66Z" transform="translate(0)"/><path class="cls-18" d="M58.37,54.06a5.86,5.86,0,0,1-1.5-1.71,5.26,5.26,0,0,1-.2-4.52c.78-2,3-2.13,4.88-2.24,2.25-.14,4.52,0,6.76-.19a22.88,22.88,0,0,1,3,.15c1.28.07,4-.27,2.58-2.16s-4.28-1.94-6.36-1.89a31.57,31.57,0,0,0-6.35.83c-1.77.42-3.85.58-5.5,1.38s-2.16,1.24-4,1.12c-3.24-.22-5.91-2.3-9.14-2.72S35.77,41.2,32.44,42c-.87.22-3.51,1.14-1.77,2.11s4.28.72,6.16.84c.87.06,1.74.1,2.61.2,3.07.36,7.81,0,7.47,3.89-.24,2.63-2,5.29-4.16,5.74a28.25,28.25,0,0,1-6.35.49,10.73,10.73,0,0,1-4.55-1.1c-.41-.2-1.62-1-2-.47-.7.93,1.76,2.56,2.41,2.87a14.83,14.83,0,0,0,4.69,1.17c4,.53,8.13.42,10.49-3.21,1.37-2.11,2.09-4.6,3.36-6.77,2.08-3.54,2.9,1.36,3.47,3.51a11.24,11.24,0,0,0,1.52,3.41,8.11,8.11,0,0,0,5.91,3,8.89,8.89,0,0,0,3.9-.42c.75-.29,1.08-1.14.19-1.5a7.12,7.12,0,0,0-2-.13,15.93,15.93,0,0,1-2.48-.26A7.4,7.4,0,0,1,58.37,54.06Z" transform="translate(0)"/><path class="cls-19" d="M24.14,44.7a4.6,4.6,0,0,0,2.11.63c.24,1.83.3,6.59,3.77,9.47,2.9,2.41,12.13,2.82,15,1.28,3.48-1.91,4.88-5.26,5.4-8.55C51.63,39.48,32.7,41.35,29,41.6c-2.65.18-4.93-.49-5.54.07C22.64,42.39,24.14,44.7,24.14,44.7Zm4.84.56c3.29-2.13,15.91-1.79,18.9.34,1.45,1-.2,6.51-2.8,8.32-3.42,2.38-12.4,1.62-14.82-1.18C28.39,50.59,27.91,46,29,45.26Z" transform="translate(0)"/><path class="cls-19" d="M77.89,41.58c-.55-.55-2.61.13-5,0-3.37-.21-20.47-1.9-19.34,6.14.46,3.27,1.72,6.62,4.87,8.49,2.54,1.51,10.88,1,13.5-1.42,3.15-2.92,3.2-7.67,3.42-9.51a3.92,3.92,0,0,0,1.9-.64S78.6,42.29,77.89,41.58ZM71.71,52.71C69.52,55.53,61.4,56.38,58.31,54c-2.34-1.78-3.83-7.24-2.52-8.29,2.7-2.15,14.11-2.62,17.08-.52C73.84,45.91,73.4,50.54,71.71,52.71Z" transform="translate(0)"/><path class="cls-20" d="M58.05,45.16c2.12-.76,12.8-1,14,.12.83.84-2.29,1.94-3.72,2.12a25.52,25.52,0,0,1-8.11-.2C59.46,47.05,56.14,45.85,58.05,45.16Z" transform="translate(0)"/><path class="cls-21" d="M66.41,45.21c2.18-.21,5.91.29,5.47.94S65.45,47,65,46C64.71,45.56,65.39,45.31,66.41,45.21Z" transform="translate(0)"/><path class="cls-22" d="M59.78,52c1.36.09,3.59.93,3.25,1.4s-4-.11-4.23-.91C58.7,52.08,59.14,52,59.78,52Z" transform="translate(0)"/><path class="cls-22" d="M32.29,52c1.42.18,3.71,1.16,3.32,1.6s-4.24-.37-4.39-1.18C31.14,52,31.62,51.93,32.29,52Z" transform="translate(0)"/><path class="cls-20" d="M31.13,45c1.18-1.08,13-.6,15.34.16,2.16.69-1.4,1.76-2.17,1.89a32.3,32.3,0,0,1-8.9,0C33.82,46.9,30.29,45.8,31.13,45Z" transform="translate(0)"/><path class="cls-21" d="M41.34,44.67c2.3-.15,6.22.45,5.73,1.09s-6.79.65-7.28-.3C39.54,45,40.26,44.75,41.34,44.67Z" transform="translate(0)"/><path class="cls-19" d="M47.68,43a14,14,0,0,0,8.49,0c2.6-.73-.09,1.3-.57,1.83s-.73,6.42-1.83,4.15S51,46.77,50,49.19s-.45-1.91-.72-3.26S45.06,42.16,47.68,43Z" transform="translate(0)"/><path class="cls-23" d="M47.49,44c-2.9-2.22-7.76-2.57-17.25-1.65C37.39,42.46,43.11,42.47,47.49,44Z" transform="translate(0)"/><path class="cls-23" d="M57,43.79c2.49-2.07,6.55-1.88,15.28-1.65C65.71,42.66,60.85,42.23,57,43.79Z" transform="translate(0)"/></g></g></g></svg>