<svg xmlns="http://www.w3.org/2000/svg" xmlns:xlink="http://www.w3.org/1999/xlink" viewBox="0 0 66 66"><defs><style>.cls-1{fill:none;}.cls-2{clip-path:url(#clip-path);}.cls-21,.cls-22,.cls-3{fill:#fff;}.cls-4{fill:#e62628;}.cls-5{fill:url(#linear-gradient);}.cls-6{fill:#ff3b3b;}.cls-7{fill:#261b18;}.cls-8{fill:#ffbc82;}.cls-9{fill:#bf3c1b;}.cls-19,.cls-21,.cls-9{opacity:0.3;}.cls-10{fill:#57443a;}.cls-11{fill:#ffc48f;}.cls-12{fill:#b54319;opacity:0.5;}.cls-13{fill:#425361;}.cls-14{fill:#c3d5e3;}.cls-15{fill:#121b21;}.cls-16{fill:#a80a0a;}.cls-17{fill:#fff9f0;}.cls-18{fill:#e8dac5;}.cls-19{fill:#b54d26;}.cls-20{fill:#3a3a4a;}.cls-22{opacity:0.7;}.cls-23{fill:#c1c5c9;}</style><clipPath id="clip-path"><circle class="cls-1" cx="33" cy="33" r="33"/></clipPath><linearGradient id="linear-gradient" x1="33.19" y1="52.48" x2="33.19" y2="55.81" gradientUnits="userSpaceOnUse"><stop offset="0" stop-color="#e88958"/><stop offset="0.34" stop-color="#f49d62"/><stop offset="0.69" stop-color="#fcab69"/><stop offset="1" stop-color="#ffb06b"/></linearGradient></defs><g id="Layer_2" data-name="Layer 2"><g id="avatars"><g class="cls-2"><rect class="cls-3" width="66" height="66"/><path class="cls-4" d="M39.2,54.93l-1.64,3.21c.52.26,1,2.59,1.25,3.85a27.89,27.89,0,0,0,1,4h3.92a16.94,16.94,0,0,1-1.43-4.72C41.78,58.55,41.26,56,39.2,54.93Z"/><path class="cls-4" d="M29.72,58.14l-1.64-3.21c-2.21,1.12-2.78,3.68-3.38,6.39A23,23,0,0,1,23.29,66h3.89a35.43,35.43,0,0,0,1-3.9C28.61,60.33,29,58.49,29.72,58.14Z"/><path class="cls-4" d="M39.58,61.77c1.08-4,1.2-6.49-1.3-7.3s-6.9-1.07-9.55.07c-2.12.9-2.8,2.37-1.36,6.85A27.75,27.75,0,0,1,28.53,66H38.69A32.13,32.13,0,0,1,39.58,61.77Z"/><path class="cls-5" d="M36.32,50.29c.21-3.57-6-3.7-5.95.2,0,1.72.13,3-.22,3.6-1.24,1.93,3.41,4.69,3.41,4.69s3.62-2.91,2.73-4.51C35.77,53.34,36.23,51.87,36.32,50.29Z"/><path class="cls-6" d="M36.08,59.14a10.19,10.19,0,0,1-5.66-.09c-1-.26-1.61.91-1.3,1.91.42,1.32,2.56,1.67,4.43,1.64,3.68-.06,5.05-1.43,4.43-3.05C37.81,59.11,37,58.81,36.08,59.14Z"/><path class="cls-7" d="M54.22,26.41c-1.3-1.13-2.12-1.82-2.24-3.55s.22-3.83-.61-5.51c-.75-1.52-2.49-1.84-3.9-2.52-1.6-.76-2.29-1.93-3.22-3.37a6.61,6.61,0,0,0-8.38-2c-.29-1.5-2.24-2.13-4.3-2.19a10.93,10.93,0,0,0-6.31,2.26c-2,1.49-3.49,3.55-5.35,5.23C16.3,18,8.65,21.64,10.83,27.83c.8,2.26,2.22,2.89.92,5.35-1.21,2.28-1.84,3.55.05,5.63.74.81,1.54,1.2,1.57,2.39s-1,2-.9,3.17c.14,2.42,2,4.15,4.31,5.58,2.93,1.79,6.6,3.09,8.55,4.64,3.47,2.75,5.3-2.11,8.08-2.21,1.46-.06,2.16,1.34,4.05,2.85,3,2.38,7.25,4.86,9.63,1.15a4.1,4.1,0,0,1-2.62-1.12c3.88.06,7.41-1.21,7.12-5.69-.11-1.7-.77-2.34.48-3.71s3.73-1.35,3.85-3.58c.11-2-2.35-2.46-2.8-4.11s1-2.45,2-3.69C57.42,31.32,57,28.85,54.22,26.41Z"/><path class="cls-8" d="M31.53,16c-8,1.34-13.89,12.14-12.6,22.4C19.88,46,26.72,54.17,35,53.68,44.93,53.09,50,42,48.92,33,47.76,22.7,42.79,14.08,31.53,16Z"/><path class="cls-9" d="M48.36,24.62A7.94,7.94,0,0,0,44.12,19c-2.92-1.22-7.81-3.69-10.95-2.67A25.21,25.21,0,0,0,23.29,23C19.87,26.52,17.37,34.82,20,39.31a12.3,12.3,0,0,0,1-2.91C22.27,33,26,31,28.64,28.71c.78,1.85,2.39,2.17,4.13,2.55a4.66,4.66,0,0,1,.29-3.33,7.73,7.73,0,0,1,1-1.59c.43-.53,3.23-2.82,2.78-3.54,1.4,2.23,4,3.63,6.34,4.7,3,1.38,3.63,3.49,5,6.31-.31-.63.54-3.47.54-4.35A24.51,24.51,0,0,0,48.36,24.62Z"/><path class="cls-7" d="M50,23.49c-.4-1.93-3.21-3.93-4.32-5.64a15,15,0,0,0-5.32-5.35c-3.94-2.17-8.85-2-13.2-1.35C22,11.94,18,16.36,16,20.8c-2.22,5-2.55,9.91-1.76,17,.41,3.69.89,8.44,3,11.61.64,1,2.33,2,1.67,3.36-.88,1.83-2.59-.41-2.29-.76a4.33,4.33,0,0,0-.38.54,4,4,0,0,0,1.06,2.78c2.51,2.56,5.69.92,6.88-2,1.58-3.9-1.95-5.91-3-9.41-1.1-3.82-1.32-7.28,1.06-10.64,2.23-3.16,3.91-5.71,7.56-7.44-1.06,2.27,1,6,3.8,4.89-2.34-.85-1.64-2.93-.51-4.53.4-.57,4.26-4.58,3.64-5.21a27.23,27.23,0,0,0,5,4.11c1.78,1.08,3.46,1.49,4.7,3.26a10.18,10.18,0,0,1,1.43,3c.23.78.06,2.16.49,2.82,1.16,1.82,3.61.11,3.88-1.48.38-2.14-1-3.24-1.94-5S50.3,25.06,50,23.49Z"/><path class="cls-10" d="M31.82,26.13h0Z"/><path class="cls-10" d="M46.2,16.26c-2.58-1.06-3.1-3.77-5.07-5.37a4.49,4.49,0,0,0-5.92.75C34.46,9.34,32,8.89,30.56,9s-2.83,1.39-3.82,2.55A23.5,23.5,0,0,1,20.09,17c-2.34,1.37-5.5,3.75-5.63,6.71-.05,1.15.66,4.15,1.73,4.79,1.23.73,2.85.3,4.13,0a24.91,24.91,0,0,0,12.07-8.33,34.09,34.09,0,0,0-.57,5.95c.7-1.31,1.82-2.37,2.51-3.7a12.29,12.29,0,0,0,.84-2.85,9.62,9.62,0,0,1,1.29-2.66c1.39,2.48,3.1,5.16,6.11,5.72,1,.18,2.08,0,3.09.19A7.2,7.2,0,0,1,48,24c2,1.13,2.3-1.92,2.42-3.48C50.65,17.32,48.6,17.24,46.2,16.26Z"/><path class="cls-10" d="M16.75,41.72a1.79,1.79,0,0,0-1.11.33c-1.12.87-1.87,5.92,4,5.61a4.35,4.35,0,0,1-.86-2.11C18.67,44.41,18.6,41.7,16.75,41.72Z"/><path class="cls-10" d="M50.94,27.1a1.84,1.84,0,0,0-1,.64c-1.19,1.42.85,3.2,1.67,4a4.42,4.42,0,0,1,1.09,2C56.7,29.42,52.32,26.78,50.94,27.1Z"/><path class="cls-10" d="M47.16,49.47c-.15,1.29.75,2.33-.1,3.7,1.55-.19,3.49-1.84,3-3.76C49.57,47.14,47.3,48.19,47.16,49.47Z"/><path class="cls-10" d="M14.56,34.7c-1,1.68.32,3.85,1.73,4.52-.38-1.57.79-2.28,1.06-3.55S15.78,32.7,14.56,34.7Z"/><path class="cls-10" d="M51.11,40.65c-.66,1.12-.26,2.43-1.6,3.34,1.49.46,3.94-.26,4.31-2.19C54.27,39.51,51.76,39.55,51.11,40.65Z"/><path class="cls-11" d="M45,35.43c-1.18-.19-2.81,0-2,1.82.42,1,5,2.38,4.77.23a1.56,1.56,0,0,0-.17-.59A3.41,3.41,0,0,0,45,35.43Z"/><path class="cls-11" d="M29.35,36a3.61,3.61,0,0,0-3.11-.14c-1.19.37-2.63,1.31-1,2.66.85.72,5.8-.14,4.57-2A1.84,1.84,0,0,0,29.35,36Z"/><path class="cls-12" d="M36.45,37.23c-1-.07-1-.6-1.67-.19s-.18,1.94,1.55,2,2.54-1.2,2.21-1.73S37.53,37.3,36.45,37.23Z"/><path class="cls-11" d="M36.2,34.38c-.8,0-2,2.72-1.59,3.13,1,1,3.17.53,3.83-.16C38.71,37.08,37.11,34.37,36.2,34.38Z"/><path class="cls-13" d="M46,31.27c-2.7-1.15-5.16,2.18-3.22,3.91a3.56,3.56,0,0,1,3.81-.12C47.72,34.26,47.47,31.89,46,31.27Z"/><path class="cls-14" d="M46.32,33.14c-.74.23-.39,1.65.37,1.15C47.24,33.93,47,32.94,46.32,33.14Z"/><path class="cls-14" d="M43.79,31.66c-1.25.4-.66,2.81.62,2C45.34,33,44.91,31.32,43.79,31.66Z"/><path class="cls-13" d="M25.91,31.49c-1.42.66-1.61,3-.48,3.8a3.58,3.58,0,0,1,3.82,0C31.14,33.51,28.58,30.26,25.91,31.49Z"/><path class="cls-14" d="M25.67,33.37c-.67-.19-.89.82-.34,1.16C26.11,35,26.41,33.58,25.67,33.37Z"/><path class="cls-14" d="M28.16,31.82c-1.13-.32-1.52,1.39-.57,2C28.9,34.6,29.42,32.18,28.16,31.82Z"/><path class="cls-7" d="M30.19,27.81a14.58,14.58,0,0,0-4-.07,6.81,6.81,0,0,0-2.57.87c-.23.16-.53.43-.54.7.22.05.4-.08.6-.12a12.62,12.62,0,0,1,3.13-.09c.81,0,1.61.16,2.42.19.54,0,1.27.18,1.6-.33S30.91,27.89,30.19,27.81Z"/><path class="cls-7" d="M47.79,28.34a6.41,6.41,0,0,0-2.49-.81,14.6,14.6,0,0,0-3.85.12c-.7.09-1.08.52-.68,1.12s1,.32,1.56.3c.79,0,1.56-.16,2.35-.22a12.37,12.37,0,0,1,3,0c.2,0,.37.15.58.1C48.3,28.75,48,28.48,47.79,28.34Z"/><path class="cls-15" d="M45.48,30.81a2.79,2.79,0,0,0-3.19,2,2.53,2.53,0,0,1,2.82-.86c3.67,1.57,5.61-1,5.61-1C48.1,32.13,46.76,31,45.48,30.81Z"/><path class="cls-15" d="M26.54,31.08c-1.27.24-2.6,1.35-5.23.15,0,0,2,2.58,5.61,1a2.52,2.52,0,0,1,2.83.83A2.79,2.79,0,0,0,26.54,31.08Z"/><path class="cls-6" d="M25.84,40.76c4.25,6.24,6.83,7.37,10.08,7.51,4.08.18,5.43-2.43,6-4.37A11.53,11.53,0,0,1,45,40.45c-2.53.6-5,.34-8.86.5C33,41.09,28.36,42,25.84,40.76Z"/><path class="cls-16" d="M27.78,41.83a9.48,9.48,0,0,0,7.62,4.23c3.25,0,5.37-1,6-2.45a4.15,4.15,0,0,1,2-2.16A34.78,34.78,0,0,1,27.78,41.83Z"/><path class="cls-17" d="M29.66,42.19s.17,1.27,2,1.75a18,18,0,0,0,7.37.2,3.92,3.92,0,0,0,2.55-2.3A37.57,37.57,0,0,1,29.66,42.19Z"/><path class="cls-17" d="M36.66,44.34c-2.31.11-4.24,0-5.41-.7-.83-.49-.9,0-.71.38,0,0,.77,1.75,4.62,2.1s5.58-1.78,5.15-2.14S38.81,44.23,36.66,44.34Z"/><path class="cls-18" d="M29.66,42.19a2,2,0,0,0,.47.89s8.66-.8,10.74-.11a4.08,4.08,0,0,0,.69-1.13A43.16,43.16,0,0,1,29.66,42.19Z"/><path class="cls-18" d="M32,43.89c3.13,1.71,6.83.19,6.83.19A13.17,13.17,0,0,1,32,43.89Z"/><path class="cls-19" d="M46.9,28.92a21,21,0,0,0-4.31.68,18.25,18.25,0,0,0-3.73,1,4.37,4.37,0,0,1-2.68.83C34,31.38,32.11,30,29.9,29.78A18.46,18.46,0,0,0,23,29.9c-.58.17-2.36.84-1.16,1.47s2.93.42,4.21.47c.6,0,1.19,0,1.78.09,2.1.19,5.33-.1,5.17,2.52-.11,1.79-1.27,3.64-2.73,4a18.55,18.55,0,0,1-4.32.45,7.34,7.34,0,0,1-3.13-.67c-.28-.13-1.12-.66-1.4-.28-.46.64,1.25,1.71,1.7,1.92a10.61,10.61,0,0,0,3.21.71c2.74.29,5.56.14,7.1-2.38.9-1.46,1.34-3.17,2.17-4.67,1.36-2.45,2,.87,2.44,2.32a7.38,7.38,0,0,0,1.09,2.3,5.57,5.57,0,0,0,4.08,1.95,6.16,6.16,0,0,0,2.66-.36c.5-.21.71-.8.1-1a5,5,0,0,0-1.34,0,12,12,0,0,1-1.7-.13,5,5,0,0,1-2-.87,3.69,3.69,0,0,1-1.06-1.13,3.65,3.65,0,0,1-.22-3.08c.5-1.39,2-1.51,3.29-1.62,1.53-.13,3.08-.11,4.61-.25a17.2,17.2,0,0,1,2,.05c.87,0,2.76-.25,1.72-1.52S48.32,28.84,46.9,28.92Z"/><path class="cls-20" d="M20.81,28.94C19,29,17.46,28.5,17,28.87s.42,2.09.42,2.09a3.19,3.19,0,0,0,1.42.47c.12,1.25.06,4.49,2.37,6.53,1.93,1.71,8.21,2.18,10.16,1.2a7.61,7.61,0,0,0,3.87-5.71C36.31,28,23.36,28.85,20.81,28.94Zm10.73,8.74c-2.39,1.55-8.5.84-10.09-1.11-1.23-1.51-1.45-4.68-.7-5.13,2.28-1.38,10.88-.88,12.88.63C34.59,32.81,33.34,36.51,31.54,37.68Z"/><path class="cls-20" d="M50.44,28.37c-2.3,0-14-.38-12.89,5C38,35.62,39,37.84,41.25,39c1.79.91,7.45.2,9.13-1.57,2-2.13,1.83-5.37,1.9-6.62a2.62,2.62,0,0,0,1.26-.53s.82-1.65.31-2.1S52.08,28.36,50.44,28.37ZM50.14,36c-1.36,2-6.85,3-9.06,1.49C39.41,36.4,38.15,32.74,39,32c1.75-1.58,9.49-2.41,11.6-1.11C51.28,31.28,51.2,34.45,50.14,36Z"/><path class="cls-21" d="M40.51,31.48c-1.28.55,1,1.22,1.54,1.29a17.2,17.2,0,0,0,5.52-.23c1-.18,3-1.07,2.44-1.6C49.17,30.19,41.91,30.87,40.51,31.48Z"/><path class="cls-3" d="M46.2,31.14c-.69.11-1.14.31-1,.62.37.62,4.44.25,4.71-.22S47.67,30.9,46.2,31.14Z"/><path class="cls-22" d="M41.82,36.22c-.44,0-.74.07-.66.35.15.54,2.67.87,2.9.54S42.75,36.26,41.82,36.22Z"/><path class="cls-22" d="M22.86,36.11c-.46-.07-.79,0-.74.26.09.56,2.68,1.2,3,.9S23.82,36.26,22.86,36.11Z"/><path class="cls-21" d="M32.67,31.76c-1.61-.57-9.63-1.15-10.45-.44-.59.51,1.79,1.34,2.86,1.51a22.27,22.27,0,0,0,6.07.17C31.68,32.92,34.13,32.27,32.67,31.76Z"/><path class="cls-3" d="M29.18,31.3c-.73,0-1.23.18-1.07.51.31.65,4.61.79,5,.36S30.76,31.25,29.18,31.3Z"/><path class="cls-20" d="M39.06,30.13a6.86,6.86,0,0,1-5.63.08c-1.77-.62.92,1.14,1.13,2s-.09,3.71.52,2.05,1.84-1.78,2.63-.25.72-2.56,1-2.94S40.73,29.36,39.06,30.13Z"/><path class="cls-23" d="M21.66,29.48c4.88.23,8.78.36,11.73,1.49C31.46,29.39,28.16,29.05,21.66,29.48Z"/><path class="cls-23" d="M50,28.79c-6,.23-8.73.28-10.32,1.8C42.28,29.36,45.61,29.44,50,28.79Z"/></g></g></g></svg>