<svg xmlns="http://www.w3.org/2000/svg" xmlns:xlink="http://www.w3.org/1999/xlink" viewBox="0 0 66 66"><defs><style>.cls-1{fill:none;}.cls-2{clip-path:url(#clip-path);}.cls-3{fill:#fff;}.cls-4{fill:#ebebeb;}.cls-5{fill:#fbfbfb;}.cls-6{fill:#ffb67d;}.cls-7{fill:#255794;}.cls-8{fill:#4e84c7;}.cls-9{fill:#4f2619;}.cls-10{fill:#ffcb9e;}.cls-11,.cls-12{fill:#bf3c1b;}.cls-11{opacity:0.15;}.cls-12,.cls-15{opacity:0.3;}.cls-13{fill:#ffa073;}.cls-14{fill:#305d80;}.cls-15{fill:#b54d26;}.cls-16{fill:#ffdfc2;}.cls-17{fill:#86bae3;}.cls-18{fill:#f7a286;}.cls-19{fill:#8f3935;}.cls-20{fill:#fff9f0;}.cls-21{fill:#e8dac5;}.cls-22{fill:#784430;}</style><clipPath id="clip-path"><circle class="cls-1" cx="33" cy="33" r="33"/></clipPath></defs><g id="Layer_2" data-name="Layer 2"><g id="avatars"><g class="cls-2"><rect class="cls-3" width="66" height="66"/><path class="cls-4" d="M25.47,52.82c-3.4,1.71-3.69,9.55-3.12,13.18H43.87c.65-3.77.43-12.1-2.89-13.49C36,50.45,28.77,51.16,25.47,52.82Z"/><path class="cls-5" d="M33,58.62c2.32,0,12.14-5.24,5.24-10.38-2-1.48-5.86-1.71-8.23-1.23a5.45,5.45,0,0,0-4.29,4.91C25.54,54.76,30,58.54,33,58.62Z"/><path class="cls-6" d="M33.11,56.67c1.89,0,9.91-4.27,4.27-8.46-1.61-1.21-4.77-1.4-6.71-1a4.47,4.47,0,0,0-3.49,4C27,53.52,30.61,56.61,33.11,56.67Z"/><path class="cls-7" d="M49.8,66a59,59,0,0,0,.08-6.22c-.25-2.5-1.92-5.2-6.5-6.65l-2,4.3C43.73,58.62,44.05,66,44.05,66Z"/><path class="cls-7" d="M40.39,52.13s4.52,1.29,4.94,2.14A88.33,88.33,0,0,1,44.72,66H38.59C38.83,63.12,39.35,54.73,40.39,52.13Z"/><path class="cls-8" d="M39.53,55.37c.52-.69,3.57,2.91,3.25,3.52-.09.18-3.06,6.18-3.41,7.11h-.93C38.63,63.54,39,56.07,39.53,55.37Z"/><path class="cls-8" d="M40.41,51.29a6.8,6.8,0,0,1,3.51,4.76c-.06.62-4.66,1.16-4.6.52C39.4,55.7,40.41,51.29,40.41,51.29Z"/><path class="cls-7" d="M25.84,52.13s-4.53,1.29-4.95,2.14A87.05,87.05,0,0,0,21.51,66h6.13C27.4,63.12,26.87,54.73,25.84,52.13Z"/><path class="cls-7" d="M16.43,66a61.19,61.19,0,0,1-.09-6.22c.26-2.5,1.93-5.2,6.51-6.65l2,4.3C22.5,58.62,22.17,66,22.17,66Z"/><path class="cls-8" d="M26.7,55.37c-.52-.69-3.57,2.91-3.25,3.52.09.18,3.06,6.18,3.41,7.11h.93C27.6,63.54,27.22,56.07,26.7,55.37Z"/><path class="cls-8" d="M25.82,51.29a6.77,6.77,0,0,0-3.51,4.76c.06.62,4.65,1.16,4.6.52C26.83,55.7,25.82,51.29,25.82,51.29Z"/><path class="cls-9" d="M47.09,7a6.81,6.81,0,0,0-1.83-2.86c-1.46,3-5.49,4.57-8.62,4a2,2,0,0,0,.75-1.5c-1.24.26-2.39.85-3.65,1.08-5,.93-10,1.07-14.13,4.43-5.89,4.75-5,12.45-3.83,18.94.64,3.52,1.21,7.48,2.85,10.68,1.19,2.33,2.38,1.35,4.12.43,2.25-1.19,5.58-1.39,8.08-1.51s6.35-.34,8.74.79c1.57.74,2.4,1.33,4,.11A9.83,9.83,0,0,0,46.21,38c1-2.12,1-4.26,1.18-6.54.24-2.95,1-5.39.77-8.36-.08-1-1.35-5,1-8.36a17,17,0,0,0-2.43.44c1.53-.39,1.18-4.21,1.06-5.22A13.87,13.87,0,0,0,47.09,7Z"/><path class="cls-10" d="M17.62,38.48c1.09,8,7.26,16.79,16.55,16.13,9.49-.68,14.21-12.45,13-22.29-1.33-10.7-6.4-19.62-17.49-17.45C21.74,16.41,16.16,27.8,17.62,38.48Z"/><path class="cls-11" d="M30.81,23.44c-2.07-.58-4.92-1.09-6.9-.36-2.81,1-3.27,4.83-4.46,7.21a6.1,6.1,0,0,1-1.66-2.8,22.31,22.31,0,0,1-.37-3.91,11.93,11.93,0,0,1,.26-4.3c.56-1.64,2.37-2.56,3.86-3.23,2.69-1.22,5.83-1.06,8.72-1a36,36,0,0,1,9.61,1.51c2.06.62,5.93,1.17,6.65,3.56.9,3-3.49,4.09-5.66,4.63-3.86,1-6.06-.09-9.64-1.17Z"/><path class="cls-10" d="M15.7,41.92a7.48,7.48,0,0,0,3.14.34l.07-.09c.46-.74-.19-4.88-.43-5.66-.6-2-1.76-3-3.63-2.48C11,35.1,12.52,40.78,15.7,41.92Z"/><path class="cls-12" d="M17.21,40.52c1.41-.89.07-3.9-1-4.4-.88-.4-3.06.33-2,2,.54-1.59,1.5-.55,1.36.58-.1.75-.91.76-.11,1.73C15.88,41,16.76,40.8,17.21,40.52Z"/><path class="cls-9" d="M41.17,12.67c-3.34-2.83-7.32-3.29-11.53-2.31C27.08,11,24.15,11.3,22,13a20.67,20.67,0,0,0-4.83,4.64c-2,3.11-1,15.41.33,17.23.15.19,1.78,2.22,2.55,2.16a37.27,37.27,0,0,1-.22-8c.26-3.58,1.08-7.44,5.16-8.09,2.33-.36,9.71,2.81,11.39,3.17,2.26.48,7.55-2.05,8.32-2.37,1.89-.79,1.78-3,.89-4.44A19.32,19.32,0,0,0,41.17,12.67Z"/><path class="cls-13" d="M46.66,37.57a2.2,2.2,0,0,1,.07.79c-.22,2.92-5.31,1.93-5.58.65-.52-2.38,1.45-3,2.79-2.93C45,36.11,46.34,36.36,46.66,37.57Z"/><path class="cls-13" d="M26.38,37a2.35,2.35,0,0,1,.31.75c.72,2.9-4.67,3.41-5.35,2.26-1.27-2.17.5-3.31,1.85-3.66C24.22,36.06,25.67,35.91,26.38,37Z"/><path class="cls-14" d="M25.34,35.45a2.93,2.93,0,0,0-2-.17c-1.39-1.19-.11-4.81,1.93-3.93C26.77,32,26.71,34.74,25.34,35.45Z"/><path class="cls-15" d="M37.76,38.19c-.51-.63-1.23.06-2.55.08s-1.67-.53-2.5,0,.36,2.08,2.47,2S38.2,38.72,37.76,38.19Z"/><path class="cls-16" d="M34.82,32.34c-1.24.18-2.33,6-1.82,6.39,1.25,1,3.88.29,4.64-.5C38,37.91,37,32,34.82,32.34Z"/><path class="cls-14" d="M44.91,31.51c1.11.67,1.1,3,.27,3.88a2.7,2.7,0,0,0-2.16,0C41.3,34.27,42.83,30.26,44.91,31.51Z"/><path class="cls-17" d="M24.53,32c.73-.25,1.19.88.6,1.31C24.33,33.85,23.7,32.24,24.53,32Z"/><path class="cls-17" d="M44.09,32c.73-.15,1,1,.41,1.31C43.67,33.74,43.28,32.13,44.09,32Z"/><path class="cls-18" d="M43.84,41.39c-.58-.39-1.26-.71-1.82-1.06a1,1,0,0,0,.29.69c-2.43.14-4.86.33-7.3.44-1.61.08-3.22.19-4.83.22-1.18,0-3.42.25-4.34-.41a2.46,2.46,0,0,0,.85-.49A8.46,8.46,0,0,0,22.4,42.5c.9-.37,2.1-.9,2.91-.13a31.82,31.82,0,0,0,4.39,3.68c3.4,2.26,10,2,11.82-2.33.15-.38.94-1.64,1.5-1.77a4.66,4.66,0,0,1,1.83.49A2.89,2.89,0,0,0,43.84,41.39Z"/><path class="cls-19" d="M26,41.9a44.39,44.39,0,0,0,17-.48,4.35,4.35,0,0,0-2.21,2c-.63,1.35-3,2.33-6.5,2.34A10.6,10.6,0,0,1,26,41.9Z"/><path class="cls-20" d="M28.09,42.22s.19,1.19,2.17,1.62a22.86,22.86,0,0,0,8.06.13,4.08,4.08,0,0,0,2.79-2.17A48.11,48.11,0,0,1,28.09,42.22Z"/><path class="cls-20" d="M29.05,43.93c-.2-.31-.13-.81.78-.37,1.28.64,3.39.73,5.92.61,2.35-.11,3.53-.69,4-.36s-1.6,2.33-5.64,2C29.89,45.56,29.05,43.93,29.05,43.93Z"/><path class="cls-21" d="M28.61,43.05s9.46-.82,11.74-.19a3.89,3.89,0,0,0,.76-1.06,55.42,55.42,0,0,1-13,.42A1.76,1.76,0,0,0,28.61,43.05Z"/><path class="cls-21" d="M30.59,43.79a16.63,16.63,0,0,0,7.47.12S34,45.37,30.59,43.79Z"/><path class="cls-9" d="M20.74,30c1.74-2.1,6.52-2.34,7.91.15C26,30.26,24.63,30.05,20.74,30Z"/><path class="cls-9" d="M47.43,30.07c-1.49-2.08-5.61-2.3-6.82.2C42.94,30.39,44.07,30.16,47.43,30.07Z"/><path class="cls-22" d="M29.44,9.75a23,23,0,0,1,5.3-.56c3.42.05,8.06.34,10.41-2.72,2.31,2.67,2.1,7.78-.44,10.33l0,0a7.72,7.72,0,0,1,2.59-.54c.45,2.13-4.18,3.8-6.86,5.47.43-1.12,1.59-2.81,1.93-4.2-.51.36-5.59,4.06-5.92,4.64-.41-.45,6.1-8.11,6.19-8.8-.41.2-8.21,7.46-8.61,7.93-.74-.9,3.57-6.1,3.9-7.19-.37.1-8.24,4.95-8.22,5-.27-.88,2.55-3.18,3-3.93-.19,0-6.46,2.62-6.4,3a4.49,4.49,0,0,1,.12-2,11.84,11.84,0,0,0-9.11,4.63c.22-.28,0-2.32.16-2.88a10.7,10.7,0,0,1,1.12-2.71,8.16,8.16,0,0,1,4.09-3.1A34.84,34.84,0,0,1,29.44,9.75Z"/></g></g></g></svg>