<svg xmlns="http://www.w3.org/2000/svg" xmlns:xlink="http://www.w3.org/1999/xlink" viewBox="0 0 96 96"><defs><style>.cls-1{fill:none;}.cls-2{clip-path:url(#clip-path);}.cls-3{fill:#feac70;}.cls-4{fill:#e8e8e8;}.cls-5{fill:#765aa3;}.cls-6{fill:#5e4684;opacity:0.5;}.cls-7{fill:#f5f5f5;}.cls-8{fill:url(#linear-gradient);}.cls-9{fill:#fff9f0;}.cls-10{fill:#967cbf;}.cls-11{fill:#261b18;}.cls-12{fill:#ff9819;}.cls-13{fill:#d47844;}.cls-14,.cls-15{fill:#661004;}.cls-14{opacity:0.2;}.cls-15{opacity:0.3;}.cls-16{fill:#45362e;}.cls-17{fill:#d4502c;}.cls-18{fill:#f0ded1;opacity:0.7;}.cls-19{fill:#121b21;}.cls-20{fill:#e82525;opacity:0.8;}.cls-21{fill:#8f2621;}.cls-22{fill:#e8dac5;}</style><clipPath id="clip-path" transform="translate(0)"><circle class="cls-1" cx="48" cy="48" r="48"/></clipPath><linearGradient id="linear-gradient" x1="47.93" y1="76.21" x2="47.93" y2="80.98" gradientUnits="userSpaceOnUse"><stop offset="0" stop-color="#c25421"/><stop offset="1" stop-color="#d47844"/></linearGradient></defs><g id="Layer_2" data-name="Layer 2"><g id="Layer_4" data-name="Layer 4"><g class="cls-2"><rect class="cls-3" width="96" height="96"/><path class="cls-4" d="M56.39,82.29c-3.56-3.61-12.78-3.66-16.69-.58-3.56,2.79-1,9,.28,14.29H55.83C56.73,89.8,60,85.9,56.39,82.29Z" transform="translate(0)"/><path class="cls-5" d="M56.83,91.7c-1.3-2.82-1-7.52-.34-9.77-3.58-3.55-13.35-3.26-17.42.08a15.53,15.53,0,0,1-.36,9.13c.44,1.75.89,3.34,1.2,4.86h16A22.94,22.94,0,0,1,56.83,91.7Z" transform="translate(0)"/><path class="cls-6" d="M41.08,84.27l1.29,5.85s5.11-2.6,5.74-2.6,5.82,2.37,5.82,2.37l.7-6s-5.39,3.34-6.5,3.34C47.3,87.21,41.08,84.27,41.08,84.27Z" transform="translate(0)"/><path class="cls-7" d="M52.43,79a14.15,14.15,0,0,0-9.61.13c-4.71,2.22.29,9.53.29,9.53l5.06-1.28,5,1.11S57,80.92,52.43,79Z" transform="translate(0)"/><path class="cls-8" d="M52.48,79.67c-.82-.65-.62-2.67-.48-5,.3-5.3-8.86-5.49-8.85.29,0,2.56.1,4.17-.59,4.87-1.33,1.37-1.21,3.77,5.48,6.86C51.69,84.88,56.43,82.82,52.48,79.67Z" transform="translate(0)"/><path class="cls-9" d="M42.3,79.87a.78.78,0,0,0-.75.81.78.78,0,0,0,1.55-.05A.79.79,0,0,0,42.3,79.87Z" transform="translate(0)"/><path class="cls-9" d="M44.08,81.09a.78.78,0,1,0,.05,1.55.78.78,0,0,0-.05-1.55Z" transform="translate(0)"/><path class="cls-9" d="M46.39,81.9a.79.79,0,0,0-.75.81.78.78,0,0,0,.8.75.78.78,0,0,0,0-1.56Z" transform="translate(0)"/><path class="cls-9" d="M48.71,82a.78.78,0,1,0,.79.75A.77.77,0,0,0,48.71,82Z" transform="translate(0)"/><path class="cls-9" d="M52.9,79.79a.79.79,0,1,0,.8.75A.78.78,0,0,0,52.9,79.79Z" transform="translate(0)"/><path class="cls-9" d="M51,81.17a.78.78,0,1,0,.8.75A.77.77,0,0,0,51,81.17Z" transform="translate(0)"/><path class="cls-10" d="M51.91,89.44c-2.79,1-6.17.61-9-.14-1.64-.43-2.57,1.54-2.07,3.21.67,2.22,4.08,2.8,7,2.74,5.85-.1,8-2.4,7.06-5.13C54.66,89.39,53.4,88.88,51.91,89.44Z" transform="translate(0)"/><path class="cls-4" d="M39.06,82.22A7.61,7.61,0,0,0,34.82,87,54.91,54.91,0,0,0,33,96h5a26.79,26.79,0,0,1,1.08-5.93C39.62,88.42,39.37,82.08,39.06,82.22Z" transform="translate(0)"/><path class="cls-4" d="M56.45,82.22c-.31-.14-.56,6.2,0,7.85A27.38,27.38,0,0,1,57.52,96h5a55,55,0,0,0-1.8-9A7.58,7.58,0,0,0,56.45,82.22Z" transform="translate(0)"/><path class="cls-11" d="M77.07,44.68c.14.1.62,3.49,3.84,2.94S82.73,16.14,54.58,14.9c1.92-1.52,3.3-4.94.43-6.13s-5.91,2.55-5.5,5.46c-3.92-13.57-12.45-2.07-7.45.82-12.92.25-21.38,5.17-25.45,19.3-1.42,4.91-.78,11.74-.07,16.75.43,3,2.2,6.23,1.39,9.31a7.29,7.29,0,0,0-3,.2c-6.7,2.48-.2,10.91,5.28,9.15-5,6.57,2.11,12.54,7.7,6.65,1.72,3.49,5.25,2.83,8.37,2,3.28-.85,6.55-1.09,9.88-1.79,5.89-1.23,10.18.93,15.61,2,3.5.7,7.51-.6,6.27-4.9A9.58,9.58,0,0,0,66,70.63c4.37-.11,3.63-6.61,5-9.86C71.82,58.79,78.42,57.66,77.07,44.68Z" transform="translate(0)"/><path class="cls-12" d="M72.12,61.91a2,2,0,1,1-2.05-2A2,2,0,0,1,72.12,61.91Z" transform="translate(0)"/><path class="cls-13" d="M27.83,55.6c1.72,11.49,10.77,24,24.11,22.86C65.57,77.3,72.12,60.3,70.17,46.18,68.05,30.83,60.59,18.1,44.69,21.42,33.34,23.8,25.54,40.28,27.83,55.6Z" transform="translate(0)"/><path class="cls-14" d="M69.81,39.17c-2.72,5.54-14,7.15-17.71,2-2.56,2.6-8,4.93-10.66,1.31-3,1.87-5.54.93-6.49-2.44-2.75-.08-4,5.07-4.1,7.07a26.2,26.2,0,0,1-3.2-9.46c-.52-3-1-6.68-.09-9.62.76-2.37,3.36-3.73,5.47-4.72,3.85-1.8,8.37-1.63,12.53-1.62a51.31,51.31,0,0,1,13.83,2,32.87,32.87,0,0,1,7.8,2.87A8.05,8.05,0,0,1,70,29.14c.95,1.52.72,3.18.86,4.88A10,10,0,0,1,69.81,39.17Z" transform="translate(0)"/><path class="cls-13" d="M25.14,60.58a11.1,11.1,0,0,0,4.53.44,1.1,1.1,0,0,1,.09-.14c.65-1.07-.37-7-.72-8.13-.9-2.8-2.59-4.26-5.27-3.49C18.2,50.88,20.56,59,25.14,60.58Z" transform="translate(0)"/><path class="cls-15" d="M27.28,58.54c2-1.31,0-5.62-1.5-6.3-1.27-.56-4.39.52-2.88,3,.74-2.29,2.15-.82,2,.81-.13,1.08-1.29,1.12-.12,2.49C25.38,59.25,26.65,59,27.28,58.54Z" transform="translate(0)"/><path class="cls-11" d="M71.76,28.17a10.46,10.46,0,0,0-3.15-3.3c-2.43-1.64-3.82-4.23-6.64-5.59a33.06,33.06,0,0,0-8.06-2.62,38.33,38.33,0,0,0-11.71-.2c-6.44.86-14.18,4-16.13,10.88-1.19,4.21-.47,9.07-.09,13.35.2,2.29-.59,9,1,10.85,2.25,2.57,3.72-.27,3.92-2.8.23-2.76-.3-5.56,1-8.11a7.09,7.09,0,0,1,4.27-3.35c.41,4.84,3.21,6.18,7.17,2.2-.53,5.41,9.09.55,11-.9.93,9.86,17.46-.12,18.38-5.93A6.74,6.74,0,0,0,71.76,28.17Z" transform="translate(0)"/><path class="cls-16" d="M38.63,34.24C34.91,35.63,24.28,41,23.48,36.71c-4.14,3.38-5.89-.59-2.2-6.89C25.83,22,38.71,15.88,46.08,23c6.6-12,26.32-.89,29,4,1,1.86,2,5.87-1.84,6.11-1.1.07-3.51-1.39-4.06-2.19,5.47,7.95-14.28,8.76-11.33,3.79-1.74,1.15-15.32,6.78-10.91-.28-1.6,1.07-9.74,4.9-7.38-.54Z" transform="translate(0)"/><path class="cls-12" d="M28.89,63.82a2,2,0,1,1-2-2A2,2,0,0,1,28.89,63.82Z" transform="translate(0)"/><path class="cls-17" d="M68.64,56.84a2.16,2.16,0,0,1,.25.74c.46,2.7-5.3,1.62-5.9.43-1.12-2.23.88-2.7,2.34-2.64C66.45,55.43,68,55.71,68.64,56.84Z" transform="translate(0)"/><path class="cls-17" d="M41.3,57.29a2.62,2.62,0,0,1,.41.8c1,3-5.56,3.1-6.42,1.86-1.61-2.33.5-3.34,2.12-3.6C38.65,56.16,40.41,56.13,41.3,57.29Z" transform="translate(0)"/><path class="cls-11" d="M71.19,45.08C69.36,42.48,62.4,42.49,60,45A89.43,89.43,0,0,0,71.19,45.08Z" transform="translate(0)"/><path class="cls-15" d="M55.39,57.79c.41.44-.81,1.72-2.32,1.88-1.34.14-3-1.29-2.28-1.73s1.19,0,2.28,0S54.91,57.27,55.39,57.79Z" transform="translate(0)"/><path class="cls-11" d="M32.32,45.11c2.59-2.38,9.91-2.74,12.16,0C40.33,45.33,38.3,45.11,32.32,45.11Z" transform="translate(0)"/><path class="cls-11" d="M40.09,54.48a4.25,4.25,0,0,0-3.06,0c-2.24-1.67-.76-7.51,2.42-6.4C41.81,48.9,42.06,53.19,40.09,54.48Z" transform="translate(0)"/><path class="cls-18" d="M39.71,51c1.15-.21,1.56,1.67.59,2.18C39,53.84,38.41,51.19,39.71,51Z" transform="translate(0)"/><path class="cls-11" d="M66.91,47.81c1.7,1.08,1.56,4.42.35,6a3.75,3.75,0,0,0-2.78.44C61,53.19,63.75,45.79,66.91,47.81Z" transform="translate(0)"/><path class="cls-18" d="M66.45,50.36c1.11,0,1.26,1.93.28,2.3C65.38,53.16,65.2,50.39,66.45,50.36Z" transform="translate(0)"/><path class="cls-19" d="M73.89,48.81s-2.89,3-7.36.53a2.68,2.68,0,0,0-3.38.63s.95-3.43,3.85-2.32C68.55,48.25,70.34,50,73.89,48.81Z" transform="translate(0)"/><path class="cls-19" d="M30,49.76a6.57,6.57,0,0,0,7.72.11,3,3,0,0,1,3.52.19s-.87-3.39-3.86-1.78C36.2,48.89,33.55,50.72,30,49.76Z" transform="translate(0)"/><path class="cls-20" d="M51.75,62.35c-4.29.29-10,1.38-13.49-.32,3.64,9,7.29,11.63,13.66,11.63,6.12,0,9.25-3.92,9.9-7.44.21-1.08,2.8-4.49,3.69-5.3C62.33,62.14,56.79,62,51.75,62.35Z" transform="translate(0)"/><path class="cls-21" d="M39.6,63.16s10.47,2.38,24.7-1.62a6.28,6.28,0,0,0-3,3.87c-.51,2-1.69,5-9.91,5.51C42.28,71.51,39.6,63.16,39.6,63.16Z" transform="translate(0)"/><path class="cls-9" d="M42,63.64s0,1.86,2.84,2.36a34.19,34.19,0,0,0,11.74-.16,6.61,6.61,0,0,0,4.2-3.22A86.92,86.92,0,0,1,42,63.64Z" transform="translate(0)"/><path class="cls-9" d="M45.14,69.32c-.24-.4-.23-.87,1-.59a30.83,30.83,0,0,0,7.37.28c3.17-.19,3.89-1.08,4.46-.67S56.36,71,51.32,71C45.55,71,45.14,69.32,45.14,69.32Z" transform="translate(0)"/><path class="cls-22" d="M42.46,64.72s14.16-1.33,17.42-.82a9.38,9.38,0,0,0,.93-1.28,86.43,86.43,0,0,1-18.78,1A1.74,1.74,0,0,0,42.46,64.72Z" transform="translate(0)"/><path class="cls-22" d="M46.66,69.07a32,32,0,0,0,10.47-.41S51.65,70.44,46.66,69.07Z" transform="translate(0)"/></g></g></g></svg>