<svg xmlns="http://www.w3.org/2000/svg" xmlns:xlink="http://www.w3.org/1999/xlink" viewBox="0 0 66 66"><defs><style>.cls-1{fill:none;}.cls-2{clip-path:url(#clip-path);}.cls-3{fill:#fff;}.cls-4{fill:#1e1e29;}.cls-5{fill:#ca3564;}.cls-6{fill:#3a3a4a;}.cls-7{fill:#b51b4c;}.cls-8{fill:#eba971;}.cls-9{fill:#d99a64;}.cls-10{fill:#ffbc82;}.cls-11{fill:#b54d26;opacity:0.4;}.cls-12{fill:#261b18;}.cls-13{fill:#ffd4ad;}.cls-14{fill:#e6d2c3;opacity:0.7;}.cls-15{fill:#80523a;}.cls-16{fill:#8f2722;}.cls-17{fill:#fff7eb;}.cls-18{fill:#e8dac5;}.cls-19{fill:#4f3e38;}.cls-20{fill:#ff697c;}.cls-21{fill:#ff8f9d;}</style><clipPath id="clip-path" transform="translate(0.01)"><circle class="cls-1" cx="33" cy="33" r="33"/></clipPath></defs><g id="Layer_2" data-name="Layer 2"><g id="avatars"><g class="cls-2"><rect class="cls-3" width="66" height="66"/><path class="cls-4" d="M15.66,66H23l-.49-13.1C19.92,54.41,15.8,56.06,15.66,66Z" transform="translate(0.01)"/><path class="cls-4" d="M44.77,52.9,44.28,66h7.38C51.52,56.06,47.4,54.41,44.77,52.9Z" transform="translate(0.01)"/><path class="cls-5" d="M41.46,51.28c-4.9-2.63-12-1.73-15.28.39C21.37,54.79,22,58.14,23.11,66h21C45.35,58.85,46.2,53.82,41.46,51.28Z" transform="translate(0.01)"/><path class="cls-4" d="M21.46,53.51A120.12,120.12,0,0,0,21,66H29.4a150.75,150.75,0,0,0-3.61-15.17S21.87,52.43,21.46,53.51Z" transform="translate(0.01)"/><path class="cls-6" d="M20.77,53.6c.05.67,6.61,2.63,6.45,2s-.91-5.51-.91-5.51C22.23,50.34,20.71,52.94,20.77,53.6Z" transform="translate(0.01)"/><path class="cls-6" d="M22.23,57.37c.15.43,2.34,4.5,4.45,8.63h2.94c-.82-5.44-1.9-9.94-2.57-11.09C26.54,54,22,56.6,22.23,57.37Z" transform="translate(0.01)"/><path class="cls-3" d="M21.92,52.34a.56.56,0,0,0,0,1.11.56.56,0,1,0,0-1.11Z" transform="translate(0.01)"/><path class="cls-3" d="M24.14,51.15a.56.56,0,0,0,0,1.11.56.56,0,1,0,0-1.11Z" transform="translate(0.01)"/><path class="cls-3" d="M24.1,53.13a.56.56,0,0,0-.55.56.56.56,0,0,0,1.11,0A.56.56,0,0,0,24.1,53.13Z" transform="translate(0.01)"/><path class="cls-3" d="M23.55,57.06a.56.56,0,1,0,.55.56A.56.56,0,0,0,23.55,57.06Z" transform="translate(0.01)"/><path class="cls-3" d="M25.65,56.43a.56.56,0,1,0,.56.55A.56.56,0,0,0,25.65,56.43Z" transform="translate(0.01)"/><path class="cls-3" d="M25.49,58.73a.56.56,0,1,0,.56.55A.56.56,0,0,0,25.49,58.73Z" transform="translate(0.01)"/><path class="cls-3" d="M25.37,61a.56.56,0,0,0,0,1.11.56.56,0,1,0,0-1.11Z" transform="translate(0.01)"/><path class="cls-3" d="M27.2,63a.56.56,0,0,0-.56.56.56.56,0,0,0,1.11,0A.56.56,0,0,0,27.2,63Z" transform="translate(0.01)"/><path class="cls-3" d="M27.4,60.23a.56.56,0,1,0,.55.56A.56.56,0,0,0,27.4,60.23Z" transform="translate(0.01)"/><path class="cls-4" d="M46,53.51c-.41-1.08-4.35-2.68-4.35-2.68A153.66,153.66,0,0,0,38,66h8.37A120.12,120.12,0,0,0,46,53.51Z" transform="translate(0.01)"/><path class="cls-6" d="M41.14,50.06s-.74,4.85-.91,5.51,6.4-1.3,6.45-2S45.22,50.34,41.14,50.06Z" transform="translate(0.01)"/><path class="cls-6" d="M40.4,54.91c-.67,1.15-1.75,5.65-2.57,11.09h2.94c2.11-4.13,4.3-8.2,4.45-8.63C45.5,56.6,40.91,54,40.4,54.91Z" transform="translate(0.01)"/><path class="cls-3" d="M45.5,52.34a.56.56,0,0,0,0,1.11.56.56,0,1,0,0-1.11Z" transform="translate(0.01)"/><path class="cls-3" d="M43.28,51.15a.56.56,0,1,0,.55.56A.56.56,0,0,0,43.28,51.15Z" transform="translate(0.01)"/><path class="cls-3" d="M43.32,53.13a.56.56,0,0,0-.56.56.55.55,0,0,0,.56.55.54.54,0,0,0,.55-.55A.55.55,0,0,0,43.32,53.13Z" transform="translate(0.01)"/><path class="cls-3" d="M43.87,57.06a.56.56,0,1,0,.56.56A.56.56,0,0,0,43.87,57.06Z" transform="translate(0.01)"/><path class="cls-3" d="M41.77,56.43a.56.56,0,0,0,0,1.11.56.56,0,1,0,0-1.11Z" transform="translate(0.01)"/><path class="cls-3" d="M41.93,58.73a.56.56,0,1,0,0,1.11.56.56,0,0,0,0-1.11Z" transform="translate(0.01)"/><path class="cls-3" d="M42.05,61a.56.56,0,1,0,0,1.11.56.56,0,0,0,0-1.11Z" transform="translate(0.01)"/><path class="cls-3" d="M40.22,63a.56.56,0,0,0-.55.56.56.56,0,0,0,1.11,0A.56.56,0,0,0,40.22,63Z" transform="translate(0.01)"/><path class="cls-3" d="M40,60.23a.56.56,0,1,0,.55.56A.56.56,0,0,0,40,60.23Z" transform="translate(0.01)"/><path class="cls-7" d="M32.89,44.81c-9.07,0-9,13.11.78,13.11C42.86,57.92,45.52,44.81,32.89,44.81Z" transform="translate(0.01)"/><path class="cls-5" d="M32.83,44.37c-9.68,0-9.66,12.42.83,12.42C43.47,56.79,46.3,44.37,32.83,44.37Z" transform="translate(0.01)"/><path class="cls-8" d="M48.39,34c-1.74-.67-2.84.43-3.41,2.59-.22.86-.86,5.45-.43,6.3l.06.11c.49,1.25,1.21,1.66,2.16,1.3C49.74,43.21,52,35.42,48.39,34Z" transform="translate(0.01)"/><path class="cls-9" d="M17,21.05C15.94,25.9,15.71,32.35,18,37c1.23,2.43,4.14.81,6.2.3,2.53-.63,5.07-1.2,7.62-1.76,4.18-.92,8.77,0,13,.4,3.32.32,3.57,1.87,3.57-.83,0-3.35.86-8.88,0-12.56C44.3,4.65,19.44,9.36,17,21.05Z" transform="translate(0.01)"/><path class="cls-10" d="M31.46,15.09C19.6,16.7,17.73,27.55,18.88,38.18c.87,8,6.75,16.82,16,16.42,9.41-.42,14.41-12,13.46-21.74C47.29,22.22,45,13.25,31.46,15.09Z" transform="translate(0.01)"/><path class="cls-10" d="M16.26,33.7c-3.89,1-2.12,9.82.79,11.53,1.16.68,2.95,0,3.09-2.33.67-1.07.3-4-.36-6.53C19.25,34.31,18.13,33.21,16.26,33.7Z" transform="translate(0.01)"/><path class="cls-11" d="M17.56,35.8c-.85-.42-3,.24-2.06,2,.57-1.56,1.5-.5,1.33.61-.12.74-.93.73-.15,1.72.41.53,1.29.36,1.74.09C19.85,39.34,18.61,36.31,17.56,35.8Z" transform="translate(0.01)"/><path class="cls-12" d="M26.33,31.35c-2.64-.67-3.92,2.74-2.06,3.74a4.86,4.86,0,0,1,2.54,0A2,2,0,0,0,26.33,31.35Z" transform="translate(0.01)"/><path class="cls-11" d="M36.2,38.46c-1.24,0-1.74-.5-2.59,0s.42,2.15,2.6,2,3.08-1.64,2.62-2.19S37.56,38.42,36.2,38.46Z" transform="translate(0.01)"/><path class="cls-13" d="M35.63,32.91c-1,.16-2.22,5.52-1.66,5.9a4.58,4.58,0,0,0,4.86-.49C39.12,38,36.76,32.73,35.63,32.91Z" transform="translate(0.01)"/><path class="cls-12" d="M46.39,31.68c-2.56-1.2-4.62,2.45-2.51,3.54a4.51,4.51,0,0,1,2.72.05C47.67,34.44,47.76,32.32,46.39,31.68Z" transform="translate(0.01)"/><path class="cls-14" d="M25.48,32c-1,.31-.08,1.75.88,1.16C27.05,32.71,26.38,31.7,25.48,32Z" transform="translate(0.01)"/><path class="cls-14" d="M45.36,32.06c-1,.13-.6,1.62.47,1.22C46.6,33,46.27,32,45.36,32.06Z" transform="translate(0.01)"/><path class="cls-15" d="M25.07,27.24c-.55.1-4.43,1.65-3.23,2.26a1.86,1.86,0,0,0,.77.19,4.22,4.22,0,0,0,1.67-.49,5.11,5.11,0,0,1,3.27-.27c.59.16,2,.54,2.23-.33C30.25,26.86,25.89,27.1,25.07,27.24Z" transform="translate(0.01)"/><path class="cls-15" d="M45.65,27.09c-.77-.1-4.86-.13-4.44,1.57.22.85,1.54.41,2.09.22a4.72,4.72,0,0,1,3.27.19,7.73,7.73,0,0,0,1.41.44c.6.09,1.12,0,1-.67C48.69,27.94,46.46,27.19,45.65,27.09Z" transform="translate(0.01)"/><path class="cls-13" d="M47.52,37.47a3.49,3.49,0,0,0-2.88-1.07c-1.23,0-2.87.44-1.76,2.19.59.93,5.49,1.61,4.91-.54A1.72,1.72,0,0,0,47.52,37.47Z" transform="translate(0.01)"/><path class="cls-13" d="M28.57,37a3.74,3.74,0,0,0-3.2-.45c-1.26.27-2.84,1.09-1.31,2.64.81.83,6,.42,4.92-1.66A2,2,0,0,0,28.57,37Z" transform="translate(0.01)"/><path class="cls-11" d="M35.39,41.54c-5.7.34-7.84-.66-9.26-.68.82,5.83,4.52,10,8.66,10,2.17,0,5.18-.2,6.78-2.82a10.89,10.89,0,0,0,1-3.26,6.84,6.84,0,0,1,2.33-4.06,1.57,1.57,0,0,0-.38-.39C43.39,39.47,42,41.15,35.39,41.54Z" transform="translate(0.01)"/><path class="cls-16" d="M27,41.76s1.71,8.16,8.16,7.79c5.82-.33,6.71-3.14,7.12-5.11a5.82,5.82,0,0,1,2.18-3.68C34.34,44.31,27,41.76,27,41.76Z" transform="translate(0.01)"/><path class="cls-17" d="M28.72,42.27a2.51,2.51,0,0,0,1.94,2.36,17.51,17.51,0,0,0,8.29.12c2-.41,3-3,3-3A44.68,44.68,0,0,1,28.72,42.27Z" transform="translate(0.01)"/><path class="cls-17" d="M36.23,47.89a15.69,15.69,0,0,1-5.15-.76c-.85-.35-.89.1-.76.51,0,0,.16,1.64,4.21,2,3.55.34,5.25-1.69,4.89-2.13S38.47,47.92,36.23,47.89Z" transform="translate(0.01)"/><path class="cls-18" d="M28.72,42.27A2,2,0,0,0,29,43.33s10-.95,12.3-.39A8.6,8.6,0,0,0,42,41.73,44.44,44.44,0,0,1,28.72,42.27Z" transform="translate(0.01)"/><path class="cls-18" d="M31.41,47.49c3.4,1.66,7.39.3,7.39.3A16.55,16.55,0,0,1,31.41,47.49Z" transform="translate(0.01)"/><path class="cls-9" d="M32.62,13C23,12.93,16.16,19.84,16.8,33.6a2.42,2.42,0,0,1,1.82.58,4.63,4.63,0,0,1,1,2.07c.1.22.22.58,1,.54-1.43-4.62-.61-11.11,1-13.22,3.9-5.23,12.66,1.84,15.56,1.73,2.19-.08,7.46-6.66,9.55-1.72C48.09,27,48.05,13.14,32.62,13Z" transform="translate(0.01)"/><path class="cls-6" d="M18,41.11a1.65,1.65,0,1,0,1.65,1.65A1.65,1.65,0,0,0,18,41.11Z" transform="translate(0.01)"/><path class="cls-19" d="M41.68,20.23c2.24-3.62-1.22-8.52-4.19-10.48C33,6.78,25.27,6,20.9,9.67a5.67,5.67,0,0,0-2,3.74,4.34,4.34,0,0,0-2.29-.85,29.55,29.55,0,0,1,3.17,3.29c3.29-1.31,7.47,1.46,9.62,3.65,1.28,1.3,1.65,2.82,3.36,4.3.9.78,2.19.81,3.64,2.6C37,25,38,25.19,39.57,24.12s2.54-3.14,5-3.72A3.78,3.78,0,0,0,41.68,20.23Z" transform="translate(0.01)"/><path class="cls-20" d="M46.58,9.54c-1.07.15-3.11.73-4.13.79a4.69,4.69,0,0,0-1.25-4A16.36,16.36,0,0,1,38.55,9a11,11,0,0,1-1.22-3.54,16.54,16.54,0,0,1-2.64,2.26c-.41-1-1.43-2.86-2.51-3.43-1.28,4-2.47.69-3.94.38a9.58,9.58,0,0,1-.56,2.46c-.54-.73-1.57-2.25-2.05-1.18C25.5,6.2,25.41,7,25,7.09s-1.52-2.37-2.79.7c-.19.47-.65,1.48-1.22,1.6S20,8.63,19.43,9a2.69,2.69,0,0,0-.55,1.4,2.11,2.11,0,0,0-1.42-.53,8.09,8.09,0,0,0,.71,1.37c.34.7.67,2.26,1.68,2.27s1.48-1.1,1.47-1.87c.42,2.35,2.82,1.74,3.3-.2,1,1,1.63,2.58,3,3.08,1.8.63,2.64-2,3.84-1.73.81.21.13,2.54.87,2.85s1.47-1.65,3-2.25c-.39,1.36.1,6.38.1,6.38A29.77,29.77,0,0,0,38,17.59c.73-.74,2-1.42,3-.93-1.69,2.22,2.51,3.22,3.18.79-2,.12-2.09-.54-1.18-2C43.83,14.08,45.6,10.93,46.58,9.54Z" transform="translate(0.01)"/><path class="cls-21" d="M40.39,12.84c0-1.1.82-3.54.44-4.21-1.19,2.33-4,2.73-4.69-.48-.5.8-.94,1.38-1.93.76a4.22,4.22,0,0,1-1.45-2.37c-.75,2-2.79,1.31-3.89-.09,0,.75-.53,2.08-1.41,2.07S26.52,7.6,26.24,7c-.47,1.68-1.71,1.57-2.85.73C22.93,9,21.46,11,19.84,10.13c.13,1.68,1.45,1.15,2.2.09.61.34.49.71,1.14.54a1.44,1.44,0,0,0,.94-1.14c1.34,1.66,3,2.39,4.35.1.6,2.69,2.1,1,3.05,1.71.54.4,1.56,1.07,2,.16.35.63.3,1.07,1.07,1.17a2.91,2.91,0,0,0,1.81-.63,4,4,0,0,0,3.41,3.1c2.2.2,4.8-3,4.2-4.24C43.4,11.5,41.17,13,40.39,12.84Z" transform="translate(0.01)"/><path class="cls-6" d="M49.08,25.06a2.89,2.89,0,0,0-2.68,2.13l1.74.48a1.08,1.08,0,0,1,1-.81,1.19,1.19,0,0,1,1.19.83A1.28,1.28,0,0,1,50,29.31a.89.89,0,0,1-1.19-.24L47.46,30.3a2.83,2.83,0,0,0,2.06.94,2.59,2.59,0,0,0,1.4-.41A3.06,3.06,0,0,0,52,27,3,3,0,0,0,49.08,25.06Z" transform="translate(0.01)"/></g></g></g></svg>