<svg xmlns="http://www.w3.org/2000/svg" xmlns:xlink="http://www.w3.org/1999/xlink" viewBox="0 0 66 66"><defs><style>.cls-1{fill:none;}.cls-2{clip-path:url(#clip-path);}.cls-3{fill:#b6d2a5;}.cls-4{fill:#ffc38f;}.cls-5{fill:#ebebeb;}.cls-6{fill:#3a3a4a;}.cls-7{opacity:0.1;}.cls-8{fill:#fbfbfb;}.cls-9{fill:url(#linear-gradient);}.cls-10{fill:#3d1f12;}.cls-11{fill:#de3e78;}.cls-12{fill:#139e9b;opacity:0.5;}.cls-13{fill:#d94c18;}.cls-13,.cls-14{opacity:0.3;}.cls-14{fill:#bf3c1b;}.cls-15{fill:#78452f;}.cls-16{fill:#ff7752;}.cls-17{opacity:0.8;}.cls-18{fill:#f04d4d;}.cls-19{fill:#b32f29;}.cls-20{fill:#fff9f0;}.cls-21{fill:#e8dac5;}.cls-22{fill:#1f1a17;}.cls-23{fill:#a87f7f;}.cls-24{fill:#121b21;}</style><clipPath id="clip-path" transform="translate(0)"><circle class="cls-1" cx="33" cy="33" r="33"/></clipPath><linearGradient id="linear-gradient" x1="35.8" y1="51.56" x2="35.8" y2="56.49" gradientUnits="userSpaceOnUse"><stop offset="0" stop-color="#ee996d"/><stop offset="0.02" stop-color="#ee9a6e"/><stop offset="0.37" stop-color="#f8b181"/><stop offset="0.71" stop-color="#fdbf8d"/><stop offset="1" stop-color="#ffc491"/></linearGradient></defs><g id="Layer_2" data-name="Layer 2"><g id="avatars"><g class="cls-2"><rect class="cls-3" width="66" height="66"/><path class="cls-4" d="M30.33,56.43l-1.42-2.81c-2.19,1.11-2.64,3.46-3.11,5.94A14.44,14.44,0,0,1,23.41,66h3.71a21.07,21.07,0,0,0,1.78-5.85C29.29,58.1,29.56,56.82,30.33,56.43Z" transform="translate(0)"/><path class="cls-4" d="M41.89,53.62l-1.42,2.81c.77.39,1,1.67,1.43,3.72A20.74,20.74,0,0,0,43.68,66h3.71A14.44,14.44,0,0,1,45,59.56C44.53,57.08,44.08,54.73,41.89,53.62Z" transform="translate(0)"/><path class="cls-5" d="M42.65,62.91c1-5,0-8.08-.89-10.1-4-2.2-10.45-1.38-13.08.4a19.2,19.2,0,0,0-.08,9.38A17.05,17.05,0,0,1,29.16,66H42.22A20.16,20.16,0,0,1,42.65,62.91Z" transform="translate(0)"/><path class="cls-6" d="M36.27,60.16l1.61-1.58a2.37,2.37,0,0,0-2.25-1.46,2.39,2.39,0,0,0-2.57,1.34l1.63,1.67-2,3.86,1.53,2h2.55l1.76-2.07Z" transform="translate(0)"/><path class="cls-7" d="M30.1,55.27a8.58,8.58,0,0,0,3.4,4.58l1.88-2.34,2.47,2.32a7.18,7.18,0,0,0,3.34-5.3C41.21,53.11,29.34,52.35,30.1,55.27Z" transform="translate(0)"/><path class="cls-8" d="M30.13,51.8C28,55,33.34,59.08,33.34,59.08l2.06-1.85,2.34,1.93s4.81-3,3.1-7C39.31,48.5,32.25,48.56,30.13,51.8Z" transform="translate(0)"/><path class="cls-9" d="M34.13,48c-1.3.38-2.17,2-2.26,3.76-.11,2.16,2.22,5.06,3.84,5.12,1.21,0,6.39-4,2.75-7.94A4.61,4.61,0,0,0,34.13,48Z" transform="translate(0)"/><path class="cls-10" d="M54.27,29.51c2.48-.66,5.29-6.07,1.07-5.77,1.14,1.71-1.56,2.5-2.44,1.21a.76.76,0,0,1-.15-.32c-.14-2.13-2.33-3.6-4-4.91A23.12,23.12,0,0,0,40,15.51c-5.48-1.25-12-.95-16.39,2.68-1.75,1.46-3.29,4.51-5.72,5.09-3,.71-4.64,3.74-2.28,5.65A1.73,1.73,0,0,1,13,27.64c-2.57,1.79-3.54,5.25,0,6.82C8.86,36.61,9.89,41,14.34,42.89c-2.08,1.93-1,5.22,1.08,6.53-.16-1.37,1.12-4.43,3.49-2.87,1.45,1,.68,3.53-1.3,2.24-.52,2.33,3.41,3.77,4.56,1.84C22,52.37,23.23,53,24.84,52.94c2.4-.16,3.25-1.76,4.86-2.26A25.36,25.36,0,0,1,36.27,50c4-.06,7.41,3.87,11.37,2.16,1.53-.65,2.27-1.63,2.11-3.12-1.09.76-3.92-.35-1.61-2.16,1.16-.9,2.87-.06,4-.75,1.39-.81.82-3.71.92-3.77,1-.62,2.65-.67,2.75,1.07,2-4,.1-5.16-2.1-5.46C58.62,37.16,59.57,30.46,54.27,29.51Z" transform="translate(0)"/><path class="cls-11" d="M50.18,40.93a1.4,1.4,0,0,0-1.36,1.41,1.35,1.35,0,0,0,1.39,1.34,1.41,1.41,0,0,0,1.36-1.42A1.34,1.34,0,0,0,50.18,40.93Z" transform="translate(0)"/><path class="cls-4" d="M34.66,15.07c-8.09.74-14.38,7.63-13.88,18.51s8.4,19.57,17,18.62c7.09-.79,13.14-9.63,11.8-21.55C48.34,20,42.75,14.33,34.66,15.07Z" transform="translate(0)"/><path class="cls-12" d="M47,29.83a3.2,3.2,0,0,0-2,1.44,2.65,2.65,0,0,1,1.72-.15c.42.07.8.36,1.23.44.84.17,2.42.14,1.82-1.14C49.34,29.63,48,29.6,47,29.83Z" transform="translate(0)"/><path class="cls-4" d="M18.69,31.86c-3.52,1.61-1.88,7.65,1.07,8.55a5.85,5.85,0,0,0,2.88,0l.06-.11c.4-.86-.5-4.91-.75-5.74C21.33,32.5,20.38,31.09,18.69,31.86Z" transform="translate(0)"/><path class="cls-13" d="M20.7,34c-.95-.5-3.4.16-2.37,2.14.7-1.74,1.7-.51,1.47.73-.15.84-1.05.8-.22,1.93a1.57,1.57,0,0,0,2,.17C23.15,38,21.85,34.59,20.7,34Z" transform="translate(0)"/><path class="cls-14" d="M31.66,19.31a22.8,22.8,0,0,0-6.18,2.05c-2.87,1.46-3.06,3-4.46,5.71-.7,1.39-2.42,2.79-.78,4.24-1.65.63-2,3.47-1,4.76a1.73,1.73,0,0,0,1.08.69,2.84,2.84,0,0,0-.22,2.43c.41.9,1.13,1.71,2,1.54A5.47,5.47,0,0,0,23,43.32c1.15,1.47,3.21,2,4.5.9A1.8,1.8,0,0,0,27,41c-.14.46-.68.95-1.17.59s.2-2,.18-2.63c0-1.66-1.06-1-2-1.88.49-.46,1.18-1,1.16-1.82,0-1-.72-1.15-1.33-1.67-1-.86-.71-.71-.16-1.63.68-1.14,1.11-2.62-.27-3.5.67-.07,1.35-.37,1.46-1.09,1.18.63,2.57-.61,3-1.68-.12.33,1.31-.29,1.4-.36a4.14,4.14,0,0,0,1.07-1.68c.1,1.48,1.63,2.48,2.83,1.32.77,1.84,2.33,1.79,4.05,1.37.59,2.11-1.21,1.24-1.81,2.3-1,1.76,2.61,2.52,3.59,2.18A2.82,2.82,0,0,0,40.61,28c.14,1.38,2.11.74,2.82.22.42,1.94,2.21,2.34,3.62,1,.25,3.19,4.41,3.14,3.58-.58C48.71,20.06,39.57,17.84,31.66,19.31Z" transform="translate(0)"/><path class="cls-10" d="M51.67,15.84c1.77-3.71-5.55-6.55-8.33-4.53-.43-4.57-6.19-4.84-9-1.6a5.53,5.53,0,0,0-3.65-2.12A4.65,4.65,0,0,0,26.4,8.86c1.53,0,4.13,2.94-.49,2.51-1.92-.18-3.05-.91-5,.12-1.55.84-2.6,2.31-1.13,3.74,0,0-3.43-.19-3.95,2.89-.21,1.27.31,1.58-1,2.53a3,3,0,0,1-2.85.67,5.07,5.07,0,0,0,1.75,3.26,3.48,3.48,0,0,0,3.77.11c-.13.78,2.2,7.42,3.23,6.71-1.69,1.16-2.41,3.5-.75,4.58a3.71,3.71,0,0,0,1,.4c-2.57.95-.53,4.76,2,3.51-2.2,2.61,4.33,5.67,4.47,2.53a1.94,1.94,0,0,0-1.38-2c.43.09.59,2-.55,1.53-1.69-.71,1.25-3-.29-4-.75-.46-3,0-2.15-1.35.58-1,1.85-1.52.34-2.73-.45-.36-1.24-.4-1.28-1.1s.77-1,1.08-1.38c1.06-1.49-.59-3.25-1.94-3.79.87-.05,3.32.37,3-1.27,1.36,1.18,3.36-.49,2.81-2.09.25.73,1.55.49,2,.2.81-.55.74-1.62,1.15-2.42a2.79,2.79,0,0,0,1.18,2.19,1.5,1.5,0,0,0,2.19-.56C34.19,25.51,36,27,37.5,25.16a2.27,2.27,0,0,1,.06,2.32c-.74,1-1.73-.05-2.36.43-.79.59.65,1.84,1.18,2a3.14,3.14,0,0,0,3.13-1.07,4,4,0,0,0,.42-2.35c.87,1.4,2.32,2.34,3.75.88,1,1.31,2.07,1.94,3.57.64.71,1.19.59,2.79,2.31,3,2,.29,1.88-2,1.52-3.36C50.63,26,50,22.75,52,21.28c1.21-.92,3-.33,2.43,1.25a3.14,3.14,0,0,0,1.16-4.36A5.08,5.08,0,0,0,51.67,15.84Z" transform="translate(0)"/><path class="cls-11" d="M21,41.42a1.29,1.29,0,0,0-1.25,1.31A1.23,1.23,0,0,0,21.06,44a1.29,1.29,0,0,0,1.25-1.31A1.24,1.24,0,0,0,21,41.42Z" transform="translate(0)"/><path class="cls-15" d="M30.46,14.27v0C30.47,14.21,30.46,14.21,30.46,14.27Z" transform="translate(0)"/><path class="cls-15" d="M50.89,24.82a10.94,10.94,0,0,0-.2-2.46c-.29-1.29-1-1.63-2.23-1.59a3.62,3.62,0,0,1,5.74-.69c.64-2.3-2.17-4.35-4.44-3.75.48-1.34.87-3-.45-4a4.8,4.8,0,0,0-5.19-.3c-1.25.76-2.64,2.26-4.42,1.16,1,.65,3.58-2.94.59-4.22-1.87-.8-3.48.24-4.75,1.48a4.19,4.19,0,0,0-1,1.33c-1.28-2.42-3.22-3.89-6.3-3.16,2.34,0,3.31,3.68,1.21,4.71-1.23.59-2.36-.71-3.35-1.15a5.5,5.5,0,0,0-3.33-.31,4.29,4.29,0,0,0-2.52,2c1.67-.21,2.63,3.07,6.28,2a4.21,4.21,0,0,1-4.6.76,3.52,3.52,0,0,0-3.21-.23c-1.55.84-1.16,3-1.92,4.36s-1.35,1.35-2.61,1.71a4.69,4.69,0,0,0,3.73.8c-1.11.11-1.75,1.66-1.85,2.51-.12,1.11.84,2,.68,3-.14.87-1.33,1.44-2.14,1.41a2,2,0,0,0,2.17.37c.94-.32,1.14-1.55,1.91-1.72,1.06-.23,2.16,1.54,2.15,2.36,1.58-.77-.3-3.22-1.23-3.93,1,0,3.92-.12,3.72-1.59.12.88,2,0,2.27-.48a1.72,1.72,0,0,0-.5-2.12c.59.08,1.68.65,2.15.1s-.08-1.55-.34-2c4.78,1.84,3.42-3.1.49-3,2.22-.18,2.81-.52,3.07-3.91v0c0-.06,0-.06,0,0v0c.16,2-.36,4,3,3.64-4.84,1.7-2.92,5.61,1.9,4.48-.73.17-.79,1.55.31,2.34a2.37,2.37,0,0,0,2.4-.14c.85,1.32,1.12,2.48.1,3.64,1.16.06,1.59-1.66,1.76-2.5.88.53,1.67,1.33,2.76.9.83-.32,1.27-1.22,1.8-1.84,0,1.45.56,2.53,1.44,2.72a2.68,2.68,0,0,0,2.65-.93,3.84,3.84,0,0,0,1.14,2.93,2.62,2.62,0,0,0,3.26.52,1.27,1.27,0,0,1-1.19-.72c2-.2,3.62-1.28,3.45-3.37C53.83,26.62,51,27,50.89,24.82Z" transform="translate(0)"/><path class="cls-10" d="M42.07,22c.92,3.24,3.7,4.11,5.37,1.46C45.7,25,42.86,23.7,42.07,22Z" transform="translate(0)"/><path class="cls-10" d="M20.54,25.64c2,1.65,4.31.07,3.33-2.32C23.65,24.87,21.75,26.1,20.54,25.64Z" transform="translate(0)"/><path class="cls-10" d="M47.61,24.63c-1.19,2.23,1,4,3.2,2.48C49.17,27.3,47.44,25.86,47.61,24.63Z" transform="translate(0)"/><path class="cls-10" d="M44.89,19.48a4.57,4.57,0,0,0,5.56,1.22l-.09-1.49A6.93,6.93,0,0,1,44.89,19.48Z" transform="translate(0)"/><path class="cls-10" d="M45.94,15.14a3.42,3.42,0,0,0,4.24,1.11l.25-1.68A4.33,4.33,0,0,1,45.94,15.14Z" transform="translate(0)"/><path class="cls-10" d="M15.76,23.37l.46,1.46c2.37.05,4-.93,4.72-3A6.75,6.75,0,0,1,15.76,23.37Z" transform="translate(0)"/><path class="cls-15" d="M12.65,29.67l-.06-1c-1,1.1-1.73,2.34-1,3.7.48.89,1.82,1.85,2.9,1.08.44-.3.58-1.11.67-1.58l-.06-.05C13.77,32,12.35,31,12.65,29.67Z" transform="translate(0)"/><path class="cls-15" d="M14.09,34.89l-.81.48c-1.93.05-2.91,3.24-2.08,4.62a4,4,0,0,0,2.58,1.61,4.75,4.75,0,0,1-1-3.65C13.05,36.87,14.06,36.07,14.09,34.89Z" transform="translate(0)"/><path class="cls-15" d="M55.68,31.13A4.58,4.58,0,0,0,54,30.42v.32c1.71,2.21,1.39,3.87.42,6.13,0,0,.09.08.09.06C56.87,36,58,32.73,55.68,31.13Z" transform="translate(0)"/><path class="cls-15" d="M54.47,38.89l-.8-.21c-.35,1.88,2,1.44,2.3,2.82C56.38,40.35,56.18,38.8,54.47,38.89Z" transform="translate(0)"/><path class="cls-15" d="M14.43,44a3,3,0,0,0,.19,4c.05-.6.44-1.07.44-1.69s-.41-1-.34-1.65Z" transform="translate(0)"/><path class="cls-16" d="M48.5,37.78a2.66,2.66,0,0,0-2.22-1.05c-1-.06-2.35.23-1.62,1.75.38.82,4.27,1.64,4-.2A1.34,1.34,0,0,0,48.5,37.78Z" transform="translate(0)"/><path class="cls-16" d="M30.26,37.49a2.74,2.74,0,0,0-2.62-.7c-1.1.15-2.54.8-1.49,2.41.56.85,5,.91,4.38-1.17A2,2,0,0,0,30.26,37.49Z" transform="translate(0)"/><path class="cls-10" d="M42.9,29.77c2.16.21,4-.43,7.21-.16C48.92,28.12,44.52,28.08,42.9,29.77Z" transform="translate(0)"/><path class="cls-13" d="M38.09,38.48c-.73,0-1-.3-1.54,0s.6,1.28,1.51,1.21,1.88-.93,1.61-1.24S38.91,38.47,38.09,38.48Z" transform="translate(0)"/><path class="cls-10" d="M23.61,29.31c4.06.09,5.43.27,8.24.2C30.37,27.61,25.4,27.74,23.61,29.31Z" transform="translate(0)"/><g class="cls-17"><path class="cls-18" d="M37.52,41c-2.9.06-7.17.88-9.44-.46,3.72,6.4,6.06,7.59,9,7.82,3.72.28,5-2.3,5.62-4.24a11.2,11.2,0,0,1,2.91-3.39C43.31,41.29,41,41,37.52,41Z" transform="translate(0)"/></g><path class="cls-19" d="M29.82,41.69s2.23,4.3,6.87,4.46c3,.1,4.94-.88,5.51-2.31a4,4,0,0,1,1.9-2.13A29.17,29.17,0,0,1,29.82,41.69Z" transform="translate(0)"/><path class="cls-20" d="M31.54,42.09a2.31,2.31,0,0,0,1.76,1.82,14.94,14.94,0,0,0,6.75.39c1.59-.23,2.39-2.24,2.39-2.24A31.15,31.15,0,0,1,31.54,42.09Z" transform="translate(0)"/><path class="cls-20" d="M37.89,44.44c-2.12.05-3.88-.12-4.93-.84-.75-.51-.83,0-.67.37,0,0,.66,1.77,4.17,2.23s5.16-1.65,4.78-2S39.86,44.4,37.89,44.44Z" transform="translate(0)"/><path class="cls-21" d="M31.54,42.09A2.11,2.11,0,0,0,32,43s7.94-.58,9.83.17a4.11,4.11,0,0,0,.66-1.12A35.75,35.75,0,0,1,31.54,42.09Z" transform="translate(0)"/><path class="cls-21" d="M33.59,43.87c2.81,1.81,6.24.37,6.24.37A10.94,10.94,0,0,1,33.59,43.87Z" transform="translate(0)"/><path class="cls-22" d="M28.38,31.37c-2.13-.8-3.22,3.14-1.73,4.3a2.85,2.85,0,0,1,2.07.06C30.07,34.88,30,32,28.38,31.37Z" transform="translate(0)"/><path class="cls-23" d="M28.72,32.68c-.89.13-.56,1.94.36,1.48C29.75,33.83,29.5,32.56,28.72,32.68Z" transform="translate(0)"/><path class="cls-22" d="M47.17,31.42c-2.14-1.37-4,3.64-1.64,4.36a2.56,2.56,0,0,1,1.88-.3C48.23,34.41,48.32,32.15,47.17,31.42Z" transform="translate(0)"/><path class="cls-23" d="M47.05,32.48c-.85,0-.73,1.9.19,1.56C47.9,33.79,47.8,32.47,47.05,32.48Z" transform="translate(0)"/><path class="cls-24" d="M47.23,31.31c-2-.76-2.61,1.57-2.61,1.57a1.83,1.83,0,0,1,2.29-.43,4,4,0,0,0,5-.36C49.5,32.9,48.28,31.72,47.23,31.31Z" transform="translate(0)"/><path class="cls-24" d="M27,31.48a6.29,6.29,0,0,1-5,.89,4.45,4.45,0,0,0,5.23.2,2,2,0,0,1,2.38.18S29,30.44,27,31.48Z" transform="translate(0)"/><path class="cls-12" d="M27.21,29.85c-1.13-.22-2.54-.18-2.94.61-.66,1.28,1,1.31,1.94,1.13.46-.09.87-.38,1.33-.46a3.06,3.06,0,0,1,1.85.14A3.36,3.36,0,0,0,27.21,29.85Z" transform="translate(0)"/></g></g></g></svg>