<svg xmlns="http://www.w3.org/2000/svg" xmlns:xlink="http://www.w3.org/1999/xlink" viewBox="0 0 66 66"><defs><style>.cls-1{fill:none;}.cls-2{clip-path:url(#clip-path);}.cls-3{fill:#d6bb40;}.cls-4{fill:#8e9194;}.cls-5{fill:#9fa2a6;}.cls-6{fill:#f5b28c;}.cls-7{fill:#4f3023;}.cls-8{fill:#ffcb9e;}.cls-9{fill:#bf3c1b;}.cls-10,.cls-15,.cls-9{opacity:0.3;}.cls-10{fill:#c94614;}.cls-11{fill:#693a27;}.cls-12{fill:#bf795c;}.cls-13{fill:#ffa073;}.cls-14{fill:#224245;}.cls-15{fill:#b54d26;}.cls-16{fill:#ffdfc2;}.cls-17{fill:#d4e6dd;opacity:0.7;}.cls-18{fill:#2b221c;}.cls-19{fill:#f7a286;}.cls-20{fill:#8f2722;}.cls-21{fill:#fff7eb;}.cls-22{fill:#e8dac5;}.cls-23{opacity:0.1;}</style><clipPath id="clip-path" transform="translate(0.01)"><circle class="cls-1" cx="33" cy="33" r="33"/></clipPath></defs><g id="Layer_2" data-name="Layer 2"><g id="avatars"><g class="cls-2"><rect class="cls-3" width="66" height="66"/><path class="cls-4" d="M39.32,53.38c-3.76-1.51-9.78-1-12.92.07-2,.68-1.65,7.09-1.38,12.55H40.79C41.07,60.57,41.34,54.2,39.32,53.38Z" transform="translate(0.01)"/><path class="cls-5" d="M27.18,52.43c-1.92,3.08,5.72,6.24,5.72,6.24s6.75-2.94,6-5.72C38.07,49.65,28.89,49.66,27.18,52.43Z" transform="translate(0.01)"/><path class="cls-6" d="M32.82,48.46c-2,0-4.78,1-5,3.65a2.78,2.78,0,0,0,.85,2.62,6.57,6.57,0,0,0,4.12,2,6.62,6.62,0,0,0,4.13-2,2.83,2.83,0,0,0,.85-2.62C37.6,49.47,34.8,48.46,32.82,48.46Z" transform="translate(0.01)"/><path class="cls-7" d="M43.81,9.07C35.68,7,21.84,8,16.92,14.66a8.25,8.25,0,0,0-1.68,6.52c.5,2.47,2.2,4.15,4.93,3.47a5.34,5.34,0,0,1,3.7.34c1.46.55,2.8,1.39,4.3,1.82,2.57.73,5.33.42,7.86,1.28a10.93,10.93,0,0,0,7.15.33c2.26-.68,4.79-1.05,5.17-3.75a3.25,3.25,0,0,1,.36,2.57,8.57,8.57,0,0,0,3.09-3.61,10.74,10.74,0,0,0-.29-8.44A11.6,11.6,0,0,0,43.81,9.07Z" transform="translate(0.01)"/><path class="cls-8" d="M29.76,14.76c-7.83,1.53-13.35,12.8-11.92,23.37C18.92,46,25,54.73,34.23,54.08c9.38-.67,14.05-12.31,12.84-22C45.75,21.45,40.74,12.62,29.76,14.76Z" transform="translate(0.01)"/><path class="cls-9" d="M40.09,16.69a35.44,35.44,0,0,0-9.33-1.43c-2.81,0-5.85-.2-8.47,1-1.44.63-3.21,1.5-3.75,3.05-.44,1.26-1,2.94-.25,4,1.5,2.35,4.42.94,5.53.37,2.4-1.25,13.33-.4,18.43-.4,2.12,0,5.18-.38,4.3-3.24C45.85,17.78,42.09,17.27,40.09,16.69Z" transform="translate(0.01)"/><path class="cls-8" d="M15.11,33.72c-3.85,1.06-2.3,6.68.84,7.81a7.67,7.67,0,0,0,3.11.34l.06-.1c.46-.73-.18-4.82-.42-5.59C18.11,34.23,17,33.22,15.11,33.72Z" transform="translate(0.01)"/><path class="cls-10" d="M16.46,35.79c-.86-.4-3,.32-2,2,.54-1.56,1.49-.54,1.35.58-.1.74-.9.75-.11,1.71.43.52,1.31.33,1.75,0C18.84,39.26,17.52,36.28,16.46,35.79Z" transform="translate(0.01)"/><path class="cls-7" d="M44.09,12.76a7.25,7.25,0,0,0-1.91-1.3,13.92,13.92,0,0,0-5.92-1.2c-1.58,0-3.14-.33-4.73-.32a32.45,32.45,0,0,0-5.2.49,19.49,19.49,0,0,0-5.93,1.8c-1.56.85-2.18,2.84-2.9,4.35a6.93,6.93,0,0,0-.33,2.35c-.07,1.29-.11,2.66-.05,3.95.11,2.31,3.22,2.67,4.53,1,1.12-1.42,2.7-1.78,4.49-1.85,3-.11,14.62-.66,17.35.28,1.5.51,3.5,1.29,3.8-1.1A10.55,10.55,0,0,0,46.5,17,10.7,10.7,0,0,0,44.09,12.76Z" transform="translate(0.01)"/><path class="cls-11" d="M46.13,11.66C42.22,9.44,37,9.31,32.65,9.53a26.58,26.58,0,0,0-10.43,2.78c-3.48,1.68-4.54,5.41-4,7.26,1.35-2,5.15-3.92,6.89-4.1-.18.9-1.84,2.69-2.17,3.53,1.4-.8,8.23-3.85,10-3.83-.59.67-1.94,1.54-1.85,2.53,3-.48,6.14-2.17,9.19-1.95-.94.89-2.43,1.1-3.21,2.22,2.94,0,6.19-.39,9.24-.42a12.31,12.31,0,0,0-2.8,1.6c2.42.08,5.36-.18,7.68.53A10,10,0,0,0,46.13,11.66Z" transform="translate(0.01)"/><path class="cls-12" d="M16.31,23.56c-1.07,1.72-.65,9.35-.39,10,1.84.21,4.1,2.69,4.1,2.69-.64-4.46.06-6.86.94-11.79A21.21,21.21,0,0,1,16.31,23.56Z" transform="translate(0.01)"/><path class="cls-13" d="M46.51,36.75a3.53,3.53,0,0,0-2.86-1.1c-1.23,0-2.87.41-1.79,2.17.58.94,5.47,1.68,4.92-.48A1.88,1.88,0,0,0,46.51,36.75Z" transform="translate(0.01)"/><path class="cls-13" d="M26.26,36.4a3.69,3.69,0,0,0-3.2-.37c-1.25.29-2.81,1.15-1.25,2.66.83.81,6,.29,4.87-1.76A2,2,0,0,0,26.26,36.4Z" transform="translate(0.01)"/><path class="cls-14" d="M25.4,31.22c-2-.87-3.29,2.71-1.91,3.88a2.88,2.88,0,0,1,2,.17C26.84,34.57,26.9,31.86,25.4,31.22Z" transform="translate(0.01)"/><path class="cls-15" d="M35,37.66c-1.18,0-1.65-.52-2.48,0s.36,2.06,2.45,2,3-1.51,2.55-2S36.31,37.65,35,37.66Z" transform="translate(0.01)"/><path class="cls-16" d="M34.69,33.23c-2.22-.2-2.39,4.49-1.88,4.89,1.24,1,3.84.29,4.6-.5C37.71,37.31,36.8,33.41,34.69,33.23Z" transform="translate(0.01)"/><path class="cls-14" d="M44.84,31.08c-2.05-1.23-3.56,2.73-1.87,3.85a2.62,2.62,0,0,1,2.14,0C45.93,34,45.94,31.74,44.84,31.08Z" transform="translate(0.01)"/><path class="cls-17" d="M24.43,32.09c-.82.28-.2,1.88.6,1.3C25.61,33,25.16,31.85,24.43,32.09Z" transform="translate(0.01)"/><path class="cls-17" d="M43.79,31.76c-.81.17-.42,1.76.4,1.31C44.79,32.74,44.5,31.62,43.79,31.76Z" transform="translate(0.01)"/><path class="cls-18" d="M44.72,27.45a10.76,10.76,0,0,0-3.6-.45c-.67,0-1.11.56-.88,1.5.19.74,1.67.51,3.6.74,2.09.24,3.16.67,3.37.2S46.52,28,44.72,27.45Z" transform="translate(0.01)"/><path class="cls-18" d="M27.63,27.07a14,14,0,0,0-4.08.39c-2.05.52-2.56,1.33-2.33,1.8s.93.21,3.3,0c2.18-.19,3.86.07,4.08-.67C28.88,27.65,28.39,27.1,27.63,27.07Z" transform="translate(0.01)"/><path class="cls-19" d="M34,41.11c-5.69.32-7.83-.62-9.26-.64C25.53,46,29.22,50,33.36,50c2.17,0,5.18-.2,6.78-2.68a9.78,9.78,0,0,0,1-3.1,6.47,6.47,0,0,1,2.34-3.86,1.52,1.52,0,0,0-.38-.38C42,39.13,40.57,40.73,34,41.11Z" transform="translate(0.01)"/><path class="cls-20" d="M25.59,41.12s1.71,8.17,8.16,7.8c5.82-.34,6.71-3.15,7.11-5.11a5.86,5.86,0,0,1,2.19-3.69C32.92,43.67,25.59,41.12,25.59,41.12Z" transform="translate(0.01)"/><path class="cls-21" d="M27.3,41.64A2.52,2.52,0,0,0,29.24,44a17.77,17.77,0,0,0,8.29.12c2-.42,3-3,3-3A44.87,44.87,0,0,1,27.3,41.64Z" transform="translate(0.01)"/><path class="cls-21" d="M34.81,47.26a15.64,15.64,0,0,1-5.15-.77c-.85-.34-.89.11-.76.51,0,0,.16,1.65,4.21,2,3.55.34,5.25-1.69,4.89-2.12S37.05,47.28,34.81,47.26Z" transform="translate(0.01)"/><path class="cls-22" d="M27.3,41.64a2,2,0,0,0,.28,1.06s10-1,12.3-.39a9.36,9.36,0,0,0,.68-1.22A44.61,44.61,0,0,1,27.3,41.64Z" transform="translate(0.01)"/><path class="cls-22" d="M30,46.86c3.4,1.65,7.39.29,7.39.29A16.47,16.47,0,0,1,30,46.86Z" transform="translate(0.01)"/><path class="cls-8" d="M25.05,61.33A1.79,1.79,0,0,0,22,59.47,10.89,10.89,0,0,0,20.18,66h3.59A7.36,7.36,0,0,1,25.05,61.33Z" transform="translate(0.01)"/><path class="cls-4" d="M26,53.6c-5.24,2.36-6.61,5-8.6,9,1.29.84,5.9,1.7,7.69,1.19C25.06,59.74,27.29,53,26,53.6Z" transform="translate(0.01)"/><g class="cls-23"><path d="M24.49,58.27c-1.22.2-.11,2.95,0,3.52-.06-.24-1.53-1.44-1.74-1.13s1.74,2,2.38,2.53C25.14,63.19,24.87,58.21,24.49,58.27Z" transform="translate(0.01)"/></g><path class="cls-8" d="M43.8,59.47a1.79,1.79,0,0,0-3,1.86A7.28,7.28,0,0,1,42,66h3.6A10.89,10.89,0,0,0,43.8,59.47Z" transform="translate(0.01)"/><path class="cls-4" d="M39.77,53.6c-1.27-.56,1,6.14.91,10.17,1.79.51,6.4-.35,7.69-1.19C46.38,58.57,45,56,39.77,53.6Z" transform="translate(0.01)"/><g class="cls-23"><path d="M41.3,61.79c.12-.57,1.23-3.32,0-3.52-.38-.06-.65,4.92-.65,4.92.63-.51,2.69-2.08,2.38-2.53S41.35,61.55,41.3,61.79Z" transform="translate(0.01)"/></g></g></g></g></svg>