<svg xmlns="http://www.w3.org/2000/svg" xmlns:xlink="http://www.w3.org/1999/xlink" viewBox="0 0 66 66"><defs><style>.cls-1{fill:none;}.cls-2{clip-path:url(#clip-path);}.cls-3{fill:#c3b1bf;}.cls-4{fill:#faab6e;}.cls-5{fill:#c4bab1;}.cls-6{fill:#968c83;}.cls-7{fill:#f29058;}.cls-8{fill:#2b221c;}.cls-9{fill:#bf3c1b;opacity:0.3;}.cls-10{fill:#b54319;opacity:0.5;}.cls-11{fill:#634f40;}.cls-12{fill:#1f1a17;}.cls-13{fill:#ffcb9e;}.cls-14{fill:#a87f7f;}.cls-15{fill:#8f2724;}.cls-16{fill:#fff9f0;}.cls-17{fill:#f58c53;}.cls-18{fill:#e8dac5;}</style><clipPath id="clip-path" transform="translate(0)"><circle class="cls-1" cx="33" cy="33" r="33"/></clipPath></defs><g id="Layer_2" data-name="Layer 2"><g id="avatars"><g class="cls-2"><rect class="cls-3" width="66" height="66"/><path class="cls-4" d="M26.83,59.06a2.11,2.11,0,1,0-3.2-2.76c-3.44,4-4.55,7.23-4.65,9.7h4.26C23.39,64.05,24.63,61.62,26.83,59.06Z" transform="translate(0)"/><path class="cls-4" d="M39.13,56.08a2.12,2.12,0,0,0-.22,3c2.21,2.56,3.45,5,3.6,6.94h4.25c-.1-2.47-1.21-5.72-4.65-9.7A2.1,2.1,0,0,0,39.13,56.08Z" transform="translate(0)"/><path class="cls-5" d="M41.15,61.64a11,11,0,0,1,1.13-5c.16-.31-1-2.93-9.63-2.88-8.37,0-9.38,2.73-9.27,3a16.48,16.48,0,0,1,.86,4.89c0,1.61.1,3,.18,4.32H41C41.07,64.7,41.15,63.26,41.15,61.64Z" transform="translate(0)"/><path class="cls-6" d="M27,54.57c-1.9,2.8,5.71,5.93,5.71,5.93s6.72-2.93,6-5.46C37.84,52,28.69,52.05,27,54.57Z" transform="translate(0)"/><path class="cls-7" d="M32.71,48.88a4.64,4.64,0,0,0-4.87,4.23,3.68,3.68,0,0,0,.83,3,6.07,6.07,0,0,0,4,2.32,6,6,0,0,0,4-2.32,3.65,3.65,0,0,0,.84-3A4.64,4.64,0,0,0,32.71,48.88Z" transform="translate(0)"/><path class="cls-8" d="M49,17.88c-5.09-4.71-9.35-8.42-18.49-7.47.19-.66.34-1.31.55-2-1.64.16-4.14,2.23-4.14,2.23s-3.5-.51-4.7.63a19.55,19.55,0,0,1,2.62.92c-2.05.23-11,5.05-12.14,15.77.2-.29,1.68-2,1.92-2.21a22.21,22.21,0,0,0,.49,6.48c.46,1.66,1.37,3.69,3.5,3.39,3.53-.51,7.05-1.21,10.57-1.87s7.36-.78,10.5.52c2.43,1,4.49,2.66,7.2.4,2.09-1.74,2-4,2.66-6.42.37.18,2,1.3,2.34,1.54.08-2-1.16-6-1.85-7.78.89-.25,2,0,2.85-.54C51.62,20.24,50.24,19.07,49,17.88Z" transform="translate(0)"/><path class="cls-4" d="M32.7,15.27c-8.4.1-17.06,8.62-15,18.58,1.08,5.13,1,6.37,2.71,11.55s6.77,8.76,13.93,8.88c12.15.22,13.91-10.64,13.79-20.79S41.1,15.17,32.7,15.27Z" transform="translate(0)"/><path class="cls-4" d="M15.41,31.83c-4.21.8-3,6.06.31,7.24a9.31,9.31,0,0,0,3.31.46l.07-.08c.55-.66-.05-4.15-.24-4.87C18.37,32.76,17.43,31.44,15.41,31.83Z" transform="translate(0)"/><path class="cls-9" d="M43.68,20.77a37.35,37.35,0,0,0-12-.69c-2.8.32-7-.88-9.56.18-1.7.69-2.4,3.18-3.28,5.11-.53,1.15-1.43,9.27.47,8.07C19.92,33,22,25.3,22.5,23.65c9.13,3.25,19.31,2.26,19.31,2.26s-.49-1-.8-1.56c.47.88,4.47,1.06,5.19.38C48.77,22.31,45.15,21.09,43.68,20.77Z" transform="translate(0)"/><path class="cls-8" d="M46.81,19a18.43,18.43,0,0,0-7.36-3.46c-4.47-.89-7.89-1.94-12.52.3a18.68,18.68,0,0,0-8.37,8.64A14.77,14.77,0,0,0,16.83,31c0,1.43,2.35,4.66,2.7,2.53.5-3,.09-6.13,2.9-11.59,5.14,2.29,14.46,2.69,17.69,2.95a9.86,9.86,0,0,1-1.31-1.6c.14.27,3.36.52,3.86.6,1.21.19,2.95.54,4.18,0C49.21,22.71,48.37,20.14,46.81,19Z" transform="translate(0)"/><path class="cls-10" d="M17.49,33.88c-1-.56-3.92-.38-2.94,1.41,1-1.33,2-.16,1.6.83-.26.68-1.29.5-.45,1.57a2.39,2.39,0,0,0,2.22.44C19.87,37.63,18.74,34.57,17.49,33.88Z" transform="translate(0)"/><path class="cls-11" d="M37,11.49c-2.59-.77-5.27-.45-8,0,0-.42.1-.85.13-1.27a4.81,4.81,0,0,0-1.51,1.15l-3.18-.1a3.51,3.51,0,0,1,2,1.26,22,22,0,0,0-8.24,5.28,13.42,13.42,0,0,0,2.07-.3,21.33,21.33,0,0,0-3.65,4.24,28,28,0,0,0,6.82-3.54A55.24,55.24,0,0,0,36.22,22c-.27-.73-3.57-2.64-4.94-4.33,4.4,1.3,14.64,3.72,14.64,3.72l-8-5.95c1.41.43,8.73,3.55,10.3,3.21C46.29,16.3,39.25,12.17,37,11.49Z" transform="translate(0)"/><path class="cls-10" d="M24,34.18c0,.64,1.51.34,1.94.44-.38.4-1.52.39-2,.66s-.45.48.15.47a10.62,10.62,0,0,0,2.59-.68C27.73,34.17,24.46,34,24,34.18Z" transform="translate(0)"/><path class="cls-10" d="M46.45,34.83c-.37-.28-1.32-.31-1.6-.71.38-.09,1.57.25,1.68-.38-.41-.15-3.16-.12-2.35.81a7.11,7.11,0,0,0,2.09.73C46.77,35.31,46.83,35.12,46.45,34.83Z" transform="translate(0)"/><path class="cls-12" d="M27.9,31.44c-2-.9-3.36,2.72-2,3.91a3,3,0,0,1,2,.2C29.33,34.85,29.41,32.11,27.9,31.44Z" transform="translate(0)"/><path class="cls-10" d="M36.17,37.48c-1,0-1.45-.38-2.15,0s.3,1.88,2.12,1.79,2.63-1.5,2.23-1.9S37.32,37.45,36.17,37.48Z" transform="translate(0)"/><path class="cls-13" d="M35.57,31.68c-.9.05-1.08,2.46-1.39,3.59s-.53,2.22,0,2.56c1.16.84,3.56.33,4.25-.3.27-.25-.38-1.43-.89-2.61S36.57,31.62,35.57,31.68Z" transform="translate(0)"/><path class="cls-12" d="M44.35,31.45c-2.09-1.14-3.75,3.29-1.44,3.86a2.72,2.72,0,0,1,1.79-.5C45.47,33.88,45.47,32.05,44.35,31.45Z" transform="translate(0)"/><path class="cls-14" d="M27.3,32c-.83.28-.21,1.89.6,1.32C28.49,32.85,28.05,31.71,27.3,32Z" transform="translate(0)"/><path class="cls-14" d="M43.82,32c-.79.2-.35,1.75.46,1.27C44.86,32.94,44.53,31.84,43.82,32Z" transform="translate(0)"/><path class="cls-10" d="M42.84,40.7c-.36.07.3.21,1.16.43a.49.49,0,0,1,.33.22C40.17,42.57,31.11,43,25.62,41.1l.16-.11c.84-.46,2-.45,1.69-.63a7,7,0,0,0-2.77.32c-.71.41-.74,1.79-.18,1.87s.49-.68.88-1.21c.36,1.52,2.21,7.48,9,7.8,5.07.23,6.7-1.37,7-3.84.16-1.37,2-3,3.06-3.78.07.42-.25,1,.14,1.07.56.09,1.14-.77.78-1.51S42.84,40.7,42.84,40.7Z" transform="translate(0)"/><path class="cls-15" d="M26.65,42.16s2,6.22,8,6.21c5.42,0,6.12-2.08,6.4-3.54a3.84,3.84,0,0,1,1.86-2.68A32.89,32.89,0,0,1,26.65,42.16Z" transform="translate(0)"/><path class="cls-16" d="M28.6,42.86a3.23,3.23,0,0,0,1.84,2.8,12,12,0,0,0,7.74.58c1.85-.45,3-3.43,3-3.43A52.47,52.47,0,0,1,28.6,42.86Z" transform="translate(0)"/><path class="cls-16" d="M36.06,46.19a17.08,17.08,0,0,1-6-1c-1-.44-1,.12-.85.63,0,0,.27,2.07,5,2.57,4.09.45,5.95-2.1,5.5-2.65S38.63,46.23,36.06,46.19Z" transform="translate(0)"/><path class="cls-17" d="M46.6,37a3.57,3.57,0,0,0-3-.72c-1.24.14-2.83.79-1.5,2.41.7.87,5.7,1,4.86-1.14A2,2,0,0,0,46.6,37Z" transform="translate(0)"/><path class="cls-17" d="M28.22,37c-.79-.83-2.2-.8-3.19-.66-1.29.2-2.93.93-1.49,2.59.77.88,6,.8,5.06-1.37A1.91,1.91,0,0,0,28.22,37Z" transform="translate(0)"/><path class="cls-18" d="M28.59,42.83a3.12,3.12,0,0,0,.18.88s9.76-.66,11.89.2a4.6,4.6,0,0,0,.51-1.1A60.91,60.91,0,0,1,28.59,42.83Z" transform="translate(0)"/><path class="cls-18" d="M30.63,45.24c4,2.09,8.51.4,8.51.4A17.67,17.67,0,0,1,30.63,45.24Z" transform="translate(0)"/><path class="cls-8" d="M27.41,26.6a42,42,0,0,0-4.55,2.69c.26.69.82.7,1.41.51a25.68,25.68,0,0,1,4-.95c.71.22,2.75.4,3.22-.47S27.89,26.45,27.41,26.6Z" transform="translate(0)"/><path class="cls-8" d="M39.74,28.86c.39.85,2.22.64,2.87.41a20.22,20.22,0,0,1,3.55.88c.52.17,1,.16,1.27-.54a34,34,0,0,0-4-2.59C43,26.88,39.31,27.93,39.74,28.86Z" transform="translate(0)"/></g></g></g></svg>