<svg xmlns="http://www.w3.org/2000/svg" xmlns:xlink="http://www.w3.org/1999/xlink" viewBox="0 0 96 96"><defs><style>.cls-1{fill:none;}.cls-2{clip-path:url(#clip-path);}.cls-3{fill:#fff;}.cls-4{fill:#9c552c;}.cls-5{fill:#ff9819;}.cls-6{fill:#404048;}.cls-7{fill:#141418;}.cls-8{fill:#ffc566;}.cls-9{fill:#8f4721;}.cls-10{fill:#e8dac5;}.cls-11{fill:#f2f2f2;}.cls-12{fill:#261b18;}.cls-13,.cls-14{fill:#66241b;}.cls-13{opacity:0.4;}.cls-14,.cls-18{opacity:0.7;}.cls-15{fill:#45362e;}.cls-16{fill:#d17642;}.cls-17{opacity:0.2;}.cls-18{fill:#f0ded1;}.cls-19{fill:#d47b48;}.cls-20{fill:#78231f;}.cls-21{fill:#fff9f0;}</style><clipPath id="clip-path"><circle class="cls-1" cx="48" cy="48" r="48"/></clipPath></defs><g id="Layer_2" data-name="Layer 2"><g id="Layer_4" data-name="Layer 4"><g class="cls-2"><rect class="cls-3" width="96" height="96"/><path class="cls-4" d="M67,90a13.69,13.69,0,0,1-9.49-4,2.66,2.66,0,1,1,3.7-3.82c3.32,3.2,7,2.89,9.4,1.54s4.56-4.54,3.41-9.27a2.66,2.66,0,0,1,5.18-1.25c1.51,6.26-.82,12.2-6,15.13A12.52,12.52,0,0,1,67,90Z"/><path class="cls-5" d="M58.43,79.78c2.72.9,7.5,2.86,11.78,3.09.46,3.54-.61,9-2.22,10.83C50.44,89.88,56.27,79.07,58.43,79.78Z"/><path class="cls-4" d="M80.81,64.79c1.85-3.62-3.3-11.89-11.54,3.37-2.67,4.93,1.07,5.47,4.85,7,1.88.78,4.24,2.32,5-.75.46-1.76.21-3.05.49-4.82A17.25,17.25,0,0,1,80.81,64.79Z"/><path class="cls-6" d="M64.52,47.78a1.42,1.42,0,0,0-1.94.44L56.16,57.8a1.4,1.4,0,0,0,.33,2l17,11.43a1.4,1.4,0,0,0,1.93-.44l6.42-9.57a1.41,1.41,0,0,0-.32-2Z"/><path class="cls-7" d="M63.91,47.42a1.37,1.37,0,0,0-1.87.46l-6.29,9.38a1.37,1.37,0,0,0,.29,1.9l16.25,10.9a1.38,1.38,0,0,0,1.87-.46l6.29-9.38a1.37,1.37,0,0,0-.29-1.9Z"/><path class="cls-7" d="M63.91,47.42a1.37,1.37,0,0,0-1.87.46l-6.29,9.38a1.37,1.37,0,0,0,.29,1.9l16.25,10.9a1.38,1.38,0,0,0,1.87-.46l6.29-9.38a1.37,1.37,0,0,0-.29-1.9Z"/><path class="cls-3" d="M64.6,50.2a1,1,0,0,0-1.43.27l-4.59,6.84a1.06,1.06,0,0,0,.29,1.44l12.56,8.41a1,1,0,0,0,1.44-.27l4.59-6.84a1,1,0,0,0-.3-1.43Z"/><path class="cls-4" d="M69.17,67.25c1.39,1.11,2.51,2.58,2.16,4.23-.18.9-1.11,1.91-2,1.47-1.14-.54-1.16-2.13-1.37-3.17S66.75,68,66.84,67.23C67,66.06,68.53,66.73,69.17,67.25Z"/><path class="cls-5" d="M37.9,79.87c-6,2.36-9.89,7.32-13.11,13.84A13.37,13.37,0,0,0,29.08,96H36.9C39.37,88.68,39.84,79.11,37.9,79.87Z"/><path class="cls-5" d="M47.94,78.31c-11.78.06-13.21,3.85-13,4.29.42,1.16-.32,7.19.18,13.4H60.8c.62-6.38.07-12.41.69-13.63C61.72,81.93,60.07,78.25,47.94,78.31Z"/><path class="cls-8" d="M40,79.47c-2.68,3.94,8,8.35,8,8.35s9.47-4.12,8.46-7.69C55.23,75.91,42.37,75.93,40,79.47Z"/><path class="cls-9" d="M48,71.46c-2.73,0-6.58,1.64-6.85,6-.13,2,.16,3.17,1.17,4.28C44,83.47,46,84.92,48,85s4.06-1.49,5.68-3.27c1-1.11,1.3-2.27,1.17-4.28C54.6,73.1,50.75,71.46,48,71.46Z"/><path class="cls-10" d="M57.74,89.79a67.73,67.73,0,0,0,.13-10.33,1.05,1.05,0,1,0-2.08.3,68.67,68.67,0,0,1-.15,9.93c-.1,2-.21,4.13-.29,6.31h2.11C57.54,93.87,57.64,91.77,57.74,89.79Z"/><rect class="cls-11" x="55.46" y="87.74" width="2.57" height="1.09" transform="translate(-2.11 1.39) rotate(-1.38)"/><path class="cls-10" d="M40,79.76a1.06,1.06,0,0,0-.89-1.19,1,1,0,0,0-1.19.89,67.73,67.73,0,0,0,.13,10.33c.1,2,.2,4.08.28,6.21h2.11c-.08-2.18-.19-4.31-.29-6.31A70.19,70.19,0,0,1,40,79.76Z"/><rect class="cls-11" x="38.51" y="87" width="1.09" height="2.57" transform="translate(-50.15 125.18) rotate(-88.61)"/><path class="cls-12" d="M72.71,41.75c3.25-.54,3.31-5.42-.14-6.19,3.15-1.33,3.22-6.06-1.09-7.17,4.31-2.15,2.55-7.11-1.42-6.74,2.18-3.71-1.62-6.89-5.36-4.57.92-4.07-4.71-4.94-6.86-2.61-.71-4.48-5-5-7.6-1.73-1.34-3.37-6.22-4-7,.15-3-3.73-8.34-1.64-9.22,2.72a4.1,4.1,0,0,0-7.26,3A5.22,5.22,0,0,0,20.42,20c-1.24,1.53-.82,4.25.15,5.7-5.16-.24-4.25,4.31-1.65,6.81-4,.33-5.63,6-.82,6.34-2.59,1-2.84,4.49.33,4.92-3.2,1.21-1.77,4,1,4.59-.93,2.88-.28,4,2,5.72A29.48,29.48,0,0,1,25,57.74c3.16,3.4,5.45,7.49,8.52,10.88s6.18-2.51,8.58-3.94a17.27,17.27,0,0,1,10.82-2.5c3.29.43,5.67,3.82,9,3.83,2,0,3.29-1.74,4.1-3.38.92-1.85.59-3.29,1-5.08s0-2,1.61-2.1c6.26-.53,4.8-7,3-7C74.62,48.4,76.44,43,72.71,41.75Z"/><path class="cls-4" d="M24.51,56.27c1.88,12.11,11.5,25.25,25.58,24C64.47,79,71.3,61,69.16,46.08c-2.32-16.2-10.27-29.59-27-26C30.15,22.66,22,40.09,24.51,56.27Z"/><path class="cls-13" d="M40,31.68a3.89,3.89,0,0,1-2.61-1c-.26,1.74-2.24,2.38-3.79,2.36a3.73,3.73,0,0,1-3.68,4.21c-.25,1.22-.52,2.43-.77,3.66-.44,2.1-1.36,4.16-1.47,6.31a27.83,27.83,0,0,1-3.43-10c-.56-3.16-1.14-7-.15-10.16.79-2.5,3.53-3.95,5.76-5,4.05-1.93,8.82-1.77,13.21-1.77a53.89,53.89,0,0,1,14.62,2c2.44.69,7.76,1.65,9.13,4.1,1.64,2.93-3.78,5.09-5.68,3.3-1.75,1.72-5.22.66-6.46-1.15-1.67,2-4,1.28-5.94.14-1,2.42-3.8.65-5.4,1.32-1.16.48-1.39,1.61-3.14,1.62Z"/><path class="cls-4" d="M21.71,61.54a11.71,11.71,0,0,0,4.77.43l.09-.15c.69-1.14-.42-7.4-.8-8.57-1-3-2.76-4.49-5.58-3.66C14.32,51.33,16.85,59.9,21.71,61.54Z"/><path class="cls-14" d="M24,59.36c2.12-1.39,0-5.92-1.62-6.64-1.34-.58-4.63.58-3,3.14.78-2.42,2.27-.87,2.08.84-.13,1.15-1.36,1.19-.11,2.64C22,60.12,23.28,59.8,24,59.36Z"/><path class="cls-12" d="M65.93,32.08a7.9,7.9,0,0,0,2.43-2.64c1.76-3.24.27-6.55-2.08-9.08C63.27,17.14,56,15.73,51.83,15a41,41,0,0,0-12.37-.14c-6.79.94-14.94,4.32-17,11.57-1.24,4.46-.45,9.58,0,14.1.26,2.74-.75,8,1.64,10.08,2.77,2.35,3.78-1.29,4-3.9.31-3.85.69-7.57,1.14-11.37,2.46.18,3.55-1.93,3.39-4.08,2,.44,4.4,0,5.07-2.17a5,5,0,0,0,3.23.73c1.13-.22,1.51-1.56,2.14-1.75.89-.27,2.32.87,3.4.64s1.72-1.1,2.33-2.12c1.69,2.55,5.42,1.9,7.32.05a3.88,3.88,0,0,0,6,1.78C61.16,29.05,62,33,65.93,32.08Z"/><path class="cls-15" d="M27.71,20.94c.08-2.12.06-4.07,2.67-4.3,2.2-.2,3.29,1.29,5.1,2.13.42-1.13,0-2.34.56-3.46a3.15,3.15,0,0,1,3.08-1.55c2.27,0,3.09,1.94,4.56,3.26.69-1.45,1.5-3.89,3.43-3.62a4.78,4.78,0,0,1,3.76,3.14c.9-1.54,1.94-4.16,4.12-2.83a7.16,7.16,0,0,1,3,4.8c.6-1.05,2.26-3.33,3.58-2.65,1.53.8,1.76,3.13,1.4,4.58.81-1,4-1.38,5.07-.59s.74,2.59.08,3.63c3.27,0,4.25,3.71,1,4.87-2.91,1-4.44-1.41-6.09-3.24-2.29,2.84-6.16.26-7.75-1.85-1.64,3.3-5.73,1.74-7.91.14-.53,1.41-.8,2.27-2.37,2.73a3.8,3.8,0,0,1-3.57-1c-.49,1.07-.79,1.88-2.13,2.07a3.07,3.07,0,0,1-2.76-1.37c-.16.91-.59,2.24-1.48,2.66-1.22.58-2.19-.37-3.19-.84-.09,1.21-.06,2-1.26,2.52s-1.63,0-2.69-.33c.06,1.57-.22,3.28-2.23,3.14.81,2.09.13,5.81-2.87,4.6-2.64-1.06-2.1-3.17,0-4.3-3.14-.12-2.81-5.78-.11-6.24C20.19,23.78,21.93,18.68,27.71,20.94Z"/><path class="cls-16" d="M67.33,53a3,3,0,0,1,.41.89c.88,3.28-6.46,2.46-7.35,1.06-1.67-2.64.77-3.4,2.62-3.45C64.42,51.5,66.39,51.7,67.33,53Z"/><path class="cls-16" d="M39.22,53.49a2.63,2.63,0,0,1,.58.82c1.51,3.13-5.73,3.83-7.76,2.49-2.81-1.85.47-3.77,2.39-4.11C35.91,52.43,38,52.31,39.22,53.49Z"/><path class="cls-12" d="M38,45.92c-4.32-1.08-6.93,3.76-4,5.27a9.69,9.69,0,0,1,4.26.15C41.12,50.35,41.18,46.73,38,45.92Z"/><path class="cls-17" d="M54.91,55.15c-.87-.78-2.63.13-4.3.18-1.5.05-2.84-.61-4.24,0s.26,2.63,4.25,2.46S55.67,55.81,54.91,55.15Z"/><path class="cls-16" d="M50.36,46.7c-3.41-.24-6,6.41-4.48,8.55,1,1.5,8.54,1.3,9.68-.5C56,54.1,53.61,46.92,50.36,46.7Z"/><path class="cls-18" d="M36.45,46.79c-1.74.4-.37,2.51,1.32,1.7C39,47.91,38,46.43,36.45,46.79Z"/><path class="cls-12" d="M61,37.39c-2.59.15-4.6,1.25-3.35,2.83.75,1,2.9.33,5.33.5s3.54,1.81,4.53,0S64.07,37.2,61,37.39Z"/><path class="cls-12" d="M37.46,38.24c2.87,0,5,1,3.52,2.73-.9,1-3.24.54-6,.89-2.56.32-4.06,2.14-5,.3S34,38.27,37.46,38.24Z"/><path class="cls-12" d="M64.41,44.83c-4.43-.5-6.38,4.66-3.24,5.76a9.61,9.61,0,0,1,4.24-.42C68.12,48.8,67.7,45.21,64.41,44.83Z"/><path class="cls-18" d="M63,45.89c-1.67.63,0,2.54,1.53,1.52C65.68,46.67,64.5,45.33,63,45.89Z"/><path class="cls-19" d="M42.57,59.39A36.72,36.72,0,0,1,58,58.32c3.27.53,2.7,2.68.45,3.31,3.46,2,2.87,6.88,0,9-4.41,3.3-15,4.12-19.31-.35C34.48,65.48,39,60.57,42.57,59.39Z"/><path class="cls-20" d="M38.86,66.83C40.48,70.59,53.5,70.12,57,68c3-1.82,3.58-4.18-.63-5.85.48-.18,1.15-.53,1.81-.79C47.37,60.21,37,62.56,38.86,66.83Z"/><path class="cls-21" d="M40.61,63.17c-.77.46-.61.94.47,1.33,2.43.89,6.44-.21,8.87-.35,6-.35,6.55.55,6.95-.18s1-2.73-.32-2.84C51.27,60.69,44.41,60.92,40.61,63.17Z"/><path class="cls-10" d="M41.08,64.5A21.2,21.2,0,0,1,57.4,62.63s.34-1.34-.63-1.47c-2.24-.4-13-.67-16.53,2.31C40.24,63.47,39.51,64.07,41.08,64.5Z"/></g></g></g></svg>