<svg xmlns="http://www.w3.org/2000/svg" xmlns:xlink="http://www.w3.org/1999/xlink" viewBox="0 0 96 96"><defs><style>.cls-1{fill:none;}.cls-2{clip-path:url(#clip-path);}.cls-3{fill:#f95049;}.cls-4{fill:#d47844;}.cls-5{fill:url(#linear-gradient);}.cls-6{fill:#e0e0e0;}.cls-7{opacity:0.1;}.cls-8{fill:#f2f2f2;}.cls-9{fill:#fff;}.cls-11,.cls-9{opacity:0.3;}.cls-10{fill:#231e1a;}.cls-11,.cls-12{fill:#661004;}.cls-12{opacity:0.2;}.cls-13{fill:#423631;}.cls-14{fill:#1a1614;}.cls-15{fill:#2b241e;}.cls-16{fill:#a88686;}.cls-17{fill:#d4502c;}.cls-18{fill:#66241b;opacity:0.7;}.cls-19{fill:#611f16;}</style><clipPath id="clip-path"><circle class="cls-1" cx="48" cy="48" r="48"/></clipPath><linearGradient id="linear-gradient" x1="48.75" y1="71.32" x2="48.75" y2="80.82" gradientUnits="userSpaceOnUse"><stop offset="0" stop-color="#c25421"/><stop offset="1" stop-color="#d47844"/></linearGradient></defs><g id="Layer_2" data-name="Layer 2"><g id="Layer_4" data-name="Layer 4"><g class="cls-2"><rect class="cls-3" width="96" height="96"/><path class="cls-4" d="M42.27,82.07c1.93-1.62,1.64-7-1.15-6-6.09,2.13-6,7.28-8.95,19.92h5.2C38.73,90.4,39.38,84.5,42.27,82.07Z"/><path class="cls-4" d="M54.92,82.07c-1.92-1.62-1.64-7,1.16-6,6.08,2.13,6,7.28,8.94,19.92H59.83C58.47,90.4,57.82,84.5,54.92,82.07Z"/><path class="cls-5" d="M53.64,74.79c-3.1-1.36-1-5.07-5.08-5.07S46.36,73.9,43.45,75c-6.78,2.56-6.72,6.48-2.71,10.49s11,4.59,16.55-.39S56.75,76.15,53.64,74.79Z"/><path class="cls-6" d="M57.07,88.64c2.86-6.39-.13-9.78-1.64-13.2a7.43,7.43,0,0,0-1.82-.84c.55,2.51,1.41,8.61-4.86,8.61s-5.73-5-5.27-8.43a2.17,2.17,0,0,0-1.38.63c-1.77,5.39-4.73,6.9-2,13.41.73,1.74,1.79,5.06,1.58,7.18H55.18A18.86,18.86,0,0,1,57.07,88.64Z"/><path class="cls-7" d="M42.85,89.7c.63,1.07,2.56,1.06,4.07,1.34-.26,0-.52.14-.79.18a12.67,12.67,0,0,0,6.16-.41c.57-.18,2.13-1.14,2.43-1.18a44.08,44.08,0,0,1-6.29.38C46.53,90,44.69,89.73,42.85,89.7Z"/><path class="cls-8" d="M53.11,73.94a.68.68,0,0,0-.51.81c.29,1.28,1,4.68-.4,6.48a4.18,4.18,0,0,1-3.45,1.3A4.74,4.74,0,0,1,45,81.29c-1.22-1.39-.87-3.91-.59-5.94l.06-.43a.68.68,0,0,0-1.35-.18l-.06.43c-.32,2.3-.71,5.16.91,7,1,1.13,2.58,1.7,4.75,1.7a5.46,5.46,0,0,0,4.52-1.81c1.85-2.31,1-6.18.66-7.63A.67.67,0,0,0,53.11,73.94Z"/><path class="cls-8" d="M41.83,75.16a.68.68,0,0,0-.86.44,35,35,0,0,1-1.28,3.28,13.19,13.19,0,0,0-1.37,4.9.68.68,0,0,0,.64.72h0a.68.68,0,0,0,.68-.65A11.83,11.83,0,0,1,41,79.42c.4-1,.86-2,1.32-3.39A.69.69,0,0,0,41.83,75.16Z"/><path class="cls-8" d="M56.3,75.6A.68.68,0,1,0,55,76c.45,1.37.92,2.45,1.32,3.39a11.63,11.63,0,0,1,1.26,4.43.68.68,0,0,0,.69.65h0a.68.68,0,0,0,.65-.72,13,13,0,0,0-1.38-4.9C57.18,78,56.73,76.92,56.3,75.6Z"/><path class="cls-9" d="M53.13,83.48c-3.09,1.06-6.83.64-10-.12-1.82-.42-2.85,1.56-2.3,3.24.74,2.24,4.5,2.8,7.79,2.74,6.48-.12,8.92-2.43,7.83-5.18C56.17,83.42,54.79,82.92,53.13,83.48Z"/><path class="cls-10" d="M23.45,22.12C20.74,18,24.65,14,29.16,15.83c.59-6.46,8-7.15,10.21-2.87.52-5,7.19-5.7,9.28-1.45a4.64,4.64,0,0,1,8.73,1.59c2-3.38,7-2.81,7.58,1.52,5.33-2,10.3,3.78,7.64,8C77,22,79,26.51,76.08,29.94c4.58.07,4.73,5.42,1.22,7.68,4.72.56,3.17,6.15-1.18,7,3.74,1.31,2.9,7-2,6.69,3,2.44,2.91,7.2-2.12,7.24,1.66,3.5-.89,6.81-4.23,5.79,1.76,4.42-2.39,6.26-5.75,4.8-.58,6.28-9,3.19-12.83,3.19S37,75.59,35,71.19c-4.07,3.49-9.12.36-7.68-3.8-3.63,1-7.53-.8-4.82-5.63-4.34,1.09-6.51-3-4.07-6.52a4,4,0,0,1-2.71-6.92c-4.21-.54-3.94-5.43-.55-6.93-4.21-1.89-4.34-6,.41-7.33-3.95-2.22-2.18-6.41,2.17-6.92C14.87,23.81,19,20,23.45,22.12Z"/><path class="cls-4" d="M26.94,49c.88,15.92,11.14,25.78,22.68,26.14,8.86.27,19.58-14.32,18.19-30.2C66.44,29.21,57.89,21,46.39,22S26.05,33,26.94,49Z"/><path class="cls-4" d="M24.64,57.26a8.61,8.61,0,0,0,4.22.05l.08-.16c.57-1.26-.81-7.18-1.19-8.39-.94-3-2.35-5.13-4.81-4C17.82,47.07,20.31,55.93,24.64,57.26Z"/><path class="cls-11" d="M27.21,55.13c2.36-1.31.4-6.36-1.3-7.27-1.38-.75-5,.2-3.42,3.09,1-2.52,2.47-.73,2.16,1.09-.21,1.23-1.53,1.16-.29,2.83C25,55.76,26.47,55.54,27.21,55.13Z"/><path class="cls-12" d="M41.46,24.49A58.62,58.62,0,0,1,60.31,23a6.55,6.55,0,0,1,6.39,6.15c.27,2,3.19,7.35-.41,7.76a3.53,3.53,0,0,1-2.81-1.16c-1.48,2.26-6,1-6.83-1.32-2.27,2.66-5.84,1-7.39-1.46-1.32,2.16-5.89,4.52-7.38,1.45-.69,3-6,6.26-7.58,3.1.1,2.27-1.21,7-3.59,5.8.56,3.62-.67,7.71-2.52,8.2C22,53.18,28.74,27.74,41.46,24.49Z"/><path class="cls-10" d="M26.56,50.28c4.11,2,3.38-8.92,3.5-10.31.22,1.36.67,3.07,2.12,2.65s1.4-5.17,1.69-8.07c2.17,4.88,7.32.17,7.85-2.87,1.91,3.76,6.75,3,7.48-1a4.88,4.88,0,0,0,8.52.8c.72,2.68,4.36,5.22,6.41,2.2,1.06,1.15,3.78,2.14,4.89.72.93-1.19-.94-5.42-1.36-6.65-1-2.82-2.57-5.43-5.33-6.68-11.1-5-22.39-2-32.82,3.07a12.44,12.44,0,0,0-5.42,5.06c-2.12,3.76-.85,9.43-.19,13.4.28,1.72.31,5.88,1.63,7A4.82,4.82,0,0,0,26.56,50.28Z"/><path class="cls-13" d="M20.28,27.34c-.24,2,.81,4.42,2.14,4.18-4.06.75-3.06,5.56.93,4.32-.24,7.43,7.61,1.23,7.79-3.53,1.86,1.56,3.84.31,4.54-1.89,1.86,3.14,3.91.73,4.84-1.46,2.38,2.6,5.08.89,5.92-2,2.85,3.13,10.46,5.36,12.23-.19.16,2.73,2.91,4.57,5,2.08,6,9.43,15-2.81,6.34-4.33,2.87-4.65-.91-10.51-6.67-6.12.41-4.7-4.65-4-7.25-2.2-.24-6-7.93-4.4-8.12-1.25-2.13-4.18-7.35-1.32-8,2.06-2.76-6-10.51-3.19-9,3.22-3.6-3.75-7.37,1.44-5.46,4.87C22,23.7,20.52,25.36,20.28,27.34Z"/><path class="cls-14" d="M42,51.89a4.25,4.25,0,0,0-2.92,0C37,50.31,38.41,45,41.43,46,43.68,46.81,43.88,50.73,42,51.89Z"/><path class="cls-14" d="M63.29,45.84c1.6.89,1.49,3.68.36,5a4,4,0,0,0-2.61.39C57.74,50.39,60.31,44.19,63.29,45.84Z"/><path class="cls-15" d="M68,43.74c-.63-2-3.16-2.91-4.62-3.13-1.72-.25-5.3-.09-7-.53.35,2.48,1.71,2.75,3.87,2.69C63,42.7,67.09,43.25,68,43.74Z"/><path class="cls-15" d="M33.48,44.35c.66-2.06,3.44-3,5-3.19,1.89-.28,5.84-.17,7.69-.63C45.86,43,44.37,43.3,42,43.28,39,43.24,34.48,43.84,33.48,44.35Z"/><path class="cls-11" d="M54.44,55.65c.44.42-.68,1.75-2.17,2-1.32.21-3.09-1.12-2.38-1.59s1.18,0,2.26-.15S53.93,55.17,54.44,55.65Z"/><path class="cls-14" d="M33.08,47.41a5.44,5.44,0,0,0,6.88.41l-.43-1.55S36.62,49.35,33.08,47.41Z"/><path class="cls-14" d="M69.1,47.45s-2.48,2.49-6.19-.15l.46-1.36S66.27,48.66,69.1,47.45Z"/><path class="cls-16" d="M40.07,46.92c1-.44,1.8,1.14,1,1.8C40,49.65,38.91,47.41,40.07,46.92Z"/><path class="cls-16" d="M61.81,46.46c1-.23,1.48,1.34.64,1.82C61.3,49,60.67,46.73,61.81,46.46Z"/><path class="cls-17" d="M62.53,53.51c1.65-.14,3.06.65,3.16,1.76s-1.16,2.12-2.81,2.25-3.06-.65-3.15-1.76S60.88,53.64,62.53,53.51Z"/><path class="cls-17" d="M38.66,54.1c-1.81-.15-3.37.72-3.48,1.94s1.28,2.34,3.1,2.48,3.37-.72,3.47-1.94S40.47,54.25,38.66,54.1Z"/><path class="cls-18" d="M41.06,58.79c1.46,2.73-1.91,4.07-3.33,1.4A2.51,2.51,0,0,0,41.06,58.79Z"/><path class="cls-18" d="M60.06,58.11c-.72,2.86,3,3.8,3.65,1A2.81,2.81,0,0,1,60.06,58.11Z"/><path class="cls-19" d="M50.36,67.88a12,12,0,0,1-10.8-6.45A.66.66,0,0,1,40,60.5a.87.87,0,0,1,1.06.43,10.44,10.44,0,0,0,9.65,5.5c4.68,0,8.68-2.59,10-6.44a.78.78,0,0,1,1-.44.76.76,0,0,1,.54.93c-1.5,4.45-6,7.37-11.42,7.4Z"/></g></g></g></svg>