<svg xmlns="http://www.w3.org/2000/svg" xmlns:xlink="http://www.w3.org/1999/xlink" viewBox="0 0 66 66"><defs><style>.cls-1{fill:none;}.cls-2{clip-path:url(#clip-path);}.cls-3{fill:#ed9335;}.cls-4{fill:#bcceeb;}.cls-5{fill:#379bdb;}.cls-6{opacity:0.1;}.cls-7{fill:#cbdaf2;}.cls-8{fill:#f7b07c;}.cls-9{fill:#2b221c;}.cls-10{fill:#ffcb9e;}.cls-11{fill:#bf3c1b;}.cls-11,.cls-12,.cls-20{opacity:0.3;}.cls-12{fill:#c94614;}.cls-13{fill:#45362e;}.cls-14{fill:#f7a286;}.cls-15{fill:#8f3935;}.cls-16{fill:#fff9f0;}.cls-17{fill:#e8dac5;}.cls-18{fill:#ffa073;}.cls-19{fill:#261b18;}.cls-20{fill:#b54d26;}.cls-21{fill:#ffdfc2;}.cls-22{fill:#e6d2c3;opacity:0.7;}</style><clipPath id="clip-path" transform="translate(0.01)"><circle class="cls-1" cx="33" cy="33" r="33"/></clipPath></defs><g id="Layer_2" data-name="Layer 2"><g id="avatars"><g class="cls-2"><rect class="cls-3" width="66" height="66"/><path class="cls-4" d="M43.83,55.51c-2.21-5.06-16-5.59-20.06-.15C22.08,57.61,22.38,62,23.2,66H43.88C44.62,62.24,45,58.13,43.83,55.51Z" transform="translate(0.01)"/><path class="cls-5" d="M36.18,58.77a2.51,2.51,0,0,0-2.89-1.29,2.64,2.64,0,0,0-2.2,2l1.59,1.62L32.06,66h3.59l-1-4.86Z" transform="translate(0.01)"/><path class="cls-6" d="M26.56,55.62a9.63,9.63,0,0,0,4.22,5.76l3-3.13,3.19,3c3-3,3.71-3.55,3.94-6.11S25.72,52.06,26.56,55.62Z" transform="translate(0.01)"/><path class="cls-7" d="M26.64,52.91c-1.48,4.16,3.92,7.54,3.92,7.54l3.21-2.2,3,2.07s5.93-3.38,3.68-8.23C38.44,47.73,28.36,48.09,26.64,52.91Z" transform="translate(0.01)"/><path class="cls-8" d="M31.37,48A4.61,4.61,0,0,0,28,52.19a3.56,3.56,0,0,0,1,3.2,6.76,6.76,0,0,0,2.61,1.51c.73.22,2,1.07,2.23,1.08s.52-.37,1.2-.72c1-.52,2.43-1.21,3-2.29.81-1.58,1.54-4.73,0-6S33.27,47.53,31.37,48Z" transform="translate(0.01)"/><path class="cls-9" d="M46.47,11.66c-5.24-5.58-13.93-6.17-23.76-2a19,19,0,0,0,5.11-.21c-5.17,2.31-11.27,5.35-12.6,11.25C13.7,27.4,15,35.3,18.88,35.77c3.32.41,7.38-6.71,9.65-6.08,4.78,1.33,16.66-.17,20-5,1.5-2.17,1.59-5.43.73-8.3A12.15,12.15,0,0,0,46.47,11.66Z" transform="translate(0.01)"/><path class="cls-10" d="M30.86,14.85c-8.07,1.53-13.75,12.8-12.27,23.37,1.11,7.91,7.4,16.6,16.87,15.94,9.66-.66,14.47-12.3,13.22-22C47.33,21.54,42.16,12.71,30.86,14.85Z" transform="translate(0.01)"/><path class="cls-11" d="M41.5,16.77a37.54,37.54,0,0,0-9.61-1.42c-2.89,0-6-.2-8.72,1-1.49.63-3.3,1.5-3.86,3.05-.45,1.26-1,2.94-.26,4,1.54,2.35,4.55.94,5.69.37,2.48-1.25,13.73-.4,19-.41,2.18,0,5.33-.37,4.43-3.23C47.43,17.87,43.56,17.35,41.5,16.77Z" transform="translate(0.01)"/><path class="cls-10" d="M15.77,33.81c-4,1.06-2.37,6.68.87,7.81a8.09,8.09,0,0,0,3.2.34l.06-.1c.48-.73-.19-4.83-.43-5.6C18.86,34.32,17.68,33.3,15.77,33.81Z" transform="translate(0.01)"/><path class="cls-12" d="M17.16,35.88c-.89-.4-3.11.32-2.06,2,.55-1.57,1.53-.54,1.38.57-.1.75-.93.76-.11,1.72a1.5,1.5,0,0,0,1.8,0C19.62,39.35,18.25,36.37,17.16,35.88Z" transform="translate(0.01)"/><path class="cls-9" d="M43.55,11.83c-6.1-3.1-15.47-2.3-20.59,1.4S16.4,23.73,16.4,29.76a5.66,5.66,0,0,0,2.17,4.88c1.88,1.57,1.71-3.19,1.88-5,.39-4.06,2.11-7.34,6.69-7.5,3.06-.11,15-.66,17.86.28,1.55.51,3.6,1.29,3.91-1.1a8.74,8.74,0,0,0-2.23-7.21A11.75,11.75,0,0,0,43.55,11.83Z" transform="translate(0.01)"/><path class="cls-13" d="M44.94,12.83a15.37,15.37,0,0,0-8.65-4.05c-1.62-.15-4.88-.09-6.44.58a20.55,20.55,0,0,1,2.31.91,35.66,35.66,0,0,0-6.53,2.07c-.65.29-6,3.8-6,3.8,1.48.78,3.22.49,4.82.15a16.9,16.9,0,0,1,7.32-.2c2.28.51,4.33,1.61,6.59,2.12.07-1-.91-1.85-1.34-2.53,1.29,0,6.26,3,7.28,3.83-.25-.84-1.45-2.63-1.59-3.53,1.27.18,4.14,2.67,5,4.1a10.36,10.36,0,0,0-.34-3.59A8.4,8.4,0,0,0,44.94,12.83Z" transform="translate(0.01)"/><path class="cls-14" d="M42.34,41.39c-1.75.16-3.69.23-6.15.35a70.09,70.09,0,0,1-7.79.32c-1.84-.12-2.59.09-1.38,1.48,3.48,4,5.75,4.35,8.73,4.44,4.29.12,5.93-1.79,6.54-3.7a6,6,0,0,1,1.23-1.64C44.78,41.31,44.77,41.15,42.34,41.39Z" transform="translate(0.01)"/><path class="cls-15" d="M27.36,42.43a10,10,0,0,0,8,4c3.42,0,5.65-1,6.26-2.46a4.24,4.24,0,0,1,2.11-2.13A39.7,39.7,0,0,1,27.36,42.43Z" transform="translate(0.01)"/><path class="cls-16" d="M29.34,42.75s.19,1.25,2.1,1.68a20.23,20.23,0,0,0,7.77.12,4,4,0,0,0,2.68-2.27A42.58,42.58,0,0,1,29.34,42.75Z" transform="translate(0.01)"/><path class="cls-16" d="M36.74,44.77c-2.45.13-4.47,0-5.71-.62-.88-.46-1,.06-.75.38,0,0,.82,1.7,4.88,2,3.9.29,5.87-1.8,5.42-2.15S39,44.64,36.74,44.77Z" transform="translate(0.01)"/><path class="cls-17" d="M29.34,42.75a1.89,1.89,0,0,0,.51.87s9.11-.88,11.31-.23a4.14,4.14,0,0,0,.73-1.11A49.05,49.05,0,0,1,29.34,42.75Z" transform="translate(0.01)"/><path class="cls-17" d="M31.76,44.39c3.31,1.63,7.2.1,7.2.1A14.9,14.9,0,0,1,31.76,44.39Z" transform="translate(0.01)"/><path class="cls-18" d="M47.19,36.73a3.71,3.71,0,0,0-2.95-1.1c-1.27,0-3,.4-1.84,2.16.59.94,5.63,1.68,5.06-.48A2.06,2.06,0,0,0,47.19,36.73Z" transform="translate(0.01)"/><path class="cls-18" d="M28.3,36.49c-.87-.75-2.3-.6-3.29-.38-1.3.3-2.89,1.16-1.29,2.67.85.8,6.17.28,5-1.76A1.89,1.89,0,0,0,28.3,36.49Z" transform="translate(0.01)"/><path class="cls-19" d="M26.37,31.3c-2.08-.87-3.39,2.72-2,3.89a3,3,0,0,1,2.06.17C27.86,34.66,27.92,32,26.37,31.3Z" transform="translate(0.01)"/><path class="cls-20" d="M36.25,37.75c-1.21,0-1.69-.53-2.54,0s.36,2.06,2.51,2,3.07-1.5,2.63-2S37.6,37.73,36.25,37.75Z" transform="translate(0.01)"/><path class="cls-21" d="M35.93,33.31c-2.28-.19-2.45,4.5-1.93,4.9,1.28,1,4,.29,4.73-.5C39,37.4,38.11,33.5,35.93,33.31Z" transform="translate(0.01)"/><path class="cls-19" d="M46.39,31.17c-2.11-1.23-3.67,2.73-1.92,3.85a2.8,2.8,0,0,1,2.2,0C47.51,34.1,47.53,31.83,46.39,31.17Z" transform="translate(0.01)"/><path class="cls-22" d="M25.37,32.18c-.85.28-.2,1.87.62,1.29C26.58,33.06,26.12,31.94,25.37,32.18Z" transform="translate(0.01)"/><path class="cls-22" d="M45.31,31.85c-.84.16-.44,1.75.41,1.3C46.34,32.83,46,31.71,45.31,31.85Z" transform="translate(0.01)"/><path class="cls-9" d="M28.25,27.63a12.74,12.74,0,0,0-4.94.56c-2.09.76-1.43,1.92-1.2,2.23s.29-.55,2.69-1.14c2.22-.54,4.57.1,4.81-.49C29.91,28,29,27.69,28.25,27.63Z" transform="translate(0.01)"/><path class="cls-9" d="M47,27.52a11.6,11.6,0,0,0-5,0c-.73.16-1.63.65-1.26,1.44.29.63,2.58-.36,4.84,0,2.45.37,2.59,1.31,2.79.94S49.14,28.13,47,27.52Z" transform="translate(0.01)"/><path class="cls-4" d="M26.36,57.89,26,53.41c-6.62,1.53-8.66,6.93-9,12.59h6.62S24,59,26.36,57.89Z" transform="translate(0.01)"/><path class="cls-4" d="M41.53,53.41l-.35,4.48C43.55,59,43.88,66,43.88,66h6.61C50.18,60.34,48.14,54.94,41.53,53.41Z" transform="translate(0.01)"/></g></g></g></svg>