<svg xmlns="http://www.w3.org/2000/svg" xmlns:xlink="http://www.w3.org/1999/xlink" viewBox="0 0 66 66"><defs><style>.cls-1{fill:none;}.cls-2{clip-path:url(#clip-path);}.cls-3{fill:#7997a0;}.cls-4{fill:#e0e0e0;}.cls-5{fill:#ebebeb;}.cls-6{fill:#f2b081;}.cls-7{opacity:0.1;}.cls-8{fill:#322b2a;}.cls-9{fill:#ffcb9e;}.cls-10{fill:#1b2c33;}.cls-11{fill:#c94614;opacity:0.3;}.cls-12{fill:#ffe1c7;}.cls-13{fill:#a5abb8;}.cls-14{fill:#423736;}.cls-15{fill:#5e0900;opacity:0.15;}.cls-16{fill:#c96e53;}.cls-17{fill:#cf1f3a;}.cls-18{fill:#f22944;}.cls-19{fill:#ff677b;}.cls-20{fill:#ff3e4a;}.cls-21{fill:#ff8a9a;}.cls-22{fill:#e3203d;}</style><clipPath id="clip-path" transform="translate(0.01)"><circle class="cls-1" cx="33" cy="33" r="33"/></clipPath></defs><g id="Layer_2" data-name="Layer 2"><g id="avatars"><g class="cls-2"><rect class="cls-3" width="66" height="66"/><path class="cls-4" d="M40.75,52.39c-3.35-1.23-11.07-1.72-15.08,0-2.16.92-1.86,7.75-1.56,13.61H42.27C42.54,60.08,42.86,53.16,40.75,52.39Z" transform="translate(0.01)"/><path class="cls-5" d="M26.76,52.4c-.77,2.89,6.42,5.94,6.42,5.94s8.14-3.28,6.1-6.48C37.45,49,27.68,49,26.76,52.4Z" transform="translate(0.01)"/><path class="cls-6" d="M31.28,47A4.42,4.42,0,0,0,28,51.06a3.44,3.44,0,0,0,.93,3.06,10.52,10.52,0,0,0,2.59,1.75,8.07,8.07,0,0,0,1.91.58,6.54,6.54,0,0,0,1.27-.55c1-.49,2.33-1.15,2.85-2.18.78-1.52,1.47-4.52,0-5.7S33.09,46.61,31.28,47Z" transform="translate(0.01)"/><path class="cls-4" d="M25.62,52.39c-5.08,2.49-7.24,5.65-10.1,10.86A14.43,14.43,0,0,0,20.92,66H24C24.66,60.34,27,51.69,25.62,52.39Z" transform="translate(0.01)"/><path class="cls-5" d="M15.85,62.44,15,64a28.93,28.93,0,0,0,4.18,2h5l0-.41A22.06,22.06,0,0,1,15.85,62.44Z" transform="translate(0.01)"/><g class="cls-7"><path d="M23.59,63.51c0-.34-1.49-2.3-1.78-1.9-.42.57,1.65,3.16,2.28,4,0,0,.47-7,0-7C22.72,58.65,23.55,62.7,23.59,63.51Z" transform="translate(0.01)"/></g><path class="cls-4" d="M40.75,52.39c-1.43-.7,1,8,1.59,13.61h3.11a14.37,14.37,0,0,0,5.39-2.75C48,58,45.83,54.88,40.75,52.39Z" transform="translate(0.01)"/><path class="cls-5" d="M50.52,62.44a22,22,0,0,1-8.25,3.15V66h5a28.87,28.87,0,0,0,4.17-2Z" transform="translate(0.01)"/><g class="cls-7"><path d="M42.78,63.51c0-.81.87-4.86-.54-4.91-.44,0,0,7,0,7,.64-.82,2.71-3.41,2.29-4C44.27,61.21,42.8,63.17,42.78,63.51Z" transform="translate(0.01)"/></g><path class="cls-8" d="M31.57,9.92a17.35,17.35,0,0,0-9.32,2.86A8.92,8.92,0,0,0,19,16.85c-.28.77-.75,1.39-1.09,2.11-.53,1.11-2.86,6.94-3,9-.05.89,0,3.69.07,4.56a8.77,8.77,0,0,0,2,4.88,2,2,0,0,0,1.81.63c4.36-.67,8.65-1.66,13-2.49,4-.77,8.38.23,12.43.72,3.17.39,3.19-1,3.49-3.53.56-4.79.12-6.58.46-8.51C49.62,16,43.31,9.64,31.57,9.92Z" transform="translate(0.01)"/><path class="cls-9" d="M31.94,16c-7.58,1-13.45,11.55-12.63,21.74.62,7.64,6,16.28,14.85,16.13,9-.15,14.1-11,13.45-20.43C46.9,23.23,42.56,14.52,31.94,16Z" transform="translate(0.01)"/><path class="cls-10" d="M28.22,31.58c-1.88-.93-3.29,2.43-2,3.62a2.82,2.82,0,0,1,1.91.27C29.43,34.87,29.63,32.28,28.22,31.58Z" transform="translate(0.01)"/><path class="cls-11" d="M36.68,38.51c-1,0-1.38-.3-2.07-.07s.19,1.29,1.94,1.3,2.62-.93,2.25-1.21S37.78,38.54,36.68,38.51Z" transform="translate(0.01)"/><path class="cls-12" d="M36.4,34.56c-.86,0-1.16,1.63-1.52,2.39s-.62,1.48-.18,1.73a5.69,5.69,0,0,0,4.1,0c.28-.16-.29-1-.72-1.8S37.37,34.55,36.4,34.56Z" transform="translate(0.01)"/><path class="cls-10" d="M44.93,32.37c-1.91-1.29-3.56,2.42-2,3.59a2.5,2.5,0,0,1,2,.1C45.82,35.23,46,33.06,44.93,32.37Z" transform="translate(0.01)"/><path class="cls-13" d="M28,33.09c-.8.22-.29,1.78.51,1.26C29.09,34,28.72,32.89,28,33.09Z" transform="translate(0.01)"/><path class="cls-13" d="M44.64,33.68c-.78.11-.49,1.65.32,1.27C45.55,34.67,45.34,33.58,44.64,33.68Z" transform="translate(0.01)"/><path class="cls-9" d="M16.92,33.38c-3.74.81-2.55,6.27.4,7.51a7.32,7.32,0,0,0,3,.49.47.47,0,0,1,.06-.09c.48-.67-.11-4.3-.3-5C19.57,34.35,18.72,33,16.92,33.38Z" transform="translate(0.01)"/><path class="cls-11" d="M18.11,35.43c-.81-.43-2.91.15-2,1.82.59-1.48,1.45-.44,1.25.62-.13.71-.9.67-.18,1.63.38.52,1.23.38,1.67.14C20.2,38.87,19.09,35.94,18.11,35.43Z" transform="translate(0.01)"/><path class="cls-8" d="M45.93,16.43a15.42,15.42,0,0,0-9.06-5.93,16.29,16.29,0,0,0-6.88.15c-3.32.73-5.27,2-7.95,4.11-3.12,2.43-3.95,5.43-4.22,9.25-.2,2.78.77,5.41.73,8.15a9.37,9.37,0,0,0,1.31,4.41,3.42,3.42,0,0,0,2,.13c-1.27-1.32-1.64-4.75-.39-7.88A31,31,0,0,0,22.84,25c.25-.94.37-1.61,1.45-1.63,1.47,0,2.27,1.38,3.62,1.64.46.09.95.14,1.42.2a29.8,29.8,0,0,0,4.33.15c2-.07,4,0,6,0,1.43,0,2.83.12,4.26,0H44c1,0,2.27.09,3.17-.52a3.59,3.59,0,0,0,1.4-3.58A14.35,14.35,0,0,0,45.93,16.43Z" transform="translate(0.01)"/><path class="cls-8" d="M27.29,27.85A4.25,4.25,0,0,0,24,30.22a.47.47,0,0,0,.71.57,8.78,8.78,0,0,1,2.73-1,6.53,6.53,0,0,1,2.91.31.68.68,0,0,0,.82-1C30.5,28,28.41,27.68,27.29,27.85Z" transform="translate(0.01)"/><path class="cls-8" d="M44.41,28.43c-1-.05-3.07.57-3.53,1.58a.6.6,0,0,0,.82.79,6.41,6.41,0,0,1,2.64-.67,8,8,0,0,1,2.45.82c.54.2.72-.29.59-.55A3.74,3.74,0,0,0,44.41,28.43Z" transform="translate(0.01)"/><path class="cls-12" d="M46.28,37.87a3.39,3.39,0,0,0-2.83-.81c-1.17.08-2.7.63-1.52,2.22.63.85,5.36,1.14,4.65-.87A1.57,1.57,0,0,0,46.28,37.87Z" transform="translate(0.01)"/><path class="cls-12" d="M28.62,37.23a3.57,3.57,0,0,0-2.94-.94c-1.23.05-2.85.57-1.67,2.28.63.91,5.59,1.37,4.91-.76A1.88,1.88,0,0,0,28.62,37.23Z" transform="translate(0.01)"/><path class="cls-8" d="M40.91,8.5C36.74,9.74,32.32,9.8,30.25,10c-1.06.1-3,.39-3.5,1.54,1.23.3,2.55.34,3.8.58a48.38,48.38,0,0,0,10.61.79c1.1-.05,2.32-1.41,2.92-2-1.2-.11-2.9-.36-4.39-.52A8.48,8.48,0,0,0,40.91,8.5Z" transform="translate(0.01)"/><path class="cls-14" d="M46.47,17.36a14.59,14.59,0,0,0-9.4-6,22.73,22.73,0,0,0-9.68.22,11.24,11.24,0,0,0-4.56,2.51c-1.35,1.27-2.62,3.41-1.1,5.06A48.31,48.31,0,0,0,27.65,24c-.12-.81,0-1.66,0-2.43A89.53,89.53,0,0,1,37,24.9a9.71,9.71,0,0,1,.39-2.29,12.35,12.35,0,0,1,5.76,2.48c.13-1,.55-1.94.69-2.93a12.13,12.13,0,0,1,5.81,2,25.5,25.5,0,0,0-2.06-5.12A18.11,18.11,0,0,0,46.47,17.36Z" transform="translate(0.01)"/><path class="cls-15" d="M46.31,20.84a3.32,3.32,0,0,0-1.4-1.33A34.7,34.7,0,0,0,32.5,16.18c-2.73-.19-5.7-.51-8.31.51a11.91,11.91,0,0,0-6,4.95c-.59,1.05-2.69,3.57-2.09,4.91.69,1.55,2.92.38,4-.21,1.77,2.24,3.86,5.16,7,4.11,9.86-3.33,15.53-1.61,17.48-1.56.73,0,2,.46,2.71.24,1.95-.62-.21-5.52-.45-6.7A4.08,4.08,0,0,0,46.31,20.84Z" transform="translate(0.01)"/><path class="cls-16" d="M25.87,42.27c.85,2.16,3.36,1.14,2.49-1.06A1.85,1.85,0,0,1,25.87,42.27Z" transform="translate(0.01)"/><path class="cls-16" d="M42.13,41c-.7,2.27,1.89,3.08,2.57.86A1.84,1.84,0,0,1,42.13,41Z" transform="translate(0.01)"/><path class="cls-16" d="M43.21,42.15a.57.57,0,0,0-.76.29,7.11,7.11,0,0,1-6.25,4.19,8.75,8.75,0,0,1-8.06-3.83.58.58,0,0,0-1,.62,9.93,9.93,0,0,0,9.13,4.37,9.48,9.48,0,0,0,2.54-.53,8,8,0,0,0,4.68-4.35A.58.58,0,0,0,43.21,42.15Z" transform="translate(0.01)"/><path class="cls-17" d="M29.75,6.74C17,8.21,14.94,20.17,14.07,24.67c-.63,3.25,3.66,1.55,6.53,0,.31-.17.63-.32.94-.47,6.29-2.79,13-1.71,19.59-1.73a29.45,29.45,0,0,1,7.64.47C51.18,23.52,48.84,4.54,29.75,6.74Z" transform="translate(0.01)"/><path class="cls-18" d="M42.4,9.91A16,16,0,0,0,32.51,7c-4.24,0-8.43,1.38-10.29,2.92a20.38,20.38,0,0,0,.05,10.71c.5,1.89,1.45.55,4.32-.32,8.12-2.46,13.61-1.62,19.85,0,1.06.27,2.31.76,2.24-.22A14.91,14.91,0,0,0,44.75,12,14.23,14.23,0,0,0,42.4,9.91Z" transform="translate(0.01)"/><path class="cls-19" d="M29.52,11.49c-3,1.14-1.86,6.09,1.26,5.56a23.35,23.35,0,0,1,8.72-.16c1.5.27,5.16,1.69,4.9-1.28C43.92,10.16,32.85,10.22,29.52,11.49Z" transform="translate(0.01)"/><path class="cls-19" d="M26.42,13.63h0a.23.23,0,0,0,.25-.2s0-.07,0-.1a4.55,4.55,0,0,1,.17-.75.22.22,0,0,0-.14-.29.23.23,0,0,0-.29.14,4.68,4.68,0,0,0-.2.84s0,.07,0,.1A.23.23,0,0,0,26.42,13.63Z" transform="translate(0.01)"/><path class="cls-19" d="M28,17.44a.23.23,0,0,0-.32.34,3.15,3.15,0,0,0,.83.55l.06,0a.23.23,0,0,0,.24-.14.22.22,0,0,0-.12-.3A2.56,2.56,0,0,1,28,17.44Z" transform="translate(0.01)"/><path class="cls-19" d="M27,11.91a.25.25,0,0,0,.23-.1,2.86,2.86,0,0,1,.55-.64.23.23,0,0,0,0-.33.22.22,0,0,0-.32,0,3.25,3.25,0,0,0-.64.74.23.23,0,0,0,.07.32Z" transform="translate(0.01)"/><path class="cls-19" d="M27,16a.23.23,0,0,0-.3-.13.22.22,0,0,0-.13.3A4.24,4.24,0,0,0,27,17a.25.25,0,0,0,.16.11.24.24,0,0,0,.16,0,.23.23,0,0,0,.07-.32A3.71,3.71,0,0,1,27,16Z" transform="translate(0.01)"/><path class="cls-19" d="M26.77,15.17a5.2,5.2,0,0,1-.12-.87.22.22,0,0,0-.24-.22.23.23,0,0,0-.22.24,7.47,7.47,0,0,0,.12.95.25.25,0,0,0,.2.18h.08A.23.23,0,0,0,26.77,15.17Z" transform="translate(0.01)"/><path class="cls-19" d="M30.15,10.22h.08c.28-.05.58-.11.89-.15a.24.24,0,0,0,.2-.26.24.24,0,0,0-.27-.2l-.91.16A.23.23,0,0,0,30,10,.22.22,0,0,0,30.15,10.22Z" transform="translate(0.01)"/><path class="cls-19" d="M44.33,13.69a.22.22,0,0,0,.17.11.21.21,0,0,0,.15,0,.23.23,0,0,0,.08-.31,5.21,5.21,0,0,0-.56-.77.24.24,0,0,0-.33,0,.25.25,0,0,0,0,.33A5.68,5.68,0,0,1,44.33,13.69Z" transform="translate(0.01)"/><path class="cls-19" d="M44.71,14.48a4.71,4.71,0,0,1,.22.84.25.25,0,0,0,.2.19h.07a.24.24,0,0,0,.19-.27,5.41,5.41,0,0,0-.25-.92.24.24,0,0,0-.3-.14A.23.23,0,0,0,44.71,14.48Z" transform="translate(0.01)"/><path class="cls-19" d="M37.43,10.1c.3,0,.6.09.89.15h0a.23.23,0,1,0,.07-.45l-.91-.16h0a.23.23,0,0,0-.26.19A.24.24,0,0,0,37.43,10.1Z" transform="translate(0.01)"/><path class="cls-19" d="M32,10H32l.9-.07a.22.22,0,0,0,.22-.24.23.23,0,0,0-.24-.22L32,9.5a.24.24,0,0,0-.21.25A.24.24,0,0,0,32,10Z" transform="translate(0.01)"/><path class="cls-19" d="M35.62,9.9h0l.9.08a.23.23,0,0,0,.25-.2.24.24,0,0,0-.2-.26l-.92-.08a.24.24,0,0,0-.25.22A.23.23,0,0,0,35.62,9.9Z" transform="translate(0.01)"/><path class="cls-19" d="M33.79,9.86h.94a.24.24,0,0,0,0-.47h-.92a.23.23,0,0,0-.23.23A.24.24,0,0,0,33.79,9.86Z" transform="translate(0.01)"/><path class="cls-19" d="M28.39,10.73a.29.29,0,0,0,.13,0c.25-.1.53-.2.84-.29a.23.23,0,0,0,.16-.28.22.22,0,0,0-.29-.16,7.11,7.11,0,0,0-.89.3h0a.23.23,0,0,0-.11.3A.23.23,0,0,0,28.39,10.73Z" transform="translate(0.01)"/><path class="cls-19" d="M43,18.21a7.36,7.36,0,0,1-.88-.06.23.23,0,0,0-.26.19.24.24,0,0,0,.2.27,8.52,8.52,0,0,0,.94.07.23.23,0,0,0,.23-.23A.23.23,0,0,0,43,18.21Z" transform="translate(0.01)"/><path class="cls-19" d="M41.93,11a8.37,8.37,0,0,0-.85-.39.22.22,0,0,0-.3.13.23.23,0,0,0,.13.3,7.43,7.43,0,0,1,.81.37l.07,0a.22.22,0,0,0,.24-.12A.22.22,0,0,0,41.93,11Z" transform="translate(0.01)"/><path class="cls-19" d="M41.26,18l-.45-.1-.45-.09a.24.24,0,0,0-.27.18.23.23,0,0,0,.18.27l.44.1.45.09h0a.23.23,0,0,0,.26-.18A.24.24,0,0,0,41.26,18Z" transform="translate(0.01)"/><path class="cls-19" d="M42.74,11.45a.23.23,0,0,0-.25.39,6.24,6.24,0,0,1,.71.53.16.16,0,0,0,.11.05.21.21,0,0,0,.21-.08.23.23,0,0,0,0-.32A7.53,7.53,0,0,0,42.74,11.45Z" transform="translate(0.01)"/><path class="cls-19" d="M45.25,16a.22.22,0,0,0-.23.23,4.41,4.41,0,0,1,0,.54,2.27,2.27,0,0,1-.06.3.25.25,0,0,0,.16.29h0a.24.24,0,0,0,.26-.16c0-.12.05-.24.07-.36a4,4,0,0,0,0-.62A.22.22,0,0,0,45.25,16Z" transform="translate(0.01)"/><path class="cls-19" d="M44.54,17.72a1.42,1.42,0,0,1-.68.39.23.23,0,0,0-.15.29.21.21,0,0,0,.19.16.14.14,0,0,0,.09,0,2.11,2.11,0,0,0,.89-.51.25.25,0,0,0,0-.33A.24.24,0,0,0,44.54,17.72Z" transform="translate(0.01)"/><path class="cls-19" d="M40.36,10.56a.23.23,0,0,0-.15-.29c-.29-.1-.59-.18-.89-.27a.24.24,0,0,0-.28.17.24.24,0,0,0,.16.29c.3.07.59.16.87.25h0A.25.25,0,0,0,40.36,10.56Z" transform="translate(0.01)"/><path class="cls-19" d="M30.3,18l-.29.06a2.19,2.19,0,0,1-.57,0,.25.25,0,0,0-.24.22.23.23,0,0,0,.2.24h0a2.65,2.65,0,0,0,.68-.06l.28-.05a.24.24,0,0,0,.19-.27A.24.24,0,0,0,30.3,18Z" transform="translate(0.01)"/><path class="cls-19" d="M32.1,17.67l-.9.16a.23.23,0,0,0-.19.27.22.22,0,0,0,.2.18h.07l.9-.15a.24.24,0,0,0,.19-.27A.24.24,0,0,0,32.1,17.67Z" transform="translate(0.01)"/><path class="cls-19" d="M35.78,17.35l-.93,0a.23.23,0,0,0,0,.46s0,0,0,0l.91,0a.23.23,0,0,0,.23-.23A.23.23,0,0,0,35.78,17.35Z" transform="translate(0.01)"/><path class="cls-19" d="M33.93,17.43l-.92.11a.24.24,0,0,0-.2.26A.23.23,0,0,0,33,18h.06c.3,0,.61-.08.9-.1a.24.24,0,0,0,.21-.26A.23.23,0,0,0,33.93,17.43Z" transform="translate(0.01)"/><path class="cls-19" d="M37.62,17.42l-.92-.05a.22.22,0,0,0-.24.22.23.23,0,0,0,.2.24h0c.29,0,.6,0,.9.06a.24.24,0,0,0,.25-.22A.23.23,0,0,0,37.62,17.42Z" transform="translate(0.01)"/><path class="cls-19" d="M39.45,17.64l-.91-.12a.23.23,0,0,0-.26.2.24.24,0,0,0,.2.26h0l.9.12h0a.23.23,0,1,0,.07-.46Z" transform="translate(0.01)"/><path class="cls-17" d="M49.44,22.26c-2.21-3-21.35-4.72-29.78,2.55,3,2.6,3,5.12,7.47,4.07C30.72,28,34.28,27,38,27.1c6.72.11,12.94,1.3,15.81,4.28,2.67,1,1-1.49.34-2.43C52.41,26.38,51.06,24.44,49.44,22.26Z" transform="translate(0.01)"/><path class="cls-20" d="M49.18,22.33C47,19.41,28.63,17.11,20.39,24.22c3.76,3.25,3.23,4.17,8.89,2.85,6.22-1.46,19.48-2,24.2,2.9,1.7,1.5,1.53.5.26-1.1C51.86,26.51,50.77,24.46,49.18,22.33Z" transform="translate(0.01)"/><path class="cls-18" d="M18.39,23.58c-1.24.82-2.38,1.09-3.21.68s-.63.26-.71.84.83,1.18,3.14.33a14,14,0,0,0,4.47-3.18,7.41,7.41,0,0,1-.46-1.72A24.26,24.26,0,0,1,18.39,23.58Z" transform="translate(0.01)"/><path class="cls-21" d="M35,26c-4.77.31-7.9,1.68-10.14,1.25a7.39,7.39,0,0,1-3.82-2.44s1.31,2.63,3.72,3.12,3.75-.89,10.33-1.54a44.58,44.58,0,0,1,12,.46A45.12,45.12,0,0,0,35,26Z" transform="translate(0.01)"/><path class="cls-22" d="M30.28,25.34c-4.39.7-6,.72-8.08-1.34,0,0,.94,2.34,2.89,2.52,2.72.26,5-1.14,12.94-1.39A28.87,28.87,0,0,0,30.28,25.34Z" transform="translate(0.01)"/><path class="cls-22" d="M43.27,25.32s6.63.82,9.4,3l-.52-.83A21.86,21.86,0,0,0,43.27,25.32Z" transform="translate(0.01)"/></g></g></g></svg>