<svg xmlns="http://www.w3.org/2000/svg" xmlns:xlink="http://www.w3.org/1999/xlink" viewBox="0 0 66 66"><defs><style>.cls-1{fill:none;}.cls-2{clip-path:url(#clip-path);}.cls-3{fill:#c3b1bf;}.cls-4{fill:#fec391;}.cls-5{fill:url(#linear-gradient);}.cls-6{fill:#e0e0e0;}.cls-7{opacity:0.1;}.cls-8{fill:#f2f2f2;}.cls-9{fill:#fff;}.cls-18,.cls-9{opacity:0.3;}.cls-10{fill:#d4a070;}.cls-11{fill:#f2d89b;}.cls-12{fill:#cf854d;opacity:0.5;}.cls-13,.cls-22{opacity:0.7;}.cls-14{fill:#ab6a3f;}.cls-15{fill:#f29f63;}.cls-16{fill:#e89361;}.cls-17{fill:#ffbc82;}.cls-18{fill:#bf3c1b;}.cls-19{fill:#694330;}.cls-20{fill:#fae7bb;}.cls-21{fill:#261b18;}.cls-22{fill:#e6d2c3;}.cls-23{fill:#fa9769;}.cls-24{fill:#1f1a17;}.cls-25{fill:#de6049;}</style><clipPath id="clip-path"><circle class="cls-1" cx="33" cy="33" r="33"/></clipPath><linearGradient id="linear-gradient" x1="36.2" y1="51.84" x2="36.2" y2="56.54" gradientUnits="userSpaceOnUse"><stop offset="0" stop-color="#ee996d"/><stop offset="0.02" stop-color="#ee9a6e"/><stop offset="0.37" stop-color="#f8b181"/><stop offset="0.71" stop-color="#fdbf8d"/><stop offset="1" stop-color="#ffc491"/></linearGradient></defs><g id="Layer_2" data-name="Layer 2"><g id="avatars"><g class="cls-2"><rect class="cls-3" width="66" height="66"/><path class="cls-4" d="M32.42,58.23a1.58,1.58,0,0,0-.36-3.13c-3.54.43-4.19,3.65-4.72,6.24-.36,1.77-.73,3.59-1.86,4.63l0,0h3.75a17.77,17.77,0,0,0,1.16-4C30.93,59.2,31.27,58.37,32.42,58.23Z"/><path class="cls-4" d="M45.06,61.34c-.52-2.59-1.18-5.81-4.72-6.24A1.58,1.58,0,0,0,40,58.23c1.15.14,1.49,1,2.05,3.75a17.77,17.77,0,0,0,1.16,4h3.75l0,0C45.79,64.93,45.42,63.11,45.06,61.34Z"/><path class="cls-5" d="M39.48,54.17c-2.08-.91-.68-3.39-3.41-3.39s-1.47,2.8-3.42,3.54c-4.53,1.71-4.5,4.34-1.81,7s7.4,3.07,11.08-.26S41.56,55.08,39.48,54.17Z"/><path class="cls-6" d="M41.77,63.44c1.92-4.28-.09-6.54-1.09-8.84A5.39,5.39,0,0,0,39.45,54c.38,1.68.95,5.77-3.25,5.77s-3.83-3.38-3.53-5.65a1.51,1.51,0,0,0-.92.42c-1.18,3.61-3.16,4.63-1.34,9A17.61,17.61,0,0,1,31.33,66h9.36A20.49,20.49,0,0,1,41.77,63.44Z"/><path class="cls-7" d="M32.25,64.15c.43.72,1.72.71,2.73.89-.18,0-.35.1-.53.13a8.51,8.51,0,0,0,4.12-.28c.38-.11,1.42-.76,1.63-.78a31.1,31.1,0,0,1-4.21.25C34.72,64.33,33.49,64.17,32.25,64.15Z"/><path class="cls-8" d="M39.12,53.6a.45.45,0,0,0-.34.54c.19.86.7,3.13-.26,4.34a2.8,2.8,0,0,1-2.32.87,3.21,3.21,0,0,1-2.49-.82c-.81-.93-.58-2.62-.39-4l0-.29a.46.46,0,0,0-.4-.51.44.44,0,0,0-.51.39l0,.29c-.21,1.54-.47,3.45.61,4.7a4,4,0,0,0,3.18,1.13,3.64,3.64,0,0,0,3-1.21c1.24-1.55.66-4.13.44-5.11A.46.46,0,0,0,39.12,53.6Z"/><path class="cls-8" d="M31.57,54.42a.44.44,0,0,0-.57.29c-.3.89-.6,1.59-.86,2.2a8.57,8.57,0,0,0-.92,3.28.46.46,0,0,0,.43.48h0a.45.45,0,0,0,.45-.44,8,8,0,0,1,.85-3c.27-.63.58-1.35.88-2.27A.46.46,0,0,0,31.57,54.42Z"/><path class="cls-8" d="M41.25,54.71a.46.46,0,0,0-.87.29c.31.92.62,1.64.89,2.27a7.81,7.81,0,0,1,.84,3,.47.47,0,0,0,.46.44h0a.47.47,0,0,0,.44-.48,8.94,8.94,0,0,0-.92-3.28A22.18,22.18,0,0,1,41.25,54.71Z"/><path class="cls-9" d="M39,59.82a12.67,12.67,0,0,1-6.69-.08c-1.21-.29-1.9,1-1.53,2.16.49,1.5,3,1.88,5.21,1.84,4.34-.08,6-1.63,5.24-3.47C41,59.77,40.06,59.44,39,59.82Z"/><path class="cls-10" d="M28.18,33.77a5.48,5.48,0,0,0-2.95-1.49,7,7,0,0,0-4.69.8,13.06,13.06,0,0,0-4,3.66c-.86,1.22-2.3,2.42-2.6,3.93-.22,1.08.21,2.26,1.31,1.17A11.84,11.84,0,0,0,15,45.35c.05,1.33.78,2.35,1.87.88-.05,1.11-.15,5.87,1.67,3.31.26.87.15,2.3.81,3,.81.88,1.59-.35,1.88-1,.13.76.28,1.95,1.29,2.07s1.69-1.15,1.95-1.89c.37,1.92,1.52.51,2.2-.26.63,1.44,2.28,1,3.25,0,2.62-2.57,2-7.08,1.68-10.35A11.93,11.93,0,0,0,28.18,33.77Z"/><path class="cls-11" d="M28.55,32.1h0c-14.8.11-16.95,8-17.86,11.36l-.06.22a1.15,1.15,0,0,0,2.22.61l.06-.22c.91-3.34,2.61-9.57,15.66-9.67a1.15,1.15,0,0,0,0-2.3Z"/><path class="cls-11" d="M28.32,33.81C16.59,33.53,12.16,43.62,11.47,49a1.16,1.16,0,0,0,1,1.29h.15a1.15,1.15,0,0,0,1.14-1c.07-.55,1.82-13.2,14-13.2h.48A1.14,1.14,0,0,0,29.44,35,1.15,1.15,0,0,0,28.32,33.81Z"/><path class="cls-11" d="M28,32.7c-7.88,4.17-12.5,9.93-14.54,18.14a1.14,1.14,0,0,0,.84,1.39.86.86,0,0,0,.28,0,1.15,1.15,0,0,0,1.11-.88c1.18-4.73,3.85-11.6,13.39-16.65a1.15,1.15,0,1,0-1.08-2Z"/><path class="cls-11" d="M29.7,34.59C19.6,38.13,16.94,48.08,16.25,53.71a1.16,1.16,0,0,0,1,1.28h.14a1.15,1.15,0,0,0,1.14-1C19.3,47.77,22,39.73,30.46,36.76a1.15,1.15,0,0,0-.76-2.17Z"/><path class="cls-11" d="M31.72,36c-10.2,3.69-12,13-12.55,19.59a1.16,1.16,0,0,0,1.07,1.23h.08a1.15,1.15,0,0,0,1.15-1.06c.49-6.51,2.19-14.39,11-17.6A1.15,1.15,0,1,0,31.72,36Z"/><path class="cls-11" d="M31.73,38.05c-7.65,3.25-9.06,11.75-9.22,16.53a1.14,1.14,0,0,0,1.11,1.18h0a1.15,1.15,0,0,0,1.15-1.11c.14-4.23,1.35-11.73,7.82-14.48a1.15,1.15,0,0,0-.9-2.12Z"/><path class="cls-11" d="M32.54,39.28c-5.74,3.27-6.93,9-6.91,13.33a1.15,1.15,0,0,0,1.15,1.14h0a1.16,1.16,0,0,0,1.15-1.15c0-3.66,1-8.6,5.74-11.32a1.15,1.15,0,1,0-1.14-2Z"/><path class="cls-11" d="M33,41.06c-3.69,2.71-4.24,7.58-4.24,10.24a1.15,1.15,0,0,0,2.3,0c0-1.79.32-6.2,3.3-8.38a1.14,1.14,0,0,0,.25-1.61A1.16,1.16,0,0,0,33,41.06Z"/><path class="cls-12" d="M27.54,36.52c-2-1.67-5.91-2.85-8.53-2.2l-.46.13c-2.58.9-2.82,4.73-1.71,7.57,1.51,3.88,4.34,4.64,5.64,3.12.6,2.32,4.57,6.84,7.43,6.33,2.23-.41,2-2.82,2.42-4.55C33.41,42.83,30.53,39,27.54,36.52Z"/><g class="cls-13"><path class="cls-14" d="M19.77,34.93c-2.43.63-4.75,3.13-5.79,5.28a.38.38,0,0,0,.18.51.33.33,0,0,0,.17,0,.37.37,0,0,0,.34-.22c1-2,3.08-4.3,5.29-4.86a.4.4,0,0,0,.28-.47A.39.39,0,0,0,19.77,34.93Z"/></g><g class="cls-13"><path class="cls-14" d="M19.58,38.52a11.32,11.32,0,0,0-3.77,5A.38.38,0,0,0,16,44a.31.31,0,0,0,.13,0,.38.38,0,0,0,.36-.25A10.61,10.61,0,0,1,20,39.16a.39.39,0,0,0,.11-.53A.38.38,0,0,0,19.58,38.52Z"/></g><g class="cls-13"><path class="cls-14" d="M19.69,42.36a.39.39,0,0,0-.53.12A16.27,16.27,0,0,0,17,47.2a.38.38,0,0,0,.28.47h.1a.38.38,0,0,0,.37-.29,15.48,15.48,0,0,1,2.1-4.5A.39.39,0,0,0,19.69,42.36Z"/></g><g class="cls-13"><path class="cls-14" d="M21.85,43.16a20.07,20.07,0,0,0-2.15,4.61l-.2.55a.38.38,0,0,0,.23.49.31.31,0,0,0,.13,0,.38.38,0,0,0,.36-.26l.21-.55a18.27,18.27,0,0,1,2.06-4.43.4.4,0,0,0-.1-.54A.39.39,0,0,0,21.85,43.16Z"/></g><g class="cls-13"><path class="cls-14" d="M24,45.45a11.37,11.37,0,0,0-1.92,5,.38.38,0,0,0,.32.44h.06a.39.39,0,0,0,.38-.32,10.68,10.68,0,0,1,1.77-4.67.39.39,0,0,0-.07-.54A.38.38,0,0,0,24,45.45Z"/></g><g class="cls-13"><path class="cls-14" d="M26.07,47.46a.38.38,0,0,0-.44.32c0,.28-.09.57-.14.85a11.48,11.48,0,0,0-.24,2.13.38.38,0,0,0,.38.38h0a.38.38,0,0,0,.38-.39,9.82,9.82,0,0,1,.24-2c.05-.29.1-.59.14-.88A.38.38,0,0,0,26.07,47.46Z"/></g><g class="cls-13"><path class="cls-14" d="M28.58,49.23a.39.39,0,0,0-.47.27,7.21,7.21,0,0,0-.25,2.19.38.38,0,0,0,.38.37h0a.39.39,0,0,0,.38-.39,6.33,6.33,0,0,1,.22-2A.4.4,0,0,0,28.58,49.23Z"/></g><path class="cls-15" d="M46.91,35.85c-.37,1-1.85,6.53-1.66,7.67a.78.78,0,0,1,0,.14,3.61,3.61,0,0,0,2.52.34c2.73-.75,5.28-8.16,2.51-10.62C49,32.19,47.83,33.31,46.91,35.85Z"/><path class="cls-16" d="M18.82,20.13c-1,4.93-1.28,11.46,1.09,16.17,1.24,2.46,4.19.82,6.27.3,2.57-.64,5.15-1.21,7.73-1.78,4.24-.94,9.65-1.82,12.42,1.5s4.38.8,4.39-1.94c0-3.4.87-9,0-12.73C46.52,3.51,21.52,7.19,18.82,20.13Z"/><path class="cls-17" d="M33.5,15.12C22,16.69,20.16,27.23,21.28,37.55c.84,7.74,7.77,16.38,15.53,16s14-11.61,13.09-21.12C48.89,22.05,46.67,13.33,33.5,15.12Z"/><path class="cls-17" d="M18.73,33.2C15,34.13,17.17,42.89,20,44.48c1.13.63,2.4.21,3-1.71.63-1-.16-4.74-.81-7.09C21.64,33.77,20.54,32.75,18.73,33.2Z"/><path class="cls-18" d="M20,35.24c-.83-.41-2.95.24-2,1.91.56-1.51,1.46-.49,1.29.59-.12.73-.9.72-.15,1.67.41.52,1.26.35,1.7.1C22.22,38.68,21,35.74,20,35.24Z"/><path class="cls-16" d="M41.19,21.45Z"/><path class="cls-16" d="M34.63,13.1c-9.35-.08-16,6.63-15.37,20a2.36,2.36,0,0,1,1.77.57,4.48,4.48,0,0,1,.95,2c.1.21.22.57.95.53a18.65,18.65,0,0,1-.74-5.61A21.33,21.33,0,0,1,22.38,28c.09-.64.58-1.8.08-2.33.89-.47.45-1.72.29-2.45a2,2,0,0,0,2-2,1.82,1.82,0,0,0,1.86-.54,2.44,2.44,0,0,0,4.66,0A1,1,0,0,0,32.4,21c0,2.11,4.72,2.12,4.46.11.82.15.85,1.36,1.83,1.62a2,2,0,0,0,2.5-1.23h0c.29.89,1.76.84,2.45.66a3.87,3.87,0,0,0,1.85-1.34,1.12,1.12,0,0,0,1.85.69c-.77.72,1,2.16,1.17,2.67C49.89,27.41,49.62,13.22,34.63,13.1Z"/><path class="cls-19" d="M20.37,40.44a1.85,1.85,0,0,0,.7,3.59,1.86,1.86,0,0,0-.7-3.59Z"/><path class="cls-11" d="M33.38,8.13c-5,.41-9,2.32-11.73,5.67C16.57,20,17.16,29.12,17.46,31.85a1.15,1.15,0,0,0,2.3-.19l0-.14c-.27-2.43-.82-10.78,3.69-16.26,2.34-2.85,5.76-4.47,10.14-4.83,4.75-.39,8.54.82,11.28,3.6,4.83,4.92,5.39,13.69,5,18.1a1.15,1.15,0,0,0,1,1.26H51a1.16,1.16,0,0,0,1.15-1c.13-1.33,1.08-13.14-5.61-19.94C43.25,9.13,38.84,7.69,33.38,8.13Z"/><path class="cls-11" d="M38,8.23a1.15,1.15,0,0,0-.58,1.52c1.77,4,1.79,8.4.91,10.53A1.15,1.15,0,0,0,39,21.79a1.19,1.19,0,0,0,.44.09,1.17,1.17,0,0,0,1.07-.72c1.27-3.08.88-8.28-.94-12.35A1.15,1.15,0,0,0,38,8.23Z"/><path class="cls-11" d="M46,11.51a1.14,1.14,0,0,0-1,1.26,8.64,8.64,0,0,1-2.32,6.8,1.17,1.17,0,0,0,.07,1.63,1.16,1.16,0,0,0,1.63-.07,11,11,0,0,0,2.91-8.6A1.15,1.15,0,0,0,46,11.51Z"/><path class="cls-11" d="M23.72,20.1a7,7,0,0,1-2.84-3.84,1.15,1.15,0,0,0-2.25.48A9.19,9.19,0,0,0,22.46,22a1.11,1.11,0,0,0,.63.19,1.15,1.15,0,0,0,.63-2.11Z"/><path class="cls-11" d="M34.21,7.87a1.15,1.15,0,0,0-.4,1.58,19.67,19.67,0,0,1,2.25,9.25,1.16,1.16,0,0,0,1.12,1.19h0a1.15,1.15,0,0,0,1.15-1.12A21.63,21.63,0,0,0,35.79,8.28,1.16,1.16,0,0,0,34.21,7.87Z"/><path class="cls-11" d="M29.36,9.6a1.15,1.15,0,0,0-2.12.91c1.67,3.92,3,8.27,3,8.32a1.16,1.16,0,0,0,1.1.81,1,1,0,0,0,.34-.05,1.15,1.15,0,0,0,.77-1.43C32.4,18,31.08,13.65,29.36,9.6Z"/><path class="cls-11" d="M41.83,9.29a1.15,1.15,0,0,0-.66,1.49,10.25,10.25,0,0,1,.49,5.53,1.15,1.15,0,0,0,.84,1.39,1,1,0,0,0,.28,0,1.15,1.15,0,0,0,1.12-.88A12.51,12.51,0,0,0,43.32,10,1.16,1.16,0,0,0,41.83,9.29Z"/><path class="cls-11" d="M23.38,13.4a1.15,1.15,0,0,0-1.32-1,1.17,1.17,0,0,0-1,1.32,10.41,10.41,0,0,0,3.25,6.08,1.11,1.11,0,0,0,.73.26,1.15,1.15,0,0,0,.73-2A8,8,0,0,1,23.38,13.4Z"/><path class="cls-11" d="M35.46,18.79a22.08,22.08,0,0,0-3.13-10,1.15,1.15,0,1,0-2,1.2A19.56,19.56,0,0,1,33.16,19a15.81,15.81,0,0,0,.25,1.84,1.15,1.15,0,0,0,1.12.92,1,1,0,0,0,.24,0,1.15,1.15,0,0,0,.89-1.36A14.72,14.72,0,0,1,35.46,18.79Z"/><path class="cls-11" d="M26.09,11.14a1.15,1.15,0,1,0-2.2.67A25.34,25.34,0,0,0,28.5,21a1.15,1.15,0,0,0,.89.42,1.11,1.11,0,0,0,.73-.26,1.16,1.16,0,0,0,.16-1.62A22.61,22.61,0,0,1,26.09,11.14Z"/><path class="cls-11" d="M49.28,15.2a1.16,1.16,0,0,0-1.33.94,6.59,6.59,0,0,1-1.42,2.56,1.16,1.16,0,0,0,.86,1.92,1.14,1.14,0,0,0,.86-.39,8.71,8.71,0,0,0,2-3.71A1.14,1.14,0,0,0,49.28,15.2Z"/><path class="cls-11" d="M50.31,19.15l-1.85,1.34a1.16,1.16,0,0,0,.68,2.09,1.22,1.22,0,0,0,.68-.22L51.66,21a1.15,1.15,0,0,0-1.35-1.87Z"/><path class="cls-11" d="M22,22.85a8,8,0,0,1-2.64-2.72,1.15,1.15,0,0,0-1.51-.61A1.16,1.16,0,0,0,17.19,21a10.09,10.09,0,0,0,3.52,3.76,1.17,1.17,0,0,0,.62.18A1.15,1.15,0,0,0,22,22.85Z"/><path class="cls-11" d="M51.09,22.41l-1.1.31a1.15,1.15,0,0,0,.3,2.26,1,1,0,0,0,.3,0l1.11-.31a1.14,1.14,0,0,0,.81-1.41A1.17,1.17,0,0,0,51.09,22.41Z"/><path class="cls-11" d="M51.29,25.34l-.79.19a1.15,1.15,0,0,0,.26,2.27,1.24,1.24,0,0,0,.27,0l.79-.19a1.14,1.14,0,0,0,.85-1.38A1.15,1.15,0,0,0,51.29,25.34Z"/><path class="cls-11" d="M51.14,28.42l-.33.07A1.15,1.15,0,0,0,51,30.77l.23,0,.33-.07a1.15,1.15,0,1,0-.45-2.26Z"/><path class="cls-11" d="M51.4,31.12l-.37,0a1.16,1.16,0,0,0-1.23,1.07,1.15,1.15,0,0,0,1.08,1.22l.36,0h.08a1.15,1.15,0,0,0,.08-2.3Z"/><path class="cls-11" d="M21.47,25.67l-3.64-1.89a1.15,1.15,0,0,0-1.06,2l3.64,1.88a1.12,1.12,0,0,0,.53.13,1.15,1.15,0,0,0,.53-2.17Z"/><path class="cls-11" d="M21,28.47l-3.15-1.39a1.15,1.15,0,0,0-.93,2.11l3.15,1.39a1.28,1.28,0,0,0,.47.1A1.15,1.15,0,0,0,21,28.47Z"/><path class="cls-11" d="M21.21,31.42l-2.94-1a1.15,1.15,0,0,0-1.46.71,1.17,1.17,0,0,0,.72,1.47l2.93,1a1.24,1.24,0,0,0,.37.06,1.15,1.15,0,0,0,.38-2.24Z"/><g class="cls-13"><path class="cls-14" d="M40.64,11a.38.38,0,0,0-.18.51,11.37,11.37,0,0,1,.64,5.83.39.39,0,0,0,.3.45h.08a.38.38,0,0,0,.37-.31,12,12,0,0,0-.7-6.3A.38.38,0,0,0,40.64,11Z"/></g><g class="cls-13"><path class="cls-14" d="M44.71,14.09a.38.38,0,0,0-.49.23l-.21.59c-.24.67-.55,1.5-.76,2.16a.39.39,0,0,0,.25.48.25.25,0,0,0,.12,0A.37.37,0,0,0,44,17.3c.21-.64.51-1.47.75-2.13l.21-.59A.38.38,0,0,0,44.71,14.09Z"/></g><g class="cls-13"><path class="cls-14" d="M47.31,16.31a.39.39,0,0,0-.5.22,9.19,9.19,0,0,1-.38.85c-.13.26-.25.52-.36.77a.39.39,0,0,0,.22.5.32.32,0,0,0,.14,0,.39.39,0,0,0,.36-.24c.09-.24.21-.48.33-.73s.29-.6.41-.91A.39.39,0,0,0,47.31,16.31Z"/></g><g class="cls-13"><path class="cls-14" d="M49.17,19.42a3.09,3.09,0,0,0-1,.68.37.37,0,0,0,0,.54.39.39,0,0,0,.27.11.43.43,0,0,0,.27-.11,2.26,2.26,0,0,1,.76-.51.38.38,0,1,0-.29-.71Z"/></g><g class="cls-13"><path class="cls-14" d="M36.93,10.27a.38.38,0,0,0-.16.52,8.65,8.65,0,0,1,1.14,5.38.39.39,0,0,0,.33.44h0a.38.38,0,0,0,.38-.33,9.36,9.36,0,0,0-1.22-5.86A.39.39,0,0,0,36.93,10.27Z"/></g><g class="cls-13"><path class="cls-14" d="M35.64,14.77a8.52,8.52,0,0,0-1.33-4.32.38.38,0,0,0-.53-.08.38.38,0,0,0-.08.54,7.8,7.8,0,0,1,1.18,3.95,12.07,12.07,0,0,0,.62,3,.37.37,0,0,0,.35.25.32.32,0,0,0,.14,0,.37.37,0,0,0,.22-.49A11.68,11.68,0,0,1,35.64,14.77Z"/></g><g class="cls-13"><path class="cls-14" d="M31,11.66a.37.37,0,0,0-.48-.23.38.38,0,0,0-.24.49c.17.47.37.95.57,1.44a13.19,13.19,0,0,1,1,3.35.38.38,0,0,0,.38.34h0a.38.38,0,0,0,.34-.42,13.55,13.55,0,0,0-1.09-3.56C31.32,12.59,31.13,12.12,31,11.66Z"/></g><g class="cls-13"><path class="cls-14" d="M27.58,12.58a.39.39,0,0,0-.4-.36.38.38,0,0,0-.36.4,8.67,8.67,0,0,0,1.87,5.19.37.37,0,0,0,.29.13.35.35,0,0,0,.25-.1.38.38,0,0,0,0-.54A8,8,0,0,1,27.58,12.58Z"/></g><g class="cls-13"><path class="cls-14" d="M24,14.47a.38.38,0,1,0-.72.26,9,9,0,0,0,2.11,3.64.39.39,0,0,0,.5-.59A8.65,8.65,0,0,1,24,14.47Z"/></g><g class="cls-13"><path class="cls-14" d="M23.4,18.78a4,4,0,0,1-1.19-1.26,6.42,6.42,0,0,0-.48-.65.38.38,0,1,0-.59.49q.22.29.45.6A4.62,4.62,0,0,0,23,19.45a.41.41,0,0,0,.19,0,.39.39,0,0,0,.33-.19A.38.38,0,0,0,23.4,18.78Z"/></g><g class="cls-13"><path class="cls-14" d="M20.61,20.52a.38.38,0,0,0-.5-.21.37.37,0,0,0-.22.49,4.37,4.37,0,0,0,1.53,1.8.39.39,0,0,0,.23.07.37.37,0,0,0,.31-.15.38.38,0,0,0-.08-.54A3.54,3.54,0,0,1,20.61,20.52Z"/></g><g class="cls-13"><path class="cls-14" d="M21,24.21a4.78,4.78,0,0,1-1.43-.82.39.39,0,0,0-.54.07.38.38,0,0,0,.08.54,5.29,5.29,0,0,0,1.67.95l.11,0a.38.38,0,0,0,.37-.28A.39.39,0,0,0,21,24.21Z"/></g><g class="cls-13"><path class="cls-14" d="M18.82,26.84a.38.38,0,1,0-.39.66,4.42,4.42,0,0,1,.82.62.37.37,0,0,0,.26.1.39.39,0,0,0,.28-.12.37.37,0,0,0,0-.54A5.4,5.4,0,0,0,18.82,26.84Z"/></g><g class="cls-13"><path class="cls-14" d="M20.38,30.32a3.41,3.41,0,0,0-1.42-.5.38.38,0,0,0-.42.34.37.37,0,0,0,.34.42A2.61,2.61,0,0,1,20,31a.39.39,0,0,0,.2.06.38.38,0,0,0,.33-.18A.39.39,0,0,0,20.38,30.32Z"/></g><path class="cls-20" d="M35.89,8.51a1.15,1.15,0,1,0-2.19.7c.25.79.58,1.61.92,2.47a17.47,17.47,0,0,1,1.44,4.74,1.15,1.15,0,0,0,1.15,1.07h.08a1.16,1.16,0,0,0,1.07-1.23,19.06,19.06,0,0,0-1.6-5.43C36.43,10,36.12,9.22,35.89,8.51Z"/><path class="cls-20" d="M38,8.44a1,1,0,0,0-.33,1.35A17.8,17.8,0,0,1,39.05,18a1,1,0,0,0,.88,1.08H40a1,1,0,0,0,1-.89,19.35,19.35,0,0,0-1.65-9.43A1,1,0,0,0,38,8.44Z"/><path class="cls-20" d="M42,9.54a1,1,0,0,0-.12,1.34A16,16,0,0,1,42,15.56a1,1,0,0,0,.88,1.08h.1a1,1,0,0,0,1-.89c.08-.84.44-5.07-.54-6.14A1,1,0,0,0,42,9.54Z"/><path class="cls-20" d="M46.09,12a1,1,0,0,0-1,1,11,11,0,0,1-1.44,5.49A1,1,0,0,0,44,19.84a1,1,0,0,0,1.37-.29,12.93,12.93,0,0,0,1.76-6.61A1,1,0,0,0,46.09,12Z"/><path class="cls-20" d="M48.47,15.87a3.43,3.43,0,0,0-.42.81,3.26,3.26,0,0,1-.58,1.06,1,1,0,0,0,0,1.4,1,1,0,0,0,.72.3,1,1,0,0,0,.68-.27,4.9,4.9,0,0,0,1.05-1.75,2.27,2.27,0,0,1,.15-.34,1,1,0,0,0-1.56-1.21Z"/><path class="cls-20" d="M50.11,19.51c-.09.07-.35.23-.56.37l-.38.25a1,1,0,0,0,.59,1.77,1,1,0,0,0,.58-.18l.29-.19a6.53,6.53,0,0,0,.78-.55,1,1,0,0,0,.07-1.41A1,1,0,0,0,50.11,19.51Z"/><path class="cls-20" d="M30.91,8.46a1,1,0,0,0-.45,1.32,38.9,38.9,0,0,1,2.73,8,1,1,0,0,0,1,.84h.14a1,1,0,0,0,.83-1.11A40.26,40.26,0,0,0,32.23,8.9,1,1,0,0,0,30.91,8.46Z"/><path class="cls-20" d="M30.72,13.58a22.76,22.76,0,0,0-1.6-4.07,1,1,0,1,0-1.64,1.09,27.13,27.13,0,0,1,1.38,3.61c.33,1,.61,1.83.82,2.3a1,1,0,0,0,.9.57A1,1,0,0,0,31,17a1,1,0,0,0,.49-1.31C31.31,15.32,31,14.48,30.72,13.58Z"/><path class="cls-20" d="M26.93,13.61a15.14,15.14,0,0,0-1.12-2.67,1,1,0,0,0-1.36-.29A1,1,0,0,0,24.16,12a18.13,18.13,0,0,1,.92,2.26c.69,1.92,1.47,4.1,2.42,5.11a1,1,0,0,0,.72.32,1,1,0,0,0,.67-.26,1,1,0,0,0,.05-1.4A17.78,17.78,0,0,1,26.93,13.61Z"/><path class="cls-20" d="M23.23,13.52a1,1,0,0,0-2,.12,12.52,12.52,0,0,0,2,5.18,1,1,0,0,0,.7.29,1,1,0,0,0,.68-.27,1,1,0,0,0,0-1.39A11.69,11.69,0,0,1,23.23,13.52Z"/><path class="cls-20" d="M20.75,16.42a1,1,0,0,0-1.86.65,21.21,21.21,0,0,0,2.64,4,.94.94,0,0,0,.68.28,1,1,0,0,0,.71-1.68A21.57,21.57,0,0,1,20.75,16.42Z"/><path class="cls-20" d="M19.19,20.29a1,1,0,1,0-1.65,1.07A13,13,0,0,0,19,23a1,1,0,0,0,.65.25,1,1,0,0,0,.74-.33,1,1,0,0,0-.09-1.4A12.38,12.38,0,0,1,19.19,20.29Z"/><path class="cls-20" d="M18.43,24.1a1,1,0,0,0-.94,1.73c.23.13.47.28.7.43a1,1,0,0,0,.56.18,1,1,0,0,0,.55-1.8A8.91,8.91,0,0,0,18.43,24.1Z"/><path class="cls-20" d="M50.62,22.91l-.14,1,.14-1a1,1,0,0,0-.27,1.95l.27,0a1.79,1.79,0,0,0,.72-.15,1,1,0,0,0,.55-1.29A1,1,0,0,0,50.62,22.91Z"/><path class="cls-20" d="M51.62,25.94a1.37,1.37,0,0,0-1.46.5,1,1,0,0,0,.23,1.38A1,1,0,0,0,51,28a1,1,0,0,0,.48-.12,1,1,0,0,0,.18-1.94Z"/><path class="cls-21" d="M29.05,30.86c-2.22-.77-3.29,3.14-1.74,4.28a3.06,3.06,0,0,1,2.15,0C30.84,34.32,30.7,31.43,29.05,30.86Z"/><path class="cls-21" d="M48,31.05c-2.15-1.37-3.88,2.81-2.1,4.05a2.87,2.87,0,0,1,2.28.06C49.07,34.21,49.15,31.79,48,31.05Z"/><path class="cls-22" d="M28.31,32.23c-.85.36-.06,2,.75,1.33C29.64,33.07,29.07,31.91,28.31,32.23Z"/><path class="cls-22" d="M47,32c-.87.15-.5,1.86.4,1.4C48.06,33,47.79,31.82,47,32Z"/><path class="cls-23" d="M49.1,37.33a3.17,3.17,0,0,0-2.77-1c-1.2,0-2.8.52-1.77,2.29.54.94,5.3,1.5,4.79-.69A1.84,1.84,0,0,0,49.1,37.33Z"/><path class="cls-23" d="M30.44,37.12c-.87-.82-2.34-.69-3.35-.47-1.33.28-3,1.16-1.39,2.8.85.87,6.3.43,5.17-1.77A2,2,0,0,0,30.44,37.12Z"/><path class="cls-24" d="M47.28,30.74c-1.42-.24-1.84,1.4-1.84,1.4s.58-.54,2.3,0a3.72,3.72,0,0,0,4.34-1.71C50.21,32.38,48.26,30.9,47.28,30.74Z"/><path class="cls-24" d="M28.36,30.74c-1,.16-2.93,1.64-4.79-.35A3.71,3.71,0,0,0,27.9,32.1c1.72-.5,2.3,0,2.3,0S29.78,30.5,28.36,30.74Z"/><path class="cls-18" d="M38.18,38.58c-.89,0-1.24-.38-1.86,0S37,40.09,38.12,40c1.25-.09,2.28-1.09,2-1.47S39.16,38.58,38.18,38.58Z"/><path class="cls-25" d="M28.39,42.6c1.38,1.71,3.38.29,2-1.46A1.61,1.61,0,0,1,28.39,42.6Z"/><path class="cls-25" d="M44.82,40.75C44,42.69,46.24,43.94,47.08,42A1.87,1.87,0,0,1,44.82,40.75Z"/><path class="cls-25" d="M45.67,42a.51.51,0,0,0-.72.16,7.55,7.55,0,0,1-7,4,9,9,0,0,1-7.27-3.49.58.58,0,0,0-.77-.15.49.49,0,0,0-.12.72,10.07,10.07,0,0,0,8.3,4.12c3.78-.09,6.2-1.61,7.8-4.58A.59.59,0,0,0,45.67,42Z"/><path class="cls-19" d="M28.65,27.12a4.74,4.74,0,0,0-4.57,1.69c.45-.13.9-.22,1.32-.36,2.24-.72,4.74,1.35,6.14.76.48-.21,1-.56,1.13-1.08C31.1,28.61,30,27.36,28.65,27.12Z"/><path class="cls-19" d="M46.82,27.24c-1.4.21-2.49,1.44-4,.92.07.51.62.88,1.09,1.1,1.39.63,3.1-1.31,5.15-.73a1.4,1.4,0,0,1,.8.54C49.79,28.83,49.9,26.77,46.82,27.24Z"/></g></g></g></svg>