<svg xmlns="http://www.w3.org/2000/svg" xmlns:xlink="http://www.w3.org/1999/xlink" viewBox="0 0 66 66"><defs><style>.cls-1{fill:none;}.cls-2{clip-path:url(#clip-path);}.cls-3{fill:#fff;}.cls-4{fill:#765aa3;}.cls-5{fill:#fff7eb;}.cls-6{opacity:0.1;}.cls-7{fill:url(#linear-gradient);}.cls-8{fill:#e6ded4;}.cls-9{fill:#c9beb7;}.cls-10{fill:#e62628;}.cls-11{fill:#ffc38f;}.cls-12{fill:#bf3c1b;opacity:0.2;}.cls-13{fill:#d14f2e;opacity:0.4;}.cls-14{fill:#f0eae6;opacity:0.7;}.cls-15{fill:#ff7752;}.cls-16{fill:#614d45;}.cls-17{fill:#425361;}.cls-18{fill:#c3d5e3;}.cls-19{fill:#121b21;}.cls-20{fill:#ff3b3b;}</style><clipPath id="clip-path" transform="translate(0.01)"><circle class="cls-1" cx="33" cy="33" r="33"/></clipPath><linearGradient id="linear-gradient" x1="33.79" y1="51.35" x2="33.79" y2="55.66" gradientUnits="userSpaceOnUse"><stop offset="0" stop-color="#ee996d"/><stop offset="0.02" stop-color="#ee9a6e"/><stop offset="0.37" stop-color="#f8b181"/><stop offset="0.71" stop-color="#fdbf8d"/><stop offset="1" stop-color="#ffc491"/></linearGradient></defs><g id="Layer_2" data-name="Layer 2"><g id="avatars"><g class="cls-2"><rect class="cls-3" width="66" height="66"/><path class="cls-4" d="M23.42,53c-3,1.34-4.79,6-5.33,13h7c.2-3.62.57-7.61,1.44-8.52Z" transform="translate(0.01)"/><path class="cls-4" d="M43.18,53l-3.1,4.47c.87.91,1.24,4.9,1.45,8.52h7C48,59,46.16,54.35,43.18,53Z" transform="translate(0.01)"/><path class="cls-5" d="M40.44,51.12a15.58,15.58,0,0,0-14.56.39C21,54.66,22.6,58,23.89,66H42.8C44,58.85,45.15,53.64,40.44,51.12Z" transform="translate(0.01)"/><path class="cls-4" d="M44.68,54.15c-.42-1.07-4.5-3.5-4.5-3.5A45.18,45.18,0,0,0,38.75,66h6C44.88,59.27,45,54.92,44.68,54.15Z" transform="translate(0.01)"/><path class="cls-4" d="M26.45,50.65s-4.09,2.43-4.5,3.5c-.3.77-.21,5.12,0,11.85h6.26A50.91,50.91,0,0,0,26.45,50.65Z" transform="translate(0.01)"/><path class="cls-6" d="M26.75,53.88A10,10,0,0,0,31,59.13l2.32-2.68,3,2.67C38.41,58,40.42,55.28,40.45,53,40.47,51.41,25.8,50.53,26.75,53.88Z" transform="translate(0.01)"/><path class="cls-5" d="M26.78,49.9c-2.59,3.69,4,8.35,4,8.35l2.55-2.12,2.89,2.22S42.13,54.9,40,50.27C38.13,46.11,29.4,46.18,26.78,49.9Z" transform="translate(0.01)"/><path class="cls-7" d="M31.86,45.5c-1.5.44-2.5,2.35-2.61,4.31-.13,2.49,2.56,5.81,4.43,5.88,1.41,0,7.39-4.6,3.19-9.11A5.36,5.36,0,0,0,31.86,45.5Z" transform="translate(0.01)"/><path class="cls-8" d="M33.31,59.43a.65.65,0,1,0,.65.65A.65.65,0,0,0,33.31,59.43Z" transform="translate(0.01)"/><path class="cls-8" d="M33.31,63.19a.65.65,0,1,0,.65.64A.65.65,0,0,0,33.31,63.19Z" transform="translate(0.01)"/><path class="cls-9" d="M49.31,13c-6.54-5-15.36-4.44-23.1-3.42S13.9,15.27,11.87,22.31c-.58,2-3.81,10.3-.09,10.66-1.5,1.62-2.21,6,.91,6.31-.86,2.18-.26,5.11,2.57,4.87.11,2.42,1.31,4.15,3.9,4,0,2.88,2.59,4.44,4.6,2.3,1.45,2.11,3.5.81,5.22-.12s3.89-1.73,5.83-.68c.62.33.88,1,1.6,1.17.29.08,2.56-.35,2.34-.65,1,1.4,4,3,4.6.17,1.9,1.73,4.34-.33,4.09-2.5,2.86.43,3.49-2.13,3.22-4.44,2.9-.24,2.89-3,2.29-5.26,2.82-.34,1.84-4.36,1.14-6,2.95,0,1.51-7,1.28-8.53A16.37,16.37,0,0,0,49.31,13Z" transform="translate(0.01)"/><path class="cls-10" d="M48,39.6a1.36,1.36,0,1,0,1.38,1.34A1.37,1.37,0,0,0,48,39.6Z" transform="translate(0.01)"/><path class="cls-11" d="M30.86,13.57c-7.68,1.6-13,12.75-11.4,23.11,1.16,7.76,7.28,16.22,16.3,15.45C45,51.35,49.4,39.85,48.08,30.31,46.65,19.92,41.61,11.32,30.86,13.57Z" transform="translate(0.01)"/><path class="cls-12" d="M48,18.58a5.52,5.52,0,0,0-1.93-1.69A23.48,23.48,0,0,0,40.8,15a36.51,36.51,0,0,0-9.36-1.3c-2.81,0-5.86-.15-8.46,1-5.17,2.28-4.82,7.35-4.59,12.13.07,1.6.79,6.26,2.93,6.66s1.14-2.38.45-3.28a3.42,3.42,0,0,0,3-3.09A8.55,8.55,0,0,0,30.12,29a11.69,11.69,0,0,0,4.64-1.24,4.43,4.43,0,0,1,3.61-.23c3.24.85,7.63,0,9.43-2.6a4.77,4.77,0,0,0,.8-3.25C48.5,20.62,48.66,19.56,48,18.58Z" transform="translate(0.01)"/><path class="cls-11" d="M16.71,32.39c-3.76,1.09-2.17,6.59.93,7.66a7.59,7.59,0,0,0,3.06.29l.06-.1c.44-.72-.25-4.74-.49-5.49C19.67,32.85,18.52,31.87,16.71,32.39Z" transform="translate(0.01)"/><path class="cls-13" d="M18.07,34.4c-.86-.38-3,.36-1.95,2,.51-1.54,1.46-.54,1.33.55-.09.74-.88.76-.08,1.69.43.51,1.29.3,1.72,0C20.45,37.78,19.11,34.86,18.07,34.4Z" transform="translate(0.01)"/><path class="cls-9" d="M48,15.8a20.11,20.11,0,0,0-10.9-5.48,28,28,0,0,0-7.92-.12c-4.35.56-9.59,2.59-10.91,7-.81,2.72-.32,5.85-.07,8.6.19,2.05,0,4.24.73,6.2.35.93,3,4.6,3.18,1.59.1-1.31-.89-2.65-1.17-3.91,2.18.8,3.25-2.44,3.69-3.83a10.47,10.47,0,0,0,9.44.9A6.35,6.35,0,0,1,37.44,26a19.64,19.64,0,0,0,3.52.73c4.8-.09,10.13-4.69,8.3-9.08A6,6,0,0,0,48,15.8Z" transform="translate(0.01)"/><path class="cls-14" d="M51.49,16.5A8.73,8.73,0,0,0,44.08,13c-5.72.52-9.76,6.27-15.83,5a33.15,33.15,0,0,0-7.55-1.15c-2.56.05-6,1-7.12,3.38A12.38,12.38,0,0,0,12.44,26c.19,1.85,2.16,4.05,3.86,2,.56,1.56,1.67,3.39,3.61,2.06,1.33-.91,2.11-3.67,2.33-5.12,1.87,1.07,3.76.28,5.42-.78,1.06,2.8,6.88,1.22,8.72.37s1.8-.87,3.85-.38a6.54,6.54,0,0,0,4.69-.51A11.19,11.19,0,0,0,48.33,20c.82,1.19.54,2.71,1.17,3.89,1,1.89,2.75.74,3-.93,1.38,2.65,2.41-.19,1.14-2.81A18.42,18.42,0,0,0,51.49,16.5Z" transform="translate(0.01)"/><path class="cls-10" d="M18.79,40.89a1.36,1.36,0,1,0,1.39,1.34A1.36,1.36,0,0,0,18.79,40.89Z" transform="translate(0.01)"/><path class="cls-13" d="M23,34.34c0,.63,1.47.33,1.9.43-.37.39-1.49.38-1.95.65s-.44.47.14.46a10.19,10.19,0,0,0,2.55-.68C26.72,34.31,23.52,34.21,23,34.34Z" transform="translate(0.01)"/><path class="cls-13" d="M48.06,34.88c-.46-.27-1.58-.27-2-.66.43-.1,1.87.2,1.91-.43-.49-.13-3.69,0-2.64.87a10.55,10.55,0,0,0,2.54.67C48.49,35.35,48.54,35.16,48.06,34.88Z" transform="translate(0.01)"/><path class="cls-15" d="M47.05,37a2.62,2.62,0,0,0-2.24-1c-1,0-2.34.27-1.58,1.78.4.8,4.3,1.54,4-.29A1.4,1.4,0,0,0,47.05,37Z" transform="translate(0.01)"/><path class="cls-15" d="M28,37a2.75,2.75,0,0,0-2.63-.63c-1.09.17-2.52.85-1.43,2.43.58.84,5,.79,4.33-1.25A1.66,1.66,0,0,0,28,37Z" transform="translate(0.01)"/><path class="cls-16" d="M41.27,29a59.54,59.54,0,0,0,7.53.55C47.69,27.72,43,27.41,41.27,29Z" transform="translate(0.01)"/><path class="cls-13" d="M36.52,37.76c-.73,0-1-.27-1.54,0s.63,1.27,1.54,1.17,1.85-1,1.57-1.27S37.34,37.73,36.52,37.76Z" transform="translate(0.01)"/><path class="cls-16" d="M22.13,29.67c4-.31,5.41-.27,8.2-.63C28.67,27.3,23.75,27.93,22.13,29.67Z" transform="translate(0.01)"/><path class="cls-17" d="M26.83,31.11c-2.14-.75-3.14,3.2-1.63,4.33a2.9,2.9,0,0,1,2.07,0C28.6,34.57,28.43,31.67,26.83,31.11Z" transform="translate(0.01)"/><path class="cls-18" d="M26.47,32.54c-.88.16-.51,2,.4,1.48C27.53,33.67,27.25,32.41,26.47,32.54Z" transform="translate(0.01)"/><path class="cls-17" d="M45.88,30.93c-2.14-1.36-4,3.64-1.64,4.35A2.54,2.54,0,0,1,46.12,35C46.93,33.92,47,31.66,45.88,30.93Z" transform="translate(0.01)"/><path class="cls-18" d="M45,32.14c-.85,0-.73,1.89.18,1.55C45.87,33.45,45.78,32.12,45,32.14Z" transform="translate(0.01)"/><path class="cls-19" d="M45.94,30.82c-2-.75-2.6,1.57-2.6,1.57A1.81,1.81,0,0,1,45.62,32a4,4,0,0,0,5-.37C48.2,32.41,47,31.23,45.94,30.82Z" transform="translate(0.01)"/><path class="cls-19" d="M25.41,31.25a6.32,6.32,0,0,1-5,1,4.43,4.43,0,0,0,5.22.07,2,2,0,0,1,2.38.13S27.43,30.16,25.41,31.25Z" transform="translate(0.01)"/><path class="cls-20" d="M25.6,40.34c1.09,2.06,3.73,1.06,2.61-1A2,2,0,0,1,25.6,40.34Z" transform="translate(0.01)"/><path class="cls-20" d="M43.06,39a1.49,1.49,0,1,0,2.84.8A2.21,2.21,0,0,1,43.06,39Z" transform="translate(0.01)"/><path class="cls-20" d="M44.29,40.06a.62.62,0,0,0-.78.32c-1,2.94-4.19,4.86-7.85,4.84a8.18,8.18,0,0,1-7.49-4.28.7.7,0,0,0-.82-.34.51.51,0,0,0-.33.71,9.44,9.44,0,0,0,8.37,5h.34c4.2,0,7.77-2.16,9-5.54A.59.59,0,0,0,44.29,40.06Z" transform="translate(0.01)"/></g></g></g></svg>