<svg xmlns="http://www.w3.org/2000/svg" xmlns:xlink="http://www.w3.org/1999/xlink" viewBox="0 0 66 66"><defs><style>.cls-1{fill:none;}.cls-2{clip-path:url(#clip-path);}.cls-3{fill:#fff;}.cls-4{fill:#918fa0;}.cls-5{fill:#1f1f26;}.cls-6{opacity:0.2;}.cls-7{fill:#a7a5b2;}.cls-8{fill:#f7b07c;}.cls-9{fill:#c9beb7;}.cls-10{fill:#ffc490;}.cls-11,.cls-13{fill:#bc551e;}.cls-11{opacity:0.3;}.cls-12{fill:#1f1a17;}.cls-13{opacity:0.4;}.cls-14{fill:#ffd1a7;}.cls-15{fill:#a88888;}.cls-16{fill:#fab27b;}.cls-17{fill:#f5ae79;}.cls-18{fill:#3d302a;}.cls-19{fill:#8f322d;}.cls-20{fill:#fff3e2;}.cls-21{fill:#e8dac5;}.cls-22{fill:#f0eae6;}</style><clipPath id="clip-path" transform="translate(0)"><circle class="cls-1" cx="33" cy="33" r="33"/></clipPath></defs><g id="Layer_2" data-name="Layer 2"><g id="avatars"><g class="cls-2"><rect class="cls-3" width="66" height="66"/><path class="cls-4" d="M44.79,53.94c-2.21-5.06-16-5.6-20.07-.15-1.91,2.54-1.26,7.79-.22,12.21H44.82C45.62,61.88,46.11,57,44.79,53.94Z" transform="translate(0)"/><path class="cls-5" d="M36.18,59.21l1-2a2.51,2.51,0,0,0-2.89-1.28,2.64,2.64,0,0,0-2.2,2l1.58,1.61-1.71,5.8.43.67h5.59l.43-.94Z" transform="translate(0)"/><path class="cls-4" d="M25.52,58.53l.79-6.27S18.76,55.83,19.14,66h4.48A17.27,17.27,0,0,1,25.52,58.53Z" transform="translate(0)"/><path class="cls-4" d="M43.15,52.26l.79,6.27A17.27,17.27,0,0,1,45.84,66h4.48C50.7,55.83,43.15,52.26,43.15,52.26Z" transform="translate(0)"/><path class="cls-6" d="M27.52,54.05a9.63,9.63,0,0,0,4.22,5.75l3-3.12,3.19,3c3-3,3.71-3.54,3.94-6.11S26.68,50.48,27.52,54.05Z" transform="translate(0)"/><path class="cls-7" d="M27.6,51.34c-1.48,4.15,3.91,7.54,3.91,7.54l3.22-2.2,3,2.07s5.94-3.38,3.69-8.23C39.4,46.16,29.32,46.51,27.6,51.34Z" transform="translate(0)"/><path class="cls-8" d="M32.33,46.37a4.62,4.62,0,0,0-3.42,4.25,3.57,3.57,0,0,0,1,3.2,6.62,6.62,0,0,0,2.61,1.5c.73.22,2,1.08,2.23,1.08s.51-.36,1.2-.72c1-.51,2.43-1.2,3-2.28.81-1.59,1.54-4.73,0-6S34.23,46,32.33,46.37Z" transform="translate(0)"/><path class="cls-9" d="M51.2,19.21a2.74,2.74,0,0,1-2,.55,3.37,3.37,0,0,0,1.66-3.35C47.77,13.92,40.35,8.89,32,8.47c-5.11-.25-10.43,1.06-13.25,5.67a10.25,10.25,0,0,0-1.37,3.21,4.58,4.58,0,0,1-.83-2.54,3.38,3.38,0,0,0,0,4.17,3.78,3.78,0,0,0-2.63,1.12,5.11,5.11,0,0,1,2.12.32,6,6,0,0,0-.83,3.5,29.56,29.56,0,0,0,.73,6.75c.56,2.12,1.33,7.34,4.56,6.68,4.43-.91,9.26-3.34,13.82-1.62,3.18,1.2,6.07,3.18,9.3,4.37,2.87,1,5.67,3.83,6.48-.11a26.14,26.14,0,0,0,.26-9.29c-.41-2.5-.84-5.57-2.18-7.75A4.45,4.45,0,0,0,51.2,19.21Z" transform="translate(0)"/><path class="cls-10" d="M33,16c-8.4.57-15.63,9.79-14.94,20s7.65,17.08,17.43,17c10.83-.1,15-9,14.3-19.24S41.35,15.45,33,16Z" transform="translate(0)"/><path class="cls-11" d="M48.11,32.79c-.36-.19-2.92-.51-2.29.45a7.12,7.12,0,0,0,1.86,1c.46.08.54-.09.22-.41s-1.19-.45-1.4-.86C46.87,32.9,47.93,33.36,48.11,32.79Z" transform="translate(0)"/><path class="cls-11" d="M26,34.61c.22.56,1.25,0,1.61,0-.17.43-1.05.64-1.33,1s-.2.51.25.39a6.92,6.92,0,0,0,1.79-1.09C28.9,33.88,26.37,34.39,26,34.61Z" transform="translate(0)"/><path class="cls-12" d="M29.8,31.59c-1.87-.82-3.08,2.51-1.8,3.61a2.71,2.71,0,0,1,1.86.17C31.13,34.72,31.2,32.21,29.8,31.59Z" transform="translate(0)"/><path class="cls-13" d="M37.79,36.23c-1,.05-1.49-.37-2.2.05s.29,2,2.14,1.9,2.71-1.68,2.3-2.1S39,36.18,37.79,36.23Z" transform="translate(0)"/><path class="cls-14" d="M36.85,30.6c-1,.08-1.58,1.43-1.71,3.16s-.06,2.56.4,2.9a3.73,3.73,0,0,0,4.39-.36C41.24,35,39.13,30.43,36.85,30.6Z" transform="translate(0)"/><path class="cls-12" d="M45.54,30.47c-2-.88-3.18,3.31-1,3.65a2.51,2.51,0,0,1,1.6-.6C46.76,32.61,46.62,30.94,45.54,30.47Z" transform="translate(0)"/><path class="cls-15" d="M28.84,32.28c-.77.25-.2,1.74.55,1.21C29.93,33.1,29.52,32.05,28.84,32.28Z" transform="translate(0)"/><path class="cls-15" d="M44.63,31.23c-.71.24-.18,1.63.52,1.13C45.65,32,45.27,31,44.63,31.23Z" transform="translate(0)"/><path class="cls-10" d="M16.56,33.63c-4.16,1-2.64,6.27.71,7.28a9.41,9.41,0,0,0,3.34.28l.07-.09c.51-.69-.28-4.17-.52-4.89C19.57,34.41,18.56,33.14,16.56,33.63Z" transform="translate(0)"/><path class="cls-11" d="M29.36,20.88c-3.24.33-7.38,1.73-8.14,5.35a28.59,28.59,0,0,0-.7,4.3,7.55,7.55,0,0,0,0,1.35,42.57,42.57,0,0,0,1.25,5.25c.47-8.17,2.44-10.88,2.85-12.07,9.79,1.44,14.84,1,18.41.6,1.38-.16,4.73-.5,3.06-2.62C45,21.63,34,20.42,29.36,20.88Z" transform="translate(0)"/><path class="cls-11" d="M18.75,35.59c-1.06-.51-3.94-.17-2.86,1.58.9-1.39,2-.28,1.65.75-.23.69-1.26.57-.37,1.6a2.41,2.41,0,0,0,2.25.32C21.34,39.22,20.05,36.21,18.75,35.59Z" transform="translate(0)"/><path class="cls-9" d="M42,15.42c-4.65-2.15-11.83-2.78-16.84-.25a10.38,10.38,0,0,0-3.91,3.32c-2.17,3.15-4.93,8.33-3.81,12.15.26.86.12,2.07.43,2.94.75,2.11,1.9,10.36,3.71,10.4.68,0,2.63.47,2.3-.15-2.92-5.44-2.18-15,.24-19.53,15,1.83,23.59-.25,23-3.62C46.79,18.35,44,16.35,42,15.42Z" transform="translate(0)"/><path class="cls-16" d="M30.66,36.78c-1-.8-2.57-.5-3.64-.14-1.39.45-3.07,1.6-1.19,3.21,1,.86,6.77-.21,5.34-2.5A2.36,2.36,0,0,0,30.66,36.78Z" transform="translate(0)"/><path class="cls-16" d="M45.45,35a2.92,2.92,0,0,0-1.57,1c-.59.73-.57,1.69.69,2.29s3.84.71,4.47-.88C49.9,35.19,46.84,34.66,45.45,35Z" transform="translate(0)"/><path class="cls-17" d="M36.81,48.13a2.38,2.38,0,0,0-1.73,2.34c0-.17.66-1.2,2.51-1.49a4.26,4.26,0,0,1,3.31,1C41,48.22,38.31,47.64,36.81,48.13Z" transform="translate(0)"/><path class="cls-18" d="M43.94,26.15c-1.17.13-2.5,1.06-3.67.77a2.23,2.23,0,0,0,2,2,3.86,3.86,0,0,0,2.36-.51,7.36,7.36,0,0,1,.94-.36,5.24,5.24,0,0,1,1.63,0,1.94,1.94,0,0,0-.2-.57A2.91,2.91,0,0,0,43.94,26.15Z" transform="translate(0)"/><path class="cls-18" d="M31.08,27.51c-.73-.13-1.49-.51-2.2-.58-1.8-.19-3.63,2.21-2.48,3.77a7.07,7.07,0,0,0,.65-.69c1.13-1.19,2.75-.29,4.1-.05,1.81.31,2.67-.82,2.59-2.54A5.21,5.21,0,0,1,31.08,27.51Z" transform="translate(0)"/><path class="cls-11" d="M44.18,38.6c.18-.07.74.51.75.69,0,.37-.4.61-.68.76a9.91,9.91,0,0,1-3.11.75,28.68,28.68,0,0,1-7.74.36,17.14,17.14,0,0,1-4.29-1l.13-.1c.72-.45,1.79-.5,1.48-.64-1.62-.71-3.44.13-4.73,1.06,1.48-.32,3-.2,3.87,1.23,2.11,3.62,4.28,6,7.81,6,4.62-.07,5.58-3.13,6.15-5.18a4.12,4.12,0,0,1,1.11-1.88,5.83,5.83,0,0,1,2-1.55,3.8,3.8,0,0,1,1.63-.34C47.5,37.78,45.32,38.14,44.18,38.6Z" transform="translate(0)"/><path class="cls-19" d="M30.13,41s2.34,5.32,7.78,4.89c3.7-.29,5.17-2.11,5.59-3.68a3.2,3.2,0,0,1,1.38-2.12A21.57,21.57,0,0,1,30.13,41Z" transform="translate(0)"/><path class="cls-20" d="M32,41.52a2.88,2.88,0,0,0,1.9,2.31,11.56,11.56,0,0,0,7.06.07c1.64-.48,2.42-3.12,2.42-3.12A24.91,24.91,0,0,1,32,41.52Z" transform="translate(0)"/><path class="cls-20" d="M39,44a16.53,16.53,0,0,1-5.48-.51c-.94-.33-.92.16-.72.59,0,0,.42,1.76,4.7,1.94,3.74.15,5.21-2.14,4.77-2.58S41.33,43.86,39,44Z" transform="translate(0)"/><path class="cls-21" d="M32,41.49A2.38,2.38,0,0,0,32.66,43s7.82-1.07,9.83-.46a5.54,5.54,0,0,0,.85-1.79A27.58,27.58,0,0,1,32,41.49Z" transform="translate(0)"/><path class="cls-21" d="M34,43.45a11,11,0,0,0,7.75-.12A17,17,0,0,1,34,43.45Z" transform="translate(0)"/><path class="cls-11" d="M45.85,36.28a2.14,2.14,0,0,0-1,.32c-.52.41.18.27.49.45.68.39.11,1.27-.49,1.31-1,0-2.06.13-3.11.22a93.58,93.58,0,0,1-9.46.68c-.71,0-2,.23-2.65-.23-.89-.68,1.22-1.31.12-1.49-.75-.13-1.74.82-2,1.44a1.86,1.86,0,0,0-.1.31c-.25,1.33.88,2.09,1.9,2.65a5,5,0,0,0,2.89.4,23.1,23.1,0,0,1,3,0,23,23,0,0,0,3,.05c1-.07,2-.28,2.93-.41,1.74-.24,3.25-.14,4.66-1.41a2.76,2.76,0,0,0,1.2-2.55C47.18,37.2,46.86,36.26,45.85,36.28Z" transform="translate(0)"/><path class="cls-9" d="M44.59,36.76c.67-.41,1.3,0,1.27.47,0,.72-1,.65-1.45.61-1.6-.16-3.29-.74-4.93-.22-2.12.67-3.57-.09-5.78.24a28.12,28.12,0,0,0-3.25.84c-.54.14-1.24.24-1.37-.36a.64.64,0,0,1,1-.55c-.25-.51-1.23-.63-1.7-.46a1.27,1.27,0,0,0-.82,1.6c.2,1.07,1.74,1.78,2.66,2.14a19.59,19.59,0,0,0,4.42,1,20.57,20.57,0,0,0,3.14.14,17.42,17.42,0,0,0,3.3-.41A11.6,11.6,0,0,0,45,40.18c.92-.6,2.31-1.4,2.18-2.81A1.4,1.4,0,0,0,44.59,36.76Z" transform="translate(0)"/><path class="cls-22" d="M16.75,23.52c-.06,1.25,2.55,2.34,3.48,2.5a5.11,5.11,0,0,1-1.87.11c-.68-.08-1.41-.56-2.08-.51.18,1.5,2.5,1.82,3.62,2.31a4.61,4.61,0,0,1-1.28.13c-.31,0-.9-.22-1.21-.09-.92.36-.59,2.49-.5,3.23.17,1.26,1,2.67,1.94.54-.31,3.1,2.87,8,2.62,5.93A26.5,26.5,0,0,1,21.62,31a25,25,0,0,1,.51-3.23c.06-.26.69-3.08.67-3.08-.62,0-1.23-.07-1.84-.12C19.49,24.39,18.21,23.62,16.75,23.52Z" transform="translate(0)"/><path class="cls-22" d="M38,22.73a56.82,56.82,0,0,1-16.48.05s9.52,2.56,18.28,1.35,7.52-3.9,7.52-3.9S47.41,21.39,38,22.73Z" transform="translate(0)"/><path class="cls-22" d="M42.65,38.26a5.8,5.8,0,0,0-3.46.15,4,4,0,0,1-3.39.07c-1.62-.68-5.27.53-4.77,1.13s2.2.3,2.2.3a1.14,1.14,0,0,0,.75,1c.7.2,2-.75,2-.75a.94.94,0,0,0,.9,1c1,0,1.75-1.06,1.75-1.06s.61,1,1.55.85a.93.93,0,0,0,.86-1,3.24,3.24,0,0,0,1.85.35c.71-.21.3-1.2.3-1.2a2.22,2.22,0,0,0,1.85-.1C46.11,38.51,44,38.51,42.65,38.26Z" transform="translate(0)"/><path class="cls-22" d="M20.94,17.83c2.68,2.4,6.48,2,9.72,1.51-2.11,1.49-9,1.24-12.07.36C21,21,24,22.07,31.06,22.36a30.76,30.76,0,0,0,14-2.55,13.06,13.06,0,0,0,4.81-3.56c-1.78-.65-9.48-5.44-15.08-6.42C24.47,8,17.25,14.53,20.94,17.83Z" transform="translate(0)"/></g></g></g></svg>