<svg xmlns="http://www.w3.org/2000/svg" xmlns:xlink="http://www.w3.org/1999/xlink" viewBox="0 0 96 96"><defs><style>.cls-1{fill:none;}.cls-2{clip-path:url(#clip-path);}.cls-10,.cls-3{fill:#fff;}.cls-4{fill:#9c552c;}.cls-5{fill:#ff9819;}.cls-6{fill:#ffc566;}.cls-7{fill:url(#linear-gradient);}.cls-8{opacity:0.2;}.cls-9{fill:#c93712;}.cls-10,.cls-13{opacity:0.3;}.cls-11{fill:#261b18;}.cls-12,.cls-13{fill:#661004;}.cls-12{opacity:0.4;}.cls-14{fill:#45362e;}.cls-15{fill:#d17642;}.cls-16{fill:#66241b;}.cls-16,.cls-17{opacity:0.7;}.cls-17{fill:#f0ded1;}.cls-18{fill:#d47b48;}.cls-19{fill:#78231f;}.cls-20{fill:#fff7ea;}.cls-21{fill:#ecdcc4;}.cls-22{fill:#161110;}</style><clipPath id="clip-path"><circle class="cls-1" cx="48" cy="48" r="48"/></clipPath><linearGradient id="linear-gradient" x1="49.91" y1="74.18" x2="49.91" y2="80.62" gradientUnits="userSpaceOnUse"><stop offset="0" stop-color="#854326"/><stop offset="1" stop-color="#9c552c"/></linearGradient></defs><g id="Layer_2" data-name="Layer 2"><g id="Layer_4" data-name="Layer 4"><g class="cls-2"><rect class="cls-3" width="96" height="96"/><path class="cls-4" d="M35.8,86.86c.22-.42.43-.84.63-1.24a2.42,2.42,0,0,0-4.34-2.16l-.6,1.18c-1.57,3-3.65,7.09-2.89,11.36h5l0-.06C32.6,93.07,34.3,89.77,35.8,86.86Z"/><path class="cls-4" d="M67.27,84.64l-.6-1.18a2.43,2.43,0,0,0-4.35,2.16c.2.4.42.82.64,1.24,1.5,2.91,3.2,6.21,2.23,9.08l0,.06h5C70.91,91.73,68.84,87.68,67.27,84.64Z"/><path class="cls-5" d="M62,92.34c1.5-6.69,3.2-12.66-2.36-15.65-4.25-2.27-15.46-3.66-20.14,0-5.12,4-4,10.4-2.55,16.47a16.89,16.89,0,0,0,1,2.84H60.58A22,22,0,0,0,62,92.34Z"/><path class="cls-6" d="M41.45,76.66A3.1,3.1,0,0,0,42,79.1c3.57,5.72,13.35,5.52,16.06-.37a2.8,2.8,0,0,0-.11-2.81C55.51,72,42.65,71.94,41.45,76.66Z"/><path class="cls-7" d="M49.91,69.29c-2.76,0-6.65,1.6-6.92,5.8-.13,2,.16,3.09,1.18,4.17,2.85,3,8.81,2.84,11.47,0,1-1.08,1.31-2.22,1.19-4.17C56.55,70.89,52.66,69.29,49.91,69.29Z"/><path class="cls-5" d="M59.07,76.51c-2-1,2.14,11.34,2.91,18.89,2.89.48,9.87-2.32,11.69-4.22C69.72,84.2,66.09,79.84,59.07,76.51Z"/><g class="cls-8"><path class="cls-9" d="M62.52,91.53c.06-1.09,1.21-6.51-.74-6.57-.6,0,0,9.34,0,9.34.88-1.1,3.74-4.56,3.15-5.33C64.59,88.45,62.56,91.06,62.52,91.53Z"/></g><path class="cls-5" d="M39.69,76.51c-7,3.33-10.66,7.69-14.6,14.67,1.81,1.9,8.79,4.7,11.68,4.22C37.54,87.85,41.71,75.55,39.69,76.51Z"/><g class="cls-8"><path class="cls-9" d="M36.23,91.53c0-.47-2.06-3.08-2.46-2.56-.58.77,2.28,4.23,3.16,5.33,0,0,.65-9.36,0-9.34C35,85,36.18,90.44,36.23,91.53Z"/></g><path class="cls-10" d="M56.64,83.77c-2.77,2.67-11.83,2.62-15.14-1-1.86-2-3.86,2.06-3.1,4.92,1,3.79,6.4,4.94,11.12,5C58.84,92.81,62,88.63,60.46,84,60.06,82.69,58.48,82,56.64,83.77Z"/><path class="cls-11" d="M12.12,63.45a1.92,1.92,0,0,1-1.66-2.88c3.23-5.64,9.69-13.12,28.32-12.8a1.92,1.92,0,0,1,0,3.84h0c-16.6-.28-22.18,6.07-24.93,10.87A1.91,1.91,0,0,1,12.12,63.45Z"/><path class="cls-11" d="M13.64,69.07a2,2,0,0,1-.85-.19,1.93,1.93,0,0,1-.87-2.58C14,62,20.5,48.91,38.35,50.11a1.92,1.92,0,1,1-.25,3.83C24.55,53.05,18.83,61,15.36,68A1.9,1.9,0,0,1,13.64,69.07Z"/><path class="cls-11" d="M16.45,73.46a1.82,1.82,0,0,1-.68-.13,1.93,1.93,0,0,1-1.12-2.48C18.52,60.67,26,53.58,38,48.56a1.92,1.92,0,0,1,1.48,3.55C28.32,56.76,21.76,63,18.25,72.22A1.93,1.93,0,0,1,16.45,73.46Z"/><path class="cls-11" d="M20.5,76.78a1.85,1.85,0,0,1-.46,0,1.92,1.92,0,0,1-1.41-2.32c2.94-12.16,10.48-20.16,21.82-23.15a1.92,1.92,0,0,1,1,3.72C31.4,57.62,25,64.46,22.36,75.31A1.91,1.91,0,0,1,20.5,76.78Z"/><path class="cls-11" d="M24.86,79.06l-.37,0A1.92,1.92,0,0,1,23,76.77C25.47,64.08,32.17,56.4,43.47,53.3a1.92,1.92,0,1,1,1,3.71C34.6,59.72,29,66.23,26.75,77.51A1.92,1.92,0,0,1,24.86,79.06Z"/><path class="cls-11" d="M29.65,80h-.18a1.92,1.92,0,0,1-1.73-2.09c.72-7.83,4-18,15.59-21.75a1.92,1.92,0,1,1,1.2,3.65c-7.7,2.53-12.07,8.74-13,18.45A1.93,1.93,0,0,1,29.65,80Z"/><path class="cls-11" d="M34.38,79.74h-.09a1.92,1.92,0,0,1-1.83-2c.17-3.46,1.54-15.11,12-19.84a1.92,1.92,0,0,1,1.58,3.51C37.57,65.22,36.44,75,36.3,77.92A1.91,1.91,0,0,1,34.38,79.74Z"/><path class="cls-11" d="M39.09,78.27H39a1.92,1.92,0,0,1-1.81-2c.24-4.32,2.15-12.53,7.84-15.87a1.93,1.93,0,0,1,2,3.32c-4.29,2.51-5.77,9.45-6,12.76A1.93,1.93,0,0,1,39.09,78.27Z"/><path class="cls-11" d="M23.19,50.68C19.13,51.74,18.47,57,20,61c2.05,5.42,6.36,6.66,8.49,4.65.75,3.23,9.68,9.63,14.16,9.11,3.48-.4.11-3.67.95-6,2-5.54-2.19-11-6.64-14.6-3-2.42-8.92-4.3-13-3.58C23.66,50.57,23.42,50.62,23.19,50.68Z"/><path class="cls-4" d="M34.66,54.14c4-.7,7.92-1.32,11.9-1.92C53.08,51.22,60,60.07,64,64.81c3.83,4.58,8-8.3,8.2-12.07.25-4.66,2-12.29.93-17.47C68,10.09,29.68,13.45,24.62,31c-1.92,6.69-2.77,15.64.51,22.27C26.84,56.76,31.45,54.71,34.66,54.14Z"/><path class="cls-4" d="M71.85,49.58c-.78-14.07-3.58-26-24.09-24.47-17.94,1.38-21.55,15.54-20.58,29.6C27.9,65.25,38,77.4,50,77.35S72.57,62.53,71.85,49.58Z"/><path class="cls-4" d="M24.7,64.55c1.7.94,3.7.45,4.7-2.16,1.06-1.3.12-6.52-.71-9.79C28,50,26.4,48.47,23.56,49,17.65,50,20.43,62.18,24.7,64.55Z"/><path class="cls-12" d="M26.34,57.77c2.21-1,.56-5.15-1-5.91-1.26-.62-4.59.12-3.25,2.48,1-2,2.31-.57,2,.9-.24,1-1.45.93-.35,2.29C24.31,58.26,25.65,58.09,26.34,57.77Z"/><path class="cls-13" d="M50.1,16.88c-5.73-.42-11.61.29-16.37,3.56C28.63,24,25.8,30,24.25,35.72c-.85,3.12-1.76,6.56-1,9.79a5,5,0,0,0,2.57,3.62c1.81,1,1.75,1.78,2.59,3.46.14.3.29.79,1.43.79a22.52,22.52,0,0,1-.73-7.75A28.15,28.15,0,0,1,29.6,42c.18-.86,1-2.42.29-3.18,1.43-.59.83-2.34.64-3.34,2.15-.21,2.83-.88,3.29-2.57a3.1,3.1,0,0,0,2.92-.62c1,3.2,6,3.37,7.22.25a1.66,1.66,0,0,0,1.67.52c-.09,1.57,1.84,2.16,3.11,2.31A4.21,4.21,0,0,0,53,33.55c1.9,1.85,5.57,2.25,7.15-.24,1.34,2.33,4.56,1.58,6.49.49A2.56,2.56,0,0,0,69,35.57c.37,1.19,1.06,3,2.4,1.64,1.58-1.68.45-4.92-.37-6.62-3.21-6.73-8.66-11.87-16.32-13.15C53.22,17.19,51.67,17,50.1,16.88Z"/><path class="cls-11" d="M28.32,61.2A2.36,2.36,0,0,1,26.37,64a2.57,2.57,0,0,1-2.78-2.19,2.37,2.37,0,0,1,2-2.79A2.55,2.55,0,0,1,28.32,61.2Z"/><path class="cls-11" d="M73.5,51.71a1.63,1.63,0,0,1-.31,0,1.91,1.91,0,0,1-1.58-2.21c.91-5.53.82-16.79-5.36-23.86-4-4.61-10.1-6.83-18-6.59-7.32.22-13,2.5-16.84,6.78-6.46,7.16-6.23,17.81-6,20.9v.21a1.91,1.91,0,0,1-1.86,2,2,2,0,0,1-2-1.83c-.26-3.57-.5-15.55,7-23.84,4.6-5.09,11.18-7.79,19.58-8,9.13-.27,16.21,2.38,21,7.9,6.66,7.62,7.53,19.32,6.25,27A1.94,1.94,0,0,1,73.5,51.71Z"/><path class="cls-11" d="M56.77,34.61a1.89,1.89,0,0,1-.89-.22,1.92,1.92,0,0,1-.8-2.6c1.58-3,1.76-9.94-.52-15.14a1.92,1.92,0,1,1,3.51-1.54c2.86,6.49,2.43,14.65.41,18.48A1.94,1.94,0,0,1,56.77,34.61Z"/><path class="cls-11" d="M63.43,34.32a1.88,1.88,0,0,1-1.27-.49A1.91,1.91,0,0,1,62,31.12c2.77-3.12,4.71-5.61,4.47-9.37a1.92,1.92,0,0,1,1.8-2,1.94,1.94,0,0,1,2,1.79c.36,5.65-3,9.42-5.44,12.17A1.92,1.92,0,0,1,63.43,34.32Z"/><path class="cls-11" d="M31.21,34.51a1.89,1.89,0,0,1-1-.31,13,13,0,0,1-5.67-7.74,1.92,1.92,0,0,1,3.78-.71,9.24,9.24,0,0,0,4,5.22,1.92,1.92,0,0,1-1,3.54Z"/><path class="cls-11" d="M53.24,32.25H53.1a1.92,1.92,0,0,1-1.78-2.05c0-.09.6-9-2.73-14.57a1.92,1.92,0,1,1,3.3-2c4,6.64,3.3,16.4,3.27,16.82A1.93,1.93,0,0,1,53.24,32.25Z"/><path class="cls-11" d="M44.19,31.53a1.92,1.92,0,0,1-1.83-1.34c0-.08-2.47-7.75-4.77-13.26a1.92,1.92,0,1,1,3.55-1.48C43.5,21.12,45.92,28.7,46,29a1.9,1.9,0,0,1-1.25,2.41A2,2,0,0,1,44.19,31.53Z"/><path class="cls-11" d="M62,29.67a1.86,1.86,0,0,1-.82-.19,1.91,1.91,0,0,1-.92-2.55c0-.11,2.11-4.67.71-8.41a1.92,1.92,0,1,1,3.6-1.34c2,5.29-.72,11.14-.83,11.38A1.92,1.92,0,0,1,62,29.67Z"/><path class="cls-11" d="M34.45,31.75a1.92,1.92,0,0,1-1.34-.55,17.85,17.85,0,0,1-4.85-9.58,1.92,1.92,0,0,1,3.81-.46,14.29,14.29,0,0,0,3.72,7.29,1.92,1.92,0,0,1-1.34,3.3Z"/><path class="cls-11" d="M49,34.67a1.92,1.92,0,0,1-1.89-1.59c-.11-.62-.22-1.45-.34-2.43A57.64,57.64,0,0,0,43.1,15.37a1.93,1.93,0,0,1,3.56-1.47,61.6,61.6,0,0,1,3.88,16.27c.11.91.2,1.67.3,2.24a1.92,1.92,0,0,1-1.55,2.23Z"/><path class="cls-11" d="M41,33.88a1.91,1.91,0,0,1-1.47-.68c-2.65-3.14-5.23-8.55-6.91-14.47a1.92,1.92,0,1,1,3.69-1.05c1.82,6.38,4.37,10.92,6.16,13A1.92,1.92,0,0,1,41,33.88Z"/><path class="cls-11" d="M68.94,33.92a1.91,1.91,0,0,1-1.43-3.2,14.15,14.15,0,0,0,2.71-4.18,1.92,1.92,0,1,1,3.73.92c-.58,2.38-3.08,5.27-3.58,5.83A1.93,1.93,0,0,1,68.94,33.92Z"/><path class="cls-11" d="M71.51,36.73a1.92,1.92,0,0,1-1.13-3.48l3.2-2.31a1.92,1.92,0,1,1,2.25,3.12l-3.2,2.31A1.87,1.87,0,0,1,71.51,36.73Z"/><path class="cls-11" d="M28.28,38.18a1.91,1.91,0,0,1-1-.29c-.41-.26-4.06-2.61-5.28-5.54a1.92,1.92,0,1,1,3.55-1.48c.64,1.54,3,3.28,3.77,3.76a1.92,1.92,0,0,1-1,3.55Z"/><path class="cls-11" d="M73.1,40.11a1.92,1.92,0,0,1-.37-3.81L74.47,36a1.9,1.9,0,0,1,2.25,1.51,1.92,1.92,0,0,1-1.51,2.26l-1.74.34A1.55,1.55,0,0,1,73.1,40.11Z"/><path class="cls-11" d="M73.63,44a1.92,1.92,0,0,1-.31-3.82L74.55,40a1.93,1.93,0,1,1,.62,3.8l-1.23.2Z"/><path class="cls-11" d="M73.82,48.11a1.92,1.92,0,0,1-.25-3.83l.52-.07a1.92,1.92,0,1,1,.5,3.81l-.52.07Z"/><path class="cls-11" d="M74.07,51.77h-.2l-.57-.06a1.92,1.92,0,0,1,.4-3.82l.56,0a1.92,1.92,0,0,1-.19,3.84Z"/><path class="cls-11" d="M27.47,42.1a1.85,1.85,0,0,1-.88-.22L21.1,39.06a1.92,1.92,0,0,1,1.76-3.42l5.49,2.83a1.92,1.92,0,0,1-.88,3.63Z"/><path class="cls-11" d="M26.63,46a2,2,0,0,1-.78-.16l-4.78-2.12a1.92,1.92,0,0,1-1-2.54,1.9,1.9,0,0,1,2.53-1l4.78,2.12A1.92,1.92,0,0,1,26.63,46Z"/><path class="cls-11" d="M26.87,50.08a2.05,2.05,0,0,1-.64-.11L21.77,48.4A1.92,1.92,0,1,1,23,44.78l4.46,1.56a1.92,1.92,0,0,1-.63,3.74Z"/><path class="cls-14" d="M53.41,28.48A1.44,1.44,0,0,1,52,27.08c-.07-2.41-1.42-6.66-2.41-9.76-.27-.85-.52-1.62-.71-2.28a1.44,1.44,0,0,1,2.76-.82c.19.64.43,1.4.69,2.23,1.1,3.45,2.46,7.74,2.54,10.55a1.44,1.44,0,0,1-1.39,1.48Z"/><path class="cls-14" d="M57.65,31.09a1,1,0,0,1-.24,0,1.44,1.44,0,0,1-1.18-1.65c.78-4.69-.44-11.64-1.14-12.79a1.44,1.44,0,1,1,2.45-1.5c1.31,2.14,2.32,10,1.53,14.76A1.45,1.45,0,0,1,57.65,31.09Z"/><path class="cls-14" d="M62.32,27.92l-.24,0a1.44,1.44,0,0,1-1.18-1.65c.48-2.94.81-7,.5-8.14a1.44,1.44,0,1,1,2.78-.74c.55,2.08-.13,7.45-.44,9.34A1.45,1.45,0,0,1,62.32,27.92Z"/><path class="cls-14" d="M64.53,32.63a1.43,1.43,0,0,1-.91-.32,1.44,1.44,0,0,1-.2-2A20.53,20.53,0,0,0,67,22a1.45,1.45,0,0,1,1.44-1.4h0a1.44,1.44,0,0,1,1.4,1.47,22.56,22.56,0,0,1-4.2,10A1.47,1.47,0,0,1,64.53,32.63Z"/><path class="cls-14" d="M70.19,32.11a1.44,1.44,0,0,1-.88-2.58,6.85,6.85,0,0,0,1.14-1.91,5.33,5.33,0,0,1,.83-1.41,1.44,1.44,0,0,1,2.11,2c-.07.12-.22.44-.34.68a8,8,0,0,1-2,3A1.43,1.43,0,0,1,70.19,32.11Z"/><path class="cls-14" d="M72.5,35.6a1.44,1.44,0,0,1-.74-2.67l1.81-1.37.27-.21a1.44,1.44,0,1,1,1.73,2.3l-.25.2c-1.75,1.33-1.95,1.47-2.09,1.55A1.39,1.39,0,0,1,72.5,35.6Z"/><path class="cls-14" d="M48.61,30a1.44,1.44,0,0,1-1.43-1.29c-.13-1.26-.88-4.66-3.67-13.67a1.43,1.43,0,1,1,2.74-.85c2.3,7.41,3.58,12.2,3.79,14.22A1.45,1.45,0,0,1,48.76,30Z"/><path class="cls-14" d="M43.17,27.71a1.45,1.45,0,0,1-1.32-.85c-.27-.62-.71-1.9-1.27-3.53A55.19,55.19,0,0,0,38.17,17a1.44,1.44,0,1,1,2.39-1.6,41.94,41.94,0,0,1,2.74,7c.49,1.43,1,2.78,1.18,3.29a1.43,1.43,0,0,1-.73,1.89A1.36,1.36,0,0,1,43.17,27.71Z"/><path class="cls-14" d="M39.32,31.16a1.42,1.42,0,0,1-1-.45c-1.29-1.37-2.37-4.35-3.64-8.12A30,30,0,0,0,33.29,19a1.44,1.44,0,0,1,2.39-1.59,22.24,22.24,0,0,1,1.68,4.26c.82,2.41,2,6,3,7.06a1.44,1.44,0,0,1-.06,2A1.41,1.41,0,0,1,39.32,31.16Z"/><path class="cls-14" d="M32.88,30.07a1.43,1.43,0,0,1-1-.43c-1.06-1.06-3.1-6.17-3.12-8.23A1.43,1.43,0,0,1,30.15,20h0a1.44,1.44,0,0,1,1.44,1.42,19.19,19.19,0,0,0,2.3,6.25,1.43,1.43,0,0,1,0,2A1.41,1.41,0,0,1,32.88,30.07Z"/><path class="cls-14" d="M29.9,33.05a1.44,1.44,0,0,1-1-.41,28.35,28.35,0,0,1-3.8-5.73,1.44,1.44,0,0,1,.9-1.82,1.42,1.42,0,0,1,1.82.9,31.49,31.49,0,0,0,3.09,4.59,1.44,1.44,0,0,1-1,2.47Z"/><path class="cls-14" d="M25.8,35.44a1.46,1.46,0,0,1-.94-.35,19,19,0,0,1-2.15-2.35,1.44,1.44,0,0,1,2.41-1.58,15.83,15.83,0,0,0,1.62,1.75,1.44,1.44,0,0,1-.94,2.53Z"/><path class="cls-14" d="M24.16,39.77a1.38,1.38,0,0,1-.8-.25c-.35-.23-.71-.45-1.06-.64a1.44,1.44,0,0,1,1.36-2.53,12.65,12.65,0,0,1,1.31.79,1.43,1.43,0,0,1,.38,2A1.45,1.45,0,0,1,24.16,39.77Z"/><path class="cls-14" d="M73.44,39.71h-.27a1.44,1.44,0,0,1,.19-2.86c.18-.05.55-.19.7-.24l.34-.13a1.44,1.44,0,0,1,.87,2.75l-.2.07A4.87,4.87,0,0,1,73.44,39.71Z"/><path class="cls-14" d="M73.91,44.05a1.43,1.43,0,0,1-1.07-2.4,2.08,2.08,0,0,1,2.1-.56,1.44,1.44,0,0,1,1,1.76,1.48,1.48,0,0,1-1.44,1.06A1.3,1.3,0,0,1,73.91,44.05Z"/><path class="cls-15" d="M67.56,54.05A2.89,2.89,0,0,1,68,55c1,3.43-6.95,2.57-7.91,1.09-1.78-2.76.85-3.55,2.83-3.59C64.43,52.43,66.55,52.65,67.56,54.05Z"/><path class="cls-15" d="M40.16,54a2.76,2.76,0,0,1,.55.81C42.14,57.9,35,58.34,33,57c-2.74-1.87.54-3.61,2.44-3.89C36.91,52.89,39,52.85,40.16,54Z"/><path class="cls-11" d="M38.74,46.27c-4.07-1.06-6.61,3.36-3.83,4.78a9.41,9.41,0,0,1,4,.2C41.66,50.38,41.77,47.05,38.74,46.27Z"/><path class="cls-16" d="M53.63,53.13c-.63-.58-1.77.19-2.9.28s-1.95-.39-2.86.16.32,2,3,1.79S54.18,53.63,53.63,53.13Z"/><path class="cls-15" d="M50.31,48.76c-1.93,0-3.12,3.53-2.21,4.61.64.75,4.84.43,5.42-.54C53.73,52.47,52.14,48.78,50.31,48.76Z"/><path class="cls-17" d="M37,47.76c-1.24.35-.29,2.3.91,1.59C38.8,48.83,38.12,47.46,37,47.76Z"/><path class="cls-11" d="M64.63,45.57c-4.17-.52-6.09,4.19-3.14,5.25a9.32,9.32,0,0,1,4-.33C68.09,49.27,67.74,46,64.63,45.57Z"/><path class="cls-17" d="M63.1,47.16c-1.16.5,0,2.32,1.1,1.46C65,48,64.12,46.72,63.1,47.16Z"/><path class="cls-18" d="M37.34,59.47c7-.17,18.95-1.75,26.59-.6.7.11,1.12.22.57.53-1.69,1-3.86,2.52-4.06,3.81-.41,2.64-1.16,7.63-9.15,7.69-9.55.07-13.64-8.41-14.72-10.72C36.32,59.64,36.77,59.49,37.34,59.47Z"/><path class="cls-19" d="M37.65,60.32S48.5,62.49,63,59.39a5.2,5.2,0,0,0-2.9,3.18c-.45,1.7-1.54,4.12-10,4.44C40.74,67.35,37.65,60.32,37.65,60.32Z"/><path class="cls-20" d="M40.68,61a3.51,3.51,0,0,0,2.86,3.12,24.69,24.69,0,0,0,12,.23c2.86-.61,4.64-4.11,4.64-4.11A110.55,110.55,0,0,1,40.68,61Z"/><path class="cls-20" d="M41.69,64.41c-.27-.58-.23-1.23,1.31-.79a34.54,34.54,0,0,0,9.26.8c4-.1,5-1.3,5.66-.69s-2.21,3.63-8.56,3.35C42.09,66.76,41.69,64.41,41.69,64.41Z"/><path class="cls-21" d="M40.94,62s15.16-1.31,18.48-.44a5.29,5.29,0,0,0,.79-1.29A128.81,128.81,0,0,1,40.67,61,2.72,2.72,0,0,0,40.94,62Z"/><path class="cls-21" d="M43.83,63.63a36.52,36.52,0,0,0,13.22,0S50,65.81,43.83,63.63Z"/><path class="cls-22" d="M28.13,45.33s1.24,4.09,8.34,1.57c2.89-1,4.5,2,4.5,2s0-4.74-4.3-3.79C34.49,45.55,31.72,47.8,28.13,45.33Z"/><path class="cls-22" d="M72.49,45.2s-1.41,3.85-7.83,1.55a3.75,3.75,0,0,0-4.49,1.7s.23-4.6,4.24-3.62C66.46,45.34,69,47.55,72.49,45.2Z"/><path class="cls-11" d="M30.71,41.68c2-2.64,8.64-4.27,11.2-2.13C38.12,40.46,36.22,40.62,30.71,41.68Z"/><path class="cls-11" d="M70.8,41.68c-2-2.64-8.64-4.27-11.2-2.13C63.39,40.46,65.29,40.62,70.8,41.68Z"/></g></g></g></svg>