<svg xmlns="http://www.w3.org/2000/svg" xmlns:xlink="http://www.w3.org/1999/xlink" viewBox="0 0 66 66"><defs><style>.cls-1{fill:none;}.cls-2{clip-path:url(#clip-path);}.cls-3{fill:#fff;}.cls-4{fill:#62698a;}.cls-5{fill:#23232d;}.cls-6{opacity:0.15;}.cls-7{fill:#d9c9b2;}.cls-8{fill:#bdaf9b;}.cls-9{fill:#f2e4ce;}.cls-10{fill:#c93712;}.cls-11{fill:#ff3b3b;}.cls-12{fill:#ffbc82;}.cls-13{fill:#a61900;opacity:0.2;}.cls-14{fill:#bf3c1b;opacity:0.3;}.cls-15{fill:#e85216;}.cls-16{fill:#ff7752;}.cls-17{opacity:0.8;}.cls-18{fill:#80221d;}.cls-19{fill:#fff9f0;}.cls-20{fill:#e8dac5;}.cls-21{fill:#4f4f4f;}.cls-22{fill:#edf0ef;opacity:0.7;}.cls-23{fill:#121b21;}.cls-24{fill:#3a3a4a;}</style><clipPath id="clip-path" transform="translate(0)"><circle class="cls-1" cx="33" cy="33" r="33"/></clipPath></defs><g id="Layer_2" data-name="Layer 2"><g id="avatars"><g class="cls-2"><rect class="cls-3" width="66" height="66"/><path class="cls-4" d="M20.29,59.93c-.49,2.92-.9,6.07-.9,6.07h9L25.68,53.14C22.62,53.94,21.08,55.22,20.29,59.93Z" transform="translate(0)"/><path class="cls-4" d="M46.13,59.93c.49,2.92.9,6.07.9,6.07H38l2.71-12.86C43.8,53.94,45.34,55.22,46.13,59.93Z" transform="translate(0)"/><path class="cls-4" d="M37.87,55.27c-3.18-1.82-8.53-1.35-11.21.85-2.05,1.68.19,7.36-.13,8.78a7.78,7.78,0,0,1-.35,1.1H39.5c-.18-.38-.32-.69-.4-.88C38.66,64.07,40.7,56.89,37.87,55.27Z" transform="translate(0)"/><path class="cls-5" d="M30.8,60.07a.83.83,0,0,0-.28,1.14.83.83,0,0,0,1.42-.85A.83.83,0,0,0,30.8,60.07Z" transform="translate(0)"/><path class="cls-5" d="M34.78,60a.84.84,0,0,0-.29,1.14A.83.83,0,1,0,34.78,60Z" transform="translate(0)"/><path class="cls-5" d="M34.86,63.11A.83.83,0,1,0,36,63.4.84.84,0,0,0,34.86,63.11Z" transform="translate(0)"/><path class="cls-5" d="M30.86,63.12a.82.82,0,1,0,.84,1.42A.81.81,0,0,0,32,63.41.82.82,0,0,0,30.86,63.12Z" transform="translate(0)"/><path class="cls-5" d="M28.08,54.43c-1.21,3.13,3.41,4.65,4.85,2.07,1.13,2.41,5.91,1.11,4.71-2.21S29.49,50.8,28.08,54.43Z" transform="translate(0)"/><path class="cls-6" d="M25.43,56.61c2.06,3,7.34,3.55,9.86,2.76a7.59,7.59,0,0,0,5.38-5.28C42.6,45.71,19.62,48.12,25.43,56.61Z" transform="translate(0)"/><path class="cls-7" d="M25.4,55.77c2.1,2.9,7.51,3.4,10.11,2.63,2-.59,4.78-2.09,5.53-5.13C43.06,45.16,19.47,47.58,25.4,55.77Z" transform="translate(0)"/><path class="cls-8" d="M27.2,52.29c1.44,1.57,5.19,2.35,7.68,1.6,1.41-.43,3.74-1,4.37-2.58C40.91,47,23.14,47.88,27.2,52.29Z" transform="translate(0)"/><path class="cls-6" d="M36.91,52.33a8.8,8.8,0,0,0-4.66,1.09c2,.94,3,5.71,3.24,9.34.06,1,.1,2.12.15,3.24H43c-.16-4.19-1.36-9.53-2.45-11.5A4.11,4.11,0,0,0,36.91,52.33Z" transform="translate(0)"/><path class="cls-7" d="M37.1,52.14a9.74,9.74,0,0,0-4.88,1.24c2.09.87,3.73,4.4,4.09,9.58,0,.71.09,1.83.15,3h7.22c0-4.12-1.46-9.75-2.74-11.81A4.33,4.33,0,0,0,37.1,52.14Z" transform="translate(0)"/><path class="cls-9" d="M41.53,59.14c-.4-1.28-1-3.35-1.91-4.26a7.33,7.33,0,0,0,0,2.29c-.44-.68-1.19-2.31-2.26-1.55-.84.61-.3,2.37-.08,3.16a4.63,4.63,0,0,0-1.35-1.57h0a32.68,32.68,0,0,1,2,8.08,4.39,4.39,0,0,1,0,.72h4.81c0-.23,0-.46,0-.67A23.78,23.78,0,0,0,41.53,59.14Z" transform="translate(0)"/><path class="cls-9" d="M32.9,55.81c-.27-.28-1.53,0-1.9-.07a8.93,8.93,0,0,1-1.92-.37,13.1,13.1,0,0,1-2.81-1.65l-1-1a7.59,7.59,0,0,1,.24,1.16,3.75,3.75,0,0,0,1,2.18,6.4,6.4,0,0,0,4.81,1.86c.31,0,1.56,0,1.58-.49S32,56.88,31.67,57C32,56.85,33.54,56.48,32.9,55.81Z" transform="translate(0)"/><path class="cls-10" d="M36.49,9.91c-.67-1.82-.77-2.47-.45-3.65A5.22,5.22,0,0,0,33.1,9.41a7.52,7.52,0,0,0-6-3.3,8.36,8.36,0,0,1,2.21,3.66c-1.49.19-2.53.2-4,.38C17.54,11.07,13,15.66,10.86,22.6c-1,3.28-.63,7.87-.2,11.23.22,1.71,1.88,6.07-.06,7.36a1.51,1.51,0,0,1-2.41-1.44,3.14,3.14,0,0,0-.59,5c1.58,1.42,4.47,1.6,6.39,1a10.06,10.06,0,0,0,1.86,7.66,5.06,5.06,0,0,1,1.7-2.71c-.51.37,1.61,1.48,1.83,1.53a5.12,5.12,0,0,0,2.55-.45c2.21-.71,3.92-1.93,6.29-2.4,1.9-.37,18.59,3,18.13-.36.12.86.18,1.76.29,2.63,1.8-1.35,3.36-3.54,3.17-5.88,2.63-.34,4.37-1.1,3.61-4-.44,1.15-1.87,1.07-2.83.61-3.18-1.51-.84-7,.61-10.74A18.11,18.11,0,0,0,52.07,29a35.43,35.43,0,0,1,1.78,3.1C54.85,27.17,55.35,11,36.49,9.91Z" transform="translate(0)"/><path class="cls-11" d="M46.47,40.23a1.35,1.35,0,1,0,1.35,1.35A1.34,1.34,0,0,0,46.47,40.23Z" transform="translate(0)"/><path class="cls-12" d="M29.8,14.19c-7.63,1.49-13,12.47-11.61,22.76,1,7.72,7,16.18,16,15.54,9.14-.65,13.69-12,12.51-21.47C45.37,20.7,40.49,12.11,29.8,14.19Z" transform="translate(0)"/><path class="cls-13" d="M44.84,17.81a22,22,0,0,0-5.2-2,34.62,34.62,0,0,0-9.26-1.46c-2.79,0-5.81-.2-8.41,1-1.43.65-3.18,1.53-3.72,3.11-.66,2-.34,4.44,0,6.45a17.6,17.6,0,0,0,2.06,6.37A7.89,7.89,0,0,1,22,27c.76-1,1.85-2.67,3.14-2.88,0,0-.89,2.49-1,2.74A5.25,5.25,0,0,1,22,28.66c.79.69,3.16.59,4.12.41a5,5,0,0,0,2-.73,2.5,2.5,0,0,0-.12.78c1.26-.16,2.54-.1,3.83-.35a17.89,17.89,0,0,0,2.77-.88,1.78,1.78,0,0,0-.28.61,4.93,4.93,0,0,0,.76-.28,2.18,2.18,0,0,0-.2.9c2.46,0,5,0,7.47-.24a5.23,5.23,0,0,0,4.18-2.56,6.73,6.73,0,0,0,.78-3.44c-.08-1.15.09-2.26-.53-3.29A5.65,5.65,0,0,0,44.84,17.81Z" transform="translate(0)"/><path class="cls-12" d="M15.53,32.66c-3.75,1-2.25,6.51.81,7.61a7.48,7.48,0,0,0,3,.33l.06-.1c.45-.71-.18-4.7-.41-5.45C18.45,33.16,17.33,32.17,15.53,32.66Z" transform="translate(0)"/><path class="cls-14" d="M16.84,34.68c-.84-.39-2.94.31-1.95,2,.52-1.53,1.45-.53,1.31.56-.1.72-.88.73-.11,1.67.42.5,1.28.32,1.71.05C19.16,38.06,17.87,35.15,16.84,34.68Z" transform="translate(0)"/><path class="cls-10" d="M45.8,16.72c-1.61-1.13-2.52-2.88-4.4-3.81A21.7,21.7,0,0,0,36,11.08a26.23,26.23,0,0,0-7.86-.24c-4.32.52-9.54,2.57-10.9,7.15-.84,2.81-.4,6.07-.19,9,.25,3.31-.29,7.24,2.81,9.47.2-.8.16-1.67.29-2.49a16.08,16.08,0,0,0,.43-3.24,10.37,10.37,0,0,1,.09-3.09,8.49,8.49,0,0,1,3.23-4.48c1.23-.95,2-.47,1.58,1a7.2,7.2,0,0,1-2.59,3.24c.12-.09,3.22.25,3.88,0A5.77,5.77,0,0,0,30.1,25c-.64,1.09-.44,1.79-1.44,2.77,3,.9,4.65-.06,7.16-1.88A6.2,6.2,0,0,1,35,27.34c.38-.2,1-.57,1.35-.73-.18.51-.4,1-.61,1.47,2-.3,4,.49,5.93,0,2.45-.58,6.33-3.54,6.77-6.14a4.56,4.56,0,0,0-.59-3A7,7,0,0,0,45.8,16.72Z" transform="translate(0)"/><path class="cls-15" d="M47.59,15C47.07,17.42,44.21,19.44,42,20a57,57,0,0,1-16.14,1.88c-3.58-.06-9.94-.42-12.29-2.6-2.59,3.8-2.16,8.49-1.73,8.56,1.57.22,3-.51,4.4-1s1.81.46,2.8,1.11c-.75-.5,2.49-4.19,3-4.58,1.09-.85,2.68-1.47,3.89-.67s-.07,2.56-.3,3.59a25.61,25.61,0,0,0,5.95-3.44c-.19,1.27-.49,2.42-.79,3.63a6.5,6.5,0,0,0,4-2c.62-.57,1.11-1.44,1.88-1.82.39-.2.64-.42.78.11a9.75,9.75,0,0,1-.67,1.8c.58-.37,1.94-2.27,2.7-2s-1.83,4.39-2.17,4.3a8.9,8.9,0,0,0,6.6-1.25,9.83,9.83,0,0,0,2.48-2.15c.84-1,.16-1.91.51-3.08a8.26,8.26,0,0,1,1,1.68c.62,1.87.12,3.54-.36,5.43,2.58,1.06,3.14-.91,3.62-3.16.52.71.82,1.57,1.36,2.28C53.5,22.09,49.89,16.57,47.59,15Z" transform="translate(0)"/><path class="cls-16" d="M45.54,37.68a2.62,2.62,0,0,0-2.2-1c-1-.06-2.32.25-1.59,1.75.38.8,4.24,1.58,4-.24A1.5,1.5,0,0,0,45.54,37.68Z" transform="translate(0)"/><path class="cls-16" d="M26.74,37.73a2.72,2.72,0,0,0-2.6-.67c-1.09.16-2.51.82-1.45,2.4.56.84,4.93.85,4.31-1.2A1.64,1.64,0,0,0,26.74,37.73Z" transform="translate(0)"/><path class="cls-10" d="M39.92,29.81a60.13,60.13,0,0,0,7.49.15C46.21,28.19,41.54,28.14,39.92,29.81Z" transform="translate(0)"/><path class="cls-14" d="M35.09,38.25c-.72,0-1-.28-1.52,0s.61,1.27,1.51,1.18,1.84-.94,1.57-1.24S35.9,38.24,35.09,38.25Z" transform="translate(0)"/><path class="cls-10" d="M20.84,29.53c4,.06,5.37.22,8.15.13C27.51,27.79,22.6,28,20.84,29.53Z" transform="translate(0)"/><g class="cls-17"><path class="cls-11" d="M24.93,40.79c4,6.22,6.5,7.33,9.59,7.47,3.87.18,5.16-2.41,5.72-4.35a11.07,11.07,0,0,1,2.92-3.43c-2.41.6-4.79.33-8.42.5C31.73,41.12,27.32,42.05,24.93,40.79Z" transform="translate(0)"/></g><path class="cls-18" d="M26.77,41.86A9,9,0,0,0,34,46.07c3.08,0,5.1-1,5.66-2.44a4,4,0,0,1,1.91-2.16A31.76,31.76,0,0,1,26.77,41.86Z" transform="translate(0)"/><path class="cls-19" d="M28.56,42.21A2.32,2.32,0,0,0,30.44,44a16.32,16.32,0,0,0,7,.2c1.65-.27,2.43-2.29,2.43-2.29A34,34,0,0,1,28.56,42.21Z" transform="translate(0)"/><path class="cls-19" d="M35.22,44.35c-2.2.11-4,0-5.14-.69-.8-.49-.86,0-.69.38,0,0,.74,1.74,4.4,2.09,3.51.34,5.31-1.78,4.9-2.13S37.26,44.25,35.22,44.35Z" transform="translate(0)"/><path class="cls-20" d="M28.56,42.21a2,2,0,0,0,.45.89s8.23-.8,10.21-.11a4.22,4.22,0,0,0,.66-1.13A39.07,39.07,0,0,1,28.56,42.21Z" transform="translate(0)"/><path class="cls-20" d="M30.73,43.91c3,1.7,6.5.18,6.5.18A12,12,0,0,1,30.73,43.91Z" transform="translate(0)"/><path class="cls-21" d="M25.58,31.53c-2.12-.77-3.16,3.13-1.68,4.27a2.84,2.84,0,0,1,2.05,0C27.28,35,27.16,32.11,25.58,31.53Z" transform="translate(0)"/><path class="cls-22" d="M25.92,32.81c-.87.15-.53,1.93.38,1.47C27,34,26.7,32.69,25.92,32.81Z" transform="translate(0)"/><path class="cls-21" d="M44.46,31.61c-2.1-1.39-4,3.55-1.68,4.29a2.55,2.55,0,0,1,1.86-.27C45.47,34.59,45.59,32.35,44.46,31.61Z" transform="translate(0)"/><path class="cls-22" d="M44.33,32.66c-.84,0-.75,1.87.16,1.54C45.15,34,45.07,32.66,44.33,32.66Z" transform="translate(0)"/><path class="cls-23" d="M44.52,31.5c-1.93-.77-2.6,1.52-2.6,1.52a1.8,1.8,0,0,1,2.27-.39,4,4,0,0,0,5-.29C46.75,33.1,45.56,31.92,44.52,31.5Z" transform="translate(0)"/><path class="cls-23" d="M24.17,31.65a6.32,6.32,0,0,1-5,.93,4.41,4.41,0,0,0,5.18.14,2,2,0,0,1,2.35.16S26.18,30.6,24.17,31.65Z" transform="translate(0)"/><path class="cls-11" d="M17.48,41.12a1.35,1.35,0,1,0,1.35,1.35A1.34,1.34,0,0,0,17.48,41.12Z" transform="translate(0)"/><path class="cls-5" d="M35.15,3.57C27.23,3.84,20.61,5.75,15,11.23c-1.83,1.78-5,5.9-.83,7.43A35.09,35.09,0,0,0,33.49,20c3.5-.69,11-2,12.78-5.7C49.71,7,43.91,3.27,35.15,3.57Z" transform="translate(0)"/><path class="cls-24" d="M37.7,4.41c-1.25-.09-3.68-.52-4.76.43A1.2,1.2,0,0,0,33.79,7c-2.34,0-4.81.71-7,.76.5-.37,2-1,2.23-1.53,1-2.3-4.3-.24-4.93,0-3.06,1.2-7.92,3.88-8.73,7.26,1.7,1.38,2.54-.24,4.14-.22,1.18,0,1.26,1,2.66,1.25,1,.18,1.84-.37,2.83-.4,3.94-.09,7.49,1.26,11.3-.49,1.21-.56,1.9-1.83,3.17-2.26,1-.33,2.22.37,3.14-.37s.16-1.55.76-2.24,1.69-.2,1.83-1.06C45.54,5.36,39.16,4.5,37.7,4.41Z" transform="translate(0)"/><path class="cls-5" d="M31.07,1.08A7.84,7.84,0,0,0,30,6.3l1,.08a9.32,9.32,0,0,1,2.51-4.62C33.5.88,31.5.56,31.07,1.08Z" transform="translate(0)"/></g></g></g></svg>