<svg xmlns="http://www.w3.org/2000/svg" xmlns:xlink="http://www.w3.org/1999/xlink" viewBox="0 0 66 66"><defs><style>.cls-1{fill:none;}.cls-2{clip-path:url(#clip-path);}.cls-3{fill:#fff;}.cls-4{fill:#94abd4;}.cls-5{fill:#1e1e29;}.cls-6{opacity:0.2;}.cls-7{fill:#bacbe3;}.cls-8{fill:url(#linear-gradient);}.cls-9{fill:#d4bfa0;}.cls-10{fill:#704432;}.cls-11{fill:#ffcb9e;}.cls-12{fill:#bf3c1b;}.cls-12,.cls-13,.cls-18{opacity:0.3;}.cls-13{fill:#c94614;}.cls-14{fill:#eddbc0;}.cls-15{fill:#636f75;}.cls-16{fill:#ffa073;}.cls-17{fill:#224245;}.cls-18{fill:#b54d26;}.cls-19{fill:#ffdfc2;}.cls-20{fill:#d4e6dd;opacity:0.7;}.cls-21{fill:#2b221c;}.cls-22{opacity:0.8;}.cls-23{fill:#ad4c3d;}</style><clipPath id="clip-path" transform="translate(0)"><circle class="cls-1" cx="33" cy="33" r="33"/></clipPath><linearGradient id="linear-gradient" x1="-2175.65" y1="52.14" x2="-2175.65" y2="57.02" gradientTransform="matrix(-1, 0, 0, 1, -2142.87, 0)" gradientUnits="userSpaceOnUse"><stop offset="0" stop-color="#ee996d"/><stop offset="0.02" stop-color="#ee9a6e"/><stop offset="0.37" stop-color="#f8b181"/><stop offset="0.71" stop-color="#fdbf8d"/><stop offset="1" stop-color="#ffc491"/></linearGradient></defs><g id="Layer_2" data-name="Layer 2"><g id="avatars"><g class="cls-2"><rect class="cls-3" width="66" height="66"/><path class="cls-4" d="M19.47,66c0-.24.19-3.08.35-4.9A8.72,8.72,0,0,1,27,53.36l.88,4.18c-2.37,1.17-2.7,8.46-2.7,8.46Z" transform="translate(0)"/><path class="cls-4" d="M45.28,66c0-.24-.2-3.08-.36-4.9a8.7,8.7,0,0,0-7.21-7.74l-.87,4.18C39.21,58.71,39.53,66,39.53,66Z" transform="translate(0)"/><path class="cls-4" d="M26.44,53.7c-3.21,2.17-2.8,6.51-2.53,12.3h18c.11-5.75-.09-10.87-3.24-12.62C34.75,51.19,29,51.94,26.44,53.7Z" transform="translate(0)"/><path class="cls-5" d="M32.63,57.64A2.21,2.21,0,0,0,30.28,59l1.47,1.64L30.17,66h4.75L33.2,60.64l1.46-1.56A2.17,2.17,0,0,0,32.63,57.64Z" transform="translate(0)"/><path class="cls-6" d="M38.1,55.07a7.1,7.1,0,0,1-3.3,5.25L32.36,58,30.5,60.34a8.51,8.51,0,0,1-3.37-4.53C26.37,52.92,38.12,53.68,38.1,55.07Z" transform="translate(0)"/><path class="cls-7" d="M32.37,57.75l2.32,1.91s4.75-3,3.07-7c-1.52-3.59-8.51-3.53-10.6-.32s3.17,7.2,3.17,7.2Z" transform="translate(0)"/><path class="cls-8" d="M32.68,57.37c1.2,0,6.32-4,2.72-7.85a4.58,4.58,0,0,0-4.28-.94c-1.29.38-2.14,2-2.23,3.72C28.78,54.45,31.08,57.31,32.68,57.37Z" transform="translate(0)"/><path class="cls-9" d="M32.47,11.91C.88,14.57,2.79,51.84,34.81,46.16,66.58,40.53,59.83,9.62,32.47,11.91Z" transform="translate(0)"/><path class="cls-10" d="M47.13,17.68a9.57,9.57,0,0,0-3.32-4.07C40.43,11.45,36.58,11,32.69,11c-3.66,0-7.73.37-10.9,2.37a10.6,10.6,0,0,0-4.65,5c-.71,1.75-1.52,3.3-.31,5a3.65,3.65,0,0,0,4,1.38,5.31,5.31,0,0,1,3.67.33c1.44.55,2.77,1.38,4.25,1.8,2.54.73,5.27.42,7.77,1.27a10.83,10.83,0,0,0,7.07.33c1.45-.43,3.73-.74,4.5-2.23.57-1.13.29-3.21.17-4.42A13.45,13.45,0,0,0,47.13,17.68Z" transform="translate(0)"/><path class="cls-11" d="M18.57,38.12C19.64,46,25.68,54.55,34.78,53.9c9.28-.66,13.9-12.17,12.71-21.81C46.18,21.62,41.22,12.89,30.37,15,22.61,16.52,17.15,27.67,18.57,38.12Z" transform="translate(0)"/><path class="cls-12" d="M19.27,19.45c.53-1.53,2.28-2.38,3.7-3,2.59-1.14,5.61-1,8.39-.94a35.44,35.44,0,0,1,9.22,1.41c2,.57,5.71,1.09,6.39,3.32.87,2.83-.7,3.64-4,2.88C38,22,26.86,22.6,24.48,23.83a5.69,5.69,0,0,0-2.56,1.84c-.67,1-1.06,2.09-1.71,3.07-.16.24-.62,1.16-1,1.09-.55-.09-.33-1.63-.32-2a15.58,15.58,0,0,0,.07-3.2A9.49,9.49,0,0,1,19.27,19.45Z" transform="translate(0)"/><path class="cls-11" d="M16.7,41.49a7.31,7.31,0,0,0,3.07.33l.06-.09c.46-.72-.18-4.77-.41-5.54-.59-1.92-1.72-2.93-3.55-2.42C12.06,34.82,13.59,40.37,16.7,41.49Z" transform="translate(0)"/><path class="cls-13" d="M18.17,40.12c1.39-.88.08-3.83-1-4.31-.85-.39-3,.32-2,2,.53-1.55,1.47-.53,1.33.57-.1.74-.89.75-.1,1.7C16.87,40.58,17.74,40.39,18.17,40.12Z" transform="translate(0)"/><path class="cls-10" d="M41.56,14.55a17.36,17.36,0,0,0-5.4-1.09,40.21,40.21,0,0,0-10,.45c-1.92.43-4.55,1-6.1,2.26C17.92,18,17.74,20.46,17.86,23c.11,2.29,2.5,3.24,3.8,1.6a7.41,7.41,0,0,1,5.12-2.43c2.94-.11,15.93-1,18.18.77,5,3.94,2.94-3.64.47-6.06A11.37,11.37,0,0,0,41.56,14.55Z" transform="translate(0)"/><path class="cls-10" d="M21.66,24.64c-1.91,3-2.35,6.84-.93,11.66,0,0-2.24-2.45-4.06-2.66-.25-.68-.67-8.23.39-9.93A20.64,20.64,0,0,0,21.66,24.64Z" transform="translate(0)"/><path class="cls-14" d="M37.41,4.35c1.59.64,8,7.41,8,7.41L16.7,16.67S18.77,8.57,20.82,7C24.08,4.4,34.11,3,37.41,4.35Z" transform="translate(0)"/><path class="cls-15" d="M43,9.29c1.58,1.57,2.39,2.47,2.39,2.47L16.7,16.67a20.93,20.93,0,0,1,.78-2.7C19.24,8.7,39.25,5.56,43,9.29Z" transform="translate(0)"/><path class="cls-9" d="M31.64,11.05C12,13.73,8.38,25.43,10,33.89c.64,3.36,3.72,1,4.47-3C17.12,16.66,44.77,10.4,51,26.3c2.32,6,4.9,6.1,5,1.14C56,19.06,50.08,8.53,31.64,11.05Z" transform="translate(0)"/><path class="cls-16" d="M46.94,36.77a1.87,1.87,0,0,1,.26.57c.54,2.14-4.29,1.41-4.86.48-1.07-1.75.55-2.17,1.76-2.14A3.45,3.45,0,0,1,46.94,36.77Z" transform="translate(0)"/><path class="cls-16" d="M26.9,36.42a1.78,1.78,0,0,1,.41.52c1.12,2-4,2.54-4.81,1.74-1.54-1.49,0-2.34,1.24-2.63A3.61,3.61,0,0,1,26.9,36.42Z" transform="translate(0)"/><path class="cls-17" d="M26.13,35.15a2.91,2.91,0,0,0-2-.17c-1.37-1.15-.11-4.7,1.89-3.84C27.53,31.78,27.47,34.46,26.13,35.15Z" transform="translate(0)"/><path class="cls-18" d="M38,37.58c-.5-.61-1.2.07-2.5.08s-1.63-.52-2.44,0,.35,2,2.41,2S38.47,38.11,38,37.58Z" transform="translate(0)"/><path class="cls-19" d="M35.24,33.27c-2.2-.19-2.36,4.45-1.86,4.85,1.23,1,3.8.28,4.55-.5C38.22,37.31,37.33,33.46,35.24,33.27Z" transform="translate(0)"/><path class="cls-17" d="M45.29,31.29c1.08.66,1.07,2.91.26,3.81a2.65,2.65,0,0,0-2.12,0C41.76,34,43.25,30.07,45.29,31.29Z" transform="translate(0)"/><path class="cls-20" d="M25.09,32c.72-.25,1.16.86.59,1.28C24.89,33.84,24.28,32.26,25.09,32Z" transform="translate(0)"/><path class="cls-20" d="M44.24,32c.71-.14,1,1,.4,1.29C43.82,33.73,43.44,32.16,44.24,32Z" transform="translate(0)"/><path class="cls-21" d="M28.83,26.68c.75.05,1.22.61.92,1.52-.24.73-1.9.43-4.06.56-2.35.14-3.83.51-4,0s1.09-1.4,3.14-1.85A13.37,13.37,0,0,1,28.83,26.68Z" transform="translate(0)"/><path class="cls-21" d="M41.27,26.68c-.75.05-1.22.61-.92,1.52.24.73,1.89.43,4.06.56,2.34.14,3.05.38,3.26-.09S47.35,27.4,45.31,27A13.39,13.39,0,0,0,41.27,26.68Z" transform="translate(0)"/><g class="cls-22"><path class="cls-23" d="M27.72,39.88c1.1,2.08-1.51,3.06-2.59,1A2,2,0,0,0,27.72,39.88Z" transform="translate(0)"/><path class="cls-23" d="M42.4,39.53a1.47,1.47,0,1,0,2.81.79A2.18,2.18,0,0,1,42.4,39.53Z" transform="translate(0)"/><path class="cls-23" d="M34.82,46.82a9.34,9.34,0,0,1-8.29-5,.5.5,0,0,1,.33-.7.69.69,0,0,1,.82.33,8.08,8.08,0,0,0,7.4,4.23c3.63,0,6.73-1.88,7.77-4.78a.61.61,0,0,1,.77-.32.57.57,0,0,1,.41.71c-1.19,3.34-4.72,5.51-8.88,5.49Z" transform="translate(0)"/></g></g></g></g></svg>