<svg xmlns="http://www.w3.org/2000/svg" xmlns:xlink="http://www.w3.org/1999/xlink" viewBox="0 0 66 66"><defs><style>.cls-1{fill:none;}.cls-2{clip-path:url(#clip-path);}.cls-3{fill:#7997a0;}.cls-4{fill:#1e1e29;}.cls-5{fill:#ffcb9e;}.cls-6{fill:#404048;}.cls-7{fill:#141418;}.cls-14,.cls-30,.cls-31,.cls-8,.cls-9{fill:#fff;}.cls-9{opacity:0.5;}.cls-10{fill:#5e4684;}.cls-11{fill:#121219;}.cls-12{fill:#3a3a4a;}.cls-13,.cls-16,.cls-17,.cls-22,.cls-30{opacity:0.3;}.cls-14{opacity:0.25;}.cls-15{fill:#4f3023;}.cls-16{fill:#bf3c1b;}.cls-17{fill:#c94614;}.cls-18{fill:#693a27;}.cls-19{fill:#bf795c;}.cls-20{fill:#ffa073;}.cls-21{fill:#224245;}.cls-22{fill:#b54d26;}.cls-23{fill:#ffdfc2;}.cls-24{fill:#d4e6dd;}.cls-24,.cls-31{opacity:0.7;}.cls-25{fill:#2b221c;}.cls-26{fill:#f7a286;}.cls-27{fill:#8f2724;}.cls-28{fill:#fff9f0;}.cls-29{fill:#e8dac5;}.cls-32{fill:#c1c5c9;}</style><clipPath id="clip-path" transform="translate(0)"><circle class="cls-1" cx="33" cy="33" r="33"/></clipPath></defs><g id="Layer_2" data-name="Layer 2"><g id="avatars"><g class="cls-2"><rect class="cls-3" width="66" height="66"/><path class="cls-4" d="M13.56,66H20.3L17.83,54.67C14.15,56.37,13.37,59.09,13.56,66Z" transform="translate(0)"/><path class="cls-5" d="M46.53,44.31c-2.16,3.4.49,4,3.11,5.28,1.3.65,2.91,1.87,3.64-.28a31,31,0,0,0,.6-3.42A12.55,12.55,0,0,1,55,42.5C56.47,40,53.21,33.82,46.53,44.31Z" transform="translate(0)"/><path class="cls-6" d="M44.18,29.49a1,1,0,0,0-1.4.22l-5.09,6.51a1,1,0,0,0,.13,1.42l11.6,9a1,1,0,0,0,1.41-.21L55.92,40a1,1,0,0,0-.14-1.41Z" transform="translate(0)"/><path class="cls-7" d="M43.77,29.2a1,1,0,0,0-1.36.23l-5,6.38a1,1,0,0,0,.11,1.38l11.06,8.63A1,1,0,0,0,50,45.6l5-6.39a1,1,0,0,0-.11-1.37Z" transform="translate(0)"/><path class="cls-7" d="M43.77,29.2a1,1,0,0,0-1.36.23l-5,6.38a1,1,0,0,0,.11,1.38l11.06,8.63A1,1,0,0,0,50,45.6l5-6.39a1,1,0,0,0-.11-1.37Z" transform="translate(0)"/><path class="cls-8" d="M44.12,31.23a.73.73,0,0,0-1,.12L39.44,36a.76.76,0,0,0,.14,1l8.55,6.67a.73.73,0,0,0,1-.12l3.63-4.65a.75.75,0,0,0-.13-1Z" transform="translate(0)"/><path class="cls-9" d="M42.41,29.43l-5,6.38a1,1,0,0,0,.11,1.38l7.94,6.19a86.29,86.29,0,0,1,3.35-10.23l-5-3.95A1,1,0,0,0,42.41,29.43Z" transform="translate(0)"/><path class="cls-5" d="M46.42,43.19c-.51-.42-1.94-.94-2.13-.06-.13.55.84,1.41,1.1,1.85.41.72,0,2.21,1,2.69.76.38,1.27-.27,1.48-.93A3.49,3.49,0,0,0,46.42,43.19Z" transform="translate(0)"/><path class="cls-4" d="M49.3,50s2.45,5.15,1.11,6.61c-1.09,1.19-1.57.67-5-1.34-.9-.54-2,7.1-1.74,7.21,3.08,1.55,7.1,2.5,10.56-.51,6.14-5.34-.06-16-.06-16Z" transform="translate(0)"/><path class="cls-4" d="M44.86,54.4C40,51,23,51.69,18,54.52c-2,1.13.16,5,1.45,11.48h23.7C44.24,61.15,46.59,55.62,44.86,54.4Z" transform="translate(0)"/><path class="cls-10" d="M24.27,52.28c-1.5,3.94,4.72,13.48,8.87,13.38s6.74-11,5.21-13.63S25.33,49.49,24.27,52.28Z" transform="translate(0)"/><path class="cls-11" d="M42.61,61.56c.09-.52-3.54-2.42-3.41-2.72s5.28-3,5.69-3.5-4.75-5.28-6.82-4.68c-.54.16,1.38,7.06-5.64,12.29A17.39,17.39,0,0,0,32,66h4.26l.08-.08C39.43,63,42.56,61.81,42.61,61.56Z" transform="translate(0)"/><path class="cls-12" d="M42.25,60.24c.09-.52-3.18-1.45-3-1.75s5-4.11,5.43-4.65-4.7-4.34-6.77-3.73c-.54.16,1.36,7.34-5.65,12.58A14.38,14.38,0,0,0,31.77,66h3.81c.11-.14.22-.29.34-.43C38.58,62.51,42.2,60.49,42.25,60.24Z" transform="translate(0)"/><path class="cls-11" d="M25,50.83c-2.6-.33-7.38,3.9-6.88,4.57s5.69,3.36,5.82,3.67-3.24,2.14-3.15,2.66c0,.23,4.67,1.9,7.45,4.27h5.62c-.16-.75-.35-1.54-.55-2.37C24.13,59.13,25.53,50.9,25,50.83Z" transform="translate(0)"/><path class="cls-12" d="M25.27,50.24c-2.61-.33-7.29,2.93-6.8,3.6s5.31,4.34,5.44,4.65-3.15,1.23-3.05,1.75c0,.23,4.69,2.5,7.47,4.86.34.29.67.6,1,.9h5.19c-.14-.85-.32-1.75-.55-2.71C24.59,58.88,25.83,50.31,25.27,50.24Z" transform="translate(0)"/><path class="cls-13" d="M32.1,62.28A12.57,12.57,0,0,1,34,63.61,16.37,16.37,0,0,1,34.51,66h.17a7,7,0,0,0-.42-2.55A9.36,9.36,0,0,0,32.1,62.28Z" transform="translate(0)"/><path class="cls-13" d="M23.84,50.4c-.23,2.59,3.9,4.87,8.57,4.62s7.13-2.83,6.91-4.79S24.05,48.2,23.84,50.4Z" transform="translate(0)"/><path class="cls-14" d="M36.33,54.44a.78.78,0,0,0-.3,0c-.54.2-1,.62-1.57.84a9.29,9.29,0,0,1-4.4.52c-.44-.05-.88-.09-1.31-.15-.68-.11-1.22.31-.52.83a4,4,0,0,0,.75.37c.1,0,.56.36.64.34-.28.07-1.54-.23-1.16.4.73,1.22,4.34.2,5.39-.13-.91.41-1.86.77-2.77,1.2-1.18.55-.56,1.3.44,1.49s2.08-.61,2.87-1.3a7.45,7.45,0,0,0,1.22-1.47C35.91,57,37.67,54.49,36.33,54.44Z" transform="translate(0)"/><path class="cls-15" d="M41.12,7.86c-8.38-1.81-22.45-.27-27.21,6.76a8.48,8.48,0,0,0-1.46,6.72c.61,2.49,2.41,4.14,5.17,3.34a5.51,5.51,0,0,1,3.79.2c1.51.5,2.91,1.3,4.46,1.68,2.48.61,5.08.3,7.56.83a13.13,13.13,0,0,1,4.49,2.38,12.82,12.82,0,0,1,3,2.56,5.93,5.93,0,0,0,2,2c.62.28,2,.78,2.44.07a6.41,6.41,0,0,0,.2-2.16c.07-.82.07-1.64.1-2.45.1-2.1.53-4.14.73-6.21a3.36,3.36,0,0,1,.48,2.61,8.73,8.73,0,0,0,3-3.8,10.92,10.92,0,0,0-.63-8.59A11.77,11.77,0,0,0,41.12,7.86Z" transform="translate(0)"/><path class="cls-5" d="M27,14.22c-7.93,1.86-13.11,13.57-11.23,24.3,1.42,8,8,16.65,17.34,15.62C42.67,53.08,47,41,45.35,31.14,43.58,20.4,38.12,11.6,27,14.22Z" transform="translate(0)"/><path class="cls-16" d="M37.62,15.77a36.16,36.16,0,0,0-9.56-1.08c-2.87.06-6,0-8.61,1.3-1.44.7-3.21,1.66-3.7,3.25-.4,1.31-.86,3-.1,4.15,1.62,2.34,4.55.79,5.65.16,2.41-1.37,13.59-.94,18.78-1.15,2.17-.08,5.27-.58,4.26-3.46C43.55,16.66,39.69,16.28,37.62,15.77Z" transform="translate(0)"/><path class="cls-5" d="M12.82,34.14C8.94,35.37,10.74,41,14,42.06a7.62,7.62,0,0,0,3.18.22l.06-.1c.44-.76-.38-4.91-.65-5.69C15.9,34.54,14.68,33.54,12.82,34.14Z" transform="translate(0)"/><path class="cls-17" d="M14.28,36.19c-.9-.37-3.07.45-2,2.13.48-1.62,1.5-.61,1.4.53-.08.77-.89.81,0,1.76.46.51,1.34.28,1.78,0C16.84,39.63,15.37,36.64,14.28,36.19Z" transform="translate(0)"/><path class="cls-15" d="M41.55,11.61a7.51,7.51,0,0,0-2-1.26,14.3,14.3,0,0,0-6.08-1c-1.61.07-3.21-.21-4.84-.14a32.54,32.54,0,0,0-5.28.72,19.34,19.34,0,0,0-6,2.07c-1.56.92-2.11,3-2.79,4.55A7,7,0,0,0,14.34,19a38.55,38.55,0,0,0,.11,4c.2,2.36,3.38,2.6,4.65.85,1.09-1.48,2.68-1.92,4.51-2.06,3-.23,14.88-1.25,17.71-.4,1.55.46,3.61,1.18,3.82-1.27a10.56,10.56,0,0,0-1-4.28A10.85,10.85,0,0,0,41.55,11.61Z" transform="translate(0)"/><path class="cls-18" d="M43.59,10.41c-4.08-2.11-9.42-2-13.83-1.65A27.1,27.1,0,0,0,19.22,12c-3.48,1.85-4.41,5.69-3.82,7.56,1.3-2.08,5.1-4.2,6.87-4.46-.15.93-1.77,2.82-2.08,3.69,1.4-.87,8.24-4.25,10.06-4.3-.58.71-1.92,1.64-1.78,2.65,3-.61,6.17-2.45,9.29-2.36-.92,1-2.43,1.22-3.19,2.4,3-.09,6.3-.65,9.41-.79a12.33,12.33,0,0,0-2.79,1.74c2.47,0,5.46-.4,7.85.23A10.19,10.19,0,0,0,43.59,10.41Z" transform="translate(0)"/><path class="cls-19" d="M13.65,23.72c-1,1.79-.3,9.56,0,10.25,1.88.15,4.29,2.58,4.29,2.58-.83-4.52-.21-7,.49-12.06A20.81,20.81,0,0,1,13.65,23.72Z" transform="translate(0)"/><path class="cls-20" d="M45,36a3.59,3.59,0,0,0-3-1c-1.25,0-2.9.53-1.73,2.28.62.94,5.64,1.5,5-.68A2,2,0,0,0,45,36Z" transform="translate(0)"/><path class="cls-20" d="M24.3,36.42c-.9-.73-2.3-.52-3.28-.25-1.27.35-2.81,1.29-1.17,2.76.88.79,6.12.06,4.9-2A2.09,2.09,0,0,0,24.3,36.42Z" transform="translate(0)"/><path class="cls-21" d="M23.21,31.17c-2.09-.81-3.24,2.9-1.79,4a2.92,2.92,0,0,1,2,.09C24.82,34.53,24.77,31.77,23.21,31.17Z" transform="translate(0)"/><path class="cls-22" d="M33.26,37.36c-1.2.06-1.7-.47-2.53.07s.45,2.09,2.58,1.93,3-1.65,2.52-2.18S34.59,37.3,33.26,37.36Z" transform="translate(0)"/><path class="cls-23" d="M32.77,32.85c-2.27-.11-2.26,4.68-1.72,5.07,1.3.95,3.93.14,4.67-.7C36,36.89,34.93,33,32.77,32.85Z" transform="translate(0)"/><path class="cls-21" d="M43,30.26c-2.14-1.18-3.53,2.93-1.75,4a2.76,2.76,0,0,1,2.18-.09C44.27,33.21,44.19,30.89,43,30.26Z" transform="translate(0)"/><path class="cls-24" d="M22.26,32.1c-.83.32-.13,1.92.66,1.3C23.5,33,23,31.82,22.26,32.1Z" transform="translate(0)"/><path class="cls-24" d="M42,31c-.82.2-.36,1.8.47,1.31C43.05,32,42.72,30.83,42,31Z" transform="translate(0)"/><path class="cls-25" d="M28.06,26.72a18.85,18.85,0,0,0-4.86-.18c-2.5.25-4.17,1.07-4,1.59s2,.3,4.84.42c2.61.11,4.55.62,4.92-.12A1.1,1.1,0,0,0,28.06,26.72Z" transform="translate(0)"/><path class="cls-25" d="M41.86,25.92a15,15,0,0,0-4.32.42,1.12,1.12,0,0,0-.77,1.75c.35.71,2.06.12,4.37-.13,2.51-.26,4.12-.13,4.29-.66S44.09,26,41.86,25.92Z" transform="translate(0)"/><path class="cls-26" d="M25.83,42c-2.66.39-2.25.87-1.26,2.21,1.64,2.24,5.5,4.8,11.12,3.59,2.77-.59,4.85-2.68,4.15-4.76l2.61-1.65C38.38,40.86,30.87,41.26,25.83,42Z" transform="translate(0)"/><path class="cls-27" d="M26.46,42.45c-1.6,0-2.2.31-.94,1.71C27.16,46,31.09,47.48,34.74,47c3.27-.41,5-2.64,4.56-4.52.33-.16.8-.47,1.25-.71C36.79,41.31,30.36,42.37,26.46,42.45Z" transform="translate(0)"/><path class="cls-28" d="M39.24,41.77a60.2,60.2,0,0,0-11.4.94c-.58.11-1.77.58-1.08,1,1.27.72,11.22.3,11.68.1C39.16,43.47,40.14,41.8,39.24,41.77Z" transform="translate(0)"/><path class="cls-29" d="M39.42,41.68A108,108,0,0,0,26,42.47a1.52,1.52,0,0,0,.77,1.21,28.88,28.88,0,0,1,12.65-1S40.19,41.73,39.42,41.68Z" transform="translate(0)"/><path class="cls-22" d="M43.66,27.39a22,22,0,0,0-4.41.75,19.66,19.66,0,0,0-3.81,1.12,4.44,4.44,0,0,1-2.74.88c-2.27-.06-4.19-1.44-6.46-1.64a19.1,19.1,0,0,0-7.07.21c-.61.18-2.42.89-1.18,1.52s3,.39,4.33.43c.6,0,1.22,0,1.82.07,2.16.16,5.46-.18,5.33,2.51-.09,1.84-1.26,3.75-2.75,4.12a20.06,20.06,0,0,1-4.42.52,7.58,7.58,0,0,1-3.22-.65c-.29-.13-1.16-.66-1.43-.27-.47.67,1.3,1.74,1.76,1.94a10.35,10.35,0,0,0,3.31.69c2.81.26,5.69.07,7.24-2.53.9-1.51,1.34-3.27,2.16-4.82,1.36-2.53,2.07.87,2.53,2.36a7.85,7.85,0,0,0,1.15,2.34A5.69,5.69,0,0,0,40,38.88a6.24,6.24,0,0,0,2.71-.4c.52-.22.72-.83.1-1.06a5.3,5.3,0,0,0-1.38,0,12.47,12.47,0,0,1-1.73-.12,5,5,0,0,1-2.09-.86,3.89,3.89,0,0,1-1.1-1.15,3.7,3.7,0,0,1-.27-3.15c.5-1.44,2.06-1.57,3.35-1.7,1.57-.16,3.16-.15,4.72-.32a16.2,16.2,0,0,1,2.09,0c.89,0,2.82-.3,1.74-1.58S45.11,27.3,43.66,27.39Z" transform="translate(0)"/><path class="cls-12" d="M16.73,28.51c-1.84.19-3.45-.21-3.86.2s.58,2.1.58,2.1a3.17,3.17,0,0,0,1.48.38c.22,1.27.39,4.59,2.9,6.51,2.09,1.6,8.55,1.64,10.47.49a7.74,7.74,0,0,0,3.54-6.12C32.51,26.41,19.33,28.23,16.73,28.51Zm11.59,8.17c-2.32,1.75-8.62,1.46-10.39-.42-1.36-1.46-1.82-4.68-1.09-5.19,2.24-1.58,11.07-1.69,13.22-.28C31.1,31.47,30.09,35.34,28.32,36.68Z" transform="translate(0)"/><path class="cls-12" d="M47.42,27.29c-2.36-.06-14.36-.77-13.35,4.81.41,2.28,1.38,4.58,3.63,5.8,1.82,1,7.63.41,9.4-1.36,2.12-2.12,2-5.44,2.13-6.73a2.75,2.75,0,0,0,1.31-.5s.89-1.67.37-2.15S49.09,27.33,47.42,27.29Zm-.52,7.82c-1.46,2-7.11,2.84-9.33,1.29-1.68-1.18-2.87-5-2-5.73,1.84-1.57,9.79-2.21,11.92-.82C48.2,30.3,48,33.55,46.9,35.11Z" transform="translate(0)"/><path class="cls-30" d="M37.15,30.21c-1.32.53,1,1.28,1.55,1.36a17.39,17.39,0,0,0,5.66-.08c1-.16,3.14-1,2.55-1.58C46.07,29.13,38.61,29.62,37.15,30.21Z" transform="translate(0)"/><path class="cls-8" d="M43,30c-.71.1-1.18.3-1,.62.37.64,4.54.37,4.83-.1S44.51,29.81,43,30Z" transform="translate(0)"/><path class="cls-31" d="M38.54,34.94c-.45,0-.75.09-.67.36.16.56,2.75.87,3,.53S39.49,35,38.54,34.94Z" transform="translate(0)"/><path class="cls-31" d="M19.33,35.69c-.47,0-.8,0-.73.32.13.56,2.83,1,3.1.71S20.33,35.78,19.33,35.69Z" transform="translate(0)"/><path class="cls-30" d="M29.06,30.53c-1.69-.46-9.93-.48-10.72.31-.57.56,1.92,1.24,3,1.33a22.31,22.31,0,0,0,6.21-.26C28.13,31.8,30.59,31,29.06,30.53Z" transform="translate(0)"/><path class="cls-8" d="M25.46,30.32c-.75.08-1.25.26-1.06.59.37.65,4.77.48,5.1,0S27.06,30.15,25.46,30.32Z" transform="translate(0)"/><path class="cls-12" d="M35.77,28.75a9.86,9.86,0,0,1-5.93.2c-1.85-.48,1,1.1,1.21,2s0,4,.6,2.26,1.78-1.8,2.61-.25.85-2.56,1.17-3S37.57,28.17,35.77,28.75Z" transform="translate(0)"/><path class="cls-32" d="M17.64,29c5-.11,9-.26,12.1.68C27.65,28.2,24.25,28.09,17.64,29Z" transform="translate(0)"/><path class="cls-32" d="M47,27.71c-6.1.08-8.95.05-10.63,1.57C39,28.08,42.44,28.25,47,27.71Z" transform="translate(0)"/></g></g></g></svg>