<svg xmlns="http://www.w3.org/2000/svg" xmlns:xlink="http://www.w3.org/1999/xlink" viewBox="0 0 66 66"><defs><style>.cls-1{fill:none;}.cls-2{clip-path:url(#clip-path);}.cls-3,.cls-8{fill:#fff;}.cls-4{fill:#ffb06b;}.cls-5{fill:#23232d;}.cls-6{fill:url(#linear-gradient);}.cls-7{fill:#fff9f0;}.cls-8{opacity:0.07;}.cls-9{fill:#261b18;}.cls-10{fill:#bf3c1b;opacity:0.3;}.cls-11{fill:#b54319;opacity:0.5;}.cls-12{fill:#57443a;}.cls-13{fill:#ffc48f;}.cls-14{fill:#cfc4c4;}.cls-15{fill:#2b221c;}.cls-16{fill:#121b21;}.cls-17{opacity:0.35;}.cls-18{fill:#c4170e;}.cls-19{fill:#8f2621;}.cls-20{fill:#e8dac5;}</style><clipPath id="clip-path" transform="translate(0)"><circle class="cls-1" cx="33" cy="33" r="33"/></clipPath><linearGradient id="linear-gradient" x1="33.48" y1="51.9" x2="33.48" y2="55.47" gradientUnits="userSpaceOnUse"><stop offset="0" stop-color="#e88958"/><stop offset="0.34" stop-color="#f49d62"/><stop offset="0.69" stop-color="#fcab69"/><stop offset="1" stop-color="#ffb06b"/></linearGradient></defs><g id="Layer_2" data-name="Layer 2"><g id="avatars"><g class="cls-2"><rect class="cls-3" width="66" height="66"/><path class="cls-4" d="M28.57,55c-3.58,1.25-3.83,4.17-5.31,11h3.31c.65-3,1.19-5.84,2.74-7.14C30.54,57.83,30.35,54.41,28.57,55Z" transform="translate(0)"/><path class="cls-4" d="M38.45,55c-1.78-.63-2,2.79-.73,3.82C39.26,60.16,39.8,63,40.45,66h3.32C42.29,59.21,42,56.29,38.45,55Z" transform="translate(0)"/><path class="cls-4" d="M39.18,55.19c-2-1.49-8.91-1.83-11.59.19s.33,5.88,1.06,10.62h9.87C39.15,61.27,41.91,57.17,39.18,55.19Z" transform="translate(0)"/><path class="cls-5" d="M39.55,61.91a11.77,11.77,0,0,1-.37-6.72,2,2,0,0,0-.92-.59c-2.43-.79-6.9-1.06-9.56.08a4.28,4.28,0,0,0-1.11.7,10.4,10.4,0,0,1-.24,6.15A24.83,24.83,0,0,1,28.48,66H38.73A26.44,26.44,0,0,1,39.55,61.91Z" transform="translate(0)"/><path class="cls-6" d="M36.3,50.43c.21-3.57-6-3.7-5.95.2,0,1.72.07,2.82-.4,3.28a8.34,8.34,0,0,1-1.25.77c.56,3.61.95,5.06,4.81,5.06,3.5,0,4.43-1.12,4.75-5.14a8.81,8.81,0,0,1-1.63-.79C36.08,53.37,36.21,52,36.3,50.43Z" transform="translate(0)"/><path class="cls-7" d="M29.77,53.94a.53.53,0,1,0,.54.51A.53.53,0,0,0,29.77,53.94Z" transform="translate(0)"/><path class="cls-7" d="M31,54.76a.52.52,0,0,0-.5.54.52.52,0,1,0,.5-.54Z" transform="translate(0)"/><path class="cls-7" d="M32.53,55.31a.53.53,0,1,0,.54.51A.53.53,0,0,0,32.53,55.31Z" transform="translate(0)"/><path class="cls-7" d="M34.09,55.39a.53.53,0,0,0-.51.55.52.52,0,1,0,.51-.55Z" transform="translate(0)"/><path class="cls-7" d="M36.91,53.89a.52.52,0,0,0-.5.54.52.52,0,1,0,.5-.54Z" transform="translate(0)"/><path class="cls-7" d="M35.66,54.81a.53.53,0,0,0,0,1.06.53.53,0,0,0,.51-.55A.53.53,0,0,0,35.66,54.81Z" transform="translate(0)"/><path class="cls-8" d="M36.06,60.13A10.23,10.23,0,0,1,30.39,60c-1-.26-1.61.91-1.29,1.91.42,1.32,2.56,1.67,4.42,1.64,3.68-.06,5.06-1.43,4.44-3.06C37.79,60.1,37,59.8,36.06,60.13Z" transform="translate(0)"/><path class="cls-9" d="M16.3,18.44c-2.59,7.13-2.75,12.62-4.43,23.85-.42,2.85-2.14,7.24-1.34,9,1.12,2.4,3.85,1,6.13,1.67,2.46.76,5.19,1.86,5.72-1.6a5.31,5.31,0,0,1,.3,2.09c1.9,0,8.38-2.15,12.78-2,3.92.09,12.09,3.52,13.67-1,1.18-3.38,2.15-18.25,1.55-23.09,0-.3,1.15-.73,1.19-1,.1-.86.17-1.48.17-1.72C52.8,5.22,22.77.68,16.3,18.44Z" transform="translate(0)"/><path class="cls-4" d="M31.71,15.63C24.12,17.1,18.76,28,20.14,38.23c1,7.59,8.06,15.07,15.44,15.07,7.82,0,14-11.91,12.85-20.93C47.17,22.12,42.33,13.58,31.71,15.63Z" transform="translate(0)"/><path class="cls-10" d="M45,18.5a35.67,35.67,0,0,0-12.66-2.72c-2.77-.07-6.49-.25-9.08.86-3.88,1.67-5.55,4.23-6.1,8.15-.37,2.66,2.31,5.21,4.36,6.87,1.46-1.42.77-3.35.73-5,.35,1.92,1.92,1.36,3.58,1.44,1.47.07,4,.71,5.34,0,.61-.32.71-.76.94-1.4a2.44,2.44,0,0,0,.83.65,8.85,8.85,0,0,0,3.38.37,13.12,13.12,0,0,0,4.88-.3c.68-.23,1.09-.43,1.29-1.2.26,1.63,2.72,1.35,4.06,1.3C49,27.39,47.3,19.4,45,18.5Z" transform="translate(0)"/><path class="cls-4" d="M17.5,34c-3.72,1-2.24,6.46.8,7.56a7.36,7.36,0,0,0,3,.33l.06-.09c.45-.71-.17-4.67-.4-5.42C20.4,34.46,19.29,33.47,17.5,34Z" transform="translate(0)"/><path class="cls-11" d="M18.81,36c-.84-.39-2.93.3-1.95,1.94.52-1.52,1.44-.52,1.3.56-.1.72-.87.73-.1,1.66.42.5,1.26.32,1.69,0C21.1,39.33,19.83,36.44,18.81,36Z" transform="translate(0)"/><path class="cls-9" d="M31.89,24.33l0,.06v0S31.9,24.3,31.89,24.33Z" transform="translate(0)"/><path class="cls-9" d="M42.73,13.55C38.54,10,33.08,10,27.92,10.89a23.09,23.09,0,0,0-6.56,1.82c-1.54.86-2.15,2.88-2.87,4.41a27.48,27.48,0,0,0-1.92,9c-.14,1.61.49,3.25.65,4.85s.85,2.91,1.15,4.45a13.79,13.79,0,0,1-.46,7c-.31,1-1.07,1.74-.37,2.59a1.85,1.85,0,0,0,2.46.37c.49-.51,1.43-4.71,1.64-5.79A38.51,38.51,0,0,0,22,31.26a20.4,20.4,0,0,1,.83-7.5,30,30,0,0,0,.38,3.43c2.57-.31,5.3-.1,7.88-.19a10.1,10.1,0,0,0,.85-2.61l0-.06s0,0,0,0v0c.17.46.34,1.48.68,1.75.61.49,2.41.19,3.16.24,1.41.09,3.79.59,5.14,0,.87-.38,1-1.19,1.22-2.1h0c0-.05,0-.05,0,0h0c.28.47.4,1.28.84,1.5a9.21,9.21,0,0,0,2.55.46,20.71,20.71,0,0,0,3.05-.05c2-.38.57-3.95,0-5.24A20.94,20.94,0,0,0,42.73,13.55Z" transform="translate(0)"/><path class="cls-9" d="M42.12,24.29h0C42.12,24.24,42.12,24.24,42.12,24.29Z" transform="translate(0)"/><path class="cls-12" d="M30.45,9c-3.91.41-9.45,3.54-11.19,7.05C15.34,24,13.83,32.81,13.5,41.57c-.09,2.22-1.37,5.61-1.24,7.64.12,1.87,1,1.91,2.52.85,2-1.39-.21-8.63.15-13.14.29-3.54,3.22-3.71,4.19-8.39,1.11,6.28.11,14.52-2.28,21.41C25.11,36,18.61,28.79,23,19.46a7.17,7.17,0,0,0,8,1.58,12.47,12.47,0,0,1,8.56-.24c3.39,1.29,6.55,1.93,10.8.12C48.24,11,37.54,8.26,30.45,9Z" transform="translate(0)"/><path class="cls-13" d="M45,35.57c-1.17-.19-2.8,0-2,1.82.42,1,5,2.38,4.77.23a1.77,1.77,0,0,0-.17-.59A3.43,3.43,0,0,0,45,35.57Z" transform="translate(0)"/><path class="cls-13" d="M29.33,36.17A3.61,3.61,0,0,0,26.22,36c-1.19.37-2.64,1.31-1,2.66.86.72,5.81-.14,4.58-2A2,2,0,0,0,29.33,36.17Z" transform="translate(0)"/><path class="cls-11" d="M37.09,37.3c-1-.06-1-.59-1.66-.19s-.18,2,1.55,2,2.54-1.2,2.2-1.73S38.18,37.38,37.09,37.3Z" transform="translate(0)"/><path class="cls-13" d="M36.85,34.46c-.8,0-2,2.72-1.59,3.13,1,1,3.17.53,3.83-.16C39.35,37.16,37.76,34.45,36.85,34.46Z" transform="translate(0)"/><path class="cls-9" d="M46,31.41c-2.7-1.15-5.17,2.18-3.22,3.91a3.55,3.55,0,0,1,3.81-.12C47.7,34.4,47.44,32,46,31.41Z" transform="translate(0)"/><path class="cls-14" d="M46.3,33.28c-.74.23-.39,1.65.36,1.15C47.21,34.07,47,33.08,46.3,33.28Z" transform="translate(0)"/><path class="cls-14" d="M43.77,31.8c-1.26.4-.67,2.81.62,2C45.32,33.16,44.88,31.46,43.77,31.8Z" transform="translate(0)"/><path class="cls-9" d="M25.89,31.63c-1.43.66-1.61,3-.48,3.8a3.56,3.56,0,0,1,3.81,0C31.11,33.65,28.55,30.4,25.89,31.63Z" transform="translate(0)"/><path class="cls-14" d="M25.64,33.51c-.66-.19-.89.82-.33,1.16C26.08,35.15,26.39,33.72,25.64,33.51Z" transform="translate(0)"/><path class="cls-14" d="M28.13,32c-1.13-.32-1.51,1.39-.57,2C28.87,34.74,29.4,32.32,28.13,32Z" transform="translate(0)"/><path class="cls-9" d="M29.55,27.76a14.89,14.89,0,0,0-3.92.6,6.8,6.8,0,0,0-2.38,1.3,1.09,1.09,0,0,0-.42.77c.22,0,.38-.13.57-.21a12.87,12.87,0,0,1,3.07-.62c.81-.09,1.61-.11,2.41-.22.54-.08,1.29,0,1.53-.59S30.27,27.73,29.55,27.76Z" transform="translate(0)"/><path class="cls-15" d="M45.81,28.14A15,15,0,0,0,42,27.62c-.7,0-1.14.33-.85,1s1,.48,1.49.54c.78.1,1.56.11,2.35.18a12.06,12.06,0,0,1,3,.56c.19.07.34.21.56.2a1,1,0,0,0-.4-.74A6.48,6.48,0,0,0,45.81,28.14Z" transform="translate(0)"/><path class="cls-16" d="M45.46,31a2.78,2.78,0,0,0-3.19,2,2.52,2.52,0,0,1,2.82-.86c3.67,1.57,5.61-1,5.61-1C48.08,32.27,46.73,31.18,45.46,31Z" transform="translate(0)"/><path class="cls-16" d="M26.52,31.22c-1.27.24-2.61,1.35-5.24.15,0,0,2,2.58,5.62,1a2.52,2.52,0,0,1,2.83.83A2.79,2.79,0,0,0,26.52,31.22Z" transform="translate(0)"/><g class="cls-17"><path class="cls-18" d="M25.82,40.9c4.25,6.24,6.83,7.37,10.08,7.51,4.07.18,5.43-2.43,6-4.37A11.53,11.53,0,0,1,45,40.59c-2.52.6-5,.34-8.85.5C33,41.23,28.33,42.17,25.82,40.9Z" transform="translate(0)"/></g><path class="cls-19" d="M27.75,42a9.51,9.51,0,0,0,7.63,4.23c3.24,0,5.36-1,5.95-2.45a4.11,4.11,0,0,1,2-2.16A34.81,34.81,0,0,1,27.75,42Z" transform="translate(0)"/><path class="cls-7" d="M29.64,42.33s.17,1.27,2,1.75a18,18,0,0,0,7.37.2C40.71,44,41.54,42,41.54,42A37.57,37.57,0,0,1,29.64,42.33Z" transform="translate(0)"/><path class="cls-7" d="M36.64,44.48c-2.32.11-4.24,0-5.41-.7-.83-.49-.9,0-.72.38,0,0,.77,1.75,4.62,2.1,3.7.34,5.59-1.78,5.16-2.14S38.79,44.37,36.64,44.48Z" transform="translate(0)"/><path class="cls-20" d="M29.64,42.33a2,2,0,0,0,.47.89s8.65-.8,10.73-.11a4.3,4.3,0,0,0,.7-1.13A43.16,43.16,0,0,1,29.64,42.33Z" transform="translate(0)"/><path class="cls-20" d="M31.92,44c3.13,1.71,6.83.19,6.83.19A13.17,13.17,0,0,1,31.92,44Z" transform="translate(0)"/></g></g></g></svg>