<svg xmlns="http://www.w3.org/2000/svg" xmlns:xlink="http://www.w3.org/1999/xlink" viewBox="0 0 66 66"><defs><style>.cls-1{fill:none;}.cls-2{clip-path:url(#clip-path);}.cls-3{fill:#fff;}.cls-4{fill:#3a3a4a;}.cls-5{fill:#ffb224;}.cls-6{fill:#0d73b5;}.cls-7{fill:#f5ab76;}.cls-8{opacity:0.15;}.cls-9{fill:#e62628;}.cls-10{fill:#ff3b3b;}.cls-11{fill:#b8122e;}.cls-12{fill:#3d2216;}.cls-13{fill:#ffbc82;}.cls-14{fill:#bf3c1b;opacity:0.3;}.cls-15{fill:#b54d26;opacity:0.4;}.cls-16{fill:#fa9769;}.cls-17{fill:#4f4f4f;}.cls-18{fill:#ffd4ad;}.cls-19{fill:#edf0ef;opacity:0.7;}.cls-20{fill:#b5300f;opacity:0.35;}.cls-21{fill:#8f2a25;}.cls-22{fill:#fff7ea;}.cls-23{fill:#ecdcc4;}.cls-24{fill:#593424;}</style><clipPath id="clip-path" transform="translate(0)"><circle class="cls-1" cx="33" cy="33" r="33"/></clipPath></defs><g id="Layer_2" data-name="Layer 2"><g id="avatars"><g class="cls-2"><rect class="cls-3" width="66" height="66"/><path class="cls-4" d="M23,52.56c-2.9,1.61-5,6.18-5.56,13.44h6.91c.2-3.75.56-7.9,1.43-8.85Z" transform="translate(0)"/><path class="cls-4" d="M45.65,52.56l-2.78,4.59c.86,1,1.22,5.1,1.43,8.85h6.9C50.67,58.74,48.54,54.17,45.65,52.56Z" transform="translate(0)"/><path class="cls-5" d="M42.07,51.28c-4.9-2.5-12-1.64-15.28.37C22.34,54.4,23.3,58.94,24.49,66H44.06C45.36,59.3,46.44,53.5,42.07,51.28Z" transform="translate(0)"/><path class="cls-6" d="M33.9,46.7c-7.72,0-8,10.91.37,10.91C42.08,57.61,44.63,46.7,33.9,46.7Z" transform="translate(0)"/><path class="cls-7" d="M36.75,45.7c-1.7-.44-4.48-.22-5.9,1.11-5,4.65-.13,9.22,3.76,9.22S40,52.7,39.83,50.14C39.71,48.12,38.53,46.15,36.75,45.7Z" transform="translate(0)"/><path class="cls-4" d="M46.6,53.39c-.41-1-4.73-2.53-4.73-2.53A32.87,32.87,0,0,0,37.68,66h6.77C45.27,58.43,47,54.31,46.6,53.39Z" transform="translate(0)"/><path class="cls-4" d="M22,53.39c-.37.92,1.33,5,2.15,12.61H31a32.75,32.75,0,0,0-4.19-15.14S22.45,52.38,22,53.39Z" transform="translate(0)"/><path class="cls-8" d="M41.78,54.46a3.9,3.9,0,0,0-3.38-2.12,8.39,8.39,0,0,0-4.44,1c1.85.92,2.33,6.4,2.49,9.85,0,.89,0,1.87,0,2.85h4.81C42.26,61.81,42.8,56.35,41.78,54.46Z" transform="translate(0)"/><path class="cls-9" d="M38.59,52.16a9.37,9.37,0,0,0-4.66,1.1c2,.86,3,5.17,3.3,10.09,0,.64,0,1.61,0,2.65h6.84c0-4.27-.85-10-1.91-11.83A4.13,4.13,0,0,0,38.59,52.16Z" transform="translate(0)"/><path class="cls-10" d="M42.35,58.91c-.88,0-.59,2.7-.64,3.29a4.58,4.58,0,0,0-1-1.54,5.6,5.6,0,0,0-.91,2.6c-.3,1.31-1.15-.29-1.47-.6,0,0-.09,2.55-.09,2.67s0,.41,0,.67h5.19a2.35,2.35,0,0,0,0-.27C43.44,64.86,43.57,59,42.35,58.91Z" transform="translate(0)"/><path class="cls-8" d="M25.89,57.33c2.36,3.73,8.56,4.5,11.55,3.58a9.09,9.09,0,0,0,6.42-6.38C46.31,44.26,19.22,46.77,25.89,57.33Z" transform="translate(0)"/><path class="cls-9" d="M25.44,56.5C27.93,60.2,34.5,61,37.67,60c2.42-.71,5.84-2.55,6.82-6.36C47.11,43.47,18.4,46,25.44,56.5Z" transform="translate(0)"/><path class="cls-11" d="M27.77,51.42c1.74,1.77,6.29,2.76,9.32,2,1.71-.42,4.54-.93,5.3-2.68C44.42,46.08,22.86,46.43,27.77,51.42Z" transform="translate(0)"/><path class="cls-10" d="M37.5,54.3c-.31-.36-1.64.14-3.07.12-2.63,0-2.68-.69-4.09-.73-.31,1.39,2.74,2.17,3.42,2.39-.72,0-2.24-.2-2.84.4-.87.88,0,2,.72,2.31a7,7,0,0,0,3.9.35c.4-.08,1.39-.22,1.53-.8s-.3-.43-.26-.87.54-.56.51-1-.4-.49-.86-.51C36.81,55.75,38,54.84,37.5,54.3Z" transform="translate(0)"/><path class="cls-12" d="M50.26,17.36a10.32,10.32,0,0,0-5.08-2.59,23.92,23.92,0,0,0-1.71-5.25C42.7,10.61,42.2,12,41.19,12.9a8.77,8.77,0,0,0-4.31-4.31A4.35,4.35,0,0,1,35,11.87a31.37,31.37,0,0,0-5.43-3.28c1.56,3.82-3.69,1.2-5.55,1.9.29.7,1.48,1.69,1.44,2.33-4.28-.8-9,2.67-10.73,6.67A5.93,5.93,0,0,1,18,18.8c-2.31-.1-3.79,4.77-4.3,6.46-1.26,4.14-.82,8.38-.07,12.57.63,3.5.75,5.17-1.25,8.1a10.37,10.37,0,0,0,3.87-.42A11,11,0,0,1,15,51.63c2.18,0,3.09-.57,5-1.34.18.8.09,2.7.49,3.43a25.25,25.25,0,0,0,3.37-2.9,10.48,10.48,0,0,0,.95,1.5c1.72-3.19,2.89-6.93,6.34-8.91a7.58,7.58,0,0,1,7.75,0c3.72,2,3.68,6.41,7.71,8.26A13.54,13.54,0,0,0,47,48.11a9.75,9.75,0,0,0,4,2.76c-.09-2.34,0-4.14-.93-6.33h0s0,0,0,0h0a24,24,0,0,0,2.8.88c-.83-2.25-2.36-4.09-2.23-6.69,0-.74,1.25-3.31,2.06-5.8s1.29-5.09-.46-5.32a4.09,4.09,0,0,1,2.16.88C54.09,24.13,53.79,20.31,50.26,17.36Z" transform="translate(0)"/><path class="cls-12" d="M50,44.54h0S50,44.5,50,44.54Z" transform="translate(0)"/><path class="cls-13" d="M31.7,16c-7.38,1.44-12.58,12.05-11.22,22,1,7.45,6.76,15.63,15.43,15C44.75,52.44,49.14,41.48,48,32.31,46.76,22.34,42,14,31.7,16Z" transform="translate(0)"/><path class="cls-14" d="M41.21,17.61a33,33,0,0,0-9-1.4c-2.69-.05-5.62-.2-8.13.93-1.38.63-3.07,1.48-3.59,3-.64,1.9-.33,4.3,0,6.24a17,17,0,0,0,2,6.16,7.67,7.67,0,0,1,1.66-4.1c.74-.91,1.79-2.58,3-2.78a13.32,13.32,0,0,1-2.94,5.47c1.18.13,2.62-.83,3.71-1.23a21.42,21.42,0,0,0,2.53-1.28c0,.71-.58,1.32-.72,2a21.57,21.57,0,0,0,8.07-3.45c1.55-1,4.25-2.29,6-1.11.8.54,1,1.63,1.91,2,.32-.56.51-1.21.86-1.73.75.78,1.52-1,1.69-1.55C49.88,20,44.58,18.62,41.21,17.61Z" transform="translate(0)"/><path class="cls-13" d="M17.9,33.9c-3.62,1-2.17,6.29.79,7.35a7.14,7.14,0,0,0,2.93.32l.06-.09c.43-.69-.17-4.54-.4-5.27C20.73,34.38,19.64,33.42,17.9,33.9Z" transform="translate(0)"/><path class="cls-15" d="M19.18,35.85c-.82-.38-2.85.3-1.9,1.89.51-1.47,1.41-.51,1.27.54-.09.71-.85.72-.1,1.62.41.49,1.23.31,1.65.05C21.42,39.11,20.17,36.31,19.18,35.85Z" transform="translate(0)"/><path class="cls-12" d="M47.17,18.48c-1.56-1.08-2.43-2.77-4.25-3.67A21.17,21.17,0,0,0,37.72,13a25.42,25.42,0,0,0-7.59-.23c-4.18.5-9.22,2.48-10.54,6.91-.82,2.72-.39,5.87-.18,8.65.08,1.07-.17,5.1.72,5.94a9.19,9.19,0,0,1,1.1,1.94,6.29,6.29,0,0,0,1.66,1.82c-.1-.79-.44-1.59-.5-2.38.34.27.73.77,1.22.71a12.82,12.82,0,0,1-.7-7.4A8.11,8.11,0,0,1,26,24.67c.47-.37,1.59-1.29,2.23-.8s.06,1.84-.16,2.39a9.21,9.21,0,0,1-3.48,4.42c1.39,0,3.07-.91,4.25-1.58A9.92,9.92,0,0,0,32,26.45a6.79,6.79,0,0,1-1.82,3.39,7.94,7.94,0,0,0,2.54-.77,12.79,12.79,0,0,0,3-1.7l1.8-1.2a18.6,18.6,0,0,1,3.23-1.33c1-.41,2.42-.93,3.42-.22.25.17,1.74,2.52,1.31,2.67a9.69,9.69,0,0,0,1.76-.89c1.14-.68,2.25-1.46,2.49-2.84a4.34,4.34,0,0,0-.57-2.91A6.87,6.87,0,0,0,47.17,18.48Z" transform="translate(0)"/><path class="cls-16" d="M46.68,35.88a3.3,3.3,0,0,0-2.87-.29c-1.13.28-2.51,1.08-1.09,2.41.76.71,5.38.17,4.34-1.65A1.48,1.48,0,0,0,46.68,35.88Z" transform="translate(0)"/><path class="cls-16" d="M30,36.7a3.5,3.5,0,0,0-2.85-1c-1.22,0-2.83.45-1.72,2.17.58.92,5.43,1.55,4.84-.57A1.88,1.88,0,0,0,30,36.7Z" transform="translate(0)"/><path class="cls-17" d="M29.09,31.92c-2.14-.64-3.49,2-2,2.87a4.22,4.22,0,0,1,2.12.13A1.56,1.56,0,0,0,29.09,31.92Z" transform="translate(0)"/><path class="cls-12" d="M46.86,28.67c-1.07-.65-2.46-1.33-3.7-.9a7.88,7.88,0,0,0-1.41.77,1.77,1.77,0,0,1-2,.12c0,3.2,2.83,1.63,4.85,1.52,1-.06,2.53.47,3.47-.08C48,29.41,47.4,29,46.86,28.67Z" transform="translate(0)"/><path class="cls-12" d="M30.31,28.75A7.51,7.51,0,0,0,28.9,28c-1.24-.42-2.63.27-3.69.94-.53.33-1.18.75-1.23,1.44.94.54,2.43,0,3.47,0,2,.09,4.82,1.62,4.83-1.58A1.77,1.77,0,0,1,30.31,28.75Z" transform="translate(0)"/><path class="cls-15" d="M36.87,37.85c-1.11,0-1.55-.5-2.33,0s.34,1.94,2.3,1.87,2.81-1.42,2.41-1.92S38.1,37.83,36.87,37.85Z" transform="translate(0)"/><path class="cls-18" d="M36.58,33.67c-2.09-.18-2.25,4.23-1.77,4.61,1.17.92,3.62.27,4.33-.47C39.42,37.51,38.57,33.84,36.58,33.67Z" transform="translate(0)"/><path class="cls-17" d="M45.15,31.76c-2.24-.93-3.89,2.07-2,2.92a4.14,4.14,0,0,1,2.34,0A1.74,1.74,0,0,0,45.15,31.76Z" transform="translate(0)"/><path class="cls-19" d="M28.32,32.38c-.86.21-.2,1.39.64,1C29.58,33,29.1,32.2,28.32,32.38Z" transform="translate(0)"/><path class="cls-19" d="M44.27,32.09c-.88.12-.46,1.33.45,1C45.37,32.83,45.06,32,44.27,32.09Z" transform="translate(0)"/><path class="cls-20" d="M43.49,39.46c-.33.09.3.18,1.13.34A.51.51,0,0,1,45,40c-3.86,1.42-12.42,2.41-17.75.91l.15-.11c.76-.5,1.88-.57,1.56-.71a6.55,6.55,0,0,0-2.61.47c-.65.43-.58,1.75-.05,1.79s.42-.67.76-1.2c.44,1.42,2.58,7,9,6.86,4.82-.08,6.27-1.7,6.37-4.07.06-1.31,1.65-3,2.65-3.79.1.4-.17,1,.21,1,.53.05,1-.81.64-1.49S43.49,39.46,43.49,39.46Z" transform="translate(0)"/><path class="cls-21" d="M28.25,41.84s2.29,5.79,8,5.42c5.14-.34,5.67-2.36,5.84-3.77a3.64,3.64,0,0,1,1.6-2.66A31.16,31.16,0,0,1,28.25,41.84Z" transform="translate(0)"/><path class="cls-22" d="M30.14,42.38a3.1,3.1,0,0,0,1.93,2.56,11.33,11.33,0,0,0,7.37.07c1.72-.53,2.61-3.44,2.61-3.44A49.68,49.68,0,0,1,30.14,42.38Z" transform="translate(0)"/><path class="cls-22" d="M37.42,45.09a16,16,0,0,1-5.71-.57c-1-.35-1,.19-.76.66,0,0,.38,2,4.85,2.15,3.9.17,5.5-2.37,5.05-2.86S39.86,45,37.42,45.09Z" transform="translate(0)"/><path class="cls-23" d="M30.13,42.36a3.22,3.22,0,0,0,.22.82s9.21-1.22,11.29-.54a4.45,4.45,0,0,0,.41-1.07A58,58,0,0,1,30.13,42.36Z" transform="translate(0)"/><path class="cls-23" d="M32.22,44.52c3.91,1.75,8.09-.13,8.09-.13A16.7,16.7,0,0,1,32.22,44.52Z" transform="translate(0)"/><path class="cls-24" d="M48.73,17.65c-.54-.41-5.11-2.71-5.28-1.54a9.47,9.47,0,0,0-.45-3c-.78.17-1.37,1.62-2,2.14-.35-1.09-1.6-3.52-2.75-3.81a7.8,7.8,0,0,1-2.13,3.37c-.81-.47-1.4-1.69-2.17-2.31a7.46,7.46,0,0,0-2.51-1.35A5.83,5.83,0,0,1,31.48,13a8,8,0,0,0-4.7-1.29,4.58,4.58,0,0,1,.47,1.94s-3.07.51-3.35.55a12.82,12.82,0,0,0-3,.92,9.5,9.5,0,0,0-3.28,2,8,8,0,0,1,3.41.25,33.68,33.68,0,0,0-2.32,3,19.94,19.94,0,0,0-1.31,3.22A40.83,40.83,0,0,1,21.54,21c-.21,1.09-.79,2.37-.54,3.53a20.09,20.09,0,0,0,3.93-2.12,1.87,1.87,0,0,0,.85-1.45c0-.34-.27-1.92-.7-2,3,.26,6.41,4.19,5.09,7.39a14.25,14.25,0,0,0,2-2.92c.48-1.28-.12-2.62-.57-3.85a10,10,0,0,1,2.54,3.92,14.65,14.65,0,0,0,1.35-1.88c.28-.46.36-1,.87-1.3a6.3,6.3,0,0,1-.19,3.79A17.24,17.24,0,0,1,35,26a36.51,36.51,0,0,0,4.48-1.87A5.72,5.72,0,0,0,43,18.44c.29.75,1.21,1.45,1.65,2.2a15.82,15.82,0,0,1,1.53,4.15,9.83,9.83,0,0,0,1-3A39.44,39.44,0,0,0,52,24.5a9.76,9.76,0,0,0-1.74-3.05c.68-.05,1.27.28,1.95.27A17.66,17.66,0,0,0,48.73,17.65Z" transform="translate(0)"/></g></g></g></svg>