<svg xmlns="http://www.w3.org/2000/svg" xmlns:xlink="http://www.w3.org/1999/xlink" viewBox="0 0 96 96"><defs><style>.cls-1{fill:none;}.cls-2{clip-path:url(#clip-path);}.cls-3{fill:#c4bab1;}.cls-4{fill:#765aa3;}.cls-5{fill:#bba7db;}.cls-6{fill:#854422;}.cls-7{fill:#261b18;}.cls-8{fill:#45362e;}.cls-9{fill:#fff7eb;}.cls-10{fill:#9c552c;}.cls-11,.cls-12{fill:#66241b;}.cls-11,.cls-17{opacity:0.4;}.cls-12,.cls-14{opacity:0.7;}.cls-13{fill:#d17642;}.cls-14{fill:#f0ded1;}.cls-15{fill:#121b21;}.cls-16{fill:#611f16;}.cls-18{fill:#588a17;}.cls-19{fill:#85b428;}.cls-20{fill:#daef3f;}.cls-21{fill:#82c126;}.cls-22{fill:#004022;opacity:0.3;}.cls-23{fill:#579418;}.cls-24{fill:#bbe351;}.cls-25{fill:#8cce29;}.cls-26{fill:#f6cb7d;}</style><clipPath id="clip-path" transform="translate(0)"><circle class="cls-1" cx="48" cy="48" r="48"/></clipPath></defs><g id="Layer_2" data-name="Layer 2"><g id="Layer_4" data-name="Layer 4"><g class="cls-2"><path class="cls-3" d="M41.93,77.62c-6,2.43-11.48,8.72-11.68,18.37h8C37.62,90.3,44,76.77,41.93,77.62Z" transform="translate(0)"/><path class="cls-3" d="M59.11,77.62c6,2.43,11.49,8.72,11.68,18.37h-8C63.43,90.3,57,76.77,59.11,77.62Z" transform="translate(0)"/><path class="cls-4" d="M58.88,77.12c-3.77-3.84-12.82-2.39-16.25,0-4.49,3.13-3.91,12.22-1.91,16.4.41.85.8,1.65,1.13,2.48H60.06c.17-.51.36-1,.54-1.61C62.62,88,63,81.31,58.88,77.12Z" transform="translate(0)"/><path class="cls-5" d="M43.39,79.26a3.54,3.54,0,0,1,.1-3c2.09-4.15,13.23-4.17,14.27.78a3.81,3.81,0,0,1-.45,2.55C54.21,85.63,45.75,85.43,43.39,79.26Z" transform="translate(0)"/><path class="cls-6" d="M56.43,75.44a6,6,0,1,0-12,0c-.11,2,.14,3.24,1,4.37a6.49,6.49,0,0,0,9.94,0C56.28,78.68,56.54,77.49,56.43,75.44Z" transform="translate(0)"/><path class="cls-7" d="M59.14,63.41C59.75,60.48,61,55.62,65,55.2c2.6-.28,3.7,2.46,6.09,2.76s5.16-1.42,4.85-3.51c2.64-.78,2.51-4.27,1.52-6.18,2.71-1.48,1.88-5.14-.66-6.9.15-.12.28-.24.41-.36,2-2,.1-3.72-.89-5.68a14.36,14.36,0,0,1-1.41-4.39c-.33-1.37-1.34-4.09-1.62-5.43-.69-3.37,3.37-5.55,2.52-8.74-.6-2.27-3-3.3-5.28-3.26,1-4.85-3.86-5.45-7.1-3.48-.14-2.41-1.32-5-3.79-5.92-2-.71-5.79.57-6.43,2.71-1.74-5.68-11.14-6-12.09.46C38.37,4.7,30,5.9,31.06,10.92c-4.06-2-9.49.78-6.86,5.65-1.82-.05-4.19,0-4.95,2a4,4,0,0,0,1.48,4.35c-1.84.61-4.28,1.41-3.86,3.86a3.82,3.82,0,0,0,4.57,2.87c-.73,1.38-.72.83-.63,2.33s3.18,4.38,2.78,6c-.34,1.33-3.72,5.38-2.16,6.67-2.83-1.25-8.5,2.45-4.27,6.76-4-.36-5.94,6.59-1.26,8.11-4.72,2.19-.93,9,3.61,7.36-.25,2.06-.87,4.15,1.08,5.77a5.12,5.12,0,0,0,6.07.18c.13,2.86,6.62,3.45,7.58,1,1,2.58,6.54,3.48,8.07,1,.76,0,1.28.44,2,.45a5.32,5.32,0,0,0,4.16-2.52c.62-1.17.45-2.61,1.36-3.53,1.64-1.67,4-.95,6-1.63S58.74,65.37,59.14,63.41Z" transform="translate(0)"/><path class="cls-8" d="M58.22,5.27a3.12,3.12,0,0,0-2,1.87c-.57,1.6.46,3.34,1.75,4.24,2.32,1.62,3.61-1,3.44-3.05-.09-1.15-.73-2.74-1.95-3.08A2.33,2.33,0,0,0,58.22,5.27Z" transform="translate(0)"/><path class="cls-8" d="M44.14,7.32c.84.52,3.29-.11,4.29-.14.64,0,1.78.16,2.34-.19,1-.61.34-1.5-.34-2A5.21,5.21,0,0,0,46,4.09C45.09,4.4,42.76,6.46,44.14,7.32Z" transform="translate(0)"/><path class="cls-8" d="M19.19,52.32c-4.07.9-3.73,4.28-.32,6.34-2.27.24-3.2,2.83-2,4,1.81,1.72,5.21-.54,3.52-2.76,2,.71,3.37-2.62,3.45-4.08.1-1.76-1.39-4.86-2.6-6.2C18.74,46.83,16.51,49.3,19.19,52.32Z" transform="translate(0)"/><path class="cls-8" d="M26.85,12.94a3.49,3.49,0,0,1,2.32-1c1.36-.1,2.76,0,4.12,0A3.46,3.46,0,0,1,36.53,7.8c.65-.07,2.12-.09,1.86.89-.17.62-2.26.94-2.26.92-.16,2,.1,3-1.5,4.48a10.48,10.48,0,0,1-5.39,2.47,2.62,2.62,0,0,1-2.46-.48A2.42,2.42,0,0,1,26.85,12.94Z" transform="translate(0)"/><path class="cls-9" d="M71.42,54a1.83,1.83,0,0,0,2,1.62,1.79,1.79,0,0,0,1.71-1.89,1.82,1.82,0,0,0-2-1.62A1.79,1.79,0,0,0,71.42,54Z" transform="translate(0)"/><path class="cls-10" d="M73.46,46c-1-15-10.38-22.29-22-21.59s-22.59,9-22.1,24.22,12.39,26,24,26.65C62.3,75.74,74.46,61.22,73.46,46Z" transform="translate(0)"/><path class="cls-10" d="M26.11,52.55a9.54,9.54,0,0,0,4,.39l.09-.13c.63-1-.2-5.8-.46-6.8-.65-2.51-1.81-4.28-4.21-3.59C20.49,43.87,22.15,51.14,26.11,52.55Z" transform="translate(0)"/><path class="cls-11" d="M33.29,42.71c-.3,0-.38,4-2.93,2.15-1-.74-1.44-3-1.58-4.13-.52-4.46,3.3-7.75,5.86-11,2.68-3.44,7.23-4.83,11.52-5.49a61.82,61.82,0,0,1,18.91.24c3,.49,4.79,1.23,6,4.13C72,30.66,72,32.92,72.68,35a6.12,6.12,0,0,1,.58,3.64c-.69,2.55-3.77,2.85-5.56,1.27-1.5,1.68-2.84,1.05-3.94-.43,0,0-.2,0-.19,0-.58,1.53-3.23,1.66-4.09.35-.8,4-7.19,4-9.08.72-1.06.76-5.73-.84-5.13-1.54-1.67,2-6.32,3.4-8.48,1.47A4.52,4.52,0,0,1,33.29,42.71Z" transform="translate(0)"/><path class="cls-12" d="M28.7,51.06c2.32-.86.87-5.05-.65-5.92-1.25-.71-4.69-.23-3.47,2.2,1.13-1.94,2.39-.38,2,1-.3,1-1.53.8-.49,2.23C26.6,51.39,28,51.33,28.7,51.06Z" transform="translate(0)"/><path class="cls-7" d="M63.68,37.45c-.32.62,1.28,1.62,1.71,1.76a3.2,3.2,0,0,0,3-.84c.58,1.28,1.79,1.39,2.92.73,3.53-2.1,2.22-8.83,1.26-11.89-2-6.53-8.32-9.33-15.21-10.32-2.42-.35-4.67-1.16-7.16-1.25a28.7,28.7,0,0,0-12,2.46c-5.62,2.33-9.53,8.18-11.48,13.46a20.14,20.14,0,0,0-1.33,9.85,5.57,5.57,0,0,0,2.08,3.11c.82.76,1.5,1.86,2.25,2.55a2.31,2.31,0,0,0,3.5-.52c.32-.68-.87-4.34-1.58-4.24,2.38-.36,3.24-1.81,3.8-3.82,3.93,3.34,7.07.77,9.31-2.76.66,2.2,4.44,4.37,6.61,2.66.48,2.59,3,3.76,5.51,2.82,1.85-.7,1.87-2,1.67-3.77C59.92,39.24,62.5,39.72,63.68,37.45Z" transform="translate(0)"/><path class="cls-8" d="M69.11,31.48c-1.1-2.08-4.6-3.18-6.69-3.82a30.06,30.06,0,0,0-15.33-.17,24,24,0,0,0-10.51,4.86c-.68.58-3.22,2.71-1.45,3.26,1.23.38,3.26-.73,4.33-1.26-.23.76-1.28,2-.75,2.86s1.57.39,2.18,0c1.25-.76,1.71-2.28,2.85-3.17,3,2.28,5.54,2.88,8.65.39-.24.2.49,2.55.62,2.78a2.29,2.29,0,0,0,2.84,1.26c1-.45,1.76-2.6,2-3.64,1.33,2.57,4.54,2.61,5.49-.16C65.06,37.85,71,35.05,69.11,31.48Z" transform="translate(0)"/><path class="cls-9" d="M25.79,55.74a1.82,1.82,0,0,0,2,1.62,1.79,1.79,0,0,0,1.71-1.89,1.83,1.83,0,0,0-2-1.62A1.8,1.8,0,0,0,25.79,55.74Z" transform="translate(0)"/><path class="cls-12" d="M39.28,51.08c1.5-1.27-3.06-1.43-3.76-1.24.06.9,2.1.47,2.71.61-.53.56-2.12.55-2.77.93s-.63.67.2.66A15.44,15.44,0,0,0,39.28,51.08Z" transform="translate(0)"/><path class="cls-12" d="M67.34,50.3c-1.5-1.27,3.06-1.42,3.76-1.24-.06.9-2.1.47-2.71.62.54.55,2.13.55,2.78.93s.62.67-.21.65A15.44,15.44,0,0,1,67.34,50.3Z" transform="translate(0)"/><path class="cls-13" d="M70.28,54.14a3,3,0,0,1,.28,1c.43,3.69-6.94,2.53-7.64.93-1.31-3,1.29-3.77,3.17-3.76C67.53,52.33,69.52,52.63,70.28,54.14Z" transform="translate(0)"/><path class="cls-13" d="M43.25,54a3.42,3.42,0,0,1,.51,1c1.2,3.82-7,3.9-8.08,2.34-2-2.94.63-4.21,2.66-4.53C39.91,52.58,42.12,52.54,43.25,54Z" transform="translate(0)"/><path class="cls-7" d="M41.56,51.41a4.08,4.08,0,0,0-2.94,0c-2.16-1.61-.73-7.23,2.32-6.16C43.22,46,43.46,50.17,41.56,51.41Z" transform="translate(0)"/><path class="cls-14" d="M40.42,47.28c1.11-.19,1.51,1.62.57,2.1C39.7,50.07,39.17,47.51,40.42,47.28Z" transform="translate(0)"/><path class="cls-7" d="M68.07,45c1.63,1,1.5,4.26.34,5.78a3.58,3.58,0,0,0-2.68.42C62.34,50.17,65,43.05,68.07,45Z" transform="translate(0)"/><path class="cls-14" d="M66.85,46.71c1.07,0,1.21,1.86.27,2.21C65.82,49.4,65.65,46.74,66.85,46.71Z" transform="translate(0)"/><path class="cls-15" d="M74.79,46s-2.78,2.93-7.09.52a2.57,2.57,0,0,0-3.25.6s.91-3.31,3.7-2.23C69.65,45.42,71.37,47.09,74.79,46Z" transform="translate(0)"/><path class="cls-15" d="M31.8,46.87a6.34,6.34,0,0,0,7.44.1,2.9,2.9,0,0,1,3.39.18s-.84-3.25-3.71-1.71C37.82,46,35.26,47.79,31.8,46.87Z" transform="translate(0)"/><path class="cls-12" d="M42.56,58.41c1.59,3-2.17,4.4-3.71,1.47A2.79,2.79,0,0,0,42.56,58.41Z" transform="translate(0)"/><path class="cls-12" d="M63.7,57.9c-.82,3.1,3.25,4.17,4,1.14A3.16,3.16,0,0,1,63.7,57.9Z" transform="translate(0)"/><path class="cls-16" d="M52.79,68.39c-5.57-.18-10-3.17-11.93-7.13a.73.73,0,0,1,.47-1,1,1,0,0,1,1.17.48c1.64,3.45,5.65,6.07,10.67,6.1,5.21,0,9.69-2.71,11.18-6.89a.86.86,0,0,1,1.11-.45.81.81,0,0,1,.59,1c-1.72,4.82-6.79,8-12.79,7.9Z" transform="translate(0)"/><path class="cls-12" d="M57.53,54.22c-.71-.73-2.1.1-3.44.13s-2.28-.59-3.39,0,.23,2.43,3.42,2.31S58.14,54.84,57.53,54.22Z" transform="translate(0)"/><path class="cls-13" d="M53.91,48.85C51.64,48.69,50,52.8,51,54.13c.7.93,5.69.83,6.44-.28C57.7,53.45,56.08,49,53.91,48.85Z" transform="translate(0)"/><path class="cls-7" d="M33.71,43.78c-.13-.82,2-1.89,4.84-2.3,3.08-.45,6.42.2,6.34,1.29-.11,1.79-2.83.38-5.93.49C35.07,43.41,33.8,44.32,33.71,43.78Z" transform="translate(0)"/><path class="cls-7" d="M73.29,43.87c.13-.82-1.7-2-4.52-2.39-3.08-.45-6.42.2-6.34,1.29.11,1.79,2.83.38,5.94.49C72.26,43.41,73.21,44.41,73.29,43.87Z" transform="translate(0)"/><path class="cls-17" d="M38.9,15.38l0,0c-5.49-.06-12,1.73-15,6.84-2.1,3.48-1.12,10.41,1.73,13.1s4.67-.68,7-2.09A52.62,52.62,0,0,1,42.67,28.2a62.32,62.32,0,0,1,11.38-2.76A4.81,4.81,0,0,0,55.11,25c1.88,2.43,5.43,2.15,8.06,1.65,2-.39,1.69-.41,3.44,1,1.1.89,3.19,3,4.62,3.25,2.43.36,3.09-6.14,2.51-7.58-1.07-2.69-5.31-4.69-7.85-5.91C61.12,15.16,56,15.27,51.26,13a23.24,23.24,0,0,0-6.51-1.59C42.23,11,40,10.19,37.37,10,38.12,12.07,37.2,13.51,38.9,15.38Z" transform="translate(0)"/><path class="cls-18" d="M22,42.26C25,37.6,31.24,31.92,40.14,28.2c9.11-3.79,22.12-4.5,23-7.81s-11-2.83-17.72-3.49c-18.66-1.82-25,7-25.09,9.48-.08,2.24.28,7.12-.14,15.09C20.1,43.07,21.18,43.44,22,42.26Z" transform="translate(0)"/><path class="cls-19" d="M54.4,23.6c-4.47,1.54-9.28,1.44-13.65,3.07C37.21,28,28.54,34.9,26.93,29c-1.22-4.48,2.16-9.37,6.4-10.58a32.35,32.35,0,0,1,11.91-1.05c1.82.15,13.55.63,11.57,4.09a3.34,3.34,0,0,1-.57.73Z" transform="translate(0)"/><path class="cls-20" d="M42.47,20.87s1.58-.33,2.19.76-.95,1.91-1.18.8A2.37,2.37,0,0,0,42.47,20.87Z" transform="translate(0)"/><path class="cls-20" d="M46.46,20.93c4.7,3.85-4.66,6.51-5.24,2.72s-5.63-4.09-7-3.6A10.52,10.52,0,0,1,46.46,20.93Zm-3.91,1.85c.4.34-1.34,1.23-.28,1.54.56.16.68-.95,1.33-.61s-.15,1.31.84,1.3c.19-.6-.27-2,.87-1.3.18.11.45.73.7.52s-.43-.79-.44-1c0-1,1.29.22,1.57-.3s-.77-.34-.9-.4c-.59-.26-.14-.06,0-.56,0-.15.16-.28.21-.42-.23-.13-.68.15-.91.2.07-.29.53-1.11,0-1.24-.32-.08-.43.4-.7.39-.86,0-.18-.47-.34-.83-.37-.85-.52,0-.8.1-.82.28-.26-.27-.47-.66-.33-.61-.48-.17-.84,0-.14.08,0,.39-.35.33s0-.4-.12-.54S42,19,41.61,19s-.19.32-.38.41-.12.41-.46.21,0-.51-.09-.6c-.4-.28-.6.13-.68.54-.59-.34,0-.88-.85-.4-.18.1.13.39-.24.42-.19,0-.35-.4-.61-.43a.61.61,0,0,0-.71.35c.17.05.35.21.54.21-.07.05-.16.19-.24.25.57.64,1.2-.47,1.84,0-1.21,1.28.89.4,1.11.74s-.61.33-.23.77,1-.29,1.36,0-.54.56-.66.81c-.38.82.66.35.91.38A.71.71,0,0,1,42.55,22.78Z" transform="translate(0)"/><path class="cls-18" d="M74.07,33c-1.69-2.41-8.52-8.41-16.9-9.63S54.26,18.08,60,18.41s14.3,2.31,15.23,4.17.19,7.34.63,9.63C76.05,33.18,75,34.21,74.07,33Z" transform="translate(0)"/><path class="cls-21" d="M72.92,31.06a2.17,2.17,0,0,1-.31-.42c-.44-.79-.22-1.72-.78-2.54a17,17,0,0,1-1.42-3.27c.68-.57,3.64-3.91,4.65-2.33-.43,0-1.08-.24-1,.37,0,.25,1,.91.37,1-.39.06-.92-1.06-1.21-.46s.67.62.72,1c.13.87-.62.09-.84,0s-1.19-.48-.76.34c.1.2,1.54.66.85.94-.47.19-.91-.75-1.42-.33s.34,1,.82,1.1c.25,0,1.16-.42,1,.25s-.88.05-1.13.37c-.75,1,2,.22,1.75,1.18-.15.71-.93-.06-1.29.18-.61.39.15,1.05.62,1.19s1.26-.25,1.16.5-1-.11-1.35.19.88,1.63,1.2,1.87A11.64,11.64,0,0,1,72.92,31.06Z" transform="translate(0)"/><path class="cls-22" d="M64.3,24.49c1.85.8,4.6,3.83,6.54,3.85,1.75,0-1-1.63-.9-2.48.15-1.65,4-.58,4.52-2.39.72-2.6-7.45-3.09-9-3.16-2.54-.12-4.47,1.11-2.8,3.53Z" transform="translate(0)"/><path class="cls-22" d="M54.87,23.51a22.17,22.17,0,0,1-2.3,0,44.81,44.81,0,0,0-5.79.52c-1.17.17-3.42.74-4.53.08-1.53-.93.73-1.64,1.36-2.59.23-.33-3.65-1-3.93-1-.77-.1-2.54-.21-3.12-.69-1.81-1.45,3.08-1.6,3.83-1.68a42.57,42.57,0,0,1,7.23-.09c1.59.1,11.75,1.65,8.41,4.95A2,2,0,0,1,54.87,23.51Z" transform="translate(0)"/><path class="cls-19" d="M58.63,16.57c-2.77-3-2.71-5.68-7.07-7.19C47.4,8,42.92,9.75,38.63,9.33c3.17,9.16,8.46,13.93,18,11.29,1.37-.38,2.69-.78,4.08-1Z" transform="translate(0)"/><path class="cls-23" d="M56,17.78c-.36-2.59-3.51-4.91-6.15-5.21.85,1.18,2.76,2.62,2.92,4.07-1,.19-3-1.22-3.93-1.58-1.38-.52-2.72-1.1-4-1.72,1.12,4.42,6.07,7.85,11,7.41.78-.08,1.92-.22,2.38-.87Z" transform="translate(0)"/><path class="cls-19" d="M69.08,12.64c2.41-.71,7.83,1.44,10.26,1.45-1.63,4.7-5.41,9.35-9.88,10.4-3.78.9-6.38-2.87-10-3.76A15.38,15.38,0,0,1,69.08,12.64Z" transform="translate(0)"/><path class="cls-23" d="M65.4,19.14c2.75-.46,4.89-2.52,7.69-2.95-.7,2.17-2.75,2.56-3.81,4.22.58.24,1.28.17,1.8.49-2,1.6-9.56,2.72-7.81-1.64Z" transform="translate(0)"/><path class="cls-19" d="M67,20c-.58,2.72-2.12,6.33-5.49,6.07-2.7-.21-6.33-1.15-6.46-4.17-.07-1.43.49-5.8,1.49-6.94,1.41-1.61,5.46-.09,7.15.4C66.16,16,67.57,17.44,67,20Z" transform="translate(0)"/><path class="cls-24" d="M58,15.35c1.57-.77,3.26-.11,4.89,0l1.57.43c2.21.62,2.94,4.06,1.74,5.75,0,0-.12,0-.11,0,.08-1,.94-2.48-.09-3.15-.14.15-.61,2.45-1.11,1.47s.91-1.83-.35-2.7c-.44.48-.07,3-1.25,2.53s.66-2.29-.58-3c-.22.49-.64,4.54-1.84,3.49-.45-.39,1.19-4.35-.23-3.68-.73.35-.93,4.27-1.66,1.08-.1-.46-.13-1-.21-1.43a2.21,2.21,0,0,0-.4.07c.31,1.41-.65,2.37-1,.54-.38.5-.54,1.12-.91,1.58C57.12,17.09,56.51,16.08,58,15.35Z" transform="translate(0)"/><path class="cls-24" d="M55.6,13.82c-1.2-2.28-2-3.61-4.6-4.26s-5.34,0-8.07.15a10.82,10.82,0,0,0-3.42.33,10.32,10.32,0,0,0,1.89,3.57c.54-1-1.19-2-1.12-2.18.36-1,1.15-.1,1.81.18-.32-.39-.25-.73-.31-1.17.65.26,1,.73,1.71.75-.26-.63-.18-1,.44-1s.72.9,1.37.9c.21,0-.17-.91.51-.95s.28,1.06,1.13.84c.15,0,.31-1.1.35-1.31.93.44.12,1.37,1.37,1.6l.06,0A1.51,1.51,0,0,1,49,9.93c.65.38.28,1.18.52,1.39,1.25,1.09.53-.28.93-.48.59-.3.29-1,1.13,0,.36.4-.88,1.19.39,1.31,0-.39.34-.82.39-1.15,1.3.34.1,1.15.64,1.66s.75-.16.63-.69A24.71,24.71,0,0,1,56,15Z" transform="translate(0)"/><path class="cls-24" d="M65,15.31c1.62-1.11,2.64-2.19,4.69-2.17s4,.87,6,1.13a15.75,15.75,0,0,1,2.65.34c-.15,1.7-1.63,3.11-2.62,4.41a5.24,5.24,0,0,1,.35-2.11s1.59-1.38,1.3-1.33a8.24,8.24,0,0,0-1.17.76c-1.34-.36.33-.88-.1-1.16-.86-.57-1.83.64-2.81.32.47-.65.34-1.15-.47-1.17-.58,0-1.15,1.23-1.81,1-1.07-.41.36-1.16.1-1.43-.93-.93-1.45,1.58-2.65,1.12.45-.34.47-.73.63-1.16-.94,0-1.46.79-2.24,1.11C66.42,15.16,65.41,15.06,65,15.31Z" transform="translate(0)"/><path class="cls-23" d="M65.82,22.5c-1.07,3-6.3.9-8.25-.2a4.33,4.33,0,0,1-1.87-1.69c-1.16,4.38,6.59,6.52,9.4,3.53a4.92,4.92,0,0,0,1.18-2.23Z" transform="translate(0)"/><path class="cls-20" d="M34.8,30.18c.17-.31.42-1,.77-1.18s.75.19,1,0c1.46-.83-.36-.67-.57-.84-.94-.81.54-.86,1.06-1,1.09-.2,1.18-.33.28-.92-.21-.14-1,.22-.83-.39s.86-.17,1.19-.26c1.15-.3,1.63-2,.22-1.55-.77.23-.74,1.75-1.44.17-.12-.28.42-.94-.39-1.06s-.42.78-.93.91c-1.62.4.24-2-.95-1.93-.7,0-1.71,2.54-1.74.22,0-.23.3-.57.47-.73-1.23-1.08-1,.55-1.86.63-1.06.09-.71-.92-.33-1.36-.89-1.1-2.35,2-2.46-.18,0,0,.6-1.12,0-1,1.78-.3,5.39,1.69,7.07,2.39l4.91,2.05c-.59.92-1.27,2-1.89,3C37.29,28.92,36.85,29.52,34.8,30.18Z" transform="translate(0)"/><path class="cls-20" d="M32.69,28.07s-1-1.73-2.63-1.38-1.15,2.49.17,1.76A3.39,3.39,0,0,1,32.69,28.07Z" transform="translate(0)"/><path class="cls-20" d="M57,19.34s-.86,1.65.36,2.53,2.71-.64,1.35-1.11A2.76,2.76,0,0,1,57,19.34Z" transform="translate(0)"/><path class="cls-20" d="M63.08,22.48s1.5.44,2.18-.57-.78-1.92-1.08-.86A2.32,2.32,0,0,1,63.08,22.48Z" transform="translate(0)"/><path class="cls-20" d="M47.88,13.13S47.22,11.77,46,12s-1,1.83,0,1.34A2.61,2.61,0,0,1,47.88,13.13Z" transform="translate(0)"/><path class="cls-20" d="M72,20.73s1.25.21,1.69-.66-.83-1.47-1-.6A1.82,1.82,0,0,1,72,20.73Z" transform="translate(0)"/><path class="cls-25" d="M22,27.84s2.19.68,3.21-.77-1.09-2.84-1.56-1.3A3.39,3.39,0,0,1,22,27.84Z" transform="translate(0)"/><path class="cls-25" d="M24.13,32s-1.47,1.14-.84,2.46,2.57.56,1.64-.44A2.7,2.7,0,0,1,24.13,32Z" transform="translate(0)"/><path class="cls-20" d="M48.71,18.74l-2.33-2.22s-1,1.24.11,1.92A2.81,2.81,0,0,0,48.71,18.74Z" transform="translate(0)"/><path class="cls-20" d="M68,18l2.78-1.27s-.85-1.26-1.82-.5A2.34,2.34,0,0,0,68,18Z" transform="translate(0)"/><path class="cls-24" d="M38.74,17.34s-10.6.06-15.93,5.94c0,0,.25,1.34,2.81-.6A32.57,32.57,0,0,1,38.74,17.34Z" transform="translate(0)"/><rect class="cls-26" width="96" height="96"/><path class="cls-3" d="M41.93,77.62c-6,2.43-11.48,8.72-11.68,18.37h8C37.62,90.3,44,76.77,41.93,77.62Z" transform="translate(0)"/><path class="cls-3" d="M59.11,77.62c6,2.43,11.49,8.72,11.68,18.37h-8C63.43,90.3,57,76.77,59.11,77.62Z" transform="translate(0)"/><path class="cls-4" d="M58.88,77.12c-3.77-3.84-12.82-2.39-16.25,0-4.49,3.13-3.91,12.22-1.91,16.4.41.85.8,1.65,1.13,2.48H60.06c.17-.51.36-1,.54-1.61C62.62,88,63,81.31,58.88,77.12Z" transform="translate(0)"/><path class="cls-5" d="M43.39,79.26a3.54,3.54,0,0,1,.1-3c2.09-4.15,13.23-4.17,14.27.78a3.81,3.81,0,0,1-.45,2.55C54.21,85.63,45.75,85.43,43.39,79.26Z" transform="translate(0)"/><path class="cls-6" d="M56.43,75.44a6,6,0,1,0-12,0c-.11,2,.14,3.24,1,4.37a6.49,6.49,0,0,0,9.94,0C56.28,78.68,56.54,77.49,56.43,75.44Z" transform="translate(0)"/><path class="cls-7" d="M59.14,63.41C59.75,60.48,61,55.62,65,55.2c2.6-.28,3.7,2.46,6.09,2.76s5.16-1.42,4.85-3.51c2.64-.78,2.51-4.27,1.52-6.18,2.71-1.48,1.88-5.14-.66-6.9.15-.12.28-.24.41-.36,2-2,.1-3.72-.89-5.68a14.36,14.36,0,0,1-1.41-4.39c-.33-1.37-1.34-4.09-1.62-5.43-.69-3.37,3.37-5.55,2.52-8.74-.6-2.27-3-3.3-5.28-3.26,1-4.85-3.86-5.45-7.1-3.48-.14-2.41-1.32-5-3.79-5.92-2-.71-5.79.57-6.43,2.71-1.74-5.68-11.14-6-12.09.46C38.37,4.7,30,5.9,31.06,10.92c-4.06-2-9.49.78-6.86,5.65-1.82-.05-4.19,0-4.95,2a4,4,0,0,0,1.48,4.35c-1.84.61-4.28,1.41-3.86,3.86a3.82,3.82,0,0,0,4.57,2.87c-.73,1.38-.72.83-.63,2.33s3.18,4.38,2.78,6c-.34,1.33-3.72,5.38-2.16,6.67-2.83-1.25-8.5,2.45-4.27,6.76-4-.36-5.94,6.59-1.26,8.11-4.72,2.19-.93,9,3.61,7.36-.25,2.06-.87,4.15,1.08,5.77a5.12,5.12,0,0,0,6.07.18c.13,2.86,6.62,3.45,7.58,1,1,2.58,6.54,3.48,8.07,1,.76,0,1.28.44,2,.45a5.32,5.32,0,0,0,4.16-2.52c.62-1.17.45-2.61,1.36-3.53,1.64-1.67,4-.95,6-1.63S58.74,65.37,59.14,63.41Z" transform="translate(0)"/><path class="cls-8" d="M58.22,5.27a3.12,3.12,0,0,0-2,1.87c-.57,1.6.46,3.34,1.75,4.24,2.32,1.62,3.61-1,3.44-3.05-.09-1.15-.73-2.74-1.95-3.08A2.33,2.33,0,0,0,58.22,5.27Z" transform="translate(0)"/><path class="cls-8" d="M44.14,7.32c.84.52,3.29-.11,4.29-.14.64,0,1.78.16,2.34-.19,1-.61.34-1.5-.34-2A5.21,5.21,0,0,0,46,4.09C45.09,4.4,42.76,6.46,44.14,7.32Z" transform="translate(0)"/><path class="cls-8" d="M19.19,52.32c-4.07.9-3.73,4.28-.32,6.34-2.27.24-3.2,2.83-2,4,1.81,1.72,5.21-.54,3.52-2.76,2,.71,3.37-2.62,3.45-4.08.1-1.76-1.39-4.86-2.6-6.2C18.74,46.83,16.51,49.3,19.19,52.32Z" transform="translate(0)"/><path class="cls-8" d="M26.85,12.94a3.49,3.49,0,0,1,2.32-1c1.36-.1,2.76,0,4.12,0A3.46,3.46,0,0,1,36.53,7.8c.65-.07,2.12-.09,1.86.89-.17.62-2.26.94-2.26.92-.16,2,.1,3-1.5,4.48a10.48,10.48,0,0,1-5.39,2.47,2.62,2.62,0,0,1-2.46-.48A2.42,2.42,0,0,1,26.85,12.94Z" transform="translate(0)"/><path class="cls-9" d="M71.42,54a1.83,1.83,0,0,0,2,1.62,1.79,1.79,0,0,0,1.71-1.89,1.82,1.82,0,0,0-2-1.62A1.79,1.79,0,0,0,71.42,54Z" transform="translate(0)"/><path class="cls-10" d="M73.46,46c-1-15-10.38-22.29-22-21.59s-22.59,9-22.1,24.22,12.39,26,24,26.65C62.3,75.74,74.46,61.22,73.46,46Z" transform="translate(0)"/><path class="cls-10" d="M26.11,52.55a9.54,9.54,0,0,0,4,.39l.09-.13c.63-1-.2-5.8-.46-6.8-.65-2.51-1.81-4.28-4.21-3.59C20.49,43.87,22.15,51.14,26.11,52.55Z" transform="translate(0)"/><path class="cls-11" d="M33.29,42.71c-.3,0-.38,4-2.93,2.15-1-.74-1.44-3-1.58-4.13-.52-4.46,3.3-7.75,5.86-11,2.68-3.44,7.23-4.83,11.52-5.49a61.82,61.82,0,0,1,18.91.24c3,.49,4.79,1.23,6,4.13C72,30.66,72,32.92,72.68,35a6.12,6.12,0,0,1,.58,3.64c-.69,2.55-3.77,2.85-5.56,1.27-1.5,1.68-2.84,1.05-3.94-.43,0,0-.2,0-.19,0-.58,1.53-3.23,1.66-4.09.35-.8,4-7.19,4-9.08.72-1.06.76-5.73-.84-5.13-1.54-1.67,2-6.32,3.4-8.48,1.47A4.52,4.52,0,0,1,33.29,42.71Z" transform="translate(0)"/><path class="cls-12" d="M28.7,51.06c2.32-.86.87-5.05-.65-5.92-1.25-.71-4.69-.23-3.47,2.2,1.13-1.94,2.39-.38,2,1-.3,1-1.53.8-.49,2.23C26.6,51.39,28,51.33,28.7,51.06Z" transform="translate(0)"/><path class="cls-7" d="M63.68,37.45c-.32.62,1.28,1.62,1.71,1.76a3.2,3.2,0,0,0,3-.84c.58,1.28,1.79,1.39,2.92.73,3.53-2.1,2.22-8.83,1.26-11.89-2-6.53-8.32-9.33-15.21-10.32-2.42-.35-4.67-1.16-7.16-1.25a28.7,28.7,0,0,0-12,2.46c-5.62,2.33-9.53,8.18-11.48,13.46a20.14,20.14,0,0,0-1.33,9.85,5.57,5.57,0,0,0,2.08,3.11c.82.76,1.5,1.86,2.25,2.55a2.31,2.31,0,0,0,3.5-.52c.32-.68-.87-4.34-1.58-4.24,2.38-.36,3.24-1.81,3.8-3.82,3.93,3.34,7.07.77,9.31-2.76.66,2.2,4.44,4.37,6.61,2.66.48,2.59,3,3.76,5.51,2.82,1.85-.7,1.87-2,1.67-3.77C59.92,39.24,62.5,39.72,63.68,37.45Z" transform="translate(0)"/><path class="cls-8" d="M69.11,31.48c-1.1-2.08-4.6-3.18-6.69-3.82a30.06,30.06,0,0,0-15.33-.17,24,24,0,0,0-10.51,4.86c-.68.58-3.22,2.71-1.45,3.26,1.23.38,3.26-.73,4.33-1.26-.23.76-1.28,2-.75,2.86s1.57.39,2.18,0c1.25-.76,1.71-2.28,2.85-3.17,3,2.28,5.54,2.88,8.65.39-.24.2.49,2.55.62,2.78a2.29,2.29,0,0,0,2.84,1.26c1-.45,1.76-2.6,2-3.64,1.33,2.57,4.54,2.61,5.49-.16C65.06,37.85,71,35.05,69.11,31.48Z" transform="translate(0)"/><path class="cls-9" d="M25.79,55.74a1.82,1.82,0,0,0,2,1.62,1.79,1.79,0,0,0,1.71-1.89,1.83,1.83,0,0,0-2-1.62A1.8,1.8,0,0,0,25.79,55.74Z" transform="translate(0)"/><path class="cls-12" d="M39.28,51.08c1.5-1.27-3.06-1.43-3.76-1.24.06.9,2.1.47,2.71.61-.53.56-2.12.55-2.77.93s-.63.67.2.66A15.44,15.44,0,0,0,39.28,51.08Z" transform="translate(0)"/><path class="cls-12" d="M67.34,50.3c-1.5-1.27,3.06-1.42,3.76-1.24-.06.9-2.1.47-2.71.62.54.55,2.13.55,2.78.93s.62.67-.21.65A15.44,15.44,0,0,1,67.34,50.3Z" transform="translate(0)"/><path class="cls-13" d="M70.28,54.14a3,3,0,0,1,.28,1c.43,3.69-6.94,2.53-7.64.93-1.31-3,1.29-3.77,3.17-3.76C67.53,52.33,69.52,52.63,70.28,54.14Z" transform="translate(0)"/><path class="cls-13" d="M43.25,54a3.42,3.42,0,0,1,.51,1c1.2,3.82-7,3.9-8.08,2.34-2-2.94.63-4.21,2.66-4.53C39.91,52.58,42.12,52.54,43.25,54Z" transform="translate(0)"/><path class="cls-7" d="M41.56,51.41a4.08,4.08,0,0,0-2.94,0c-2.16-1.61-.73-7.23,2.32-6.16C43.22,46,43.46,50.17,41.56,51.41Z" transform="translate(0)"/><path class="cls-14" d="M40.42,47.28c1.11-.19,1.51,1.62.57,2.1C39.7,50.07,39.17,47.51,40.42,47.28Z" transform="translate(0)"/><path class="cls-7" d="M68.07,45c1.63,1,1.5,4.26.34,5.78a3.58,3.58,0,0,0-2.68.42C62.34,50.17,65,43.05,68.07,45Z" transform="translate(0)"/><path class="cls-14" d="M66.85,46.71c1.07,0,1.21,1.86.27,2.21C65.82,49.4,65.65,46.74,66.85,46.71Z" transform="translate(0)"/><path class="cls-15" d="M74.79,46s-2.78,2.93-7.09.52a2.57,2.57,0,0,0-3.25.6s.91-3.31,3.7-2.23C69.65,45.42,71.37,47.09,74.79,46Z" transform="translate(0)"/><path class="cls-15" d="M31.8,46.87a6.34,6.34,0,0,0,7.44.1,2.9,2.9,0,0,1,3.39.18s-.84-3.25-3.71-1.71C37.82,46,35.26,47.79,31.8,46.87Z" transform="translate(0)"/><path class="cls-12" d="M42.56,58.41c1.59,3-2.17,4.4-3.71,1.47A2.79,2.79,0,0,0,42.56,58.41Z" transform="translate(0)"/><path class="cls-12" d="M63.7,57.9c-.82,3.1,3.25,4.17,4,1.14A3.16,3.16,0,0,1,63.7,57.9Z" transform="translate(0)"/><path class="cls-16" d="M52.79,68.39c-5.57-.18-10-3.17-11.93-7.13a.73.73,0,0,1,.47-1,1,1,0,0,1,1.17.48c1.64,3.45,5.65,6.07,10.67,6.1,5.21,0,9.69-2.71,11.18-6.89a.86.86,0,0,1,1.11-.45.81.81,0,0,1,.59,1c-1.72,4.82-6.79,8-12.79,7.9Z" transform="translate(0)"/><path class="cls-12" d="M57.53,54.22c-.71-.73-2.1.1-3.44.13s-2.28-.59-3.39,0,.23,2.43,3.42,2.31S58.14,54.84,57.53,54.22Z" transform="translate(0)"/><path class="cls-13" d="M53.91,48.85C51.64,48.69,50,52.8,51,54.13c.7.93,5.69.83,6.44-.28C57.7,53.45,56.08,49,53.91,48.85Z" transform="translate(0)"/><path class="cls-7" d="M33.71,43.78c-.13-.82,2-1.89,4.84-2.3,3.08-.45,6.42.2,6.34,1.29-.11,1.79-2.83.38-5.93.49C35.07,43.41,33.8,44.32,33.71,43.78Z" transform="translate(0)"/><path class="cls-7" d="M73.29,43.87c.13-.82-1.7-2-4.52-2.39-3.08-.45-6.42.2-6.34,1.29.11,1.79,2.83.38,5.94.49C72.26,43.41,73.21,44.41,73.29,43.87Z" transform="translate(0)"/><path class="cls-17" d="M38.9,15.38l0,0c-5.49-.06-12,1.73-15,6.84-2.1,3.48-1.12,10.41,1.73,13.1s4.67-.68,7-2.09A52.62,52.62,0,0,1,42.67,28.2a62.32,62.32,0,0,1,11.38-2.76A4.81,4.81,0,0,0,55.11,25c1.88,2.43,5.43,2.15,8.06,1.65,2-.39,1.69-.41,3.44,1,1.1.89,3.19,3,4.62,3.25,2.43.36,3.09-6.14,2.51-7.58-1.07-2.69-5.31-4.69-7.85-5.91C61.12,15.16,56,15.27,51.26,13a23.24,23.24,0,0,0-6.51-1.59C42.23,11,40,10.19,37.37,10,38.12,12.07,37.2,13.51,38.9,15.38Z" transform="translate(0)"/><path class="cls-18" d="M22,42.26C25,37.6,31.24,31.92,40.14,28.2c9.11-3.79,22.12-4.5,23-7.81s-11-2.83-17.72-3.49c-18.66-1.82-25,7-25.09,9.48-.08,2.24.28,7.12-.14,15.09C20.1,43.07,21.18,43.44,22,42.26Z" transform="translate(0)"/><path class="cls-19" d="M54.4,23.6c-4.47,1.54-9.28,1.44-13.65,3.07C37.21,28,28.54,34.9,26.93,29c-1.22-4.48,2.16-9.37,6.4-10.58a32.35,32.35,0,0,1,11.91-1.05c1.82.15,13.55.63,11.57,4.09a3.34,3.34,0,0,1-.57.73Z" transform="translate(0)"/><path class="cls-20" d="M42.47,20.87s1.58-.33,2.19.76-.95,1.91-1.18.8A2.37,2.37,0,0,0,42.47,20.87Z" transform="translate(0)"/><path class="cls-20" d="M46.46,20.93c4.7,3.85-4.66,6.51-5.24,2.72s-5.63-4.09-7-3.6A10.52,10.52,0,0,1,46.46,20.93Zm-3.91,1.85c.4.34-1.34,1.23-.28,1.54.56.16.68-.95,1.33-.61s-.15,1.31.84,1.3c.19-.6-.27-2,.87-1.3.18.11.45.73.7.52s-.43-.79-.44-1c0-1,1.29.22,1.57-.3s-.77-.34-.9-.4c-.59-.26-.14-.06,0-.56,0-.15.16-.28.21-.42-.23-.13-.68.15-.91.2.07-.29.53-1.11,0-1.24-.32-.08-.43.4-.7.39-.86,0-.18-.47-.34-.83-.37-.85-.52,0-.8.1-.82.28-.26-.27-.47-.66-.33-.61-.48-.17-.84,0-.14.08,0,.39-.35.33s0-.4-.12-.54S42,19,41.61,19s-.19.32-.38.41-.12.41-.46.21,0-.51-.09-.6c-.4-.28-.6.13-.68.54-.59-.34,0-.88-.85-.4-.18.1.13.39-.24.42-.19,0-.35-.4-.61-.43a.61.61,0,0,0-.71.35c.17.05.35.21.54.21-.07.05-.16.19-.24.25.57.64,1.2-.47,1.84,0-1.21,1.28.89.4,1.11.74s-.61.33-.23.77,1-.29,1.36,0-.54.56-.66.81c-.38.82.66.35.91.38A.71.71,0,0,1,42.55,22.78Z" transform="translate(0)"/><path class="cls-18" d="M74.07,33c-1.69-2.41-8.52-8.41-16.9-9.63S54.26,18.08,60,18.41s14.3,2.31,15.23,4.17.19,7.34.63,9.63C76.05,33.18,75,34.21,74.07,33Z" transform="translate(0)"/><path class="cls-21" d="M72.92,31.06a2.17,2.17,0,0,1-.31-.42c-.44-.79-.22-1.72-.78-2.54a17,17,0,0,1-1.42-3.27c.68-.57,3.64-3.91,4.65-2.33-.43,0-1.08-.24-1,.37,0,.25,1,.91.37,1-.39.06-.92-1.06-1.21-.46s.67.62.72,1c.13.87-.62.09-.84,0s-1.19-.48-.76.34c.1.2,1.54.66.85.94-.47.19-.91-.75-1.42-.33s.34,1,.82,1.1c.25,0,1.16-.42,1,.25s-.88.05-1.13.37c-.75,1,2,.22,1.75,1.18-.15.71-.93-.06-1.29.18-.61.39.15,1.05.62,1.19s1.26-.25,1.16.5-1-.11-1.35.19.88,1.63,1.2,1.87A11.64,11.64,0,0,1,72.92,31.06Z" transform="translate(0)"/><path class="cls-22" d="M64.3,24.49c1.85.8,4.6,3.83,6.54,3.85,1.75,0-1-1.63-.9-2.48.15-1.65,4-.58,4.52-2.39.72-2.6-7.45-3.09-9-3.16-2.54-.12-4.47,1.11-2.8,3.53Z" transform="translate(0)"/><path class="cls-22" d="M54.87,23.51a22.17,22.17,0,0,1-2.3,0,44.81,44.81,0,0,0-5.79.52c-1.17.17-3.42.74-4.53.08-1.53-.93.73-1.64,1.36-2.59.23-.33-3.65-1-3.93-1-.77-.1-2.54-.21-3.12-.69-1.81-1.45,3.08-1.6,3.83-1.68a42.57,42.57,0,0,1,7.23-.09c1.59.1,11.75,1.65,8.41,4.95A2,2,0,0,1,54.87,23.51Z" transform="translate(0)"/><path class="cls-19" d="M58.63,16.57c-2.77-3-2.71-5.68-7.07-7.19C47.4,8,42.92,9.75,38.63,9.33c3.17,9.16,8.46,13.93,18,11.29,1.37-.38,2.69-.78,4.08-1Z" transform="translate(0)"/><path class="cls-23" d="M56,17.78c-.36-2.59-3.51-4.91-6.15-5.21.85,1.18,2.76,2.62,2.92,4.07-1,.19-3-1.22-3.93-1.58-1.38-.52-2.72-1.1-4-1.72,1.12,4.42,6.07,7.85,11,7.41.78-.08,1.92-.22,2.38-.87Z" transform="translate(0)"/><path class="cls-19" d="M69.08,12.64c2.41-.71,7.83,1.44,10.26,1.45-1.63,4.7-5.41,9.35-9.88,10.4-3.78.9-6.38-2.87-10-3.76A15.38,15.38,0,0,1,69.08,12.64Z" transform="translate(0)"/><path class="cls-23" d="M65.4,19.14c2.75-.46,4.89-2.52,7.69-2.95-.7,2.17-2.75,2.56-3.81,4.22.58.24,1.28.17,1.8.49-2,1.6-9.56,2.72-7.81-1.64Z" transform="translate(0)"/><path class="cls-19" d="M67,20c-.58,2.72-2.12,6.33-5.49,6.07-2.7-.21-6.33-1.15-6.46-4.17-.07-1.43.49-5.8,1.49-6.94,1.41-1.61,5.46-.09,7.15.4C66.16,16,67.57,17.44,67,20Z" transform="translate(0)"/><path class="cls-24" d="M58,15.35c1.57-.77,3.26-.11,4.89,0l1.57.43c2.21.62,2.94,4.06,1.74,5.75,0,0-.12,0-.11,0,.08-1,.94-2.48-.09-3.15-.14.15-.61,2.45-1.11,1.47s.91-1.83-.35-2.7c-.44.48-.07,3-1.25,2.53s.66-2.29-.58-3c-.22.49-.64,4.54-1.84,3.49-.45-.39,1.19-4.35-.23-3.68-.73.35-.93,4.27-1.66,1.08-.1-.46-.13-1-.21-1.43a2.21,2.21,0,0,0-.4.07c.31,1.41-.65,2.37-1,.54-.38.5-.54,1.12-.91,1.58C57.12,17.09,56.51,16.08,58,15.35Z" transform="translate(0)"/><path class="cls-24" d="M55.6,13.82c-1.2-2.28-2-3.61-4.6-4.26s-5.34,0-8.07.15a10.82,10.82,0,0,0-3.42.33,10.32,10.32,0,0,0,1.89,3.57c.54-1-1.19-2-1.12-2.18.36-1,1.15-.1,1.81.18-.32-.39-.25-.73-.31-1.17.65.26,1,.73,1.71.75-.26-.63-.18-1,.44-1s.72.9,1.37.9c.21,0-.17-.91.51-.95s.28,1.06,1.13.84c.15,0,.31-1.1.35-1.31.93.44.12,1.37,1.37,1.6l.06,0A1.51,1.51,0,0,1,49,9.93c.65.38.28,1.18.52,1.39,1.25,1.09.53-.28.93-.48.59-.3.29-1,1.13,0,.36.4-.88,1.19.39,1.31,0-.39.34-.82.39-1.15,1.3.34.1,1.15.64,1.66s.75-.16.63-.69A24.71,24.71,0,0,1,56,15Z" transform="translate(0)"/><path class="cls-24" d="M65,15.31c1.62-1.11,2.64-2.19,4.69-2.17s4,.87,6,1.13a15.75,15.75,0,0,1,2.65.34c-.15,1.7-1.63,3.11-2.62,4.41a5.24,5.24,0,0,1,.35-2.11s1.59-1.38,1.3-1.33a8.24,8.24,0,0,0-1.17.76c-1.34-.36.33-.88-.1-1.16-.86-.57-1.83.64-2.81.32.47-.65.34-1.15-.47-1.17-.58,0-1.15,1.23-1.81,1-1.07-.41.36-1.16.1-1.43-.93-.93-1.45,1.58-2.65,1.12.45-.34.47-.73.63-1.16-.94,0-1.46.79-2.24,1.11C66.42,15.16,65.41,15.06,65,15.31Z" transform="translate(0)"/><path class="cls-23" d="M65.82,22.5c-1.07,3-6.3.9-8.25-.2a4.33,4.33,0,0,1-1.87-1.69c-1.16,4.38,6.59,6.52,9.4,3.53a4.92,4.92,0,0,0,1.18-2.23Z" transform="translate(0)"/><path class="cls-20" d="M34.8,30.18c.17-.31.42-1,.77-1.18s.75.19,1,0c1.46-.83-.36-.67-.57-.84-.94-.81.54-.86,1.06-1,1.09-.2,1.18-.33.28-.92-.21-.14-1,.22-.83-.39s.86-.17,1.19-.26c1.15-.3,1.63-2,.22-1.55-.77.23-.74,1.75-1.44.17-.12-.28.42-.94-.39-1.06s-.42.78-.93.91c-1.62.4.24-2-.95-1.93-.7,0-1.71,2.54-1.74.22,0-.23.3-.57.47-.73-1.23-1.08-1,.55-1.86.63-1.06.09-.71-.92-.33-1.36-.89-1.1-2.35,2-2.46-.18,0,0,.6-1.12,0-1,1.78-.3,5.39,1.69,7.07,2.39l4.91,2.05c-.59.92-1.27,2-1.89,3C37.29,28.92,36.85,29.52,34.8,30.18Z" transform="translate(0)"/><path class="cls-20" d="M32.69,28.07s-1-1.73-2.63-1.38-1.15,2.49.17,1.76A3.39,3.39,0,0,1,32.69,28.07Z" transform="translate(0)"/><path class="cls-20" d="M57,19.34s-.86,1.65.36,2.53,2.71-.64,1.35-1.11A2.76,2.76,0,0,1,57,19.34Z" transform="translate(0)"/><path class="cls-20" d="M63.08,22.48s1.5.44,2.18-.57-.78-1.92-1.08-.86A2.32,2.32,0,0,1,63.08,22.48Z" transform="translate(0)"/><path class="cls-20" d="M47.88,13.13S47.22,11.77,46,12s-1,1.83,0,1.34A2.61,2.61,0,0,1,47.88,13.13Z" transform="translate(0)"/><path class="cls-20" d="M72,20.73s1.25.21,1.69-.66-.83-1.47-1-.6A1.82,1.82,0,0,1,72,20.73Z" transform="translate(0)"/><path class="cls-25" d="M22,27.84s2.19.68,3.21-.77-1.09-2.84-1.56-1.3A3.39,3.39,0,0,1,22,27.84Z" transform="translate(0)"/><path class="cls-25" d="M24.13,32s-1.47,1.14-.84,2.46,2.57.56,1.64-.44A2.7,2.7,0,0,1,24.13,32Z" transform="translate(0)"/><path class="cls-20" d="M48.71,18.74l-2.33-2.22s-1,1.24.11,1.92A2.81,2.81,0,0,0,48.71,18.74Z" transform="translate(0)"/><path class="cls-20" d="M68,18l2.78-1.27s-.85-1.26-1.82-.5A2.34,2.34,0,0,0,68,18Z" transform="translate(0)"/><path class="cls-24" d="M38.74,17.34s-10.6.06-15.93,5.94c0,0,.25,1.34,2.81-.6A32.57,32.57,0,0,1,38.74,17.34Z" transform="translate(0)"/></g></g></g></svg>