<svg xmlns="http://www.w3.org/2000/svg" xmlns:xlink="http://www.w3.org/1999/xlink" viewBox="0 0 66 66"><defs><style>.cls-1{fill:none;}.cls-2{clip-path:url(#clip-path);}.cls-3{fill:#fff;}.cls-4{fill:#fdd281;}.cls-5{fill:#f4bb6e;}.cls-6{fill:#c9beb7;}.cls-7{fill:#ffcb9e;}.cls-8{fill:url(#linear-gradient);}.cls-9{fill:#f0eae6;opacity:0.4;}.cls-10,.cls-11{fill:#bf3c1b;}.cls-10{opacity:0.15;}.cls-11{opacity:0.2;}.cls-12{fill:#ffe8bd;}.cls-13{fill:#ffb387;}.cls-14{fill:#a16b43;}.cls-15{opacity:0.5;}.cls-16{fill:#f04d4d;}.cls-17{fill:#8f3935;}.cls-18{fill:#fff9f0;}.cls-19{fill:#e8dac5;}.cls-20{fill:#305d80;}.cls-21{fill:#86bae3;}.cls-22{fill:#121b21;}</style><clipPath id="clip-path" transform="translate(0)"><circle class="cls-1" cx="33" cy="33" r="33"/></clipPath><linearGradient id="linear-gradient" x1="34.66" y1="51.91" x2="34.66" y2="55.4" gradientUnits="userSpaceOnUse"><stop offset="0" stop-color="#eea17a"/><stop offset="0" stop-color="#eea17a"/><stop offset="0.36" stop-color="#f7b88e"/><stop offset="0.7" stop-color="#fdc69a"/><stop offset="1" stop-color="#ffcb9e"/></linearGradient></defs><g id="Layer_2" data-name="Layer 2"><g id="avatars"><g class="cls-2"><rect class="cls-3" width="66" height="66"/><path class="cls-4" d="M55.84,39c3.28-1.5,1.89-8.5-1.81-6.24,2.52-.09.09,3.91-1.32.9-.89-1.9,1.16-2.83,2.08-4.1a7.22,7.22,0,0,0,1.3-5.27c-.44-5.16-5.19-8.41-7.92-12.38-3-4.33-7.19-7.1-12.61-5.15a8.74,8.74,0,0,0-3.38,2.49,5.33,5.33,0,0,0-1.69-2.36c-.09.77-.13,1.55-.15,2.33-2.94-1.8-7.56-1.07-10.12.59-3.48,2.26-3.15,5.73-4.56,9.11-1.28,3.1-5.35,6.71-5.09,10.3.16,2.25,1.77,3.42,1.66,5.73C12.14,36.91,10,38,11,39.84s4.91,1.25,2.89,4.49c-1.84,3-5.45-.54-3.19-1-2.49-1.21-3.53,2-3.16,3.95C8.05,50,11.81,50,13.83,49.45c-5.27,9.65,9.74,12,17.17,5.64,3.18-2.74,5.73,4.49,9.57,4.83,5.2.46,7.94-3.26,6.88-6.6.88,2.79,4,3,6.32,2a6,6,0,0,0,3.48-5.89,3.79,3.79,0,0,1-4.27.86,2.87,2.87,0,0,1-1.35-4.47c1.44-2.05,5.53-4.65,1.54-6.81A2.92,2.92,0,0,0,55.84,39Z" transform="translate(0)"/><path class="cls-5" d="M51.39,34.69c-.48-2,1.09-3.55,1.14-5.44s-4.88-10.44-6.93-7.4c-.48.7,2.25,4.84,1.65,5.48a6.14,6.14,0,0,1-2.59,1.41,81.82,81.82,0,0,1-11.73,2.17c-2.42.36-4.78,1-7.19,1.36a12.89,12.89,0,0,1-4.79.2c-1.8-.42-1.81-2.17-3.32-2.93-2.87-1.45-5.19,1.54-4.77,4.26a8.07,8.07,0,0,0,1.91,3.54c1.3,1.52,2.88,2,3.75,3.95a8.42,8.42,0,0,1-2.22,9.87c-1.44,1.34-1.88,2.44.18,3.78,3.34,2.16,8.05,2.29,13.34.52,2.51-.84,10.66,3.66,13.45,2.21,2.23-1.17,2.92-2.34,3.81-6.37.72.89,1.69,2.36,3,2.36-1-1.92-.71-4.45-.45-6.5s1.65-3.52,1.7-5.52c0-.7-.38-2.14-.13-2.75s1.58-1.42,2.1-2A3.4,3.4,0,0,1,51.39,34.69Z" transform="translate(0)"/><path class="cls-6" d="M40.66,54,39,57.22c.15.07.53.49,1,2.82l3.52-.76C43.11,57.13,42.5,55,40.66,54Z" transform="translate(0)"/><path class="cls-7" d="M43.26,59.34l-2.9.63c.16.74.27,1.42.39,2.08a19.43,19.43,0,0,0,1,4H45a13,13,0,0,1-1.31-4.45C43.55,60.85,43.43,60.12,43.26,59.34Z" transform="translate(0)"/><path class="cls-6" d="M26.61,59.28l3.52.76c.5-2.33.88-2.75,1-2.82L29.52,54C27.68,55,27.07,57.13,26.61,59.28Z" transform="translate(0)"/><path class="cls-7" d="M29.82,60l-2.91-.63c-.16.78-.29,1.51-.41,2.21A12.79,12.79,0,0,1,25.19,66h3.28a20.12,20.12,0,0,0,1-4C29.54,61.39,29.66,60.71,29.82,60Z" transform="translate(0)"/><path class="cls-6" d="M41,60.85c1.08-4,1.2-6.48-1.3-7.3s-6.9-1.07-9.56.07c-2.11.91-2.79,2.38-1.35,6.85A22.49,22.49,0,0,1,30.07,66h10A26.25,26.25,0,0,1,41,60.85Z" transform="translate(0)"/><path class="cls-8" d="M37.78,49.38c.21-3.57-6-3.71-6,.19,0,1.73.13,3-.22,3.6-2.47,3.86,8.45,4.32,6.14.18C37.23,52.43,37.69,51,37.78,49.38Z" transform="translate(0)"/><path class="cls-9" d="M37.54,58.22a10.19,10.19,0,0,1-5.66-.09c-1-.25-1.61.91-1.3,1.91.42,1.33,2.56,1.67,4.43,1.64,3.68-.06,5.05-1.42,4.43-3C39.27,58.19,38.49,57.89,37.54,58.22Z" transform="translate(0)"/><path class="cls-7" d="M33.33,15.63c-8.24,1-14.77,7.68-13.69,19.09S28.43,53,36.73,53c6.37-.05,14.06-10.47,13.64-22.26C50,19.39,41.56,14.57,33.33,15.63Z" transform="translate(0)"/><path class="cls-7" d="M16.05,30c-3.94,1.39-2.22,7.1,1,8a7.9,7.9,0,0,0,3.21.11l.06-.1c.46-.8-.47-4.61-.73-5.39C19,30.7,17.94,29.35,16.05,30Z" transform="translate(0)"/><path class="cls-10" d="M43,15.05a41.81,41.81,0,0,0-13.48.69c-3,.68-6.19,1.93-7.93,4.64-1.24,1.92-3.34,4-3.63,6.41s-3.48,2.66.42,6.32c1.91,1.79-.1,2.39.29,6.19.16,1.53,2.58,2.88,4.89,1.61-2.33-2.26-.49-4-.06-6.48.23-1.35-1-3.52-1-4.9a7.26,7.26,0,0,1,.06-.93A21.25,21.25,0,0,1,23.43,25c-.47,4.21,5.62,1.91,7.34,1.23a3.06,3.06,0,0,1,1.77-.33c-2.06,2.12,1,5.81,3.48,5.81,4.08,0,5.12-1.69,6.83-4a5.64,5.64,0,0,1,3.85-2.43c1-.13,3.25.6,3.69-.65.66-1.86-.16-5.42-1.09-7.12C48.15,15.4,45.11,15.28,43,15.05Z" transform="translate(0)"/><path class="cls-11" d="M18.51,32.15c-1-.5-3.78,0-2.67,1.92.8-1.6,1.9-.42,1.62.73-.18.78-1.18.71-.27,1.8a2,2,0,0,0,2.17.22C21.17,36,19.78,32.76,18.51,32.15Z" transform="translate(0)"/><path class="cls-4" d="M37.55,9.74a44.2,44.2,0,0,0-5-.61,18.76,18.76,0,0,0-8.2,2.4c-3.78,2-6.22,6.58-7.32,10.63a16.36,16.36,0,0,0-.47,7.45c.46,2.16,3.26,3,3.43,5.21.07,1-.81,1.75-.79,2.7a3.11,3.11,0,0,0,1,2.15,5.23,5.23,0,0,0,2.36.72c-1.56-1.71-.05-2.71.09-4.39A13,13,0,0,0,22,31.54a6.83,6.83,0,0,1,2-8c.25,3.07,3.39,2.95,5.64,2.51,1-.2,4-1.39,4.46.14.32.95-1.2,1.78-1.55.69,0,1.62,0,3,2,3.38a6,6,0,0,0,6.85-2.95,5.16,5.16,0,0,1,2-2,7.26,7.26,0,0,1,3.29-.59c2.56-.06,3.45-1.92,3.33-4.36C49.76,13.66,43.42,10.26,37.55,9.74Z" transform="translate(0)"/><path class="cls-12" d="M35.52,9.19a6.78,6.78,0,0,0-3.21,2,13.82,13.82,0,0,1,2.33,4.13,4.54,4.54,0,0,1-1.84,4.44c-1.5,1-10.06,2.51-4.14,4.56,1.82.63,3.7-.54,5.49-.14,1.43.33,2.36,2.41.88,3.39,1.28.61,3.27-.17,4.34-.86a16.47,16.47,0,0,1,2.35-1.47,12,12,0,0,0,4.86-3.51c1.76-2.35,1.81-5.35-.73-8.92C43.81,9.92,38.91,8.28,35.52,9.19Z" transform="translate(0)"/><path class="cls-12" d="M26.22,10.7c-7.47.5-6,6.94-9.15,11.55C16,23.82,15,25.19,15.87,27c.75,1.5,3.11,3.69,4.79,3.88A6.12,6.12,0,0,1,20.15,27c1.36-4.78,6.93-6.25,9.36-10.1C31.51,13.67,30.08,10.44,26.22,10.7Z" transform="translate(0)"/><path class="cls-13" d="M47.87,37.54a2.63,2.63,0,0,0-2.22-1c-1-.07-2.35.22-1.62,1.75.38.82,4.27,1.64,4-.2A1.28,1.28,0,0,0,47.87,37.54Z" transform="translate(0)"/><path class="cls-13" d="M28.87,37.4a2.75,2.75,0,0,0-2.62-.69c-1.1.14-2.55.8-1.49,2.4.56.86,5,.91,4.37-1.16A1.86,1.86,0,0,0,28.87,37.4Z" transform="translate(0)"/><path class="cls-14" d="M42.27,29.53c2.16.2,4-.44,7.21-.17C48.29,27.87,43.89,27.84,42.27,29.53Z" transform="translate(0)"/><path class="cls-11" d="M37.46,38.23c-.73,0-1-.3-1.54,0s.6,1.29,1.51,1.21,1.88-.93,1.61-1.24S38.28,38.22,37.46,38.23Z" transform="translate(0)"/><path class="cls-14" d="M23,29.06c4.06.1,5.43.28,8.24.21C29.74,27.37,24.77,27.5,23,29.06Z" transform="translate(0)"/><g class="cls-15"><path class="cls-16" d="M36.89,40.78c-2.9.06-7.17.88-9.44-.46,3.72,6.39,6.06,7.59,9,7.82,3.72.28,5-2.3,5.62-4.24A11.2,11.2,0,0,1,45,40.51C42.68,41,40.39,40.71,36.89,40.78Z" transform="translate(0)"/></g><path class="cls-17" d="M29.19,41.45s2.23,4.29,6.87,4.45C39,46,41,45,41.57,43.59a4,4,0,0,1,1.9-2.12A29.17,29.17,0,0,1,29.19,41.45Z" transform="translate(0)"/><path class="cls-18" d="M30.91,41.85a2.31,2.31,0,0,0,1.76,1.81,15.08,15.08,0,0,0,6.75.4c1.59-.23,2.4-2.25,2.4-2.25A31.06,31.06,0,0,1,30.91,41.85Z" transform="translate(0)"/><path class="cls-18" d="M37.26,44.2c-2.12,0-3.88-.12-4.93-.84-.75-.52-.83,0-.67.36,0,0,.66,1.78,4.17,2.24s5.17-1.65,4.78-2S39.23,44.15,37.26,44.2Z" transform="translate(0)"/><path class="cls-19" d="M30.91,41.85a2.16,2.16,0,0,0,.41.92s7.94-.59,9.83.16a4.16,4.16,0,0,0,.67-1.12A36,36,0,0,1,30.91,41.85Z" transform="translate(0)"/><path class="cls-19" d="M33,43.63c2.82,1.8,6.25.36,6.25.36A11,11,0,0,1,33,43.63Z" transform="translate(0)"/><path class="cls-20" d="M27.75,31.13c-2.13-.8-3.22,3.13-1.73,4.3a2.84,2.84,0,0,1,2.07,0C29.44,34.64,29.34,31.73,27.75,31.13Z" transform="translate(0)"/><path class="cls-21" d="M28.09,32.43c-.89.13-.56,1.94.36,1.49C29.12,33.59,28.87,32.31,28.09,32.43Z" transform="translate(0)"/><path class="cls-20" d="M46.54,31.17c-2.14-1.37-4,3.65-1.64,4.37a2.57,2.57,0,0,1,1.88-.31C47.6,34.17,47.69,31.9,46.54,31.17Z" transform="translate(0)"/><path class="cls-21" d="M46.42,32.24c-.85,0-.73,1.9.19,1.55C47.27,33.54,47.17,32.22,46.42,32.24Z" transform="translate(0)"/><path class="cls-22" d="M46.6,31.06c-2-.75-2.61,1.58-2.61,1.58a1.82,1.82,0,0,1,2.29-.43,4,4,0,0,0,5-.37C48.87,32.65,47.66,31.47,46.6,31.06Z" transform="translate(0)"/><path class="cls-22" d="M26.33,31.24a6.37,6.37,0,0,1-5,.89,4.46,4.46,0,0,0,5.23.19,2,2,0,0,1,2.38.18S28.37,30.19,26.33,31.24Z" transform="translate(0)"/></g></g></g></svg>