<svg xmlns="http://www.w3.org/2000/svg" xmlns:xlink="http://www.w3.org/1999/xlink" viewBox="0 0 96 96"><defs><style>.cls-1{fill:none;}.cls-2{clip-path:url(#clip-path);}.cls-3{fill:#ff8967;}.cls-4{fill:#e8dbdb;}.cls-5{fill:url(#linear-gradient);}.cls-6{fill:#fff;}.cls-10,.cls-6,.cls-9{opacity:0.4;}.cls-7{fill:#9c552c;}.cls-8{fill:#261b18;}.cls-9{fill:#66241b;}.cls-10{fill:#661004;}.cls-11{fill:#573d2f;}.cls-12{fill:#bf6c3c;}.cls-13{fill:#161110;}.cls-14{fill:#f0ded1;opacity:0.7;}.cls-15{fill:#ff4564;opacity:0.8;}.cls-16{fill:#78231f;}.cls-17{fill:#fff9f0;}.cls-18{fill:#e8dac5;}</style><clipPath id="clip-path"><circle class="cls-1" cx="48" cy="48" r="48"/></clipPath><linearGradient id="linear-gradient" x1="48.22" y1="75.53" x2="47.25" y2="81.05" gradientUnits="userSpaceOnUse"><stop offset="0" stop-color="#854326"/><stop offset="1" stop-color="#9c552c"/></linearGradient></defs><g id="Layer_2" data-name="Layer 2"><g id="Layer_4" data-name="Layer 4"><g class="cls-2"><rect class="cls-3" width="96" height="96"/><path class="cls-4" d="M57.06,89.94c1.57-5.88,1.74-9.43-1.89-10.63s-10-1.55-13.9.11c-3.08,1.32-4.07,3.46-2,10A40.41,40.41,0,0,1,41,96H55.78A47.06,47.06,0,0,1,57.06,89.94Z"/><path class="cls-5" d="M52.32,73.24c.3-5.19-8.66-5.38-8.65.29,0,2.51.07,4.35-.33,5.23-.48,1.06.22,4.61,4.93,4.61,4.26,0,4.35-3.62,4-4.34C51.6,77.64,52.19,75.54,52.32,73.24Z"/><path class="cls-6" d="M52,86.12c-2.55.89-5.64.52-8.25-.14-1.5-.37-2.34,1.33-1.88,2.78.61,1.92,3.72,2.43,6.44,2.38,5.35-.08,7.35-2.07,6.44-4.44C54.49,86.07,53.34,85.63,52,86.12Z"/><path class="cls-4" d="M41.71,84.41l-2.26-3.89c-3.79,2.2-5.12,9-5.33,15.48h4.53C39,91.89,39.08,85.94,41.71,84.41Z"/><path class="cls-7" d="M36.12,84.74c4,1,5.66-1,4.92-5.22A8.23,8.23,0,0,0,36.12,84.74Z"/><path class="cls-4" d="M57.31,80.52l-2.26,3.89c2.64,1.53,2.67,7.48,3.07,11.59h4.53C62.44,89.49,61.1,82.72,57.31,80.52Z"/><path class="cls-7" d="M55.72,79.52c-.74,4.21.89,6.18,4.92,5.22A8.2,8.2,0,0,0,55.72,79.52Z"/><path class="cls-8" d="M24.4,26.85c-3.9,10.2-4.26,18.08-6.93,34.21-.67,4.08-3.25,10.36-2.14,12.84,1.55,3.49,5.51,1.49,8.78,2.55,3.52,1.15,7.42,2.8,8.27-2.17a7.75,7.75,0,0,1,.37,3c2.74.07,12.12-2.9,18.45-2.64,5.63.23,17.3,5.34,19.68-1.13,1.77-4.83,3.52-26.2,2.77-33.19-.05-.43,1.67-1,1.72-1.38.18-1.25.28-2.13.3-2.48C77.21,8.68,34.12,1.44,24.4,26.85Z"/><path class="cls-7" d="M29.46,55.4c1.29,10.95,11.23,21.86,21.85,22,11.25.19,20.37-16.79,19-29.8C68.72,32.87,62,20.46,46.63,23.17,35.68,25.1,27.72,40.65,29.46,55.4Z"/><path class="cls-9" d="M48.16,40A3.33,3.33,0,0,1,47,39c-.34.92-.5,1.55-1.38,2-2,1-5.57,0-7.69-.11-2.38-.15-4.65.61-5.11-2.15,0,2.42,1,5.21-1.17,7.22-2.91-2.44-6.7-6.17-6.11-10,.87-5.62,3.34-9.26,9-11.57,3.76-1.54,9.1-1.19,13.08-1a51.58,51.58,0,0,1,18.15,4.2c4.6,1.92,10.4,12.81,2,12.95-1.93,0-5.48.37-5.82-2-.31,1.1-.89,1.38-1.88,1.7-2.26.73-4.71.44-7,.31C51.45,40.5,49.58,40.69,48.16,40Z"/><path class="cls-7" d="M26.74,60.09a10.62,10.62,0,0,0,4.32.55.6.6,0,0,1,.09-.13c.66-1-.14-6.72-.45-7.81-.78-2.71-2.36-4.16-4.94-3.49C20.38,50.58,22.39,58.44,26.74,60.09Z"/><path class="cls-10" d="M27.59,52.12c-1.19-.58-4.21.37-2.84,2.75.78-2.17,2.08-.72,1.85.83-.15,1-1.27,1-.18,2.38.58.74,1.81.49,2.43.12C30.82,57,29.05,52.82,27.59,52.12Z"/><path class="cls-8" d="M70.8,31.22c-1.64-4.2-5.13-8-8.27-10.8-5.94-5.22-13.8-5.31-21.24-4.16-2.85.44-6.91,1.09-9.48,2.46-2.24,1.2-3.17,4.1-4.23,6.29-1.9,3.91-2.55,8.67-3,13-.23,2.3.63,4.68.83,7s1.15,4.21,1.54,6.43a20,20,0,0,1-.81,10.06c-.48,1.37-1.59,2.49-.6,3.73.77,1,2.68,1.45,3.53.58.71-.72,2.17-6.74,2.49-8.28a55.26,55.26,0,0,0,.69-12,29.65,29.65,0,0,1,1.36-10.77c-.14,1.47.4,3.39.47,4.94,3.7-.38,7.63,0,11.34-.09a14.15,14.15,0,0,0,1.29-3.79c0-.06,0-.08,0,0,.25.63.47,2.21,1,2.62.87.73,3.47.33,4.54.42,2,.17,5.45.94,7.4.13,1.26-.52,1.47-1.69,1.81-3,0-.07,0-.07,0,0,.39.67.54,1.86,1.17,2.18a13.58,13.58,0,0,0,3.66.72,29.24,29.24,0,0,0,4.39,0C73.54,38.27,71.54,33.09,70.8,31.22Z"/><path class="cls-11" d="M45,13.6c10.21-.9,25.54,3.3,28.27,17.61-6.15,2.51-10.69,1.51-15.53-.43a17.93,17.93,0,0,0-12.32.15,10.32,10.32,0,0,1-11.46-2.46c-6.45,13.32,2.73,23.86-9.49,43.69,3.6-9.84,5.22-21.67,3.77-30.74-1.5,6.71-5.72,6.88-6.21,12-.63,6.48,2.31,16.94-.53,18.89C19.29,73.78,18,73.71,17.87,71c-.14-2.93,1.78-7.77,2-11,.68-12.6,3.05-25.25,8.88-36.58C31.29,18.47,39.34,14.09,45,13.6Z"/><path class="cls-12" d="M68.55,54a2.54,2.54,0,0,1,.24.86c.33,3.08-6.26,1.08-6.86-.33-1.13-2.65,1.21-2.91,2.89-2.63C66.12,52.15,67.89,52.67,68.55,54Z"/><path class="cls-12" d="M42.32,52.8a2.84,2.84,0,0,1,.64.69c1.76,2.73-5.36,4-6.59,2.93-2.31-2-.24-3.29,1.48-3.83C39.16,52.19,41.07,51.84,42.32,52.8Z"/><path class="cls-10" d="M56.5,54.57c-.55-.88-1.45,0-3-.14s-1.38-.85-2.39-.28-.27,2.8,2.23,2.9S57,55.33,56.5,54.57Z"/><path class="cls-12" d="M53.14,50.34c-1.15,0-2.86,3.9-2.28,4.49,1.41,1.45,4.55.77,5.51-.22C56.74,54.22,54.45,50.32,53.14,50.34Z"/><path class="cls-13" d="M66.3,46c-3.88-1.66-7.42,3.13-4.63,5.62.56-.61,3.6-1.59,5.48-.17C68.75,50.25,68.38,46.83,66.3,46Z"/><path class="cls-14" d="M66.74,48.64c.94-.3,1.31,1.14.52,1.66C66.18,51,65.67,49,66.74,48.64Z"/><path class="cls-14" d="M63.09,46.51c1.61-.49,2.24,2,.9,2.82C62.14,50.55,61.29,47.08,63.09,46.51Z"/><path class="cls-13" d="M37.38,46.26c3.83-1.77,7.51,2.92,4.79,5.49-.58-.59-3.65-1.49-5.49,0C35.06,50.64,35.32,47.21,37.38,46.26Z"/><path class="cls-14" d="M37,49c-1-.27-1.28,1.17-.48,1.67C37.65,51.32,38.09,49.27,37,49Z"/><path class="cls-14" d="M40.6,46.74c-1.62-.46-2.18,2-.82,2.84C41.67,50.75,42.42,47.25,40.6,46.74Z"/><path class="cls-8" d="M42.63,40.7c1-.05,1.69.47,1.25,1.48-.35.79-1.42.74-2.2.85-1.15.16-2.31.18-3.47.31a18.18,18.18,0,0,0-4.42.9c-.27.1-.5.32-.81.31a1.6,1.6,0,0,1,.59-1.12A9.68,9.68,0,0,1,37,41.57,21.24,21.24,0,0,1,42.63,40.7Z"/><path class="cls-8" d="M60.53,40.5c-1,0-1.65.47-1.23,1.43.33.76,1.38.69,2.14.78,1.12.14,2.26.15,3.38.26a17.92,17.92,0,0,1,4.31.8c.27.1.49.31.8.29A1.45,1.45,0,0,0,69.36,43,9.25,9.25,0,0,0,66,41.25,21.38,21.38,0,0,0,60.53,40.5Z"/><path class="cls-13" d="M73.06,45.42S70.27,49.17,65,46.91c-2.33-1-4.06,1.25-4.06,1.25a4,4,0,0,1,4.59-2.88C67.36,45.61,69.3,47.18,73.06,45.42Z"/><path class="cls-13" d="M30.75,45.9s2.83,3.71,8.08,1.4c2.31-1,4.07,1.2,4.07,1.2a4,4,0,0,0-4.62-2.83C36.45,46,34.53,47.62,30.75,45.9Z"/><path class="cls-15" d="M52.11,59.88c-4.56.2-10.44,1.55-14.06-.28,6.33,9.3,7.66,11.19,13.86,11.46,5.86.25,7.67-4.14,8.52-6.94.36-1.19,3.28-4.26,4.42-5C61.21,60,57.61,59.64,52.11,59.88Z"/><path class="cls-16" d="M40.05,61.14a50.15,50.15,0,0,0,22.42-.55,6,6,0,0,0-2.89,3.11c-.84,2.08-3.89,3.56-8.56,3.53C43.74,67.19,40.05,61.14,40.05,61.14Z"/><path class="cls-17" d="M42.77,61.65s.24,1.84,2.84,2.52a25.83,25.83,0,0,0,10.61.29c2.48-.39,3.67-3.31,3.67-3.31A53.78,53.78,0,0,1,42.77,61.65Z"/><path class="cls-17" d="M44,64.29c-.26-.47-.16-1.25,1-.54,1.68,1,4.45,1.16,7.78,1,3.09-.15,4.64-1,5.25-.51s-2.1,3.57-7.42,3.08C45.13,66.81,44,64.29,44,64.29Z"/><path class="cls-18" d="M43.44,62.94s12.45-1.16,15.45-.16a6,6,0,0,0,1-1.63,61.82,61.82,0,0,1-17.12.5A2.89,2.89,0,0,0,43.44,62.94Z"/><path class="cls-18" d="M46.06,64.1a18.76,18.76,0,0,0,9.82.27S50.56,66.57,46.06,64.1Z"/></g></g></g></svg>