<svg xmlns="http://www.w3.org/2000/svg" xmlns:xlink="http://www.w3.org/1999/xlink" viewBox="0 0 96 96"><defs><style>.cls-1{fill:none;}.cls-2{clip-path:url(#clip-path);}.cls-3{fill:#fff;}.cls-4{fill:#c4bab1;}.cls-5{fill:#e62628;}.cls-6{fill:#0d73b5;}.cls-7{fill:#f5ab76;}.cls-8{opacity:0.15;}.cls-9{fill:#ff9819;}.cls-10{fill:#ffc566;}.cls-11{fill:#ed671a;}.cls-12{fill:#1f1a17;}.cls-13{fill:#9c552c;}.cls-14,.cls-15,.cls-17{fill:#66241b;}.cls-14,.cls-18{opacity:0.4;}.cls-15{opacity:0.7;}.cls-16{fill:#332823;}.cls-17{opacity:0.5;}.cls-18{fill:#661004;}.cls-19{fill:#bf6c3c;}.cls-20{fill:#a88888;}.cls-21{fill:#d47b48;}.cls-22{fill:#78231f;}.cls-23{fill:#fff3e2;}.cls-24{fill:#e8dac5;}</style><clipPath id="clip-path"><circle class="cls-1" cx="48" cy="48" r="48"/></clipPath></defs><g id="Layer_2" data-name="Layer 2"><g id="Layer_4" data-name="Layer 4"><g class="cls-2"><rect class="cls-3" width="96" height="96"/><path class="cls-4" d="M32.44,76.45c-4.2,2.34-7.3,9-8.08,19.55h10c.31-5.46.83-11.49,2.09-12.87Z"/><path class="cls-4" d="M65.33,76.45l-4,6.68c1.25,1.38,1.77,7.41,2.08,12.87h10C72.63,85.44,69.54,78.79,65.33,76.45Z"/><path class="cls-5" d="M60.12,74.58C53,71,42.63,72.21,37.9,75.12c-6.48,4-5.07,10.61-3.35,20.88H63C64.91,86.26,66.48,77.82,60.12,74.58Z"/><path class="cls-6" d="M48.24,67.93c-11.23,0-11.62,15.87.54,15.87C60.14,83.8,63.85,67.93,48.24,67.93Z"/><path class="cls-7" d="M52.39,66.47c-2.47-.64-6.51-.32-8.58,1.62-7.21,6.76-.19,13.41,5.47,13.41s7.81-4.84,7.59-8.57C56.69,70,55,67.13,52.39,66.47Z"/><path class="cls-4" d="M66.72,77.66C66.13,76.18,59.84,74,59.84,74,55.61,81,54.12,89,53.75,96H63.6C64.79,85,67.26,79,66.72,77.66Z"/><path class="cls-4" d="M31,77.66C30.45,79,32.92,85,34.12,96H44c-.38-7-1.87-15-6.09-22C37.88,74,31.59,76.18,31,77.66Z"/><path class="cls-8" d="M59.71,79.21a5.67,5.67,0,0,0-4.91-3.08,12.14,12.14,0,0,0-6.47,1.4c2.7,1.34,3.4,9.3,3.62,14.33C52,93.15,52,94.58,52,96h7C60.4,89.91,61.19,82,59.71,79.21Z"/><path class="cls-9" d="M55.06,75.88a13.47,13.47,0,0,0-6.78,1.59c2.87,1.25,4.42,7.51,4.8,14.68.05.93.05,2.33.07,3.85h10c-.08-6.21-1.24-14.61-2.79-17.21A5.94,5.94,0,0,0,55.06,75.88Z"/><path class="cls-10" d="M60.53,85.69c-1.28-.07-.86,3.92-.93,4.78a6.7,6.7,0,0,0-1.38-2.23A8.13,8.13,0,0,0,56.9,92c-.45,1.91-1.68-.42-2.14-.86,0,0-.13,3.71-.12,3.88a8.65,8.65,0,0,1,0,1h7.56c0-.14,0-.28,0-.39C62.11,94.34,62.31,85.79,60.53,85.69Z"/><path class="cls-8" d="M36.59,83.38C40,88.81,49,89.94,53.39,88.6c3.32-1,8-3.7,9.34-9.29C66.29,64.38,26.9,68,36.59,83.38Z"/><path class="cls-9" d="M35.94,82.18c3.62,5.39,13.18,6.48,17.79,5.15,3.52-1,8.5-3.71,9.92-9.25C67.45,63.24,25.69,67,35.94,82.18Z"/><path class="cls-11" d="M39.33,74.79c2.53,2.57,9.15,4,13.55,2.94,2.5-.61,6.61-1.35,7.72-3.9C63.54,67,32.18,67.54,39.33,74.79Z"/><path class="cls-10" d="M53.49,79c-.46-.53-2.39.2-4.48.16-3.83-.06-3.89-1-5.94-1.05-.45,2,4,3.15,5,3.47-1.06.06-3.27-.29-4.15.59-1.26,1.27,0,2.94,1.05,3.36a10.3,10.3,0,0,0,5.68.5c.58-.12,2-.31,2.22-1.17.15-.65-.43-.62-.37-1.26s.77-.81.73-1.48-.57-.71-1.25-.75C52.48,81.1,54.15,79.76,53.49,79Z"/><path class="cls-12" d="M72.38,57.71c2.48-1.76,3.92-7.07-.64-6.86,4.49-.42,5.16-6.13,1-7,5.89-1,6.54-6.08,2.46-7.88,5-.23,4.53-8-.24-6.72,4.39-3.27,1.14-9.66-5-8.17,2.21-3.94-2.5-8.56-6.8-3.93.36-6.45-6.76-7.32-9.83-2.89.85-5.32-8.36-5.85-9.2-.07-2.29-3.72-10.47-4-9.83,1.67-3.4-4.75-8.39-.64-6.47,4.52-5.43-2.59-9,3.47-4.29,6.85-5-1.38-8,5.31-1.89,7.68-5.73-.6-6.12,6.76-1.06,6.54-3.64,1.51-1.74,6.34,2,5.86-2.24,2.31.25,10.19,5.34,9.16,6.79-1.37,14.21-5.06,21.21-2.44,3.87,1.45,7.1,4.41,11.12,5.52C63.54,60.46,69.59,59.67,72.38,57.71Z"/><path class="cls-13" d="M25.94,53.12c1,14.42,10.79,24.11,24.59,24C65.81,77,71.69,64.38,70.71,50S58.87,24.08,47,24.88,25,38.7,25.94,53.12Z"/><path class="cls-13" d="M24.9,60a13.1,13.1,0,0,0,4.71.39l.09-.13c.72-1-.39-5.88-.72-6.89-.83-2.55-2.26-4.34-5.09-3.64C18,51.21,20.17,58.58,24.9,60Z"/><path class="cls-14" d="M28.87,45.2c.62-2.36,1.31-4.52,1.6-5.9,1.07-5.12,6.92-7.09,11.49-7.55a64.94,64.94,0,0,1,17.15,1c2,.34,5.2.45,6.25,2.54s.23,3.9-2.32,3c-1.53,1.29-4.37,2.3-5.54.27-1.67,1.49-5.85,3.7-7.07.78-2,1.39-5.22,2.34-6.62-.07a5.47,5.47,0,0,1-6.92.75,3,3,0,0,1-2.25,3.72,3,3,0,0,1-1,4.55c2.41,1,1.59,4.16-.48,5.1,1.59,2.36-1,5.4-3.51,3.57C26.87,54.91,27.72,49.69,28.87,45.2Z"/><path class="cls-15" d="M27.92,58.5c2.72-.87.89-5.12-.93-6-1.5-.72-5.56-.24-4,2.23,1.27-2,2.81-.39,2.33,1.06-.32,1-1.79.81-.52,2.26C25.44,58.83,27.07,58.77,27.92,58.5Z"/><path class="cls-12" d="M36.08,23.69a14.53,14.53,0,0,0-5.51,4.69c-3.07,4.44-7,11.75-5.37,17.14.35,1.21.16,2.92.59,4.14.87,2.46.39,8,4.08,8.42,3.4.38,3.53-2.95,1.67-4.95,3.57.19,2.42-4.07,0-5,3.09-.69,2.71-4.45,1-6.35,2.61-.34,2-3.47,1.13-5.18,2.53,2,6,3.31,8.43.31,1.23,3.12,6.28,2,8.15-.09.81,2.76,5,2.4,5.9-.18,1.52,2.18,6,2.2,6.54-.7a2.76,2.76,0,0,0,4.29-3c3.51.35,2-3.77.64-5.34C64.71,24.21,57.24,22.73,53,22,47.42,20.91,41.23,21.09,36.08,23.69Z"/><path class="cls-16" d="M44.77,35.31C45.93,37,48.52,36,49.53,34c2.15,2.77,6,2.15,5.83-1.69,1.56,1.68,5.23,3.89,6.06.47,2.28,2.14,5.86,1.59,5.86-1.72,5.3,1.53,8-5.6.58-5.89,3.73-4.77-2.7-8.47-5.28-2.84,2-4.77-3.42-7.68-6.38-3.17-2.08-4.44-7.33-4.8-9.08-.43-2.57-3.4-9-4.67-7.75,1-3.57-4.13-12.61-.65-7.82,3-4.84-2.64-9.37,2.73-3.17,3.63-6.05-.11-6,8.86,1.95,4.53-3.41,4,3,5.6,7.75,2.68-1.74,4.51,4.7,1.64,6.17.29A3.2,3.2,0,0,0,44.77,35.31Z"/><path class="cls-17" d="M65.76,49.3c-1.08-1.63,3.28-1.1,3.89-.78-.3,1-2.11.19-2.73.25.35.7,1.86.94,2.38,1.46s.4.83-.38.69A11.65,11.65,0,0,1,65.76,49.3Z"/><path class="cls-17" d="M40.18,51.21c.91-1.64-3.23-.81-3.79-.46.36.92,2,0,2.64,0-.29.69-1.72,1-2.17,1.57s-.33.83.4.63A11.36,11.36,0,0,0,40.18,51.21Z"/><path class="cls-12" d="M42.65,52a4.43,4.43,0,0,0-3-.29c-2.08-1.79-.12-7.22,2.94-5.88C44.83,46.83,44.71,50.94,42.65,52Z"/><path class="cls-18" d="M57,53.2c.58.59-.64,2.77-3.25,2.95s-4-2.07-3-2.67,1.63,0,3.11-.07C55.49,53.33,56.34,52.51,57,53.2Z"/><path class="cls-19" d="M56.87,53.5c1.84-1.88-1.14-8.28-4.35-8-1.34.1-2.23,2-2.41,4.46s-.09,3.6.56,4.08A5.27,5.27,0,0,0,56.87,53.5Z"/><path class="cls-12" d="M65.29,44.58c1.82.8,2.06,3.64,1,5.19a4.2,4.2,0,0,0-2.72,1C59.88,50.21,61.89,43.09,65.29,44.58Z"/><path class="cls-20" d="M41,47c1.11-.37,1.79,1.34.9,2C40.66,49.79,39.73,47.36,41,47Z"/><path class="cls-20" d="M63.74,45.88c1.07-.35,1.73,1.3.87,1.92C63.43,48.64,62.52,46.29,63.74,45.88Z"/><path class="cls-19" d="M43.55,53.61a3,3,0,0,1,.73.81c2,3.21-6.12,4.74-7.53,3.52-2.66-2.28-.29-3.89,1.67-4.53C39.93,52.91,42.12,52.49,43.55,53.61Z"/><path class="cls-19" d="M62.44,53c-.83,1-.8,2.38,1,3.24s5.41,1,6.3-1.25c1.22-3.07-3.1-3.82-5.07-3.33A4.17,4.17,0,0,0,62.44,53Z"/><path class="cls-18" d="M59.06,72.4c-.8-.64-3.15-1-4.69-.69-2.6.42-3.48,1.5-3.49,1.68.06-1,.65-2,2.37-2.48C55.35,70.31,59.2,70.68,59.06,72.4Z"/><path class="cls-12" d="M64.2,42.44a5.59,5.59,0,0,1-3.33.73A3.16,3.16,0,0,1,58,40.27c1.65.41,3.53-.9,5.18-1.09a4.12,4.12,0,0,1,4.37,1.93,2.6,2.6,0,0,1,.28.81,7.33,7.33,0,0,0-2.29,0A10.26,10.26,0,0,0,64.2,42.44Z"/><path class="cls-12" d="M44.48,44.56c-1.9-.34-4.19-1.62-5.78.06-.31.33-.59.7-.92,1-1.62-2.2,1-5.59,3.5-5.33,1,.1,2.07.63,3.1.82A7.27,7.27,0,0,0,48.14,41C48.25,43.4,47,45,44.48,44.56Z"/><path class="cls-21" d="M63.45,61c.39-1.7,2.44-3.36-.24-3.58-1.3-.11-2.7.89-4,1.16a44.94,44.94,0,0,1-11.74,1c-1.76-.09-7.05-2.72-5.34,1.08,3.23,7.15,6.1,9.95,12.17,9.45C62.61,69.5,62.71,64.17,63.45,61Z"/><path class="cls-22" d="M43.32,60.37A30.45,30.45,0,0,0,64.06,58.2a4.61,4.61,0,0,0-1.82,3.08c-.49,2.24-2.46,4.9-7.65,5.53C46.94,67.74,43.32,60.37,43.32,60.37Z"/><path class="cls-23" d="M45.93,61a4.08,4.08,0,0,0,2.82,3.14,16.32,16.32,0,0,0,10-.33c2.27-.78,3.21-4.53,3.21-4.53S55.53,62,45.93,61Z"/><path class="cls-23" d="M47.26,64.47c-.3-.59-.37-1.27,1-.88A23.19,23.19,0,0,0,56,64c3.28-.29,3.91-1.6,4.56-1S59.29,66.92,54,66.92C48,66.93,47.26,64.47,47.26,64.47Z"/><path class="cls-24" d="M47,63.05s11-2,13.84-1.24a7.76,7.76,0,0,0,1.08-2.57s-8.08,2.81-16,1.68A3.38,3.38,0,0,0,47,63.05Z"/><path class="cls-24" d="M48.91,63.56a24,24,0,0,0,10.92-.64S54.35,65.56,48.91,63.56Z"/></g></g></g></svg>