<svg xmlns="http://www.w3.org/2000/svg" xmlns:xlink="http://www.w3.org/1999/xlink" viewBox="0 0 66 66"><defs><style>.cls-1{fill:none;}.cls-2{isolation:isolate;}.cls-3{clip-path:url(#clip-path);}.cls-4{fill:#fff;}.cls-5{fill:#6f6e82;}.cls-6{fill:#fff9f0;}.cls-7{fill:url(#linear-gradient);}.cls-8{fill:#3a3a4a;}.cls-11,.cls-8{opacity:0.5;}.cls-9{fill:#f5f5f5;}.cls-10{fill:#f06799;}.cls-11{fill:#d9af96;mix-blend-mode:multiply;}.cls-12{fill:#4f2619;}.cls-13{fill:#ffcb9e;}.cls-14{fill:#bf3c1b;opacity:0.2;}.cls-15{fill:#2f2120;}.cls-16{fill:#7d4732;}.cls-17{fill:#b08a72;}.cls-18{fill:#ffb696;}.cls-19{fill:#e65050;opacity:0.7;}.cls-20{fill:#8f3935;}.cls-21{fill:#e8dac5;}.cls-22{fill:#d14f2e;opacity:0.3;}.cls-23{fill:#121b21;}.cls-24{fill:#784430;}</style><clipPath id="clip-path" transform="translate(0)"><circle class="cls-1" cx="33" cy="33" r="33"/></clipPath><linearGradient id="linear-gradient" x1="33.8" y1="49.01" x2="33.8" y2="53.28" gradientUnits="userSpaceOnUse"><stop offset="0" stop-color="#eea17a"/><stop offset="1" stop-color="#ffcca6"/></linearGradient></defs><g class="cls-2"><g id="Layer_2" data-name="Layer 2"><g id="avatars"><g class="cls-3"><rect class="cls-4" width="66" height="66"/><path class="cls-5" d="M30.44,55.44,29,52.6c-2,1-2.55,3.26-3.1,5.66-.29,1.26-1.44,6-2.1,7.74h3.52c.5-1.61,1.57-6.06,1.8-7C29.43,57.38,29.8,55.75,30.44,55.44Z" transform="translate(0)"/><path class="cls-5" d="M38.62,52.6l-1.49,2.84c.64.31,1,1.94,1.38,3.51.22,1,1.29,5.44,1.79,7h3.53c-.67-1.73-1.82-6.48-2.11-7.74C41.17,55.86,40.65,53.59,38.62,52.6Z" transform="translate(0)"/><path class="cls-6" d="M37.64,51.31a.41.41,0,0,0-.43.4.42.42,0,0,0,.41.43.43.43,0,0,0,.44-.41A.42.42,0,0,0,37.64,51.31Z" transform="translate(0)"/><path class="cls-6" d="M30,51.37a.41.41,0,0,0-.43.4.42.42,0,1,0,.84,0A.41.41,0,0,0,30,51.37Z" transform="translate(0)"/><path class="cls-5" d="M40.5,60.42c1-2.56,1.08-3.17.48-4.61-2.64-6.31-9.63-5.38-12-3.24a4.72,4.72,0,0,0-1.5,2.58c-1,2.68,0,3.92.54,6.21A13.13,13.13,0,0,1,28.24,66H39.65A10.8,10.8,0,0,1,40.5,60.42Z" transform="translate(0)"/><path class="cls-4" d="M33.92,61a.51.51,0,1,0,.51.51A.51.51,0,0,0,33.92,61Z" transform="translate(0)"/><path class="cls-4" d="M34,64.1a.51.51,0,1,0,.51.51A.51.51,0,0,0,34,64.1Z" transform="translate(0)"/><path class="cls-7" d="M37.58,51.81c-1.84-1.05.15-5.82-1.32-7A4.51,4.51,0,0,0,32,44.34c-2.54,1,0,6.85-2.47,7.9-.48.2-.58.79.35,2.31a8.2,8.2,0,0,0,4.19,3.85,8.14,8.14,0,0,0,4.16-4.2A1.89,1.89,0,0,0,37.58,51.81Z" transform="translate(0)"/><path class="cls-8" d="M34.09,58.4c-.57,0-5.32-1.28-5.32-1.28l.41,4.41a48.18,48.18,0,0,1,4.9-2.89,48.27,48.27,0,0,1,5,2.75l0-4.5A41.54,41.54,0,0,1,34.09,58.4Z" transform="translate(0)"/><path class="cls-9" d="M37.79,51.73a4.16,4.16,0,0,1-.26,3.67,13.64,13.64,0,0,1-3.44,3l4.72,2S39.85,53.14,37.79,51.73Z" transform="translate(0)"/><path class="cls-9" d="M30.75,55.76c-1.55-2.23-1.08-3.71-1.08-3.71-2.3,1.57-.27,8.34-.27,8.34l4.69-2A9.38,9.38,0,0,1,30.75,55.76Z" transform="translate(0)"/><path class="cls-6" d="M37.93,51.61a.42.42,0,0,0-.44.4.43.43,0,0,0,.42.43.42.42,0,0,0,.43-.4A.41.41,0,0,0,37.93,51.61Z" transform="translate(0)"/><path class="cls-6" d="M29.59,51.84a.41.41,0,0,0-.43.4.42.42,0,0,0,.41.43.42.42,0,0,0,.43-.41A.41.41,0,0,0,29.59,51.84Z" transform="translate(0)"/><path class="cls-6" d="M30.47,52.61a.51.51,0,0,0,.05,1,.51.51,0,0,0,.48-.53A.52.52,0,0,0,30.47,52.61Z" transform="translate(0)"/><path class="cls-6" d="M31.64,53.37a.5.5,0,1,0,.06,1,.5.5,0,0,0,.47-.53A.51.51,0,0,0,31.64,53.37Z" transform="translate(0)"/><path class="cls-6" d="M33.14,53.86a.5.5,0,0,0-.47.53.5.5,0,1,0,.47-.53Z" transform="translate(0)"/><path class="cls-6" d="M34.64,53.9a.5.5,0,0,0-.47.54.49.49,0,0,0,.52.47.51.51,0,0,0,.48-.53A.52.52,0,0,0,34.64,53.9Z" transform="translate(0)"/><path class="cls-6" d="M37.31,52.4a.5.5,0,0,0-.47.53.5.5,0,0,0,.53.48.52.52,0,0,0,.47-.53A.51.51,0,0,0,37.31,52.4Z" transform="translate(0)"/><path class="cls-6" d="M36.13,53.31a.51.51,0,0,0-.47.54.5.5,0,0,0,.53.47.5.5,0,0,0,.47-.53A.51.51,0,0,0,36.13,53.31Z" transform="translate(0)"/><path class="cls-10" d="M35.41,60.63c-.25,0-.27,2.83.08,2.9a40.21,40.21,0,0,0,4.41,0,5.72,5.72,0,0,0,0-2.79A34.38,34.38,0,0,0,35.41,60.63Z" transform="translate(0)"/><path class="cls-9" d="M39.58,61.11c-.21-.07-3.9,0-3.9,0-.22,0-.24,1.09.07,1.12s3.64,0,3.82,0S39.8,61.19,39.58,61.11Z" transform="translate(0)"/><path class="cls-11" d="M19.18,31.35c-1.8-.18-3.3,1.16-2.77,5.35a3.93,3.93,0,0,0,4.44,3.68S21,31.53,19.18,31.35Z" transform="translate(0)"/><path class="cls-12" d="M35.38,9.45C5.32,11.83,2.72,51.68,26,46c4.26-1.06,1.76-5.3,8.47-5.79,4.23-.31,5.69,5,7.39,5.44C61,51,58.57,14.61,35.38,9.45Z" transform="translate(0)"/><path class="cls-6" d="M44.27,39a2.87,2.87,0,0,0-2.39,3.3,3,3,0,0,0,3,2.87,2.89,2.89,0,0,0,2.4-3.31A3,3,0,0,0,44.27,39Zm.5,5.09A2.15,2.15,0,0,1,42.6,42a2.1,2.1,0,0,1,1.74-2.4,2.15,2.15,0,0,1,2.17,2.08A2.09,2.09,0,0,1,44.77,44.09Z" transform="translate(0)"/><path class="cls-13" d="M32.85,17.2c-10.19.32-13.53,7-13.27,17.07s7.47,16.66,15,17.11c5.77.34,13.06-8.65,12.47-18.68S42.64,16.9,32.85,17.2Z" transform="translate(0)"/><path class="cls-14" d="M42.33,17.25c-2.08-1.3-4.69-1.2-7-.73A21.89,21.89,0,0,0,31,17.89c-4.18,1.81-8.32,4.77-10.62,8.78-.5.87-2.08,3.63-1.14,4.6.61.62.31,1.94.91,1.37C24,29,30.66,30.07,35.34,25.71a28.44,28.44,0,0,0,4-5.32c-.36,1.8,6.31,6.26,7.31,9.13.81,2.33.74-2,.81-3.24C47.69,22.45,45.45,19.2,42.33,17.25Z" transform="translate(0)"/><path class="cls-15" d="M25.85,31.19c-2.09-.79-3.17,3.07-1.7,4.22a2.79,2.79,0,0,1,2,.05C27.51,34.63,27.41,31.78,25.85,31.19Z" transform="translate(0)"/><path class="cls-16" d="M25.57,26.51a3,3,0,0,0-2.36,2.08c2.58-2.14,4.26-.88,5.2-.51A2.77,2.77,0,0,0,25.57,26.51Z" transform="translate(0)"/><path class="cls-17" d="M26.27,32.92c-.87.13-.55,1.91.36,1.46C27.28,34.06,27,32.8,26.27,32.92Z" transform="translate(0)"/><path class="cls-12" d="M44.39,17.7c-2.14-2.49-5.24-3.78-8.26-4.86a12.93,12.93,0,0,0-6.94-.62c-5.93,1.16-9.59,6.85-10.55,12.48-.3,1.77-1.93,8,.4,10.91.53-3.18,1.4-4.95,8.52-7a20.79,20.79,0,0,0,12.06-9.31c.21,4.38,7.29,6.08,7.35,12.47,0-1.6,1.12-4.36.86-6A16.64,16.64,0,0,0,44.39,17.7Z" transform="translate(0)"/><path class="cls-18" d="M45.48,37.4a2.6,2.6,0,0,0-2.18-1c-1-.07-2.31.22-1.6,1.72.38.8,4.19,1.61,3.94-.2A1.66,1.66,0,0,0,45.48,37.4Z" transform="translate(0)"/><path class="cls-18" d="M26.81,37.27a2.7,2.7,0,0,0-2.57-.69c-1.09.15-2.5.79-1.47,2.36.55.85,4.89.9,4.3-1.14A1.75,1.75,0,0,0,26.81,37.27Z" transform="translate(0)"/><path class="cls-19" d="M34.69,40.58c-2.85.06-7,.87-9.27-.45,3.66,6.28,5.95,7.45,8.86,7.68,3.66.28,4.95-2.26,5.53-4.17a11.15,11.15,0,0,1,2.85-3.32C40.37,40.84,38.13,40.52,34.69,40.58Z" transform="translate(0)"/><path class="cls-20" d="M27.13,41.24s2.19,4.22,6.74,4.37c2.92.11,4.86-.85,5.42-2.26a3.89,3.89,0,0,1,1.86-2.09A28.71,28.71,0,0,1,27.13,41.24Z" transform="translate(0)"/><path class="cls-6" d="M28.82,41.63a2.29,2.29,0,0,0,1.73,1.79,14.81,14.81,0,0,0,6.62.38c1.56-.22,2.36-2.2,2.36-2.2A30.69,30.69,0,0,1,28.82,41.63Z" transform="translate(0)"/><path class="cls-6" d="M35.06,43.94c-2.09.05-3.82-.12-4.85-.82-.74-.51-.81,0-.66.35,0,0,.65,1.75,4.1,2.2s5.07-1.62,4.7-2S37,43.89,35.06,43.94Z" transform="translate(0)"/><path class="cls-21" d="M28.82,41.63a2,2,0,0,0,.4.9s7.8-.57,9.65.17a4.35,4.35,0,0,0,.66-1.1A35.24,35.24,0,0,1,28.82,41.63Z" transform="translate(0)"/><path class="cls-21" d="M30.83,43.38c2.76,1.77,6.13.36,6.13.36A10.72,10.72,0,0,1,30.83,43.38Z" transform="translate(0)"/><path class="cls-22" d="M35.22,36.81c-.66,0-.91-.3-1.37-.06s.52,1.16,1.33,1.12,1.68-.78,1.44-1.06S36,36.82,35.22,36.81Z" transform="translate(0)"/><path class="cls-15" d="M44.31,31.23c-2.11-1.34-4,3.58-1.62,4.29a2.54,2.54,0,0,1,1.85-.3C45.35,34.17,45.43,32,44.31,31.23Z" transform="translate(0)"/><path class="cls-17" d="M44.2,32.69c-.83,0-.71,1.86.19,1.52C45,34,44.94,32.67,44.2,32.69Z" transform="translate(0)"/><path class="cls-23" d="M44.37,31.12c-1.93-.74-2.57,1.55-2.57,1.55a1.79,1.79,0,0,1,2.25-.42,4,4,0,0,0,4.9-.36C46.59,32.68,45.4,31.52,44.37,31.12Z" transform="translate(0)"/><path class="cls-23" d="M24.45,31.29a6.24,6.24,0,0,1-4.94.88,4.4,4.4,0,0,0,5.14.19,2,2,0,0,1,2.33.18S26.46,30.27,24.45,31.29Z" transform="translate(0)"/><path class="cls-24" d="M43.59,13.48c-8.62,7.9-21.8,1.13-21.8,1.13C17.66,17,14.05,22.5,14,22.51c.17-.26,3.17.81,3.45.93,1.53.62,3,1.45,4.52,2a20.11,20.11,0,0,0,5.65,1.18c3.71.1,8.93-3.4,12.32-8.31a5.9,5.9,0,0,0,1.49,3.78c4.08,4.6,9.55,0,9.55,0A20,20,0,0,0,43.59,13.48Z" transform="translate(0)"/><path class="cls-24" d="M44,26.45A2.78,2.78,0,0,0,41.16,28c.94-.35,2.66-1.56,5.18.65A3,3,0,0,0,44,26.45Z" transform="translate(0)"/><path class="cls-13" d="M18,31.33c-2.71,1.21-1.62,6.8.6,7.82a3.76,3.76,0,0,0,2.19.23l0-.1c.32-.75-.26-4.49-.43-5.25C20,32.09,19.27,30.75,18,31.33Z" transform="translate(0)"/><path class="cls-22" d="M18.84,33.2c-.55-.3-1.72.6-.93,2.12.13-1.55.8-.66.85.42,0,.73-.43.82.15,1.66.31.45.8.19,1-.13C20.64,36.29,19.51,33.56,18.84,33.2Z" transform="translate(0)"/><path class="cls-6" d="M19.85,39.55a2.87,2.87,0,0,0-2.63,3.12A3,3,0,0,0,20,45.74a2.87,2.87,0,0,0,2.63-3.12A3,3,0,0,0,19.85,39.55ZM20,44.66a2.14,2.14,0,0,1-2-2.23,2.08,2.08,0,0,1,1.91-2.26,2.15,2.15,0,0,1,2,2.23A2.09,2.09,0,0,1,20,44.66Z" transform="translate(0)"/></g></g></g></g></svg>