<svg xmlns="http://www.w3.org/2000/svg" xmlns:xlink="http://www.w3.org/1999/xlink" viewBox="0 0 66 66"><defs><style>.cls-1{fill:none;}.cls-2{clip-path:url(#clip-path);}.cls-3{fill:#b6d2a5;}.cls-4{fill:#c47a35;}.cls-5{fill:#912907;}.cls-6{fill:#801a00;}.cls-7{fill:#9eb02c;}.cls-8{fill:#4670bd;}.cls-9{fill:#31589e;}.cls-10{fill:#78a1e8;}.cls-11{fill:#f2e6b3;}.cls-12{fill:#f29661;}.cls-13{fill:#afc236;}.cls-14{fill:#fab077;}.cls-15{fill:#591702;}.cls-16{fill:#f59a62;}.cls-17{fill:#283b21;}.cls-18{fill:#c90b00;}.cls-18,.cls-22,.cls-30{opacity:0.3;}.cls-19{fill:#8f2f2b;}.cls-20{fill:#fff2de;}.cls-21{fill:#e8d3b5;}.cls-22{fill:#bf3c1b;}.cls-23{fill:#82a375;}.cls-24{fill:#a61900;opacity:0.2;}.cls-25{fill:#ffbe8a;}.cls-26{fill:#1f1a17;}.cls-27{fill:#f7985c;}.cls-28{fill:#e6864a;}.cls-29{fill:#9c3106;}.cls-30{fill:#5e0900;}.cls-31{fill:#e0a859;}.cls-32{fill:#f2ca83;}</style><clipPath id="clip-path" transform="translate(0.01 0)"><circle class="cls-1" cx="33" cy="33" r="33"/></clipPath></defs><g id="Layer_2" data-name="Layer 2"><g id="avatars"><g class="cls-2"><rect class="cls-3" width="66" height="66"/><path class="cls-4" d="M47.28,15.23A46.3,46.3,0,0,0,23,15.16c-3.67,1.08-9.49,4.52-14.36,8.8-1.07.81-.34,1.8,1.38,3,5.08,3.47,17.28,4,22.35,4,6.61,0,18.2-1.93,22.7-4.23,2.12-1.08,3.31-2.21,2.8-3.28C54.67,21.38,48.54,15.61,47.28,15.23Z" transform="translate(0.01 0)"/><path class="cls-5" d="M52.66,33.82c2.44-.09.08,3.8-1.29.87-1.3-2.78,3.91-3.83,3.16-6.89-.49-2-1.92-4.19-2.57-6.19-1.6-4.9-4.48-7.32-8.91-10.12C36.34,7.25,19.44,8.11,15.47,20a45,45,0,0,1-2.75,5.57c-.81,1.47-2.47,2.94-2.33,4.79C10.54,32.57,12.11,33.7,12,36c-.08,1.88-2.13,2.9-1.2,4.73s4.78,1.22,2.82,4.38c-1.79,2.89-5.3-.53-3.1-1-2.43-1.17-3.44,2-3.08,3.84.49,2.61,4.15,2.67,6.12,2.14-5.12,9.38,12.34,6.69,16.35,8.35,3.77,1.57,5.74,3.67,9.66,1.83,2-.94,7.72-3.18,6.69-6.42,1.16,3.66,6.11,3.08,5.85-.47-1.7.57-1.93-1-.66-3.53a4.32,4.32,0,0,0,.26-3.31c-.41-1.31-.79-1.4.38-2.4,1.54-1.3,2-3-.27-4.25a2.84,2.84,0,0,0,2.6,0C57.61,38.43,56.26,31.62,52.66,33.82Z" transform="translate(0.01 0)"/><path class="cls-6" d="M49.49,33.91c-1-2.76-5.2-2.56-7.51-2.54a47.4,47.4,0,0,0-9.81.75,10.22,10.22,0,0,0-3.92,1.58c-.87.6-2.12,1.88-3.29,1.76-.57-.06-.31-.38-.75-.57a14.07,14.07,0,0,0-2.52-1.25,4.79,4.79,0,0,0-4.86,3.13c-.46,1.9.56,3.7,1.29,5.33A8.19,8.19,0,0,1,16,51.7c-1.4,1.3-1.83,2.37.18,3.67,3.25,2.1,9.46,1.46,13.14,1.45s10,.51,13.76-.29c2.4-.51,3.23-1.23,2.86-4.7.7.87,1.64,2.3,2.93,2.29-1.22-2.28,0-4.9.33-7.26.35-2.56-.11-5.13,0-7.72C49.23,37.52,50,35.49,49.49,33.91Z" transform="translate(0.01 0)"/><path class="cls-7" d="M28,57.28,27.5,53.1c-4.24,1.17-5.18,4.73-5.89,7.92-.32,1.45-.69,3-1.3,5h5.3C26.32,62.84,27.35,57.63,28,57.28Z" transform="translate(0.01 0)"/><path class="cls-7" d="M40.83,53.1l-.54,4.18C41,57.63,42,62.84,42.72,66H48c-.62-2-1-3.53-1.3-5C46,57.83,45.07,54.27,40.83,53.1Z" transform="translate(0.01 0)"/><path class="cls-7" d="M43.78,62.92c.21-1.25-.45-2.38-.51-3.51-.14-2.45.39-5.07-1-5.74s-2.53-1-2.85-1.23c-2-1.41-6.2-1.43-11.12.4l-2.43.92c-2.15.86-.23,3.1-.71,5.2-.14.62-.43,1.44-.53,2.08a5.17,5.17,0,0,0,1.73,5H42A4.8,4.8,0,0,0,43.78,62.92Z" transform="translate(0.01 0)"/><path class="cls-8" d="M43.93,62.77c-2.5,0-2-9.37-2-9.37l-2.27-.94a25.05,25.05,0,0,1,0,8,29.26,29.26,0,0,1-10.77-.12,31.63,31.63,0,0,1,.58-8L27,53.17c.58,10.69-2.49,9.46-2.49,9.46A22.56,22.56,0,0,0,25.47,66H42.81A29.12,29.12,0,0,0,43.93,62.77Z" transform="translate(0.01 0)"/><path class="cls-9" d="M29.26,63.44a25.43,25.43,0,0,0,9.53-.28S31.39,63.56,29.26,63.44Z" transform="translate(0.01 0)"/><path class="cls-10" d="M29.12,63.38s-.16,1.27-.19,1.36c.6.07,1.17.21,1.78.28a29.24,29.24,0,0,0,5.45.11,5.16,5.16,0,0,0,2.38-.59c.32-.26.18-1.4.43-1.47A27,27,0,0,1,29.12,63.38Z" transform="translate(0.01 0)"/><path class="cls-11" d="M27.29,60.94a.85.85,0,1,0,.72.84A.79.79,0,0,0,27.29,60.94Z" transform="translate(0.01 0)"/><path class="cls-11" d="M41,61.15a.85.85,0,1,0,.72.84A.79.79,0,0,0,41,61.15Z" transform="translate(0.01 0)"/><polygon class="cls-9" points="28.6 62.77 26.95 63.98 25.8 62.44 25.77 62.55 26.9 64.52 28.87 63.05 28.86 60.42 28.6 62.77"/><polygon class="cls-9" points="39.7 63.22 39.61 60.52 39.43 63.42 41.34 64.81 42.86 62.47 41.25 64.2 39.7 63.22"/><path class="cls-12" d="M34.19,46.54a3.21,3.21,0,0,0-3.86,1.7,11.89,11.89,0,0,0-.4,3.59c-.14,4.8,6.29,5.78,8,1.73A5.12,5.12,0,0,0,34.19,46.54Z" transform="translate(0.01 0)"/><path class="cls-13" d="M37.66,53C37,55,34.91,56,32.53,55.23c-1.21-.37-1.89-2-2-3.13-.06-.79-.34-2.19-.84-.47a4.06,4.06,0,0,0,1.38,4.2c2.55,1.91,6.82.79,7.38-1.9a6.27,6.27,0,0,0-.12-2.85C37.85,50.46,37.78,52.64,37.66,53Z" transform="translate(0.01 0)"/><path class="cls-14" d="M32.52,17.14c-8,1-14.36,7.47-13.31,18.57s8.55,17.8,16.62,17.74C42,53.4,49.51,43.26,49.09,31.8,48.69,20.8,40.53,16.11,32.52,17.14Z" transform="translate(0.01 0)"/><path class="cls-15" d="M46,27.17c-1.24-.2-3.78.31-3.33,2.16.14.57.44.62.85.34s.42-.85.72-1.13c1.47-1.38,3.92,0,4.65,1.45A3.54,3.54,0,0,0,46,27.17Z" transform="translate(0.01 0)"/><path class="cls-15" d="M25.35,28.14a3.51,3.51,0,0,0-2.7,3.22c.53-1.56,3-3.28,5-2.13.39.24.65.85,1,1s.85.13.9-.46C29.7,27.88,26.71,27.75,25.35,28.14Z" transform="translate(0.01 0)"/><path class="cls-16" d="M47.53,37A3,3,0,0,0,45,35.74c-1.15-.08-2.73.27-1.9,2,.44,1,4.95,1.9,4.65-.25A1.52,1.52,0,0,0,47.53,37Z" transform="translate(0.01 0)"/><path class="cls-16" d="M27.63,36.74a3.42,3.42,0,0,0-3,.09c-1.13.47-2.46,1.52-.8,2.75.88.66,5.63-.58,4.3-2.39A1.78,1.78,0,0,0,27.63,36.74Z" transform="translate(0.01 0)"/><path class="cls-17" d="M27.25,31.32c-2.08-.77-3.27,3-1.55,4.29a1.83,1.83,0,0,1,1.85-.22C28.88,34.62,28.8,31.89,27.25,31.32Z" transform="translate(0.01 0)"/><path class="cls-18" d="M36.18,41.56a28,28,0,0,1-4.49,0,10.15,10.15,0,0,1-4.07-1.4,16.66,16.66,0,0,0,1.28,3.06,12,12,0,0,0,1.64,2.24,7.94,7.94,0,0,0,5.9,2.75c4.21,0,4.77-2.67,4.91-4.66.08-1.21,1.31-2,1.88-3.13a2.59,2.59,0,0,0,.29-.82A9,9,0,0,1,40.36,41,36.75,36.75,0,0,1,36.18,41.56Z" transform="translate(0.01 0)"/><path class="cls-19" d="M29.05,41.68s1.89,4.87,6.88,4.59c4.49-.25,5-1.94,5.18-3.12a3.11,3.11,0,0,1,1.45-2.22A19.46,19.46,0,0,1,29.05,41.68Z" transform="translate(0.01 0)"/><path class="cls-20" d="M30.7,42.15a2.53,2.53,0,0,0,1.63,2.15,10.24,10.24,0,0,0,6.44.11c1.51-.44,2.35-2.87,2.35-2.87A22.71,22.71,0,0,1,30.7,42.15Z" transform="translate(0.01 0)"/><path class="cls-20" d="M37,44.47A14.58,14.58,0,0,1,32,44c-.84-.3-.84.15-.67.55,0,0,.29,1.64,4.19,1.83C39,46.5,40.4,44.38,40,44S39.14,44.38,37,44.47Z" transform="translate(0.01 0)"/><path class="cls-21" d="M30.69,42.12a2.72,2.72,0,0,0,.41,1.25s7.61-1.14,9.42-.55a7.21,7.21,0,0,0,.6-1.28A25.11,25.11,0,0,1,30.69,42.12Z" transform="translate(0.01 0)"/><path class="cls-21" d="M32.47,44a9.94,9.94,0,0,0,7.07-.06A15.1,15.1,0,0,1,32.47,44Z" transform="translate(0.01 0)"/><path class="cls-22" d="M36.62,37.81c-1.11,0-1.6-.32-2.33.07s.47,1.81,2.42,1.68S39.45,38,39,37.65,37.85,37.75,36.62,37.81Z" transform="translate(0.01 0)"/><path class="cls-17" d="M46.62,30.75c-2.14-1.3-3.77,3-1.66,3.9a2.32,2.32,0,0,1,1.92.28C47.87,34.1,47.77,31.45,46.62,30.75Z" transform="translate(0.01 0)"/><path class="cls-23" d="M26.9,32.22c-.87,0-.75,1.74.19,1.43C27.78,33.42,27.68,32.2,26.9,32.22Z" transform="translate(0.01 0)"/><path class="cls-23" d="M45.82,31.71c-.85,0-.84,1.69.1,1.42C46.61,32.94,46.58,31.73,45.82,31.71Z" transform="translate(0.01 0)"/><path class="cls-14" d="M15.72,31.13c-3.83,1.36-2.16,6.91,1,7.81a7.51,7.51,0,0,0,3.13.11l.05-.1c.45-.77-.46-4.48-.71-5.24C18.56,31.8,17.56,30.49,15.72,31.13Z" transform="translate(0.01 0)"/><path class="cls-24" d="M41.94,16.58a40.6,40.6,0,0,0-13.1.66c-2.93.67-6,1.89-7.71,4.52-1.21,1.87-3.25,3.92-3.53,6.24-.26,2.16,1.2,3.81,2.1,5.62,1.14,2.28.1,4,.17,6.32.05,1.5.79,1.78,2.19,1.82-2.27-2.19-.16-4.82.26-7.27.23-1.31-.31-2.48-.3-3.83a7,7,0,0,1,.06-.91,20,20,0,0,1,.82-3.48c-.46,4.09,5.46,1.85,7.13,1.19a3.08,3.08,0,0,1,1.73-.32c-2,2.06.93,5.65,3.38,5.65,4,0,5-1.65,6.64-3.92a5.53,5.53,0,0,1,3.74-2.36c1-.13,3.17.58,3.6-.64.64-1.81-.16-5.27-1.07-6.92C46.94,16.92,44,16.8,41.94,16.58Z" transform="translate(0.01 0)"/><path class="cls-22" d="M18.11,33.21c-1-.49-3.68,0-2.59,1.86.77-1.55,1.84-.41,1.57.72-.17.75-1.15.69-.26,1.75a2,2,0,0,0,2.1.21C20.7,37,19.34,33.8,18.11,33.21Z" transform="translate(0.01 0)"/><path class="cls-5" d="M36.62,11.41a41.51,41.51,0,0,0-4.87-.59,18.08,18.08,0,0,0-8,2.34c-3.68,2-6.05,6.39-7.12,10.33a15.9,15.9,0,0,0-.46,7.25c.45,2.1,3.18,2.89,3.34,5.06.07,1-.79,1.7-.77,2.63a3,3,0,0,0,.93,2.09,5.13,5.13,0,0,0,2.31.7c-1.52-1.67-.06-2.64.08-4.26a12.53,12.53,0,0,0-.56-4.34,6.68,6.68,0,0,1,2-7.82c.24,3,3.3,2.87,5.48,2.44,1-.19,3.84-1.35,4.34.14.32.93-1.17,1.73-1.51.67,0,1.58.05,2.88,1.94,3.28a5.86,5.86,0,0,0,6.67-2.86,5.1,5.1,0,0,1,1.91-2,7.1,7.1,0,0,1,3.21-.57c2.49-.05,3.35-1.86,3.24-4.24C48.5,15.23,42.34,11.92,36.62,11.41Z" transform="translate(0.01 0)"/><path class="cls-25" d="M36.6,38.62c1.61-.09,3.43-.52,2-2.45C36,32.8,31.07,38.93,36.6,38.62Z" transform="translate(0.01 0)"/><path class="cls-26" d="M25.81,31.37a5.32,5.32,0,0,1-4,1.42,3.75,3.75,0,0,0,4.37-.55,1.72,1.72,0,0,1,2-.17A1.46,1.46,0,0,0,25.81,31.37Z" transform="translate(0.01 0)"/><path class="cls-26" d="M46.84,30.86c-1.56-1.15-2.49.7-2.49.7a1.72,1.72,0,0,1,2,.17,3.74,3.74,0,0,0,4.37.56A4.86,4.86,0,0,1,46.84,30.86Z" transform="translate(0.01 0)"/><path class="cls-27" d="M35.79,34.2c-.46.08-.8.4-.76.71s.45.49.91.41.79-.4.75-.71S36.24,34.11,35.79,34.2Z" transform="translate(0.01 0)"/><path class="cls-27" d="M34.52,35.55c-.31.2-.48.53-.37.74s.45.24.77,0,.48-.53.37-.74S34.84,35.36,34.52,35.55Z" transform="translate(0.01 0)"/><path class="cls-27" d="M40.08,35c-.34-.14-.68-.06-.75.17s.13.53.47.67.68.05.76-.18S40.42,35.12,40.08,35Z" transform="translate(0.01 0)"/><path class="cls-27" d="M31.58,34.15c-.35.09-.58.35-.51.59a.64.64,0,0,0,.78.26c.35-.09.58-.35.51-.59S31.94,34.06,31.58,34.15Z" transform="translate(0.01 0)"/><path class="cls-28" d="M27.61,36.31c-.36,0-.66.2-.66.44s.29.45.66.45.65-.2.65-.44S28,36.31,27.61,36.31Z" transform="translate(0.01 0)"/><path class="cls-28" d="M43.42,36.37c-.36,0-.65.19-.65.44s.29.45.65.45.65-.2.66-.45S43.78,36.37,43.42,36.37Z" transform="translate(0.01 0)"/><path class="cls-28" d="M24.67,36.21c-.45.15-.74.52-.64.81s.55.42,1,.27.74-.52.64-.82S25.12,36.06,24.67,36.21Z" transform="translate(0.01 0)"/><path class="cls-28" d="M28.87,35.5c-.37,0-.62.26-.58.5a.67.67,0,0,0,.76.36c.36,0,.62-.27.57-.51S29.23,35.46,28.87,35.5Z" transform="translate(0.01 0)"/><path class="cls-28" d="M47.35,36.22c-.33-.17-.67-.13-.76.1s.1.54.43.72.66.12.75-.11S47.67,36.39,47.35,36.22Z" transform="translate(0.01 0)"/><path class="cls-27" d="M34.26,33.87c-.25.05-.43.23-.4.41s.25.28.5.23.43-.22.41-.4S34.51,33.83,34.26,33.87Z" transform="translate(0.01 0)"/><path class="cls-28" d="M26.08,37.29c-.25.05-.43.23-.41.41s.26.28.51.23.43-.22.4-.4S26.33,37.25,26.08,37.29Z" transform="translate(0.01 0)"/><path class="cls-27" d="M41,34.35c-.24-.09-.48,0-.53.15s.11.38.35.47.48,0,.53-.16S41.24,34.44,41,34.35Z" transform="translate(0.01 0)"/><path class="cls-28" d="M45.76,36.73c-.24-.08-.48,0-.53.15s.11.38.35.47.48,0,.53-.15S46,36.82,45.76,36.73Z" transform="translate(0.01 0)"/><path class="cls-27" d="M39.6,33.54c-.31,0-.57.09-.6.3s.21.44.52.49.57-.09.59-.31S39.9,33.58,39.6,33.54Z" transform="translate(0.01 0)"/><path class="cls-27" d="M32.53,36.62c-.35.11-.59.38-.53.62s.39.35.74.25.58-.38.52-.62S32.88,36.52,32.53,36.62Z" transform="translate(0.01 0)"/><path class="cls-27" d="M37.68,33.61c-.43-.07-.81.11-.85.41s.27.6.7.67.81-.11.85-.41S38.1,33.68,37.68,33.61Z" transform="translate(0.01 0)"/><path class="cls-28" d="M42.46,35.09c-.42-.07-.8.11-.84.41s.27.6.7.67.8-.11.84-.41S42.89,35.16,42.46,35.09Z" transform="translate(0.01 0)"/><path class="cls-27" d="M29.56,36.71c-.43,0-.77.25-.76.56s.39.54.82.53.77-.25.76-.55S30,36.71,29.56,36.71Z" transform="translate(0.01 0)"/><path class="cls-28" d="M44.72,35.18c-.44,0-.78.25-.76.55s.38.54.81.54.78-.25.76-.55S45.15,35.18,44.72,35.18Z" transform="translate(0.01 0)"/><path class="cls-27" d="M38.5,35c-.41-.18-.82-.1-.92.16s.17.62.58.8.83.1.92-.16S38.91,35.19,38.5,35Z" transform="translate(0.01 0)"/><path class="cls-27" d="M31.15,35.46c-.48.08-.84.4-.8.73s.47.54.95.47.84-.4.8-.73S31.64,35.39,31.15,35.46Z" transform="translate(0.01 0)"/><path class="cls-27" d="M33.09,34.83c-.46.17-.76.56-.66.88s.54.44,1,.27.76-.56.67-.88S33.56,34.67,33.09,34.83Z" transform="translate(0.01 0)"/><path class="cls-27" d="M41.19,36.17c-.48-.06-.9.15-.94.48s.32.65.8.72.91-.14,1-.47S41.68,36.24,41.19,36.17Z" transform="translate(0.01 0)"/><path class="cls-29" d="M43.89,22c-3.58-2.11-8.49-1.3-12.33-.51-2.22.46-9.13,2.21-3.57,4.14,1.76.61,3.59-.54,5.33-.14,1.39.32,2.3,2.34.86,3.29,1.24.6,3.18-.16,4.22-.83a16.84,16.84,0,0,1,2.28-1.44c1.27-.54,3.75-1.21,4.43-2.56C45.55,23,44.56,22.35,43.89,22Z" transform="translate(0.01 0)"/><path class="cls-29" d="M22.56,23.73c-.63.1-1.25.19-1.88.31-1.59.29-3.11.54-3.87,2.13A4.26,4.26,0,0,0,20.21,32a5.85,5.85,0,0,1-.5-3.83C20.16,26.57,21.83,25.25,22.56,23.73Z" transform="translate(0.01 0)"/><path class="cls-30" d="M46.51,15.33c-7.5-4.05-14.93-2.39-22.76-.75a14.39,14.39,0,0,0-6,2.41c-2,1.55-2.12,2.47-3,4.65A35.25,35.25,0,0,1,12,26.72C22.89,19,42.21,16.24,48.76,23c.34-2.53,2.74-1.05,3.78,0C50.93,18.07,49.64,17,46.51,15.33Z" transform="translate(0.01 0)"/><path class="cls-31" d="M40.06,4.39c-8.2-1.22-16-.06-18.59,2.33-1.82,1.64-5.17,8.06-5.85,12.22,10.77-6.23,24.77-5.43,34.63-1C48.38,12.8,46.6,5.36,40.06,4.39Z" transform="translate(0.01 0)"/><path class="cls-32" d="M42.91,5.08c-1.67-.87-6.8-1.6-14.23-.88s-8.51,4.1-8.51,4.1a8.16,8.16,0,0,1,7.71-1.25c4.74,1.45,9.52.23,12.64-.49s5.55,1.73,5.55,1.73A10.76,10.76,0,0,0,42.91,5.08Z" transform="translate(0.01 0)"/><path class="cls-32" d="M57.23,22.13a33.47,33.47,0,0,1-7.79-6.5c-10-4.24-23.91-3.06-33.35,1.34a63.93,63.93,0,0,1-7,6c-1.8,1.36-1.8,2.59.94,4-3.58-2.13-.16-3.6,1.82-4.94a19.53,19.53,0,0,1,4.75-2.19,8.53,8.53,0,0,1,.49-.74,4.15,4.15,0,0,1,1.73-1.46c.23.32.06,1-.23,1.6a60.78,60.78,0,0,1,24.14-1.27c-.12-1,0-2,.83-1.59.7.35.78,1.38,1.22,2,1,.2,1.9.42,2.74.66,0-.33.08-.71.35-.83.53-.23,1.61.68,1.86,1.06.07.11.23.36.37.63.91.34,1.72.69,2.45,1-.21-.51-.27-.93.16-.92.66,0,1.9,1.34,2.71,2.3l.09,0c1.57.71,3,1.35,2,2.7C58.82,23.71,58.21,22.73,57.23,22.13Z" transform="translate(0.01 0)"/><path class="cls-32" d="M14,19.68c-.21.06-.36.32-.49.48a14.94,14.94,0,0,0-1.29,2.69,2.6,2.6,0,0,1,.56,0,16.46,16.46,0,0,1,1.74-3.09C14.61,19.68,14.09,19.66,14,19.68Z" transform="translate(0.01 0)"/><path class="cls-32" d="M48.93,17.55c-.06,0-.7,0-.64.09,1,1.28,1.39,3,2.13,4.47a3.82,3.82,0,0,1,.68,0,24.93,24.93,0,0,0-1.58-3.9C49.37,18,49.18,17.65,48.93,17.55Z" transform="translate(0.01 0)"/><path class="cls-32" d="M19.54,17.42c-.28.13-.43.52-.58.77a25.15,25.15,0,0,0-1.36,3.94,5.55,5.55,0,0,1,.82-.07c.61-1.54.91-3.27,1.84-4.67C20.32,17.31,19.6,17.39,19.54,17.42Z" transform="translate(0.01 0)"/></g></g></g></svg>