<svg xmlns="http://www.w3.org/2000/svg" xmlns:xlink="http://www.w3.org/1999/xlink" viewBox="0 0 96 96"><defs><style>.cls-1{fill:none;}.cls-2{clip-path:url(#clip-path);}.cls-3{fill:#fea470;}.cls-4{fill:#e62628;}.cls-5{fill:#d9d9d9;}.cls-6{fill:#8f4721;}.cls-7{fill:#261b18;}.cls-8{fill:#9c552c;}.cls-10,.cls-9{fill:#66241b;}.cls-9{opacity:0.4;}.cls-10,.cls-14{opacity:0.7;}.cls-11{fill:#45362e;}.cls-12{fill:#70442d;}.cls-13{fill:#d17642;}.cls-14{fill:#f0ded1;}.cls-15{opacity:0.8;}.cls-16{fill:#611f16;}.cls-17{fill:#2b221c;}</style><clipPath id="clip-path"><circle class="cls-1" cx="48" cy="48" r="48"/></clipPath></defs><g id="Layer_2" data-name="Layer 2"><g id="Layer_4" data-name="Layer 4"><g class="cls-2"><rect class="cls-3" width="96" height="96"/><path class="cls-4" d="M37.88,78.7A23.69,23.69,0,0,0,24.65,96H35.26C38,87.67,39.69,77.85,37.88,78.7Z"/><path class="cls-4" d="M58.05,78.7c-1.82-.85-.17,9,2.61,17.3H71.28A23.69,23.69,0,0,0,58.05,78.7Z"/><path class="cls-4" d="M47.91,76.86c-11.77.07-13.2,4.53-13,5,.39,1.27-.21,7.41.09,14.1h26c.42-6.78,0-12.86.6-14.18C61.73,81.31,60,76.79,47.91,76.86Z"/><path class="cls-5" d="M39.94,78.22c-2.68,4.65,8,9.83,8,9.83s9.47-4.85,8.45-9C55.21,74,42.34,74.05,39.94,78.22Z"/><path class="cls-6" d="M48,68.8c-2.73,0-6.58,1.92-6.85,7-.13,2.36.16,3.73,1.17,5,1.61,2.1,3.61,3.8,5.68,3.85s4.06-1.75,5.68-3.85c1-1.31,1.29-2.68,1.16-5C54.57,70.72,50.73,68.79,48,68.8Z"/><path class="cls-7" d="M63.3,14.31c-11.65-3.54-31.86-1.61-39,8.1a12,12,0,0,0-2.45,9.46A6.55,6.55,0,0,0,25,36.58c5.68,2.92,31,7.71,37.41,5.79,3.86-1.16,7.76-2,6.48-6.76,4.48,1,7.66-3.76,3-6.34C80.9,28.25,77.05,18.48,63.3,14.31Z"/><path class="cls-8" d="M25.64,56.45C27.2,67.94,36.06,80.54,49.4,79.59c13.62-1,20.39-17.86,18.63-32-1.91-15.36-9.18-28.15-25.1-25C31.56,24.78,23.55,41.12,25.64,56.45Z"/><path class="cls-9" d="M34.3,35.49c-1.6.84-5.85,2.88-8-.53-1-1.61-.26-4,.37-5.88.79-2.25,3.35-3.5,5.44-4.42,3.79-1.67,8.22-1.45,12.29-1.38a51.63,51.63,0,0,1,13.53,2.07c2.9.84,8.36,1.59,9.37,4.87,1.27,4.15-3.17,4.68-6.24,4.69C53.64,34.92,37.79,33.69,34.3,35.49Z"/><path class="cls-8" d="M22.89,61.39a11.17,11.17,0,0,0,4.51.49l.09-.14c.67-1.06-.27-7-.61-8.12-.86-2.82-2.53-4.29-5.21-3.56C16.09,51.6,18.33,59.75,22.89,61.39Z"/><path class="cls-10" d="M25.05,59.37c2-1.28.11-5.6-1.42-6.31-1.25-.57-4.38.47-2.91,2.92.78-2.27,2.16-.78,2,.83-.14,1.09-1.31,1.1-.15,2.49C23.15,60.06,24.41,59.78,25.05,59.37Z"/><path class="cls-7" d="M60.94,17.76A20.33,20.33,0,0,0,52.35,16c-2.29,0-4.55-.48-6.86-.46a47.65,47.65,0,0,0-7.54.72,27.66,27.66,0,0,0-8.6,2.61c-2.26,1.23-3.16,4.12-4.21,6.31a9.58,9.58,0,0,0-.47,3.41,54.62,54.62,0,0,0-.08,5.72c.16,3.36,4.67,3.87,6.57,1.47,1.63-2.06,3.91-2.59,6.52-2.68,4.31-.16,21.2-1,25.17.4,2.17.74,5.06,1.87,5.5-1.59.23-1.89-.52-4.34-1.15-6.14a15.49,15.49,0,0,0-3.49-6.14A10.77,10.77,0,0,0,60.94,17.76Z"/><path class="cls-11" d="M28.73,24.25C26.62,23.3,28.29,20.78,32,19A38.56,38.56,0,0,1,47.12,15c7.33-.35,14.68.34,21.42,3.42,5.78,2.64,2.34,7.49-3,4.93C67.31,29,34.32,26.74,28.73,24.25Z"/><path class="cls-12" d="M30.16,36.68c-1.28,7.16-2.29,10.63-1.36,17.1,0,0-3.29-3.59-5.95-3.9-.37-1-1-12.07.57-14.56C25.9,35.88,27.66,36.65,30.16,36.68Z"/><path class="cls-13" d="M68.35,54.3a3.07,3.07,0,0,1,.38.86c.81,3.15-6.33,2.07-7.17.7-1.58-2.58.81-3.2,2.6-3.16C65.54,52.72,67.46,53,68.35,54.3Z"/><path class="cls-13" d="M38.64,53.54a3.06,3.06,0,0,1,.52.84c1.27,3.16-6.3,3-7.36,1.71-2-2.47.4-3.44,2.27-3.65C35.5,52.28,37.54,52.31,38.64,53.54Z"/><path class="cls-7" d="M37.83,51.6a4.21,4.21,0,0,0-2.92-.26c-2-1.7-.15-6.93,2.79-5.66C39.9,46.62,39.81,50.57,37.83,51.6Z"/><path class="cls-10" d="M55.21,55.51c-.73-.91-1.77.1-3.68.11-1.72,0-2.4-.76-3.61,0s.52,3,3.57,2.9S55.85,56.28,55.21,55.51Z"/><path class="cls-13" d="M51.08,49.15c-3.24-.28-3.48,6.56-2.74,7.15,1.82,1.43,5.61.42,6.71-.74C55.49,55.11,54.17,49.42,51.08,49.15Z"/><path class="cls-7" d="M65.91,46c1.6,1,1.59,4.28.39,5.61a3.89,3.89,0,0,0-3.12,0C60.71,50,62.91,44.22,65.91,46Z"/><path class="cls-14" d="M36.28,47c1.07-.36,1.73,1.27.89,1.89C36,49.69,35.09,47.37,36.28,47Z"/><path class="cls-14" d="M64.37,47c1-.21,1.46,1.42.59,1.9C63.75,49.58,63.18,47.25,64.37,47Z"/><g class="cls-15"><path class="cls-16" d="M65.52,59.28a3.35,3.35,0,0,1-4.29-1.21,2.46,2.46,0,0,0,.55,2.49c-1.69,4.24-6.32,7-11.71,7s-9.46-2.74-11.23-6.33a2.25,2.25,0,0,0,0-2.59,3,3,0,0,1-3.94,1.56,2.94,2.94,0,0,0,2.25,1.68c2.06,4.09,6.73,7.15,12.53,7.34h.5c6.2,0,11.47-3.13,13.41-8A2.33,2.33,0,0,0,65.52,59.28Z"/></g><path class="cls-17" d="M44.7,40.13a1.57,1.57,0,0,1,1.23,2.49c-.57,1-3.32.21-7-.09-4-.33-6.63-.12-6.89-.87s2.16-1.84,5.75-2A26.63,26.63,0,0,1,44.7,40.13Z"/><path class="cls-17" d="M58.26,40.11a1.61,1.61,0,0,0-1.2,2.46c.46,1,2.94.28,6.26.06,3.6-.23,5.9,0,6.16-.71s-1.85-1.88-5-2.17A21.56,21.56,0,0,0,58.26,40.11Z"/></g></g></g></svg>