<svg xmlns="http://www.w3.org/2000/svg" xmlns:xlink="http://www.w3.org/1999/xlink" viewBox="0 0 96 96"><defs><style>.cls-1{fill:none;}.cls-2{clip-path:url(#clip-path);}.cls-3{fill:#ffc36b;}.cls-4{fill:#261b18;}.cls-5{fill:#e62628;}.cls-6{fill:url(#linear-gradient);}.cls-7{fill:#ff3b3b;}.cls-8{fill:#9c552c;}.cls-15,.cls-9{fill:#66241b;}.cls-10,.cls-9{opacity:0.4;}.cls-10{fill:#661004;}.cls-11{fill:#573d2f;}.cls-12{fill:#d17642;}.cls-13{fill:#f0ded1;}.cls-13,.cls-15{opacity:0.7;}.cls-14{fill:#121b21;}.cls-16{fill:#d47b48;}.cls-17{fill:#78231f;}.cls-18{fill:#fff7ea;}.cls-19{fill:#ecdcc4;}</style><clipPath id="clip-path" transform="translate(0)"><circle class="cls-1" cx="48" cy="48" r="48"/></clipPath><linearGradient id="linear-gradient" x1="48.99" y1="75.53" x2="48.02" y2="81.05" gradientUnits="userSpaceOnUse"><stop offset="0" stop-color="#854326"/><stop offset="1" stop-color="#9c552c"/></linearGradient></defs><g id="Layer_2" data-name="Layer 2"><g id="Layer_4" data-name="Layer 4"><g class="cls-2"><rect class="cls-3" width="96" height="96"/><path class="cls-4" d="M19.31,71.88c-7.65,14,14.14,17.47,24.92,8.19,4.61-4,8.32,6.51,13.9,7,7.54.67,11.52-4.74,10-9.58,1.29,4,5.78,4.28,9.17,2.83a8.68,8.68,0,0,0,5.06-8.54A5.5,5.5,0,0,1,76.14,73c-2.78-1.24-3.67-4.05-2-6.49,2.08-3,8-6.76,2.23-9.89a4.25,4.25,0,0,0,3.88.07c4.76-2.18,2.75-12.33-2.63-9,3.65-.14.13,5.67-1.91,1.3-1.29-2.76,1.68-4.1,3-5.94a10.6,10.6,0,0,0,1.89-7.66c-.65-7.49-7.54-12.21-11.5-18-4.32-6.28-10.44-10.3-18.3-7.47A12.64,12.64,0,0,0,46,13.55a14.88,14.88,0,0,0-17.37.81C24,18.25,24,22.67,22,27.59c-1.86,4.5-7.78,9.73-7.4,15,.24,3.27,2.57,5,2.41,8.32-.13,2.81-3.18,4.32-1.78,7.06s7.12,1.82,4.2,6.53c-2.68,4.31-7.91-.79-4.63-1.48-3.62-1.76-5.13,2.92-4.6,5.73C10.91,72.59,16.38,72.68,19.31,71.88Z" transform="translate(0)"/><path class="cls-5" d="M57.82,89.94c1.57-5.88,1.75-9.43-1.88-10.63s-10-1.55-13.9.11c-3.08,1.32-4.07,3.46-2,10A40.52,40.52,0,0,1,41.74,96H56.55A45.15,45.15,0,0,1,57.82,89.94Z" transform="translate(0)"/><path class="cls-6" d="M53.09,73.24c.3-5.19-8.67-5.38-8.66.29,0,2.51.07,4.35-.33,5.23-.48,1.06.23,4.61,4.94,4.61,4.25,0,4.35-3.62,4-4.34C52.37,77.64,53,75.54,53.09,73.24Z" transform="translate(0)"/><path class="cls-7" d="M52.74,86.12c-2.54.89-5.63.52-8.24-.14-1.5-.37-2.34,1.33-1.88,2.78.61,1.92,3.72,2.43,6.43,2.38,5.35-.08,7.36-2.07,6.45-4.44C55.26,86.07,54.11,85.63,52.74,86.12Z" transform="translate(0)"/><path class="cls-5" d="M42.48,84.41l-2.26-3.89c-3.79,2.2-5.13,9-5.34,15.48h4.54C39.81,91.89,39.84,85.94,42.48,84.41Z" transform="translate(0)"/><path class="cls-8" d="M36.89,84.74c4,1,5.66-1,4.92-5.22A8.23,8.23,0,0,0,36.89,84.74Z" transform="translate(0)"/><path class="cls-5" d="M58.08,80.52l-2.26,3.89c2.63,1.53,2.67,7.48,3.06,11.59h4.53C63.21,89.49,61.87,82.72,58.08,80.52Z" transform="translate(0)"/><path class="cls-8" d="M56.49,79.52c-.74,4.21.88,6.18,4.92,5.22A8.23,8.23,0,0,0,56.49,79.52Z" transform="translate(0)"/><path class="cls-8" d="M72.34,44.66c-.59-16.42-12.77-23.41-24.73-21.88S26.18,33.93,27.75,50.5,40.5,77.07,52.55,77C61.8,76.89,73,61.77,72.34,44.66Z" transform="translate(0)"/><path class="cls-8" d="M24.05,55.32a11.1,11.1,0,0,0,4.66.16,1,1,0,0,0,.08-.15c.67-1.14-.69-6.68-1.07-7.81-.95-2.86-2.45-4.82-5.19-3.85C16.81,45.69,19.31,54,24.05,55.32Z" transform="translate(0)"/><path class="cls-9" d="M32,41.61A12.22,12.22,0,0,0,31.94,43c0,2,1.76,5.15,1.43,7.11-.63,3.65-3.29,6.13.09,9.4-3.35,1.84-6.87-.11-7.1-2.33-.56-5.52,2.36-6.38-.42-9-5.66-5.3-1-5.93-.6-9.17.41-3.45,3.46-6.52,5.26-9.31,2.53-3.92,7.14-5.74,11.52-6.73a60.29,60.29,0,0,1,19.55-1c3,.32,7.46.5,9.12,3.53,1.36,2.47,2.55,7.63,1.59,10.33-.64,1.81-3.83.76-5.36.95a8.22,8.22,0,0,0-5.59,3.53c-2.48,3.39-4,5.85-9.91,5.85-3.65,0-8-5.35-5.05-8.43a4.44,4.44,0,0,0-2.57.47c-2.49,1-11.34,4.33-10.65-1.78A29.9,29.9,0,0,0,32,41.61Z" transform="translate(0)"/><path class="cls-10" d="M27.33,53.55c2.63-1.16.61-5.9-1.23-6.79-1.51-.73-5.49.06-3.87,2.78,1.16-2.31,2.76-.61,2.35,1.07-.26,1.13-1.72,1-.39,2.61C24.9,54.08,26.5,53.91,27.33,53.55Z" transform="translate(0)"/><path class="cls-4" d="M62.3,36.75a10.66,10.66,0,0,1,4.78-.85c3.72-.08,5-2.78,4.84-6.33C71.46,19.92,62.26,15,53.74,14.23a65.62,65.62,0,0,0-7.42,0c-4.18.11-8.07.62-11.76,2.59-5.48,2.92-9,9.54-10.62,15.42a23.44,23.44,0,0,0-.68,10.81c.66,3.14,4.73,4.33,5,7.56.11,1.45-1.17,2.54-1.14,3.93a4.54,4.54,0,0,0,1.39,3.12c.73.66,2.41.89,3.44,1-2.27-2.49-.08-3.93.12-6.36a18.76,18.76,0,0,0-.83-6.48,9.92,9.92,0,0,1,3-11.66c.37,4.46,4.93,4.28,8.19,3.64,1.47-.29,5.73-2,6.48.2.47,1.39-1.75,2.59-2.25,1-.05,2.36.07,4.31,2.9,4.91a8.75,8.75,0,0,0,9.94-4.27A7.52,7.52,0,0,1,62.3,36.75Z" transform="translate(0)"/><path class="cls-11" d="M66.84,31.61a17.23,17.23,0,0,1-7.05,5.09,23.11,23.11,0,0,0-3.4,2.14c-1.56,1-4.45,2.13-6.31,1.24,2.15-1.41.79-4.44-1.27-4.91-2.3-.53-4.56.71-6.86.45-1.22-.14-4.32-1.27-4.41-2.77,0-.82.83-1,1.27-1.51.77-.88,1.47-2.64,0-3.26-1.8-.73-5,2.07-6.17,3.1-1.66,1.45-3,3.06-5.3,3.52-3.88.77-4.21-4-2.15-6.24,1.25-1.38,2.52-2.16,2.92-4.08,1.21-5.67,1.32-10.36,8.68-10.73a11.36,11.36,0,0,1,11.41,7.81c-1.17-3.66-1.73-6.86,2.64-8,4.91-1.32,12,1.06,15,5.23C69.48,23.84,69.41,28.2,66.84,31.61Z" transform="translate(0)"/><path class="cls-12" d="M68.69,53.62a2.35,2.35,0,0,1,.21.79c.27,2.94-5.54,1.89-6.06.61-1-2.4,1.09-3,2.57-2.92C66.56,52.13,68.12,52.4,68.69,53.62Z" transform="translate(0)"/><path class="cls-12" d="M41.14,53.39a2.52,2.52,0,0,1,.38.79c.87,3-5.54,2.93-6.35,1.69-1.53-2.33.56-3.28,2.16-3.49C38.56,52.21,40.28,52.22,41.14,53.39Z" transform="translate(0)"/><path class="cls-4" d="M32.14,42.54c2.77-3,10.4-3.31,12.64.27C40.46,43,38.36,42.66,32.14,42.54Z" transform="translate(0)"/><path class="cls-4" d="M72.09,42.4c-2.63-3-9.85-3.33-12,.24C64.22,42.82,66.2,42.51,72.09,42.4Z" transform="translate(0)"/><path class="cls-4" d="M40,51.6a4.17,4.17,0,0,0-3-.08c-2.16-1.69-.58-7.4,2.52-6.24C41.83,46.15,42,50.37,40,51.6Z" transform="translate(0)"/><path class="cls-13" d="M40,47.17c1.14-.17,1.5,1.68.54,2.16C39.2,50,38.72,47.36,40,47.17Z" transform="translate(0)"/><path class="cls-4" d="M66.79,45.34c1.67,1.06,1.54,4.35.35,5.9a3.67,3.67,0,0,0-2.73.44C61,50.63,63.68,43.36,66.79,45.34Z" transform="translate(0)"/><path class="cls-13" d="M66.61,46.89c1.09,0,1.23,1.9.28,2.26C65.56,49.64,65.38,46.92,66.61,46.89Z" transform="translate(0)"/><path class="cls-14" d="M73.66,46.32s-2.84,3-7.24.53a2.66,2.66,0,0,0-3.33.62s.94-3.38,3.79-2.29C68.41,45.78,70.17,47.49,73.66,46.32Z" transform="translate(0)"/><path class="cls-14" d="M30.15,46.73a6.48,6.48,0,0,0,7.59.28,3,3,0,0,1,3.46.26s-.78-3.35-3.76-1.83C36.3,46,33.66,47.75,30.15,46.73Z" transform="translate(0)"/><path class="cls-15" d="M55.46,54.34c-.55-.63-1.73,0-2.83,0s-1.85-.56-2.78-.12.11,2,2.73,2S55.94,54.87,55.46,54.34Z" transform="translate(0)"/><path class="cls-12" d="M52.67,49.79c-1.86-.21-3.36,3.11-2.58,4.24.54.79,4.64.89,5.29,0C55.62,53.71,54.44,50,52.67,49.79Z" transform="translate(0)"/><path class="cls-16" d="M65.12,59c-7.4-1.22-19,.45-25.73.64-.55,0-1,.17-.74.75,1,2.45,5,11.47,14.24,11.39,7.73-.06,8.45-5.37,8.85-8.16.19-1.38,2.3-3,3.93-4.06C66.2,59.19,65.79,59.07,65.12,59Z" transform="translate(0)"/><path class="cls-17" d="M39.69,60.5a12.3,12.3,0,0,0,12,7.1c8.14-.33,9.2-2.91,9.63-4.71a5.28,5.28,0,0,1,2.81-3.38C50.19,62.8,39.69,60.5,39.69,60.5Z" transform="translate(0)"/><path class="cls-18" d="M42.63,61.24a3.67,3.67,0,0,0,2.75,3.31A21.77,21.77,0,0,0,57,64.79c2.78-.65,4.5-4.37,4.5-4.37A97.75,97.75,0,0,1,42.63,61.24Z" transform="translate(0)"/><path class="cls-18" d="M53.83,64.85a30.37,30.37,0,0,1-9-.84c-1.48-.47-1.53.22-1.27.83,0,0,.4,2.5,7.43,2.84,6.15.3,8.95-2.92,8.28-3.56S57.7,64.75,53.83,64.85Z" transform="translate(0)"/><path class="cls-19" d="M42.62,61.2a3.09,3.09,0,0,0,.25,1.06s14.67-1.38,17.88-.47a5.74,5.74,0,0,0,.77-1.37A112.64,112.64,0,0,1,42.62,61.2Z" transform="translate(0)"/><path class="cls-19" d="M45.67,64c6,2.31,12.79,0,12.79,0A32.15,32.15,0,0,1,45.67,64Z" transform="translate(0)"/></g></g></g></svg>