<svg xmlns="http://www.w3.org/2000/svg" xmlns:xlink="http://www.w3.org/1999/xlink" viewBox="0 0 96 96"><defs><style>.cls-1{fill:none;}.cls-2{clip-path:url(#clip-path);}.cls-3{fill:#fff;}.cls-4{fill:#9c552c;}.cls-5{fill:url(#linear-gradient);}.cls-6{fill:#ff9819;}.cls-7{fill:#854326;}.cls-8{fill:#261b18;}.cls-9{fill:#573d2f;}.cls-10,.cls-11{fill:#661004;}.cls-10{opacity:0.3;}.cls-11{opacity:0.4;}.cls-12{fill:#bf6c3c;}.cls-13{fill:#f0ded1;opacity:0.7;}.cls-14{fill:#d47b48;}.cls-15{fill:#78231f;}.cls-16{fill:#fff7ea;}.cls-17{fill:#ecdcc4;}.cls-18{fill:#161110;}</style><clipPath id="clip-path"><circle class="cls-1" cx="48" cy="48" r="48"/></clipPath><linearGradient id="linear-gradient" x1="47.38" y1="74.63" x2="47.38" y2="81.05" gradientUnits="userSpaceOnUse"><stop offset="0" stop-color="#854326"/><stop offset="1" stop-color="#9c552c"/></linearGradient></defs><g id="Layer_2" data-name="Layer 2"><g id="Layer_4" data-name="Layer 4"><g class="cls-2"><rect class="cls-3" width="96" height="96"/><path class="cls-4" d="M39.74,84.79c1.74-1.46-.28-6.69-2.63-5.43-4.32,2.33-5.95,9.92-7.47,16.64h5.19C36,91.38,37.37,86.79,39.74,84.79Z"/><path class="cls-4" d="M58.72,79.36c-2.35-1.26-4.38,4-2.64,5.43,2.38,2,3.77,6.59,4.92,11.21h5.19C64.67,89.28,63,81.69,58.72,79.36Z"/><path class="cls-5" d="M56,77.88c-1-.74-2.36-.86-3.2-1.23-1.64-.72-1.8-2.1-2.22-3.22-.84-2.24-5-2.67-5.41-.19-.67,4.34-4.33,3.82-6.66,5.17-4.7,2.73-1.89,5.17,1.66,8.71,3.92,3.93,10.81,4.5,16.19-.37C60.28,83.23,58.6,79.78,56,77.88Z"/><path class="cls-6" d="M54.91,88.62c4.3,0,9.1-5.55,9.1-5.55s-4.9-4.47-8.15-5.72C55.86,77.35,50.61,88.62,54.91,88.62Z"/><path class="cls-4" d="M38.52,87.82A73.72,73.72,0,0,0,40.43,96H55.66c.27-2.28.43-5.25.85-8C56.84,85.94,38.16,84.64,38.52,87.82Z"/><path class="cls-7" d="M38.8,89.49c.36,5.38,18.11,4.67,17.69-1.21C56.26,85.12,38.56,86,38.8,89.49Z"/><path class="cls-6" d="M36.45,79.79a9,9,0,0,0-4.28,4s4.16,8,16,7.91c8.73-.07,9.68-5.49,9.68-5.49s1-6.14-2-8.82C55.86,77.35,50.78,84.36,36.45,79.79Z"/><path class="cls-8" d="M19.35,18.66a12.13,12.13,0,0,0-1.24,17.09c4.06,4.83,11.72,5.07,17.1.55s6.45-12.12,2.39-17S24.73,14.13,19.35,18.66Z"/><path class="cls-9" d="M20.41,19.54c-2.6,2.19-4.23,6.15-2.43,9,1.49,2.42,2.49-.3,2.87-2,1.32,2.44,2.43-.68,2.44-2.23,1.11,1.09,2.85-1.09,3-2.16,2.19-.5,3.87-2.87,5.84-3.76C29.87,15.18,23.08,17.3,20.41,19.54Z"/><path class="cls-8" d="M61.34,19.34C45.57,8.4,24.51,17.72,21.62,31.83a27.23,27.23,0,0,0,6.64,24.3C31,59.21,33,62.89,35.71,66s5.55-2.16,7.72-3.41a15.41,15.41,0,0,1,9.69-2.08c2.94.43,5,3.49,8,3.54,3.92.08,5-6.47,5.88-9.26.83-2.57,1.45-5.21,2-7.85C71.56,35.07,69.55,25,61.34,19.34Z"/><path class="cls-4" d="M44.06,22.74C33.33,24.87,25.82,40.33,27.84,54.8c1.51,10.84,12.74,21.75,22.52,21.78,10.42,0,19.19-16.93,17.49-30.26C66,31.82,59.08,19.76,44.06,22.74Z"/><path class="cls-10" d="M57.9,25a48.75,48.75,0,0,0-13-2c-3.92,0-8.17-.26-11.82,1.41-2,.91-4.47,2.17-5.21,4.39-.92,2.77-.46,6.25,0,9.07a24.57,24.57,0,0,0,2.93,8.95c.12-1.92,1-3.75,1.39-5.62,1.34-6,5.2-8.21,9.85-9,3.87-.66,8.27-.35,12.23-.47,2.12-.06,14.41,2,11.76-2.94C64.81,26.55,60.07,25.62,57.9,25Z"/><path class="cls-4" d="M24.07,48.79c-5.26,1.46-2.81,9.72,1.5,11.25a4.45,4.45,0,0,0,3.95-.12l.08-.13c.63-1-.27-6.61-.6-7.66C28.18,49.47,26.6,48.08,24.07,48.79Z"/><path class="cls-11" d="M25.93,51.61c-1.19-.54-4.14.45-2.74,2.77.72-2.16,2-.75,1.85.77-.14,1-1.23,1.05-.14,2.36a2,2,0,0,0,2.39.06C29.21,56.35,27.38,52.27,25.93,51.61Z"/><path class="cls-8" d="M52.8,18.33a36.57,36.57,0,0,0-11-.29c-6.07.74-13.4,3.65-15.3,10.1-1.17,4-.53,8.54-.22,12.58.2,2.45-.78,7.18,1.32,9,2.45,2.14,3.4-1.1,3.62-3.43.25-2.61,0-5.47.79-8,1.81-6.19,5.1-7.39,14-8.1,4.62-.37,16-1.29,18.23,2.81.82,1.53,7.51-3,1.44-9.7C63,20.39,56.53,19,52.8,18.33Z"/><path class="cls-9" d="M37.13,17.52a19.18,19.18,0,0,0-7.68,4.33,18,18,0,0,0-3.79,4.79,10.91,10.91,0,0,0-1.32,6.3c.14,1.47,1.41,4.58,3.65,3.73-.08-1.43-.31-3-.53-4.38.47.32,2.6,1.74,3.24,1.36s.25-2.41.34-3c2.58,2.73,3.86-1.39,3.67-3.54,1.09.63,1.85,1.82,3,2.36,1.62.77,3.34-.11,5.16-.45A55.41,55.41,0,0,1,50,28.07c2.47-.13,2.93.17,3.9-2.09a2.31,2.31,0,0,0,1,1.74,2.53,2.53,0,0,0,1.36-2.33c.05,2.54,5.69,4,7.6,3.4,3-.93-.38-5.47-2.22-7.27C55.39,15.38,45.22,15.31,37.13,17.52Z"/><path class="cls-12" d="M66.27,54.06c-.92-1.13-2.7-1.18-3.95-1.06-1.64.16-3.76,1-2.11,3.25.89,1.19,7.49,1.43,6.48-1.44A2.48,2.48,0,0,0,66.27,54.06Z"/><path class="cls-12" d="M40.73,54.6c-1-1-2.79-1-4-.81-1.62.24-4.44,1.78-2.09,3.43,1.69,1.2,7.82.8,6.6-1.91A2.37,2.37,0,0,0,40.73,54.6Z"/><path class="cls-8" d="M39.71,46.94c-3.84-1-6.24,3.27-3.62,4.66a8.52,8.52,0,0,1,3.8.19C42.47,50.94,42.57,47.71,39.71,46.94Z"/><path class="cls-11" d="M51,53.89c-1,.08-1.85-.38-2.71.15s.31,2,2.85,1.75,3.11-1.69,2.6-2.17S52.1,53.8,51,53.89Z"/><path class="cls-12" d="M50.63,49.37c-1.81,0-2.94,3.43-2.08,4.48.6.73,4.57.42,5.12-.53C53.87,53,52.37,49.39,50.63,49.37Z"/><path class="cls-13" d="M39.42,49.2c-1.16.34-.27,2.24.87,1.54C41.11,50.24,40.46,48.9,39.42,49.2Z"/><path class="cls-8" d="M64.16,45.93c-3.94-.51-5.75,4.07-3,5.1A8.44,8.44,0,0,1,65,50.71C67.43,49.53,67.1,46.31,64.16,45.93Z"/><path class="cls-13" d="M64.06,48.28c-1.09.49,0,2.26,1,1.42C65.83,49.09,65,47.85,64.06,48.28Z"/><path class="cls-14" d="M62.51,59.67c-6.65-1.12-17.06.41-23.13.58-.49,0-.89.16-.67.69.94,2.24,4.5,10.49,12.8,10.42,7-.06,7.61-4.91,8-7.47.18-1.26,2.07-2.78,3.53-3.71C63.48,59.88,63.12,59.77,62.51,59.67Z"/><path class="cls-15" d="M39.65,61.08a11,11,0,0,0,10.82,6.49c7.32-.3,8.27-2.66,8.66-4.3a4.8,4.8,0,0,1,2.52-3.1C49.09,63.18,39.65,61.08,39.65,61.08Z"/><path class="cls-16" d="M42.29,61.75a3.37,3.37,0,0,0,2.48,3A19.33,19.33,0,0,0,55.23,65c2.5-.6,4-4,4-4A86.59,86.59,0,0,1,42.29,61.75Z"/><path class="cls-16" d="M52.36,65.06a27.17,27.17,0,0,1-8.06-.77c-1.34-.43-1.38.2-1.14.76,0,0,.35,2.28,6.67,2.6,5.53.27,8.05-2.68,7.45-3.26S55.84,65,52.36,65.06Z"/><path class="cls-17" d="M42.28,61.72a3,3,0,0,0,.23,1s13.19-1.27,16.07-.43A5,5,0,0,0,59.27,61,100.83,100.83,0,0,1,42.28,61.72Z"/><path class="cls-17" d="M45,64.29c5.39,2.12,11.5,0,11.5,0A28.36,28.36,0,0,1,45,64.29Z"/><path class="cls-18" d="M37.76,45.77c-2.07.48-4.68,2.66-8.07.26,0,0,1.17,4,7.88,1.53,2.72-1,4.25,1.89,4.25,1.89S41.8,44.84,37.76,45.77Z"/><path class="cls-18" d="M64,45.21c-3.79-1-4,3.51-4,3.51a3.51,3.51,0,0,1,4.24-1.65c6.07,2.24,7.4-1.5,7.4-1.5C68.27,47.85,65.89,45.7,64,45.21Z"/><path class="cls-8" d="M62.88,40.44c-2.65.21-5.23,1.8-4.92,3.11.34,1.46,2.28-.88,4.86-1.5,3.25-.78,5.27.61,5.17.27C67.71,41.33,65.3,40.24,62.88,40.44Z"/><path class="cls-8" d="M38.54,41.06c-3-.28-6.17.65-6.29,1.63-.07.63,2.52-.85,6.49,0,3.17.69,5.4,2.9,5.83,1.5C45,43,41.79,41.36,38.54,41.06Z"/></g></g></g></svg>