<svg xmlns="http://www.w3.org/2000/svg" xmlns:xlink="http://www.w3.org/1999/xlink" viewBox="0 0 66 66"><defs><style>.cls-1{fill:none;}.cls-2{clip-path:url(#clip-path);}.cls-3{fill:#fff;}.cls-4{fill:#faa665;}.cls-5{fill:#dc5b00;}.cls-24,.cls-6{fill:#f28b50;}.cls-7{fill:#eb7205;}.cls-8{fill:#f58245;}.cls-9{fill:#401e15;}.cls-10{fill:#8f322e;}.cls-11{fill:#fff4e3;}.cls-12{fill:#e8d5b9;}.cls-13{fill:#a89089;}.cls-14{fill:#bf3c1b;opacity:0.2;}.cls-15,.cls-19{fill:#b53f0d;}.cls-16{fill:#bd420e;}.cls-17{fill:#d75810;}.cls-18{fill:#e66a04;}.cls-19,.cls-24{opacity:0.6;}.cls-20{fill:#f7efdc;}.cls-21{fill:#eddbc0;}.cls-22{fill:#ff392b;}.cls-23{fill:#e6d0ae;}</style><clipPath id="clip-path" transform="translate(0 0)"><circle class="cls-1" cx="33" cy="33" r="33"/></clipPath></defs><g id="Layer_2" data-name="Layer 2"><g id="avatars"><g class="cls-2"><rect class="cls-3" width="66" height="66"/><path class="cls-4" d="M44.11,56.3c-3.34-3-15.65-2.9-19.92,0-3.38,2.3-1.53,5.6.08,9.7H44.4C46,63,47.21,59.06,44.11,56.3Z" transform="translate(0 0)"/><path class="cls-5" d="M27.13,10.83c-19.08,5.43-13.66,27.4-8.07,26,3.39-.88,6.74-2,10.09-3s7.15-1.55,10.52-.61c1,.28,1.85.88,2.89,1.08,3.41.66,6.13-.73,6.26-4.25,0-.18,0-.37,0-.55a29.74,29.74,0,0,0-1.71-8.77C44.36,12.61,35.21,8.53,27.13,10.83Z" transform="translate(0 0)"/><path class="cls-4" d="M30.36,14.88c-8.34,1-16,10.45-12.89,20.17,1.62,5,1.62,6.27,3.92,11.26s7.67,8,14.8,7.39c6.48-.59,8.72-3.9,10.21-9.4a33.21,33.21,0,0,0,1.26-12.86C46.44,21.29,38.7,13.88,30.36,14.88Z" transform="translate(0 0)"/><path class="cls-6" d="M24.14,34.08c.07.58,1.39.23,1.79.31-.33.38-1.37.43-1.78.7s-.38.46.16.41a9.39,9.39,0,0,0,2.32-.74C27.57,33.88,24.59,33.93,24.14,34.08Z" transform="translate(0 0)"/><path class="cls-6" d="M45.27,33.2c.35-.07,1.42.28,1.55-.29-.37-.15-2.87-.23-2.17.65a6.84,6.84,0,0,0,1.87.75c.45,0,.52-.13.18-.41S45.51,33.57,45.27,33.2Z" transform="translate(0 0)"/><path class="cls-7" d="M39.8,28.43c.56,1.39,2.32.66,3.36.48.69-.11,2.39.17,3.14-.19a.67.67,0,0,0,.26-.2C48.48,26,38.67,25.62,39.8,28.43Z" transform="translate(0 0)"/><path class="cls-7" d="M23.7,30.16a1,1,0,0,0,.33.16c.9.24,2.68-.32,3.45-.32,1.18,0,3.26.46,3.52-1C31.54,25.92,21,28,23.7,30.16Z" transform="translate(0 0)"/><path class="cls-8" d="M44,34.37c-1.06-.08-2.52.22-1.77,1.87.4.88,4.54,1.8,4.29-.19a1.55,1.55,0,0,0-.17-.54A2.81,2.81,0,0,0,44,34.37Z" transform="translate(0 0)"/><path class="cls-8" d="M27.53,35.89a3.1,3.1,0,0,0-2.8.06c-1.05.42-2.28,1.37-.76,2.52.81.62,5.19-.48,4-2.17A1.8,1.8,0,0,0,27.53,35.89Z" transform="translate(0 0)"/><path class="cls-9" d="M28,31.58c-1.82-.92-3.19,2.33-2,3.49a2.74,2.74,0,0,1,1.84.27C29.17,34.77,29.37,32.26,28,31.58Z" transform="translate(0 0)"/><path class="cls-8" d="M42.3,37.93c-.31.1.27.21,1,.41a.44.44,0,0,1,.29.23c-4.11,1.27-11.22,2.48-16.49.77l.14-.14c.72-.57,1.76-.62,1.47-.8a5,5,0,0,0-2.43.51c-.62.5-.6,2.05-.11,2.11s.41-.79.74-1.4c.37,1.68,2.21,8.76,8.16,8.73,4.47,0,5.82-2.39,6-5.17.09-1.55,1.63-3.49,2.58-4.42.08.47-.19,1.15.16,1.2s1-.94.65-1.75S42.3,37.93,42.3,37.93Z" transform="translate(0 0)"/><path class="cls-10" d="M28.08,40.46S30,47.32,35.32,47c4.78-.31,5.34-2.68,5.54-4.33a4.52,4.52,0,0,1,1.57-3.11A16,16,0,0,1,28.08,40.46Z" transform="translate(0 0)"/><path class="cls-11" d="M29.82,41.14s.06,2.23,1.7,3a8.45,8.45,0,0,0,6.84.21c1.61-.59,2.54-4,2.54-4A18.59,18.59,0,0,1,29.82,41.14Z" transform="translate(0 0)"/><path class="cls-11" d="M36.49,44.46a11.93,11.93,0,0,1-5.29-.78c-.88-.43-.89.2-.72.77,0,0,.29,2.3,4.43,2.6,3.61.28,5.18-2.68,4.77-3.27S38.76,44.36,36.49,44.46Z" transform="translate(0 0)"/><path class="cls-12" d="M29.81,41.1a4.76,4.76,0,0,0,.43,1.76s8.09-1.53,10-.68a11.57,11.57,0,0,0,.66-1.8S35.16,42.56,29.81,41.1Z" transform="translate(0 0)"/><path class="cls-12" d="M31.67,43.69c3.58,2.12,7.52,0,7.52,0A12.32,12.32,0,0,1,31.67,43.69Z" transform="translate(0 0)"/><path class="cls-9" d="M43.13,34a2.52,2.52,0,0,1,1.77-.27c.86-.8,1.09-2.57.1-3.3C43.16,29,41,33.12,43.13,34Z" transform="translate(0 0)"/><path class="cls-13" d="M27.06,32.06c-.77.22-.28,1.73.49,1.23C28.11,32.94,27.75,31.88,27.06,32.06Z" transform="translate(0 0)"/><path class="cls-13" d="M43.92,30.72c-.78.09-.55,1.65.28,1.29C44.79,31.74,44.62,30.65,43.92,30.72Z" transform="translate(0 0)"/><path class="cls-4" d="M15,33.28c-4.09,1.25-2.3,6.38,1.09,7.21a9.15,9.15,0,0,0,3.34.1l.06-.09c.48-.71-.5-4.13-.77-4.84C18,33.9,16.92,32.68,15,33.28Z" transform="translate(0 0)"/><path class="cls-14" d="M41,19.34A37.69,37.69,0,0,0,28.92,20c-2.7.62-5.55,1.74-7.11,4.16S18,28.78,18.55,31.76c.11.64,1,3.81,2.22,2.79.55-.46-.07-2.71.27-4.95a4.36,4.36,0,0,0,2,2.6c.16.11,3.55-5.12,4.42-5.61a4.42,4.42,0,0,0,2.12,4.24,8.19,8.19,0,0,1,2.61-3.33C32.5,27.72,34,31,34.07,31c.59-.68.91-1.58,1.49-2.29a12.26,12.26,0,0,1,5.82-4.16c1.37-.43,3.62-.9,4.25-2.4C46.67,19.65,42.42,19.49,41,19.34Z" transform="translate(0 0)"/><path class="cls-6" d="M17.24,35.12c-1.08-.46-3.93,0-2.77,1.72.83-1.43,2-.38,1.68.66-.19.7-1.23.64-.28,1.62a2.39,2.39,0,0,0,2.25.19C20,38.6,18.56,35.67,17.24,35.12Z" transform="translate(0 0)"/><path class="cls-15" d="M45.16,36.74c-2.19-1.64-5.47-.15-7.76.32-2.53.51-5.16,0-7.71-.08s-6.44,1-6.57,4.09c-.17,4.13,3.27.35,4.1-1,0,.68,1.46.42,2.41-.09-1,1.22,1.75.84,2.27.27-.48,1,1.52.69,2.47,0-.67.84.75,1.49,1.19.09-.29,1,1.37,1,1.41,0,1.34,1,2.27.27,1.61-.55,1.37,1.07,2.53.26,2.17-.36.78.37,2.25.81,2.27-.54.59,1.12,1.46,2.48,2,2.67C46,41.82,48.67,39.36,45.16,36.74Z" transform="translate(0 0)"/><path class="cls-16" d="M47.69,31.67c-.23,1.4,0,5.51-1.17,6.54-.85.78-2.3-.57-3.43,0-.72.36,3,10.85-2,11.15-1.83.11-2-1.79-5.3-1.14-1.68.33-3.39,3-5.63,2-4.29-1.78-4.2-7.89-3.29-10.1.71-1.73-3.32.23-4.73-1.45-.88-1.07-.7-2.84-1.51-3.89-1-1.29-2.24-.57-2.25.94a19.08,19.08,0,0,1,0,4.14c-.86,3.69-.07,5.1.55,3.73-.05.53-.31,3.69.85,2.34-.49.88,0,4.07,1.25,3.11-.13.85.52,3.35,1.41,3.18.19.82,1.66,3.29,2.43,1.77-.12.23,1.05,1.62,1.25,1.85a2.93,2.93,0,0,0,2.07,1.21c.44,0,.59-.42,1-.37s1.06.79,1.52,1,1,.38,1.39-.12a1.82,1.82,0,0,0,3,.2,1.6,1.6,0,0,0,2.71-.23c.94,1.33,2.1-.43,2.52-1.24-.43.82,1.87,1.58,2.45-2.35.12,1,1,.75,1.42.16a3.79,3.79,0,0,0,.52-2c1.4.95,1.69-1.84,1.55-2.62,1.37.3.91-2.63.72-3.27,1.68.73.82-2.5.57-3.08.78,1.82,1.62-.68.42-3.26C49.66,41.17,48.37,33,47.69,31.67Z" transform="translate(0 0)"/><path class="cls-17" d="M22.41,40.45c-.42-.52-1.71-2.23-1.67-2.89,0,.91-1.23.27-1.5-.14A4.49,4.49,0,0,0,19.3,39c0,.05.72,1.14.75.81-.05.6-.86,4.82.73,3.71-.21.72.22,4.5,1.17,2.67,0,.68,0,3.49,1.22,3.23s1.16-6.51.72-7.38C23.57,41.38,22.85,41,22.41,40.45Z" transform="translate(0 0)"/><path class="cls-5" d="M43.74,17.22a20.59,20.59,0,0,0-8-2.66A41.9,41.9,0,0,0,31.14,14a17.61,17.61,0,0,0-7.56,2.15c-3.49,1.8-5.73,5.89-6.75,9.52a14.14,14.14,0,0,0-.42,6.68c.31,1.41,1.62,4.4,3.74,4.76.47.08,1.12-.21.93-1.87-.28-2.42-1.36-5.74.44-8.08a3.64,3.64,0,0,0,1.21,3.49c1-2.06,3-4.49,5.29-5.05a7.09,7.09,0,0,0,1.38,4,4.94,4.94,0,0,1,2.53-3.34,9.92,9.92,0,0,0,2,3.29c1.48-1.73,2.55-3.92,4.45-5.27s4.74-1.18,6.71-2.64C46.92,20.34,45.21,18,43.74,17.22Z" transform="translate(0 0)"/><path class="cls-8" d="M35.48,30.53c-2.3.22-2.81,6-1.53,6.68A5.41,5.41,0,0,0,39,36.75C39.61,36.19,38.22,30.25,35.48,30.53Z" transform="translate(0 0)"/><path class="cls-18" d="M33.84,25.46c-1,1.27-.2,2,.12,3.24-.1-.37,1.48-2.39,1.72-2.82a11.1,11.1,0,0,0,1.23-2.77A13.38,13.38,0,0,0,33.84,25.46Z" transform="translate(0 0)"/><path class="cls-17" d="M38.53,49.4c-2.13-.94-4.17.32-5.82,1.94-1.41,1.39-1.78,4.27.15,5.59.61.42,1.35.51,1.26-1.12.78,1.32,2.69,2.41,2.89.56,1.23,1,2.19.26,2.6-1.11,1.3,1.74,2.68-1.12,2.62-2.31C42.12,51,40.08,50.09,38.53,49.4Z" transform="translate(0 0)"/><path class="cls-17" d="M41.58,36.54c-1.73.21-2.5,1.23-3.93,1.92s-2.83.15-4.08-.48c-4.44-2.22-11.94.8-9.85,6.69.28.77.48,1.66,1.38,1.86,1-2.54-.48-6.38,2.53-7.81-1.21,2.15,2.38,0,2.93-.21C29,41,31.87,39.82,33,39a2,2,0,0,0-.46,1.27c.84.31,1.52-.43,2-1-.32,1.17.91,1.28,1.51.57.37.59.7.47.91-.18.37.31.64.19,1,.33,0-.23.14-.48,0-.76.76.44,2.5.71,1.85-.76.65,1,3.06,1,2.44-.61,1.43.93,1.83,2.78,2,4.36.11,1-.27,5.77,1.71,4.06.85-.74.83-2.6.39-3.53,2,1.37-.32-3.21-.61-3.68C44.82,37.36,43.64,36.3,41.58,36.54Z" transform="translate(0 0)"/><path class="cls-17" d="M28.11,50.54c-.66-.51-1.55-2.87-2.53-2.59s-.5,2.49-.45,3.19c.05.55,1,3.53,1.53,1.72a2.91,2.91,0,0,0,1.1,2.68c.77.43,1.71-.55,1.41-.72.61.34,1.13,1.15,1.77,1.37,2,.66,2-3.69,2-5a11.52,11.52,0,0,1-1.47.49A4.15,4.15,0,0,1,28.11,50.54Z" transform="translate(0 0)"/><path class="cls-17" d="M43.81,51.17Z" transform="translate(0 0)"/><path class="cls-17" d="M44.35,47.8c-.56,0-.58.88-.8,1.26a2.89,2.89,0,0,1-1.79,1.44c-.38.1-1.35-.14-1.63,0-.71.48-.23,1.79.29,2.29,1.61,1.51,3.4.58,3.39-1.62v0h0c.59,1,1.21,0,1.37-.69C45.29,50,45.11,47.88,44.35,47.8Z" transform="translate(0 0)"/><path class="cls-18" d="M29.23,28.58A5.73,5.73,0,0,1,30,27.23c.78-1.37,2.07-2.13,3-3.43C30.51,24.69,27.9,25.56,29.23,28.58Z" transform="translate(0 0)"/><path class="cls-18" d="M22.77,29.44c-.22-.21.87-2,2.57-3.19.95-.68,2.35-1.07,2.89-2.31-1,.54-2.4.33-3.48.74C23.08,25.3,21.07,27.79,22.77,29.44Z" transform="translate(0 0)"/><path class="cls-19" d="M42.62,15.91c-3.45-1-7.28-.7-10.81-.43a34,34,0,0,0-14.93,4.68c-4,2.4-3.08,5.51,1.12,5.13s8.67-1.86,12.34-2.44c4.19-.66,8.2-.91,12.37-1.66C47.23,20.39,46.74,17.06,42.62,15.91Z" transform="translate(0 0)"/><path class="cls-20" d="M43.16,12.41c-7.52-1.4-15.94-1.2-23,2.26-1.25.62-13.2,7.08-8.53,9.06,3.32,1.39,13.39-2.31,17-2.92C35,19.73,41.82,19.7,47.93,18,56.1,15.68,46.89,13.1,43.16,12.41Z" transform="translate(0 0)"/><path class="cls-21" d="M27.59,7.76a7.66,7.66,0,0,1-2.41-.24A7.3,7.3,0,0,0,22,7.27c-2,.48-2.33,2.53-2.77,4.27a38.39,38.39,0,0,1-2.32,6.77c3.61.92,11.87.46,14.36-.07,3.43-.72,8.91-1.62,11.09-4.74C40.6,11.77,39.18,8.74,37.46,7,33.66,3,31.77,7.28,27.59,7.76Z" transform="translate(0 0)"/><path class="cls-22" d="M37.84,12.46c-2.85,1.73-5.93,2.16-9.16,2.48-2.76.28-6.41.7-10.33-.66a10.39,10.39,0,0,1-1.12,3.24c1.15.14,2.31.62,3.5.77,4.35.57,8.67-.12,13-.86,3.07-.52,5.72-2.3,8.3-4.17a5.92,5.92,0,0,1-1.77-2.6A14.61,14.61,0,0,1,37.84,12.46Z" transform="translate(0 0)"/><path class="cls-20" d="M34,5.83a9.75,9.75,0,0,0-2.26,1.43,7.39,7.39,0,0,0,2,.46A38.46,38.46,0,0,1,25,7.87c-1.94-.23-3.65-.44-4.31,1.85-.44,1.55.51,1.41,1.53,1,.62-.24,1.27-.57,1.65-.68A34.69,34.69,0,0,1,34.7,8.71c1.3,0,2.64-.3,1.73-1.81A2.08,2.08,0,0,0,34,5.83Z" transform="translate(0 0)"/><path class="cls-23" d="M46.09,17.91c-3.22.47-10.51.7-17,2-5.38,1-8.75,2.61-12.94,3.28-4,.64-5-.32-5-.32s.08,1.61,4.2,1.1c6.18-.76,10.84-3,16.32-3.56,7.21-.77,13.66-1.61,16.28-2.39s2.67-2.09,2.67-2.09A7.32,7.32,0,0,1,46.09,17.91Z" transform="translate(0 0)"/><path class="cls-4" d="M24.75,61.55c-.05-1.68-.06-5.56-.56-5.25C19.91,59,18,62.73,18.34,66h5.07A4.33,4.33,0,0,1,24.75,61.55Z" transform="translate(0 0)"/><path class="cls-4" d="M44.11,56.3c-.5-.31-.51,3.57-.56,5.25A4.33,4.33,0,0,1,44.89,66H50C50.29,62.73,48.39,59,44.11,56.3Z" transform="translate(0 0)"/><path class="cls-24" d="M25.51,64.46c.53,1,3.25.93,2.34-.59C27.39,63.09,24.58,62.77,25.51,64.46Z" transform="translate(0 0)"/><path class="cls-24" d="M40.19,63.87c-.91,1.52,1.81,1.54,2.34.59C43.46,62.77,40.65,63.09,40.19,63.87Z" transform="translate(0 0)"/></g></g></g></svg>