<svg xmlns="http://www.w3.org/2000/svg" xmlns:xlink="http://www.w3.org/1999/xlink" viewBox="0 0 66 66"><defs><style>.cls-1{fill:none;}.cls-2{clip-path:url(#clip-path);}.cls-3{fill:#b3977f;}.cls-4{fill:#ffcb9e;}.cls-5{fill:#918fa0;}.cls-6{fill:#d9d9d9;}.cls-7{fill:#f7b586;}.cls-8{fill:#322825;}.cls-9{fill:#bf3c1b;opacity:0.2;}.cls-10{fill:#b54d26;}.cls-10,.cls-15{opacity:0.3;}.cls-11{fill:#523e3b;}.cls-12{fill:#162a33;}.cls-13{fill:#ffe1c7;}.cls-14{fill:#95a0b8;}.cls-15{fill:#b55623;}.cls-16{fill:#8f2722;}.cls-17{fill:#fff7eb;}.cls-18{fill:#e8dac5;}</style><clipPath id="clip-path" transform="translate(0)"><circle class="cls-1" cx="33" cy="33" r="33"/></clipPath></defs><g id="Layer_2" data-name="Layer 2"><g id="avatars"><g class="cls-2"><rect class="cls-3" width="66" height="66"/><path class="cls-4" d="M42.17,54.07a1.81,1.81,0,0,0-2.52.48,1.83,1.83,0,0,0,.49,2.53c3.62,2.44,5.58,5.05,5.53,7.34a3.73,3.73,0,0,1-.4,1.58H49.1a7.53,7.53,0,0,0,.21-1.5C49.36,62,48.16,58.11,42.17,54.07Z" transform="translate(0)"/><path class="cls-5" d="M40.09,52.55c-1-.29.36,6.36,1.39,7a7.6,7.6,0,0,1,3,4.58,15.91,15.91,0,0,0,5.65-2.73C48.25,56.35,43.59,53.55,40.09,52.55Z" transform="translate(0)"/><path class="cls-6" d="M44.62,65.66l-.94-2.85a26.55,26.55,0,0,0,5.93-2.88l1.7,2.47A29.28,29.28,0,0,1,44.62,65.66Z" transform="translate(0)"/><path class="cls-4" d="M25.52,54.07a1.82,1.82,0,1,1,2,3C23.94,59.52,22,62.13,22,64.42a3.73,3.73,0,0,0,.4,1.58H18.59a7.52,7.52,0,0,1-.2-1.5C18.34,62,19.53,58.11,25.52,54.07Z" transform="translate(0)"/><path class="cls-5" d="M27.6,52.55c1-.29-.36,6.36-1.38,7a7.61,7.61,0,0,0-3,4.58,15.86,15.86,0,0,1-5.64-2.73C19.45,56.35,24.1,53.55,27.6,52.55Z" transform="translate(0)"/><path class="cls-6" d="M23.07,65.66a29.28,29.28,0,0,1-6.69-3.26l1.7-2.47A26.54,26.54,0,0,0,24,62.81Z" transform="translate(0)"/><path class="cls-5" d="M33.88,51.71c-8.24,0-9.31,2.28-9.16,2.59a12.88,12.88,0,0,1,1,5.31c0,2.52.2,4.61.31,6.39H41.61c.1-1.77.29-3.85.31-6.35A18.84,18.84,0,0,1,43,54.42C43.1,54.12,41.88,51.75,33.88,51.71Z" transform="translate(0)"/><path class="cls-6" d="M33.85,58.47s7.27-3.14,5.45-5.94C37.66,50,28.92,50,28.1,53,27.42,55.54,33.85,58.47,33.85,58.47Z" transform="translate(0)"/><path class="cls-7" d="M29.17,51.07a4.67,4.67,0,0,1,9.3,0,3.76,3.76,0,0,1-.79,3,5.76,5.76,0,0,1-3.86,2.33A5.74,5.74,0,0,1,30,54.11,3.73,3.73,0,0,1,29.17,51.07Z" transform="translate(0)"/><path class="cls-8" d="M47.69,31.56c.3-4.82-.24-6.59,0-8.54,1-8.29-5.67-14.34-17.4-13.41C9.8,11.22,13.23,39.67,19.07,38.44c4.32-.91,8.56-2.14,12.84-3.2,4-1,8.41-.23,12.49,0C47.59,35.5,47.54,34.15,47.69,31.56Z" transform="translate(0)"/><path class="cls-4" d="M19.55,38.11c1,7.61,6.9,16,15.74,15.32,9-.64,13.5-11.82,12.34-21.18C46.36,22.08,41.55,13.6,31,15.66,23.47,17.12,18.17,28,19.55,38.11Z" transform="translate(0)"/><path class="cls-4" d="M17.73,41.38a7.36,7.36,0,0,0,3,.32l.06-.09c.45-.7-.35-4.29-.57-5-.57-1.86-1.5-3.18-3.28-2.69C13.22,34.9,14.71,40.29,17.73,41.38Z" transform="translate(0)"/><path class="cls-9" d="M31.37,25.3a7.84,7.84,0,0,0-2.54-.81,9.34,9.34,0,0,1-.42,2.29c-1.4-.33-2.87-2.6-4.34-2-1.08.42-1.11,2-1.59,2.9-.79,1.42-1.94,2.57-2.49,4.12s-.55-5.54-.5-6.47c.11-2.42.25-5.72,2.18-7.49,2.4-2.21,6.89-2,9.9-2a34.74,34.74,0,0,1,12.6,2.65c2.85,1.13,3.14,6.85,2.68,9.44.08-.45-.75-1.27-1-1.63-.31-.53-.82-1.34-1.54-1.37-.53,0-1.57,1.59-1.34,1.7-.89-.39-1.8-.95-2.72-1.25-.76-.26-1.59-.31-2.39-.57.18.06-1.06,3-1.06,3.34-.43-.16-.84-.44-1.27-.64-.81-.39-1.62-.75-2.41-1.21C32.6,26,32,25.6,31.37,25.3Z" transform="translate(0)"/><path class="cls-10" d="M19.16,40c1.34-.85.07-3.71-.94-4.18-.83-.38-2.91.31-1.93,1.94.51-1.51,1.43-.52,1.29.55-.09.71-.87.73-.1,1.65A1.38,1.38,0,0,0,19.16,40Z" transform="translate(0)"/><path class="cls-8" d="M44.22,26.1c-2.53-.54-3.77-1.32-6.19-2.21a14.88,14.88,0,0,1,.27,2.82c-1.47-.5-7.07-2.19-10-3.08a21.2,21.2,0,0,1,.49,2.19c-1.53-.68-3.28-2.53-5.07-2.4-1.07.09-1.16.76-1.36,1.71a31.19,31.19,0,0,1-1.14,3.94c-1.08,3.2-.53,6.61.82,7.86a3.5,3.5,0,0,1-2,0,9.35,9.35,0,0,1-1.55-4.35c-.12-2.74-1.23-5.32-1.18-8.11C17.37,20.62,18,17.57,21,15c2.57-2.25,4.46-3.64,7.73-4.55C41,7,49.38,14.59,51.23,25.4a14.66,14.66,0,0,1-6-2A21.75,21.75,0,0,1,44.22,26.1Z" transform="translate(0)"/><path class="cls-8" d="M39.56,7.67a8.39,8.39,0,0,1-1.12,1.95c1.51.08,3.22.23,4.42.28-.56.63-1.7,2.06-2.81,2.17a48.74,48.74,0,0,1-10.66-.21c-1.26-.17-2.58-.13-3.83-.37C26,10.32,27.92,9.91,29,9.75,31,9.44,35.45,9.14,39.56,7.67Z" transform="translate(0)"/><path class="cls-11" d="M45.61,16.23a15.54,15.54,0,0,1,1.18,1.65,25.63,25.63,0,0,1,2.35,5,12.18,12.18,0,0,0-5.93-1.7c-.08,1-.46,1.94-.53,3A12.4,12.4,0,0,0,36.78,22a9.8,9.8,0,0,0-.27,2.31A85.94,85.94,0,0,0,27,21.48c.14.77,0,1.63.18,2.43A50.06,50.06,0,0,1,21,19.38c-1.61-1.57-.45-3.78.83-5.12a11.19,11.19,0,0,1,4.42-2.77,22.94,22.94,0,0,1,9.68-.75A14.61,14.61,0,0,1,45.61,16.23Z" transform="translate(0)"/><path class="cls-12" d="M28.22,35.36a2.79,2.79,0,0,0-1.93-.16c-1.32-1.13-.1-4.57,1.84-3.73C29.57,32.09,29.52,34.69,28.22,35.36Z" transform="translate(0)"/><path class="cls-10" d="M39.09,37.84c.39.26-.44,1.24-2.18,1.33s-2.69-.92-2-1.19,1.09,0,2.08,0S38.64,37.53,39.09,37.84Z" transform="translate(0)"/><path class="cls-13" d="M39.1,37.93c.27-.17-.34-1-.82-1.76s-.83-2.23-1.8-2.18-1.08,1.7-1.39,2.48S34.54,38,35,38.21A5.67,5.67,0,0,0,39.1,37.93Z" transform="translate(0)"/><path class="cls-12" d="M44.89,31.34c1.06.63,1,2.82.26,3.69a2.55,2.55,0,0,0-2.06,0C41.47,34,42.92,30.15,44.89,31.34Z" transform="translate(0)"/><path class="cls-14" d="M28,33c.7-.24,1.14.84.58,1.24C27.8,34.77,27.2,33.24,28,33Z" transform="translate(0)"/><path class="cls-14" d="M44.64,32.66c.69-.13,1,.94.39,1.25C44.23,34.35,43.86,32.82,44.64,32.66Z" transform="translate(0)"/><path class="cls-8" d="M24.57,30.48a.48.48,0,0,1-.75-.53A4.28,4.28,0,0,1,27,27.39c1.12-.22,3.23,0,3.92,1.06a.68.68,0,0,1-.77,1,6.45,6.45,0,0,0-2.93-.15A8.68,8.68,0,0,0,24.57,30.48Z" transform="translate(0)"/><path class="cls-8" d="M46.57,29.54c.56.17.71-.33.56-.58a3.76,3.76,0,0,0-3.08-1.81c-1,0-3,.74-3.45,1.78a.61.61,0,0,0,.87.74,6.34,6.34,0,0,1,2.61-.82A8.11,8.11,0,0,1,46.57,29.54Z" transform="translate(0)"/><path class="cls-13" d="M46.55,36.77a2.1,2.1,0,0,1,.33.52c.82,2-3.94,2-4.61,1.13-1.27-1.53.23-2.16,1.4-2.3A3.36,3.36,0,0,1,46.55,36.77Z" transform="translate(0)"/><path class="cls-13" d="M28.84,37.1a2.29,2.29,0,0,1,.33.55c.79,2.1-4.19,1.91-4.87,1-1.28-1.64.31-2.25,1.54-2.36A3.55,3.55,0,0,1,28.84,37.1Z" transform="translate(0)"/><path class="cls-15" d="M44.23,39.63c-1.17-.81-2.57.79-9.17,1.17-5.69.32-7.83-.62-9.26-.64.82,5.54,4.51,9.49,8.65,9.49,2.17,0,5.18-.19,6.78-2.68a10,10,0,0,0,1-3.1A6.47,6.47,0,0,1,44.61,40,1.71,1.71,0,0,0,44.23,39.63Z" transform="translate(0)"/><path class="cls-16" d="M26.68,40.81s7.33,2.55,17.46-1A5.81,5.81,0,0,0,42,43.5c-.4,2-1.3,4.78-7.11,5.11C28.39,49,26.68,40.81,26.68,40.81Z" transform="translate(0)"/><path class="cls-17" d="M28.38,41.33a2.53,2.53,0,0,0,1.95,2.36,17.64,17.64,0,0,0,8.29.12c2-.42,3-3,3-3A44.51,44.51,0,0,1,28.38,41.33Z" transform="translate(0)"/><path class="cls-17" d="M30,46.7c-.13-.41-.09-.86.76-.51A16,16,0,0,0,35.9,47c2.24,0,2.82-.79,3.18-.35s-1.33,2.47-4.88,2.13C30.15,48.34,30,46.7,30,46.7Z" transform="translate(0)"/><path class="cls-18" d="M28.66,42.39s10-1,12.31-.39a9.36,9.36,0,0,0,.68-1.22,44.25,44.25,0,0,1-13.27.55A2.13,2.13,0,0,0,28.66,42.39Z" transform="translate(0)"/><path class="cls-18" d="M31.08,46.55a16.55,16.55,0,0,0,7.39.3S34.48,48.2,31.08,46.55Z" transform="translate(0)"/></g></g></g></svg>