<svg xmlns="http://www.w3.org/2000/svg" xmlns:xlink="http://www.w3.org/1999/xlink" viewBox="0 0 66 66.06"><defs><style>.cls-1{fill:none;}.cls-2{clip-path:url(#clip-path);}.cls-3{fill:#b6a8a9;}.cls-4{fill:#e34f7e;}.cls-5{fill:#3a3a4a;}.cls-6{fill:#1e1e29;}.cls-7{opacity:0.1;}.cls-8{fill:#f06799;}.cls-9{fill:#ffb67d;}.cls-10{fill:#2b2521;}.cls-11{fill:#ffcb9e;}.cls-12{fill:#bf3c1b;}.cls-12,.cls-20,.cls-21{opacity:0.3;}.cls-13{fill:#211011;}.cls-14{fill:#ffd8b5;}.cls-15{fill:#a89191;}.cls-16{fill:#f7a286;}.cls-17{fill:#8f2722;}.cls-18{fill:#fff7eb;}.cls-19{fill:#e8dac5;}.cls-20{fill:#a67663;}.cls-21,.cls-22,.cls-23{fill:#fff;}.cls-23{opacity:0.7;}.cls-24{fill:#c1c5c9;}</style><clipPath id="clip-path" transform="translate(0.01)"><circle class="cls-1" cx="33" cy="33" r="33"/></clipPath></defs><g id="Layer_2" data-name="Layer 2"><g id="avatars"><g class="cls-2"><rect class="cls-3" width="66" height="66"/><path class="cls-4" d="M25.2,52.17C21,54.88,21.7,59.27,22.79,66h19.5c1.19-6.49,2-12-2.13-14.21C35.37,49.21,28.38,50.1,25.2,52.17Z" transform="translate(0.01)"/><path class="cls-5" d="M33,56.7a2.32,2.32,0,0,0-2.51,1.54l1.6,1.95-2,5.81h5.75l-2.18-5.77,1.56-1.82A2.48,2.48,0,0,0,33,56.7Z" transform="translate(0.01)"/><path class="cls-6" d="M16.08,66c0-.25.31-4.93.57-6.77.42-2.94,1.51-5,5.52-6.52l2,4.72C21.91,58.62,21.6,66,21.6,66Z" transform="translate(0.01)"/><path class="cls-6" d="M25.21,51.35S21,52.92,20.57,54c-.31.81-.08,6.93.79,12h5.82A57.09,57.09,0,0,0,25.21,51.35Z" transform="translate(0.01)"/><path class="cls-5" d="M25.33,50.59a7.16,7.16,0,0,0-3.39,5c0,.65,4.44,1,4.28.38S25.33,50.59,25.33,50.59Z" transform="translate(0.01)"/><path class="cls-5" d="M26.05,55.34c-.5-.86-2.32,3.63-2.05,4.39.16.45,1.31,3.51,2.17,6.27l1.07.06C27.21,61.57,26.78,56.6,26.05,55.34Z" transform="translate(0.01)"/><path class="cls-6" d="M49.94,66c0-.25-.31-4.93-.57-6.77-.42-2.94-1.51-5-5.52-6.52l-2,4.72C44.11,58.62,44.42,66,44.42,66Z" transform="translate(0.01)"/><path class="cls-6" d="M40.81,51.35S45,52.92,45.45,54c.31.81.08,6.93-.79,12H38.84A57.09,57.09,0,0,1,40.81,51.35Z" transform="translate(0.01)"/><path class="cls-5" d="M40.69,50.59a7.19,7.19,0,0,1,3.39,5c0,.65-4.44,1-4.28.38S40.69,50.59,40.69,50.59Z" transform="translate(0.01)"/><path class="cls-5" d="M40,55.34c.5-.86,2.32,3.63,2.05,4.39-.16.45-1.31,3.51-2.18,6.27l-1.06.06C38.81,61.57,39.24,56.6,40,55.34Z" transform="translate(0.01)"/><path class="cls-7" d="M40.29,53.66c0,2.21-2.09,4.44-4.06,5.82L33,56.72l-3.07,2.92s-3.57-1.86-4.61-5.14S40.32,52.07,40.29,53.66Z" transform="translate(0.01)"/><path class="cls-8" d="M33,56.72,36,58.65s7-3.52,4.65-8.06c-2.07-4.07-12.5-3.64-15.36,0s4.34,8.18,4.34,8.18Z" transform="translate(0.01)"/><path class="cls-9" d="M32.8,56.27c1.88,0,9.86-4.51,4.25-8.93-1.61-1.27-4.75-1.47-6.68-1.06a4.64,4.64,0,0,0-3.48,4.23C26.72,53,30.31,56.2,32.8,56.27Z" transform="translate(0.01)"/><path class="cls-10" d="M47.26,31.55c.64-.88,1.58-9.81,2.55-8.71C53.48,27.05,49.25,33,51,37.93c.24.64-2.26.26-2.46.18C46.08,37.07,45.76,33.57,47.26,31.55Z" transform="translate(0.01)"/><path class="cls-10" d="M46.82,30.35c1.92-.5,4.13-.8,2.94-8.89C48.46,12.64,38,7.19,29.06,8.86,7.53,12.92,11.29,37.62,17.58,36.59S44.9,30.85,46.82,30.35Z" transform="translate(0.01)"/><path class="cls-11" d="M16,34.53c.32,11.28,8.09,20.21,17.36,19.94s16.52-9.62,16.2-20.89S41.48,13.37,32.21,13.64,15.69,23.25,16,34.53Z" transform="translate(0.01)"/><path class="cls-11" d="M13.89,40.37a10.32,10.32,0,0,0,3.66.45l.08-.1c.59-.74-.13-4.6-.36-5.4-.57-2-1.63-3.45-3.85-3C8.79,33.29,10.24,39.11,13.89,40.37Z" transform="translate(0.01)"/><path class="cls-12" d="M19.47,29.24A16.64,16.64,0,0,1,21.17,24c1.83-3.24,5.45-4.41,8.94-4.88a41.51,41.51,0,0,1,13.34.54c1,.2,5.58.88,4.6,2.67a7.25,7.25,0,0,1-4.4,3,35.66,35.66,0,0,1-7.93-.08C29,24.45,25.87,26.54,25,27.87a6.36,6.36,0,0,1,.83-3c-.13.12-4.7,2-5.85,9.32C19.41,34,19.05,31.51,19.47,29.24Z" transform="translate(0.01)"/><path class="cls-10" d="M24.61,14.37C18.33,16.92,14.44,26.93,14.92,33c.28,3.44,5,3.67,5,1.73,0-5.92,1-10.11,9.72-12.17,7-1.64,15.19-.73,17.26.7s0-4.2-6-7.89S29.44,12.4,24.61,14.37Z" transform="translate(0.01)"/><path class="cls-12" d="M16.29,39.28c2.15-.59.85-4-.54-4.71-1.15-.6-4.33-.35-3.23,1.62,1.06-1.49,2.22-.22,1.8.9-.29.75-1.42.58-.48,1.74A2.61,2.61,0,0,0,16.29,39.28Z" transform="translate(0.01)"/><path class="cls-10" d="M51.24,22.47c-6.29,4.66-17.7-1.21-24.4,2.78a5.61,5.61,0,0,1,.75-2.52c-.25.45-3.42,1.47-4,1.37-1.62-.26-2.41-2.12-2.82-3.43-1.25-4-.61-7.79,2.94-9.85C28.61,8,34.56,8,40,9.51,49.62,12.11,54.2,20.27,51.24,22.47Z" transform="translate(0.01)"/><path class="cls-10" d="M19.84,39.28l.46,0c.15-2-.27-3.9-.25-6,0-1.47-.11-1.65-1.11-2.26s-2.75-.13-4-.83c.57.34.1,2.72.07,3.26A5.2,5.2,0,0,0,19.84,39.28Z" transform="translate(0.01)"/><path class="cls-10" d="M15.29,11.58c1.63,5.25,8.29,4.05,11.23,2.38,1.4-.8,3.14-5.22.8-4.75-3.18.64-6.61,1.31-9.19-.27a2.81,2.81,0,0,0,1.21,2.8C18.55,12.38,16.87,12.44,15.29,11.58Z" transform="translate(0.01)"/><path class="cls-13" d="M27.41,35.77a3.22,3.22,0,0,0-2.22-.29c-1.47-1.37.13-5.29,2.32-4.23C29.15,32.05,29,35.06,27.41,35.77Z" transform="translate(0.01)"/><path class="cls-12" d="M38.62,36.69c.43.45-.53,2-2.52,2s-3-1.66-2.25-2,1.24.06,2.37.07S38.12,36.16,38.62,36.69Z" transform="translate(0.01)"/><path class="cls-14" d="M38.45,36.82c.58-.5,0-2.49-2.34-2.44-2,0-3,1.71-2,2.48A4.15,4.15,0,0,0,38.45,36.82Z" transform="translate(0.01)"/><path class="cls-13" d="M45.29,30.65c1.26.61,1.36,2.61.55,3.67a3,3,0,0,0-1.93.64C41.34,34.45,42.94,29.51,45.29,30.65Z" transform="translate(0.01)"/><path class="cls-15" d="M26.84,31.79c.82-.23,1.27,1,.61,1.47C26.53,33.86,25.92,32.06,26.84,31.79Z" transform="translate(0.01)"/><path class="cls-15" d="M44.74,31.29c.76-.22,1.18,1,.56,1.37C44.45,33.23,43.87,31.55,44.74,31.29Z" transform="translate(0.01)"/><path class="cls-10" d="M46.26,27.59c1.26-.05,1.66-.68.41-1.24A6.59,6.59,0,0,0,44.29,26c-.47,0-2.27-.31-2.62.07C40.33,27.51,45.78,27.61,46.26,27.59Z" transform="translate(0.01)"/><path class="cls-10" d="M24.58,28.25c-1.26.07-1.72-.52-.53-1.19a6.47,6.47,0,0,1,2.33-.6c.47-.06,2.23-.53,2.63-.18C30.48,27.59,25.06,28.22,24.58,28.25Z" transform="translate(0.01)"/><path class="cls-16" d="M44.9,39.52c-1.14-.79-2.52.78-9,1.15-5.58.32-7.67-.61-9.07-.63.8,5.43,3.79,9.11,7.82,9.46,2.5.21,5.72-.35,7.29-2.79a9.6,9.6,0,0,0,1-3,6.34,6.34,0,0,1,2.29-3.79A1.85,1.85,0,0,0,44.9,39.52Z" transform="translate(0.01)"/><path class="cls-17" d="M27.7,40.68s7.19,2.5,17.11-1a5.71,5.71,0,0,0-2.14,3.61c-.4,1.92-1.27,4.68-7,5C29.38,48.68,27.7,40.68,27.7,40.68Z" transform="translate(0.01)"/><path class="cls-18" d="M29.38,41.19a2.48,2.48,0,0,0,1.91,2.31,17.28,17.28,0,0,0,8.11.12c1.93-.41,3-3,3-3A43.68,43.68,0,0,1,29.38,41.19Z" transform="translate(0.01)"/><path class="cls-18" d="M31,46.45c-.13-.4-.09-.84.74-.5a15.51,15.51,0,0,0,5.05.74c2.19,0,2.76-.77,3.12-.34s-1.31,2.42-4.78,2.09C31.11,48.05,31,46.45,31,46.45Z" transform="translate(0.01)"/><path class="cls-19" d="M29.65,42.23s9.81-.94,12.06-.38a8.78,8.78,0,0,0,.66-1.2,43.47,43.47,0,0,1-13,.54A2,2,0,0,0,29.65,42.23Z" transform="translate(0.01)"/><path class="cls-19" d="M32,46.3a16.17,16.17,0,0,0,7.24.29S35.35,47.92,32,46.3Z" transform="translate(0.01)"/><path class="cls-20" d="M40.33,36.74a3.89,3.89,0,0,1-1-1.17,3.84,3.84,0,0,1-.15-3.13c.52-1.4,2-1.48,3.22-1.57.82-.06,1.64-.07,2.46-.08a6,6,0,0,0,2.08-.17c.86-.36.69-1.55.16-2.16S45.74,28,45,28.12a18.28,18.28,0,0,0-2.85.5,16.51,16.51,0,0,0-3.63,1,4.36,4.36,0,0,1-2.67.79c-2.24-.08-4.13-1.46-6.36-1.68a18.93,18.93,0,0,0-7,.16c-.6.17-2.4.86-1.18,1.5s3,.4,4.28.45c.6,0,1.2,0,1.8.08,2.13.18,5.4-.13,5.24,2.53-.1,1.82-1.27,3.7-2.75,4.05A18.93,18.93,0,0,1,25.5,38a7.36,7.36,0,0,1-3.17-.66c-.29-.13-1.14-.67-1.42-.28-.46.66,1.27,1.73,1.73,1.93a10.4,10.4,0,0,0,3.26.71c2.78.28,5.63.12,7.18-2.44.9-1.48,1.35-3.23,2.18-4.75,1.36-2.49,1.94.9,2.33,2.38a7.57,7.57,0,0,0,1,2.35,5.29,5.29,0,0,0,3.91,2A17,17,0,0,0,47,38.78c.5-.21.76-1,.17-1.28-.35-.14-2.84.35-3.21.32a11.25,11.25,0,0,1-1.64-.16A4.76,4.76,0,0,1,40.33,36.74Z" transform="translate(0.01)"/><path class="cls-5" d="M16.25,28.83c.41-.4,2,0,3.82-.17,2.57-.25,15.61-1.95,14.91,3.64a7.67,7.67,0,0,1-3.55,6c-1.91,1.12-8.29,1-10.35-.56-2.46-1.92-2.6-5.2-2.81-6.47a3.09,3.09,0,0,1-1.46-.38S15.72,29.34,16.25,28.83Zm4.95,7.5c1.73,1.88,8,2.21,10.27.49,1.75-1.3,2.78-5.12,1.76-5.8-2.12-1.41-10.85-1.37-13.07.17C19.43,31.69,19.86,34.88,21.2,36.33Z" transform="translate(0.01)"/><path class="cls-5" d="M52.75,30.13a2.47,2.47,0,0,1-1.25.45c-.13,1.27-.16,4.56-2.23,6.59-1.72,1.69-7.22,2.07-8.91,1-2.08-1.27-2.92-3.58-3.23-5.84-.77-5.55,10.52-4.46,12.74-4.33,1.58.09,2.94-.39,3.3,0S52.75,30.13,52.75,30.13Zm-2.88.44c-2-1.44-9.49-1.07-11.27.43-.86.73.14,4.5,1.69,5.72,2.05,1.61,7.4,1,8.84-1C50.24,34.24,50.51,31,49.87,30.57Z" transform="translate(0.01)"/><path class="cls-21" d="M40.09,30.6c1.4-.54,8.45-.79,9.21,0,.55.58-1.5,1.35-2.45,1.48A16,16,0,0,1,41.5,32C41,31.89,38.83,31.08,40.09,30.6Z" transform="translate(0.01)"/><path class="cls-22" d="M45.61,30.59c1.44-.16,3.9.17,3.61.63s-4.24.59-4.56-.06C44.49,30.84,44.94,30.66,45.61,30.59Z" transform="translate(0.01)"/><path class="cls-23" d="M41.25,35.32c.9,0,2.37.62,2.15,1s-2.66-.07-2.8-.62C40.54,35.38,40.83,35.29,41.25,35.32Z" transform="translate(0.01)"/><path class="cls-23" d="M22.59,35.78c1,.09,2.59.72,2.33,1s-2.94-.17-3.06-.73C21.8,35.81,22.12,35.74,22.59,35.78Z" transform="translate(0.01)"/><path class="cls-21" d="M21.64,31c.79-.77,8.93-.7,10.6-.22,1.51.43-.93,1.24-1.46,1.35a22.26,22.26,0,0,1-6.14.21C23.54,32.22,21.08,31.53,21.64,31Z" transform="translate(0.01)"/><path class="cls-22" d="M28.69,30.52c1.58-.16,4.3.17,4,.63s-4.68.59-5,0C27.45,30.77,27.94,30.59,28.69,30.52Z" transform="translate(0.01)"/><path class="cls-5" d="M33,29.2a9.9,9.9,0,0,0,5.81-.09c1.72-.52-.05.89-.37,1.27s-.46,4.44-1.19,2.88-1.89-1.5-2.5.19-.36-1.31-.57-2.23S31.2,28.71,33,29.2Z" transform="translate(0.01)"/><path class="cls-24" d="M32.92,29.91c-2.05-1.47-5.42-1.6-12-.76C25.91,29.07,29.86,29,32.92,29.91Z" transform="translate(0.01)"/><path class="cls-24" d="M39.37,29.65c1.63-1.44,4.32-1.33,10.08-1.21C45.14,28.83,41.93,28.56,39.37,29.65Z" transform="translate(0.01)"/></g></g></g></svg>