<svg xmlns="http://www.w3.org/2000/svg" xmlns:xlink="http://www.w3.org/1999/xlink" viewBox="0 0 96 96.32"><defs><style>.cls-1{fill:none;}.cls-2{clip-path:url(#clip-path);}.cls-3{fill:#ffe477;}.cls-4{fill:#ff9819;}.cls-5{fill:#765aa3;}.cls-6{fill:#3a3a4a;}.cls-7{fill:#8f4721;}.cls-8{fill:#1f1a17;}.cls-9{fill:#9c552c;}.cls-10,.cls-11{fill:#661004;}.cls-10{opacity:0.3;}.cls-11{opacity:0.4;}.cls-12{fill:#bf6c3c;}.cls-13{fill:#e6d2c3;opacity:0.7;}.cls-14{fill:#d47b48;}.cls-15{fill:#78231f;}.cls-16{fill:#fff3e2;}.cls-17{fill:#e8dac5;}.cls-18{fill:#330500;opacity:0.2;}.cls-19{fill:#332823;}</style><clipPath id="clip-path" transform="translate(0)"><circle class="cls-1" cx="48" cy="48" r="48"/></clipPath></defs><g id="Layer_2" data-name="Layer 2"><g id="Layer_4" data-name="Layer 4"><g class="cls-2"><rect class="cls-3" width="96" height="96"/><path class="cls-4" d="M38.2,88c1.12-1.31.63-9.91-.8-9.49-4.8,1.39-10.3,10.3-9.62,17.83h7.74A11.24,11.24,0,0,1,38.2,88Z" transform="translate(0)"/><path class="cls-5" d="M37.36,77.59C32.82,80.53,27.42,86.47,27,94.32a23.62,23.62,0,0,0,9.18,1.33c-.08-2.81.44-5.63,2.21-7.68C39.59,86.61,38.67,76.74,37.36,77.59Z" transform="translate(0)"/><path class="cls-4" d="M60,78.49c-1.43-.42-1.93,8.18-.8,9.49a11.24,11.24,0,0,1,2.68,8.34h7.74C70.27,88.79,64.77,79.88,60,78.49Z" transform="translate(0)"/><path class="cls-5" d="M60,77.59c-1.31-.85-2.23,9-1,10.38,1.77,2,2.29,4.87,2.21,7.68a23.62,23.62,0,0,0,9.18-1.33C70,86.47,64.55,80.53,60,77.59Z" transform="translate(0)"/><path class="cls-6" d="M60.67,87.36a28.31,28.31,0,0,1,1.6-7.73c.16-.45-1.65-3.94-13.47-4C36.62,75.56,35,79,35.26,79.45a19.1,19.1,0,0,1,1.52,7.85c0,3.54.26,6.48.43,9h23C60.41,93.8,60.65,90.87,60.67,87.36Z" transform="translate(0)"/><path class="cls-4" d="M40.26,77.54c-1,3.74,8.49,8.07,8.49,8.07S59.5,81,56.81,76.84C54.39,73.11,41.47,73.1,40.26,77.54Z" transform="translate(0)"/><path class="cls-7" d="M48.71,68.43a6.64,6.64,0,0,0-6.88,6.25C41.71,76.79,42,78,43,79.18c1.62,1.87,3.63,3.38,5.7,3.43s4.08-1.56,5.7-3.43c1-1.17,1.31-2.39,1.18-4.5A6.64,6.64,0,0,0,48.71,68.43Z" transform="translate(0)"/><path class="cls-8" d="M76.8,27.57C81.57,24,78,17.1,71.38,18.71c2.4-4.27-2.71-9.27-7.37-4.25.39-7-7.32-7.94-10.65-3.14.92-5.77-9.07-6.34-10-.08-2.47-4-11.34-4.3-10.65,1.82-3.68-5.15-9.1-.7-7,4.89-5.89-2.8-9.74,3.77-4.66,7.44-5.42-1.51-8.67,5.75-2,8.32-6.2-.65-6.62,7.33-1.14,7.09-4,1.63-1.89,6.87,2.19,6.35-2.42,2.5.28,11,5.79,9.93,7.37-1.49,15.4-5.49,23-2.65,4.21,1.58,7.7,4.78,12.07,6,3.48,1,10,.11,13.06-2,2.69-1.9,4.24-7.65-.7-7.43,4.87-.45,5.6-6.64,1.13-7.57,6.38-1,7.09-6.58,2.66-8.53C82.49,34.6,82,26.14,76.8,27.57Z" transform="translate(0)"/><path class="cls-9" d="M46.47,22.81c-12.85.86-23.9,15-22.85,30.61s11.7,26.13,26.66,26C66.85,79.26,73.21,65.63,72.16,50S59.32,21.94,46.47,22.81Z" transform="translate(0)"/><path class="cls-10" d="M69.67,48.46c-.55-.28-4.48-.76-3.51.71A10.78,10.78,0,0,0,69,50.62c.7.13.83-.13.33-.62s-1.82-.68-2.13-1.31C67.76,48.63,69.39,49.34,69.67,48.46Z" transform="translate(0)"/><path class="cls-10" d="M35.88,51.25c.34.86,1.91,0,2.47,0-.27.65-1.6,1-2,1.47s-.3.78.38.59a10.2,10.2,0,0,0,2.73-1.67C40.28,50.15,36.41,50.93,35.88,51.25Z" transform="translate(0)"/><path class="cls-8" d="M41.66,46.64c-2.87-1.25-4.71,3.84-2.76,5.52a4.12,4.12,0,0,1,2.85.26C43.68,51.43,43.79,47.58,41.66,46.64Z" transform="translate(0)"/><path class="cls-11" d="M53.88,53.73c-1.61.08-2.28-.57-3.38.09s.45,3.09,3.28,2.89,4.15-2.56,3.52-3.2S55.66,53.65,53.88,53.73Z" transform="translate(0)"/><path class="cls-12" d="M52.44,45.13C51,45.24,50,47.31,49.83,50s-.1,3.91.6,4.43a5.71,5.71,0,0,0,6.72-.56C59.15,51.8,55.92,44.86,52.44,45.13Z" transform="translate(0)"/><path class="cls-8" d="M65.74,44.92c-3.06-1.34-4.87,5.06-1.56,5.59a3.73,3.73,0,0,1,2.44-.92C67.6,48.2,67.38,45.64,65.74,44.92Z" transform="translate(0)"/><path class="cls-13" d="M40.18,47.69c-1.17.39-.29,2.66.85,1.85C41.86,48.94,41.22,47.34,40.18,47.69Z" transform="translate(0)"/><path class="cls-13" d="M64.34,46.09c-1.09.36-.27,2.49.79,1.72C65.9,47.26,65.31,45.77,64.34,46.09Z" transform="translate(0)"/><path class="cls-9" d="M21.41,49.76c-6.38,1.59-4.05,9.58,1.08,11.13a14.21,14.21,0,0,0,5.11.43.71.71,0,0,1,.1-.14c.79-1-.43-6.38-.79-7.47C26,51,24.46,49,21.41,49.76Z" transform="translate(0)"/><path class="cls-10" d="M59.58,31.11A70.31,70.31,0,0,0,41,30c-5,.49-11.29,2.63-12.45,8.18-.32,1.5-1.07,3.83-1.74,6.4-1.25,4.86-2.17,10.52.89,12.79,2.69,2,5.52-1.32,3.8-3.88,2.25-1,3.13-4.44.53-5.52a3.2,3.2,0,0,0,1-4.93,3.22,3.22,0,0,0,2.44-4,5.92,5.92,0,0,0,7.5-.81c1.52,2.61,5.06,1.58,7.18.07,1.33,3.17,5.85.77,7.66-.84,1.28,2.2,4.35,1.11,6-.3,2.76,1,3.58-1.09,2.51-3.24S61.71,31.48,59.58,31.11Z" transform="translate(0)"/><path class="cls-10" d="M24.76,52.75c-1.62-.78-6-.26-4.38,2.42,1.38-2.13,3.05-.42,2.52,1.15-.34,1-1.93.88-.56,2.45.74.85,2.5.78,3.43.48C28.71,58.31,26.74,53.7,24.76,52.75Z" transform="translate(0)"/><path class="cls-8" d="M53,19.63c-6.06-1.12-12.77-.93-18.35,1.89a15.79,15.79,0,0,0-6,5.08c-3.33,4.82-7.54,12.74-5.82,18.59.38,1.3.17,3.16.64,4.48.95,2.67.43,8.67,4.43,9.13,3.68.42,3.82-3.2,1.8-5.37,3.87.22,2.63-4.41,0-5.39,3.34-.76,2.93-4.83,1.05-6.89,2.83-.37,2.18-3.76,1.23-5.61,2.74,2.13,6.54,3.58,9.14.34,1.33,3.37,6.81,2.12,8.83-.11.88,3,5.39,2.61,6.4-.19C58,38,62.83,38,63.44,34.82a3,3,0,0,0,4.65-3.27c3.81.37,2.15-4.09.7-5.79C65.65,22.09,57.55,20.48,53,19.63Z" transform="translate(0)"/><path class="cls-12" d="M43,54.57c-1.55-1.21-3.93-.75-5.55-.22-2.13.71-4.7,2.45-1.82,4.92,1.53,1.32,10.35-.33,8.16-3.82A3.38,3.38,0,0,0,43,54.57Z" transform="translate(0)"/><path class="cls-12" d="M65.59,51.86a4.48,4.48,0,0,0-2.4,1.46c-.9,1.12-.87,2.58,1.06,3.51s5.86,1.07,6.83-1.36C72.4,52.14,67.73,51.33,65.59,51.86Z" transform="translate(0)"/><path class="cls-11" d="M52.42,72.94c-1.89.46-2.56,1.44-2.68,2.58,0-.19,1-1.32,3.86-1.67,1.68-.2,4.2.24,5,1C58.88,73,54.72,72.39,52.42,72.94Z" transform="translate(0)"/><path class="cls-8" d="M64,38.32c-1.78.2-3.83,1.62-5.61,1.17a3.41,3.41,0,0,0,3.12,3.14,6,6,0,0,0,3.61-.79,12,12,0,0,1,1.44-.54,8,8,0,0,1,2.49,0,2.91,2.91,0,0,0-.31-.87A4.44,4.44,0,0,0,64,38.32Z" transform="translate(0)"/><path class="cls-8" d="M43.61,40.39c-1.11-.2-2.27-.78-3.36-.89-2.75-.28-5.55,3.39-3.79,5.78a12.66,12.66,0,0,0,1-1.07c1.72-1.82,4.21-.43,6.28-.07,2.76.48,4.07-1.25,4-3.88A8,8,0,0,1,43.61,40.39Z" transform="translate(0)"/><path class="cls-14" d="M63.83,58.83c-1.41-.17-3,.84-4.33,1.08a48.29,48.29,0,0,1-12.76.58c-1.9-.18-7.51-3.27-5.84.92,3.17,7.9,6.15,11.07,12.75,10.8,9-.36,9.33-6.13,10.27-9.48C64.43,60.9,66.72,59.2,63.83,58.83Z" transform="translate(0)"/><path class="cls-15" d="M42.16,61.07s3.58,8.14,11.9,7.49c5.65-.44,7.91-3.23,8.54-5.63a5,5,0,0,1,2.11-3.25A33,33,0,0,1,42.16,61.07Z" transform="translate(0)"/><path class="cls-16" d="M45,61.82a4.42,4.42,0,0,0,2.92,3.53,17.52,17.52,0,0,0,10.8.11c2.5-.74,3.7-4.76,3.7-4.76S55.3,63.34,45,61.82Z" transform="translate(0)"/><path class="cls-16" d="M55.71,65.57a25.3,25.3,0,0,1-8.39-.79c-1.42-.49-1.39.26-1.08.91,0,0,.63,2.69,7.18,3,5.72.24,8-3.27,7.29-4S59.29,65.41,55.71,65.57Z" transform="translate(0)"/><path class="cls-17" d="M44.94,61.78A3.66,3.66,0,0,0,46,64.14s12-1.65,15-.71a8.52,8.52,0,0,0,1.3-2.73S53.47,63.37,44.94,61.78Z" transform="translate(0)"/><path class="cls-17" d="M48.07,64.78c5.79,2.41,11.85-.18,11.85-.18A25.93,25.93,0,0,1,48.07,64.78Z" transform="translate(0)"/><path class="cls-18" d="M60.31,56.6c-5.35.67-10.72,1.63-16.12,1.74-1.36,0-4.06-.1-4.94,1.32a.16.16,0,0,1,0,.07c-1.77,3.43,3.46,3.35,5.16,2.22,1.5,2.77,8.05,2,10.46,1.78,2.93-.34,5.54-1.44,8.24-2.16,1.62-.43,5.29.41,5.25-2.18C68.25,55.4,62.53,56.32,60.31,56.6Z" transform="translate(0)"/><path class="cls-8" d="M64.83,55c-2.62-.62-6.35-.91-9.09.07-3.55,1.27-6.66-.51-10.36.16-11.72,2.14-4.12,8.42-.76,5.72,0,3.22,16.5,2.42,18.88-1.22C68.19,62.3,71.14,56.5,64.83,55Z" transform="translate(0)"/><path class="cls-19" d="M61.41,56.2a9.16,9.16,0,0,0-5.83.35,6.32,6.32,0,0,1-5.73.2c-2.74-1.18-9.8,1.13-9,2.2s4.64.46,4.64.46.1,1.45,1.28,1.79,3.38-1.4,3.38-1.4-.08,1.72,1.53,1.79,3-1.94,3-1.94,1,1.82,2.63,1.5a1.68,1.68,0,0,0,1.42-1.83s1.94,1,3.14.59.49-2.18.49-2.18a3.54,3.54,0,0,0,3.12-.22C67.25,56.57,63.62,56.62,61.41,56.2Z" transform="translate(0)"/><path class="cls-19" d="M69.07,23.17c4-5.17-2.94-9.19-5.72-3.08,2.14-5.18-3.72-8.33-6.93-3.44-2.25-4.8-8-5.2-9.84-.47-2.78-3.68-9.75-5-8.39,1.14-3.88-4.48-13.68-.71-8.48,3.22-5.25-2.87-10.16,2.95-3.44,3.93-6.56-.13-6.53,9.6,2.11,4.91-3.69,4.36,3.24,6.07,8.4,2.9-1.88,4.89,5.09,1.79,6.7.32A3.41,3.41,0,0,0,44,34.12c1.25,1.78,4.06.79,5.16-1.39,2.33,3,6.48,2.34,6.31-1.83,1.7,1.83,5.67,4.23,6.58.51,2.47,2.33,6.34,1.73,6.34-1.86C74.18,31.21,77.15,23.49,69.07,23.17Z" transform="translate(0)"/></g></g></g></svg>