<svg xmlns="http://www.w3.org/2000/svg" xmlns:xlink="http://www.w3.org/1999/xlink" viewBox="0 0 66 66"><defs><style>.cls-1{fill:none;}.cls-2{clip-path:url(#clip-path);}.cls-11,.cls-24,.cls-25,.cls-3{fill:#fff;}.cls-4{fill:#261b18;}.cls-5{fill:#e8e8e8;}.cls-6{fill:#313142;}.cls-22,.cls-24,.cls-7{opacity:0.3;}.cls-8{fill:#f5f5f5;}.cls-9{fill:url(#linear-gradient);}.cls-10{fill:#fff9f0;}.cls-11{opacity:0.07;}.cls-12{fill:#ffbc82;}.cls-13{fill:#bf3c1b;opacity:0.2;}.cls-14{fill:#57443a;}.cls-15{fill:#ff7752;opacity:0.4;}.cls-16{fill:#425361;}.cls-17{fill:#c3d5e3;}.cls-18{fill:#121b21;}.cls-19{fill:#ff3b3b;}.cls-20{fill:#a80a0a;}.cls-21{fill:#e8dac5;}.cls-22{fill:#b54d26;}.cls-23{fill:#23232d;}.cls-25{opacity:0.7;}.cls-26{fill:#c1c5c9;}</style><clipPath id="clip-path" transform="translate(0.01 0)"><circle class="cls-1" cx="33" cy="33" r="33"/></clipPath><linearGradient id="linear-gradient" x1="33.71" y1="52.39" x2="33.71" y2="55.67" gradientUnits="userSpaceOnUse"><stop offset="0" stop-color="#ee996d"/><stop offset="0.02" stop-color="#ee9a6e"/><stop offset="0.37" stop-color="#f8b181"/><stop offset="0.71" stop-color="#fdbf8d"/><stop offset="1" stop-color="#ffc491"/></linearGradient></defs><g id="Layer_2" data-name="Layer 2"><g id="avatars"><g class="cls-2"><rect class="cls-3" width="66" height="66"/><path class="cls-4" d="M20.28,13c-8.78,9.74-5.34,21.31-5.22,24.25.22,5.74-2.53,8.34-1,12.24,4.57,11.71,19.45,14,29.73,9.36,5.51-2.47,7.56-8.42,7.19-14.06a34.24,34.24,0,0,1,.82-10.16,40.38,40.38,0,0,0,.43-10.31C51.5,6.55,29.2,3.11,20.28,13Z" transform="translate(0.01 0)"/><path class="cls-5" d="M39.52,56.57c-2.45-2.48-8.78-2.51-11.47-.4-2.45,1.92-.67,6.17.19,9.83h10.9C39.76,61.73,42,59.06,39.52,56.57Z" transform="translate(0.01 0)"/><path class="cls-6" d="M39.82,63a11.42,11.42,0,0,1-.23-6.72c-2.46-2.44-9.18-2.24-12,.06a10.64,10.64,0,0,1-.24,6.27c.3,1.21.61,2.3.82,3.35h11A16.53,16.53,0,0,1,39.82,63Z" transform="translate(0.01 0)"/><path class="cls-7" d="M29,57.93l.9,4a34.17,34.17,0,0,1,3.94-1.79,34.9,34.9,0,0,1,4,1.63l.49-4.14S34.61,60,33.84,60A40.11,40.11,0,0,1,29,57.93Z" transform="translate(0.01 0)"/><path class="cls-8" d="M36.8,54.3a9.8,9.8,0,0,0-6.61.08c-3.23,1.53.2,6.55.2,6.55l3.48-.87,3.47.76S40,55.63,36.8,54.3Z" transform="translate(0.01 0)"/><path class="cls-9" d="M36.84,54.77c-.57-.45-.43-1.84-.34-3.44.21-3.65-6.08-3.78-6.08.19,0,1.77.07,2.87-.41,3.36-.91.93-.82,2.58,3.77,4.71C36.29,58.35,39.55,56.93,36.84,54.77Z" transform="translate(0.01 0)"/><path class="cls-10" d="M29.83,54.91a.54.54,0,0,0,0,1.07.54.54,0,1,0,0-1.07Z" transform="translate(0.01 0)"/><path class="cls-10" d="M31.06,55.74a.54.54,0,1,0,.55.52A.54.54,0,0,0,31.06,55.74Z" transform="translate(0.01 0)"/><path class="cls-10" d="M32.65,56.3a.54.54,0,0,0,0,1.08.54.54,0,0,0,0-1.08Z" transform="translate(0.01 0)"/><path class="cls-10" d="M34.24,56.39a.55.55,0,0,0-.52.55.54.54,0,1,0,.52-.55Z" transform="translate(0.01 0)"/><path class="cls-10" d="M37.12,54.85a.54.54,0,0,0-.51.56.53.53,0,0,0,.55.52.54.54,0,0,0,0-1.08Z" transform="translate(0.01 0)"/><path class="cls-10" d="M35.85,55.8a.53.53,0,0,0-.52.55.54.54,0,1,0,.52-.55Z" transform="translate(0.01 0)"/><path class="cls-11" d="M36.44,61.49a10.58,10.58,0,0,1-6.2-.1c-1.13-.3-1.76,1.06-1.42,2.21.46,1.52,2.8,1.92,4.84,1.88,4-.07,5.53-1.65,4.85-3.53C38.33,61.45,37.47,61.1,36.44,61.49Z" transform="translate(0.01 0)"/><path class="cls-12" d="M32.26,15.9c-7.67,1.35-13.25,12.25-12,22.58.91,7.67,7.43,15.93,15.31,15.43C45,53.31,49.81,42.14,48.84,33,47.73,22.69,43,14,32.26,15.9Z" transform="translate(0.01 0)"/><path class="cls-13" d="M45.63,19a36,36,0,0,0-12.71-2.94c-2.79-.12-6.53-.36-9.16.72C18.13,19.09,18.54,24,18.4,28.89c0,1.72-.55,3.43-.75,5.13s-.61,7.13,2.43,5.85c1.6-.68,2-3.47,2.42-5C24,29.23,27,28.62,30,27.59c3.5-1.22,7.53-2.51,8.29-4.79,1.49,2.39,7.6,7.26,10.26,4.33C50.7,24.79,47.87,19.94,45.63,19Z" transform="translate(0.01 0)"/><path class="cls-4" d="M43.4,14c-4.16-3.66-9.67-3.73-14.88-2.92-3.43.53-6.42,3-8.46,5.66-2.27,3-2.86,5.81-3.23,9.54a45.19,45.19,0,0,0,.3,8c.13,1.28.07,5.57,1.74,6,2,.52,2.5-5.67,2.94-7.08,1.39-4.35,4.15-5.6,8-6.68,3.07-.87,7.23-2.25,8.39-5.5,2.3,2.31,6.7,6.07,10.24,5.88,2.84-.15,1.45-3.57.76-5.32A21.2,21.2,0,0,0,43.4,14Z" transform="translate(0.01 0)"/><path class="cls-14" d="M43.6,11.58A21.51,21.51,0,0,0,32,8.91,16.13,16.13,0,0,0,19,17.7c-.72,1.47-2.6,6.13-2.25,9.72.6,0,4.05-.59,5.43-2.25-.22,1.18-1.49,2.59-1.9,3.76,2.68-.95,5.79-2.17,12.38-4.66a7.29,7.29,0,0,0,5.16-6.1c2.32,2.87,6.37,6.36,10.25,6.35-.6-.63-1.09-1.41-1.72-2.07A5,5,0,0,0,51,22.37C49.94,17.65,47.9,14.06,43.6,11.58Z" transform="translate(0.01 0)"/><path class="cls-15" d="M47.57,36.84a3.45,3.45,0,0,0-2.8-1.05c-1.2,0-2.79.41-1.73,2.13.57.91,5.35,1.59,4.79-.51A2,2,0,0,0,47.57,36.84Z" transform="translate(0.01 0)"/><path class="cls-15" d="M29.31,36.47a3.62,3.62,0,0,0-3.12-.34c-1.22.3-2.73,1.16-1.19,2.61.81.78,5.84.22,4.73-1.76A1.79,1.79,0,0,0,29.31,36.47Z" transform="translate(0.01 0)"/><path class="cls-13" d="M36.36,38.08c-1,.06-1-.38-1.69,0s0,1.65,1.79,1.5,2.4-1.31,2-1.71S37.45,38,36.36,38.08Z" transform="translate(0.01 0)"/><path class="cls-16" d="M46,31.53c-2.72-1.16-5.2,2.2-3.24,3.95a3.58,3.58,0,0,1,3.84-.13C47.75,34.55,47.5,32.16,46,31.53Z" transform="translate(0.01 0)"/><path class="cls-17" d="M44.87,32c-1.27.39-.67,2.83.62,2C46.43,33.4,46,31.69,44.87,32Z" transform="translate(0.01 0)"/><path class="cls-16" d="M25.78,31.75c-1.44.67-1.63,3.07-.49,3.84a3.61,3.61,0,0,1,3.85,0C31,33.8,28.46,30.52,25.78,31.75Z" transform="translate(0.01 0)"/><path class="cls-17" d="M27.47,32.14c-1.13-.32-1.52,1.41-.57,2C28.22,35,28.75,32.5,27.47,32.14Z" transform="translate(0.01 0)"/><path class="cls-4" d="M29.58,28.46a15.25,15.25,0,0,0-4,.23,6.93,6.93,0,0,0-2.52,1.08,1.09,1.09,0,0,0-.48.74c.22,0,.39-.11.59-.16A12.29,12.29,0,0,1,26.32,30c.81,0,1.62,0,2.44,0,.54,0,1.29.08,1.58-.45S30.3,28.49,29.58,28.46Z" transform="translate(0.01 0)"/><path class="cls-4" d="M48.22,29.39a6.54,6.54,0,0,0-2.47-.94,14.41,14.41,0,0,0-3.88-.07c-.71.06-1.11.46-.74,1.1s1,.36,1.55.37c.8,0,1.59-.09,2.38-.1a12,12,0,0,1,3.06.2c.2.05.37.17.58.13C48.71,29.82,48.44,29.54,48.22,29.39Z" transform="translate(0.01 0)"/><path class="cls-18" d="M45.5,31.07a2.82,2.82,0,0,0-3.22,2,2.56,2.56,0,0,1,2.84-.87c3.7,1.58,5.66-1,5.66-1C48.14,32.4,46.78,31.3,45.5,31.07Z" transform="translate(0.01 0)"/><path class="cls-18" d="M26.41,31.34c-1.28.25-2.63,1.37-5.28.16,0,0,2,2.6,5.66,1a2.56,2.56,0,0,1,2.86.84A2.83,2.83,0,0,0,26.41,31.34Z" transform="translate(0.01 0)"/><path class="cls-19" d="M25.71,41.42C30,47.71,32.59,48.84,35.86,49c4.11.18,5.47-2.45,6.06-4.41A11.58,11.58,0,0,1,45,41.11c-2.55.6-5.07.34-8.92.5C32.91,41.75,28.24,42.7,25.71,41.42Z" transform="translate(0.01 0)"/><path class="cls-20" d="M27.65,42.5a9.56,9.56,0,0,0,7.69,4.26c3.27,0,5.4-1,6-2.46a4.18,4.18,0,0,1,2-2.19A35.1,35.1,0,0,1,27.65,42.5Z" transform="translate(0.01 0)"/><path class="cls-10" d="M29.55,42.86a2.41,2.41,0,0,0,2,1.76,18,18,0,0,0,7.43.2c1.74-.27,2.57-2.31,2.57-2.31A37.83,37.83,0,0,1,29.55,42.86Z" transform="translate(0.01 0)"/><path class="cls-10" d="M36.61,45c-2.33.11-4.27,0-5.45-.7-.84-.49-.91,0-.73.39,0,0,.78,1.76,4.66,2.12,3.73.34,5.63-1.8,5.2-2.16S38.77,44.92,36.61,45Z" transform="translate(0.01 0)"/><path class="cls-21" d="M29.55,42.86a2.06,2.06,0,0,0,.48.9s8.72-.81,10.82-.12a4.3,4.3,0,0,0,.7-1.13A43.88,43.88,0,0,1,29.55,42.86Z" transform="translate(0.01 0)"/><path class="cls-21" d="M31.86,44.57c3.15,1.73,6.88.19,6.88.19A13.1,13.1,0,0,1,31.86,44.57Z" transform="translate(0.01 0)"/><path class="cls-22" d="M47,29.11a21.77,21.77,0,0,0-4.46.68,18.47,18.47,0,0,0-3.84,1.05,4.53,4.53,0,0,1-2.78.85c-2.27-.11-4.19-1.53-6.46-1.77a19.15,19.15,0,0,0-7.12.09c-.61.17-2.45.86-1.21,1.51s3,.45,4.34.5c.62,0,1.23,0,1.84.1,2.16.21,5.49-.08,5.31,2.62-.12,1.86-1.32,3.76-2.83,4.1a19.8,19.8,0,0,1-4.46.45,7.63,7.63,0,0,1-3.22-.71c-.29-.13-1.16-.69-1.44-.3-.48.66,1.28,1.78,1.74,2a10.43,10.43,0,0,0,3.31.76c2.82.31,5.73.17,7.33-2.42.93-1.51,1.4-3.27,2.26-4.81,1.41-2.53,2.06.9,2.5,2.41A7.94,7.94,0,0,0,39,38.57a5.75,5.75,0,0,0,4.2,2c.92,0,4.21-.45,4.87-1.11.91-.91-1.4-.07-2-.31a5.37,5.37,0,0,0-1.39-.06A11.24,11.24,0,0,1,42.88,39a5.32,5.32,0,0,1-2.09-.9,4.2,4.2,0,0,1-1.08-1.18,3.73,3.73,0,0,1-.21-3.18c.52-1.43,2.09-1.54,3.39-1.65,1.59-.13,3.18-.1,4.75-.24a18.35,18.35,0,0,1,2.1.06c.9,0,2.85-.24,1.78-1.56S48.48,29,47,29.11Z" transform="translate(0.01 0)"/><path class="cls-23" d="M20.13,29c-1.87.06-3.46-.46-3.9-.09s.42,2.15.42,2.15a3.24,3.24,0,0,0,1.47.49c.12,1.3,0,4.64,2.41,6.76,2,1.76,8.46,2.28,10.48,1.27a7.78,7.78,0,0,0,4-5.87C36.11,28.09,22.75,28.93,20.13,29Zm11,9.07c-2.46,1.58-8.76.82-10.39-1.2-1.26-1.57-1.48-4.83-.71-5.3,2.37-1.41,11.23-.85,13.28.72C34.31,33.06,33,36.87,31.14,38.08Z" transform="translate(0.01 0)"/><path class="cls-23" d="M50.68,28.55c-2.38,0-14.46-.45-13.32,5.14.47,2.28,1.5,4.58,3.79,5.75,1.84,1,7.68.25,9.42-1.57,2.08-2.19,1.92-5.53,2-6.82a2.73,2.73,0,0,0,1.3-.54s.86-1.69.33-2.16S52.36,28.56,50.68,28.55Zm-.35,7.88c-1.41,2.07-7.08,3-9.35,1.5-1.72-1.15-3-4.92-2.12-5.71,1.8-1.63,9.79-2.45,12-1.1C51.53,31.56,51.43,34.83,50.33,36.43Z" transform="translate(0.01 0)"/><path class="cls-24" d="M40.42,31.72C39.1,32.29,41.49,33,42,33.06a18,18,0,0,0,5.7-.21c1-.19,3.14-1.1,2.52-1.65C49.36,30.43,41.87,31.09,40.42,31.72Z" transform="translate(0.01 0)"/><path class="cls-3" d="M46.29,31.39c-.71.11-1.18.32-1,.64.38.64,4.57.28,4.86-.21S47.81,31.15,46.29,31.39Z" transform="translate(0.01 0)"/><path class="cls-25" d="M41.75,36.61c-.45,0-.76.07-.69.36.16.55,2.76.91,3,.57S42.71,36.65,41.75,36.61Z" transform="translate(0.01 0)"/><path class="cls-25" d="M22.2,36.41c-.47-.07-.81,0-.76.27.08.57,2.76,1.25,3,.94S23.19,36.57,22.2,36.41Z" transform="translate(0.01 0)"/><path class="cls-24" d="M32.34,32c-1.67-.6-9.93-1.23-10.78-.5-.61.52,1.84,1.39,3,1.57a22.82,22.82,0,0,0,6.25.2C31.31,33.17,33.84,32.51,32.34,32Z" transform="translate(0.01 0)"/><path class="cls-3" d="M28.75,31.48c-.76,0-1.28.18-1.12.52.33.67,4.76.84,5.12.39S30.37,31.43,28.75,31.48Z" transform="translate(0.01 0)"/><path class="cls-23" d="M38.93,30.32a7.09,7.09,0,0,1-5.81.06c-1.81-.65,1,1.18,1.16,2.12s-.1,3.82.53,2.11,1.9-1.83,2.71-.25.75-2.63,1.08-3S40.66,29.53,38.93,30.32Z" transform="translate(0.01 0)"/><path class="cls-26" d="M21,29.57c5,.26,9,.41,12.08,1.59C31.1,29.52,27.69,29.16,21,29.57Z" transform="translate(0.01 0)"/><path class="cls-26" d="M50.25,29c-6.14.21-9,.25-10.66,1.81C42.26,29.54,45.69,29.63,50.25,29Z" transform="translate(0.01 0)"/><path class="cls-5" d="M27.61,56.52a5.25,5.25,0,0,0-2.92,3.26A38.61,38.61,0,0,0,23.45,66h3.43a18.9,18.9,0,0,1,.74-4.08C28,60.79,27.82,56.43,27.61,56.52Z" transform="translate(0.01 0)"/><path class="cls-5" d="M39.57,56.52c-.22-.09-.39,4.27,0,5.4A18.33,18.33,0,0,1,40.3,66h3.43a39.74,39.74,0,0,0-1.24-6.22A5.27,5.27,0,0,0,39.57,56.52Z" transform="translate(0.01 0)"/></g></g></g></svg>