<svg xmlns="http://www.w3.org/2000/svg" xmlns:xlink="http://www.w3.org/1999/xlink" viewBox="0 0 66 66"><defs><style>.cls-1{fill:none;}.cls-2{clip-path:url(#clip-path);}.cls-3{fill:#d6bb40;}.cls-4{fill:#3a3a4a;}.cls-5{fill:#535363;}.cls-6{fill:#23232d;}.cls-7{fill:#e88e61;}.cls-8{fill:#eba971;}.cls-9{fill:#d99a64;}.cls-10{fill:#ffbc82;}.cls-11{fill:#b54319;opacity:0.5;}.cls-12{fill:#e85216;}.cls-13{fill:#ffd4ad;}.cls-14{fill:#c93712;}.cls-15{fill:#c26346;}.cls-16{fill:#261b18;}.cls-17{fill:#e6d2c3;}.cls-17,.cls-22{opacity:0.7;}.cls-18{fill:#8e9194;}.cls-19,.cls-21,.cls-22{fill:#fff;}.cls-19,.cls-20{opacity:0.3;}.cls-20{fill:#b54d26;}.cls-23{fill:#c1c5c9;}</style><clipPath id="clip-path" transform="translate(0.01)"><circle class="cls-1" cx="33" cy="33" r="33"/></clipPath></defs><g id="Layer_2" data-name="Layer 2"><g id="avatars"><g class="cls-2"><rect class="cls-3" width="66" height="66"/><path class="cls-4" d="M41.86,64.23c0-4.52,4.39-7.24,1.93-9.06-6.1-4.51-16.2-3.23-21.28,0-2.33,1.47,1.71,4.69,1.81,9.06q0,.93.06,1.77H41.83C41.84,65.43,41.86,64.84,41.86,64.23Z" transform="translate(0.01)"/><path class="cls-5" d="M22.9,51.39C21,54.1,25.11,56.87,33.06,56.87c8.61,0,12.14-2.61,10.26-5.48C37.17,42,28.89,43.06,22.9,51.39Z" transform="translate(0.01)"/><path class="cls-6" d="M26.23,51.73c-2.28,2.7,2.34,4.1,6.82,4.16s8.05-1.27,7.18-3.7C39.21,49.3,28.27,49.31,26.23,51.73Z" transform="translate(0.01)"/><path class="cls-7" d="M33,48.26c-2,0-4.77,1-5,3.5a2.65,2.65,0,0,0,.85,2.53A6.67,6.67,0,0,0,33,56.21a6.67,6.67,0,0,0,4.13-1.92A2.68,2.68,0,0,0,38,51.76C37.77,49.22,35,48.26,33,48.26Z" transform="translate(0.01)"/><path class="cls-5" d="M28.07,56.06A13.19,13.19,0,0,0,25,62a.42.42,0,0,0,.3.52l.11,0a.44.44,0,0,0,.42-.32,12.36,12.36,0,0,1,2.86-5.59.42.42,0,0,0,0-.6A.43.43,0,0,0,28.07,56.06Z" transform="translate(0.01)"/><path class="cls-5" d="M38.07,56.06a.43.43,0,0,0-.62.59,12.46,12.46,0,0,1,2.87,5.59.43.43,0,0,0,.41.32l.11,0a.43.43,0,0,0,.31-.52A13.3,13.3,0,0,0,38.07,56.06Z" transform="translate(0.01)"/><path class="cls-4" d="M28.09,51c-1.75.67-3.24,5.55,5.26,5.43C35,56.37,28.1,56,28.09,51Z" transform="translate(0.01)"/><path class="cls-4" d="M37.87,51c.66,4.76-6.88,5.4-5.26,5.43C41.11,56.52,39.62,51.64,37.87,51Z" transform="translate(0.01)"/><path class="cls-8" d="M48.08,33.58c-1.52-.61-2.48.43-3,2.47-.2.81-.79,5.15-.42,6,0,0,0,.07.05.1a4.92,4.92,0,0,0,2.57-.23C49.89,40.79,51.25,34.87,48.08,33.58Z" transform="translate(0.01)"/><path class="cls-9" d="M16.86,20.66c-1.31,4.58-1.24,11.15,1.06,15.73,1.21,2.39,4.08.79,6.11.29,2.49-.62,5-1.18,7.51-1.73,4.13-.91,8.65,0,12.84.39,3.27.31,3.51,1.85,3.52-.82,0-3.31.59-8.71,0-12.39C45.19,5.12,20.46,8.08,16.86,20.66Z" transform="translate(0.01)"/><path class="cls-10" d="M31.15,14.79c-11.69,1.59-13.54,12.28-12.4,22.76.85,7.85,6.65,16.6,15.76,16.2C43.8,53.34,48.72,42,47.79,32.31,46.77,21.82,44.51,13,31.15,14.79Z" transform="translate(0.01)"/><path class="cls-10" d="M16.2,33.14c-3.9,1-2,8.38.9,10a2,2,0,0,0,3-1.13c.66-1,.28-3.85-.39-6.31C19.2,33.74,18.07,32.67,16.2,33.14Z" transform="translate(0.01)"/><path class="cls-11" d="M17.45,35.21c-.85-.42-3,.23-2,1.93.57-1.53,1.48-.49,1.31.6-.12.74-.91.73-.15,1.7.41.52,1.28.35,1.73.09C19.7,38.7,18.48,35.72,17.45,35.21Z" transform="translate(0.01)"/><path class="cls-12" d="M32.29,12.74C22.81,12.66,16.07,19.47,16.7,33a2.39,2.39,0,0,1,1.79.57,4.62,4.62,0,0,1,1,2c.1.22.21.58,1,.54-1.41-4.56-.51-11.49,1-13.57,3.85-5.15,10,.69,14.74.58,3.76-.09,7.87-4.92,9.93,0C47.55,26.49,47.51,12.86,32.29,12.74Z" transform="translate(0.01)"/><path class="cls-6" d="M17.92,40.56a1,1,0,1,0,1,1A1,1,0,0,0,17.92,40.56Z" transform="translate(0.01)"/><path class="cls-11" d="M35.58,38.14c-1.21,0-1.71-.5-2.55,0s.42,2.11,2.57,2,3-1.62,2.58-2.16S36.93,38.1,35.58,38.14Z" transform="translate(0.01)"/><path class="cls-13" d="M35,32.66c-1,.16-2.18,5.45-1.63,5.83A4.54,4.54,0,0,0,38.18,38C38.46,37.66,36.14,32.49,35,32.66Z" transform="translate(0.01)"/><path class="cls-14" d="M25.54,26.12A8,8,0,0,0,22,27c-.85.4-.7,1.16.06,1.07s1.5-.28,1.79-.32a6.22,6.22,0,0,1,3.71.66c.56.33,1.87,1.08,2.41.33C31,27.25,26.44,26.23,25.54,26.12Z" transform="translate(0.01)"/><path class="cls-14" d="M47.11,27.4a6.55,6.55,0,0,0-3.28-1c-.81.08-5,1-4.12,2.52.46.76,1.69,0,2.21-.27a5.27,5.27,0,0,1,3.41-.57c.26.05,1,.25,1.6.36S47.82,27.79,47.11,27.4Z" transform="translate(0.01)"/><path class="cls-13" d="M46.45,37.2a3.48,3.48,0,0,0-2.85-1.05c-1.21,0-2.82.43-1.73,2.16.58.92,5.42,1.59,4.84-.53A1.8,1.8,0,0,0,46.45,37.2Z" transform="translate(0.01)"/><path class="cls-13" d="M27.36,36.56a3.66,3.66,0,0,0-3.15-.44c-1.25.26-2.8,1.07-1.29,2.6.8.82,5.91.42,4.85-1.63A2,2,0,0,0,27.36,36.56Z" transform="translate(0.01)"/><path class="cls-15" d="M25,41.1c.61,2.14,3.07,1.4,2.44-.79A1.74,1.74,0,0,1,25,41.1Z" transform="translate(0.01)"/><path class="cls-15" d="M41.93,40.9C41.07,43,43.44,44,44.27,42A1.74,1.74,0,0,1,41.93,40.9Z" transform="translate(0.01)"/><path class="cls-15" d="M42.8,42.29a.63.63,0,0,0-.83.3c-.78,1.66-1.48,1.51-3.17,1.15a14.36,14.36,0,0,0-2.44-.36,19,19,0,0,0-4,.37c-3,.5-4.44.63-5.31-1.85a.62.62,0,0,0-.8-.38.63.63,0,0,0-.38.79,3.87,3.87,0,0,0,4,3A16.7,16.7,0,0,0,32.6,45a17.49,17.49,0,0,1,3.71-.35,12.54,12.54,0,0,1,2.22.33c1.73.37,3.37.72,4.57-1.83A.63.63,0,0,0,42.8,42.29Z" transform="translate(0.01)"/><path class="cls-16" d="M25.86,30.77C23.61,30,22.52,34,24.1,35.11a3.17,3.17,0,0,1,2.17,0C27.68,34.28,27.53,31.35,25.86,30.77Z" transform="translate(0.01)"/><path class="cls-16" d="M45.12,31.1C42.93,29.71,41.18,34,43,35.22a2.86,2.86,0,0,1,2.31.06C46.21,34.31,46.29,31.85,45.12,31.1Z" transform="translate(0.01)"/><path class="cls-17" d="M25.13,31.5c-.86.37-.06,2,.76,1.35C26.48,32.35,25.9,31.18,25.13,31.5Z" transform="translate(0.01)"/><path class="cls-17" d="M44.23,31.55c-.88.15-.5,1.88.4,1.42C45.29,32.64,45,31.42,44.23,31.55Z" transform="translate(0.01)"/><path class="cls-18" d="M38.8,9.55C27.78,5.3,17,12,14.4,18.57c-2.24,5.6.49,7.08.49,7.08s-.93,1.29-.18,3.81a7.09,7.09,0,0,1,.14,3.9c-.22,1.11,1.76-.86,3.89.51C19.28,25,24,18.2,36.56,18.8c13.11.61,11.09,11.1,11.23,14.69,0,0,.68.62,1-.49S51.92,14.6,38.8,9.55Z" transform="translate(0.01)"/><path class="cls-19" d="M42.09,15.07a19,19,0,0,0-3.1-.45c-.52-.06-2.53-.69-2.89-.5,1.09-.56,2-.31,3.16-.26,1.32.07,3.32.09,2-1.5A7.37,7.37,0,0,0,38.5,10.6,19.78,19.78,0,0,0,30,9.41a15.86,15.86,0,0,0-10.77,4.94c-1.34,1.43-1.14,3.13,1,2.75,1.59-.28,2.89-1.41,4.29-2.13a7.36,7.36,0,0,1,5.49-.35,15.29,15.29,0,0,0-2.77.48A13.68,13.68,0,0,0,19.81,20a7.57,7.57,0,0,0-1.69,3.81c-.05.47-.33,2.79.74,2.36.56-.24.51-1.89.52-2.32,1.25.33.72-1.05.88-2,1.8,1.2.81-.94,1-2.07.38.23.95,1.32,1.48,1.06s-.29-1.79.23-2.05,1.24,1.25,2,1,.38-1.35.55-1.88c.46.19,1.18,1.33,1.72,1.07s0-1.52.11-1.89c1.1.3,1.76,2.33,2.27.38.13-.53,0-1.07.62-1.09s1.08,1.36,1.65,1.37c.87,0,0-1.87.76-2.05s1.38,1.69,2.21,1.74c.25-.73.36-2.74,1.24-1.53.34.47,1.38,2.83,2.39,1.85.4-.39-.19-1.8.59-1.83s1.1,1.75,1.38,2.18,1,1,1.41.45c.31-.38-.19-1,.22-1.45.9-.93.92,2,1.68,2.2,1.15.34.86-1.23,1.25-1.73,1.19.74.19,4.31,2.33,4.2.29-1.43-.73-2.89-1.49-4A6.4,6.4,0,0,0,42.09,15.07Z" transform="translate(0.01)"/><path class="cls-4" d="M44.55,55.65a2.26,2.26,0,0,0-3,3.37c1.49,1.34,3.15,3.42,2.54,5.66A4.41,4.41,0,0,1,43.45,66H48.4s0-.09,0-.14C49,63.84,49.2,59.83,44.55,55.65Z" transform="translate(0.01)"/><path class="cls-4" d="M24.84,59a2.26,2.26,0,0,0-3-3.37c-4.65,4.18-4.43,8.19-3.89,10.21,0,0,0,.09,0,.14h5a4.21,4.21,0,0,1-.63-1.32C21.7,62.44,23.35,60.36,24.84,59Z" transform="translate(0.01)"/><path class="cls-20" d="M46.05,28.71a20.88,20.88,0,0,0-4.24.56,17.68,17.68,0,0,0-3.67.95,4.22,4.22,0,0,1-2.7.76c-2.21-.14-4-1.57-6.26-1.85a18.57,18.57,0,0,0-6.93-.06c-.6.15-2.4.78-1.21,1.44s2.93.5,4.21.58c.6,0,1.2.07,1.79.14,2.1.24,5.35,0,5.12,2.66-.16,1.8-1.37,3.63-2.85,3.93a19.26,19.26,0,0,1-4.35.34,7.5,7.5,0,0,1-3.12-.75c-.28-.14-1.11-.7-1.39-.33-.48.64,1.2,1.76,1.65,2a10.1,10.1,0,0,0,3.21.8c2.74.36,5.57.29,7.19-2.2.93-1.44,1.43-3.15,2.3-4.63,1.43-2.43,2,.92,2.39,2.4a7.81,7.81,0,0,0,1,2.33,5.36,5.36,0,0,0,3.95,2.06,5.75,5.75,0,0,0,2.6-.29c.5-.19.72-.78.13-1a4.79,4.79,0,0,0-1.31-.08,11.26,11.26,0,0,1-1.65-.18,4.81,4.81,0,0,1-2-.92,3.89,3.89,0,0,1-1-1.17,3.73,3.73,0,0,1-.14-3.1c.52-1.38,2-1.46,3.26-1.53,1.5-.1,3,0,4.51-.13a14.66,14.66,0,0,1,2,.1c.86.05,2.71-.19,1.72-1.48S47.44,28.67,46.05,28.71Z" transform="translate(0.01)"/><path class="cls-4" d="M19.87,28.77c-1.81.12-3.37-.33-3.79.05s.49,2.08.49,2.08a3.1,3.1,0,0,0,1.44.43c.16,1.26.2,4.51,2.58,6.49,2,1.65,8.31,1.93,10.24.87a7.57,7.57,0,0,0,3.7-5.85C35.39,27.32,22.43,28.6,19.87,28.77Zm11,8.44c-2.34,1.63-8.5,1.11-10.16-.8-1.28-1.48-1.6-4.65-.87-5.13,2.25-1.46,10.9-1.22,13,.23C33.82,32.22,32.69,36,30.91,37.21Z" transform="translate(0.01)"/><path class="cls-4" d="M49.64,28.75C47.39,28.6,36,27.45,36.73,33,37,35.2,37.88,37.49,40,38.77c1.7,1,7.26.69,9-1,2.1-2,2.14-5.25,2.29-6.51a2.59,2.59,0,0,0,1.27-.44s.9-1.59.43-2.08S51.23,28.85,49.64,28.75Zm-.78,7.64c-1.47,1.93-6.88,2.5-9,.9-1.56-1.22-2.56-5-1.68-5.68,1.8-1.47,9.42-1.79,11.4-.35C50.27,31.73,50,34.9,48.86,36.39Z" transform="translate(0.01)"/><path class="cls-19" d="M39.74,31.21c-1.28.48.94,1.3,1.42,1.4a16.56,16.56,0,0,0,5.41.13c1-.12,3-.87,2.48-1.44C48.28,30.5,41.15,30.69,39.74,31.21Z" transform="translate(0.01)"/><path class="cls-21" d="M45.32,31.25c-.68.06-1.14.24-1,.56.33.64,4.32.54,4.62.08S46.77,31.1,45.32,31.25Z" transform="translate(0.01)"/><path class="cls-22" d="M40.89,35.9c-.43,0-.72.06-.66.33.14.55,2.6,1,2.83.63S41.8,36,40.89,35.9Z" transform="translate(0.01)"/><path class="cls-22" d="M22.15,35.9c-.46,0-.79,0-.74.29.11.56,2.74,1.12,3,.81S23.12,36,22.15,35.9Z" transform="translate(0.01)"/><path class="cls-19" d="M31.86,31.23c-1.64-.52-9.7-.85-10.5-.11-.58.53,1.83,1.28,2.92,1.42a22.14,22.14,0,0,0,6.09,0C30.9,32.43,33.34,31.7,31.86,31.23Z" transform="translate(0.01)"/><path class="cls-21" d="M28.35,30.88c-.74.05-1.24.21-1.07.54.34.65,4.66.65,5,.2S29.92,30.77,28.35,30.88Z" transform="translate(0.01)"/><path class="cls-4" d="M38.48,29.73a9.59,9.59,0,0,1-5.79,0c-1.8-.55.92,1.11,1.11,2s-.16,3.89.49,2.23,1.86-1.69,2.59-.14.9-2.48,1.22-2.84S40.22,29.23,38.48,29.73Z" transform="translate(0.01)"/><path class="cls-23" d="M20.74,29.28c4.9.08,8.82.09,11.82,1.13C30.57,28.89,27.24,28.65,20.74,29.28Z" transform="translate(0.01)"/><path class="cls-23" d="M39,30.27c2.59-1.06,5.84-.77,10.2-1.12C43.38,29,40.67,28.86,39,30.27Z" transform="translate(0.01)"/></g></g></g></svg>