<svg xmlns="http://www.w3.org/2000/svg" xmlns:xlink="http://www.w3.org/1999/xlink" viewBox="0 0 96 96"><defs><style>.cls-1{fill:none;}.cls-2{clip-path:url(#clip-path);}.cls-22,.cls-23,.cls-3,.cls-9{fill:#fff;}.cls-4{fill:#d47844;}.cls-5{fill:url(#linear-gradient);}.cls-6{fill:#765aa3;}.cls-7{opacity:0.1;}.cls-8{fill:#bba7db;}.cls-9{opacity:0.07;}.cls-10{fill:#231e1a;}.cls-11{fill:#f06799;}.cls-12,.cls-13{fill:#661004;}.cls-12,.cls-22{opacity:0.3;}.cls-13{opacity:0.2;}.cls-14{fill:#423631;}.cls-15{fill:#1a1614;}.cls-16{fill:#2b241e;}.cls-17{fill:#a88686;}.cls-18{fill:#d4502c;}.cls-19{fill:#66241b;}.cls-19,.cls-23{opacity:0.7;}.cls-20{fill:#611f16;}.cls-21{fill:#3a3a4a;}</style><clipPath id="clip-path"><circle class="cls-1" cx="48" cy="48" r="48"/></clipPath><linearGradient id="linear-gradient" x1="48.26" y1="71.81" x2="48.26" y2="79.37" gradientUnits="userSpaceOnUse"><stop offset="0" stop-color="#c25421"/><stop offset="1" stop-color="#d47844"/></linearGradient></defs><g id="Layer_2" data-name="Layer 2"><g id="Layer_4" data-name="Layer 4"><g class="cls-2"><rect class="cls-3" width="96" height="96"/><path class="cls-4" d="M41.41,81.3a2.29,2.29,0,0,0,2-2.55,2.26,2.26,0,0,0-2.5-2c-5.15.62-6.1,5.31-6.86,9.07-.46,2.24-1.89,7.54-2.78,10.19h4.84c.87-2.57,2-7.62,2.35-9.26C39.25,82.7,39.74,81.5,41.41,81.3Z"/><path class="cls-4" d="M55.64,76.74a2.3,2.3,0,0,0-.53,4.56c1.67.2,2.16,1.4,3,5.44.33,1.64,1.47,6.69,2.35,9.26h4.83c-.89-2.65-2.32-8-2.77-10.19C61.73,82.05,60.78,77.36,55.64,76.74Z"/><path class="cls-5" d="M53.22,75.33c-3.15-1.37-1-5.14-5.15-5.14s-2.24,4.24-5.18,5.35c-6.86,2.6-6.81,6.58-2.75,10.64s11.2,4.65,16.77-.39S56.37,76.7,53.22,75.33Z"/><path class="cls-6" d="M56.7,89.36c2.89-6.48-.15-9.9-1.67-13.37a7.71,7.71,0,0,0-1.85-.86c.57,2.55,1.43,8.73-4.92,8.73s-5.8-5.12-5.34-8.54a2.14,2.14,0,0,0-1.39.64c-1.8,5.46-4.8,7-2,13.59A18.18,18.18,0,0,1,41.12,96H54.77A18,18,0,0,1,56.7,89.36Z"/><path class="cls-7" d="M42.28,90.44c.64,1.08,2.59,1.07,4.13,1.35-.27,0-.53.14-.81.18a12.75,12.75,0,0,0,6.24-.41c.58-.18,2.16-1.15,2.47-1.19a45.29,45.29,0,0,1-6.37.38C46,90.71,44.15,90.47,42.28,90.44Z"/><path class="cls-8" d="M52.68,74.46a.69.69,0,0,0-.52.83c.29,1.29,1.06,4.74-.4,6.56a4.26,4.26,0,0,1-3.5,1.31c-1.78,0-3-.41-3.77-1.24-1.23-1.41-.88-4-.6-6l.06-.44a.7.7,0,0,0-.59-.78.71.71,0,0,0-.78.6l-.06.43c-.32,2.33-.72,5.23.92,7.12,1,1.14,2.62,1.72,4.82,1.72a5.54,5.54,0,0,0,4.58-1.83c1.88-2.34,1-6.26.67-7.74A.7.7,0,0,0,52.68,74.46Z"/><path class="cls-8" d="M41.25,75.71a.68.68,0,0,0-.87.44c-.44,1.34-.9,2.39-1.3,3.32a13.32,13.32,0,0,0-1.39,5,.68.68,0,0,0,.65.72h0a.7.7,0,0,0,.69-.66A12.13,12.13,0,0,1,40.35,80a36.85,36.85,0,0,0,1.34-3.44A.69.69,0,0,0,41.25,75.71Z"/><path class="cls-8" d="M55.91,76.15a.7.7,0,0,0-.88-.44.69.69,0,0,0-.44.87c.46,1.4.93,2.48,1.34,3.44a12.13,12.13,0,0,1,1.28,4.49.7.7,0,0,0,.69.66h0a.68.68,0,0,0,.65-.72,13.14,13.14,0,0,0-1.39-5C56.8,78.54,56.35,77.49,55.91,76.15Z"/><path class="cls-9" d="M52.7,84.14c-3.13,1.07-6.93.64-10.13-.12-1.84-.44-2.88,1.57-2.32,3.27.74,2.27,4.56,2.85,7.89,2.79,6.56-.12,9-2.47,7.93-5.26C55.78,84.07,54.38,83.57,52.7,84.14Z"/><path class="cls-10" d="M47.84,14.9c-8-9.36-25.19,1.56-31.81,7-8.46,7-19.62,22-8,21.65C5.5,46.6,4.4,52.71,9.1,53.74c-1.89,3.2-.73,7,3.37,7.21-.53,3.82,2.47,6.21,6.2,5,1.2,3.69,5,4.3,7.64,2,2.45,9.45,15.06-5.33,23.61-5.5,7.71-.14,21,13.95,21,3.07,2.59,2,6.5,1.43,6.14-3.23,3.55,2.63,8-.78,6-4.33,4.22,1.19,4.55-3.55,2.87-6.73,4.45,1.13,4.52-4.63,1.2-6.5,7,0,3-7.15,1.07-11.05C83.25,23.33,60,1,47.84,14.9Z"/><path class="cls-11" d="M67.06,53.76a2,2,0,1,0,1.82,1.74A1.79,1.79,0,0,0,67.06,53.76Z"/><path class="cls-4" d="M45.88,21.68c-11.54,1.25-20.22,11.48-19,27.46S38.55,74.83,50.15,75c8.9.1,19.4-14.77,17.69-30.7C66.16,28.55,57.41,20.44,45.88,21.68Z"/><path class="cls-4" d="M22.76,45c-5.1,2.43-2.43,11.28,1.94,12.53a8.73,8.73,0,0,0,4.25,0c0-.06.05-.11.07-.17.55-1.27-.95-7.2-1.35-8.41C26.66,45.88,25.21,43.83,22.76,45Z"/><path class="cls-12" d="M25.8,48.06c-1.41-.73-5,.3-3.38,3.18.94-2.56,2.47-.78,2.19,1-.19,1.24-1.51,1.19-.23,2.84.69.89,2.13.64,2.87.21C29.59,54,27.52,48.94,25.8,48.06Z"/><path class="cls-11" d="M26.78,56.12A2,2,0,0,0,26.94,60a2,2,0,0,0-.16-3.86Z"/><path class="cls-13" d="M59.89,22.45A58.59,58.59,0,0,0,41,24.29c-9.54,2.63-16.74,13.32-15.69,23.24.35,3.25,1.66,12.45,5.38,7.88,2.2-2.72.9-9-.12-12,2.41,1.15,3.63-3.61,3.49-5.9,5.55,5,10.56-13.64,19.38-6.31,2.12,1.76,4.65,6.16,7,5.57s1.64-2.26,1.72-3.6c.76,1.92,3.09,3.75,4.48,3.07,2.44-1.2,1.26-7.2,1-9.16C67,23.15,63.24,22.65,59.89,22.45Z"/><path class="cls-10" d="M61.88,20.43C50.62,15.58,39.34,18.87,29,24.14a12.55,12.55,0,0,0-5.34,5.19c-2.18,4.06,0,14.4,2.17,22.71,1.1,4.17,2.77,5.11,4.07,1.28.89-2.61-.35-8.51,0-13.27.25,1.37.73,3.08,2.18,2.62s1.3-5.22,1.55-8.14c1.56,6.21,9.59-3.89,11.38-5.31,5-4,6.86-1.73,10.46,1.8,1.66,1.62,3.49,4.82,5.34,4,1.45-.65,1-3.22,1.06-4.63a9.61,9.61,0,0,0,4.13,4.83c1.72,1,3.37-2.88,1.44-8.19C66.33,24.22,64.67,21.63,61.88,20.43Z"/><path class="cls-14" d="M51.24,20.71l-.07-.09s0,0,0,.06S51.25,20.75,51.24,20.71Z"/><path class="cls-14" d="M71.59,18.62c-3.43-2.35-7.72-4.65-11.92-5.17a7.89,7.89,0,0,0-6,1.35c-1.13.91-3.3,4.2-2.46,5.82l.07.09s0,0-.05,0,0,0,0-.06C41,3.94,20.86,20.63,12.16,30c-2,2.15-7.29,6.79-4.53,8.78s13-9.53,17.4-12.59c-2.11,1.79-10.23,9.89-8.47,13,2,3.47,7.75-4.11,9.68-6.15-1.29,2.12-2.54,7.1-.68,7.56s3.8-4.61,4.88-7.23c-.32,1.35-1.14,5.17.47,5.17s2-6.9,3.18-9.88c.3,7.69,7.33-1.61,9.2-3.05,4-3.06,5.55-3.28,9.75-.46,2.19,1.48,3.86,5.46,5.94,5.39s1.92-3.66,1.38-5.81c1.22,2.72,5.56,10.54,6.67,3.58,1.13,4.55,10,17.3,7.65,5.85.84,2.1,4.76,8.14,7.47,6,2.52-1.95-4.82-9.71-3.61-10.62,1,1.48,3.41,4.15,5.28,2.14C86,29.36,72.89,19.52,71.59,18.62Z"/><path class="cls-15" d="M41.36,45.92c-3-1-4.42,4.39-2.26,5.91a4.22,4.22,0,0,1,2.93,0C43.91,50.61,43.63,46.66,41.36,45.92Z"/><path class="cls-15" d="M63.32,45.32c-3-1.6-5.5,4.68-2.16,5.46a4,4,0,0,1,2.61-.45C64.88,49,64.94,46.18,63.32,45.32Z"/><path class="cls-16" d="M63.12,41c-1.74-.09-5.31.41-7,.12.58,2.45,2,2.59,4.12,2.34,2.68-.32,6.88-.17,7.84.24C67.21,41.68,64.6,41.05,63.12,41Z"/><path class="cls-16" d="M38.59,41.7c-1.63.12-4.47.83-5.27,2.84,1-.44,5.63-.72,8.61-.48,2.37.19,3.89,0,4.41-2.46C44.45,41.94,40.5,41.55,38.59,41.7Z"/><path class="cls-12" d="M52.32,55.64c-1.08.11-1.56-.29-2.27.19s1.1,1.79,2.42,1.55c1.5-.27,2.6-1.62,2.14-2S53.51,55.51,52.32,55.64Z"/><path class="cls-15" d="M33,47.48a5.48,5.48,0,0,0,6.92.27l-.46-1.54S36.58,49.36,33,47.48Z"/><path class="cls-15" d="M63.4,45.41,63,46.79c3.78,2.58,6.23,0,6.23,0C66.37,48.09,63.4,45.41,63.4,45.41Z"/><path class="cls-17" d="M40,46.85c-1.15.51,0,2.74,1.05,1.79C41.84,48,41,46.39,40,46.85Z"/><path class="cls-17" d="M61.85,46c-1.15.29-.47,2.52.67,1.81C63.35,47.28,62.86,45.71,61.85,46Z"/><path class="cls-18" d="M62.7,53c-1.65.17-2.89,1.21-2.77,2.32s1.55,1.88,3.2,1.71,2.9-1.21,2.78-2.32S64.36,52.86,62.7,53Z"/><path class="cls-18" d="M38.73,54.09c-1.82-.12-3.37.79-3.45,2s1.32,2.32,3.15,2.43,3.37-.79,3.45-2S40.55,54.21,38.73,54.09Z"/><path class="cls-19" d="M37.92,60.22c1.47,2.66,4.83,1.25,3.31-1.46A2.51,2.51,0,0,1,37.92,60.22Z"/><path class="cls-19" d="M60.31,57.7c-.67,2.89,3,3.76,3.68.94A2.8,2.8,0,0,1,60.31,57.7Z"/><path class="cls-20" d="M61.94,59.12a.78.78,0,0,0-1,.46c-1.23,3.89-5.2,6.56-9.9,6.67a10.5,10.5,0,0,1-9.81-5.35.89.89,0,0,0-1.07-.41.68.68,0,0,0-.4.95,12.13,12.13,0,0,0,11,6.27h.43c5.41-.13,9.9-3.16,11.32-7.66A.76.76,0,0,0,61.94,59.12Z"/><path class="cls-21" d="M54.66,44.22c-1.52,1.64-.63,7,.42,8.75s11.74,1.73,14.31.82,4.54-7.18,2.66-9.64S56.89,41.81,54.66,44.22Zm14.11,8.4c-1.93.64-11.48.66-12.4-.48s-1.35-6-.27-7.07c1.59-1.63,12.78-1.61,14.43,0S70.7,52,68.77,52.62Z"/><path class="cls-21" d="M28.73,45.23c-1.92,1.72.2,7.2,1.88,8.86s14.06.72,16.53-.3,2.36-7,.2-9.37S31.57,42.7,28.73,45.23Zm17.35,7.54c-1.85.69-12.56,1.39-14,.36s-3.13-5.87-1.77-7c2-1.66,13.83-2.27,15.66-.82S47.94,52.08,46.08,52.77Z"/><path class="cls-21" d="M48.79,47.58c-.27.12-1.36,1.54-.56,1.85a7.54,7.54,0,0,1,6.08-.55c.46.15.89.1.73-.45C54.43,46.38,50.41,46.83,48.79,47.58Z"/><path class="cls-22" d="M62.77,44.28c-.72.18-5.65,1.11-4.68,3.15.63,1.35,12.13,2.06,12.86-.21C72.45,42.58,64.18,43.92,62.77,44.28Z"/><path class="cls-22" d="M45.13,44.61c-1.88-.49-5.85-.13-8.13.26-.82.14-4.6.76-3.26,2.93s10.88,2.36,12.59.47S46.24,44.9,45.13,44.61Z"/><path class="cls-3" d="M63.57,44.61c-1.23.06-2.07.32-1.8.88.55,1.09,7.79,1.22,8.36.48S66.23,44.48,63.57,44.61Z"/><path class="cls-23" d="M58.11,50.68c-.76-.07-1.31,0-1.2.52.2.92,4.64,1.73,5.08,1.2S59.76,50.83,58.11,50.68Z"/><path class="cls-3" d="M39.89,44.87c-1.22.08-2,.33-1.75.83.56,1,7.66,1,8.21.31S42.49,44.71,39.89,44.87Z"/><path class="cls-23" d="M32.77,51.42c-.76-.05-1.29.07-1.18.5.23.84,4.59,1.51,5,1S34.38,51.53,32.77,51.42Z"/></g></g></g></svg>