<svg xmlns="http://www.w3.org/2000/svg" xmlns:xlink="http://www.w3.org/1999/xlink" viewBox="0 0 66 66"><defs><style>.cls-1{fill:none;}.cls-2{clip-path:url(#clip-path);}.cls-3{fill:#fff;}.cls-4{fill:#ffc38f;}.cls-5{fill:#f0f0f0;}.cls-6{fill:#e62628;}.cls-7{fill:#3a3a4a;}.cls-8{opacity:0.1;}.cls-9{fill:#fbfbfb;}.cls-10{fill:url(#linear-gradient);}.cls-11{fill:#c93712;}.cls-12{fill:#fff9f0;}.cls-13{fill:#d15426;opacity:0.3;}.cls-14{fill:#bf3c1b;opacity:0.2;}.cls-15{fill:#e85216;}.cls-16{fill:#ff7752;}.cls-17{fill:#1c5c57;}.cls-18{fill:#6cd9d2;opacity:0.7;}.cls-19{fill:#121b21;}.cls-20{fill:#f04d4d;}</style><clipPath id="clip-path" transform="translate(0)"><circle class="cls-1" cx="33" cy="33" r="33"/></clipPath><linearGradient id="linear-gradient" x1="34.58" y1="50.18" x2="34.58" y2="55.12" gradientUnits="userSpaceOnUse"><stop offset="0" stop-color="#ee996d"/><stop offset="0.02" stop-color="#ee9a6e"/><stop offset="0.37" stop-color="#f8b181"/><stop offset="0.71" stop-color="#fdbf8d"/><stop offset="1" stop-color="#ffc491"/></linearGradient></defs><g id="Layer_2" data-name="Layer 2"><g id="avatars"><g class="cls-2"><rect class="cls-3" width="66" height="66"/><path class="cls-4" d="M27.05,55.94l-1.68-2.67a10.58,10.58,0,0,0-4.64,9.58A12.19,12.19,0,0,0,21.32,66h3.39a8.78,8.78,0,0,1-.83-3.31A7.4,7.4,0,0,1,27.05,55.94Z" transform="translate(0)"/><path class="cls-4" d="M43.45,53.27l-1.67,2.67a7.4,7.4,0,0,1,3.16,6.75A8.78,8.78,0,0,1,44.11,66H47.5a12.19,12.19,0,0,0,.59-3.15A10.56,10.56,0,0,0,43.45,53.27Z" transform="translate(0)"/><path class="cls-5" d="M40.54,51.44c-4-2.21-9.73-1.45-12.36.33-3.9,2.62-2.67,7.1-1.64,14.23H41.88C43,59.44,44.38,53.58,40.54,51.44Z" transform="translate(0)"/><path class="cls-6" d="M35.05,58.78l1.6-1.58a2.35,2.35,0,0,0-2.24-1.45,2.39,2.39,0,0,0-2.57,1.34l1.62,1.67-2,5L33.16,66h2.12l2-2.34Z" transform="translate(0)"/><path class="cls-7" d="M28.6,51s-3.91,1.47-4.24,2.4,1,7.46,1.74,12.57h3.8C30.06,61.76,29.93,55.69,28.6,51Z" transform="translate(0)"/><path class="cls-7" d="M44,53.43c-.34-.93-4.26-2.35-4.26-2.35-1.27,4.43-1.36,10.5-1.18,14.92h4C42.67,59.15,44.25,54.1,44,53.43Z" transform="translate(0)"/><path class="cls-8" d="M28.88,53.9a8.53,8.53,0,0,0,3.4,4.57l1.88-2.33,2.47,2.32A7.2,7.2,0,0,0,40,53.15C40,51.74,28.11,51,28.88,53.9Z" transform="translate(0)"/><path class="cls-9" d="M28.91,50.43c-2.1,3.21,3.21,7.27,3.21,7.27l2.06-1.84,2.34,1.93s4.8-3,3.1-7C38.09,47.12,31,47.19,28.91,50.43Z" transform="translate(0)"/><path class="cls-10" d="M32.91,46.59c-1.3.39-2.17,2-2.26,3.76-.11,2.17,2.22,5.07,3.83,5.13,1.22,0,6.39-4,2.76-7.94A4.62,4.62,0,0,0,32.91,46.59Z" transform="translate(0)"/><path class="cls-11" d="M53.05,28.87c2.48-.67,5.28-6.07,1.07-5.77,1.14,1.7-1.56,2.49-2.45,1.2a.68.68,0,0,1-.14-.32c-.14-2.13-2.34-3.59-4-4.91a23,23,0,0,0-8.74-4.2c-5.48-1.26-12-.95-16.39,2.67-1.76,1.46-3.29,4.51-5.72,5.09-3,.71-4.65,3.74-2.28,5.65A1.73,1.73,0,0,1,11.78,27c-2.57,1.78-3.54,5.25,0,6.81C7.63,36,8.67,40.34,13.12,42.24c-2.09,1.94-1,5.23,1.08,6.53-.16-1.37,1.12-4.42,3.49-2.86,1.45,1,.68,3.52-1.3,2.23-.52,2.33,3.4,3.77,4.55,1.84-.13,1.74,1.07,2.42,2.68,2.31,2.4-.15,3.24-1.76,4.86-2.25A24.45,24.45,0,0,1,35,49.33c4-.07,7.41,3.86,11.38,2.16,1.53-.66,2.27-1.64,2.11-3.13-1.09.76-3.92-.35-1.61-2.15,1.16-.91,2.87-.07,4-.76,1.38-.8.82-3.71.92-3.77,1-.62,2.65-.67,2.75,1.07,2-4,.1-5.16-2.1-5.46C57.4,36.52,58.34,29.82,53.05,28.87Z" transform="translate(0)"/><path class="cls-12" d="M49,40.28a1.4,1.4,0,0,0-1.36,1.41A1.35,1.35,0,0,0,49,43a1.4,1.4,0,0,0,1.36-1.41A1.35,1.35,0,0,0,49,40.28Z" transform="translate(0)"/><path class="cls-4" d="M33.44,14.42c-8.09.74-14.38,7.63-13.88,18.52S28,52.5,36.51,51.55c7.1-.78,13.14-9.63,11.8-21.55C47.11,19.32,41.53,13.68,33.44,14.42Z" transform="translate(0)"/><path class="cls-4" d="M17.47,31.21c-3.52,1.61-1.88,7.66,1.06,8.55a5.77,5.77,0,0,0,2.89,0,.37.37,0,0,0,0-.11c.4-.86-.5-4.91-.74-5.73C20.11,31.85,19.16,30.44,17.47,31.21Z" transform="translate(0)"/><path class="cls-13" d="M19.48,33.33c-.95-.51-3.4.15-2.37,2.13.69-1.73,1.7-.51,1.47.74-.15.83-1,.79-.22,1.93.45.61,1.44.45,1.95.17C21.93,37.39,20.63,33.94,19.48,33.33Z" transform="translate(0)"/><path class="cls-14" d="M30.43,18.66a23.56,23.56,0,0,0-6.17,2.05c-2.88,1.46-3.06,3-4.46,5.71-.71,1.39-2.42,2.79-.78,4.25a2.2,2.2,0,0,0-1.13,1,3.75,3.75,0,0,0-.28,2.88c.32,1.07,1.24,1.55.76,2.81a3.08,3.08,0,0,0-.09,2.42c1,2.4,6.27,3.08,6.39-.24,0-.28,0-.87-.25-1.06s-.8.06-1.12.06A1.28,1.28,0,0,1,22,37.64c-.14-.72.48-1.08,1-1.46a2.15,2.15,0,0,0,1-1.61c0-1-.72-1.15-1.34-1.67-1-.86-.71-.71-.15-1.63.68-1.13,1.11-2.62-.27-3.5a1.43,1.43,0,0,0,1.46-1.08c1.18.63,2.57-.62,2.95-1.69-.12.33,1.3-.29,1.39-.35A4,4,0,0,0,29,23c.11,1.49,1.64,2.49,2.84,1.32.77,1.84,2.33,1.79,4,1.37.6,2.12-1.2,1.24-1.81,2.3-1,1.76,2.62,2.53,3.59,2.18a2.8,2.8,0,0,0,1.71-2.81c.13,1.38,2.11.74,2.82.23.42,1.93,2.21,2.33,3.62,1,.24,3.19,4.41,3.14,3.58-.58C47.49,19.41,38.35,17.19,30.43,18.66Z" transform="translate(0)"/><path class="cls-11" d="M50.44,15.2c1.78-3.71-5.54-6.55-8.32-4.53-.43-4.58-6.19-4.85-8.95-1.61A5.55,5.55,0,0,0,29.52,7a4.67,4.67,0,0,0-4.35,1.26c1.54,0,4.14,2.94-.48,2.51-1.92-.18-3.06-.91-5,.13-1.55.83-2.6,2.31-1.14,3.74,0,0-3.43-.2-3.94,2.88-.21,1.27.31,1.59-1,2.54a3,3,0,0,1-2.85.66,5.13,5.13,0,0,0,1.74,3.27,3.51,3.51,0,0,0,3.78.1c-.13.78,2.2,7.42,3.23,6.71-1.69,1.16-2.42,3.5-.75,4.58a3.08,3.08,0,0,0,1,.4c-2,1.85-1.32,4-.37,4.66a4.67,4.67,0,0,0,4.14.38,1.68,1.68,0,0,0,1.06-1.71c-.91.17-1.79.46-2.53-.29C20,36.69,24.31,35,22.24,33.3c-.45-.36-1.23-.4-1.27-1.1s.77-1,1.07-1.37c1.06-1.49-.58-3.25-1.93-3.8.86-.05,3.32.38,3-1.27C24.51,27,26.5,25.28,26,23.68c.24.72,1.55.49,2,.19.81-.55.74-1.61,1.15-2.41a2.73,2.73,0,0,0,1.18,2.18,1.5,1.5,0,0,0,2.19-.56c.51,1.78,2.27,3.22,3.82,1.44a2.25,2.25,0,0,1,.06,2.31c-.74,1-1.73,0-2.36.43-.79.59.65,1.84,1.18,2a3.1,3.1,0,0,0,3.13-1.07,4,4,0,0,0,.42-2.34c.87,1.39,2.31,2.33,3.75.87,1,1.32,2.07,1.94,3.56.64.72,1.19.6,2.79,2.32,3,2,.29,1.88-2,1.52-3.36-.45-1.68-1.07-4.95.87-6.42,1.2-.91,3-.33,2.43,1.25a3.13,3.13,0,0,0,1.16-4.35A5.07,5.07,0,0,0,50.44,15.2Z" transform="translate(0)"/><path class="cls-12" d="M19.81,40.78a1.3,1.3,0,0,0-1.26,1.3,1.25,1.25,0,0,0,1.29,1.23A1.29,1.29,0,0,0,21.09,42,1.24,1.24,0,0,0,19.81,40.78Z" transform="translate(0)"/><path class="cls-15" d="M29.24,13.63v0C29.25,13.56,29.24,13.56,29.24,13.63Z" transform="translate(0)"/><path class="cls-15" d="M49.67,24.17a11.61,11.61,0,0,0-.2-2.46c-.29-1.29-1-1.63-2.24-1.58A3.63,3.63,0,0,1,53,19.44c.64-2.31-2.17-4.35-4.44-3.76.48-1.34.87-3-.45-4a4.85,4.85,0,0,0-5.2-.3c-1.24.76-2.64,2.26-4.41,1.16,1.05.66,3.58-2.93.59-4.22-1.87-.8-3.49.25-4.75,1.49a4,4,0,0,0-1,1.32C32,8.69,30.08,7.21,27,8c2.33,0,3.31,3.68,1.2,4.7-1.22.59-2.35-.7-3.34-1.15a5.5,5.5,0,0,0-3.33-.31,4.24,4.24,0,0,0-2.52,2c1.67-.22,2.62,3.06,6.28,2a4.19,4.19,0,0,1-4.6.76,3.52,3.52,0,0,0-3.21-.23c-1.55.85-1.16,3-1.93,4.36S14.22,21.5,13,21.86a4.72,4.72,0,0,0,3.73.79c-1.11.11-1.76,1.67-1.85,2.52-.12,1.11.84,2,.68,3-.14.86-1.33,1.44-2.14,1.41a2,2,0,0,0,2.17.36c.94-.32,1.14-1.55,1.91-1.72,1.06-.23,2.16,1.55,2.14,2.36,1.59-.77-.29-3.22-1.22-3.93,1,0,3.91-.12,3.72-1.59.12.89,2,0,2.26-.47a1.69,1.69,0,0,0-.5-2.12c.59.08,1.69.64,2.15.1s-.07-1.56-.33-2c4.78,1.84,3.42-3.1.49-3,2.21-.18,2.81-.51,3.07-3.91v0c0-.07,0-.07,0,0v0c.16,2-.36,3.95,3,3.64-4.83,1.71-2.91,5.61,1.91,4.48-.74.18-.79,1.56.31,2.35a2.4,2.4,0,0,0,2.4-.14c.85,1.31,1.12,2.47.09,3.63,1.16.07,1.6-1.66,1.77-2.5.88.53,1.67,1.34,2.76.91.82-.33,1.26-1.22,1.8-1.85,0,1.45.56,2.53,1.44,2.72A2.69,2.69,0,0,0,47.35,26a3.83,3.83,0,0,0,1.13,2.93,2.62,2.62,0,0,0,3.26.52,1.26,1.26,0,0,1-1.18-.71c2-.2,3.62-1.28,3.44-3.37C52.61,26,49.77,26.3,49.67,24.17Z" transform="translate(0)"/><path class="cls-11" d="M40.85,21.35c.92,3.24,3.7,4.12,5.36,1.47C44.48,24.37,41.64,23.05,40.85,21.35Z" transform="translate(0)"/><path class="cls-11" d="M19.31,25c2,1.66,4.32.07,3.33-2.32C22.42,24.23,20.52,25.45,19.31,25Z" transform="translate(0)"/><path class="cls-11" d="M46.39,24c-1.2,2.22,1,4,3.2,2.47C48,26.65,46.22,25.21,46.39,24Z" transform="translate(0)"/><path class="cls-11" d="M43.67,18.83a4.56,4.56,0,0,0,5.56,1.22l-.09-1.49A6.93,6.93,0,0,1,43.67,18.83Z" transform="translate(0)"/><path class="cls-11" d="M44.72,14.5A3.41,3.41,0,0,0,49,15.6l.24-1.68A4.33,4.33,0,0,1,44.72,14.5Z" transform="translate(0)"/><path class="cls-11" d="M14.54,22.72,15,24.18c2.37.05,4-.93,4.72-3A6.74,6.74,0,0,1,14.54,22.72Z" transform="translate(0)"/><path class="cls-15" d="M11.43,29l-.06-1c-1,1.1-1.73,2.35-1,3.71.48.89,1.83,1.84,2.91,1.08.43-.31.57-1.12.67-1.58l-.06-.06C12.55,31.37,11.13,30.33,11.43,29Z" transform="translate(0)"/><path class="cls-15" d="M12.87,34.25l-.81.48c-1.93,0-2.91,3.24-2.08,4.61A3.89,3.89,0,0,0,12.56,41a4.74,4.74,0,0,1-1-3.64C11.83,36.22,12.84,35.42,12.87,34.25Z" transform="translate(0)"/><path class="cls-15" d="M54.46,30.49a4.58,4.58,0,0,0-1.73-.72v.32c1.72,2.21,1.4,3.88.43,6.13,0,0,.09.08.09.06C55.65,35.3,56.79,32.08,54.46,30.49Z" transform="translate(0)"/><path class="cls-15" d="M53.25,38.24l-.8-.21c-.36,1.88,2,1.44,2.3,2.83C55.15,39.7,55,38.15,53.25,38.24Z" transform="translate(0)"/><path class="cls-15" d="M13.21,43.36a3,3,0,0,0,.19,4c0-.61.44-1.08.44-1.69s-.41-1-.34-1.65Z" transform="translate(0)"/><path class="cls-16" d="M47.28,37.13a2.67,2.67,0,0,0-2.22-1c-1-.07-2.35.22-1.63,1.75.39.81,4.28,1.64,4-.2A1.39,1.39,0,0,0,47.28,37.13Z" transform="translate(0)"/><path class="cls-16" d="M29,36.84a2.77,2.77,0,0,0-2.62-.7c-1.1.15-2.55.8-1.49,2.41.56.85,5,.91,4.37-1.16A1.65,1.65,0,0,0,29,36.84Z" transform="translate(0)"/><path class="cls-11" d="M41.68,29.13c2.16.2,4-.44,7.21-.17C47.7,27.47,43.3,27.44,41.68,29.13Z" transform="translate(0)"/><path class="cls-13" d="M36.87,37.83c-.74,0-1-.3-1.55,0s.61,1.29,1.52,1.21,1.88-.93,1.6-1.24S37.69,37.82,36.87,37.83Z" transform="translate(0)"/><path class="cls-11" d="M22.39,28.66c4.05.1,5.42.28,8.24.21C29.15,27,24.18,27.1,22.39,28.66Z" transform="translate(0)"/><path class="cls-17" d="M27.16,30.73c-2.13-.8-3.23,3.13-1.74,4.29a2.92,2.92,0,0,1,2.08.06C28.85,34.24,28.75,31.33,27.16,30.73Z" transform="translate(0)"/><path class="cls-18" d="M27.49,32c-.88.13-.55,1.94.37,1.49C28.53,33.19,28.28,31.91,27.49,32Z" transform="translate(0)"/><path class="cls-17" d="M46,30.77c-2.14-1.37-4,3.64-1.64,4.36a2.6,2.6,0,0,1,1.88-.3C47,33.77,47.1,31.5,46,30.77Z" transform="translate(0)"/><path class="cls-18" d="M45.82,31.84c-.84,0-.72,1.89.19,1.55C46.67,33.14,46.57,31.82,45.82,31.84Z" transform="translate(0)"/><path class="cls-19" d="M46,30.66c-2-.75-2.61,1.58-2.61,1.58a1.81,1.81,0,0,1,2.29-.43,4,4,0,0,0,5-.37C48.28,32.25,47.06,31.07,46,30.66Z" transform="translate(0)"/><path class="cls-19" d="M25.73,30.84a6.4,6.4,0,0,1-5,.89,4.46,4.46,0,0,0,5.23.19,2,2,0,0,1,2.38.18S27.78,29.79,25.73,30.84Z" transform="translate(0)"/><path class="cls-20" d="M26,40.23c1.08,2.06,3.72,1.06,2.61-1A2,2,0,0,1,26,40.23Z" transform="translate(0)"/><path class="cls-20" d="M43.45,38.84a1.49,1.49,0,1,0,2.84.8A2.22,2.22,0,0,1,43.45,38.84Z" transform="translate(0)"/><path class="cls-20" d="M44.69,40a.63.63,0,0,0-.79.33c-1,2.93-4.18,4.85-7.84,4.83a8.17,8.17,0,0,1-7.49-4.28.71.71,0,0,0-.83-.34.51.51,0,0,0-.33.71,9.46,9.46,0,0,0,8.38,5h.33c4.21,0,7.77-2.16,9-5.54A.58.58,0,0,0,44.69,40Z" transform="translate(0)"/></g></g></g></svg>