<svg xmlns="http://www.w3.org/2000/svg" xmlns:xlink="http://www.w3.org/1999/xlink" viewBox="0 0 96 96"><defs><style>.cls-1{fill:none;}.cls-2{clip-path:url(#clip-path);}.cls-18,.cls-19,.cls-3{fill:#fff;}.cls-4{fill:#e62628;}.cls-5{fill:#918fa0;}.cls-6{fill:#d9d9d9;}.cls-7{fill:#854422;}.cls-8{fill:#261b18;}.cls-9{fill:#9c552c;}.cls-10,.cls-11{fill:#66241b;}.cls-10{opacity:0.4;}.cls-11,.cls-16,.cls-19{opacity:0.7;}.cls-12{fill:#45362e;}.cls-13{opacity:0.8;}.cls-14{fill:#611f16;}.cls-15{fill:#d17642;}.cls-16{fill:#f0ded1;}.cls-17{fill:#212126;}.cls-18{opacity:0.3;}</style><clipPath id="clip-path"><circle class="cls-1" cx="48" cy="48" r="48"/></clipPath></defs><g id="Layer_2" data-name="Layer 2"><g id="Layer_4" data-name="Layer 4"><g class="cls-2"><rect class="cls-3" width="96" height="96"/><path class="cls-4" d="M35.69,84,31.86,77.9c-5.45,3.43-8.61,9.95-8.25,17,0,.36.06.71.09,1.07H31c-.07-.47-.14-1-.17-1.44C30.57,90.08,32.45,86,35.69,84Z"/><path class="cls-4" d="M65.19,77.9,61.35,84c3.25,2,5.12,6.09,4.89,10.57A11.33,11.33,0,0,1,66.07,96h7.27c0-.36.08-.71.1-1.07C73.8,87.85,70.64,81.33,65.19,77.9Z"/><path class="cls-5" d="M59.45,75.86C52.34,72,42,73.36,37.23,76.43,31.25,80.32,32,86.56,33.49,96h29.3C64.44,86.78,65.31,79,59.45,75.86Z"/><path class="cls-6" d="M48.17,86.54c-3.77-.12-10.54-8.87-10.54-8.87l-3,.55.44,11.66,24.06.36.11-11.69S51.94,86.65,48.17,86.54Z"/><path class="cls-4" d="M38,75.1s-7,2.45-7.63,4c-.46,1.2,1.19,9.27,2.48,16.89h7.58C40.46,89.43,40,81.47,38,75.1Z"/><path class="cls-4" d="M66.68,79.11c-.6-1.56-7.63-4-7.63-4-2,6.37-2.46,14.33-2.43,20.9H64.2C65.5,88.38,67.14,80.31,66.68,79.11Z"/><path class="cls-7" d="M54.84,69.27c-2.4-1.89-7.07-2.2-9.93-1.58A6.88,6.88,0,0,0,39.74,74c-.25,3.62,7.09,10.31,8.78,10.41C49.8,84.42,63.16,75.82,54.84,69.27Z"/><path class="cls-8" d="M67.58,43.14c.76-1.37.2-13.9,2-12.84,3.45,2,6.68,10.42,2.74,16C77,48.14,73.7,56,68.82,52.12,66.59,50.37,66.3,45.44,67.58,43.14Z"/><path class="cls-8" d="M66.74,41.52c2.64-1.07,5.72-1.9,2.53-13.18-3.48-12.28-19.42-18.07-31.73-14C7.72,24,17.64,58.42,26.37,55.79S64.11,42.58,66.74,41.52Z"/><path class="cls-9" d="M23.75,53.16C26.3,69.12,39,80.36,52.1,78.27S73.79,61.55,71.24,45.6,56,18.4,42.89,20.49,21.21,37.21,23.75,53.16Z"/><path class="cls-9" d="M21.83,61.84a14.42,14.42,0,0,0,5.28,0l.1-.15c.71-1.15-1-6.5-1.51-7.6-1.18-2.75-3-4.6-6-3.53C13.27,52.75,16.42,60.73,21.83,61.84Z"/><path class="cls-10" d="M27.32,45a28.31,28.31,0,0,1,1.81-7.8c2-5,6.92-7.28,11.79-8.58a59.33,59.33,0,0,1,19-1.71c3,.2,11.61.38,7.51,5.9-2.2,3-9.94,4.29-13.22,5.2-5.8,1.6-15.1,4.38-20.92,2.1-.41,1-.74,2.1-1.2,3.1-1,2.17-2,5-4,6.37A7.27,7.27,0,0,1,27.32,45Z"/><path class="cls-8" d="M32.25,22.93c-8.46,4.8-12.13,19.73-10.32,28.23,1,4.85,7.83,4.29,7.47,1.53-1.1-8.41-.5-14.54,11.53-19.08,9.59-3.62,21.44-3.86,24.66-2.2s-.77-6-10-10.11S38.73,19.25,32.25,22.93Z"/><path class="cls-11" d="M25,59.86c2.94-1.24.48-5.8-1.64-6.59-1.74-.65-6.21.3-4.28,2.9,1.22-2.32,3.09-.72,2.71.94-.26,1.11-1.91,1.08-.36,2.57C22.31,60.48,24.12,60.25,25,59.86Z"/><path class="cls-8" d="M71.55,29.51C67.78,33.15,61.12,34,56.21,35.07c-8.11,1.84-23.58,7.7-28.3-2.47-2.51-5.41-2.31-11,2.36-14.53,6.47-5,14.92-6,23-4.89C67.35,15.09,75.36,25.84,71.55,29.51Z"/><path class="cls-8" d="M29.39,58.37c1.62-1.38.15-5.45-.11-7.62s-.47-2.33-2-3c-3.83-1.71-5.32.9-5.05,4.17.18,2.19,2.13,6.34,4.55,6.82A3,3,0,0,0,29.39,58.37Z"/><path class="cls-8" d="M20.62,21.41a2.63,2.63,0,0,0,.46,2.34c2.74,4.29,12.79,1.12,10.41-4.9-2-5.11-10.2-4.38-7.31,1.49C22.47,19.84,21,20.34,20.62,21.41Z"/><path class="cls-12" d="M66.55,30.75a6,6,0,0,0,3.33-2.81c1.55-3.5-2.19-7.16-4.77-9-5.86-4.11-13.89-4.86-21-4.24-5.75.51-15.2,3.07-17.1,9.43C25,31,33.27,34.62,38.49,34.83A73.56,73.56,0,0,0,55.91,33C58.36,32.47,63.19,32.18,66.55,30.75Z"/><path class="cls-12" d="M26.67,16.24a1.46,1.46,0,0,0-1.16.61c-1.16,1.47.64,3.81,2.34,3.26C30.5,19.26,28.46,16.22,26.67,16.24Z"/><path class="cls-12" d="M23.8,21.1h0c-2.68,0-1,2.56.76,2.3C26.6,23.1,25.36,21.15,23.8,21.1Z"/><path class="cls-8" d="M41.66,53.67a4.33,4.33,0,0,0-3,0c-2.23-1.59-.77-7.14,2.38-6.09C43.35,48.36,43.61,52.44,41.66,53.67Z"/><g class="cls-13"><path class="cls-14" d="M50.81,66.91a17.31,17.31,0,0,0,8.51-1.83,17,17,0,0,0,5.92-4.87.89.89,0,0,0-.35-1.3,1.16,1.16,0,0,0-1.47.3c-.28.41-7.2,9.94-20.46,3.75a1.12,1.12,0,0,0-1.43.4A.9.9,0,0,0,42,64.63,23,23,0,0,0,50.81,66.91Z"/></g><path class="cls-11" d="M57.82,51.81c.85.71-.51,3.75-4,4.3s-5.68-2.28-4.4-3.19,2.18-.2,4.17-.47C55.8,52.16,56.83,51,57.82,51.81Z"/><path class="cls-15" d="M57.53,52.12c.93-1.12-.45-4.83-4.6-4.07-3.48.64-5,4.17-3,5.38C52.3,54.93,56.28,53.62,57.53,52.12Z"/><path class="cls-16" d="M40.67,49.6c1.06-.47,1.89,1.16,1.08,1.87C40.61,52.44,39.47,50.12,40.67,49.6Z"/><path class="cls-8" d="M67.56,51a4.36,4.36,0,0,0-3,0c-2.22-1.59-.76-7.14,2.39-6.09C69.25,45.65,69.51,49.73,67.56,51Z"/><path class="cls-16" d="M66.57,46.89c1.06-.47,1.89,1.16,1.07,1.87C66.51,49.73,65.37,47.41,66.57,46.89Z"/><path class="cls-8" d="M66.81,38.51c1.64-.28,2-1.17.32-1.69A8.66,8.66,0,0,0,64,36.76c-.62.06-3,0-3.43.54C59,39.42,66.18,38.62,66.81,38.51Z"/><path class="cls-8" d="M35.74,42.59C34.07,42.73,33.45,42,35,41a8.49,8.49,0,0,1,3.06-.87c.61-.1,2.91-.79,3.44-.34C43.48,41.5,36.37,42.54,35.74,42.59Z"/><path class="cls-17" d="M75,41.48c-2.3-2.83-16.72-1.5-18.89,1.64-1.47,2.15.07,8.63,1.39,10.66s13,1.07,15.64-.27S77.3,44.32,75,41.48ZM72.32,52.13c-2,.95-12.4,1.83-13.53.53s-2.09-7.16-1-8.62c1.56-2.14,13.72-3.12,15.68-1.32S74.35,51.18,72.32,52.13Z"/><path class="cls-17" d="M48.17,44c-2.6-2.68-17.33-.69-20.14,2.65-1.91,2.28,1,8.79,3,10.67S46.37,57,48.94,55.5,50.76,46.69,48.17,44Zm-.48,10.32c-1.94,1-13.51,2.83-15.17,1.69s-4-6.9-2.67-8.4c2-2.2,14.79-4,16.93-2.4S49.62,53.33,47.69,54.34Z"/><path class="cls-17" d="M49.66,50.07c-.89-.31.14-2.15.41-2.32,1.68-1.06,6-2,6.89.49.23.66-.23.76-.75.61A7.43,7.43,0,0,0,49.66,50.07Z"/><path class="cls-18" d="M74.12,45.33c1.13-5.8-7.71-3.43-9.2-2.86-.77.28-6,1.86-4.75,4.27C61,48.34,73.56,48.18,74.12,45.33Z"/><path class="cls-18" d="M47.48,48.82a2.75,2.75,0,0,0-1.69-4.37c-2.1-.43-6.37.37-8.82,1-.87.25-4.91,1.35-3.23,3.88S45.82,51.29,47.48,48.82Z"/><path class="cls-3" d="M65.83,42.8c2.86-.4,7.8.14,7.26,1.08S64.67,45.33,64,44C63.6,43.39,64.49,43,65.83,42.8Z"/><path class="cls-19" d="M60.54,50.71c1.8,0,4.81,1.08,4.39,1.76s-5.33.1-5.65-1C59.11,50.89,59.7,50.69,60.54,50.71Z"/><path class="cls-3" d="M40.12,45.23c2.8-.43,7.66,0,7.14.82s-8.25,1.53-9,.36C37.94,45.82,38.8,45.44,40.12,45.23Z"/><path class="cls-19" d="M33.07,53.88c1.77,0,4.73.88,4.33,1.51s-5.22.22-5.56-.8C31.69,54.08,32.24,53.88,33.07,53.88Z"/></g></g></g></svg>