<svg xmlns="http://www.w3.org/2000/svg" xmlns:xlink="http://www.w3.org/1999/xlink" viewBox="0 0 96 96"><defs><style>.cls-1{fill:none;}.cls-2{clip-path:url(#clip-path);}.cls-3{fill:#f95049;}.cls-4{fill:#ff9819;}.cls-5{fill:#ffc566;}.cls-6{fill:#fff;opacity:0.3;}.cls-7{fill:url(#linear-gradient);}.cls-8{fill:#d4a070;}.cls-9{fill:#f2d89b;}.cls-10{fill:#cf854d;opacity:0.5;}.cls-11,.cls-19{opacity:0.7;}.cls-12{fill:#ab6a3f;}.cls-13{fill:#9c552c;}.cls-14,.cls-15{fill:#661004;}.cls-14{opacity:0.4;}.cls-15{opacity:0.2;}.cls-16{fill:#261b18;}.cls-17{fill:#fae7bb;}.cls-18{fill:#bf6c3c;}.cls-19{fill:#f0ded1;}.cls-20{fill:#d47b48;}.cls-21{fill:#78231f;}.cls-22{fill:#fff7ea;}.cls-23{fill:#ecdcc4;}.cls-24{fill:#161110;}</style><clipPath id="clip-path" transform="translate(0)"><circle class="cls-1" cx="48" cy="48" r="48"/></clipPath><linearGradient id="linear-gradient" x1="-2034.18" y1="76.7" x2="-2033.92" y2="80.93" gradientTransform="matrix(-1, 0, 0, 1, -1985.85, 0)" gradientUnits="userSpaceOnUse"><stop offset="0" stop-color="#854326"/><stop offset="1" stop-color="#9c552c"/></linearGradient></defs><g id="Layer_2" data-name="Layer 2"><g id="Layer_4" data-name="Layer 4"><g class="cls-2"><rect class="cls-3" width="96" height="96"/><path class="cls-4" d="M39.8,78.46c-6,2.32-11.48,8.32-11.68,17.53h8C35.49,90.56,41.87,77.65,39.8,78.46Z" transform="translate(0)"/><path class="cls-4" d="M57,78.46C63,80.78,68.46,86.78,68.66,96H60.71C61.29,90.56,54.91,77.65,57,78.46Z" transform="translate(0)"/><path class="cls-4" d="M56.75,78C53,74.32,43.92,75.71,40.5,78c-4.5,3-3.91,11.66-1.91,15.65.41.81.8,1.58,1.13,2.37H57.93l.54-1.54C60.49,88.39,60.88,82,56.75,78Z" transform="translate(0)"/><path class="cls-5" d="M41.26,80a3.25,3.25,0,0,1,.1-2.82c2.08-4,13.23-4,14.27.74a3.51,3.51,0,0,1-.45,2.44C52.08,86.11,43.61,85.91,41.26,80Z" transform="translate(0)"/><path class="cls-6" d="M58.18,89.06c-.87,3.79-5.52,4.94-9.59,5-8,.13-10.71-4-9.42-8.73.35-1.26,1.7-2,3.29-.18,2.39,2.67,10.19,2.62,13-1C57.11,82.1,58.83,86.2,58.18,89.06Z" transform="translate(0)"/><path class="cls-7" d="M54.29,76.38a6,6,0,0,0-12,0c-.11,2,.14,3.09,1,4.17a6.7,6.7,0,0,0,9.94,0C54.15,79.47,54.4,78.34,54.29,76.38Z" transform="translate(0)"/><path class="cls-8" d="M43.31,60.56a17.41,17.41,0,0,0-4.45-10.92,7.87,7.87,0,0,0-4.19-2.36,10.11,10.11,0,0,0-6.86.83,18.85,18.85,0,0,0-6,5c-1.33,1.72-3.52,3.36-4.06,5.52-.39,1.56.15,3.3,1.82,1.8a17.42,17.42,0,0,0-.66,5.08c0,1.94,1,3.46,2.65,1.41-.15,1.6-.62,8.51,2.2,4.91.31,1.29.06,3.36,1,4.45,1.12,1.34,2.34-.39,2.81-1.37.13,1.13.27,2.87,1.73,3.1,1.3.22,2.54-1.55,3-2.61.4,2.82,2.17.86,3.21-.21.81,2.13,3.24,1.55,4.71.25C44.14,71.93,43.54,65.33,43.31,60.56Z" transform="translate(0)"/><path class="cls-9" d="M14.24,65a1.67,1.67,0,0,0,1.59-1.16l.11-.31c1.56-4.8,4.47-13.71,23.43-12.95a1.68,1.68,0,0,0,.13-3.35C18,46.38,14.32,57.67,12.75,62.5l-.1.31a1.67,1.67,0,0,0,1.07,2.11A1.58,1.58,0,0,0,14.24,65Z" transform="translate(0)"/><path class="cls-9" d="M15.17,72.59a1.67,1.67,0,0,0,1.64-1.38c.15-.8,3.7-19.53,22-18.16a1.65,1.65,0,0,0,1.8-1.54,1.69,1.69,0,0,0-1.55-1.8C22,48.42,14.89,62.84,13.52,70.63a1.67,1.67,0,0,0,1.36,1.94A1.37,1.37,0,0,0,15.17,72.59Z" transform="translate(0)"/><path class="cls-9" d="M17.94,75.57a1.67,1.67,0,0,0,1.6-1.19c2-6.8,6.39-16.6,20.62-23.27a1.67,1.67,0,0,0-1.42-3C27,53.59,19.87,61.64,16.33,73.41a1.69,1.69,0,0,0,1.13,2.09A2,2,0,0,0,17.94,75.57Z" transform="translate(0)"/><path class="cls-9" d="M21.79,79.73a1.67,1.67,0,0,0,1.65-1.39c1.53-9,6-20.47,18.52-24.19a1.67,1.67,0,0,0-1-3.21C26.08,55.37,21.52,69.65,20.13,77.77a1.69,1.69,0,0,0,1.37,1.94Z" transform="translate(0)"/><path class="cls-9" d="M25.92,82.56a1.68,1.68,0,0,0,1.66-1.47c1.17-9.42,4.18-20.75,17.26-24.79a1.67,1.67,0,0,0-1-3.2c-15.08,4.65-18.41,18-19.6,27.58a1.68,1.68,0,0,0,1.46,1.87Z" transform="translate(0)"/><path class="cls-9" d="M30.83,81.28a1.67,1.67,0,0,0,1.67-1.53c.5-6.13,2.78-17,12.38-20.5a1.67,1.67,0,0,0-1.16-3.14c-11.35,4.19-14,16.43-14.56,23.36a1.68,1.68,0,0,0,1.53,1.81Z" transform="translate(0)"/><path class="cls-9" d="M35.52,78.58A1.67,1.67,0,0,0,37.19,77c.23-5.32,2-12.42,9.13-16a1.68,1.68,0,0,0-1.52-3c-8.57,4.35-10.69,12.67-11,18.89a1.67,1.67,0,0,0,1.6,1.74Z" transform="translate(0)"/><path class="cls-9" d="M40.09,76.9a1.67,1.67,0,0,0,1.67-1.59c.13-2.61.9-9,5.38-11.94a1.68,1.68,0,1,0-1.84-2.8c-5.55,3.67-6.7,10.71-6.88,14.58A1.66,1.66,0,0,0,40,76.9Z" transform="translate(0)"/><path class="cls-10" d="M24.82,50c-3.81,1.13-4.42,6.67-3,10.88,1.92,5.73,6,7,8,4.92.71,3.41,6.16,10.27,10.36,9.72,3.27-.44,3-4,3.82-6.44,1.86-5.87-2.05-11.65-6.23-15.45C34.93,51,29.35,49,25.49,49.8Z" transform="translate(0)"/><g class="cls-11"><path class="cls-12" d="M18.27,58.83a.54.54,0,0,0,.49-.29c1.53-2.83,4.78-6,8-6.7a.55.55,0,0,0,.43-.66.56.56,0,0,0-.66-.44C23,51.48,19.43,55,17.78,58a.54.54,0,0,0,.23.75A.48.48,0,0,0,18.27,58.83Z" transform="translate(0)"/></g><g class="cls-11"><path class="cls-12" d="M20.72,63.77a.55.55,0,0,0,.51-.34,15.5,15.5,0,0,1,5.36-6.53.56.56,0,0,0,.2-.76.57.57,0,0,0-.77-.2,16.54,16.54,0,0,0-5.81,7,.57.57,0,0,0,.51.79Z" transform="translate(0)"/></g><g class="cls-11"><path class="cls-12" d="M22.14,69.1a.58.58,0,0,0,.54-.4,22.09,22.09,0,0,1,3.37-6.39.56.56,0,0,0-.13-.78.57.57,0,0,0-.78.13,23.26,23.26,0,0,0-3.53,6.71.55.55,0,0,0,.37.7A.45.45,0,0,0,22.14,69.1Z" transform="translate(0)"/></g><g class="cls-11"><path class="cls-12" d="M25.75,71a.56.56,0,0,0,.51-.34l.34-.81a27.42,27.42,0,0,1,3.3-6.28.55.55,0,0,0-.11-.78.56.56,0,0,0-.78.1,28.81,28.81,0,0,0-3.44,6.53l-.34.8a.56.56,0,0,0,.3.74A.54.54,0,0,0,25.75,71Z" transform="translate(0)"/></g><g class="cls-11"><path class="cls-12" d="M29.4,74.15a.57.57,0,0,0,.55-.44A15.53,15.53,0,0,1,32.85,67a.55.55,0,0,0-.07-.78.57.57,0,0,0-.79.06,16.75,16.75,0,0,0-3.13,7.16.56.56,0,0,0,.43.66Z" transform="translate(0)"/></g><g class="cls-11"><path class="cls-12" d="M34,74.7a.54.54,0,0,0,.55-.53A15.57,15.57,0,0,1,35,71.28c.1-.41.19-.83.28-1.24a.56.56,0,1,0-1.1-.22c-.08.4-.17.81-.27,1.21a15.79,15.79,0,0,0-.5,3.1.54.54,0,0,0,.54.57Z" transform="translate(0)"/></g><g class="cls-11"><path class="cls-12" d="M37.7,76.23a.56.56,0,0,0,.56-.54,10.13,10.13,0,0,1,.45-2.85.55.55,0,0,0-.35-.7.56.56,0,0,0-.71.35,11,11,0,0,0-.51,3.16.56.56,0,0,0,.54.58Z" transform="translate(0)"/></g><path class="cls-13" d="M35.59,53.62c3.71-.74,7.44-1.39,11.17-2,6.12-1.06,12.63,8.31,16.36,13.33,3.6,4.84,7.51-8.79,7.7-12.77.23-4.94,1.85-13,.87-18.49C66.9,7,30.91,10.57,26.17,29.18c-1.81,7.08-2.6,16.55.47,23.56C28.25,56.4,32.58,54.23,35.59,53.62Z" transform="translate(0)"/><path class="cls-13" d="M28.57,54.66C29.25,66,38.72,79,50,78.93S71.18,63,70.5,49.15c-.73-15.09-3.35-27.92-22.61-26.23C31,24.39,27.66,39.57,28.57,54.66Z" transform="translate(0)"/><path class="cls-13" d="M26.24,64.63c1.6,1,3.47.48,4.41-2.28,1-1.38.11-6.9-.67-10.36-.62-2.8-2.14-4.37-4.81-3.84C19.62,49.24,22.23,62.13,26.24,64.63Z" transform="translate(0)"/><path class="cls-14" d="M27.78,57.46c2.08-1.1.52-5.45-.92-6.25-1.18-.65-4.3.13-3.05,2.63.92-2.16,2.16-.6,1.84.95-.22,1.05-1.36,1-.33,2.42C25.87,58,27.13,57.81,27.78,57.46Z" transform="translate(0)"/><path class="cls-15" d="M49.67,20.06c-13.57-.77-23.69,8.52-23.73,28a3.42,3.42,0,0,1,2.53.94c1.07,1.16,1,2.37,1.25,3,.13.31.27.83,1.34.83a26.91,26.91,0,0,1-.68-8.2,33,33,0,0,1,.46-3.84c.17-.92,1-2.57.28-3.38,1.33-.62.77-2.47.59-3.53,2-.23,2.66-.93,3.1-2.72a2.69,2.69,0,0,0,2.74-.65,3.55,3.55,0,0,0,6.78.26,1.43,1.43,0,0,0,1.56.55c-.16,3.06,6.7,3.42,6.47.47,1.18.28,1.14,2,2.55,2.49s3.26-.11,3.71-1.62h0C59,34,61.12,34,62.14,33.79A5.74,5.74,0,0,0,64.92,32a1.63,1.63,0,0,0,2.64,1.13c-1.17,1,1.23,3.21,1.51,4C70.85,41.92,71.45,21.29,49.67,20.06Z" transform="translate(0)"/><path class="cls-16" d="M29.64,61.1a2.47,2.47,0,0,1-1.83,2.95A2.7,2.7,0,0,1,27,58.79,2.47,2.47,0,0,1,29.64,61.1Z" transform="translate(0)"/><path class="cls-9" d="M72.05,50.7a1.68,1.68,0,0,0,1.66-1.44C74,47.35,76.2,30.25,67,19.9c-4.47-5-10.75-7.42-18.74-7.14C40.87,13,35,15.5,30.77,20.18,23,28.8,23.16,42.12,23.42,46a1.74,1.74,0,0,0,1.75,1.64A1.62,1.62,0,0,0,26.77,46v-.2c-.23-3.55-.44-15.72,6.49-23.36,3.61-4,8.68-6.11,15.08-6.32,6.93-.23,12.34,1.79,16.12,6,6.69,7.49,6.88,20.27,5.94,26.65a1.68,1.68,0,0,0,1.42,1.9Z" transform="translate(0)"/><path class="cls-9" d="M56.12,33.15a1.69,1.69,0,0,0,1.52-1c2.06-4.4,1.85-12-.5-18A1.66,1.66,0,0,0,55,13.23a1.68,1.68,0,0,0-1,2.17c2.3,5.89,2,12.32.58,15.36A1.68,1.68,0,0,0,55.41,33,1.63,1.63,0,0,0,56.12,33.15Z" transform="translate(0)"/><path class="cls-9" d="M62,32.89a1.68,1.68,0,0,0,1.18-.48A15.94,15.94,0,0,0,68,20.12a1.67,1.67,0,1,0-3.34.19A12.67,12.67,0,0,1,60.85,30a1.66,1.66,0,0,0,0,2.36A1.63,1.63,0,0,0,62,32.89Z" transform="translate(0)"/><path class="cls-9" d="M32.35,32.49a1.68,1.68,0,0,0,1-3,10.11,10.11,0,0,1-3.86-5.77,1.67,1.67,0,1,0-3.3.55,13.33,13.33,0,0,0,5.19,7.93A1.62,1.62,0,0,0,32.35,32.49Z" transform="translate(0)"/><path class="cls-9" d="M53,30.11a1.68,1.68,0,0,0,1.67-1.54c0-.35.65-8.53-3-15.44a1.68,1.68,0,0,0-3,1.57c3.2,6.05,2.64,13.52,2.63,13.59A1.68,1.68,0,0,0,52.9,30.1Z" transform="translate(0)"/><path class="cls-9" d="M44.54,29.34a1.37,1.37,0,0,0,.4-.05,1.67,1.67,0,0,0,1.22-2c-.06-.27-1.68-6.64-3.89-12.64a1.68,1.68,0,0,0-3.15,1.16C41.28,21.6,42.9,28,42.91,28.08A1.68,1.68,0,0,0,44.54,29.34Z" transform="translate(0)"/><path class="cls-9" d="M61.28,27.37a1.66,1.66,0,0,0,1.6-1.19,18.18,18.18,0,0,0-.36-10.08,1.67,1.67,0,0,0-3.18,1,15,15,0,0,1,.33,8.07A1.67,1.67,0,0,0,60.8,27.3,1.59,1.59,0,0,0,61.28,27.37Z" transform="translate(0)"/><path class="cls-9" d="M35.39,29.57A1.64,1.64,0,0,0,36.63,29a1.67,1.67,0,0,0-.1-2.36,11.86,11.86,0,0,1-3.22-6.95,1.67,1.67,0,0,0-3.33.36,15.15,15.15,0,0,0,4.29,9.07A1.66,1.66,0,0,0,35.39,29.57Z" transform="translate(0)"/><path class="cls-9" d="M49,32.66a1.23,1.23,0,0,0,.27,0,1.67,1.67,0,0,0,1.39-1.91,21.56,21.56,0,0,1-.18-2.34,32.11,32.11,0,0,0-3.84-14.82,1.68,1.68,0,0,0-3,1.6,28.69,28.69,0,0,1,3.44,13.4,26.86,26.86,0,0,0,.22,2.68A1.67,1.67,0,0,0,49,32.66Z" transform="translate(0)"/><path class="cls-9" d="M41.56,31.83a1.67,1.67,0,0,0,1.34-2.68c-1.64-2.19-3.75-5.6-5.5-12.53a1.67,1.67,0,0,0-3.24.82c1.47,5.86,3.34,10.09,6.06,13.72A1.67,1.67,0,0,0,41.56,31.83Z" transform="translate(0)"/><path class="cls-9" d="M67.77,31.88a1.66,1.66,0,0,0,1.2-.51,12.73,12.73,0,0,0,3.12-5.24,1.68,1.68,0,1,0-3.28-.71A9.65,9.65,0,0,1,66.57,29a1.68,1.68,0,0,0,1.2,2.84Z" transform="translate(0)"/><path class="cls-9" d="M70.18,34.85a1.68,1.68,0,0,0,.92-.28l2.76-1.81A1.68,1.68,0,0,0,72,30l-2.76,1.82a1.68,1.68,0,0,0,.92,3.08Z" transform="translate(0)"/><path class="cls-9" d="M29.6,36.38a1.67,1.67,0,0,0,1-3c-.8-.57-3-2.42-3.64-4.13a1.68,1.68,0,1,0-3.15,1.16c1.11,3,4.48,5.44,4.86,5.7A1.64,1.64,0,0,0,29.6,36.38Z" transform="translate(0)"/><path class="cls-9" d="M71.67,38.42a1.5,1.5,0,0,0,.37,0L73.67,38a1.68,1.68,0,1,0-.73-3.27l-1.63.36a1.68,1.68,0,0,0,.36,3.31Z" transform="translate(0)"/><path class="cls-9" d="M72.17,42.55l.3,0,1.16-.21A1.67,1.67,0,0,0,73,39l-1.15.21a1.67,1.67,0,0,0,.3,3.32Z" transform="translate(0)"/><path class="cls-9" d="M72.35,46.88h.25l.49-.08a1.67,1.67,0,0,0-.49-3.31l-.49.07a1.67,1.67,0,0,0,.24,3.33Z" transform="translate(0)"/><path class="cls-9" d="M72.58,50.76a1.68,1.68,0,0,0,.19-3.34l-.53-.06a1.67,1.67,0,1,0-.38,3.32l.53.06Z" transform="translate(0)"/><path class="cls-9" d="M28.84,40.53a1.68,1.68,0,0,0,.84-3.13l-5.15-3a1.67,1.67,0,0,0-1.69,2.89l5.16,3A1.69,1.69,0,0,0,28.84,40.53Z" transform="translate(0)"/><path class="cls-9" d="M28.05,44.62a1.68,1.68,0,0,0,.75-3.18L24.32,39.2a1.67,1.67,0,1,0-1.5,3l4.48,2.25A1.69,1.69,0,0,0,28.05,44.62Z" transform="translate(0)"/><path class="cls-9" d="M28.27,49a1.67,1.67,0,0,0,.62-3.23L24.7,44.08a1.67,1.67,0,1,0-1.23,3.11l4.19,1.66A1.66,1.66,0,0,0,28.27,49Z" transform="translate(0)"/><g class="cls-11"><path class="cls-12" d="M59.32,27.36a.55.55,0,0,0,.54-.43,17.63,17.63,0,0,0-.57-9.2.56.56,0,1,0-1,.44,16.65,16.65,0,0,1,.52,8.5.56.56,0,0,0,.41.68Z" transform="translate(0)"/></g><g class="cls-11"><path class="cls-12" d="M62.45,27.19a.55.55,0,0,0,.52-.36c.36-1,.88-2.2,1.28-3.16l.3-.74a.55.55,0,0,0-.3-.73.57.57,0,0,0-.73.31l-.3.73c-.41,1-.93,2.22-1.29,3.19a.56.56,0,0,0,.32.72A.48.48,0,0,0,62.45,27.19Z" transform="translate(0)"/></g><g class="cls-11"><path class="cls-12" d="M66.46,29a.54.54,0,0,0,.5-.33c.16-.34.35-.69.54-1a14.11,14.11,0,0,0,.66-1.28.56.56,0,0,0-1-.45,11.13,11.13,0,0,1-.61,1.19c-.2.38-.4.75-.57,1.12a.56.56,0,0,0,.27.74A.69.69,0,0,0,66.46,29Z" transform="translate(0)"/></g><g class="cls-11"><path class="cls-12" d="M69.21,32.15a.55.55,0,0,0,.38-.15,3.32,3.32,0,0,1,1.14-.69.56.56,0,1,0-.37-1,4.44,4.44,0,0,0-1.53.92.56.56,0,0,0,0,.79A.59.59,0,0,0,69.21,32.15Z" transform="translate(0)"/></g><g class="cls-11"><path class="cls-12" d="M54.78,25.42a.57.57,0,0,0,.55-.46A13.79,13.79,0,0,0,54,16.37a.56.56,0,0,0-1,.48,12.66,12.66,0,0,1,1.28,7.91.56.56,0,0,0,.45.65Z" transform="translate(0)"/></g><g class="cls-11"><path class="cls-12" d="M51.13,27.4a.56.56,0,0,0,.53-.74A17.24,17.24,0,0,1,51,22.55c-.16-2.17-.32-4.43-1.63-6.36a.55.55,0,0,0-.77-.15.54.54,0,0,0-.15.77c1.14,1.69,1.28,3.7,1.44,5.82A17.62,17.62,0,0,0,50.6,27,.57.57,0,0,0,51.13,27.4Z" transform="translate(0)"/></g><g class="cls-11"><path class="cls-12" d="M45.94,25.64h0a.56.56,0,0,0,.53-.59,19.25,19.25,0,0,0-1.34-5.24c-.26-.71-.51-1.41-.71-2.09a.56.56,0,1,0-1.07.31c.21.71.47,1.42.73,2.16a18.41,18.41,0,0,1,1.27,4.92A.57.57,0,0,0,45.94,25.64Z" transform="translate(0)"/></g><g class="cls-11"><path class="cls-12" d="M41.15,26.7a.57.57,0,0,0,.35-.12.56.56,0,0,0,.08-.79,11.62,11.62,0,0,1-2.1-7,.57.57,0,0,0-.56-.56h0a.56.56,0,0,0-.55.57,12.61,12.61,0,0,0,2.36,7.66A.54.54,0,0,0,41.15,26.7Z" transform="translate(0)"/></g><g class="cls-11"><path class="cls-12" d="M36.28,27.22a.56.56,0,0,0,.38-1c-1.21-1.14-2-3.38-2.51-5a.55.55,0,0,0-.7-.36.56.56,0,0,0-.36.7c.58,1.84,1.42,4.12,2.8,5.43A.58.58,0,0,0,36.28,27.22Z" transform="translate(0)"/></g><g class="cls-11"><path class="cls-12" d="M32.66,28.55a.54.54,0,0,0,.47-.26.55.55,0,0,0-.17-.77,5.66,5.66,0,0,1-1.63-1.9c-.22-.34-.43-.68-.66-1a.56.56,0,0,0-.9.67c.22.29.42.6.62.92a6.73,6.73,0,0,0,2,2.25A.56.56,0,0,0,32.66,28.55Z" transform="translate(0)"/></g><g class="cls-11"><path class="cls-12" d="M30.18,33.07a.54.54,0,0,0,.43-.21.56.56,0,0,0-.07-.78,5.31,5.31,0,0,1-1.76-2.21.55.55,0,0,0-.71-.35.56.56,0,0,0-.35.71,6.49,6.49,0,0,0,2.1,2.71A.55.55,0,0,0,30.18,33.07Z" transform="translate(0)"/></g><g class="cls-11"><path class="cls-12" d="M28.84,36.34a.55.55,0,0,0,.53-.38.57.57,0,0,0-.35-.71A6.84,6.84,0,0,1,27,34a.57.57,0,0,0-.79.08.56.56,0,0,0,.08.78,7.71,7.71,0,0,0,2.37,1.5Z" transform="translate(0)"/></g><g class="cls-11"><path class="cls-12" d="M26.68,41a.58.58,0,0,0,.39-.15.56.56,0,0,0,0-.79,7.83,7.83,0,0,0-1.34-1.11.56.56,0,0,0-.78.16.58.58,0,0,0,.17.78,7.28,7.28,0,0,1,1.15.94A.52.52,0,0,0,26.68,41Z" transform="translate(0)"/></g><g class="cls-11"><path class="cls-12" d="M27.45,45.11a.56.56,0,0,0,.32-1,4.92,4.92,0,0,0-2-.83.56.56,0,1,0-.17,1.11,3.76,3.76,0,0,1,1.56.63A.56.56,0,0,0,27.45,45.11Z" transform="translate(0)"/></g><path class="cls-17" d="M53.19,26.62h.05a1.67,1.67,0,0,0,1.63-1.71,28,28,0,0,0-1.94-8c-.42-1.22-.82-2.38-1.1-3.42a1.67,1.67,0,1,0-3.23.86c.3,1.16.72,2.37,1.17,3.65a25.91,25.91,0,0,1,1.75,7A1.67,1.67,0,0,0,53.19,26.62Z" transform="translate(0)"/><path class="cls-17" d="M57.17,29.15a1.44,1.44,0,0,0,1.42-1.22c.8-5.47-.71-11.91-1.74-13.82a1.44,1.44,0,0,0-2.53,1.36c.73,1.35,2.14,7.24,1.43,12A1.43,1.43,0,0,0,57,29.13Z" transform="translate(0)"/><path class="cls-17" d="M61.55,25.79A1.43,1.43,0,0,0,63,24.57c.18-1.22,1-7.35-.36-9a1.43,1.43,0,0,0-2.27,1.74,23.14,23.14,0,0,1-.21,6.81,1.45,1.45,0,0,0,1.22,1.63Z" transform="translate(0)"/><path class="cls-17" d="M63.63,30.78a1.43,1.43,0,0,0,1.17-.59,18.75,18.75,0,0,0,3-9.49,1.44,1.44,0,0,0-1.4-1.47A1.4,1.4,0,0,0,65,20.64a16,16,0,0,1-2.48,7.87,1.44,1.44,0,0,0,.32,2A1.47,1.47,0,0,0,63.63,30.78Z" transform="translate(0)"/><path class="cls-17" d="M68.94,30.22a1.41,1.41,0,0,0,.94-.35,6.86,6.86,0,0,0,1.64-2.46,4.6,4.6,0,0,1,.25-.5,1.4,1.4,0,0,0-.15-2,1.44,1.44,0,0,0-2,.15,4.82,4.82,0,0,0-.66,1.15,4.87,4.87,0,0,1-.92,1.5,1.43,1.43,0,0,0,.94,2.51Z" transform="translate(0)"/><path class="cls-17" d="M71.11,33.92a1.49,1.49,0,0,0,.8-.24l.43-.26a8.64,8.64,0,0,0,1.16-.73,1.43,1.43,0,0,0-1.79-2.23c-.15.1-.52.31-.82.49l-.58.35a1.43,1.43,0,0,0,.8,2.62Z" transform="translate(0)"/><path class="cls-17" d="M48.69,28h.13a1.44,1.44,0,0,0,1.29-1.57c-.3-3.16-2.41-9.85-3.63-12.65a1.44,1.44,0,0,0-2.63,1.15,56.68,56.68,0,0,1,3.41,11.77A1.44,1.44,0,0,0,48.69,28Z" transform="translate(0)"/><path class="cls-17" d="M43.58,25.57a1.37,1.37,0,0,0,.52-.1,1.43,1.43,0,0,0,.81-1.86c-.22-.55-.57-1.8-.94-3.11a33.12,33.12,0,0,0-2-6,1.44,1.44,0,0,0-2.47,1.47,38.52,38.52,0,0,1,1.75,5.35c.41,1.45.76,2.7,1,3.39A1.45,1.45,0,0,0,43.58,25.57Z" transform="translate(0)"/><path class="cls-17" d="M40,29.22a1.42,1.42,0,0,0,.92-.34,1.44,1.44,0,0,0,.17-2c-.92-1.09-1.9-4.27-2.61-6.59a22.46,22.46,0,0,0-1.43-4,1.43,1.43,0,1,0-2.47,1.46,27.06,27.06,0,0,1,1.16,3.35c.87,2.84,1.86,6.05,3.16,7.6A1.45,1.45,0,0,0,40,29.22Z" transform="translate(0)"/><path class="cls-17" d="M33.91,28.07A1.44,1.44,0,0,0,35,25.69a17,17,0,0,1-1.91-5.81,1.44,1.44,0,0,0-1.44-1.42h0a1.44,1.44,0,0,0-1.42,1.45,18.15,18.15,0,0,0,2.63,7.67A1.43,1.43,0,0,0,33.91,28.07Z" transform="translate(0)"/><path class="cls-17" d="M31.14,31.22a1.41,1.41,0,0,0,1-.37,1.44,1.44,0,0,0,.1-2,30.87,30.87,0,0,1-2.92-4.91,1.44,1.44,0,0,0-2.75.83,31.06,31.06,0,0,0,3.55,6A1.43,1.43,0,0,0,31.14,31.22Z" transform="translate(0)"/><path class="cls-17" d="M27.27,33.75a1.43,1.43,0,0,0,1-2.46,17.89,17.89,0,0,1-1.53-1.86,1.43,1.43,0,1,0-2.47,1.44,18.21,18.21,0,0,0,2,2.47A1.44,1.44,0,0,0,27.27,33.75Z" transform="translate(0)"/><path class="cls-17" d="M25.73,38.33a1.44,1.44,0,0,0,.87-2.58,12.06,12.06,0,0,0-1.23-.83,1.43,1.43,0,1,0-1.48,2.44,11.55,11.55,0,0,1,1,.68A1.46,1.46,0,0,0,25.73,38.33Z" transform="translate(0)"/><path class="cls-17" d="M72.21,38.29a2.68,2.68,0,0,0,.93-.16,1.43,1.43,0,0,0-1-2.7,1.41,1.41,0,0,0-1.65,1.15,1.45,1.45,0,0,0,1.17,1.67A3.12,3.12,0,0,0,72.21,38.29Z" transform="translate(0)"/><path class="cls-17" d="M72.43,42.86a1.36,1.36,0,0,0,.63-.15,1.41,1.41,0,0,0,1.36-1,1.43,1.43,0,0,0-1-1.78,2,2,0,0,0-2.15.62,1.43,1.43,0,0,0,1.11,2.33Z" transform="translate(0)"/><path class="cls-18" d="M66.52,53.36a2.55,2.55,0,0,1,.43.76c1,2.87-5.59,2.62-6.48,1.43-1.66-2.24.47-3.08,2.11-3.24C63.83,52.18,65.6,52.24,66.52,53.36Z" transform="translate(0)"/><path class="cls-18" d="M41,53.91a2.61,2.61,0,0,1,.48.71c1.22,2.71-4.91,3.1-6.6,1.91-2.35-1.65.46-3.19,2.09-3.43C38.2,52.91,40,52.87,41,53.91Z" transform="translate(0)"/><path class="cls-16" d="M40,46.25c-3.85-1-6.25,3.27-3.62,4.65a8.67,8.67,0,0,1,3.8.2C42.72,50.25,42.83,47,40,46.25Z" transform="translate(0)"/><path class="cls-14" d="M54,52.92c-.6-.56-1.67.19-2.74.27s-1.84-.38-2.7.16.3,2,2.84,1.74S54.55,53.41,54,52.92Z" transform="translate(0)"/><path class="cls-18" d="M50.89,48.68c-1.82,0-3,3.43-2.09,4.47.61.73,4.58.42,5.13-.52C54.12,52.28,52.62,48.7,50.89,48.68Z" transform="translate(0)"/><path class="cls-19" d="M39.68,48.51c-1.17.33-.27,2.23.86,1.54C41.37,49.54,40.72,48.21,39.68,48.51Z" transform="translate(0)"/><path class="cls-16" d="M64.42,45.24c-3.94-.51-5.76,4.06-3,5.09a8.49,8.49,0,0,1,3.8-.31C67.68,48.83,67.36,45.61,64.42,45.24Z" transform="translate(0)"/><path class="cls-19" d="M64.31,47.59c-1.09.48,0,2.25,1,1.41C66.09,48.4,65.28,47.16,64.31,47.59Z" transform="translate(0)"/><path class="cls-20" d="M39.63,59.56c6.08-.18,16.49-1.7,23.14-.59.61.11,1,.21.49.52-1.47.93-3.36,2.45-3.53,3.71-.36,2.55-1,7.41-8,7.47-8.31.06-11.86-8.18-12.8-10.43C38.75,59.72,39.14,59.57,39.63,59.56Z" transform="translate(0)"/><path class="cls-21" d="M39.91,60.38s9.43,2.11,22-.91a4.83,4.83,0,0,0-2.52,3.1c-.39,1.65-1.34,4-8.66,4.31A11.06,11.06,0,0,1,39.91,60.38Z" transform="translate(0)"/><path class="cls-22" d="M42.54,61.05a3.38,3.38,0,0,0,2.48,3,19.28,19.28,0,0,0,10.47.21c2.49-.59,4-4,4-4A85.8,85.8,0,0,1,42.54,61.05Z" transform="translate(0)"/><path class="cls-22" d="M43.42,64.35c-.24-.56-.2-1.19,1.14-.76a26.77,26.77,0,0,0,8.06.78c3.47-.1,4.32-1.26,4.92-.68S55.62,67.22,50.09,67C43.77,66.64,43.42,64.35,43.42,64.35Z" transform="translate(0)"/><path class="cls-23" d="M42.77,62S56,60.73,58.84,61.56a5.18,5.18,0,0,0,.69-1.25,99.73,99.73,0,0,1-17,.71A2.75,2.75,0,0,0,42.77,62Z" transform="translate(0)"/><path class="cls-23" d="M45.28,63.6a28.57,28.57,0,0,0,11.5,0S50.66,65.72,45.28,63.6Z" transform="translate(0)"/><path class="cls-24" d="M30,45.34s1.16,4,7.87,1.52c2.73-1,4.26,1.9,4.26,1.9s0-4.61-4.06-3.69C36,45.55,33.33,47.74,30,45.34Z" transform="translate(0)"/><path class="cls-24" d="M71.84,44.88s-1.32,3.74-7.39,1.5A3.51,3.51,0,0,0,60.21,48s.21-4.47,4-3.51C66.15,45,68.53,47.16,71.84,44.88Z" transform="translate(0)"/><path class="cls-16" d="M68.25,41.63c-.28-1-2.7-2.09-5.12-1.89-2.64.21-5.23,1.81-4.92,3.11.34,1.46,2.28-.87,4.87-1.5C66.32,40.57,68.34,42,68.25,41.63Z" transform="translate(0)"/><path class="cls-16" d="M32.51,42c.12-1,3.32-1.9,6.29-1.63,3.25.3,6.41,1.92,6,3.16S42.17,42.7,39,42C35,41.15,32.43,42.63,32.51,42Z" transform="translate(0)"/></g></g></g></svg>