<svg xmlns="http://www.w3.org/2000/svg" xmlns:xlink="http://www.w3.org/1999/xlink" viewBox="0 0 66 66"><defs><style>.cls-1{fill:none;}.cls-2{clip-path:url(#clip-path);}.cls-3{fill:#a6c4dd;}.cls-4{fill:#ffd1e2;}.cls-5{fill:#f06799;}.cls-6{fill:#de3e78;}.cls-7{fill:#eb8449;}.cls-8{fill:#fdd281;}.cls-9{fill:#ffa763;}.cls-10,.cls-15{fill:#c4170e;}.cls-10{opacity:0.2;}.cls-11{fill:#b54319;opacity:0.5;}.cls-12{fill:#ffebbd;}.cls-13{fill:#d14f2e;opacity:0.4;}.cls-14{fill:#ff7752;}.cls-15{opacity:0.35;}.cls-16{fill:#8f1c18;}.cls-17{fill:#fff9f0;}.cls-18{fill:#e8dac5;}.cls-19{fill:#121b21;}.cls-20{fill:#5e3c27;}</style><clipPath id="clip-path" transform="translate(0)"><circle class="cls-1" cx="33" cy="33" r="33"/></clipPath></defs><g id="Layer_2" data-name="Layer 2"><g id="avatars"><g class="cls-2"><rect class="cls-3" width="66" height="66"/><path class="cls-4" d="M25.11,60.46c1-.58,3.71-6.27,2.71-6.3C24.38,54,18.05,60.28,18.5,66h3.64C21.68,63.8,23.15,61.61,25.11,60.46Z" transform="translate(0)"/><path class="cls-5" d="M28,53.59a14.29,14.29,0,0,0-9.7,8.32A11.93,11.93,0,0,0,23,64.46a7.77,7.77,0,0,1,3.5-4.19C27.5,59.67,29,53.34,28,53.59Z" transform="translate(0)"/><path class="cls-4" d="M40,54.16c-1,0,1.73,5.72,2.72,6.3,2,1.15,3.43,3.34,3,5.54h3.65C49.78,60.28,43.45,54,40,54.16Z" transform="translate(0)"/><path class="cls-5" d="M39.85,53.59c-1-.25.48,6.08,1.51,6.68a7.77,7.77,0,0,1,3.5,4.19,12,12,0,0,0,4.7-2.55A14.28,14.28,0,0,0,39.85,53.59Z" transform="translate(0)"/><path class="cls-6" d="M42.6,64.66C44.3,61.92,44.8,56,41,53.9c-2.92-1.57-10.63-2.52-13.85,0-3.51,2.75-2.71,7.15-1.75,11.32a6.41,6.41,0,0,0,.23.78H41.79C42,65.56,42.31,65.11,42.6,64.66Z" transform="translate(0)"/><path class="cls-4" d="M28.5,53.88a2.15,2.15,0,0,0,.36,1.67c2.46,3.93,9.18,3.8,11-.25a2,2,0,0,0-.07-1.93C38.17,50.64,29.33,50.63,28.5,53.88Z" transform="translate(0)"/><path class="cls-5" d="M39.68,58.62c-1.9,1.83-8.13,1.8-10.4-.69-1.28-1.41-2.66,1.41-2.14,3.37.69,2.61,4.41,3.4,7.65,3.45,6.4.08,8.55-2.79,7.52-6C42,57.88,41,57.4,39.68,58.62Z" transform="translate(0)"/><path class="cls-7" d="M34.32,48.81c-1.9,0-4.57,1.1-4.76,4a3.37,3.37,0,0,0,.81,2.87,5.9,5.9,0,0,0,7.89,0,3.37,3.37,0,0,0,.81-2.87C38.88,49.91,36.21,48.81,34.32,48.81Z" transform="translate(0)"/><path class="cls-8" d="M16.71,19.26c-2.8,7-3.11,12.53-5.1,23.72-.51,2.83-2.35,7.17-1.6,8.91,1.05,2.43,3.82,1.08,6.08,1.84,2.44.83,5.14,2,5.76-1.44a5.41,5.41,0,0,1,.24,2.11c1.9.06,8.45-1.92,12.84-1.69,3.92.21,12,3.87,13.69-.62,1.27-3.34,2.67-18.17,2.21-23,0-.3,1.17-.69,1.21-.95.13-.86.21-1.47.22-1.71C53.57,7.08,23.68,1.68,16.71,19.26Z" transform="translate(0)"/><path class="cls-9" d="M32.19,16.89c-7.62,1.25-13.29,12-12.2,22.26.8,7.62,7.62,15.29,15,15.5,7.82.22,14.3-11.51,13.44-20.56C47.46,23.82,42.87,15.13,32.19,16.89Z" transform="translate(0)"/><path class="cls-10" d="M45.42,20.13a35.54,35.54,0,0,0-12.57-3.07c-2.77-.16-6.48-.44-9.11.6-3.92,1.56-5.67,4.06-6.32,8-.44,2.65,2.16,5.27,4.16,7,1.5-1.38.87-3.32.88-5,.29,1.92,1.87,1.41,3.53,1.53,1.47.12,4,.83,5.34.14.62-.31.73-.74,1-1.38a2.38,2.38,0,0,0,.81.68,9,9,0,0,0,3.37.46,13.4,13.4,0,0,0,4.89-.16c.68-.21,1.09-.4,1.32-1.16.21,1.63,2.68,1.42,4,1.41C52.55,29.12,48.6,21.5,45.42,20.13Z" transform="translate(0)"/><path class="cls-9" d="M17.47,34.81c-3.75.91-2.42,6.39.59,7.57a7.29,7.29,0,0,0,3,.42l.07-.09c.46-.69,0-4.67-.25-5.43C20.35,35.39,19.27,34.37,17.47,34.81Z" transform="translate(0)"/><path class="cls-11" d="M18.72,36.85c-.83-.41-2.94.22-2,1.89.57-1.51,1.46-.48,1.29.59-.12.72-.89.71-.15,1.66.4.51,1.25.35,1.69.1C20.92,40.27,19.72,37.35,18.72,36.85Z" transform="translate(0)"/><path class="cls-8" d="M32.13,25.59a.17.17,0,0,0,0,.05v0C32.15,25.56,32.14,25.56,32.13,25.59Z" transform="translate(0)"/><path class="cls-8" d="M43.27,15.12C39.18,11.44,33.72,11.3,28.54,12a22.88,22.88,0,0,0-6.61,1.63c-1.57.82-2.24,2.82-3,4.34a27.19,27.19,0,0,0-2.19,9c-.18,1.59.41,3.25.52,4.86s.77,2.93,1,4.48a13.86,13.86,0,0,1-.65,7c-.34,1-1.12,1.71-.45,2.59a1.87,1.87,0,0,0,2.45.43c.5-.5,1.57-4.67,1.81-5.74A39.09,39.09,0,0,0,22,32.23a20.3,20.3,0,0,1,1-7.47,27.53,27.53,0,0,0,.29,3.44c2.57-.24,5.3.05,7.88,0a10,10,0,0,0,.92-2.59.17.17,0,0,1,0-.05s0,0,0,0v0c.16.47.3,1.49.63,1.77.6.52,2.41.26,3.15.33,1.41.14,3.78.7,5.14.16.88-.35,1-1.16,1.28-2.06h0c0-.05,0-.06,0,0h0c.26.47.36,1.29.79,1.52a9.64,9.64,0,0,0,2.54.53,20.82,20.82,0,0,0,3.06,0c2-.32.68-3.94.19-5.24A21,21,0,0,0,43.27,15.12Z" transform="translate(0)"/><path class="cls-8" d="M42.35,25.84h0S42.35,25.79,42.35,25.84Z" transform="translate(0)"/><path class="cls-12" d="M31.12,10.22c-3.92.3-9.55,3.27-11.39,6.74-4.15,7.82-5.9,16.59-6.48,25.34-.15,2.22-1.52,5.56-1.45,7.6.07,1.87,1,1.94,2.49.92,2-1.33,0-8.63.53-13.13.39-3.53,3.31-3.62,4.42-8.27.93,6.32-.3,14.52-2.89,21.34,8.67-13.69,2.38-21.09,7-30.29a7.18,7.18,0,0,0,8,1.8,12.41,12.41,0,0,1,8.56,0c3.35,1.38,6.5,2.11,10.79.42C48.84,12.73,38.22,9.68,31.12,10.22Z" transform="translate(0)"/><path class="cls-13" d="M35.83,36.69c-.78,0-1.1-.33-1.64,0S34.84,38,35.81,38s2-1,1.7-1.31S36.7,36.68,35.83,36.69Z" transform="translate(0)"/><path class="cls-14" d="M47.54,35.41a3.83,3.83,0,0,0-2.91-1.16c-1.21-.07-2.8.29-1.62,2,.64.93,5.52,1.81,4.83-.3A1.88,1.88,0,0,0,47.54,35.41Z" transform="translate(0)"/><path class="cls-14" d="M28,35.28c-1-.54-2.33-.08-3.22.35-1.16.57-2.49,1.75-.62,2.86,1,.59,5.94-1.07,4.37-2.8A1.85,1.85,0,0,0,28,35.28Z" transform="translate(0)"/><path class="cls-15" d="M45.45,38.12v0l0,0a6.67,6.67,0,0,1-2.64-1.41,2.6,2.6,0,0,0,1.09,2,33.53,33.53,0,0,1-16.75,1.27A3.52,3.52,0,0,0,28.4,38a7.85,7.85,0,0,1-5.23,1.8,3,3,0,0,0,2.45.79c-.09,2.75.2,10.76,9.59,10.63,8.71-.11,10.13-8.87,10.24-12a2.88,2.88,0,0,0,2.18-1.05A4.8,4.8,0,0,1,45.45,38.12Z" transform="translate(0)"/><path class="cls-16" d="M26.51,40.16s-1.1,10.36,8.8,9.9c10.2-.48,9.21-11.16,9.21-11.16A29.93,29.93,0,0,1,26.51,40.16Z" transform="translate(0)"/><path class="cls-17" d="M27.23,41s.08,2.87,2.1,2.66a115.76,115.76,0,0,1,12.85-.39c1.13,0,1.65-3.25,1.65-3.25C40.12,41,31.86,41.44,27.23,41Z" transform="translate(0)"/><path class="cls-18" d="M27.23,41A3.93,3.93,0,0,0,28,43.11a24.77,24.77,0,0,1,15.23-.9A9.94,9.94,0,0,0,43.83,40C40.12,41,31.86,41.44,27.23,41Z" transform="translate(0)"/><path class="cls-17" d="M39.76,47.39a20.08,20.08,0,0,1-6,.8c-2.57,0-3.38-.62-3.85-.16s1.53,2.41,5.63,2c4.69-.41,5.43-2.14,5.43-2.14C41.17,47.51,40.76,47,39.76,47.39Z" transform="translate(0)"/><path class="cls-18" d="M30.65,48.05s4.72,2.35,9.12-.42A20.94,20.94,0,0,1,30.65,48.05Z" transform="translate(0)"/><path class="cls-19" d="M23,34.2a8,8,0,0,1,.91-.08,2.2,2.2,0,0,1-.23.46c.31-.08.59-.21.88-.29,1.85-.55,3.84-.3,5.74-.35a1.65,1.65,0,0,0-.79-.37,2.9,2.9,0,0,1,1.31,0C28.61,31.57,25,32.93,23,34.2Z" transform="translate(0)"/><path class="cls-19" d="M45.81,32.39a3.71,3.71,0,0,0-.77-.27A7.65,7.65,0,0,0,42.31,32a3.71,3.71,0,0,0-1.2.3c-.35.17-.94.67-.88,1.07.1,0,.86-.22.89-.27-.06.11-.09.25-.16.37.31-.11.61-.24.94-.33A8.42,8.42,0,0,1,44.2,33c.76,0,1.54.49,2.27.42-.08-.06-.54-.51-.63-.51.25,0,.5,0,.76.05A1.93,1.93,0,0,0,45.81,32.39Z" transform="translate(0)"/><path class="cls-19" d="M45.24,31.44a4.08,4.08,0,0,0-4.6,1.19s2.94-.83,4.29-.07a5.5,5.5,0,0,0,5.47.28C47.81,33.35,46.09,31.79,45.24,31.44Z" transform="translate(0)"/><path class="cls-19" d="M25.25,32.31c-.86.32-2.55,1.93-5.14,1.45a5.46,5.46,0,0,0,5.46-.35c1.34-.77,5.25.16,5.25.16A5.47,5.47,0,0,0,25.25,32.31Z" transform="translate(0)"/><path class="cls-20" d="M44.1,28.17A2.54,2.54,0,0,0,41,30.49s.7-1,3.07-.73a5.19,5.19,0,0,1,3.56,2.18S47,28.52,44.1,28.17Z" transform="translate(0)"/><path class="cls-20" d="M26.73,28.3c-2.9.37-3.52,3.8-3.52,3.8a5.17,5.17,0,0,1,3.54-2.22c2.37-.3,3.08.71,3.08.71A2.53,2.53,0,0,0,26.73,28.3Z" transform="translate(0)"/></g></g></g></svg>