<svg xmlns="http://www.w3.org/2000/svg" xmlns:xlink="http://www.w3.org/1999/xlink" viewBox="0 0 66 66"><defs><style>.cls-1{fill:none;}.cls-2{clip-path:url(#clip-path);}.cls-3,.cls-31{fill:#fff;}.cls-4{fill:#93aebf;}.cls-5{fill:#4cb5cf;}.cls-6{fill:#00315e;opacity:0.15;}.cls-7{fill:#ffbc82;}.cls-8{fill:#e68c5e;}.cls-9{fill:url(#linear-gradient);}.cls-10{fill:#85b428;}.cls-11{opacity:0.1;}.cls-12{fill:#588a17;}.cls-13{fill:#acd14b;}.cls-14{fill:#ff3b3b;}.cls-15{fill:#fff9f0;}.cls-16{fill:#cd9d76;}.cls-17{fill:#c94614;opacity:0.3;}.cls-18{fill:#bf3c1b;opacity:0.2;}.cls-19{fill:#ff697c;}.cls-20{fill:#fa9769;}.cls-21{fill:#121b21;}.cls-22{fill:#fa5e46;}.cls-23{fill:#c22c25;}.cls-24{fill:#4a271b;}.cls-25{fill:#c7a295;}.cls-26{fill:#ffa6b1;}.cls-27{fill:#ffcd29;}.cls-28{fill:#ffa514;}.cls-29{fill:#f2ece4;}.cls-30{fill:#ff5773;}.cls-31{opacity:0.6;}</style><clipPath id="clip-path" transform="translate(0.01)"><circle class="cls-1" cx="33" cy="33" r="33"/></clipPath><linearGradient id="linear-gradient" x1="32.7" y1="49.83" x2="32.7" y2="56.22" gradientUnits="userSpaceOnUse"><stop offset="0" stop-color="#ee996d"/><stop offset="0.3" stop-color="#f6a977"/><stop offset="0.67" stop-color="#fdb77f"/><stop offset="1" stop-color="#ffbc82"/></linearGradient></defs><g id="Layer_2" data-name="Layer 2"><g id="avatars"><g class="cls-2"><rect class="cls-3" width="66" height="66"/><path class="cls-4" d="M51.84,36.81c.83-4.76,1.2-8.7-1.61-12.13-.25-.31-1.17-.82-1.4-1.14-4.61-6.73-14.58-10.09-22.38-10.09a15,15,0,0,0-10.66,4.87c-2.63,2.95-3.53,6.9-3.74,11.59-.09,2-.33,7.78-3.34,7.7,1.47,1.12,3.4,1.49,4,0,0,7.63,9.15,20,12.53,22a12.44,12.44,0,0,0,7.62,1.64,14.78,14.78,0,0,0,12-8.65c1-2.15,1.92-4.33,2.73-6.55.74-2,.87-4.43,2-6.2,1.16,1.25,3.8,1.23,4.63.39A3.55,3.55,0,0,1,51.84,36.81Z" transform="translate(0.01)"/><path class="cls-5" d="M40.08,62.86a7.77,7.77,0,0,0,1.55,2.45,12.88,12.88,0,0,0,2.83-6,25.81,25.81,0,0,0,1-3.23A4,4,0,0,0,49,54.33c-2.3-.2-2.27-2.13-1.33-3.69,1.17-1.93,2.92-3.85,3.37-6.12a6.44,6.44,0,0,0-.36-3.68c-.68-1.73-.4-3.49-.42-5.3-.21.5-1.37,3.87-1.14,4.29a19.91,19.91,0,0,1-.81-2.14c.37,2.34-.21,7.44-3.42,9.3-1.24.72-.09,2.77-1.12,3.75-.42.4-1,.54-1.36,1a3.47,3.47,0,0,0-.47,3.13c-1.78,0-1.57-1.29-1.93-2.54a3.9,3.9,0,0,1-1.14,2.58c-1,.62-2.51.15-3.53,0-3-.51-5.36-.07-8.27.12a5,5,0,0,1-3.95-2.15,9.17,9.17,0,0,1-.3,2.11c-4.15-2-1.33-6.74-3.62-9.51a2.89,2.89,0,0,1-1.88,2.13c-.8-1.24-1.34-4.16-2.22-6.47-.77,3.6-2.44-2.82-1.8-6.18-1.73,3-1.38,7.1-.48,8.65A19.79,19.79,0,0,1,15,48.77c.75,3.23-2.26,8.59,2.49,9.68-.87-1.26.06-2.33-.13-3.54,2.57,2.26.55,6.23,3.31,10.65a7.1,7.1,0,0,0,4.23-3.27A8,8,0,0,0,26.69,66H38.3A7.2,7.2,0,0,0,40.08,62.86Z" transform="translate(0.01)"/><path class="cls-6" d="M39.43,60.67c1.14-.61,4.85,1.83,4.46,0-.24-1.14-2.14-.86-2.39-2a7.17,7.17,0,0,0-1.06-3.1c-.69-1-1.86-2-1.64-3.3.15-.83,1.81-1.65,1.76-2.15.06.69.85,1.14.82,1.88,1.58-1.63,1.2-3.82,2.46-5.53.87-1.17,2.21-2,2.84-3.34.79-1.67-.21-3.65.16-5.43.44-2.07,2-6.63.16-8.34-1.19-1.13-2.64-.6-4-.69a12.78,12.78,0,0,1-4.83-1.46c-2.65-1.4-4.72-3.75-7.15-5.47-3.1-2.19-10-5.37-12.95-.23-1.53,2.64-1.18,6.22-1.41,7.38-.48,2.46-2.57,4-2.78,6.5A6.38,6.38,0,0,0,15.63,40a9.34,9.34,0,0,1,1.57,1.88c.33.75.09,1.44.82,2.08s1.47.58,2.15,1,.77.85,1,1.51a8.3,8.3,0,0,1,.88,2.36c0,.3.15,2.3-.27,2.4a4,4,0,0,0,1.44-.38,12.14,12.14,0,0,0,1.34-1.51c.27.85.6,1.43.73,2.08.45,2.13-.8,3.82-2.24,5-.47.4-1.69,1.95-1.36,2.46.07.1.49.54.49.54a37.24,37.24,0,0,0-.39,3.91c.14.72,1.36.73,2.07,1.12s2-1.51,2.26-1.34.38,1.6,1.3,2.93h9.42C38.62,64.53,38.62,61.1,39.43,60.67Z" transform="translate(0.01)"/><path class="cls-7" d="M37.64,53.24l-.19,3.85c.55.62,12.29,11,17.4-2.57l-2.91-1.11C47.77,62.73,40.15,54.18,37.64,53.24Z" transform="translate(0.01)"/><path class="cls-7" d="M56,49.94c.39-.93-.56-1.67-1.2-.47,0-.23.11-.71-.06-.9-.61-.7-1.14.63-1.27,1.06a2.77,2.77,0,0,1-.78,1.4c-.07-.4-.82,0-.92.38a3.29,3.29,0,0,0,.27,2.3c.06.91,1.27,2.53,2.15,1.53.45-.53.7-.78,1.16-1.34a18.09,18.09,0,0,0,1.76-3.28C57.47,49.85,56.83,49,56,49.94Z" transform="translate(0.01)"/><path class="cls-8" d="M53.21,50.39c-.23.72,3.08,2,3.41,1.36C57.2,50.6,53.44,49.68,53.21,50.39Z" transform="translate(0.01)"/><path class="cls-7" d="M28.38,57.37c1.2-1-.19-4.6-1.81-3.73C23.4,55.35,22.34,61.18,21.23,66h3.55C25.62,62.53,26.59,58.88,28.38,57.37Z" transform="translate(0.01)"/><path class="cls-9" d="M36,52.17c-2.09-.92-.68-3.42-3.42-3.42s-1.48,2.82-3.44,3.56c-4.56,1.73-4.52,4.37-1.83,7.06s7.44,3.09,11.15-.26S38.08,53.08,36,52.17Z" transform="translate(0.01)"/><path class="cls-10" d="M38.3,61.49c1.92-4.31-.09-6.58-1.1-8.89A5.05,5.05,0,0,0,36,52c.38,1.69,1,5.79-3.26,5.79s-3.86-3.4-3.55-5.67a1.53,1.53,0,0,0-.93.42c-1.19,3.63-3.18,4.65-1.35,9,.53,1.26,1.31,3,1,4.39H37C36.91,64.33,37.63,63,38.3,61.49Z" transform="translate(0.01)"/><path class="cls-11" d="M28.73,62.2c.43.72,1.72.71,2.74.9-.18,0-.35.09-.53.12A8.46,8.46,0,0,0,35.08,63c.38-.12,1.43-.77,1.63-.79a31.3,31.3,0,0,1-4.23.25C31.2,62.39,30,62.22,28.73,62.2Z" transform="translate(0.01)"/><path class="cls-12" d="M35.64,51.59a.46.46,0,0,0-.35.55c.19.86.7,3.15-.27,4.36a2.8,2.8,0,0,1-2.32.87,3.21,3.21,0,0,1-2.51-.83c-.81-.93-.58-2.63-.39-4l0-.28a.46.46,0,0,0-.91-.13l0,.28c-.22,1.55-.48,3.48.61,4.74a4,4,0,0,0,3.2,1.14,3.68,3.68,0,0,0,3-1.22c1.25-1.55.66-4.15.45-5.13A.46.46,0,0,0,35.64,51.59Z" transform="translate(0.01)"/><path class="cls-12" d="M28,52.42a.46.46,0,0,0-.58.29,23.5,23.5,0,0,1-.86,2.21,8.72,8.72,0,0,0-.92,3.3.46.46,0,0,0,.44.48h0a.46.46,0,0,0,.46-.44,7.82,7.82,0,0,1,.85-3c.27-.64.58-1.36.89-2.29A.46.46,0,0,0,28,52.42Z" transform="translate(0.01)"/><path class="cls-12" d="M37.78,52.71a.46.46,0,0,0-.58-.29.46.46,0,0,0-.3.58c.31.93.62,1.65.89,2.29a7.77,7.77,0,0,1,.85,3,.47.47,0,0,0,.46.44h0a.45.45,0,0,0,.43-.48,8.72,8.72,0,0,0-.92-3.3A23.5,23.5,0,0,1,37.78,52.71Z" transform="translate(0.01)"/><path class="cls-13" d="M35.64,58a12.68,12.68,0,0,1-6.72-.08C27.7,57.65,27,59,27.38,60.11c.49,1.51,3,1.89,5.24,1.85,4.36-.08,6-1.64,5.27-3.49C37.69,58,36.76,57.64,35.64,58Z" transform="translate(0.01)"/><path class="cls-14" d="M32.68,53.48a.88.88,0,1,0,.89.88A.88.88,0,0,0,32.68,53.48Z" transform="translate(0.01)"/><path class="cls-14" d="M34.68,53a.78.78,0,1,0,.78.77A.79.79,0,0,0,34.68,53Z" transform="translate(0.01)"/><path class="cls-14" d="M35.74,51.9a.63.63,0,0,0-.63.63.63.63,0,1,0,1.26,0A.63.63,0,0,0,35.74,51.9Z" transform="translate(0.01)"/><path class="cls-14" d="M35.84,51.05a.45.45,0,1,0,.44.45A.45.45,0,0,0,35.84,51.05Z" transform="translate(0.01)"/><path class="cls-14" d="M30.68,53a.78.78,0,1,0,.78.77A.78.78,0,0,0,30.68,53Z" transform="translate(0.01)"/><path class="cls-14" d="M29.63,51.9a.64.64,0,0,0-.64.63.64.64,0,0,0,.64.64.64.64,0,0,0,.63-.64A.63.63,0,0,0,29.63,51.9Z" transform="translate(0.01)"/><path class="cls-14" d="M29.53,51.05a.45.45,0,0,0,0,.9.45.45,0,1,0,0-.9Z" transform="translate(0.01)"/><path class="cls-15" d="M45.46,39.15C43,39.23,41,41.59,41,44.41s2.08,5.06,4.57,5S50.06,47,50,44.12,48,39.07,45.46,39.15Zm0,8.41A3.43,3.43,0,0,1,42.12,44a3.61,3.61,0,0,1,3.24-3.81,3.42,3.42,0,0,1,3.31,3.6A3.61,3.61,0,0,1,45.43,47.56Z" transform="translate(0.01)"/><path class="cls-7" d="M31.89,15.46C20.15,15.55,15.06,23,18.53,33.27,19,43.75,26.61,52.09,34.85,51.18c6.82-.76,12.64-9.26,11.35-20.73C45,20.17,39.7,15.41,31.89,15.46Z" transform="translate(0.01)"/><path class="cls-16" d="M23.38,20.47c-.87-.91-1.88-1.9-3-1s-4.28,4.2-2.5,11.91c.62-.1.95.76,2.17.23-.44-6.39,2.36-8.17,4.46-8.91C26,22.2,24.52,21.67,23.38,20.47Z" transform="translate(0.01)"/><path class="cls-7" d="M16.53,31.61c-3.39,1.55-1.82,7.37,1,8.23a5.69,5.69,0,0,0,2.78,0,.54.54,0,0,1,.05-.11c.38-.83-.48-4.72-.72-5.52C19.06,32.23,18.15,30.87,16.53,31.61Z" transform="translate(0.01)"/><path class="cls-17" d="M18.27,33.72c-.85-.46-3.08.15-2.14,1.94.62-1.57,1.54-.47,1.33.66-.14.76-1,.72-.2,1.75.41.56,1.31.42,1.77.16C20.49,37.41,19.31,34.28,18.27,33.72Z" transform="translate(0.01)"/><path class="cls-18" d="M31.36,18.2c-.58-.12-1.28-.26-2.05-.4-2.67-.47-7.42-3.37-8.95-1.57-2.61,3.08,2.89,8.2,4.77,9s3.29.55,5.35.28c3.79-.49,7.06,3.3,10.42,4.78,2,.89,7.27,2.33,6.35-1.76C45.53,20.83,38,19.5,31.36,18.2Z" transform="translate(0.01)"/><path class="cls-19" d="M50,18.64a3.49,3.49,0,0,1,1.15.25,11.42,11.42,0,0,0-1.79-2.84c-3-3.68-8.49-5-13-5.13.31,0,1-.23,1.47-.3a12.5,12.5,0,0,0-6.29-1c-4.32.42-15,3.9-10.94,10.15a21,21,0,0,0,4.57,4.13c2.17,1.33,3.87.7,6.2.49a8,8,0,0,1,5.43,1.83,40.51,40.51,0,0,0,9.49,5.24,22.57,22.57,0,0,0,9.61.34c-1.41-2.09-2-5.23-3-7.65C52.74,23.46,50.44,18.65,50,18.64Z" transform="translate(0.01)"/><path class="cls-15" d="M20,39.15c-2.49.08-4.49,2.44-4.46,5.26s2.07,5.06,4.56,5,4.49-2.44,4.46-5.27S22.48,39.07,20,39.15Zm0,8.41A3.42,3.42,0,0,1,16.65,44a3.6,3.6,0,0,1,3.23-3.81,3.42,3.42,0,0,1,3.31,3.6A3.61,3.61,0,0,1,20,47.56Z" transform="translate(0.01)"/><path class="cls-20" d="M45.2,37.31a2.57,2.57,0,0,0-2.13-1c-1-.06-2.26.22-1.57,1.69.37.78,4.11,1.57,3.86-.2A1.43,1.43,0,0,0,45.2,37.31Z" transform="translate(0.01)"/><path class="cls-20" d="M26.92,37.18a2.66,2.66,0,0,0-2.52-.67c-1.06.14-2.45.77-1.44,2.31.55.83,4.79.88,4.21-1.11A1.63,1.63,0,0,0,26.92,37.18Z" transform="translate(0.01)"/><path class="cls-21" d="M39.81,29.6c2.08.2,3.82-.41,6.94-.15C45.61,28,41.37,28,39.81,29.6Z" transform="translate(0.01)"/><path class="cls-17" d="M35.19,38c-.71,0-1-.29-1.49,0s.58,1.24,1.46,1.16,1.8-.89,1.54-1.19S36,38,35.19,38Z" transform="translate(0.01)"/><path class="cls-21" d="M21.26,29.16c3.9.09,5.22.26,7.92.19C27.76,27.53,23,27.65,21.26,29.16Z" transform="translate(0.01)"/><path class="cls-22" d="M38.52,40.78c-1.88-.4-4.17,1-5.19,2.74-.65,1.14.59,4.07,2.58,4.15C39,47.78,41.58,41.43,38.52,40.78Z" transform="translate(0.01)"/><path class="cls-23" d="M38.25,41.86a2.41,2.41,0,0,0-2.11,1c-.39.39-1,1.08-1.55,1.13a7.43,7.43,0,0,1,1.21,2,1.17,1.17,0,0,0,2.07.21C38.4,45.46,40.43,42.13,38.25,41.86Z" transform="translate(0.01)"/><path class="cls-24" d="M25.85,31.15c-2.06-.77-3.1,3-1.67,4.13a2.79,2.79,0,0,1,2,0C27.47,34.52,27.38,31.72,25.85,31.15Z" transform="translate(0.01)"/><path class="cls-25" d="M24.83,32.06c-.85.12-.54,1.86.35,1.43C25.82,33.17,25.58,31.94,24.83,32.06Z" transform="translate(0.01)"/><path class="cls-24" d="M43.92,31.19c-2.06-1.32-3.87,3.5-1.58,4.2a2.43,2.43,0,0,1,1.81-.3C44.94,34.07,45,31.89,43.92,31.19Z" transform="translate(0.01)"/><path class="cls-25" d="M42.46,31.87c-.81,0-.7,1.83.18,1.5C43.28,33.13,43.18,31.85,42.46,31.87Z" transform="translate(0.01)"/><path class="cls-21" d="M44,31.08c-1.89-.72-2.51,1.52-2.51,1.52a1.76,1.76,0,0,1,2.2-.42,3.89,3.89,0,0,0,4.8-.35C46.16,32.61,45,31.47,44,31.08Z" transform="translate(0.01)"/><path class="cls-21" d="M24.47,31.25a6.12,6.12,0,0,1-4.83.86,4.29,4.29,0,0,0,5,.18,2,2,0,0,1,2.29.18S26.44,30.25,24.47,31.25Z" transform="translate(0.01)"/><path class="cls-26" d="M37.52,15.8c3.33-1.07,7.36-.15,10.58.86a21.56,21.56,0,0,0-18.62-3.32s.09-.15.06-.16c1.43-.87,3.1-.83,4.6-1.49-3-.34-6.88-.17-9.51,1.39s-2.73,4,0,5.46a7.91,7.91,0,0,0,3.68,1.15c.09,0,2.33-.2,1.9-.79,1.63,2.23,4.27,2.73,6.72,3.6a6.27,6.27,0,0,0-.34-1.25c4.83,3.76,9.91,6.69,16.2,6.47a14,14,0,0,0-1.18-2.2C48.72,20.59,43.54,16.08,37.52,15.8Z" transform="translate(0.01)"/><path class="cls-27" d="M50.67,46.19,38.78,42a2.64,2.64,0,0,0-1.71,4.88L49,51.07a2.64,2.64,0,0,0,1.71-4.88Z" transform="translate(0.01)"/><path class="cls-28" d="M49.43,50.82c1,.49,2.78-1.44,2.12-3.47C51,45.71,48.44,50.34,49.43,50.82Z" transform="translate(0.01)"/><polygon class="cls-29" points="50.44 49.56 58.74 52.51 59.23 51.25 50.93 48.3 50.44 49.56"/><path class="cls-7" d="M51.53,49.44c-.17.31.24,1,.31,1.3.11.5-.38,1.31.08,1.76s.78.06,1-.3a2.19,2.19,0,0,0-.14-2.54C52.49,49.4,51.8,49,51.53,49.44Z" transform="translate(0.01)"/><path class="cls-28" d="M43.52,49.14,46,50c.81-3.8,3.14-4.37,3.14-4.37l-2.48-.88C43.54,45.71,43.52,49.14,43.52,49.14Z" transform="translate(0.01)"/><path class="cls-30" d="M41,48.26l2.49.88c.82-3.8,3.14-4.37,3.14-4.37l-2.48-.88C41.05,44.83,41,48.26,41,48.26Z" transform="translate(0.01)"/><path class="cls-28" d="M38.54,47.38l2.49.88c.81-3.8,3.14-4.37,3.14-4.37L41.69,43C38.56,44,38.54,47.38,38.54,47.38Z" transform="translate(0.01)"/><path class="cls-30" d="M36.09,46a1.82,1.82,0,0,0,1,.83l1.47.52c.81-3.81,3.14-4.37,3.14-4.37l-2.48-.88A4.52,4.52,0,0,0,36.09,46Z" transform="translate(0.01)"/><path class="cls-31" d="M36.63,44.28l12.42,4.34a4.08,4.08,0,0,1,1.53-1.94L37.92,42.44C37,42.56,36.23,44.13,36.63,44.28Z" transform="translate(0.01)"/></g></g></g></svg>