<svg xmlns="http://www.w3.org/2000/svg" xmlns:xlink="http://www.w3.org/1999/xlink" viewBox="0 0 96 96"><defs><style>.cls-1{fill:none;}.cls-2{clip-path:url(#clip-path);}.cls-3{fill:#ff8967;}.cls-4{fill:#9c552c;}.cls-5{fill:#e8dbdb;}.cls-6{fill:url(#linear-gradient);}.cls-7{fill:#fff9f0;}.cls-8{fill:#fff;}.cls-11,.cls-8{opacity:0.4;}.cls-9{fill:#261b18;}.cls-10,.cls-11{fill:#661004;}.cls-10{opacity:0.3;}.cls-12{fill:#573d2f;}.cls-13{fill:#bf6c3c;}.cls-14{fill:#f0ded1;opacity:0.7;}.cls-15{fill:#d47b48;}.cls-16{fill:#78231f;}.cls-17{fill:#fff7ea;}.cls-18{fill:#ecdcc4;}.cls-19{fill:#161110;}</style><clipPath id="clip-path" transform="translate(0)"><circle class="cls-1" cx="48" cy="48" r="48"/></clipPath><linearGradient id="linear-gradient" x1="47.78" y1="74.89" x2="47.78" y2="80.09" gradientUnits="userSpaceOnUse"><stop offset="0" stop-color="#854326"/><stop offset="1" stop-color="#9c552c"/></linearGradient></defs><g id="Layer_2" data-name="Layer 2"><g id="Layer_4" data-name="Layer 4"><g class="cls-2"><rect class="cls-3" width="96" height="96"/><path class="cls-4" d="M57,80.1a2.26,2.26,0,0,0-2.85,3.48A20.74,20.74,0,0,1,54.48,87,32.43,32.43,0,0,0,56,96h4.93c-1.34-2.4-1.7-5.67-1.92-9.28C58.78,83.56,58.64,81.27,57,80.1Z" transform="translate(0)"/><path class="cls-4" d="M41.54,83.75a2.25,2.25,0,0,0-2.84-3.47c-1.69,1.17-1.83,3.45-2,6.62-.22,3.51-.56,6.72-1.82,9.1h4.89a32.91,32.91,0,0,0,1.42-8.83A21.9,21.9,0,0,1,41.54,83.75Z" transform="translate(0)"/><path class="cls-4" d="M56.07,79.67c-3-2.15-13-2.65-16.85.29s.73,8.87,1.62,16H55.05C55.79,88.88,60.16,82.64,56.07,79.67Z" transform="translate(0)"/><path class="cls-5" d="M56.62,89.45c-1.28-2.76-1.22-7.57-.55-9.78a2.94,2.94,0,0,0-1.34-.84c-3.53-1.16-10-1.55-13.9.1a6.09,6.09,0,0,0-1.61,1,15.15,15.15,0,0,1-.36,8.94A35,35,0,0,1,40.58,96H55.36A36.3,36.3,0,0,1,56.62,89.45Z" transform="translate(0)"/><path class="cls-6" d="M51.88,72.76c.3-5.19-8.67-5.39-8.66.28,0,2.51.11,4.1-.58,4.78a11.43,11.43,0,0,1-1.81,1.11c.81,5.27,1.38,7.37,7,7.37,5.08,0,6.43-1.63,6.9-7.47a12.85,12.85,0,0,1-2.37-1.16C51.56,77,51.75,75.05,51.88,72.76Z" transform="translate(0)"/><path class="cls-7" d="M42.38,77.87a.77.77,0,0,0,0,1.53.77.77,0,0,0,0-1.53Z" transform="translate(0)"/><path class="cls-7" d="M44.13,79.05a.76.76,0,0,0-.73.8.76.76,0,1,0,1.51-.06A.76.76,0,0,0,44.13,79.05Z" transform="translate(0)"/><path class="cls-7" d="M46.39,79.85a.77.77,0,1,0,.79.74A.78.78,0,0,0,46.39,79.85Z" transform="translate(0)"/><path class="cls-7" d="M48.66,80a.76.76,0,0,0-.73.79.75.75,0,0,0,.78.74.76.76,0,0,0,.74-.79A.78.78,0,0,0,48.66,80Z" transform="translate(0)"/><path class="cls-7" d="M52.77,77.79a.77.77,0,1,0,.78.74A.75.75,0,0,0,52.77,77.79Z" transform="translate(0)"/><path class="cls-7" d="M51,79.13a.76.76,0,0,0-.73.79.76.76,0,1,0,1.51,0A.76.76,0,0,0,51,79.13Z" transform="translate(0)"/><path class="cls-8" d="M51.53,86.86c-2.54.9-5.63.52-8.24-.13-1.5-.37-2.34,1.32-1.88,2.78.61,1.92,3.72,2.43,6.44,2.38,5.34-.08,7.35-2.07,6.44-4.44C54.05,86.82,52.9,86.38,51.53,86.86Z" transform="translate(0)"/><path class="cls-9" d="M22.79,26.23c-3.77,10.37-4,18.35-6.44,34.69-.61,4.14-3.11,10.53-2,13,1.62,3.49,5.6,1.41,8.91,2.43,3.58,1.1,7.56,2.7,8.33-2.33a7.87,7.87,0,0,1,.43,3c2.76,0,12.2-3.12,18.6-3,5.7.14,17.58,5.12,19.88-1.47,1.71-4.91,3.13-26.54,2.25-33.59,0-.43,1.67-1.05,1.72-1.43.16-1.26.25-2.15.26-2.5C75.88,7,32.2.39,22.79,26.23Z" transform="translate(0)"/><path class="cls-4" d="M45.21,22.14c-11,2.14-18.84,18-16.83,32.87,1.49,11,11.71,21.92,22.46,21.92,11.37,0,20.31-17.32,18.69-30.44C67.7,31.59,60.66,19.15,45.21,22.14Z" transform="translate(0)"/><path class="cls-10" d="M64.58,26.31a52.2,52.2,0,0,0-18.41-3.95c-4-.11-9.44-.37-13.21,1.25-5.65,2.43-8.08,6.14-8.87,11.85-.54,3.87,3.36,7.58,6.34,10,2.12-2.07,1.12-4.87,1.06-7.32.51,2.79,2.79,2,5.2,2.09,2.15.1,5.82,1,7.78,0,.88-.48,1-1.11,1.37-2.05a3.39,3.39,0,0,0,1.19,1c1.44.69,3.33.46,4.92.53,2.35.1,4.84.35,7.11-.43,1-.34,1.58-.63,1.87-1.75.38,2.37,4,2,5.91,1.89C75.3,39.09,69.26,28.17,64.58,26.31Z" transform="translate(0)"/><path class="cls-4" d="M24.54,48.81c-5.42,1.48-3.26,9.39,1.17,11a10.67,10.67,0,0,0,4.37.49l.09-.14c.65-1-.25-6.79-.58-7.88C28.76,49.53,27.14,48.09,24.54,48.81Z" transform="translate(0)"/><path class="cls-11" d="M26.44,51.72c-1.22-.56-4.26.44-2.83,2.82.75-2.2,2.09-.75,1.89.82-.14,1-1.27,1.06-.15,2.41.61.73,1.83.46,2.45.08C29.78,56.61,27.92,52.41,26.44,51.72Z" transform="translate(0)"/><path class="cls-9" d="M45.47,34.79l0,.09s0,0,0-.06S45.48,34.75,45.47,34.79Z" transform="translate(0)"/><path class="cls-9" d="M60.35,34.73h0Z" transform="translate(0)"/><path class="cls-9" d="M61.24,19.11c-6.1-5.18-14-5.15-21.54-3.86-2.88.49-7,1.21-9.55,2.64C27.91,19.14,27,22.08,26,24.31c-1.85,4-2.44,8.82-2.8,13.15-.2,2.33.72,4.72.95,7S25.37,48.74,25.8,51a20.15,20.15,0,0,1-.66,10.19c-.46,1.39-1.56,2.54-.55,3.78.8,1,2.74,1.42,3.58.53s2.09-6.85,2.39-8.42a56.49,56.49,0,0,0,.5-12.19A29.54,29.54,0,0,1,32.26,34c-.12,1.49.46,3.42.55,5,3.73-.45,7.72-.14,11.46-.28a14.13,14.13,0,0,0,1.23-3.79l0-.09s0,0,.05,0,0,0,0,.06c.25.67.51,2.15,1,2.54.9.72,3.52.28,4.6.35,2,.14,5.52.86,7.48,0,1.27-.54,1.46-1.73,1.78-3h0c.4.67.58,1.86,1.21,2.17a13.31,13.31,0,0,0,3.72.67,28.64,28.64,0,0,0,4.44-.07c2.94-.54.83-5.75.06-7.62C68.05,25.67,64.46,21.84,61.24,19.11Z" transform="translate(0)"/><path class="cls-12" d="M43.37,12.5c-5.68.59-13.75,5.14-16.27,10.25-5.71,11.55-7.9,24.37-8.38,37.12-.13,3.23-2,8.15-1.8,11.11.17,2.72,1.48,2.78,3.66,1.23,2.83-2-.31-12.55.22-19.1.42-5.16,4.67-5.4,6.09-12.22C28.5,50,27.06,62,23.57,72c12-20.25,2.59-30.76,8.89-44.33A10.43,10.43,0,0,0,44.09,30a18.09,18.09,0,0,1,12.44-.35c4.93,1.88,9.54,2.81,15.71.17C69.25,15.41,53.68,11.41,43.37,12.5Z" transform="translate(0)"/><path class="cls-13" d="M67,53c-.92-1.12-2.69-1.18-3.94-1.05-1.64.15-3.77,1-2.11,3.24.88,1.19,7.48,1.44,6.47-1.43A2.23,2.23,0,0,0,67,53Z" transform="translate(0)"/><path class="cls-13" d="M41.47,53.51c-1-1-2.78-1-4-.81-1.63.24-4.44,1.78-2.09,3.43,1.69,1.19,7.82.8,6.6-1.91A2.61,2.61,0,0,0,41.47,53.51Z" transform="translate(0)"/><path class="cls-9" d="M40.46,45.85c-3.85-1-6.25,3.26-3.62,4.65a8.67,8.67,0,0,1,3.8.2C43.21,49.85,43.32,46.61,40.46,45.85Z" transform="translate(0)"/><path class="cls-11" d="M51.78,52.79c-1,.09-1.84-.38-2.7.16s.3,2,2.84,1.74S55,53,54.52,52.52,52.85,52.71,51.78,52.79Z" transform="translate(0)"/><path class="cls-13" d="M51.38,48.28c-1.82,0-3,3.43-2.09,4.47.61.73,4.58.42,5.13-.52C54.61,51.88,53.11,48.29,51.38,48.28Z" transform="translate(0)"/><path class="cls-14" d="M40.17,48.11c-1.17.33-.27,2.23.86,1.54C41.86,49.14,41.21,47.81,40.17,48.11Z" transform="translate(0)"/><path class="cls-9" d="M64.91,44.84c-3.95-.51-5.76,4.06-3,5.09a8.46,8.46,0,0,1,3.79-.31C68.17,48.43,67.84,45.21,64.91,44.84Z" transform="translate(0)"/><path class="cls-14" d="M64.8,47.19c-1.09.48,0,2.25,1,1.41C66.58,48,65.77,46.76,64.8,47.19Z" transform="translate(0)"/><path class="cls-15" d="M63.25,58.57c-6.65-1.11-17,.41-23.13.59-.49,0-.88.15-.66.68.94,2.25,4.49,10.49,12.8,10.42,7-.05,7.6-4.91,8-7.47.17-1.25,2.06-2.77,3.53-3.7C64.23,58.78,63.87,58.67,63.25,58.57Z" transform="translate(0)"/><path class="cls-16" d="M40.4,60a11.06,11.06,0,0,0,10.81,6.5c7.33-.31,8.28-2.67,8.66-4.31a4.86,4.86,0,0,1,2.53-3.1C49.83,62.09,40.4,60,40.4,60Z" transform="translate(0)"/><path class="cls-17" d="M43,60.65a3.38,3.38,0,0,0,2.48,3A19.28,19.28,0,0,0,56,63.9c2.49-.59,4-4,4-4A85.8,85.8,0,0,1,43,60.65Z" transform="translate(0)"/><path class="cls-17" d="M53.1,64A26.92,26.92,0,0,1,45,63.19c-1.33-.43-1.37.2-1.14.76,0,0,.36,2.29,6.68,2.6,5.53.27,8-2.67,7.45-3.26S56.58,63.87,53.1,64Z" transform="translate(0)"/><path class="cls-18" d="M43,60.62a2.75,2.75,0,0,0,.24,1s13.18-1.26,16.07-.43A5.18,5.18,0,0,0,60,59.91,99.73,99.73,0,0,1,43,60.62Z" transform="translate(0)"/><path class="cls-18" d="M45.77,63.2c5.38,2.12,11.5,0,11.5,0A28.57,28.57,0,0,1,45.77,63.2Z" transform="translate(0)"/><path class="cls-19" d="M38.5,44.67c-2.06.48-4.68,2.67-8.07.27,0,0,1.17,4,7.88,1.52,2.73-1,4.26,1.9,4.26,1.9S42.55,43.75,38.5,44.67Z" transform="translate(0)"/><path class="cls-19" d="M64.7,44.12c-3.79-1-4,3.51-4,3.51A3.51,3.51,0,0,1,64.93,46c6.07,2.24,7.4-1.5,7.4-1.5C69,46.75,66.64,44.61,64.7,44.12Z" transform="translate(0)"/><path class="cls-9" d="M63.62,39.34c-2.65.21-5.23,1.81-4.92,3.11C59,43.91,61,41.58,63.57,41c3.24-.78,5.26.61,5.17.28C68.46,40.23,66,39.14,63.62,39.34Z" transform="translate(0)"/><path class="cls-9" d="M39.29,40c-3-.27-6.17.65-6.29,1.63-.08.64,2.51-.84,6.49,0,3.17.69,5.39,2.9,5.82,1.51C45.7,41.88,42.54,40.26,39.29,40Z" transform="translate(0)"/></g></g></g></svg>