<svg xmlns="http://www.w3.org/2000/svg" xmlns:xlink="http://www.w3.org/1999/xlink" viewBox="0 0 96 96"><defs><style>.cls-1{fill:none;}.cls-2{clip-path:url(#clip-path);}.cls-3{fill:#f6cb7d;}.cls-4{fill:#9fa2a6;}.cls-5{opacity:0.2;}.cls-6{fill:#8f4721;}.cls-7{fill:#e62628;}.cls-8{fill:#ff3b3b;}.cls-9{opacity:0.15;}.cls-10{fill:#261b18;}.cls-11{fill:#9c552c;}.cls-12,.cls-13{fill:#66241b;}.cls-12{opacity:0.4;}.cls-13,.cls-23{opacity:0.7;}.cls-14{fill:#661004;opacity:0.3;}.cls-15,.cls-21{fill:#8e9194;}.cls-16{fill:#c1c5c9;}.cls-17{fill:#6e7073;}.cls-18{fill:#5d5f61;}.cls-19{fill:#262633;}.cls-20{fill:#3a3a4a;}.cls-21{opacity:0.5;}.cls-22{fill:#d17642;}.cls-23{fill:#f0ded1;}.cls-24{opacity:0.8;}.cls-25{fill:#541d15;}</style><clipPath id="clip-path" transform="translate(0)"><circle class="cls-1" cx="48" cy="48" r="48"/></clipPath></defs><g id="Layer_2" data-name="Layer 2"><g id="Layer_4" data-name="Layer 4"><g class="cls-2"><rect class="cls-3" width="96" height="96"/><path class="cls-4" d="M35.81,84,32,77.9c-5.45,3.43-8.61,9.95-8.25,17,0,.36.05.71.09,1.07h7.27c-.07-.47-.14-1-.17-1.44C30.69,90.08,32.57,86,35.81,84Z" transform="translate(0)"/><path class="cls-4" d="M61.22,84l3.84-6.09c5.45,3.43,8.61,9.95,8.24,17,0,.36,0,.71-.09,1.07H65.94a11.33,11.33,0,0,0,.17-1.44C66.34,90.08,64.47,86,61.22,84Z" transform="translate(0)"/><path class="cls-4" d="M59.66,74.89c-7.12-3.82-17.49-2.5-22.22.57C31.25,79.48,32.25,86,33.86,96h29C64.58,86.36,65.72,78.14,59.66,74.89Z" transform="translate(0)"/><path class="cls-5" d="M47.78,67.88c-11.23,0-11.62,16.73.54,16.73C59.68,84.61,63.39,67.88,47.78,67.88Z" transform="translate(0)"/><path class="cls-6" d="M51.93,66.34c-2.47-.67-6.51-.34-8.58,1.71-7.21,7.12-.2,14.13,5.47,14.13s7.81-5.1,7.59-9C56.23,70.05,54.52,67,51.93,66.34Z" transform="translate(0)"/><path class="cls-7" d="M66.26,78.14c-.6-1.56-6.89-3.89-6.89-3.89C55.43,81.16,53.86,89,53.37,96h9.92C64.53,85.32,66.78,79.48,66.26,78.14Z" transform="translate(0)"/><path class="cls-8" d="M59.25,71.58S54.16,83.8,54.37,88.19c5.18-7.57,13.45-11.91,13.53-12.83S63.24,71.84,59.25,71.58Z" transform="translate(0)"/><path class="cls-9" d="M60.21,82.07c1.78,1.51,4.82.26,4.82,0A21.64,21.64,0,0,0,60.21,82.07Z" transform="translate(0)"/><path class="cls-9" d="M56,90.93c2.37,1.45,6.35.09,6.34-.13A37.86,37.86,0,0,0,56,90.93Z" transform="translate(0)"/><path class="cls-7" d="M30.53,78.14c-.52,1.34,1.73,7.18,3,17.86h9.92c-.49-7-2.06-14.84-6-21.75C37.42,74.25,31.13,76.58,30.53,78.14Z" transform="translate(0)"/><path class="cls-8" d="M28.89,75.36c.08.92,8.36,5.26,13.53,12.83.21-4.39-4.88-16.61-4.88-16.61C33.55,71.84,28.81,74.45,28.89,75.36Z" transform="translate(0)"/><path class="cls-9" d="M31.76,82.11c0,.22,3,1.47,4.74,0A20.93,20.93,0,0,0,31.76,82.11Z" transform="translate(0)"/><path class="cls-9" d="M34.41,90.8c0,.22,4,1.58,6.34.13A37.86,37.86,0,0,0,34.41,90.8Z" transform="translate(0)"/><path class="cls-10" d="M72.3,45.71a5.92,5.92,0,0,0-.73-1.09c3.22-.48,2-2.91.83-4.77,1.12-.73,1.91-.83,1.81-2.31-.14-2.17-3.35-3.4-4.49-5.14-1.37-2.09-2-4.58-3.46-6.63-3.18-4.54-5.8-6.42-11.3-8-10.64-3.15-25.2-2.56-31,8.12a20.09,20.09,0,0,1-2.53,4c-1.06,1.16-2.52,1.63-3.59,2.71-2,2-1.6,5,1.55,5.28-2.58.91-2.9,4.37.23,4.85-3.18,1.14-1.82,4,.94,4.56-1,2.82-.35,3.94,1.85,5.68a29.71,29.71,0,0,1,3.45,3.71c3.05,3.42,5.24,7.5,8.21,10.9s6.15-2.36,8.55-3.73a17,17,0,0,1,10.73-2.27c3.25.48,5.53,3.87,8.83,3.95,2,0,3.29-1.66,4.11-3.27.94-1.81.65-3.23,1-5s2-2.14,3-3.32c.44-.5,1.74-3.83,0-3.81C73.27,50.06,73.26,47.6,72.3,45.71Z" transform="translate(0)"/><path class="cls-11" d="M25.42,55.17c1.64,12,10.89,25.16,24.83,24.17,14.22-1,21.3-18.65,19.46-33.41-2-16-9.59-29.41-26.22-26.17C31.61,22.08,23.24,39.15,25.42,55.17Z" transform="translate(0)"/><path class="cls-12" d="M41.14,31.17a3.87,3.87,0,0,1-2.56-1c-.29,1.72-2.25,2.31-3.79,2.27a3.68,3.68,0,0,1-3.7,4.09l-.84,3.6c-.47,2.06-1.42,4.08-1.56,6.21a27.28,27.28,0,0,1-3.2-9.91c-.5-3.13-1-7,0-10,.83-2.45,3.56-3.83,5.78-4.84,4-1.83,8.75-1.58,13.09-1.51a53.69,53.69,0,0,1,14.4,2.26c2.4.72,7.64,1.77,8.95,4.22,1.56,2.92-3.84,5-5.68,3.16-1.76,1.66-5.17.55-6.36-1.26-1.68,2-4,1.18-5.87,0-1.06,2.36-3.77.57-5.36,1.19-1.16.46-1.4,1.57-3.13,1.56Z" transform="translate(0)"/><path class="cls-11" d="M22.55,60.33a11.64,11.64,0,0,0,4.71.51l.09-.14c.7-1.11-.27-7.32-.63-8.49-.9-2.94-2.64-4.48-5.44-3.71C15.45,50.1,17.79,58.62,22.55,60.33Z" transform="translate(0)"/><path class="cls-13" d="M24.81,58.22c2.12-1.34.12-5.85-1.49-6.59-1.31-.6-4.58.49-3,3,.81-2.38,2.26-.82,2,.87-.15,1.13-1.37,1.15-.16,2.6C22.82,58.94,24.14,58.64,24.81,58.22Z" transform="translate(0)"/><path class="cls-10" d="M65.45,30.76a1.58,1.58,0,0,0,.83-.39,6,6,0,0,0,1.39-4.6,17.08,17.08,0,0,0-2.86-6.71c-2.18-3-8.3-3.5-11.64-4.15A40.33,40.33,0,0,0,41,14.55c-6.73.8-14.85,4-17,11.11-1.31,4.38-.63,9.46-.29,13.93.2,2.71-.89,7.94,1.42,10,2.7,2.38,3.77-1.2,4-3.77.38-3.8.82-7.47,1.34-11.21,2.43.22,3.54-1.84,3.43-4,1.93.48,4.34.09,5-2.05a4.91,4.91,0,0,0,3.18.78c1.11-.2,1.52-1.51,2.14-1.69.88-.25,2.28.9,3.35.7S49.34,27.3,50,26.3c1.62,2.55,5.32,2,7.23.19A3.83,3.83,0,0,0,63,28.36C62.32,28.83,63.94,31,65.45,30.76Z" transform="translate(0)"/><path class="cls-14" d="M26.58,30.58c.4,2.86,3.83,5.19,6.19,5.82s4.52,1.25,6.78,1.89c6.24,1.8,21.07,3.32,26.8-.16,6.35-3.84-5.76-10.7-15.62-11.38-5.14-.36-10.29-1.3-15.44-.94-2.34.16-7.91.25-8.64,3.33A3.91,3.91,0,0,0,26.58,30.58Z" transform="translate(0)"/><path class="cls-15" d="M74.66,33.36C64,39.93,30.18,36.48,20.51,31c-2.61-1.47-2.26-6.15-.86-7.36C33.62,11.5,85.63,26.58,74.66,33.36Z" transform="translate(0)"/><path class="cls-16" d="M23.21,21.68a5.4,5.4,0,0,0-2.34,5.64c1.47,4.59,17.47,10.53,46.79,7.47-28.26.32-46.86-4.52-42.27-14Z" transform="translate(0)"/><path class="cls-17" d="M23.76,21.21c-1.26.54-3.55,3.58-2.34,5.64,1.63,2.76,14.49,8.1,36.84,7.84C36.31,32.49,21.36,29.8,26,20.28Z" transform="translate(0)"/><path class="cls-17" d="M24.73,27.38c4.25,4.12,37.66,7.17,43.32-.27-1.11-7.64-4.25-17.42-6-18.57C56.52,4.88,28.78,6.34,26.42,11,25.21,13.46,22.83,25.54,24.73,27.38Z" transform="translate(0)"/><path class="cls-18" d="M47.89,31.36a92.46,92.46,0,0,1-24.63-3.81l-.81-.22,1.47-5.45.83.23c4.83,1.32,14.88,4.07,26,3.54,9-.43,13.78-2.55,15.59-3.35.41-.18.7-.3.89-.36l1.82,5.34-.91-2.67.93,2.66-.45.19c-2.07.92-7.58,3.34-17.6,3.82C50,31.33,48.93,31.36,47.89,31.36Z" transform="translate(0)"/><path class="cls-19" d="M47.84,30.31a92.44,92.44,0,0,1-24.61-3.8l-.82-.23,1.47-5.44.84.23c4.83,1.32,14.89,4.07,26,3.53,9-.43,13.77-2.55,15.59-3.34.41-.18.71-.31.9-.37l1.82,5.34-.45.19C66.52,27.33,61,29.75,51,30.23,50,30.29,48.89,30.31,47.84,30.31Z" transform="translate(0)"/><path class="cls-4" d="M59.87,9.05s0,0,0,0c-.1.84-3,.71-3.51.69-3.36-.11-6.72-.37-10.08-.4a136.19,136.19,0,0,0-14.54,1.1,12.41,12.41,0,0,1-3.38.2c1.16-.93,3-1.23,4.47-1.5C35,8.79,37.19,8.44,39.36,8a43.89,43.89,0,0,1,14.82-.25C54.8,7.86,59.86,7.9,59.87,9.05Z" transform="translate(0)"/><path class="cls-20" d="M39,30.1a92,92,0,0,1-10-1.77l1.42-6.14a87.1,87.1,0,0,0,9.32,1.66Z" transform="translate(0)"/><path class="cls-21" d="M60.82,20.75c-.52-2.27-.61-4.45-1.81-6.49-1-1.73-3-1.88-4.92-2.12-6.1-.77-12.56-1.05-18.56.29a11.43,11.43,0,0,0-5.47,2.34c-.51.47-3.51,4.14-2.52,4.55,4.91,2,10.59,2.54,15.81,3.26A37.54,37.54,0,0,0,60.82,20.75Z" transform="translate(0)"/><path class="cls-22" d="M67.78,52.77a2.61,2.61,0,0,1,.38.88c.82,3.26-6.42,2.32-7.28.91-1.59-2.64.83-3.35,2.66-3.35C64.93,51.2,66.88,51.44,67.78,52.77Z" transform="translate(0)"/><path class="cls-22" d="M40,52.7a2.76,2.76,0,0,1,.56.82c1.43,3.13-5.73,3.68-7.71,2.32-2.74-1.88.53-3.72,2.44-4C36.75,51.59,38.83,51.51,40,52.7Z" transform="translate(0)"/><path class="cls-10" d="M38.9,45.2c-4.25-1.15-6.92,3.59-4,5.14a9.46,9.46,0,0,1,4.21.22C41.93,49.63,42.06,46.06,38.9,45.2Z" transform="translate(0)"/><path class="cls-5" d="M55.47,54.63c-.85-.78-2.6.08-4.25.1-1.49,0-2.8-.66-4.19,0s.21,2.6,4.15,2.5S56.21,55.3,55.47,54.63Z" transform="translate(0)"/><path class="cls-22" d="M51.13,46.19c-3.36-.29-6,6.23-4.58,8.37,1,1.5,8.41,1.45,9.57-.31C56.54,53.61,54.33,46.47,51.13,46.19Z" transform="translate(0)"/><path class="cls-23" d="M37.39,46c-1.73.36-.42,2.47,1.27,1.71C39.87,47.18,38.92,45.7,37.39,46Z" transform="translate(0)"/><path class="cls-10" d="M61.76,37.19c-2.56.1-4.56,1.15-3.36,2.74.73,1,2.86.38,5.26.59s3.46,1.86,4.47.07S64.85,37.07,61.76,37.19Z" transform="translate(0)"/><path class="cls-10" d="M38.55,37.61c2.83,0,4.94,1.06,3.42,2.76-.91,1-3.21.47-5.9.76-2.53.28-4,2-5,.21S35.13,37.57,38.55,37.61Z" transform="translate(0)"/><path class="cls-10" d="M65,44.61c-4.37-.57-6.38,4.48-3.31,5.63a9.44,9.44,0,0,1,4.21-.34C68.63,48.6,68.29,45,65,44.61Z" transform="translate(0)"/><path class="cls-23" d="M63.65,45.63c-1.66.6-.08,2.51,1.49,1.53C66.26,46.45,65.12,45.11,63.65,45.63Z" transform="translate(0)"/><g class="cls-24"><path class="cls-25" d="M64.92,59.07a2.56,2.56,0,0,1-3.55-1.34,2.6,2.6,0,0,0,.23,2.47l0,0c-1,2.51-2,2.35-4.57,2a20.24,20.24,0,0,0-3.63-.32,28.51,28.51,0,0,0-5.81.9c-4.27,1-6.42,1.32-7.92-2.09a2.54,2.54,0,0,0,.24-2.53,2.55,2.55,0,0,1-3.53,1.38,2.52,2.52,0,0,0,1.51,1.69v0c1.34,3.16,3.36,4,5.62,4a20.22,20.22,0,0,0,4.5-.71,26,26,0,0,1,5.43-.85,18.54,18.54,0,0,1,3.31.29c2.59.39,5,.76,6.57-3.12,0,0,0-.07,0-.11A2.4,2.4,0,0,0,64.92,59.07Z" transform="translate(0)"/></g></g></g></g></svg>