<svg xmlns="http://www.w3.org/2000/svg" xmlns:xlink="http://www.w3.org/1999/xlink" viewBox="0 0 96 96"><defs><style>.cls-1{fill:none;}.cls-2{clip-path:url(#clip-path);}.cls-3{fill:#fff;}.cls-4{fill:#8e9194;}.cls-5{fill:#abafb3;}.cls-6{fill:#44444a;}.cls-7{fill:#8f4721;}.cls-8{fill:#989b9e;}.cls-9{fill:#854825;}.cls-10{fill:#4f3023;}.cls-11{fill:#9c552c;}.cls-12{fill:#66241b;}.cls-12,.cls-13{opacity:0.4;}.cls-13{fill:#661004;}.cls-14{fill:#261b18;}.cls-15{fill:#45362e;}.cls-16{fill:#d9d9d9;}.cls-17{fill:#e62628;}.cls-18{fill:#ff3b3b;}.cls-19{fill:#bf6c3c;}.cls-20{fill:#f0ded1;opacity:0.7;}.cls-21{opacity:0.8;}.cls-22{fill:#541d15;}</style><clipPath id="clip-path"><circle class="cls-1" cx="48" cy="48" r="48"/></clipPath></defs><g id="Layer_2" data-name="Layer 2"><g id="Layer_4" data-name="Layer 4"><g class="cls-2"><rect class="cls-3" width="96" height="96"/><path class="cls-4" d="M59.92,93.42c.08-6.57,6.38-10.53,2.81-13.17-8.87-6.56-23.57-4.7-31,0-3.38,2.14,2.5,6.81,2.63,13.17,0,.9.06,1.76.1,2.58H59.88C59.9,95.17,59.91,94.32,59.92,93.42Z"/><path class="cls-5" d="M32.35,74.75c-2.84,3.94,3.21,8,14.77,8,12.52,0,17.66-3.79,14.92-8C53.1,61.1,41.06,62.63,32.35,74.75Z"/><path class="cls-6" d="M37.18,75.25c-3.32,3.92,3.41,6,9.92,6s11.71-1.85,10.45-5.39C56.07,71.71,40.16,71.72,37.18,75.25Z"/><path class="cls-7" d="M47,70.2c-2.88,0-6.94,1.4-7.23,5.09A3.86,3.86,0,0,0,41,79a9.67,9.67,0,0,0,6,2.8A9.62,9.62,0,0,0,53,79a3.84,3.84,0,0,0,1.24-3.67C54,71.6,49.91,70.19,47,70.2Z"/><path class="cls-5" d="M39.87,81.54a19.2,19.2,0,0,0-4.48,8.67.62.62,0,0,0,.45.76A.39.39,0,0,0,36,91a.62.62,0,0,0,.61-.46,18.26,18.26,0,0,1,4.16-8.13.62.62,0,1,0-.89-.86Z"/><path class="cls-5" d="M54.41,81.54a.62.62,0,1,0-.9.86,18.16,18.16,0,0,1,4.17,8.13.61.61,0,0,0,.6.46.47.47,0,0,0,.16,0,.62.62,0,0,0,.44-.76A19.29,19.29,0,0,0,54.41,81.54Z"/><path class="cls-4" d="M39.9,74.13c-2.55,1-4.72,8.09,7.65,7.9C49.91,82,39.91,81.47,39.9,74.13Z"/><path class="cls-4" d="M54.12,74.13c1,6.94-10,7.87-7.65,7.9C58.83,82.22,56.67,75.11,54.12,74.13Z"/><path class="cls-8" d="M63.84,81a3.29,3.29,0,0,0-4.4,4.9c2.17,2,4.58,5,3.7,8.24A6.55,6.55,0,0,1,62.23,96h7.2c0-.07,0-.14.07-.21C70.28,92.86,70.6,87,63.84,81Z"/><path class="cls-8" d="M35.17,85.85a3.29,3.29,0,1,0-4.4-4.9C24,87,24.32,92.86,25.11,95.79l.07.21h7.2a6.55,6.55,0,0,1-.91-1.91C30.59,90.82,33,87.8,35.17,85.85Z"/><path class="cls-9" d="M67.78,59.94a7.17,7.17,0,0,1-3.8.35l-.07-.15c-.55-1.18.32-7.59.62-8.79.76-3,2.19-4.56,4.43-3.65C73.64,49.6,71.64,58.35,67.78,59.94Z"/><path class="cls-10" d="M67.58,25.11c-1.38-2.54-4.75-6.7-7.23-8.28C51.16,11,39.47,12.67,30,18c-3.22,1.82-9,5.44-9.31,9.66s4,8.44,8.12,7.39a8,8,0,0,1,5.47.5c2.16.82,4.14,2.06,6.35,2.7,3.8,1.08,7.87.62,11.61,1.89a16.07,16.07,0,0,0,10.57.48c2.37-.71,4.71-.91,5.88-3.17,1-1.85.83-5.15.57-7.15A15,15,0,0,0,67.58,25.11Z"/><path class="cls-11" d="M43,20.48C59.22,17.32,66.63,30.36,68.58,46c1.79,14.38-5.11,31.58-19,32.57C36,79.54,27,66.7,25.4,55,23.27,39.39,31.43,22.74,43,20.48Z"/><path class="cls-12" d="M34.22,33.66c-1.63.84-6,2.92-8.17-.55-1-1.64-.27-4.12.38-6,.8-2.28,3.4-3.57,5.53-4.5,3.87-1.7,8.37-1.47,12.53-1.4a52.69,52.69,0,0,1,13.78,2.1c3,.86,8.51,1.63,9.54,5,1.3,4.23-3.22,4.77-6.36,4.78C53.92,33.07,37.77,31.82,34.22,33.66Z"/><path class="cls-11" d="M22.56,61.83c1.19.93,3.72,2.52,5.29.77S27,53.26,26.66,52.12c-.88-2.87-2.58-4.37-5.31-3.62C15.67,50.07,18.68,58.79,22.56,61.83Z"/><path class="cls-13" d="M24.8,58c2.07-1.31.11-5.71-1.45-6.43-1.28-.58-4.47.48-3,3,.79-2.31,2.2-.79,2,.85-.15,1.11-1.33,1.12-.15,2.54C22.85,58.68,24.14,58.39,24.8,58Z"/><path class="cls-14" d="M59.81,18.19a23.24,23.24,0,0,0-7.92-4.11c-6.6-1.82-17.14,1.31-22.22,5.44-4,3.24-5.58,8.26-5.34,13.06.16,3.29,4.76,3.8,6.69,1.44,1.66-2,4-2.54,6.64-2.63,4.39-.16,21.59-.94,25.63.39,7.69,2.53,4.84-4.22,2-8A29.67,29.67,0,0,0,59.81,18.19Z"/><path class="cls-15" d="M30,34.86c-1.3,7.3-2.33,10.83-1.39,17.43,0,0-3.34-3.66-6.06-4-.38-1-1-12.29.58-14.83C25.66,34.05,27.45,34.83,30,34.86Z"/><path class="cls-16" d="M27,60.55a1.49,1.49,0,1,1-1.49-1.49A1.49,1.49,0,0,1,27,60.55Z"/><path class="cls-17" d="M68.8,48.54s1.44,1,1.85-.62,4.68-27.2-14.71-34.67C39.66,7,23.78,16.84,19.89,26.59c-3.31,8.28.72,10.46.72,10.46s-1.38,1.91-.27,5.63c.73,2.45.26,3.82-.12,5.68-.32,1.63,2.36-.63,5.51,1.39.8-13.13,8.3-23.82,26.91-22.83C68.51,27.77,67.62,42.68,68.8,48.54Z"/><path class="cls-18" d="M25.39,34.4a11.19,11.19,0,0,1,2.5-5.64A20.21,20.21,0,0,1,39,21.46a23.93,23.93,0,0,1,4.1-.71c-2.24-1-6-.57-8.11.52S31,24,28.62,24.42c-3.22.56-3.52-2-1.54-4.07A23.46,23.46,0,0,1,43,13.05a29.21,29.21,0,0,1,12.5,1.76,10.79,10.79,0,0,1,4.07,2.61c2,2.34-1,2.31-2.94,2.22-1.73-.09-3.06-.45-4.68.37.53-.27,3.5.66,4.28.74a27.35,27.35,0,0,1,4.58.67,9.47,9.47,0,0,1,5.54,4.07c1.12,1.65,2.63,3.81,2.2,5.92-3.16.16-1.69-5.12-3.44-6.22-.58.75-.16,3.06-1.85,2.57-1.13-.33-1.15-4.63-2.48-3.26-.61.63.12,1.59-.33,2.15-.64.79-1.69-.06-2.08-.67s-.95-3.26-2-3.22-.3,2.13-.88,2.7c-1.5,1.46-3-2-3.53-2.72-1.31-1.8-1.47,1.17-1.83,2.26-1.23-.08-2.12-2.85-3.27-2.58s.16,3.07-1.13,3c-.84,0-1.43-2.06-2.43-2s-.73.83-.93,1.61c-.74,2.88-1.73-.12-3.35-.56-.15.55.47,2.5-.16,2.8C38,27.66,37,26,36.29,25.69c-.26.78.19,2.4-.81,2.77s-2-1.91-2.92-1.44c-.76.38.48,2.62-.33,3S30.61,28.82,30,28.48c-.29,1.67,1.16,4.83-1.49,3.05-.24,1.36.55,3.41-1.3,2.92,0,.64.06,3.08-.78,3.42C24.9,38.52,25.32,35.09,25.39,34.4Z"/><path class="cls-19" d="M67.76,53a2.82,2.82,0,0,1,.39.86c.81,3.19-6.41,2.1-7.26.71-1.6-2.61.82-3.24,2.64-3.2C64.92,51.37,66.86,51.66,67.76,53Z"/><path class="cls-19" d="M37.83,52.45a2.85,2.85,0,0,1,.62.78c1.66,3-6,3.8-7.19,2.61-2.3-2.24,0-3.5,1.85-3.94C34.53,51.57,36.58,51.35,37.83,52.45Z"/><path class="cls-14" d="M36.69,50.78a4.26,4.26,0,0,0-3-.25c-2-1.73-.16-7,2.83-5.74C38.78,45.75,38.69,49.75,36.69,50.78Z"/><path class="cls-13" d="M54.47,54.2c-.75-.92-1.79.09-3.73.12-1.74,0-2.43-.78-3.65,0s.52,3,3.61,2.93S55.11,55,54.47,54.2Z"/><path class="cls-19" d="M50.28,47.76C47,47.48,46.76,54.4,47.51,55c1.84,1.45,5.67.42,6.79-.75C54.74,53.79,53.41,48,50.28,47.76Z"/><path class="cls-14" d="M65.29,44.59c1.63,1,1.61,4.34.4,5.68a4,4,0,0,0-3.16,0C60,48.62,62.26,42.77,65.29,44.59Z"/><path class="cls-20" d="M35.12,46.09c1.08-.36,1.75,1.29.89,1.91C34.83,48.85,33.91,46.5,35.12,46.09Z"/><path class="cls-20" d="M63.73,45.6c1.06-.21,1.48,1.44.6,1.92C63.11,48.19,62.54,45.84,63.73,45.6Z"/><path class="cls-14" d="M40.71,39c1.12.08,1.82.91,1.37,2.28-.35,1.09-2.82.64-6.06.84-3.5.2-5.71.76-6,.05s1.63-2.08,4.69-2.76A20.36,20.36,0,0,1,40.71,39Z"/><path class="cls-14" d="M59.29,39c-1.11.08-1.82.91-1.37,2.28.36,1.09,2.83.64,6.06.84,3.5.2,4.55.56,4.87-.14s-.47-1.89-3.53-2.57A20.34,20.34,0,0,0,59.29,39Z"/><g class="cls-21"><path class="cls-22" d="M64.13,58.86a2.56,2.56,0,0,1-3.54-1.35A2.57,2.57,0,0,0,60.82,60l0,0c-1,2.52-2,2.36-4.58,2a21.17,21.17,0,0,0-3.62-.32,27.81,27.81,0,0,0-5.82.91c-4.27,1-6.41,1.31-7.92-2.09A2.57,2.57,0,0,0,39.1,58a2.56,2.56,0,0,1-3.53,1.39A2.5,2.5,0,0,0,37.08,61s0,0,0,0c1.33,3.16,3.35,4,5.61,4a20.81,20.81,0,0,0,4.5-.71,25.43,25.43,0,0,1,5.43-.86,19.36,19.36,0,0,1,3.31.3c2.59.39,5,.75,6.57-3.12,0,0,0-.08,0-.11A2.42,2.42,0,0,0,64.13,58.86Z"/></g></g></g></g></svg>