<svg xmlns="http://www.w3.org/2000/svg" xmlns:xlink="http://www.w3.org/1999/xlink" viewBox="0 0 66 66"><defs><style>.cls-1{fill:none;}.cls-2{clip-path:url(#clip-path);}.cls-3,.cls-5{fill:#fff;}.cls-4{fill:#ca3564;}.cls-5{opacity:0.2;}.cls-6{fill:#e0e0e0;}.cls-7{opacity:0.1;}.cls-8{fill:#ffb06b;}.cls-9{fill:#f2f2f2;}.cls-10{fill:#ffc48f;}.cls-11{fill:#b54319;}.cls-11,.cls-16{opacity:0.5;}.cls-12{fill:#261b18;}.cls-13{fill:#cfc4c4;}.cls-14{fill:#2b221c;}.cls-15{fill:#121b21;}.cls-17{fill:#c4170e;}</style><clipPath id="clip-path"><circle class="cls-1" cx="33" cy="33" r="33"/></clipPath></defs><g id="Layer_2" data-name="Layer 2"><g id="avatars"><g class="cls-2"><rect class="cls-3" width="66" height="66"/><path class="cls-4" d="M39.93,55.83l-2,3c.4.34.7,2.28.88,3.44A28.48,28.48,0,0,0,39.6,66h3.81a18.53,18.53,0,0,1-1-4.26C42,59.27,41.65,57,39.93,55.83Z"/><path class="cls-4" d="M27.32,58.85l-2-3c-1.72,1.12-2.08,3.44-2.46,5.91a18.53,18.53,0,0,1-1,4.26h3.81a28.37,28.37,0,0,0,.75-3.71C26.62,61.13,26.93,59.19,27.32,58.85Z"/><path class="cls-4" d="M39.68,62.28c1.5-4.54,1.69-6.4-1.51-7.31-2.83-.79-8-1.06-11.14.08s-2.46,4.25-1.57,6.85a26.85,26.85,0,0,1,1.1,4.1H38.79A19.59,19.59,0,0,1,39.68,62.28Z"/><path class="cls-5" d="M36.22,61.11a15.69,15.69,0,0,1-7.45-.31A1.53,1.53,0,0,0,27,62.9c.51,1.51,3.31,2,5.77,2,4.84.07,6.69-1.43,5.92-3.29C38.5,61.13,37.47,60.77,36.22,61.11Z"/><path class="cls-6" d="M16.13,19.69a81.17,81.17,0,0,0-3.88,15.09c-.9,5.36-1.06,15.38,3.22,18.06,2,1.26,5.8,1.65,8.12,1.92,5.84.68,12.61-.36,18.46-.82,2.11-.16,6.52.08,7.89-1.63,4-5,3.22-17.68,1.59-25.21C46.38,3.18,22.9,1.56,16.13,19.69Z"/><path class="cls-6" d="M20.36,45.68c-3.6,9,7.13,14.76,13.37,14.76,7.78,0,14-8.3,12.87-12.51C44.14,38.58,24,36.69,20.36,45.68Z"/><path class="cls-7" d="M30.74,17.47c-7.86,1.46-13.4,12.35-12,22.58,1.07,7.6,8.36,15.08,16,15.08,8.11,0,14.46-11.89,13.31-20.91C46.77,24,41.75,15.42,30.74,17.47Z"/><path class="cls-8" d="M30.85,16c-7.59,1.47-13,12.37-11.57,22.6,1,7.59,8,15.07,15.44,15.07,7.82,0,14-11.91,12.85-20.93C46.31,22.49,41.47,14,30.85,16Z"/><path class="cls-6" d="M32.21,11c-9.09-.12-16.08,10.33-14,21.92,5-13.09,24.15-14.43,30.08-1.45C48.1,19,43.85,11.18,32.21,11Z"/><path class="cls-9" d="M31.43,9.56c-9.84.37-14.81,9.56-15.19,21.92,5.4-13.09,27.13-14,33.57-1C48.92,18.61,42.46,9.16,31.43,9.56Z"/><path class="cls-7" d="M50.53,42.68a32.79,32.79,0,0,1-5.18,10.09C48.77,52,49.65,48.64,50.53,42.68Z"/><path class="cls-7" d="M21,53.14a32.79,32.79,0,0,1-5.18-10.09C16.7,49,17.58,52.34,21,53.14Z"/><path class="cls-10" d="M44.11,35.94c-1.17-.2-2.8,0-2,1.82.42,1,5,2.38,4.77.23a2,2,0,0,0-.17-.59A3.4,3.4,0,0,0,44.11,35.94Z"/><path class="cls-10" d="M28.47,36.54a3.61,3.61,0,0,0-3.11-.14c-1.2.37-2.64,1.3-1,2.66.86.72,5.8-.14,4.58-2A2.27,2.27,0,0,0,28.47,36.54Z"/><path class="cls-11" d="M36.23,37.67c-1-.06-.95-.59-1.66-.19s-.19,2,1.55,2,2.54-1.2,2.2-1.73S37.32,37.75,36.23,37.67Z"/><path class="cls-10" d="M36,34.83c-.8,0-2,2.71-1.59,3.12,1,1,3.17.54,3.83-.15C38.49,37.53,36.9,34.81,36,34.83Z"/><path class="cls-12" d="M45.14,31.78C42.44,30.62,40,34,41.92,35.69a3.53,3.53,0,0,1,3.81-.12C46.84,34.77,46.58,32.4,45.14,31.78Z"/><path class="cls-13" d="M45.44,33.65c-.74.23-.39,1.65.36,1.15C46.35,34.44,46.09,33.44,45.44,33.65Z"/><path class="cls-13" d="M42.91,32.17c-1.26.4-.67,2.81.62,2C44.46,33.52,44,31.83,42.91,32.17Z"/><path class="cls-12" d="M25,32c-1.43.66-1.61,3-.48,3.8a3.56,3.56,0,0,1,3.81,0C30.25,34,27.69,30.77,25,32Z"/><path class="cls-13" d="M24.78,33.88c-.66-.19-.89.82-.33,1.16C25.22,35.51,25.53,34.09,24.78,33.88Z"/><path class="cls-13" d="M27.27,32.33c-1.13-.32-1.51,1.39-.57,2C28,35.11,28.54,32.68,27.27,32.33Z"/><path class="cls-12" d="M28.69,28.13a14.89,14.89,0,0,0-3.92.6A6.94,6.94,0,0,0,22.38,30a1.12,1.12,0,0,0-.41.77c.22,0,.38-.13.57-.21A12.87,12.87,0,0,1,25.61,30c.81-.09,1.61-.11,2.41-.22.54-.08,1.29,0,1.53-.59S29.41,28.1,28.69,28.13Z"/><path class="cls-14" d="M45,28.51A15.1,15.1,0,0,0,41.12,28c-.71,0-1.14.33-.85,1s1,.48,1.48.54c.79.1,1.57.11,2.36.18a12.06,12.06,0,0,1,3,.56c.19.07.34.21.56.19a1,1,0,0,0-.4-.73A6.57,6.57,0,0,0,45,28.51Z"/><path class="cls-15" d="M44.6,31.32a2.78,2.78,0,0,0-3.19,2,2.52,2.52,0,0,1,2.82-.86c3.67,1.57,5.61-1,5.61-1C47.22,32.64,45.87,31.55,44.6,31.32Z"/><path class="cls-15" d="M25.66,31.59c-1.27.24-2.61,1.35-5.24.15,0,0,2,2.58,5.62,1a2.52,2.52,0,0,1,2.83.83A2.79,2.79,0,0,0,25.66,31.59Z"/><g class="cls-16"><path class="cls-17" d="M25.12,41.13c1.08,2,3.72,1.06,2.61-1A2,2,0,0,1,25.12,41.13Z"/><path class="cls-17" d="M42.57,39.74a1.49,1.49,0,1,0,2.84.79A2.22,2.22,0,0,1,42.57,39.74Z"/><path class="cls-17" d="M43.81,40.85a.61.61,0,0,0-.79.32C42,44.1,38.83,46,35.17,46a8.17,8.17,0,0,1-7.48-4.28.69.69,0,0,0-.83-.33.51.51,0,0,0-.33.71,9.43,9.43,0,0,0,8.38,5h.33c4.21,0,7.77-2.17,9-5.55A.57.57,0,0,0,43.81,40.85Z"/></g></g></g></g></svg>