<svg xmlns="http://www.w3.org/2000/svg" xmlns:xlink="http://www.w3.org/1999/xlink" viewBox="0 0 66 66"><defs><style>.cls-1{fill:none;}.cls-2{clip-path:url(#clip-path);}.cls-3{fill:#a44f49;}.cls-4{fill:#ffae6d;}.cls-5{fill:#f58c5b;}.cls-6{fill:#f2ebe6;}.cls-7{fill:#fffcfc;}.cls-8{fill:#fccb68;}.cls-9{fill:#eea54c;}.cls-10{fill:#fff9f0;}.cls-11{fill:#ffaa7d;}.cls-12,.cls-23{fill:#d14f2e;}.cls-12{opacity:0.4;}.cls-13{fill:#91613c;}.cls-14{fill:#c4170e;}.cls-14,.cls-23{opacity:0.2;}.cls-15{fill:#305d80;}.cls-16{fill:#86bae3;}.cls-17{fill:#121b21;}.cls-18{fill:#ffe496;}.cls-19{fill:#ffe085;}.cls-20{fill:#f03f2b;opacity:0.8;}.cls-21{fill:#8f1c18;}.cls-22{fill:#e8dac5;}.cls-24{fill:url(#linear-gradient);}.cls-25{fill:url(#linear-gradient-2);}.cls-26{opacity:0.6;fill:url(#linear-gradient-3);}.cls-27{fill:url(#linear-gradient-4);}.cls-28{fill:url(#linear-gradient-5);}.cls-29,.cls-34{opacity:0.45;}.cls-29{fill:url(#linear-gradient-6);}.cls-30,.cls-31{fill:#fff;}.cls-30{opacity:0.5;}.cls-32{fill:url(#linear-gradient-7);}.cls-33{fill:url(#linear-gradient-8);}.cls-34{fill:url(#linear-gradient-9);}.cls-35{fill:url(#linear-gradient-10);}</style><clipPath id="clip-path" transform="translate(0.01)"><circle class="cls-1" cx="33" cy="33" r="33"/></clipPath><linearGradient id="linear-gradient" x1="35.39" y1="33.11" x2="38.52" y2="33.11" gradientUnits="userSpaceOnUse"><stop offset="0" stop-color="#b89377"/><stop offset="0.14" stop-color="#c59e83"/><stop offset="0.44" stop-color="#dab297"/><stop offset="0.73" stop-color="#e7bda3"/><stop offset="1" stop-color="#ebc1a7"/></linearGradient><linearGradient id="linear-gradient-2" x1="16.68" y1="34.5" x2="16.68" y2="29.81" xlink:href="#linear-gradient"/><linearGradient id="linear-gradient-3" x1="16.58" y1="34.23" x2="16.58" y2="30.03" gradientUnits="userSpaceOnUse"><stop offset="0" stop-color="#f2ebe6"/><stop offset="0.2" stop-color="#f9f5f3"/><stop offset="0.48" stop-color="#fdfdfc"/><stop offset="0.85" stop-color="#fff"/></linearGradient><linearGradient id="linear-gradient-4" x1="26.21" y1="40.19" x2="26.21" y2="24.38" xlink:href="#linear-gradient"/><linearGradient id="linear-gradient-5" x1="26.03" y1="39.94" x2="26.03" y2="24.03" gradientUnits="userSpaceOnUse"><stop offset="0" stop-color="#f2ebe6"/><stop offset="0.38" stop-color="#f9f5f3"/><stop offset="0.8" stop-color="#fffdfd"/></linearGradient><linearGradient id="linear-gradient-6" x1="27.02" y1="38.59" x2="27.02" y2="26.14" gradientUnits="userSpaceOnUse"><stop offset="0" stop-color="#d63600"/><stop offset="0.14" stop-color="#d53000"/><stop offset="0.61" stop-color="#d22100"/><stop offset="1" stop-color="#d11c00"/></linearGradient><linearGradient id="linear-gradient-7" x1="46.79" y1="39.96" x2="46.79" y2="25.06" xlink:href="#linear-gradient"/><linearGradient id="linear-gradient-8" x1="46.91" y1="39.72" x2="46.91" y2="24.71" xlink:href="#linear-gradient-5"/><linearGradient id="linear-gradient-9" x1="46.23" y1="38.49" x2="46.23" y2="26.73" xlink:href="#linear-gradient-6"/><linearGradient id="linear-gradient-10" x1="36.9" y1="38.83" x2="36.9" y2="23.5" xlink:href="#linear-gradient-5"/></defs><g id="Layer_2" data-name="Layer 2"><g id="avatars"><g class="cls-2"><rect class="cls-3" width="66" height="66"/><path class="cls-4" d="M39.32,53.57,40.26,58c.38,1.28-.41,4.88.39,8h3.94C42.83,62.67,45.16,55.7,39.32,53.57Z" transform="translate(0.01)"/><path class="cls-4" d="M28.28,58l.94-4.44C23.38,55.7,25.71,62.67,24,66H27.9C28.69,62.89,27.9,59.29,28.28,58Z" transform="translate(0.01)"/><path class="cls-4" d="M40.72,63.66c.37-1.31-3-2.1-6.41-2.2-3.39.1-6.78.89-6.41,2.2.27,1,.59,1.68.83,2.34H39.88C40.12,65.34,40.44,64.62,40.72,63.66Z" transform="translate(0.01)"/><path class="cls-5" d="M28.12,64.32c.49,1.61,11.77,1.59,12.41-.13C41.65,61.21,27.3,61.63,28.12,64.32Z" transform="translate(0.01)"/><path class="cls-4" d="M38.32,53.09c-2.48-.86-.93-4.44-4.31-4.44S32.46,52,29.84,53.17s-3.4,6-2.38,8.22c1.8,3.88,10.34,4.44,13.35.74C42.57,60,42.42,54.52,38.32,53.09Z" transform="translate(0.01)"/><path class="cls-6" d="M39.29,53.39a.81.81,0,0,0-.54-.22c.75,4.75.4,6.83-4.64,6.83S28.89,58,30,53a2.29,2.29,0,0,0-.65.34c-1.08,4.47-2.24,4.15-2.54,6.56a5.05,5.05,0,0,0,1,4c1.3,1.61,11.85,1.44,12.87,0a5,5,0,0,0,1.07-3.67C41.57,58.25,39.94,58.46,39.29,53.39Z" transform="translate(0.01)"/><path class="cls-7" d="M38.67,59.64c-1.13-.15-2.13.53-3.91.61-2.9.13-3.94-.74-5-.72-1.37,0-2.7,1.47-1.28,2.46,2.35,1.65,10.13,1.23,11.52,0C40.9,61.21,40.38,59.87,38.67,59.64Z" transform="translate(0.01)"/><path class="cls-5" d="M31.23,51.67c-.44,2.32,6.28,2.43,5.95.37S31.67,49.35,31.23,51.67Z" transform="translate(0.01)"/><path class="cls-8" d="M53.5,28.91C56,28.25,59,22.74,54.63,23c1.16,1.75-1.61,2.54-2.5,1.22a.66.66,0,0,1-.14-.33c-.14-2.18-2.37-3.69-4.07-5A23.51,23.51,0,0,0,39,14.51c-5.6-1.32-12.3-1-16.78,2.63-1.8,1.48-3.39,4.6-5.88,5.17-3.06.71-4.77,3.8-2.37,5.77a1.76,1.76,0,0,1-2.66-1.33c-2.65,1.8-3.65,5.34,0,7C7,35.89,8.06,40.37,12.6,42.34c-2.14,2-1.07,5.34,1.07,6.68-.16-1.4,1.16-4.52,3.58-2.9,1.48,1,.68,3.6-1.34,2.27-.55,2.38,3.46,3.88,4.64,1.91-.14,1.78,1.08,2.48,2.72,2.38,2.46-.14,3.33-1.78,5-2.27A25.25,25.25,0,0,1,35,49.72c4.07,0,7.55,4,11.62,2.28,1.57-.66,2.33-1.66,2.17-3.19-1.11.78-4-.37-1.63-2.21,1.19-.92,2.94-.05,4.14-.74,1.42-.82.86-3.79,1-3.85,1-.63,2.71-.67,2.81,1.11,2.11-4.12.13-5.27-2.12-5.6C57.9,36.76,58.92,29.92,53.5,28.91Z" transform="translate(0.01)"/><path class="cls-9" d="M50.28,30.89c0-3.78-4.76-2.63-6.47-2.91-5.74-.93-13.58.22-19.34.63C21,28.85,14.76,29.17,14,34a9,9,0,0,0,.91,5c-1.69,1.07-1.11,4,1.15,3.22a1.83,1.83,0,0,0-.47,2c.57.93,2.44.61,3.4,1.19a2.72,2.72,0,0,1,1.29,3.51c.47-.16,1-.29,1.43-.42.34,1.2.4,3,2,3A4.73,4.73,0,0,0,26,50.65a8.76,8.76,0,0,1,2.13-1c1.65-.42,2.49.72,4,1.13a6.29,6.29,0,0,0,3.44-.48c2.23-.73,3.25-1,5.6.06,1.15.51,3.24.92,4.64.09-1-1.5-.54-2.74.42-3.93.29-.35,2.52-2.17,1.86-2.68a1.6,1.6,0,0,0,1.41.34c2-.82.18-4.34,2-4.47-3.73-2.3.91-2,.8-4.42C50.38,35,50.26,32.38,50.28,30.89Z" transform="translate(0.01)"/><path class="cls-10" d="M48.3,40.05a1.43,1.43,0,0,0-1.4,1.44,1.39,1.39,0,0,0,1.41,1.38,1.44,1.44,0,0,0,1.4-1.44A1.37,1.37,0,0,0,48.3,40.05Z" transform="translate(0.01)"/><path class="cls-4" d="M33.55,14c-8.28.7-14.75,7.7-14.31,18.84S27.7,52.92,36.46,52c7.26-.76,13.49-9.76,12.2-22C47.5,19.12,41.82,13.32,33.55,14Z" transform="translate(0.01)"/><path class="cls-11" d="M47.56,37.33a2.71,2.71,0,0,0-2.27-1.08c-1-.08-2.4.21-1.67,1.78.39.83,4.36,1.7,4.1-.18A1.59,1.59,0,0,0,47.56,37.33Z" transform="translate(0.01)"/><path class="cls-11" d="M28.13,37.08a2.81,2.81,0,0,0-2.68-.73c-1.12.14-2.6.8-1.53,2.45.56.87,5.07,1,4.47-1.16A1.71,1.71,0,0,0,28.13,37.08Z" transform="translate(0.01)"/><path class="cls-4" d="M17.12,31.09c-3.61,1.62-2,7.82,1,8.75a6,6,0,0,0,3,0l.06-.12c.41-.87-.48-5-.73-5.87C19.81,31.76,18.85,30.31,17.12,31.09Z" transform="translate(0.01)"/><path class="cls-12" d="M19.16,33.26c-1-.52-3.48.14-2.44,2.17.72-1.77,1.75-.51,1.5.76-.16.86-1.08.81-.23,2,.45.62,1.47.47,2,.18C21.64,37.44,20.33,33.9,19.16,33.26Z" transform="translate(0.01)"/><path class="cls-13" d="M41.88,29.11c2.21.22,4.06-.42,7.37-.13C48.05,27.45,43.54,27.39,41.88,29.11Z" transform="translate(0.01)"/><path class="cls-12" d="M36.91,38c-.75,0-1-.32-1.58,0s.61,1.31,1.54,1.24,1.93-.94,1.65-1.25S37.75,38,36.91,38Z" transform="translate(0.01)"/><path class="cls-14" d="M30.45,18.34a23.67,23.67,0,0,0-6.32,2.05c-2.95,1.48-3.15,3-4.6,5.82C18.8,27.62,17,29,18.71,30.54c-1.7.63-2.1,3.54-1.05,4.86a1.79,1.79,0,0,0,1.11.71,2.9,2.9,0,0,0-.25,2.49c.41.92,1.15,1.75,2.07,1.58a5.75,5.75,0,0,0,.82,2.66c1.17,1.5,3.27,2.08,4.6.94a1.84,1.84,0,0,0-.49-3.33c-.15.47-.71,1-1.21.59s.22-2,.21-2.68c0-1.7-1.08-1-2-1.94.5-.47,1.21-1,1.2-1.85,0-1-.73-1.18-1.35-1.72-1-.89-.73-.73-.16-1.67.71-1.16,1.16-2.67-.24-3.58.68-.06,1.38-.36,1.49-1.1,1.21.65,2.63-.61,3-1.7-.12.33,1.34-.29,1.43-.36A4,4,0,0,0,29,22.72c.1,1.52,1.66,2.56,2.89,1.37.78,1.89,2.38,1.85,4.13,1.43.59,2.17-1.24,1.26-1.87,2.34-1,1.79,2.66,2.6,3.66,2.25a2.87,2.87,0,0,0,1.76-2.86c.13,1.41,2.16.77,2.89.25.41,2,2.24,2.4,3.69,1.07.23,3.26,4.49,3.23,3.66-.57C47.88,19.21,38.55,16.88,30.45,18.34Z" transform="translate(0.01)"/><path class="cls-8" d="M50.93,14.92c1.84-3.78-5.62-6.73-8.48-4.68-.42-4.68-6.31-5-9.14-1.7a5.7,5.7,0,0,0-3.72-2.18,4.75,4.75,0,0,0-4.45,1.26c1.57,0,4.2,3-.52,2.57-1.95-.2-3.11-.95-5.07.09-1.6.85-2.68,2.35-1.19,3.82,0,0-3.5-.22-4,2.93-.23,1.29.3,1.62-1,2.58a3.06,3.06,0,0,1-2.92.67,5.18,5.18,0,0,0,1.77,3.34,3.55,3.55,0,0,0,3.85.13c-.13.8,2.21,7.6,3.27,6.89-1.74,1.17-2.49,3.55-.8,4.67a3.47,3.47,0,0,0,1,.42c-2.62,1-.57,4.86,2,3.6-2.26,2.65,4.4,5.82,4.56,2.61a2,2,0,0,0-1.41-2c.44.1.6,2.06-.57,1.56-1.72-.74,1.31-3.08-.26-4.06-.77-.48-3.05,0-2.2-1.4.61-1,1.91-1.53.37-2.78-.46-.37-1.26-.42-1.3-1.14s.79-1,1.11-1.4c1.09-1.51-.58-3.33-2-3.89.89,0,3.4.41,3.12-1.28,1.38,1.22,3.43-.47,2.88-2.11.25.74,1.59.51,2,.21.83-.56.76-1.65,1.19-2.46a2.8,2.8,0,0,0,1.19,2.24,1.54,1.54,0,0,0,2.24-.56c.52,1.82,2.3,3.31,3.9,1.49a2.32,2.32,0,0,1,0,2.37c-.77,1-1.77-.06-2.42.42-.81.6.65,1.89,1.19,2.06a3.19,3.19,0,0,0,3.21-1.07,4.1,4.1,0,0,0,.45-2.39c.87,1.43,2.35,2.4,3.82.92,1.06,1.35,2.11,2,3.64.67.73,1.22.59,2.86,2.35,3.12,2,.31,1.94-2.05,1.58-3.42-.45-1.72-1.06-5.07.93-6.56,1.24-.93,3.05-.32,2.47,1.3a3.22,3.22,0,0,0,1.22-4.45A5.22,5.22,0,0,0,50.93,14.92Z" transform="translate(0.01)"/><path class="cls-10" d="M19.54,40.46a1.34,1.34,0,0,0-1.3,1.33,1.27,1.27,0,0,0,1.31,1.27,1.33,1.33,0,0,0,1.29-1.33A1.28,1.28,0,0,0,19.54,40.46Z" transform="translate(0.01)"/><path class="cls-13" d="M22.16,28.51c4.15.13,5.55.32,8.42.26C29.08,26.82,24,26.92,22.16,28.51Z" transform="translate(0.01)"/><path class="cls-15" d="M27,30.65c-2.18-.83-3.32,3.19-1.8,4.39a2.88,2.88,0,0,1,2.12.07C28.74,34.25,28.65,31.28,27,30.65Z" transform="translate(0.01)"/><path class="cls-16" d="M26.46,32.45c-.9.13-.57,2,.37,1.52C27.51,33.63,27.27,32.33,26.46,32.45Z" transform="translate(0.01)"/><path class="cls-15" d="M46.24,30.81c-2.19-1.4-4.14,3.71-1.71,4.46a2.64,2.64,0,0,1,1.93-.3C47.3,33.88,47.41,31.57,46.24,30.81Z" transform="translate(0.01)"/><path class="cls-16" d="M45.21,32.36c-.87,0-.75,1.94.18,1.59C46.07,33.7,46,32.35,45.21,32.36Z" transform="translate(0.01)"/><path class="cls-17" d="M46.3,30.71c-2-.79-2.68,1.59-2.68,1.59A1.87,1.87,0,0,1,46,31.87a4.13,4.13,0,0,0,5.1-.34C48.61,32.34,47.37,31.13,46.3,30.71Z" transform="translate(0.01)"/><path class="cls-17" d="M25.57,30.75a6.45,6.45,0,0,1-5.15.88,4.56,4.56,0,0,0,5.35.24,2.08,2.08,0,0,1,2.43.19S27.67,29.7,25.57,30.75Z" transform="translate(0.01)"/><path class="cls-18" d="M29.26,13.19v0C29.27,13.12,29.26,13.12,29.26,13.19Z" transform="translate(0.01)"/><path class="cls-18" d="M50.09,24.09a12.07,12.07,0,0,0-.2-2.51,1.9,1.9,0,0,0-2.27-1.64,3.7,3.7,0,0,1,5.87-.67c.67-2.35-2.19-4.46-4.51-3.87.49-1.36.91-3.05-.44-4.12a4.93,4.93,0,0,0-5.3-.34c-1.28.77-2.72,2.3-4.53,1.16,1.08.68,3.68-3,.63-4.31C37.44,7,35.78,8,34.48,9.28a4.36,4.36,0,0,0-1,1.34c-1.29-2.47-3.26-4-6.42-3.26,2.39.06,3.37,3.79,1.21,4.82-1.26.6-2.4-.73-3.41-1.2a5.68,5.68,0,0,0-3.41-.33,4.41,4.41,0,0,0-2.59,2c1.71-.21,2.67,3.15,6.41,2.12a4.29,4.29,0,0,1-4.71.75,3.61,3.61,0,0,0-3.28-.26c-1.59.86-1.2,3.08-2,4.45s-1.39,1.38-2.68,1.74a4.81,4.81,0,0,0,3.81.83c-1.13.11-1.8,1.69-1.9,2.56-.14,1.14.84,2,.67,3.08A2.2,2.2,0,0,1,13,29.4a2,2,0,0,0,2.21.39c1-.32,1.18-1.58,2-1.75,1.08-.23,2.2,1.6,2.17,2.43,1.63-.77-.28-3.29-1.23-4,1.07,0,4-.1,3.82-1.6.12.91,2.07,0,2.32-.47a1.75,1.75,0,0,0-.5-2.17c.6.09,1.72.67,2.2.11s-.07-1.59-.33-2c4.87,1.92,3.51-3.14.51-3.09,2.27-.17,2.88-.51,3.17-4v0c0-.07,0-.07,0,0v0c.16,2-.4,4.05,3,3.75-4.95,1.72-3,5.72,1.92,4.59-.75.18-.82,1.59.3,2.4A2.42,2.42,0,0,0,37,23.82c.87,1.35,1.13,2.54.08,3.72,1.19.08,1.64-1.69,1.82-2.54.89.54,1.7,1.37,2.82.94.84-.33,1.3-1.24,1.85-1.88,0,1.48.55,2.59,1.45,2.79a2.74,2.74,0,0,0,2.72-.93,3.93,3.93,0,0,0,1.14,3,2.66,2.66,0,0,0,3.33.55A1.28,1.28,0,0,1,51,28.73c2.08-.19,3.71-1.28,3.55-3.42C53.08,26,50.17,26.27,50.09,24.09Z" transform="translate(0.01)"/><path class="cls-8" d="M41.08,21.16c.92,3.32,3.76,4.22,5.48,1.53C44.77,24.26,41.87,22.9,41.08,21.16Z" transform="translate(0.01)"/><path class="cls-8" d="M19,24.74c2,1.71,4.41.1,3.42-2.35C22.23,24,20.27,25.22,19,24.74Z" transform="translate(0.01)"/><path class="cls-8" d="M46.73,23.88c-1.24,2.27,1,4.08,3.26,2.55C48.31,26.62,46.55,25.13,46.73,23.88Z" transform="translate(0.01)"/><path class="cls-8" d="M44,18.6a4.66,4.66,0,0,0,5.67,1.28l-.07-1.53A7.09,7.09,0,0,1,44,18.6Z" transform="translate(0.01)"/><path class="cls-8" d="M45.08,14.17a3.5,3.5,0,0,0,4.33,1.16l.26-1.72A4.42,4.42,0,0,1,45.08,14.17Z" transform="translate(0.01)"/><path class="cls-8" d="M14.17,22.39l.46,1.49c2.42.07,4.09-.92,4.85-3.06A6.88,6.88,0,0,1,14.17,22.39Z" transform="translate(0.01)"/><path class="cls-19" d="M11,28.82l-.06-1c-1,1.12-1.79,2.39-1,3.78.49.92,1.85,1.9,3,1.13a2.77,2.77,0,0,0,.7-1.62l-.06-.05C12.09,31.22,10.64,30.15,11,28.82Z" transform="translate(0.01)"/><path class="cls-19" d="M12.39,34.17l-.82.48c-2,0-3,3.3-2.16,4.7A4,4,0,0,0,12,41a4.85,4.85,0,0,1-1-3.74C11.32,36.17,12.35,35.36,12.39,34.17Z" transform="translate(0.01)"/><path class="cls-19" d="M54.94,30.58a4.59,4.59,0,0,0-1.76-.74v.33c1.74,2.26,1.4,4,.39,6.26,0,0,.09.09.1.06C56.12,35.51,57.32,32.22,54.94,30.58Z" transform="translate(0.01)"/><path class="cls-19" d="M53.66,38.5l-.83-.22c-.37,1.92,2.06,1.49,2.34,2.9C55.59,40,55.4,38.42,53.66,38.5Z" transform="translate(0.01)"/><path class="cls-19" d="M12.69,43.48a3.06,3.06,0,0,0,.17,4.07c.05-.62.45-1.1.45-1.73s-.41-1-.33-1.69Z" transform="translate(0.01)"/><path class="cls-20" d="M36.94,41.22c-3,0-7.35.54-9.62-.75,3.56,5.93,5.89,7.1,8.92,7.41a5.22,5.22,0,0,0,5.91-3.65,10.58,10.58,0,0,1,3.09-3C42.84,41.66,40.52,41.28,36.94,41.22Z" transform="translate(0.01)"/><path class="cls-21" d="M29.05,41.55a8.79,8.79,0,0,0,6.84,4.29c3,.2,5.08-.62,5.72-1.9a3.93,3.93,0,0,1,2-1.86A33.43,33.43,0,0,1,29.05,41.55Z" transform="translate(0.01)"/><path class="cls-10" d="M30.79,42s.08,1.18,1.74,1.71a17.16,17.16,0,0,0,6.87.59,3.67,3.67,0,0,0,2.53-2A35.65,35.65,0,0,1,30.79,42Z" transform="translate(0.01)"/><path class="cls-10" d="M37.19,44.33c-2.17,0-4-.24-5-.93-.74-.49-.84,0-.69.3,0,0,.6,1.64,4.17,2.18s5.34-1.31,5-1.67S39.2,44.36,37.19,44.33Z" transform="translate(0.01)"/><path class="cls-22" d="M30.79,42a1.8,1.8,0,0,0,.38.84s8.14-.24,10,.5a3.72,3.72,0,0,0,.72-1A41.43,41.43,0,0,1,30.79,42Z" transform="translate(0.01)"/><path class="cls-22" d="M32.81,43.66c2.81,1.74,6.37.56,6.37.56A12.48,12.48,0,0,1,32.81,43.66Z" transform="translate(0.01)"/><path class="cls-23" d="M46.66,39c-1.93-.11-5-.38-6.56-1.75A5,5,0,0,1,39,34.69c-.27-1.09-.15-2.28-1.66-2.16a2.94,2.94,0,0,0-2.54,2.19,5,5,0,0,1-2.93,3.5A11,11,0,0,1,27,39.45,7.33,7.33,0,0,1,21,37c-1-1.14-1.2-2.83-1.53-4.27a7,7,0,0,0-.86-2.86c-.74-.95-1.56-.08-1.85.78-.66,1.94.5,4.43,1.21,6.18s1.23,3,3,3.82a6.54,6.54,0,0,0,5.31.45A9,9,0,0,1,29,40.34c3.19-.33,5.3-1.53,6.32-3.78.61-1.37.49-2.81,1.52-2.84.7,0,.61.77.85,1.57.85,2.86,2.72,4.1,7.12,5.4.89.27,2.16.55,2.55,1.53a6.8,6.8,0,0,0,.76-1.33,16,16,0,0,0,.73-1.51,4.36,4.36,0,0,0,.28-.84A4.41,4.41,0,0,1,46.66,39Z" transform="translate(0.01)"/><path class="cls-24" d="M37,31.93a2.54,2.54,0,0,0-1.2.2c-.23.15-.8,1.57,0,2.12a1.15,1.15,0,0,1,2.21,0c.87-.51.37-1.95.15-2.11A2.68,2.68,0,0,0,37,31.93Z" transform="translate(0.01)"/><path class="cls-25" d="M16.09,30.94a.57.57,0,0,0-.49.72c.15.41.71,1.86.84,2.2s.84.33,1.36.29L17,30.85C16.92,30.86,16.22,30.91,16.09,30.94Z" transform="translate(0.01)"/><path class="cls-26" d="M16,31a.48.48,0,0,0-.44.64l.85,2c.13.31.79.32,1.27.29l-.83-3C16.74,31,16.09,31,16,31Z" transform="translate(0.01)"/><path class="cls-27" d="M18.59,25.3c-4.65,2.56-.69,12.62,3.29,14.29s10.9-.28,13-2.82c1.82-2.19,1.33-6.62-1.47-9.08S23.25,22.79,18.59,25.3ZM33.2,36.39c-1.68,1.77-7,2.73-9.81,1.25s-5.27-9.29-1.67-10.91,9.57,1.11,11.1,2.71S34.66,34.85,33.2,36.39Z" transform="translate(0.01)"/><path class="cls-28" d="M33.24,27.49c-2.33-2.08-6.89-3.74-11.42-3.45a8.35,8.35,0,0,0-3.54.93c-2.14,1.18-2.12,3.93-1.92,5.47.49,3.8,3,8,5.31,9a10.34,10.34,0,0,0,4.89.54h0c3.42-.33,6.86-1.75,8.18-3.36C36.59,34.37,35.93,29.88,33.24,27.49Zm.19,9a9.11,9.11,0,0,1-5.35,2,9,9,0,0,1-4.9-.72c-1.83-1-3.51-4.25-3.67-7.17-.12-2.11.59-3.61,2-4.23a6.11,6.11,0,0,1,2.13-.5c3.54-.24,8,1.82,9.43,3.29S35,34.85,33.43,36.52Z" transform="translate(0.01)"/><path class="cls-29" d="M21.52,26.53c-3.72,1.68-1.23,9.73,1.74,11.31s8.42.54,10.16-1.3c1.52-1.6,1.15-5.6-.39-7.2S25.26,24.87,21.52,26.53Z" transform="translate(0.01)"/><path class="cls-30" d="M32.67,29.45c-1.49-1.52-7.27-4.09-10.78-2.56-1.65.73-2,2.77-1.63,4.87.42,2.35,13.89,1.05,13.34-.64A4.21,4.21,0,0,0,32.67,29.45Z" transform="translate(0.01)"/><path class="cls-31" d="M21.9,26.83c-2.28,1-2.07,4.67-.88,7.49C19.88,31.52,20.5,29,22.73,28c3.51-1.59,8.55.09,10,1.67a3.89,3.89,0,0,1,.74,1.19,4,4,0,0,0-.8-1.34C31.22,27.93,25.41,25.24,21.9,26.83Z" transform="translate(0.01)"/><path class="cls-32" d="M54,26.23c-4.17-2.66-10.84-.83-13.58,1.54s-3.3,6.76-1.71,8.93c1.81,2.46,8.19,4.22,11.84,2.69S58.13,28.84,54,26.23ZM49.37,37.6c-2.64,1.38-7.49.47-9-1.25-1.29-1.52-.81-5.32.61-6.8s7-3.84,10.24-2.13S52.05,36.22,49.37,37.6Z" transform="translate(0.01)"/><path class="cls-33" d="M54.17,25.9A7.82,7.82,0,0,0,51,24.81,14,14,0,0,0,40.5,27.56c-2.55,2.28-3.33,6.74-1.73,9,1.14,1.58,4.25,2.93,7.38,3.23a9.56,9.56,0,0,0,4.5-.5c2.17-.91,4.55-4.73,5.11-8.2C56,29.65,56.08,27.12,54.17,25.9Zm-1,5.27c-.24,2.69-1.87,5.69-3.56,6.57a8.23,8.23,0,0,1-4.5.66,7.67,7.67,0,0,1-4.81-2c-1.39-1.64-.83-5.6.63-7.12a12.44,12.44,0,0,1,8.66-2.76,5.68,5.68,0,0,1,1.92.59C52.72,27.8,53.32,29.23,53.15,31.17Z" transform="translate(0.01)"/><path class="cls-34" d="M51.43,27.24c-3.35-1.78-9.1.64-10.61,2.21s-2,5.47-.62,7c1.52,1.79,6.55,2.73,9.29,1.3S54.78,29,51.43,27.24Z" transform="translate(0.01)"/><path class="cls-30" d="M51.37,27.58c-3.1-1.61-8.4.55-9.79,2a4.29,4.29,0,0,0-.91,1.59c-.56,1.62,11.57,3.11,12,1C53.09,30.21,52.83,28.34,51.37,27.58Z" transform="translate(0.01)"/><path class="cls-31" d="M51.37,27.52c-3.1-1.66-8.43.62-9.83,2.08a4.27,4.27,0,0,0-.78,1.27,4.06,4.06,0,0,1,.72-1.13c1.4-1.46,6-3.07,9.12-1.41,2,1.05,2.44,3.58,1.33,6.1C53.09,31.89,53.38,28.59,51.37,27.52Z" transform="translate(0.01)"/><path class="cls-35" d="M38.08,32.17A3.25,3.25,0,0,0,36.94,32a3.06,3.06,0,0,0-1.16.15c-.22.11-.77,1.19,0,1.62a1,1,0,0,1,1.08-.61,1,1,0,0,1,1,.64C38.77,33.39,38.29,32.29,38.08,32.17Z" transform="translate(0.01)"/></g></g></g></svg>