<svg xmlns="http://www.w3.org/2000/svg" xmlns:xlink="http://www.w3.org/1999/xlink" viewBox="0 0 66 66"><defs><style>.cls-1{fill:none;}.cls-2{clip-path:url(#clip-path);}.cls-3{fill:#fff;}.cls-4{fill:#ff9819;}.cls-5{fill:#765aa3;}.cls-6{fill:#3a3a4a;}.cls-7{fill:#8f4721;}.cls-8{fill:#1f1a17;}.cls-9{fill:#9c552c;}.cls-10,.cls-11{fill:#661004;}.cls-10{opacity:0.3;}.cls-11{opacity:0.4;}.cls-12{fill:#bf6c3c;}.cls-13{fill:#e6d2c3;opacity:0.7;}.cls-14{fill:#d47b48;}.cls-15{fill:#78231f;}.cls-16{fill:#fff3e2;}.cls-17{fill:#e8dac5;}.cls-18{fill:#330500;opacity:0.2;}.cls-19{fill:#332823;}</style><clipPath id="clip-path" transform="translate(0 0)"><circle class="cls-1" cx="33" cy="33" r="33"/></clipPath></defs><g id="Layer_2" data-name="Layer 2"><g id="avatars"><g class="cls-2"><rect class="cls-3" width="66" height="66"/><path class="cls-4" d="M26.14,60.26c.77-.9.44-6.81-.55-6.53-3.3,1-7.08,7.09-6.61,12.27h5.31A7.81,7.81,0,0,1,26.14,60.26Z" transform="translate(0 0)"/><path class="cls-5" d="M25.56,53.12c-3.12,2-6.83,6.1-7.11,11.5a16.59,16.59,0,0,0,6.32.92,7.59,7.59,0,0,1,1.52-5.29C27.09,59.32,26.46,52.54,25.56,53.12Z" transform="translate(0 0)"/><path class="cls-4" d="M41.11,53.73c-1-.28-1.33,5.63-.55,6.53A7.76,7.76,0,0,1,42.4,66h5.32C48.19,60.82,44.41,54.69,41.11,53.73Z" transform="translate(0 0)"/><path class="cls-5" d="M41.14,53.12c-.91-.58-1.54,6.2-.73,7.13a7.59,7.59,0,0,1,1.52,5.29,16.54,16.54,0,0,0,6.31-.92C48,59.22,44.26,55.14,41.14,53.12Z" transform="translate(0 0)"/><path class="cls-6" d="M41.59,59.83a19.41,19.41,0,0,1,1.1-5.31c.11-.31-1.14-2.71-9.27-2.76-8.37,0-9.46,2.32-9.3,2.63a13.13,13.13,0,0,1,1,5.4c0,2.44.18,4.46.3,6.21H41.3C41.41,64.26,41.58,62.25,41.59,59.83Z" transform="translate(0 0)"/><path class="cls-4" d="M27.56,53.08c-.71,2.57,5.83,5.55,5.83,5.55s7.39-3.18,5.54-6C37.27,50,28.38,50,27.56,53.08Z" transform="translate(0 0)"/><path class="cls-7" d="M33.37,46.82a4.56,4.56,0,0,0-4.73,4.29,3.84,3.84,0,0,0,.81,3.1,5.86,5.86,0,0,0,3.92,2.36c1.42,0,2.8-1.08,3.92-2.36a3.87,3.87,0,0,0,.8-3.1A4.55,4.55,0,0,0,33.37,46.82Z" transform="translate(0 0)"/><path class="cls-8" d="M52.68,18.73c3.27-2.44.85-7.2-3.73-6.09,1.65-2.94-1.86-6.38-5.07-2.93.27-4.81-5-5.45-7.32-2.16.63-4-6.23-4.35-6.86,0C28,4.73,21.9,4.55,22.38,8.75c-2.53-3.54-6.26-.48-4.82,3.37-4-1.93-6.7,2.58-3.2,5.11-3.73-1-6,3.95-1.41,5.72-4.27-.45-4.56,5-.79,4.87-2.71,1.13-1.3,4.73,1.51,4.37-1.66,1.72.19,7.59,4,6.83,5.06-1,10.59-3.78,15.81-1.82,2.89,1.08,5.29,3.28,8.29,4.11,2.39.66,6.9.08,9-1.39,1.85-1.31,2.92-5.26-.48-5.11,3.35-.31,3.85-4.57.77-5.2,4.4-.73,4.88-4.53,1.84-5.87C56.59,23.56,56.24,17.74,52.68,18.73Z" transform="translate(0 0)"/><path class="cls-9" d="M31.83,15.45c-8.84.6-16.44,10.3-15.71,21.05s8,18,18.33,17.87c11.38-.11,15.76-9.48,15-20.23S40.66,14.86,31.83,15.45Z" transform="translate(0 0)"/><path class="cls-10" d="M47.77,33.09c-.37-.19-3.07-.53-2.41.49a7.7,7.7,0,0,0,2,1c.48.09.57-.09.23-.43s-1.25-.47-1.47-.9C46.46,33.21,47.58,33.7,47.77,33.09Z" transform="translate(0 0)"/><path class="cls-10" d="M24.55,35c.23.59,1.31,0,1.7,0-.19.44-1.11.66-1.4,1s-.21.53.26.4A7.16,7.16,0,0,0,27,35.31C27.57,34.25,24.91,34.79,24.55,35Z" transform="translate(0 0)"/><path class="cls-8" d="M28.52,31.84c-2-.86-3.24,2.64-1.9,3.79a2.82,2.82,0,0,1,2,.18C29.91,35.13,30,32.48,28.52,31.84Z" transform="translate(0 0)"/><path class="cls-11" d="M36.92,36.71c-1.11.06-1.57-.39-2.32.06s.3,2.13,2.25,2,2.85-1.76,2.42-2.2S38.14,36.66,36.92,36.71Z" transform="translate(0 0)"/><path class="cls-12" d="M35.93,30.8c-1,.08-1.67,1.5-1.8,3.32s-.06,2.69.42,3a3.91,3.91,0,0,0,4.62-.38C40.54,35.38,38.32,30.62,35.93,30.8Z" transform="translate(0 0)"/><path class="cls-8" d="M45.07,30.65C43,29.73,41.73,34.14,44,34.5a2.56,2.56,0,0,1,1.68-.63C46.35,32.91,46.2,31.15,45.07,30.65Z" transform="translate(0 0)"/><path class="cls-13" d="M27.5,32.56c-.8.27-.2,1.83.58,1.27C28.65,33.42,28.22,32.32,27.5,32.56Z" transform="translate(0 0)"/><path class="cls-13" d="M44.11,31.46c-.75.25-.19,1.71.54,1.18C45.18,32.27,44.78,31.24,44.11,31.46Z" transform="translate(0 0)"/><path class="cls-9" d="M14.59,34c-4.38,1.09-2.78,6.58.75,7.64a9.66,9.66,0,0,0,3.51.3.86.86,0,0,1,.07-.1c.54-.72-.29-4.38-.54-5.13C17.76,34.8,16.7,33.46,14.59,34Z" transform="translate(0 0)"/><path class="cls-10" d="M40.83,21.16a48.43,48.43,0,0,0-12.77-.78c-3.41.34-7.77,1.81-8.56,5.63-.22,1-.74,2.63-1.2,4.4-.86,3.34-1.49,7.23.61,8.79a1.89,1.89,0,0,0,2.62-2.67c1.54-.69,2.15-3.05.36-3.79a2.2,2.2,0,0,0,.71-3.39,2.2,2.2,0,0,0,1.67-2.77A4.09,4.09,0,0,0,29.43,26c1.05,1.8,3.48,1.09,4.94.06.91,2.17,4,.52,5.27-.58.87,1.51,3,.76,4.13-.21,1.9.68,2.46-.75,1.72-2.23S42.3,21.42,40.83,21.16Z" transform="translate(0 0)"/><path class="cls-10" d="M16.9,36c-1.12-.54-4.15-.18-3,1.66.95-1.46,2.09-.29,1.73.79-.24.73-1.33.61-.38,1.69a2.52,2.52,0,0,0,2.35.33C19.62,39.86,18.26,36.69,16.9,36Z" transform="translate(0 0)"/><path class="cls-8" d="M36.29,13.27c-4.16-.77-8.78-.64-12.61,1.3a10.76,10.76,0,0,0-4.11,3.49c-2.29,3.32-5.19,8.76-4,12.78.27.9.12,2.17.44,3.08.66,1.84.3,6,3.05,6.28,2.53.28,2.63-2.2,1.24-3.69,2.66.14,1.81-3,0-3.71,2.3-.52,2-3.32.73-4.73,1.94-.26,1.5-2.59.84-3.86,1.89,1.46,4.5,2.46,6.29.23.91,2.32,4.68,1.46,6.07-.07.6,2.06,3.7,1.79,4.4-.13,1.13,1.62,4.45,1.63,4.87-.53a2.06,2.06,0,0,0,3.2-2.25c2.62.26,1.48-2.81.48-4C45,15,39.44,13.85,36.29,13.27Z" transform="translate(0 0)"/><path class="cls-12" d="M29.41,37.29c-1.07-.83-2.7-.52-3.82-.15-1.46.48-3.23,1.69-1.25,3.38,1.05.91,7.12-.22,5.62-2.62A2.32,2.32,0,0,0,29.41,37.29Z" transform="translate(0 0)"/><path class="cls-12" d="M45,35.43a3,3,0,0,0-1.65,1c-.62.77-.6,1.78.73,2.41s4,.74,4.69-.93C49.65,35.62,46.44,35.07,45,35.43Z" transform="translate(0 0)"/><path class="cls-11" d="M35.91,49.92c-1.29.31-1.76,1-1.84,1.78,0-.14.71-.91,2.66-1.15a5.62,5.62,0,0,1,3.46.67C40.35,49.94,37.5,49.54,35.91,49.92Z" transform="translate(0 0)"/><path class="cls-8" d="M43.86,26.12c-1.22.14-2.63,1.11-3.86.8a2.35,2.35,0,0,0,2.15,2.16,4.09,4.09,0,0,0,2.48-.54,8.17,8.17,0,0,1,1-.37,4.91,4.91,0,0,1,1.71,0,1.64,1.64,0,0,0-.21-.61A3,3,0,0,0,43.86,26.12Z" transform="translate(0 0)"/><path class="cls-8" d="M29.86,27.54c-.77-.14-1.56-.53-2.31-.61-1.89-.19-3.82,2.33-2.61,4a9.58,9.58,0,0,0,.69-.73c1.18-1.25,2.89-.3,4.31-.05,1.9.33,2.8-.86,2.72-2.67A5.43,5.43,0,0,1,29.86,27.54Z" transform="translate(0 0)"/><path class="cls-14" d="M43.76,40.22c-1-.12-2,.58-3,.74a33,33,0,0,1-8.77.4c-1.31-.12-5.17-2.25-4,.63,2.17,5.43,4.22,7.61,8.76,7.43,6.17-.25,6.42-4.22,7.06-6.52C44.17,41.64,45.75,40.47,43.76,40.22Z" transform="translate(0 0)"/><path class="cls-15" d="M28.86,41.76s2.46,5.6,8.19,5.15c3.88-.31,5.43-2.22,5.87-3.87a3.43,3.43,0,0,1,1.45-2.24A22.66,22.66,0,0,1,28.86,41.76Z" transform="translate(0 0)"/><path class="cls-16" d="M30.78,42.28a3.06,3.06,0,0,0,2,2.43,12.14,12.14,0,0,0,7.43.07c1.72-.51,2.54-3.28,2.54-3.28A26.19,26.19,0,0,1,30.78,42.28Z" transform="translate(0 0)"/><path class="cls-16" d="M38.18,44.86a17.51,17.51,0,0,1-5.77-.55c-1-.34-1,.18-.75.63,0,0,.44,1.85,4.94,2,3.94.17,5.48-2.24,5-2.71S40.64,44.74,38.18,44.86Z" transform="translate(0 0)"/><path class="cls-17" d="M30.77,42.25a2.49,2.49,0,0,0,.75,1.62s8.23-1.14,10.34-.49a5.79,5.79,0,0,0,.89-1.88A29,29,0,0,1,30.77,42.25Z" transform="translate(0 0)"/><path class="cls-17" d="M32.92,44.31a11.56,11.56,0,0,0,8.15-.13A17.79,17.79,0,0,1,32.92,44.31Z" transform="translate(0 0)"/><path class="cls-18" d="M41.34,38.68a106,106,0,0,1-11.08,1.2c-.94,0-2.79-.07-3.4.91,0,0,0,0,0,.05-1.22,2.35,2.37,2.3,3.54,1.53,1,1.9,5.53,1.41,7.19,1.22a38,38,0,0,0,5.67-1.49c1.11-.3,3.63.29,3.6-1.5C46.8,37.86,42.86,38.49,41.34,38.68Z" transform="translate(0 0)"/><path class="cls-8" d="M44.45,37.59a12,12,0,0,0-6.25,0c-2.44.87-4.58-.35-7.12.11-8.06,1.47-2.84,5.79-.53,3.93,0,2.22,11.34,1.67,13-.84C46.75,42.61,48.79,38.62,44.45,37.59Z" transform="translate(0 0)"/><path class="cls-19" d="M42.1,38.41a6.28,6.28,0,0,0-4,.24,4.35,4.35,0,0,1-3.94.14c-1.89-.81-6.74.77-6.15,1.51s3.19.32,3.19.32a1.41,1.41,0,0,0,.88,1.23c.81.24,2.32-1,2.32-1s0,1.19,1,1.24,2-1.34,2-1.34.71,1.25,1.81,1a1.15,1.15,0,0,0,1-1.26,3.61,3.61,0,0,0,2.16.41c.82-.28.34-1.5.34-1.5a2.41,2.41,0,0,0,2.15-.15C46.11,38.67,43.61,38.7,42.1,38.41Z" transform="translate(0 0)"/><path class="cls-19" d="M47.36,15.7c2.78-3.55-2-6.31-3.93-2.12,1.47-3.55-2.56-5.72-4.76-2.36-1.55-3.3-5.47-3.58-6.77-.32-1.91-2.53-6.7-3.48-5.77.78-2.66-3.08-9.4-.49-5.83,2.21-3.61-2-7,2-2.36,2.71-4.51-.09-4.49,6.6,1.45,3.37-2.54,3,2.23,4.17,5.77,2-1.29,3.36,3.5,1.23,4.61.21a2.4,2.4,0,0,0,.38,1.05c.87,1.22,2.8.54,3.55-.95C35.3,24.35,38.16,23.89,38,21c1.17,1.26,3.9,2.9,4.52.35,1.7,1.6,4.36,1.18,4.36-1.28C50.88,21.23,52.92,15.92,47.36,15.7Z" transform="translate(0 0)"/></g></g></g></svg>