<svg xmlns="http://www.w3.org/2000/svg" xmlns:xlink="http://www.w3.org/1999/xlink" viewBox="0 0 66 66"><defs><style>.cls-1{fill:none;}.cls-2{isolation:isolate;}.cls-3{clip-path:url(#clip-path);}.cls-29,.cls-4{fill:#fff;}.cls-5{fill:#fccb68;}.cls-6{fill:#eea54c;}.cls-7{fill:#ffae6d;}.cls-8{fill:#ebebeb;}.cls-9{fill:url(#linear-gradient);}.cls-10,.cls-22{fill:#c4170e;}.cls-10,.cls-13{opacity:0.2;}.cls-11{fill:#ffe496;}.cls-12{fill:#ff7752;}.cls-12,.cls-29{opacity:0.5;}.cls-13{fill:#ba5124;mix-blend-mode:multiply;}.cls-14{fill:#1e4c76;}.cls-15{fill:#9cd0ff;}.cls-16{fill:#6e4c3c;}.cls-17{fill:#121b21;}.cls-18{fill:#ff3b3b;}.cls-19{fill:#a80a0a;}.cls-20{fill:#fff9f0;}.cls-21{fill:#e8dac5;}.cls-22{opacity:0.1;}.cls-23{fill:url(#linear-gradient-2);}.cls-24{fill:url(#linear-gradient-3);}.cls-25{opacity:0.6;fill:url(#linear-gradient-4);}.cls-26{fill:url(#linear-gradient-5);}.cls-27{fill:url(#linear-gradient-6);}.cls-28,.cls-32{opacity:0.45;}.cls-28{fill:url(#linear-gradient-7);}.cls-30{fill:url(#linear-gradient-8);}.cls-31{fill:url(#linear-gradient-9);}.cls-32{fill:url(#linear-gradient-10);}.cls-33{fill:url(#linear-gradient-11);}</style><clipPath id="clip-path" transform="translate(0)"><circle class="cls-1" cx="33" cy="33" r="33"/></clipPath><linearGradient id="linear-gradient" x1="34.02" y1="52.97" x2="33.88" y2="56.65" gradientUnits="userSpaceOnUse"><stop offset="0" stop-color="#ee996d"/><stop offset="0.06" stop-color="#f09b6d"/><stop offset="0.56" stop-color="#fba96d"/><stop offset="1" stop-color="#ffae6d"/></linearGradient><linearGradient id="linear-gradient-2" x1="34.6" y1="33.77" x2="37.78" y2="33.77" gradientUnits="userSpaceOnUse"><stop offset="0" stop-color="#b89377"/><stop offset="0.14" stop-color="#c59e83"/><stop offset="0.44" stop-color="#dab297"/><stop offset="0.73" stop-color="#e7bda3"/><stop offset="1" stop-color="#ebc1a7"/></linearGradient><linearGradient id="linear-gradient-3" x1="15.63" y1="35.74" x2="15.63" y2="31" xlink:href="#linear-gradient-2"/><linearGradient id="linear-gradient-4" x1="15.53" y1="35.47" x2="15.53" y2="31.23" gradientUnits="userSpaceOnUse"><stop offset="0" stop-color="#f2ebe6"/><stop offset="0.2" stop-color="#f9f5f3"/><stop offset="0.48" stop-color="#fdfdfc"/><stop offset="0.85" stop-color="#fff"/></linearGradient><linearGradient id="linear-gradient-5" x1="25.25" y1="41.28" x2="25.25" y2="25.3" xlink:href="#linear-gradient-2"/><linearGradient id="linear-gradient-6" x1="25.06" y1="41.04" x2="25.06" y2="24.96" gradientUnits="userSpaceOnUse"><stop offset="0" stop-color="#f2ebe6"/><stop offset="0.38" stop-color="#f9f5f3"/><stop offset="0.8" stop-color="#fffdfd"/></linearGradient><linearGradient id="linear-gradient-7" x1="26.08" y1="39.62" x2="26.08" y2="27.07" gradientUnits="userSpaceOnUse"><stop offset="0" stop-color="#d63600"/><stop offset="0.14" stop-color="#d53000"/><stop offset="0.61" stop-color="#d22100"/><stop offset="1" stop-color="#d11c00"/></linearGradient><linearGradient id="linear-gradient-8" x1="46.12" y1="40.44" x2="46.12" y2="25.27" xlink:href="#linear-gradient-2"/><linearGradient id="linear-gradient-9" x1="53.29" y1="35.92" x2="39.78" y2="28.52" xlink:href="#linear-gradient-6"/><linearGradient id="linear-gradient-10" x1="45.56" y1="38.97" x2="45.56" y2="26.98" xlink:href="#linear-gradient-7"/><linearGradient id="linear-gradient-11" x1="36.13" y1="39.56" x2="36.13" y2="24.06" xlink:href="#linear-gradient-6"/></defs><g class="cls-2"><g id="Layer_2" data-name="Layer 2"><g id="avatars"><g class="cls-3"><rect class="cls-4" width="66" height="66"/><path class="cls-5" d="M43.21,61.73c2.77-3.84,5.68-6.89,6.92-11.65a14.47,14.47,0,0,0,.12-5.37,29.39,29.39,0,0,1,.83-10.23,40.85,40.85,0,0,0,.43-10.37C50.78,6.23,27.85,2.35,19.37,12.72c-10,12.29-4.75,21-5.27,23.89C13.32,41,10.85,44.45,11.5,48c1,5.51,6.23,6.11,2.43,13.46,2.21.7,5.06-1.27,6.39-3.17a14.26,14.26,0,0,0,8,7.67h8.44A12.7,12.7,0,0,0,43.21,61.73Z" transform="translate(0)"/><path class="cls-6" d="M20.56,34.89C17.79,41,17,47.69,20,52.39c3.9,6.1,10.08,7.74,16.82,5.55,6.49-2.11,8.91-8.08,10.77-14.12,2-6.32,2.74-12.18-.7-18.11C39.51,12.94,26.08,22.75,20.56,34.89Z" transform="translate(0)"/><path class="cls-7" d="M29.36,59.32c.73-.25,1.87-2.34,1.49-3s-.76-1-1.48-.74c-4,1.61-4.86,4.85-5.12,10.46h2.88C27.38,63.79,27.15,60.08,29.36,59.32Z" transform="translate(0)"/><path class="cls-7" d="M38.21,55.3c-.72-.3-1.1,0-1.48.75s.76,2.86,1.49,3.11c2.21.78,2,4.57,2.23,6.84h2.88C43.07,60.26,42.17,56.94,38.21,55.3Z" transform="translate(0)"/><path class="cls-8" d="M40,62.23c.61-2.15.68-5.46-1.35-6.71-2.48-1.53-6.77-1.3-9.45.06-2,1-2.85,2.07-1.41,6.29A25.34,25.34,0,0,1,28.92,66H39.14A28.4,28.4,0,0,1,40,62.23Z" transform="translate(0)"/><path class="cls-7" d="M27.65,61.43c1.38-1.65,1.38-4,1.45-5.8C27.09,56.5,26.27,57.68,27.65,61.43Z" transform="translate(0)"/><path class="cls-7" d="M38.65,55.52a6.58,6.58,0,0,0-1.1-.52c1.19,2.06,1.07,4.79,2.73,5.85C40.78,58.79,40.29,56.53,38.65,55.52Z" transform="translate(0)"/><path class="cls-9" d="M36.71,55.18c-.46-1-.06-2.4,0-4,.21-3.57-6-3.7-6,.19A11.86,11.86,0,0,1,30.56,55a44.36,44.36,0,0,0,.27,5.13,8.61,8.61,0,0,1,3-.38,13.19,13.19,0,0,1,3.35.12A20.11,20.11,0,0,0,36.71,55.18Z" transform="translate(0)"/><path class="cls-7" d="M31.42,15.64C23.71,17,18.09,28,19.32,38.36c.91,7.71,7.48,16,15.41,15.53,9.54-.61,14.35-11.84,13.37-21C47,22.47,42.23,13.73,31.42,15.64Z" transform="translate(0)"/><path class="cls-10" d="M44.88,18.76a36.48,36.48,0,0,0-12.79-3c-2.81-.12-6.57-.36-9.22.73-5.66,2.32-5.25,7.25-5.39,12.18-.08,2.54-1.12,4.86-.48,7.38.3,1.2,1,2.73,2.46,2.8,1.72.09,2.29-2.17,2.9-3.39,1.59-3.17,4.54-5.2,7.51-6.94.77-.45,1.64-.87,2.52-1.31,2.15-1.1,4.35-2.37,5.11-4.66C39,25,46.13,30,48.81,27,51,24.64,47.13,19.71,44.88,18.76Z" transform="translate(0)"/><path class="cls-5" d="M42.63,13.71c-4.19-3.68-9.72-3.75-15-2.94-3.46.53-6.46,3-8.51,5.7-2.28,3-2.88,5.85-3.26,9.6a45.65,45.65,0,0,0,.31,8c.13,1.29.17,5.4,1.85,5.85,2,.52,2.88-5.65,3.74-6.86a19,19,0,0,1,8.09-6c2.94-1.32,6.35-3,7.51-6.26,2.31,2.32,6.74,6.11,10.3,5.92,2.86-.15,1.46-3.59.77-5.35A21.3,21.3,0,0,0,42.63,13.71Z" transform="translate(0)"/><path class="cls-11" d="M31.13,8.61a16.2,16.2,0,0,0-13.07,8.84c-.85,1.75-2.41,5.38-2.12,7.38A2.5,2.5,0,0,0,18.06,27c.77.15,3.6-.47,3.78-1.45-.22,1.18-1.24,2.16-1.65,3.33A30.23,30.23,0,0,0,33,23.26c.6-.49,4.67-4.54,4-5.34,3.34,4.13,8.27,5.7,13.21,3.87C48.7,11.64,38.22,8.25,31.13,8.61Z" transform="translate(0)"/><path class="cls-11" d="M16.45,41.09c-3.49,2.24-5,10.24.73,9.2C16,47,16.45,41.09,16.45,41.09Z" transform="translate(0)"/><path class="cls-12" d="M46.83,36.71A3.47,3.47,0,0,0,44,35.65c-1.2,0-2.81.42-1.74,2.14.58.92,5.38,1.61,4.82-.51A2.12,2.12,0,0,0,46.83,36.71Z" transform="translate(0)"/><path class="cls-12" d="M28.46,36.33A3.68,3.68,0,0,0,25.31,36c-1.22.3-2.74,1.16-1.2,2.62.83.79,5.89.22,4.76-1.77A1.78,1.78,0,0,0,28.46,36.33Z" transform="translate(0)"/><path class="cls-13" d="M36.06,38c-1,.06-1-.39-1.7,0s.06,1.66,1.81,1.51,2.41-1.32,2-1.72S37.16,37.89,36.06,38Z" transform="translate(0)"/><path class="cls-14" d="M45.29,31.37c-2.74-1.17-5.24,2.21-3.27,4a3.63,3.63,0,0,1,3.87-.13C47,34.41,46.76,32,45.29,31.37Z" transform="translate(0)"/><path class="cls-15" d="M44.11,31.88c-1.28.4-.68,2.84.63,2C45.68,33.25,45.24,31.53,44.11,31.88Z" transform="translate(0)"/><path class="cls-14" d="M24.9,31.59c-1.45.67-1.63,3.09-.49,3.86a3.6,3.6,0,0,1,3.87,0C30.2,33.65,27.6,30.35,24.9,31.59Z" transform="translate(0)"/><path class="cls-15" d="M26.61,32c-1.15-.32-1.54,1.41-.58,2C27.36,34.81,27.89,32.34,26.61,32Z" transform="translate(0)"/><path class="cls-16" d="M28.72,28.28a15,15,0,0,0-4,.23,7,7,0,0,0-2.53,1.08c-.22.18-.5.48-.49.75.22,0,.39-.11.59-.16a12.49,12.49,0,0,1,3.16-.34c.83,0,1.64,0,2.46,0,.55,0,1.3.09,1.6-.45S29.45,28.31,28.72,28.28Z" transform="translate(0)"/><path class="cls-16" d="M47.48,29.21A6.65,6.65,0,0,0,45,28.27a14.64,14.64,0,0,0-3.91-.07c-.72.06-1.12.46-.74,1.1s1,.37,1.56.37c.8,0,1.59-.08,2.39-.1a12.2,12.2,0,0,1,3.08.21c.2,0,.37.17.58.13C48,29.65,47.7,29.37,47.48,29.21Z" transform="translate(0)"/><path class="cls-17" d="M44.74,30.9a2.84,2.84,0,0,0-3.23,2,2.57,2.57,0,0,1,2.86-.88c3.72,1.59,5.68-1,5.68-1C47.4,32.25,46,31.14,44.74,30.9Z" transform="translate(0)"/><path class="cls-17" d="M25.54,31.18c-1.29.25-2.65,1.37-5.31.16,0,0,2,2.61,5.69,1a2.55,2.55,0,0,1,2.87.84A2.83,2.83,0,0,0,25.54,31.18Z" transform="translate(0)"/><path class="cls-18" d="M24.83,41.32c4.31,6.33,6.92,7.47,10.22,7.61,4.13.18,5.5-2.46,6.1-4.43A11.55,11.55,0,0,1,44.26,41c-2.56.6-5.1.33-9,.5C32.08,41.65,27.38,42.61,24.83,41.32Z" transform="translate(0)"/><path class="cls-19" d="M26.79,42.41a9.65,9.65,0,0,0,7.73,4.29c3.29,0,5.44-1,6-2.49a4.22,4.22,0,0,1,2-2.19A35.49,35.49,0,0,1,26.79,42.41Z" transform="translate(0)"/><path class="cls-20" d="M28.7,42.76s.17,1.3,2,1.78a18.15,18.15,0,0,0,7.47.2c1.75-.28,2.59-2.33,2.59-2.33A37.91,37.91,0,0,1,28.7,42.76Z" transform="translate(0)"/><path class="cls-20" d="M35.8,44.94c-2.35.12-4.3,0-5.48-.7-.85-.49-.92,0-.73.39,0,0,.78,1.77,4.68,2.13S39.93,45,39.5,44.59,38,44.84,35.8,44.94Z" transform="translate(0)"/><path class="cls-21" d="M28.7,42.76a2.07,2.07,0,0,0,.48.91s8.77-.81,10.88-.11a4.29,4.29,0,0,0,.71-1.15A43.5,43.5,0,0,1,28.7,42.76Z" transform="translate(0)"/><path class="cls-21" d="M31,44.49c3.17,1.74,6.92.19,6.92.19A13.25,13.25,0,0,1,31,44.49Z" transform="translate(0)"/><path class="cls-22" d="M39.49,37.89a5,5,0,0,1-1.19-2.56c-.31-1.1-.22-2.32-1.74-2.15A3,3,0,0,0,34,35.47a5.08,5.08,0,0,1-2.87,3.64,11.05,11.05,0,0,1-4.9,1.37,7.44,7.44,0,0,1-6.2-2.35C19,37,18.78,35.3,18.4,33.84A7.15,7.15,0,0,0,17.46,31c-.79-.94-1.6,0-1.87.84-.6,2,.64,4.48,1.41,6.24s1.33,3,3.11,3.78a6.66,6.66,0,0,0,5.4.31,9.2,9.2,0,0,1,2.83-.81c3.23-.43,5.33-1.7,6.3-4,.58-1.4.41-2.87,1.46-2.92.71,0,.64.76.91,1.56.94,2.88,2.87,4.08,7.36,5.28.92.24,2.22.49,2.63,1.48a6.1,6.1,0,0,0,.73-1.38,14.92,14.92,0,0,0,.71-1.54,6.68,6.68,0,0,0,.26-.87,4.38,4.38,0,0,1-2.51.55C44.23,39.43,41.1,39.24,39.49,37.89Z" transform="translate(0)"/><path class="cls-23" d="M36.19,32.58a2.65,2.65,0,0,0-1.21.24c-.22.15-.77,1.61.09,2.14a1.08,1.08,0,0,1,1.12-.84,1,1,0,0,1,1.12.83c.87-.54.32-2,.09-2.14A2.6,2.6,0,0,0,36.19,32.58Z" transform="translate(0)"/><path class="cls-24" d="M15,32.16a.59.59,0,0,0-.48.76l.91,2.2c.15.33.86.31,1.39.26l-.89-3.33Z" transform="translate(0)"/><path class="cls-25" d="M14.86,32.25a.5.5,0,0,0-.42.67l.92,2c.14.31.81.3,1.3.26l-.93-3Z" transform="translate(0)"/><path class="cls-26" d="M17.35,26.38c-4.63,2.73-.33,12.81,3.74,14.39s11-.59,13.07-3.22c1.79-2.27,1.15-6.75-1.75-9.17S22,23.7,17.35,26.38ZM32.47,37.2c-1.64,1.85-7,3-9.9,1.55s-5.6-9.26-2-11,9.74.86,11.34,2.43S33.91,35.6,32.47,37.2Z" transform="translate(0)"/><path class="cls-27" d="M32.26,28.18c-2.42-2-7.09-3.59-11.67-3.17a8.72,8.72,0,0,0-3.57,1c-2.13,1.26-2,4.05-1.79,5.6.61,3.84,3.25,8,5.65,9a10.31,10.31,0,0,0,5,.4h0c3.47-.44,6.91-2,8.2-3.65C35.85,35.07,35.06,30.53,32.26,28.18Zm.45,9.16c-.94,1-3,1.92-5.36,2.2a9,9,0,0,1-5-.59c-1.88-.92-3.68-4.2-3.92-7.17-.18-2.12.49-3.67,1.88-4.34a6.41,6.41,0,0,1,2.15-.57c3.58-.34,8.18,1.63,9.65,3.07S34.29,35.59,32.71,37.34Z" transform="translate(0)"/><path class="cls-28" d="M20.36,27.54c-3.73,1.81-1,9.9,2.08,11.42s8.55.3,10.26-1.61c1.49-1.66,1-5.7-.6-7.28S24.1,25.75,20.36,27.54Z" transform="translate(0)"/><path class="cls-29" d="M31.74,30.18c-1.55-1.49-7.49-3.93-11-2.28-1.65.79-2,2.86-1.51,5,.49,2.37,14.11.68,13.51-1A4.55,4.55,0,0,0,31.74,30.18Z" transform="translate(0)"/><path class="cls-4" d="M20.75,27.83c-2.28,1.13-2,4.8-.68,7.63-1.23-2.81-.68-5.37,1.56-6.47,3.51-1.71,8.66-.15,10.22,1.41a4.13,4.13,0,0,1,.79,1.18,4.29,4.29,0,0,0-.85-1.33C30.23,28.69,24.26,26.13,20.75,27.83Z" transform="translate(0)"/><path class="cls-30" d="M53.24,26.32c-4.3-2.58-11-.54-13.72,1.95s-3.15,6.94-1.48,9.1c1.91,2.44,8.43,4,12.08,2.39S57.53,28.85,53.24,26.32ZM48.9,38c-2.64,1.47-7.58.69-9.12-1-1.35-1.51-1-5.37.42-6.91s7-4.09,10.32-2.44S51.58,36.5,48.9,38Z" transform="translate(0)"/><path class="cls-31" d="M53.44,26a7.82,7.82,0,0,0-3.27-1C46,24.53,41.79,26,39.62,28.06c-2.52,2.37-3.18,6.92-1.49,9.12,1.2,1.57,4.38,2.85,7.57,3.07a9.56,9.56,0,0,0,4.54-.64c2.17-1,4.49-4.92,4.95-8.45C55.38,29.73,55.4,27.16,53.44,26Zm-.89,5.37c-.16,2.73-1.73,5.82-3.42,6.76a8.37,8.37,0,0,1-4.54.8,7.72,7.72,0,0,1-4.93-1.85c-1.47-1.63-1-5.65.43-7.24a12.61,12.61,0,0,1,8.7-3,5.89,5.89,0,0,1,2,.54C52,28,52.66,29.38,52.55,31.35Z" transform="translate(0)"/><path class="cls-32" d="M50.7,27.42c-3.45-1.71-9.21.91-10.7,2.53s-1.83,5.61-.43,7.16c1.6,1.77,6.72,2.58,9.45,1.06S54.14,29.11,50.7,27.42Z" transform="translate(0)"/><path class="cls-29" d="M50.64,27.77c-3.18-1.55-8.49.79-9.86,2.26a4.14,4.14,0,0,0-.88,1.64c-.52,1.66,11.81,2.82,12.21.65C52.46,30.38,52.15,28.49,50.64,27.77Z" transform="translate(0)"/><path class="cls-4" d="M50.64,27.7c-3.19-1.59-8.53.87-9.91,2.39A4.33,4.33,0,0,0,40,31.4a3.85,3.85,0,0,1,.7-1.16c1.38-1.53,6-3.29,9.2-1.69,2,1,2.58,3.55,1.52,6.14C52.51,32.08,52.71,28.73,50.64,27.7Z" transform="translate(0)"/><path class="cls-33" d="M37.3,32.8a3.86,3.86,0,0,0-2.33,0c-.21.12-.75,1.23.08,1.63a1,1,0,0,1,1.08-.64,1,1,0,0,1,1.07.62C38,34,37.52,32.91,37.3,32.8Z" transform="translate(0)"/></g></g></g></g></svg>