<svg xmlns="http://www.w3.org/2000/svg" xmlns:xlink="http://www.w3.org/1999/xlink" viewBox="0 0 66 66"><defs><style>.cls-1{fill:none;}.cls-2{clip-path:url(#clip-path);}.cls-3{fill:#ed9335;}.cls-4{fill:#9c552c;}.cls-5{fill:#e8dbdb;}.cls-6{fill:url(#linear-gradient);}.cls-7{fill:#fff9f0;}.cls-8{fill:#fff;}.cls-11,.cls-8{opacity:0.4;}.cls-9{fill:#261b18;}.cls-10,.cls-11{fill:#661004;}.cls-10{opacity:0.3;}.cls-12{fill:#573d2f;}.cls-13{fill:#bf6c3c;}.cls-14{fill:#f0ded1;opacity:0.7;}.cls-15{fill:#d47b48;}.cls-16{fill:#78231f;}.cls-17{fill:#fff7ea;}.cls-18{fill:#ecdcc4;}.cls-19{fill:#161110;}</style><clipPath id="clip-path" transform="translate(0)"><circle class="cls-1" cx="33" cy="33" r="33"/></clipPath><linearGradient id="linear-gradient" x1="34.02" y1="51.49" x2="34.02" y2="55.06" gradientUnits="userSpaceOnUse"><stop offset="0" stop-color="#854326"/><stop offset="1" stop-color="#9c552c"/></linearGradient></defs><g id="Layer_2" data-name="Layer 2"><g id="avatars"><g class="cls-2"><rect class="cls-3" width="66" height="66"/><path class="cls-4" d="M40.32,55.07a1.55,1.55,0,0,0-2,2.39,14.65,14.65,0,0,1,.25,2.35,22.29,22.29,0,0,0,1,6.19H43c-.93-1.65-1.17-3.9-1.32-6.38C41.58,57.45,41.48,55.88,40.32,55.07Z" transform="translate(0)"/><path class="cls-4" d="M29.73,57.58a1.56,1.56,0,0,0,.19-2,1.54,1.54,0,0,0-2.15-.39c-1.16.8-1.25,2.38-1.39,4.55A15.72,15.72,0,0,1,25.13,66h3.36a22.48,22.48,0,0,0,1-6.07A13.41,13.41,0,0,1,29.73,57.58Z" transform="translate(0)"/><path class="cls-4" d="M39.71,54.78C37.66,53.29,30.8,53,28.13,55s.5,6.1,1.11,11H39C39.53,61.1,42.52,56.81,39.71,54.78Z" transform="translate(0)"/><path class="cls-5" d="M40.09,61.5a11.78,11.78,0,0,1-.38-6.72,1.94,1.94,0,0,0-.92-.59c-2.42-.79-6.89-1.06-9.55.08a4.12,4.12,0,0,0-1.11.7,10.41,10.41,0,0,1-.25,6.15A23.05,23.05,0,0,1,29.06,66H39.23A25.57,25.57,0,0,1,40.09,61.5Z" transform="translate(0)"/><path class="cls-6" d="M36.84,50c.2-3.57-6-3.7-6,.2,0,1.72.08,2.82-.4,3.28a8.38,8.38,0,0,1-1.24.77c.56,3.61.94,5.06,4.81,5.06,3.49,0,4.42-1.12,4.74-5.14a8.51,8.51,0,0,1-1.62-.79C36.61,53,36.75,51.6,36.84,50Z" transform="translate(0)"/><path class="cls-7" d="M30.3,53.53a.53.53,0,0,0-.5.55.52.52,0,0,0,.54.5.51.51,0,0,0,.5-.54A.53.53,0,0,0,30.3,53.53Z" transform="translate(0)"/><path class="cls-7" d="M31.51,54.35a.53.53,0,1,0,.54.51A.53.53,0,0,0,31.51,54.35Z" transform="translate(0)"/><path class="cls-7" d="M33.06,54.9a.52.52,0,0,0-.5.54.52.52,0,1,0,.5-.54Z" transform="translate(0)"/><path class="cls-7" d="M34.62,55a.53.53,0,0,0-.5.55.52.52,0,0,0,.54.5.53.53,0,0,0,0-1.05Z" transform="translate(0)"/><path class="cls-7" d="M37.44,53.48a.53.53,0,0,0,0,1.05.53.53,0,1,0,0-1.05Z" transform="translate(0)"/><path class="cls-7" d="M36.2,54.4a.53.53,0,0,0-.51.55.52.52,0,1,0,1,0A.52.52,0,0,0,36.2,54.4Z" transform="translate(0)"/><path class="cls-8" d="M36.6,59.72a10.22,10.22,0,0,1-5.67-.09c-1-.26-1.61.91-1.29,1.91.41,1.32,2.55,1.67,4.42,1.64,3.68-.06,5-1.43,4.43-3.06C38.32,59.69,37.54,59.39,36.6,59.72Z" transform="translate(0)"/><path class="cls-9" d="M16.84,18c-2.6,7.13-2.76,12.62-4.43,23.85-.42,2.85-2.14,7.24-1.35,9,1.12,2.4,3.86,1,6.13,1.67,2.47.76,5.2,1.86,5.73-1.6A5.3,5.3,0,0,1,23.21,53c1.9,0,8.39-2.15,12.79-2,3.92.09,12.09,3.52,13.67-1,1.17-3.38,2.15-18.25,1.55-23.09,0-.3,1.15-.73,1.18-1,.11-.86.17-1.48.18-1.72C53.33,4.81,23.3.27,16.84,18Z" transform="translate(0)"/><path class="cls-4" d="M32.24,15.22c-7.58,1.47-12.94,12.37-11.56,22.6,1,7.59,8.05,15.07,15.44,15.07C43.93,52.89,50.08,41,49,32,47.71,21.71,42.87,13.17,32.24,15.22Z" transform="translate(0)"/><path class="cls-10" d="M45.56,18.09a35.62,35.62,0,0,0-12.65-2.72c-2.77-.07-6.49-.25-9.09.86-3.88,1.67-5.55,4.22-6.09,8.15-.37,2.66,2.3,5.21,4.36,6.87,1.46-1.42.77-3.35.73-5,.35,1.92,1.91,1.36,3.57,1.44,1.48.07,4,.71,5.35,0,.6-.32.71-.76.94-1.4a2.32,2.32,0,0,0,.82.65,8.87,8.87,0,0,0,3.38.37,13.18,13.18,0,0,0,4.89-.3c.68-.23,1.08-.43,1.28-1.2.27,1.63,2.73,1.35,4.07,1.3C52.94,26.87,48.78,19.37,45.56,18.09Z" transform="translate(0)"/><path class="cls-4" d="M18,33.55c-3.73,1-2.24,6.46.8,7.56a7.34,7.34,0,0,0,3,.33l.06-.09c.44-.71-.18-4.67-.4-5.42C20.94,34.05,19.83,33.06,18,33.55Z" transform="translate(0)"/><path class="cls-11" d="M19.34,35.56c-.84-.39-2.92.3-1.95,1.94.53-1.52,1.45-.52,1.3.56-.09.72-.87.73-.1,1.66a1.38,1.38,0,0,0,1.69.05C21.64,38.92,20.36,36,19.34,35.56Z" transform="translate(0)"/><path class="cls-9" d="M32.43,23.92s0,0,0,.06,0,0,0,0S32.44,23.89,32.43,23.92Z" transform="translate(0)"/><path class="cls-9" d="M42.66,23.88Z" transform="translate(0)"/><path class="cls-9" d="M43.27,13.14c-4.19-3.56-9.65-3.54-14.81-2.66A23,23,0,0,0,21.9,12.3c-1.55.86-2.16,2.88-2.87,4.41a27.24,27.24,0,0,0-1.93,9c-.13,1.61.5,3.25.66,4.85s.85,2.91,1.14,4.45a13.9,13.9,0,0,1-.45,7c-.32.95-1.07,1.74-.38,2.59a1.86,1.86,0,0,0,2.47.37c.48-.51,1.43-4.71,1.64-5.79a38.51,38.51,0,0,0,.34-8.38,20.19,20.19,0,0,1,.83-7.5,26.07,26.07,0,0,0,.38,3.43c2.56-.31,5.3-.1,7.87-.2a9.55,9.55,0,0,0,.85-2.6s0,0,0-.06,0,0,0,0,0,0,0,0c.17.46.35,1.48.68,1.75.62.49,2.42.19,3.16.24,1.41.09,3.8.59,5.14,0,.88-.38,1-1.19,1.23-2.1h0c.27.47.39,1.28.83,1.5a9.21,9.21,0,0,0,2.55.46,20.87,20.87,0,0,0,3.06-.05c2-.38.57-3.95,0-5.24A21.05,21.05,0,0,0,43.27,13.14Z" transform="translate(0)"/><path class="cls-12" d="M31,8.59c-3.91.41-9.46,3.54-11.2,7.05C15.87,23.58,14.36,32.4,14,41.16c-.08,2.22-1.36,5.61-1.23,7.64.12,1.87,1,1.91,2.51.85,2-1.39-.21-8.63.16-13.14.29-3.54,3.21-3.71,4.18-8.39,1.11,6.28.12,14.52-2.28,21.41,8.28-13.93,1.78-21.15,6.11-30.48a7.18,7.18,0,0,0,8,1.58A12.44,12.44,0,0,1,40,20.39c3.39,1.29,6.56,1.93,10.8.12C48.77,10.6,38.07,7.85,31,8.59Z" transform="translate(0)"/><path class="cls-13" d="M47.24,36.41a3.13,3.13,0,0,0-2.72-.72c-1.12.1-2.58.69-1.44,2.23.6.82,5.14,1,4.45-1A1.75,1.75,0,0,0,47.24,36.41Z" transform="translate(0)"/><path class="cls-13" d="M29.68,36.79a3.24,3.24,0,0,0-2.77-.56c-1.12.16-3.06,1.22-1.44,2.36,1.16.82,5.38.55,4.54-1.32A1.7,1.7,0,0,0,29.68,36.79Z" transform="translate(0)"/><path class="cls-9" d="M29,31.52c-2.64-.71-4.29,2.25-2.49,3.2a6.08,6.08,0,0,1,2.62.13A1.69,1.69,0,0,0,29,31.52Z" transform="translate(0)"/><path class="cls-11" d="M36.77,36.3c-.66.05-1.27-.27-1.86.1s.21,1.37,2,1.2,2.15-1.16,1.79-1.49S37.5,36.23,36.77,36.3Z" transform="translate(0)"/><path class="cls-13" d="M36.49,33.19c-1.25,0-2,2.36-1.43,3.08.41.5,3.14.29,3.52-.36C38.71,35.67,37.68,33.2,36.49,33.19Z" transform="translate(0)"/><path class="cls-14" d="M28.78,33.07c-.8.23-.18,1.54.6,1.06C29.94,33.79,29.5,32.87,28.78,33.07Z" transform="translate(0)"/><path class="cls-9" d="M45.79,30.83c-2.71-.35-4,2.79-2,3.5a5.81,5.81,0,0,1,2.61-.22A1.69,1.69,0,0,0,45.79,30.83Z" transform="translate(0)"/><path class="cls-14" d="M45.72,32.44c-.75.33,0,1.55.72,1C46.94,33,46.38,32.15,45.72,32.44Z" transform="translate(0)"/><path class="cls-15" d="M44.65,40.27c-4.57-.77-11.72.28-15.9.4-.34,0-.61.11-.46.47.65,1.55,3.09,7.21,8.81,7.17,4.77,0,5.22-3.38,5.47-5.14.12-.86,1.42-1.91,2.42-2.55C45.32,40.41,45.07,40.34,44.65,40.27Z" transform="translate(0)"/><path class="cls-16" d="M28.94,41.24a7.6,7.6,0,0,0,7.44,4.46c5-.21,5.69-1.83,5.95-3a3.32,3.32,0,0,1,1.74-2.13A36.86,36.86,0,0,1,28.94,41.24Z" transform="translate(0)"/><path class="cls-17" d="M30.75,41.7a2.32,2.32,0,0,0,1.71,2.08,13.22,13.22,0,0,0,7.19.15c1.71-.41,2.78-2.74,2.78-2.74A59.2,59.2,0,0,1,30.75,41.7Z" transform="translate(0)"/><path class="cls-17" d="M37.68,44a18.55,18.55,0,0,1-5.54-.54c-.92-.29-.95.14-.79.53,0,0,.24,1.57,4.59,1.78,3.8.19,5.53-1.83,5.12-2.24S40.07,43.91,37.68,44Z" transform="translate(0)"/><path class="cls-18" d="M30.74,41.68a2.19,2.19,0,0,0,.16.67S40,41.47,42,42.05a3.54,3.54,0,0,0,.48-.86A69.85,69.85,0,0,1,30.74,41.68Z" transform="translate(0)"/><path class="cls-18" d="M32.63,43.45c3.7,1.46,7.91,0,7.91,0A19.62,19.62,0,0,1,32.63,43.45Z" transform="translate(0)"/><path class="cls-19" d="M27.64,30.71c-1.42.33-3.22,1.83-5.55.18,0,0,.8,2.74,5.41,1.05,1.88-.68,2.93,1.3,2.93,1.3S30.42,30.08,27.64,30.71Z" transform="translate(0)"/><path class="cls-19" d="M45.65,30.33c-2.61-.66-2.76,2.41-2.76,2.41a2.42,2.42,0,0,1,2.92-1.13c4.17,1.54,5.08-1,5.08-1C48.62,32.14,47,30.67,45.65,30.33Z" transform="translate(0)"/><path class="cls-9" d="M44.91,27.05c-1.82.14-3.6,1.24-3.39,2.14s1.57-.61,3.35-1c2.23-.53,3.62.43,3.55.19C48.23,27.66,46.57,26.91,44.91,27.05Z" transform="translate(0)"/><path class="cls-9" d="M28.18,27.47c-2.05-.18-4.25.45-4.33,1.12-.05.44,1.73-.58,4.46,0,2.18.47,3.71,2,4,1S30.41,27.68,28.18,27.47Z" transform="translate(0)"/></g></g></g></svg>