<svg xmlns="http://www.w3.org/2000/svg" xmlns:xlink="http://www.w3.org/1999/xlink" viewBox="0 0 96 96"><defs><style>.cls-1{fill:none;}.cls-2{clip-path:url(#clip-path);}.cls-3{fill:#ff8967;}.cls-4{fill:#e0e0e0;}.cls-5{opacity:0.1;}.cls-6{fill:#f2f2f2;}.cls-7{fill:#9c552c;}.cls-8{fill:#ff9819;}.cls-9{fill:#261b18;}.cls-10{fill:#cc7c43;}.cls-11{fill:#661004;opacity:0.2;}.cls-12{fill:#66241b;opacity:0.6;}.cls-13{fill:#45362e;}.cls-14{fill:#eda264;}.cls-15{opacity:0.12;}.cls-16{fill:#e6d2c3;opacity:0.7;}.cls-17{fill:#2b221c;}.cls-18{fill:#8f2621;}.cls-19{fill:#fff9f0;}.cls-20{fill:#e8dac5;}</style><clipPath id="clip-path" transform="translate(0)"><circle class="cls-1" cx="48" cy="48" r="48"/></clipPath></defs><g id="Layer_2" data-name="Layer 2"><g id="Layer_4" data-name="Layer 4"><g class="cls-2"><rect class="cls-3" width="96" height="96"/><path class="cls-4" d="M38,76.36S26.94,78.8,27.86,96H35.3a73.83,73.83,0,0,1,1.4-11Z" transform="translate(0)"/><path class="cls-4" d="M57.63,76.36,58.94,85a73.83,73.83,0,0,1,1.4,11h7.44C68.7,78.8,57.63,76.36,57.63,76.36Z" transform="translate(0)"/><path class="cls-4" d="M58.34,76.45c-5.21-1.82-15.15-2.51-21.31.25-3.32,1.49-2.65,11-2,19.3H60.49C61,87.45,61.66,77.61,58.34,76.45Z" transform="translate(0)"/><path class="cls-5" d="M37,82.08c.57,5.82,5.76,9.2,5.76,9.2l5.1-5L53.25,91c5.19-4.69,5.4-6.5,5.58-10S36.48,77.13,37,82.08Z" transform="translate(0)"/><path class="cls-6" d="M36.58,77.83c-2.35,6.61,6.16,12,6.16,12l5.07-3.5,4.73,3.29s9.36-5.37,5.82-13.07C55.17,69.6,39.29,70.16,36.58,77.83Z" transform="translate(0)"/><path class="cls-7" d="M47.61,67.4c-3.65.06-8.76,2.32-9,8-.13,2.65.28,4.18,1.65,5.62a21.09,21.09,0,0,0,7.66,4.43c.59-.1,5.41-2.32,7.53-4.71,1.32-1.5,1.69-3,1.48-5.68C56.44,69.4,51.26,67.33,47.61,67.4Z" transform="translate(0)"/><path class="cls-8" d="M41.59,91.59l6.28-3.88-6.65-2.93C39.9,86.11,40.43,90.39,41.59,91.59Z" transform="translate(0)"/><path class="cls-8" d="M47.87,87.71l6.29,3.88c1.16-1.2,1.69-5.48.37-6.81Z" transform="translate(0)"/><path class="cls-8" d="M47.94,86H47.5c-1,0-1.84,0-1.8,1.24s.31,2.09,1.6,2.06c.87,0,1.84.34,2.22-.58.24-.6.76-1.91.2-2.44A2.76,2.76,0,0,0,47.94,86Z" transform="translate(0)"/><path class="cls-6" d="M47.82,92.51a.89.89,0,1,0,.89.89A.89.89,0,0,0,47.82,92.51Z" transform="translate(0)"/><path class="cls-9" d="M74,23.56a2.56,2.56,0,0,0-3.06-2.07c2.36-3.51-2.37-8.42-5.28-5.15.5-.56-1.81-3.21-2.31-3.44-1.4-.66-3.25.09-4.58.77-1.85-2.38-6.12-3.15-8.42-.92-1-3-7.06-2.08-8.54.17-.89-2.44-6.24-.85-6.12,1.65A4.05,4.05,0,0,0,29.76,19c-3.3-.85-6.22,1.91-3.84,5.09-2.7.19-2.25,3.35-1.15,5-2.39.28-3.54,5.47-.51,5.67-1.9,1.37-3.8,5.65-.31,6.3-2.34,2.36-.67,3-.4,5,.1.8-.59,2-.32,2.8s1.37,1.32,1.54,1.85c.63,2.05.23,3.57,1.6,5.68a19.74,19.74,0,0,0,3.74,4.21c5.15,4.4,10.73.88,16.78.6,7-.33,12.68,1.54,19.33-1.85a16.59,16.59,0,0,0,4.63-3.24c1.63-1.78.7-1.89.78-3.88.07-1.79,2.1-2.34.12-4.24,2,.32,1.88-3,.91-4,1.08.14,1.42-1.16,1.42-2.06,0-1.3-.69-1.58-1.44-2.47,1.35-.42,1-2.66.65-3.63a2.76,2.76,0,0,0,.65-5c2.43-1.3,1.86-4.33-.83-4.45A3.31,3.31,0,0,0,74,23.56Z" transform="translate(0)"/><path class="cls-10" d="M27.83,57.9C29.4,69.43,38.3,82.09,51.71,81.14c13.67-1,20.47-17.93,18.7-32.12C68.49,33.59,61.19,20.73,45.2,23.85,33.78,26.08,25.74,42.5,27.83,57.9Z" transform="translate(0)"/><path class="cls-11" d="M46.41,35.47a6.93,6.93,0,0,1-8.27.07c-1.21,1.53-4.22,3.15-5.49.93-.84,2-2.7,5.39-4.7,3-1.68-2-.69-5.71-.22-8,.66-3.21,2.7-4.58,5.76-6C37.37,23.8,41.9,24,46.07,24.1a53,53,0,0,1,19.1,4c1.76.7,4.87,3.4,5,5.4a4.26,4.26,0,0,1-1.47,3c-.42.28-3,.4-2.83.15-1.53,2-5,1.24-6.14-.74a4.67,4.67,0,0,1-6.24-.8c-1.6,1.42-5.09,1.8-6.35-.35A7.6,7.6,0,0,1,46.41,35.47Z" transform="translate(0)"/><path class="cls-10" d="M25.07,62.86a11.11,11.11,0,0,0,4.53.49l.09-.14c.67-1.06-.27-7-.61-8.15-.86-2.84-2.54-4.32-5.23-3.58C18.24,53,20.49,61.21,25.07,62.86Z" transform="translate(0)"/><path class="cls-12" d="M27.24,60.84c2-1.29.12-5.64-1.42-6.34-1.26-.59-4.41.46-2.93,2.93.78-2.29,2.17-.79,2,.83-.14,1.09-1.31,1.1-.15,2.51C25.33,61.52,26.6,61.24,27.24,60.84Z" transform="translate(0)"/><path class="cls-9" d="M69.76,32.26c-.05-1.75-1.56-3.31-2.33-4.76a23.55,23.55,0,0,0-5.64-6.81c-6.31-5.35-14.54-5.31-22.31-4a28,28,0,0,0-8.79,2.75c-2.32,1.3-3.24,4.35-4.31,6.66-2.51,5.41,0,25.13.92,26,1.19,1.11,1.18,2.36,1.51,3a3.66,3.66,0,0,0,2.54.67,58.48,58.48,0,0,1-.45-9.9c.06-2.63-.18-9.59,2.25-11.16,1.46,1.93,3.92.55,5.11-1a8.54,8.54,0,0,0,9.66-.28c1.08,1.51,3.88,2.28,5,.37,2.49,2.06,5.31,1.73,7.88.14-.31.19,1.58,1.89,1.81,2,1.13.51,3.29.18,3-1.5.32,2.19,3.72-.14,4-1.29A3,3,0,0,0,69.76,32.26Z" transform="translate(0)"/><path class="cls-13" d="M42.86,16.92c-.46-.62.26-2.3.64-2.81a2.2,2.2,0,0,1,2.11-1c1.88,0,4.31.91,5.12,2.76,1.26-1.25,2.92-3.15,5-2.45a3,3,0,0,1,1.7,3.33c2.6-1.73,7-1.32,6.34,2.58,1.23-.75,3.13-1.38,4.42-.49,1.11.77,1.9,2.94.39,3.76,1.16.28,2.68.61,3,2a3,3,0,0,1-1.86,3c-1.47.58-2.43-.62-3.63-.71s-.48,1.46-1.8,1.86c-1.51.48-2.42-.61-3.38-1.49-.63,1.29-1.53,2.49-3.1,2.2A3.22,3.22,0,0,1,55.09,27c-.93,1.12-1.33,2.51-3,2.59a3.78,3.78,0,0,1-3.53-2.26c-1.3,1.6-4.78,2.55-5.6-.14-1.31.75-2.46,1.66-4.16,1.19-.95-.26-2.17-1.05-2.18-2.15-1.06.69-2.58,1.84-3.93,1.23a1.47,1.47,0,0,1-.88-1.87c-1.18.35-3.61.51-4-1.1s1.21-2.33,2.43-2.3a2.37,2.37,0,0,1,1.35-2.47c1.18-.53,1.74.28,2.77.62-1-2.32,3.09-4.69,3.29-2.49C37.39,15.74,40.87,14.24,42.86,16.92Z" transform="translate(0)"/><path class="cls-14" d="M69.25,55a3.1,3.1,0,0,1,.12,1c-.16,3.73-7.2,1.66-7.63,0-.82-3.16,1.85-3.6,3.69-3.36C66.85,52.84,68.74,53.38,69.25,55Z" transform="translate(0)"/><path class="cls-14" d="M41.67,54a3.15,3.15,0,0,1,.57,1c1.43,3.76-6.56,4.57-7.72,3.08-2.17-2.79.33-4.32,2.3-4.82C38.33,52.79,40.47,52.56,41.67,54Z" transform="translate(0)"/><g class="cls-15"><path d="M28.91,56.64c.26,1.93,0,4.18.28,5.31C32.12,72.11,40,82,51.71,81.14S69.65,67.77,70.23,55.29c.1-2.11-.4-3.12-.75-.43-1.34,10.26.14,4.79-4.55,3.63-3.55-.89-6.58.64-11.68,1.06s-8.86-3-14.43-.71c-3.84,1.61-7.3,5.93-7.46-3.13C31.29,51.57,28,50.07,28.91,56.64Z" transform="translate(0)"/></g><path class="cls-9" d="M39.66,52.12a5.19,5.19,0,0,0-3.23-.28c-2.24-1.71-.24-6.88,3-5.59C41.89,47.21,41.83,51.12,39.66,52.12Z" transform="translate(0)"/><path class="cls-12" d="M58.13,56.21c-1-1.24-2.46.17-5.12.24-2.4.06-3.33-1-5,0s.68,4.19,4.92,4S59,57.29,58.13,56.21Z" transform="translate(0)"/><path class="cls-14" d="M51.92,48.33c-2.15.14-4.76,7.52-4,8.59,2,2.84,9.42,1.59,10.27-.82C58.46,55.31,54.36,48.17,51.92,48.33Z" transform="translate(0)"/><path class="cls-16" d="M38.31,47.15a1.09,1.09,0,0,1,1,1.88C38,49.85,37,47.54,38.31,47.15Z" transform="translate(0)"/><path class="cls-17" d="M44.47,41.56c2-1.23,1.76,3.72-.75,3.94-.82.08-3.41-1.73-6.94-1-1.25.25-3.7,1.81-4.37,1.69-1.61-.27,2.3-3.55,4.54-4C40,41.45,42.92,42.5,44.47,41.56Z" transform="translate(0)"/><path class="cls-9" d="M67.06,51.52a5.19,5.19,0,0,0-3.23-.28c-2.24-1.71-.24-6.87,3-5.59C69.29,46.61,69.23,50.52,67.06,51.52Z" transform="translate(0)"/><path class="cls-16" d="M65.71,46.54c1.17-.34,1.92,1.28,1,1.88C65.42,49.25,64.4,46.93,65.71,46.54Z" transform="translate(0)"/><path class="cls-17" d="M60.75,41c-1.7-1.23-1.61,3.71.53,3.93.69.08,3-1.73,6-1,1.06.25,3.11,1.81,3.69,1.7,1.38-.28-1.87-3.55-3.77-4.05C64.57,40.83,62,41.88,60.75,41Z" transform="translate(0)"/><path class="cls-12" d="M52.73,75.62c9.72-.09,10.75-8.43,9.88-10.15s-21.5-.61-22-.22C39.75,65.9,43.19,75.7,52.73,75.62Z" transform="translate(0)"/><path class="cls-14" d="M52.91,60.43c-2.71.19-13.93,0-14.3,1-.42,1.15,4,12.72,14.85,12.06,8.15-.49,8.47-5.59,9.37-8.9a5,5,0,0,1,1.73-2.51,5.47,5.47,0,0,0,.94-.59c.63-.68.31-1.41-.54-1.65S55,60.29,52.91,60.43Z" transform="translate(0)"/><path class="cls-18" d="M39.22,61.66s11.34,2.72,25.88-1.27a7,7,0,0,0-3.26,3.74c-.91,2.47-4.39,4.29-9.78,4.39C43.64,68.67,39.22,61.66,39.22,61.66Z" transform="translate(0)"/><path class="cls-19" d="M42.37,62.18s.3,1.61,3.33,2.34a29.2,29.2,0,0,0,12.25,0,6.41,6.41,0,0,0,4.18-3.44A61.15,61.15,0,0,1,42.37,62.18Z" transform="translate(0)"/><path class="cls-19" d="M43.89,65.72c-.32-.48-.22-1.26,1.18-.58,2,1,5.22,1.39,9.07,1.15,3.56-.23,5.27-1.47,6-1s-2.33,3.68-8.49,3.3C45.24,68.25,43.89,65.72,43.89,65.72Z" transform="translate(0)"/><path class="cls-20" d="M43.48,63.58s13.9-1.76,17.39-.67a5.32,5.32,0,0,0,1.26-1.79,70,70,0,0,1-19.76,1.06A2.18,2.18,0,0,0,43.48,63.58Z" transform="translate(0)"/><path class="cls-20" d="M46.4,65.66a24.77,24.77,0,0,0,11.35,0S51.66,68.05,46.4,65.66Z" transform="translate(0)"/><path class="cls-12" d="M62.15,58.76c1.27.14,2.83.22,3.79,1.18a3.07,3.07,0,0,1,.25,3.79c-.94,1.14-.62-.69-.68-1.28a3.5,3.5,0,0,0-1.63-2.39,8,8,0,0,0-2.74-1.3Z" transform="translate(0)"/><path class="cls-12" d="M43.05,59.89c-1.46-.19-3.24-.51-4.57.28a3.35,3.35,0,0,0-1.24,4.08c.77,1.49.87-.6,1.09-1.23a3.9,3.9,0,0,1,2.44-2.18,9.76,9.76,0,0,1,3.43-.69Z" transform="translate(0)"/><path class="cls-9" d="M42.86,72.08s1.38,4.63,5.61,4.75a2.89,2.89,0,0,0,2.82-1.41c1.17-1.62,3.18-1.7,4.05-.56a3.41,3.41,0,0,0,2.88,1.4c3.16-.17,3.71-5.16,4.32-5.06.37,1,.66,9.32-9.23,10.15S41.39,73.29,42.86,72.08Z" transform="translate(0)"/></g></g></g></svg>