<svg xmlns="http://www.w3.org/2000/svg" xmlns:xlink="http://www.w3.org/1999/xlink" viewBox="0 0 66 66"><defs><style>.cls-1{fill:none;}.cls-2{clip-path:url(#clip-path);}.cls-3{fill:#fff;}.cls-4{fill:#ffb06b;}.cls-5{fill:#85b428;}.cls-21,.cls-6{fill:#acd14b;}.cls-7{fill:#eb8449;}.cls-8{opacity:0.1;}.cls-9{fill:#261b18;}.cls-10{fill:#bf3c1b;opacity:0.3;}.cls-11{fill:#b54319;}.cls-11,.cls-21{opacity:0.5;}.cls-12{fill:#57443a;}.cls-13{fill:#ffc48f;}.cls-14{fill:#c4170e;opacity:0.35;}.cls-15{fill:#8f2621;}.cls-16{fill:#fff9f0;}.cls-17{fill:#e8dac5;}.cls-18{fill:#cfc4c4;}.cls-19{fill:#2b221c;}.cls-20{fill:#121b21;}</style><clipPath id="clip-path" transform="translate(0)"><circle class="cls-1" cx="33" cy="33" r="33"/></clipPath></defs><g id="Layer_2" data-name="Layer 2"><g id="avatars"><g class="cls-2"><rect class="cls-3" width="66" height="66"/><path class="cls-4" d="M25.91,59.71c.15-.29.3-.57.43-.85a1.66,1.66,0,0,0-3-1.48l-.41.81c-1.08,2.09-2.51,4.87-2,7.81h3.43s0,0,0,0C23.71,64,24.88,61.72,25.91,59.71Z" transform="translate(0)"/><path class="cls-4" d="M47.54,58.19l-.41-.81a1.67,1.67,0,0,0-3,1.48l.44.85c1,2,2.2,4.28,1.53,6.25,0,0,0,0,0,0h3.44C50.05,63.06,48.62,60.28,47.54,58.19Z" transform="translate(0)"/><path class="cls-5" d="M43.89,63.48c1-4.59,2.2-8.7-1.63-10.76-2.91-1.56-10.62-2.51-13.84,0C24.9,55.47,25.7,59.87,26.66,64a11.25,11.25,0,0,0,.69,2H42.94A14.77,14.77,0,0,0,43.89,63.48Z" transform="translate(0)"/><path class="cls-6" d="M29.79,52.7a2.17,2.17,0,0,0,.36,1.68c2.46,3.93,9.18,3.8,11.05-.25a2,2,0,0,0-.08-1.94C39.46,49.47,30.62,49.46,29.79,52.7Z" transform="translate(0)"/><path class="cls-7" d="M35.61,47.64c-1.9,0-4.57,1.09-4.76,4a3.35,3.35,0,0,0,.81,2.87,5.89,5.89,0,0,0,7.89,0,3.35,3.35,0,0,0,.81-2.87C40.18,48.73,37.5,47.63,35.61,47.64Z" transform="translate(0)"/><path class="cls-5" d="M41.91,52.6c-1.39-.66,1.47,7.8,2,13,2,.34,6.79-1.59,8-2.9C49.23,57.89,46.73,54.89,41.91,52.6Z" transform="translate(0)"/><g class="cls-8"><path d="M44.28,62.92c0-.74.83-4.47-.51-4.51-.41,0,0,6.42,0,6.42.6-.76,2.57-3.14,2.16-3.66C45.7,60.81,44.31,62.6,44.28,62.92Z" transform="translate(0)"/></g><path class="cls-9" d="M16.94,18.5c-2.6,7.13-2.76,12.62-4.43,23.85-.42,2.85-2.14,7.24-1.34,9,1.11,2.4,3.85,1,6.13,1.67,2.46.76,5.19,1.86,5.72-1.6a5.12,5.12,0,0,1,.29,2.09c1.91,0,8.39-2.15,12.79-2,3.92.09,12.09,3.52,13.67-1C51,47,51.92,32.17,51.32,27.33c0-.3,1.15-.73,1.18-1,.11-.86.17-1.48.18-1.72C53.44,5.28,23.41.74,16.94,18.5Z" transform="translate(0)"/><path class="cls-4" d="M32.35,15.69c-7.59,1.47-13,12.37-11.57,22.6,1,7.59,8,15.07,15.44,15.07,7.82,0,14-11.91,12.85-20.93C47.81,22.18,43,13.64,32.35,15.69Z" transform="translate(0)"/><path class="cls-10" d="M45.67,18.56A35.67,35.67,0,0,0,33,15.84c-2.77-.07-6.49-.25-9.08.86-3.88,1.67-5.56,4.23-6.1,8.15-.37,2.66,2.31,5.21,4.36,6.87,1.46-1.42.77-3.35.73-5,.35,1.92,1.92,1.36,3.58,1.44,1.47.07,4,.71,5.34,0,.61-.33.71-.77.94-1.41a2.44,2.44,0,0,0,.83.65,8.85,8.85,0,0,0,3.38.37,13.14,13.14,0,0,0,4.88-.3c.68-.23,1.09-.43,1.29-1.2.26,1.63,2.72,1.37,4.06,1.3C51.32,27.33,48.89,19.84,45.67,18.56Z" transform="translate(0)"/><path class="cls-4" d="M18.14,34c-3.72,1-2.24,6.46.8,7.56a7.36,7.36,0,0,0,3,.33l.06-.09c.45-.71-.17-4.67-.4-5.42C21,34.52,19.93,33.54,18.14,34Z" transform="translate(0)"/><path class="cls-11" d="M19.44,36c-.83-.39-2.92.3-1.94,1.94.52-1.52,1.44-.52,1.3.56-.1.72-.87.73-.1,1.66.41.5,1.26.32,1.69.05C21.74,39.39,20.47,36.5,19.44,36Z" transform="translate(0)"/><path class="cls-9" d="M32.53,24.39a.14.14,0,0,1,0,.06.06.06,0,0,0,0,0S32.54,24.36,32.53,24.39Z" transform="translate(0)"/><path class="cls-9" d="M42.76,24.35Z" transform="translate(0)"/><path class="cls-9" d="M43.37,13.61c-4.19-3.56-9.65-3.54-14.81-2.66A23.09,23.09,0,0,0,22,12.77c-1.54.86-2.16,2.88-2.87,4.42a27.38,27.38,0,0,0-1.93,9c-.13,1.61.5,3.25.66,4.85S18.71,34,19,35.52a13.9,13.9,0,0,1-.46,7c-.31.95-1.07,1.74-.37,2.59a1.85,1.85,0,0,0,2.46.37c.49-.51,1.43-4.71,1.64-5.79a38.51,38.51,0,0,0,.34-8.38,20.4,20.4,0,0,1,.83-7.5,26.07,26.07,0,0,0,.38,3.43c2.56-.31,5.3-.09,7.88-.2a9.53,9.53,0,0,0,.84-2.6.14.14,0,0,0,0-.06s0,0,0,0a.06.06,0,0,1,0,0c.18.46.35,1.48.68,1.75.62.49,2.42.19,3.17.24,1.4.09,3.79.59,5.14,0,.87-.38,1-1.2,1.22-2.1h0c.27.47.4,1.28.83,1.5a9.28,9.28,0,0,0,2.56.46,20.73,20.73,0,0,0,3.05,0c2-.38.57-4,0-5.24A21.05,21.05,0,0,0,43.37,13.61Z" transform="translate(0)"/><path class="cls-12" d="M31.09,9.06c-3.91.41-9.45,3.54-11.19,7C16,24.05,14.47,32.87,14.14,41.63c-.09,2.22-1.37,5.61-1.24,7.64.12,1.87,1,1.91,2.52.85,2-1.39-.21-8.63.15-13.14.29-3.54,3.21-3.71,4.19-8.39,1.1,6.29.11,14.52-2.28,21.41,8.27-13.93,1.77-21.15,6.1-30.48a7.18,7.18,0,0,0,8,1.58,12.44,12.44,0,0,1,8.55-.24c3.39,1.29,6.56,1.93,10.81.12C48.88,11.07,38.17,8.32,31.09,9.06Z" transform="translate(0)"/><path class="cls-13" d="M45.61,35.63c-1.18-.19-2.8,0-2,1.83.43,1,5,2.37,4.78.22a2,2,0,0,0-.17-.59A3.43,3.43,0,0,0,45.61,35.63Z" transform="translate(0)"/><path class="cls-13" d="M30,36.23a3.61,3.61,0,0,0-3.11-.14c-1.2.37-2.64,1.31-1,2.66.86.72,5.8-.14,4.58-2A2.27,2.27,0,0,0,30,36.23Z" transform="translate(0)"/><path class="cls-11" d="M37.73,37.37c-1-.07-1-.6-1.66-.2s-.19,1.95,1.55,2,2.54-1.2,2.2-1.73S38.81,37.44,37.73,37.37Z" transform="translate(0)"/><path class="cls-13" d="M37.49,34.52c-.81,0-2,2.72-1.59,3.13,1,1,3.16.53,3.83-.16C40,37.22,38.39,34.51,37.49,34.52Z" transform="translate(0)"/><path class="cls-14" d="M27,39.36c2.53,7.62,5.2,9.92,10,10.06a7.2,7.2,0,0,0,7.54-6,16,16,0,0,1,2.86-4.36c-2.4.95-6.53.71-10.3.88C33.87,40.09,29.6,40.87,27,39.36Z" transform="translate(0)"/><path class="cls-15" d="M28,40.34s1.83,7.07,8.66,6.77c6.14-.26,7.08-2.69,7.5-4.38a5.12,5.12,0,0,1,2.3-3.18C35.76,42.58,28,40.34,28,40.34Z" transform="translate(0)"/><path class="cls-16" d="M29.8,40.8s0,1.57,2.07,2a22.45,22.45,0,0,0,8.75.14,5.05,5.05,0,0,0,3.2-2.6A57.42,57.42,0,0,1,29.8,40.8Z" transform="translate(0)"/><path class="cls-16" d="M38.25,45.56a20.11,20.11,0,0,1-5.49-.4c-.92-.26-.93.13-.76.48,0,0,.28,1.41,4.58,1.54,3.76.12,5.42-1.71,5-2.07S40.61,45.48,38.25,45.56Z" transform="translate(0)"/><path class="cls-17" d="M29.8,40.8a1.55,1.55,0,0,0,.3.91s10.59-.78,13-.28a7.82,7.82,0,0,0,.71-1A57.68,57.68,0,0,1,29.8,40.8Z" transform="translate(0)"/><path class="cls-17" d="M33.14,45.46A13.93,13.93,0,0,0,41,45.35,21.35,21.35,0,0,1,33.14,45.46Z" transform="translate(0)"/><path class="cls-9" d="M46.64,31.47c-2.7-1.15-5.17,2.18-3.23,3.91a3.57,3.57,0,0,1,3.82-.12C48.34,34.46,48.08,32.09,46.64,31.47Z" transform="translate(0)"/><path class="cls-18" d="M46.94,33.34c-.74.23-.39,1.65.36,1.15C47.85,34.13,47.59,33.14,46.94,33.34Z" transform="translate(0)"/><path class="cls-18" d="M44.41,31.87c-1.26.39-.67,2.8.62,1.95C46,33.21,45.52,31.52,44.41,31.87Z" transform="translate(0)"/><path class="cls-9" d="M26.53,31.69c-1.43.66-1.61,3-.48,3.8a3.56,3.56,0,0,1,3.81,0C31.75,33.71,29.19,30.46,26.53,31.69Z" transform="translate(0)"/><path class="cls-18" d="M26.28,33.57c-.66-.19-.89.82-.33,1.16C26.72,35.21,27,33.78,26.28,33.57Z" transform="translate(0)"/><path class="cls-18" d="M28.77,32c-1.13-.32-1.51,1.39-.57,2C29.51,34.8,30,32.38,28.77,32Z" transform="translate(0)"/><path class="cls-9" d="M30.18,27.83a14.6,14.6,0,0,0-3.92.59,6.89,6.89,0,0,0-2.38,1.3,1.12,1.12,0,0,0-.41.78c.22,0,.38-.14.57-.22a12.87,12.87,0,0,1,3.07-.62c.8-.09,1.61-.11,2.41-.22.54-.08,1.29,0,1.53-.59C31.35,28.15,30.91,27.79,30.18,27.83Z" transform="translate(0)"/><path class="cls-19" d="M46.44,28.2a15,15,0,0,0-3.82-.52c-.71,0-1.15.33-.85,1s1,.48,1.48.54c.79.1,1.57.11,2.36.18a12.15,12.15,0,0,1,3,.56c.19.07.34.21.55.2a1,1,0,0,0-.39-.74A6.61,6.61,0,0,0,46.44,28.2Z" transform="translate(0)"/><path class="cls-20" d="M46.1,31a2.8,2.8,0,0,0-3.2,2,2.54,2.54,0,0,1,2.83-.86c3.66,1.57,5.6-1,5.6-1C48.72,32.33,47.37,31.24,46.1,31Z" transform="translate(0)"/><path class="cls-20" d="M27.15,31.28c-1.27.24-2.6,1.35-5.23.15,0,0,2,2.58,5.62,1a2.52,2.52,0,0,1,2.83.83A2.8,2.8,0,0,0,27.15,31.28Z" transform="translate(0)"/><path class="cls-5" d="M28.58,52.6c-4.82,2.29-7.32,5.29-10,10.08,1.24,1.31,6,3.24,8,2.9C27.11,60.4,30,51.94,28.58,52.6Z" transform="translate(0)"/><g class="cls-8"><path d="M26.21,62.92c0-.32-1.42-2.11-1.69-1.75-.41.52,1.56,2.9,2.16,3.66,0,0,.45-6.44,0-6.42C25.38,58.45,26.17,62.18,26.21,62.92Z" transform="translate(0)"/></g><path class="cls-21" d="M40.24,57.59c-1.91,1.84-8.14,1.8-10.41-.69-1.28-1.41-2.65,1.41-2.14,3.38.69,2.61,4.41,3.4,7.65,3.44,6.41.08,8.55-2.79,7.52-6C42.59,56.85,41.51,56.37,40.24,57.59Z" transform="translate(0)"/></g></g></g></svg>