<svg xmlns="http://www.w3.org/2000/svg" xmlns:xlink="http://www.w3.org/1999/xlink" viewBox="0 0 66 66"><defs><style>.cls-1{fill:none;}.cls-2{clip-path:url(#clip-path);}.cls-3{fill:#fff;}.cls-4{fill:#62698a;}.cls-5{fill:#3a3a4a;}.cls-6{fill:#f06799;}.cls-7{fill:#de3e78;}.cls-8{fill:#e10301;}.cls-9{fill:#1a1614;}.cls-10{fill:#ffcb9e;}.cls-11{fill:#c94614;}.cls-11,.cls-12{opacity:0.3;}.cls-12{fill:#bf3c1b;}.cls-13{fill:#423631;}.cls-14{fill:#ffb187;}.cls-15{fill:#b59898;}.cls-16{fill:#e35e59;}.cls-17{fill:#5e1b18;}.cls-18{fill:#fff7eb;}.cls-19{fill:#e8dac5;}</style><clipPath id="clip-path" transform="translate(0)"><circle class="cls-1" cx="33" cy="33" r="33"/></clipPath></defs><g id="Layer_2" data-name="Layer 2"><g id="avatars"><g class="cls-2"><rect class="cls-3" width="66" height="66"/><path class="cls-4" d="M42.66,52.28c-2.17-1.53-13-2-15.75.13-3.91,3.07,1.8,4.71,1.81,11.38A11.28,11.28,0,0,1,28.15,66H41.69a9.46,9.46,0,0,1-.58-2.41C41.35,56.9,46.48,55,42.66,52.28Z" transform="translate(0)"/><path class="cls-5" d="M32.11,57.59a.86.86,0,1,0,.86.86A.86.86,0,0,0,32.11,57.59Z" transform="translate(0)"/><path class="cls-5" d="M32.21,61.7a.86.86,0,1,0,.87.86A.86.86,0,0,0,32.21,61.7Z" transform="translate(0)"/><path class="cls-5" d="M37.58,57.59a.86.86,0,1,0,.87.86A.87.87,0,0,0,37.58,57.59Z" transform="translate(0)"/><path class="cls-5" d="M37.48,61.7a.86.86,0,1,0,.86.86A.86.86,0,0,0,37.48,61.7Z" transform="translate(0)"/><path class="cls-6" d="M37.25,49.89c-2.87-.93-7.66,0-6.78,2.71.47,1.46.8,3,4.36,3s3.9-1.53,4.36-3S38.67,50.34,37.25,49.89Z" transform="translate(0)"/><path class="cls-7" d="M38,48.74c-.86-.15-2.27.83-3.27.81s-2.33-1-3.14-.74a1.46,1.46,0,0,0-.67.66,3,3,0,0,0-.43,2c.21.81,1.49,1.38,2.15,1.55,1.4.34,6.26.65,6.44-1.51C39.15,50.61,39,48.91,38,48.74Z" transform="translate(0)"/><path class="cls-6" d="M38.43,48.36a16.13,16.13,0,0,1-7,.06c-.28-.05-.53.33-.74.64A2.56,2.56,0,0,0,30.25,51c.23.78,1.62,1.32,2.34,1.48,1.52.33,6.81.62,7-1.44C39.69,50.15,39.44,48.07,38.43,48.36Z" transform="translate(0)"/><path class="cls-8" d="M48.62,39.64a1.08,1.08,0,0,0-1,1.09,1,1,0,0,0,1.07,1,1.07,1.07,0,0,0,1-1.09A1,1,0,0,0,48.62,39.64Z" transform="translate(0)"/><path class="cls-9" d="M37.37,5.87c-3.71-.6-6,.19-7,1.28-1-.65-4.23-.42-5.73.3C17,11.13,12,20.5,16.47,32.93a8.85,8.85,0,0,0-.1,13.33,8.49,8.49,0,0,0,12-1.35c2.71-3.82.08-9.71,5.55-10.16,3.35-.28,4.45.69,7,2.48,1.46,1,3.74,4,5.48,3.18,4.34-2.14,4.88-10.75,5.06-14.59C51.83,19,49.08,7.75,37.37,5.87Z" transform="translate(0)"/><path class="cls-10" d="M34.12,14.21C25.88,15,19.47,22.2,20,33.6s10.53,18.53,17.11,18c6.33-.5,13.56-8.6,12.19-21.09C48.05,19.34,42.36,13.43,34.12,14.21Z" transform="translate(0)"/><path class="cls-10" d="M17.15,30.61c-3.69,1.69-2,8,1.11,9a6.1,6.1,0,0,0,3,0l.05-.12c.42-.9-.52-5.14-.78-6C19.91,31.28,18.92,29.8,17.15,30.61Z" transform="translate(0)"/><path class="cls-11" d="M19.25,32.82c-1-.53-3.56.17-2.48,2.24.73-1.81,1.78-.53,1.54.77-.16.88-1.1.84-.23,2,.47.65,1.51.48,2,.18C21.82,37.09,20.46,33.47,19.25,32.82Z" transform="translate(0)"/><path class="cls-12" d="M44.08,14.89A41.84,41.84,0,0,0,30.57,16a14.71,14.71,0,0,0-10.86,15.4c.31,4.08-.05,11.69,6.56,11.16-4.43-1.58-5.49-5.75-4.15-15,1.13.05,6.08-2.47,7.06-5.76,1.76,3.82,19.17,6.65,20.44,9.93.33.85.47-.93.56-3.84C50.32,23.16,45.59,15,44.08,14.89Z" transform="translate(0)"/><path class="cls-9" d="M45.54,13.47C37.63,9.9,29.52,12.14,22,15.8a9.11,9.11,0,0,0-3.91,3.64c-1.65,2.88-.05,10.31,1.34,16.26,1.53,6.56,6.83,6.88,6.83,6.88-4-2.07-5.78-6-5.14-15.63,1.24-.07,6.34-2.71,8.05-5.14,7.39,4.79,19.21,5.46,20.66,9,1.09,2.63.33-12.8.12-13.42C49.38,15.57,47.26,14.24,45.54,13.47Z" transform="translate(0)"/><path class="cls-8" d="M19.64,41a1.09,1.09,0,0,0-1.05,1.1,1,1,0,0,0,1.07,1A1.09,1.09,0,0,0,20.71,42,1,1,0,0,0,19.64,41Z" transform="translate(0)"/><path class="cls-13" d="M36.46,12.64C31.09,15,26.24,14,20.94,12.51a17.42,17.42,0,0,0-4.27,11.82c4,.72,10.19-.91,11.88-4.95,1.22.94,11.15,5.59,21.22,7.21-.05-5-.62-10.26-2.85-13.07C44.24,10.14,39.92,11.14,36.46,12.64Z" transform="translate(0)"/><path class="cls-9" d="M42.2,30.43c2.27.12,4-1.28,7.39-1.13C47.19,28.31,43.83,28.6,42.2,30.43Z" transform="translate(0)"/><path class="cls-11" d="M37.91,38.2c-.77,0-1.06-.37-1.61-.09s.57,1.37,1.53,1.33,2-.89,1.73-1.22S38.77,38.22,37.91,38.2Z" transform="translate(0)"/><path class="cls-14" d="M45.66,35.56c-1.49.14-2.63,1.18-2.55,2.31s1.36,2,2.85,1.81,2.63-1.18,2.55-2.31S47.15,35.42,45.66,35.56Z" transform="translate(0)"/><path class="cls-14" d="M29,35.75c-1.74-.14-3.24.71-3.36,1.88s1.2,2.23,2.94,2.37,3.25-.71,3.36-1.89S30.74,35.88,29,35.75Z" transform="translate(0)"/><path class="cls-9" d="M29.76,32.05a1.7,1.7,0,0,0-1.85,2.75,5.08,5.08,0,0,1,2.45.08A1.66,1.66,0,0,0,29.76,32.05Z" transform="translate(0)"/><path class="cls-9" d="M24.57,29.2c4.24.1,5.42,1.43,8.37,1.35C31.39,28.56,27.79,28.37,24.57,29.2Z" transform="translate(0)"/><path class="cls-9" d="M28.53,31.62c-1.58.13-2.53,1.47-4.16.89,0,0,1,1.36,4,.59a5.31,5.31,0,0,1,4.38,1A4.3,4.3,0,0,0,28.53,31.62Z" transform="translate(0)"/><path class="cls-15" d="M28.82,32.54c-.71,0-.61,1.29.16,1.09A.56.56,0,0,0,28.82,32.54Z" transform="translate(0)"/><path class="cls-9" d="M45.08,32c-1.69.55-1,2.7-.48,2.86A4.69,4.69,0,0,1,47,34.65,1.68,1.68,0,0,0,45.08,32Z" transform="translate(0)"/><path class="cls-9" d="M46.24,31.5a4.17,4.17,0,0,0-4,2.62A5,5,0,0,1,46.45,33c2.88.65,3.82-.75,3.82-.75C48.73,32.87,47.77,31.57,46.24,31.5Z" transform="translate(0)"/><path class="cls-15" d="M45.37,32.46a.57.57,0,0,0-.11,1.1C46,33.72,46.06,32.41,45.37,32.46Z" transform="translate(0)"/><path class="cls-16" d="M37.58,41.08c-2.88.09-5.8.46-8.16.1,2.29,4.33,5,5.83,8,5.65,3.23-.2,4.72-2,5.27-3.6.23-.69,1.11-1.87,1.81-2A62.09,62.09,0,0,0,37.58,41.08Z" transform="translate(0)"/><path class="cls-17" d="M30,41.59a8.73,8.73,0,0,0,6.91,3.63c3,0,4.89-.81,5.43-2a3.69,3.69,0,0,1,1.84-1.82A34.1,34.1,0,0,1,30,41.59Z" transform="translate(0)"/><path class="cls-18" d="M31.69,41.9s.14.72,1.78,1.08a19.49,19.49,0,0,0,6.71.19,3.41,3.41,0,0,0,2.34-1.47A40.89,40.89,0,0,1,31.69,41.9Z" transform="translate(0)"/><path class="cls-18" d="M38.26,44.42A10.38,10.38,0,0,1,34,44c-.66-.27-.7,0-.55.24,0,0,.63,1,3.64,1.13s4.32-1.2,4-1.4S39.93,44.31,38.26,44.42Z" transform="translate(0)"/><path class="cls-19" d="M31.69,41.9a1,1,0,0,0,.58.64s7.65-.59,9.54-.06c0,0,.63-.47.71-.78A47.24,47.24,0,0,1,31.69,41.9Z" transform="translate(0)"/><path class="cls-19" d="M34.55,44.24a6.66,6.66,0,0,0,5.33-.07A13.47,13.47,0,0,1,34.55,44.24Z" transform="translate(0)"/><path class="cls-4" d="M28.43,55.92,26.33,53c-.75.54-2,1.49-3.51,13h3.6c1.13-8.63,2-10,2.15-10.21A1,1,0,0,1,28.43,55.92Z" transform="translate(0)"/><path class="cls-4" d="M43.33,53l-2.09,2.89c-.1-.07-.14-.12-.14-.13.12.16,1,1.58,2.15,10.21h3.6C45.38,54.52,44.08,53.57,43.33,53Z" transform="translate(0)"/></g></g></g></svg>