<svg xmlns="http://www.w3.org/2000/svg" xmlns:xlink="http://www.w3.org/1999/xlink" viewBox="0 0 66 66"><defs><style>.cls-1{fill:none;}.cls-2{clip-path:url(#clip-path);}.cls-21,.cls-22,.cls-3{fill:#fff;}.cls-4{fill:#c9beb7;}.cls-5{fill:#949494;}.cls-18,.cls-5{opacity:0.5;}.cls-6{fill:#2b221c;}.cls-7{fill:#ffcb9e;}.cls-8{fill:#bf3c1b;}.cls-14,.cls-21,.cls-8,.cls-9{opacity:0.3;}.cls-9{fill:#c94614;}.cls-10,.cls-18{fill:#45362e;}.cls-11{fill:#bf795c;}.cls-12{fill:#ffa073;}.cls-13{fill:#261b18;}.cls-14{fill:#b54d26;}.cls-15{fill:#ffdfc2;}.cls-16{fill:#e6d2c3;}.cls-16,.cls-22{opacity:0.7;}.cls-17{fill:#f5b37a;}.cls-19{opacity:0.15;}.cls-20{fill:#3a3a4a;}.cls-23{fill:#c1c5c9;}</style><clipPath id="clip-path" transform="translate(0)"><circle class="cls-1" cx="33" cy="33" r="33"/></clipPath></defs><g id="Layer_2" data-name="Layer 2"><g id="avatars"><g class="cls-2"><rect class="cls-3" width="66" height="66"/><path class="cls-4" d="M17,66c0-.31.23-3.85.42-6.14a10.65,10.65,0,0,1,8.49-9.67l1,5.22C24.17,56.88,23.79,66,23.79,66Z" transform="translate(0)"/><path class="cls-4" d="M49,66c0-.31-.23-3.85-.42-6.14A10.65,10.65,0,0,0,40,50.19l-1,5.22C41.81,56.88,42.19,66,42.19,66Z" transform="translate(0)"/><path class="cls-4" d="M25.39,50.46c-4.56,3-3.52,7.87-2.3,15.54h19.8c1.34-7.25,2.5-13.54-2-15.94C35.94,47.39,28.69,48.31,25.39,50.46Z" transform="translate(0)"/><path class="cls-5" d="M33,56.81c9.33,0,12-13.32-.79-13.32C23,43.49,23,56.81,33,56.81Z" transform="translate(0)"/><path class="cls-4" d="M33,55.66c10,0,12.83-12.61-.84-12.61C22.31,43.05,22.34,55.66,33,55.66Z" transform="translate(0)"/><path class="cls-6" d="M48.23,16.43a12.45,12.45,0,0,0-2.74-4.83C40.33,5.94,31.76,5.33,22.07,9.52a18,18,0,0,0,5-.21C22,11.66,16,14.74,14.68,20.73c-3.25,14.83,9,8,13.13,9.18,4.71,1.34,16.42-.18,19.7-5.06C49,22.66,49.07,19.35,48.23,16.43Z" transform="translate(0)"/><path class="cls-7" d="M18,38.56c1.09,8,7.29,16.86,16.63,16.2,9.53-.68,14.27-12.5,13-22.39-1.34-10.75-6.43-19.71-17.57-17.53C22.15,16.39,16.55,27.83,18,38.56Z" transform="translate(0)"/><path class="cls-8" d="M24.07,23.89c-1.12.58-4.09,2-5.61-.38-.72-1.12-.19-2.82.26-4.11.54-1.57,2.34-2.45,3.8-3.09,2.66-1.17,5.75-1,8.6-1a36.58,36.58,0,0,1,9.48,1.45c2,.59,5.85,1.12,6.55,3.41.89,2.9-2.21,3.28-4.37,3.28C37.61,23.49,26.51,22.63,24.07,23.89Z" transform="translate(0)"/><path class="cls-7" d="M16.08,42a7.9,7.9,0,0,0,3.16.34l.06-.1c.47-.74-.19-4.9-.43-5.68-.6-2-1.76-3-3.64-2.49C11.32,35.17,12.89,40.87,16.08,42Z" transform="translate(0)"/><path class="cls-9" d="M17.6,40.61c1.42-.9.07-3.93-1-4.42-.88-.4-3.07.32-2,2,.54-1.59,1.51-.55,1.37.58-.1.76-.92.77-.11,1.75C16.26,41.08,17.15,40.89,17.6,40.61Z" transform="translate(0)"/><path class="cls-6" d="M42.61,11.77c-6-3.15-15.25-2.33-20.3,1.42-3.43,2.55-5.24,5.61-5,9.89.11,2.35,3.27,2.71,4.6,1a5.59,5.59,0,0,1,4.56-1.87c3-.11,14.84-.67,17.62.28,1.52.52,3.55,1.31,3.85-1.11a9.07,9.07,0,0,0-2.19-7.33A11.85,11.85,0,0,0,42.61,11.77Z" transform="translate(0)"/><path class="cls-10" d="M46.76,20.15a10.68,10.68,0,0,0-.34-3.65A8.5,8.5,0,0,0,44,12.78a15.09,15.09,0,0,0-8.53-4.11c-1.6-.15-4.82-.08-6.35.59a20.12,20.12,0,0,1,2.28.93A33.43,33.43,0,0,0,25,12.29c-.64.29-5.89,3.86-5.89,3.86,1.46.79,3.18.5,4.76.15A16.11,16.11,0,0,1,31,16.1c2.25.51,4.27,1.63,6.5,2.15.07-1-.89-1.89-1.32-2.57,1.27,0,6.17,3.08,7.17,3.89C43.14,18.71,42,16.9,41.82,16,43.07,16.17,45.9,18.69,46.76,20.15Z" transform="translate(0)"/><path class="cls-11" d="M21.17,24.72c-.9,5-1.6,7.44-1,12,0,0-2.3-2.51-4.17-2.73a30.59,30.59,0,0,1-.28-6.16C15.87,25.37,19.42,24.7,21.17,24.72Z" transform="translate(0)"/><path class="cls-12" d="M46.2,37.05a1.83,1.83,0,0,1,.27.6c.56,2.19-4.4,1.44-5,.48-1.1-1.79.57-2.22,1.82-2.19A3.55,3.55,0,0,1,46.2,37.05Z" transform="translate(0)"/><path class="cls-12" d="M27.58,36.81a1.86,1.86,0,0,1,.42.53c1.15,2.08-4.09,2.61-4.94,1.79-1.58-1.53,0-2.4,1.27-2.7C25.31,36.2,26.72,36.05,27.58,36.81Z" transform="translate(0)"/><path class="cls-13" d="M25.77,35.66a2.93,2.93,0,0,0-2-.17c-1.39-1.19-.1-4.83,1.95-4C27.2,32.2,27.14,35,25.77,35.66Z" transform="translate(0)"/><path class="cls-14" d="M38,38c-.51-.63-1.23.06-2.56.08s-1.67-.53-2.51,0,.36,2.1,2.48,2S38.42,38.55,38,38Z" transform="translate(0)"/><path class="cls-15" d="M35.11,33.59c-2.25-.2-2.42,4.56-1.91,5,1.26,1,3.9.29,4.67-.51C38.17,37.73,37.26,33.77,35.11,33.59Z" transform="translate(0)"/><path class="cls-13" d="M45.42,31.4c1.12.68,1.11,3,.27,3.91a2.69,2.69,0,0,0-2.17,0C41.8,34.18,43.33,30.15,45.42,31.4Z" transform="translate(0)"/><path class="cls-16" d="M24.69,32.43c.74-.25,1.2.89.61,1.32C24.49,34.34,23.86,32.72,24.69,32.43Z" transform="translate(0)"/><path class="cls-16" d="M44.35,32.1c.73-.14,1,1,.41,1.32C43.92,33.88,43.53,32.27,44.35,32.1Z" transform="translate(0)"/><path class="cls-6" d="M27.59,27.05a1.61,1.61,0,0,1,1.29,2.22c-.36,1.06-2,.57-4.27.68-2.45.13-3.21.45-3.36-.25s-.05-1.8,2.13-2.4A10.22,10.22,0,0,1,27.59,27.05Z" transform="translate(0)"/><path class="cls-6" d="M42,27.17a1.62,1.62,0,0,0-1.16,2.29c.43,1,2,.45,4.31.44,2.44,0,3.22.26,3.33-.44s0-1.8-2.26-2.28A10.34,10.34,0,0,0,42,27.17Z" transform="translate(0)"/><path class="cls-6" d="M41.51,40c.81.57,2.86,2.76,4.56,1.14.81-.77,2.11-3.94,1.68-8.1,2.09,1.42,2,5.5,1.56,7.72-.19.91-.83,1.93-.76,2.81.11,1.39,1.2,2.82,1.43,4.24.26,1.69.24,4-1.76,4.55.22,2.13-.39,3.34-2.75,3.11.74,2.69-2,4.43-4.2,2.68.2,2.9-6,1.65-7.09.3-.29,1.37-2.38,1.51-3.49,1.27a4.38,4.38,0,0,1-2.84-2.54c-.8.9-2.81.9-3.79.27-1.26-.81-1.18-2.38-1-3.73-2.45.68-2.71-2.07-2.24-3.76-1.67-.37-1.84-3.39-1.83-4.78,0-1.7-1.42-10.46.33-11,1.55-.48,1.33,1.71,1.49,2.69,1,6.17,5.46,7.18,7.28,4.79,2.35-3.09,4-2.13,7.49-2.18C38.12,39.17,39.35,38.5,41.51,40Z" transform="translate(0)"/><path class="cls-17" d="M41.67,44.9c-.2-.87-2.22-1.25-2.86-1.9-.45,1.12-2.44.41-3.19-.06-.74.81-2.84,1.05-3.63.26-.14.63-2.19,1.18-2.29,2C31.48,48.2,40.68,47.1,41.67,44.9Z" transform="translate(0)"/><path class="cls-11" d="M32.18,44.5c.85-.42,5.47-.81,6.54-.25C36.32,45.06,32.18,44.5,32.18,44.5Z" transform="translate(0)"/><path class="cls-18" d="M44.61,50.79c.21.63.77,1.88.39,2.49-.75,1.2-3.2.4-4.1-.07.33.65,1.29,1.81.62,2.53-1.09,1.16-2.67-1.19-3.57-.8-.57.25-.06,1.7-1,2.1-1.26.55-2.4-1.32-3.37-1.76a2.76,2.76,0,0,1-2.68,1.19c-1.57-.23-1.42-1.15-1.78-2.39-1.26,1.36-3.38,2-3.58-.49-1.64,2.13-1.81-2.41-1.06-3.58a10.58,10.58,0,0,1,2.06-2.32c1.21-1,1.83-.62,3.3-.27a21.4,21.4,0,0,0,8,.72c2.92-.5,5.24-2.63,7.52,0,.39.47,1.37,1.51,1.13,2.22C46.35,50.9,44.81,51.41,44.61,50.79Z" transform="translate(0)"/><path class="cls-19" d="M39.9,38a4.07,4.07,0,0,1-1-1.2,4,4,0,0,1-.16-3.21C39.25,32.19,40.77,32.1,42,32c.84-.06,1.69-.07,2.53-.08a5.93,5.93,0,0,0,2.14-.18c.88-.37.7-1.59.16-2.21s-1.4-.44-2.17-.36a20.66,20.66,0,0,0-2.93.52,17.57,17.57,0,0,0-3.73,1,4.36,4.36,0,0,1-2.74.82c-2.3-.08-4.24-1.5-6.54-1.72a19.1,19.1,0,0,0-7.19.16c-.61.17-2.46.88-1.2,1.53s3.05.42,4.39.47c.61,0,1.23,0,1.85.08,2.19.19,5.54-.13,5.39,2.6-.11,1.87-1.31,3.8-2.83,4.16a19.49,19.49,0,0,1-4.49.49,7.78,7.78,0,0,1-3.26-.68c-.29-.14-1.17-.69-1.45-.29-.48.67,1.3,1.78,1.77,2a10.42,10.42,0,0,0,3.35.73c2.85.29,5.78.12,7.38-2.51.92-1.52,1.38-3.31,2.23-4.87,1.4-2.56,2,.92,2.4,2.44a7.78,7.78,0,0,0,1,2.42,5.41,5.41,0,0,0,4,2.1,17.05,17.05,0,0,0,4.56-.49c.51-.21.78-1.05.18-1.3a31.2,31.2,0,0,0-3.3.32A10.51,10.51,0,0,1,41.9,39,4.84,4.84,0,0,1,39.9,38Z" transform="translate(0)"/><path class="cls-20" d="M15.74,32.05a3.28,3.28,0,0,0,1.51.4c.2,1.29.35,4.66,2.88,6.63,2.11,1.65,8.67,1.74,10.63.58a7.89,7.89,0,0,0,3.65-6.18c.72-5.74-12.68-4-15.32-3.74-1.87.18-3.5-.24-3.92.17S15.74,32.05,15.74,32.05Zm3.44.29c2.29-1.59,11.26-1.62,13.42-.18,1,.7,0,4.63-1.8,6-2.38,1.76-8.77,1.42-10.55-.51C18.88,36.13,18.44,32.86,19.18,32.34Z" transform="translate(0)"/><path class="cls-20" d="M53.1,29.09c-.38-.39-1.78.1-3.4,0-2.28-.13-13.88-1.25-13.09,4.45.32,2.32,1.19,4.69,3.33,6,1.72,1.06,7.38.67,9.15-1.07,2.12-2.09,2.15-5.46,2.29-6.76a2.64,2.64,0,0,0,1.29-.47S53.58,29.59,53.1,29.09ZM48.94,37c-1.48,2-7,2.65-9.08,1-1.59-1.25-2.62-5.12-1.73-5.87,1.82-1.54,9.56-1.93,11.57-.45C50.36,32.18,50.08,35.47,48.94,37Z" transform="translate(0)"/><path class="cls-21" d="M39.66,31.73c1.43-.55,8.67-.8,9.46,0,.56.59-1.55,1.38-2.52,1.51a16.26,16.26,0,0,1-5.49-.1C40.62,33.06,38.36,32.23,39.66,31.73Z" transform="translate(0)"/><path class="cls-3" d="M45.33,31.72c1.47-.16,4,.18,3.7.65s-4.35.6-4.69-.06C44.17,32,44.63,31.79,45.33,31.72Z" transform="translate(0)"/><path class="cls-22" d="M40.85,36.58c.92.06,2.44.64,2.21,1s-2.74-.06-2.88-.63C40.11,36.64,40.42,36.55,40.85,36.58Z" transform="translate(0)"/><path class="cls-22" d="M21.68,37.05c1,.1,2.66.74,2.39,1.07s-3-.18-3.14-.74C20.86,37.09,21.2,37,21.68,37.05Z" transform="translate(0)"/><path class="cls-21" d="M20.71,32.12c.81-.79,9.17-.71,10.88-.23,1.55.45-.95,1.28-1.5,1.39a23.08,23.08,0,0,1-6.31.22C22.65,33.39,20.13,32.69,20.71,32.12Z" transform="translate(0)"/><path class="cls-3" d="M27.94,31.65c1.63-.16,4.42.18,4.09.65s-4.8.6-5.17-.06C26.67,31.91,27.18,31.73,27.94,31.65Z" transform="translate(0)"/><path class="cls-20" d="M32.4,30.3a10.26,10.26,0,0,0,6-.1c1.77-.53,0,.92-.37,1.3s-.48,4.57-1.23,3-2-1.53-2.57.2-.37-1.34-.59-2.29S30.52,29.79,32.4,30.3Z" transform="translate(0)"/><path class="cls-23" d="M32.29,31c-2.11-1.51-5.57-1.65-12.28-.79C25.09,30.17,29.15,30.05,32.29,31Z" transform="translate(0)"/><path class="cls-23" d="M38.91,30.76c1.68-1.48,4.44-1.37,10.36-1.24C44.84,29.92,41.54,29.63,38.91,30.76Z" transform="translate(0)"/></g></g></g></svg>