<svg xmlns="http://www.w3.org/2000/svg" xmlns:xlink="http://www.w3.org/1999/xlink" viewBox="0 0 96 96"><defs><style>.cls-1{fill:none;}.cls-2{clip-path:url(#clip-path);}.cls-3{fill:#fff;}.cls-10,.cls-4{fill:#9c552c;}.cls-5{fill:#854422;}.cls-6{fill:#242222;}.cls-7{fill:#70452c;}.cls-8,.cls-9{fill:#66241b;}.cls-8{opacity:0.4;}.cls-20,.cls-9{opacity:0.7;}.cls-10{opacity:0.5;}.cls-11{fill:#d47b48;}.cls-12{fill:#732e2b;}.cls-13{fill:#fff9f0;}.cls-14{fill:#c4b9a7;}.cls-15{fill:#ada49e;}.cls-16{fill:#f0eae6;opacity:0.6;}.cls-17{fill:#d17642;}.cls-18{fill:#261b18;}.cls-19{opacity:0.2;}.cls-20{fill:#f0ded1;}.cls-21{fill:#423f3f;}.cls-22{fill:#54504f;}</style><clipPath id="clip-path"><circle class="cls-1" cx="48" cy="48" r="48"/></clipPath></defs><g id="Layer_2" data-name="Layer 2"><g id="Layer_4" data-name="Layer 4"><g class="cls-2"><rect class="cls-3" width="96" height="96"/><path class="cls-4" d="M60.69,79.49c-1.22-.49-1,7.89,1.5,9.16,1.6.83,2.24,4.59,2.14,7.35h6.88C71.93,88.47,67,82,60.69,79.49Z"/><path class="cls-4" d="M60.84,79.48a12.53,12.53,0,0,0-4.25-1.69c-2.38-.52-5.12-3.11-7.93-3.07S43,77.05,40.44,77.89c-1.5.49-3.22,1.11-4.39,1.6-3.91,1.63-3.72,9.15-2.43,16.51H63.21C64.49,89.23,64.82,81.94,60.84,79.48Z"/><path class="cls-5" d="M48.55,74.66a7.66,7.66,0,0,0-5.09,1.72c-6.9,6.38,16.6,7.88,11.81.59C54.1,75.17,50.79,74.63,48.55,74.66Z"/><path class="cls-5" d="M36.13,94.05c.77,1.39,4.77,1.37,3.43-.86C38.88,92.05,34.77,91.58,36.13,94.05Z"/><path class="cls-5" d="M56.86,92.73c-1.44,2.17,2.55,2.39,3.39,1C61.73,91.37,57.6,91.63,56.86,92.73Z"/><path class="cls-4" d="M34.55,88.65c2.47-1.27,2.72-9.65,1.5-9.16C29.79,82,24.81,88.47,25.53,96h6.88C32.31,93.24,33,89.48,34.55,88.65Z"/><path class="cls-6" d="M71.54,45.55a5.44,5.44,0,0,0-.75-1c3-.63,1.73-2.88.53-4.59,1-.75,1.78-.89,1.61-2.29a3.68,3.68,0,0,0-2.37-2.59c1-.84,2.37-.94,2.42-2.45s-1.33-2.7-2.32-3.46c4.49-1.31,2.16-6-1.58-6.28.83-1.55,1.75-2.37,0-3.62a5.46,5.46,0,0,0-5.19-.49c.72-3.86-4.61-4.49-6.54-2.22-.83-4.19-4.91-4.53-7.21-1.36-1.38-3.12-6-3.49-6.59.38-2.95-3.39-7.91-1.24-8.58,2.89a3.86,3.86,0,0,0-6.73,3.1,4.87,4.87,0,0,0-5.88,1.49c-1.13,1.47-.63,4,.33,5.35-4.86,0-3.85,4.2-1.31,6.46-3.75.45-5.09,5.84-.55,6-2.4,1-2.52,4.31.48,4.6-3,1.26-1.52,3.86,1.14,4.29-.78,2.73-.13,3.77,2.06,5.3A27.32,27.32,0,0,1,28,58.4c3.09,3.09,5.38,6.86,8.39,9.94s5.72-2.58,7.94-4A16.21,16.21,0,0,1,54.38,61.6c3.11.29,5.47,3.39,8.61,3.28,1.91-.06,3-1.75,3.74-3.32.79-1.77.43-3.1.71-4.81s1.75-2.14,2.65-3.31c.4-.5,1.46-3.74-.21-3.63C72.69,49.63,72.55,47.29,71.54,45.55Z"/><path class="cls-4" d="M27.46,57c2.19,11.33,11.69,23.35,24.9,21.67C65.83,77,71.62,59.83,69.09,45.89,66.33,30.74,58.4,18.43,42.75,22.4,31.59,25.23,24.53,41.92,27.46,57Z"/><path class="cls-7" d="M68.61,61.32C66.45,70.17,61,77.6,52.36,78.7,39.15,80.38,29.65,68.36,27.46,57a37.59,37.59,0,0,1-.6-9.15c3.49,4.44,5.12,12.65,8.43,18.45,8.61-7.93,21.26-10.24,31.27-2.81A16.48,16.48,0,0,1,68.61,61.32Z"/><path class="cls-8" d="M41.13,33.37a3.6,3.6,0,0,1-2.48-.83c-.19,1.65-2,2.32-3.49,2.36A3.49,3.49,0,0,1,31.86,39c-.21,1.16-.41,2.31-.61,3.47-.33,2-1.13,4-1.15,6a26.06,26.06,0,0,1-3.58-9.25c-.64-2.95-1.32-6.58-.5-9.55.66-2.38,3.18-3.84,5.24-4.91,3.75-1.95,8.24-2,12.37-2.13A50.93,50.93,0,0,1,57.44,24c2.32.56,7.36,1.28,8.74,3.53,1.64,2.7-3.39,4.92-5.23,3.31-1.59,1.68-4.89.8-6.12-.86-1.49,2-3.76,1.34-5.58.34-.88,2.31-3.55.74-5,1.43-1.08.49-1.25,1.56-2.9,1.64Z"/><path class="cls-4" d="M25,62.09a11.11,11.11,0,0,0,4.51.24l.08-.15c.6-1.09-.65-6.94-1.05-8-1-2.75-2.75-4.13-5.37-3.24C17.71,52.74,20.38,60.72,25,62.09Z"/><path class="cls-9" d="M27,60c1.95-1.39-.2-5.58-1.76-6.19-1.28-.51-4.33.7-2.73,3.06.64-2.3,2.1-.9,2,.72-.08,1.08-1.24,1.16,0,2.48C25.18,60.75,26.43,60.4,27,60Z"/><path class="cls-6" d="M64.34,32.4a1.49,1.49,0,0,0,.53.21c1.52.1,2.27-1.1,2.89-2.34,1.53-3.1,0-6.17-2.28-8.46-3-2.93-9.81-4-13.78-4.54a38.78,38.78,0,0,0-11.63.3c-6.35,1.12-13.9,4.59-15.54,11.48-1,4.23-.1,9,.46,13.26.34,2.56-.42,7.59,1.89,9.42,2.69,2.12,3.51-1.35,3.62-3.81.16-3.63.38-7.14.67-10.72,2.32.08,3.27-1.94,3-4,1.87.35,4.14-.14,4.69-2.22a4.65,4.65,0,0,0,3.06.58c1.06-.25,1.37-1.52,2-1.72.83-.29,2.22.74,3.22.49s1.59-1.1,2.12-2.08c1.68,2.33,5.17,1.59,6.88-.22a3.65,3.65,0,0,0,5.66,1.47C61,30.16,63.2,31.82,64.34,32.4Z"/><path class="cls-10" d="M55.66,73.25c-.4,2.18-6,2.75-7.15.48-1.48-2.89,5.81-3.36,6.82-1.79A1.8,1.8,0,0,1,55.66,73.25Z"/><path class="cls-8" d="M52.56,60.69c-3.23.33-7.47,1.12-11.06,1-1.67-.06-2.67,1.59-1.87,2.62,5.2,6.67,8.44,7.12,12.68,7.11,6.1,0,8.32-3.4,9.07-6.69A10.6,10.6,0,0,1,63,61.83c1-1.33-.18-2.33-1.75-2.09C58.81,60.13,56.05,60.34,52.56,60.69Z"/><path class="cls-11" d="M52.6,60.64c-3.34.32-7.73,1.06-11.44,1-1.72-.05-2.76,1.47-1.94,2.41,5.35,6.1,8.7,6.5,13.07,6.46,6.31,0,8.62-3.15,9.42-6.18a9.63,9.63,0,0,1,1.71-2.65c1-1.22-.18-2.14-1.8-1.9C59.06,60.09,56.21,60.3,52.6,60.64Z"/><path class="cls-12" d="M39,62.1a67.29,67.29,0,0,0,25.46-1.79,6.53,6.53,0,0,0-3.17,3.15c-.87,2-4.28,3.63-9.59,3.87A15.89,15.89,0,0,1,39,62.1Z"/><path class="cls-13" d="M42.1,62.44s.35,1.75,3.33,2.25a34.63,34.63,0,0,0,12.06-.31,6.12,6.12,0,0,0,4-3.38A72.36,72.36,0,0,1,42.1,62.44Z"/><path class="cls-13" d="M43.63,64.9c-.32-.44-.24-1.19,1.15-.58,1.95.85,5.11.86,8.88.52,3.51-.31,5.24-1.24,6-.78s-2.24,3.54-8.31,3.37C45,67.25,43.63,64.9,43.63,64.9Z"/><path class="cls-14" d="M42.92,63.64s14.1-1.81,17.54-1A5.82,5.82,0,0,0,61.54,61,84,84,0,0,1,42.1,62.44,2.7,2.7,0,0,0,42.92,63.64Z"/><path class="cls-14" d="M45.93,64.61a25.26,25.26,0,0,0,11.18-.3S51.14,66.71,45.93,64.61Z"/><path class="cls-15" d="M50.28,55.53a18.61,18.61,0,0,0-8.09,1.85,9.67,9.67,0,0,0-3.35,2.39c-1.63,2.11-1,4-2.73,5.31,5,1.74,11.39-2.46,16.39-2.74a53.26,53.26,0,0,1,7,.28c2.19.17,4.68,1.32,6.89.76-1.43-1.61-1.17-4.1-2.8-5.74-2.72-2.75-6.38-2.63-8.8-2.57a8.74,8.74,0,0,0-2.27.41Z"/><path class="cls-16" d="M47,57.19c-4.14.7-5.78,3.11-8.08,6.14.31-.41,3.1-.51,3.82-.93s1.29-1.07,1.94-1.52c-.16.24-.23.66-.37.93,2.18.79,6-1.22,7.9-2.32,1.44.79,8.64,3.26,6.76.3.52.81,3.64,1.56,4.5,1.64,0-3.25-5.37-6.13-8.13-4.68A7.74,7.74,0,0,1,51.63,58C50.74,58,48.32,57,47,57.19Z"/><path class="cls-9" d="M36.6,51.68c1.32-1.58-3.43-.91-4.12-.59.22.92,2.26.1,2.92.14-.46.67-2.1,1-2.71,1.47s-.52.8.33.64A16,16,0,0,0,36.6,51.68Z"/><path class="cls-9" d="M64.92,49.42c-1.35-1.43,3.45-1.3,4.1-1.06-.1.94-2.49.37-3.08.48.48.62,2,.73,2.58,1.17s.55.75-.23.67A13,13,0,0,1,64.92,49.42Z"/><path class="cls-17" d="M67.61,52.5a2.59,2.59,0,0,1,.42.81c1,3-6,2.55-6.88,1.26-1.66-2.43.61-3.23,2.35-3.33C64.82,51.15,66.69,51.28,67.61,52.5Z"/><path class="cls-17" d="M41.19,53.91a2.59,2.59,0,0,1,.58.75c1.53,2.89-5.25,3.8-7.21,2.62-2.71-1.65.31-3.57,2.1-4C38,53,40,52.84,41.19,53.91Z"/><path class="cls-18" d="M39.75,46.84c-4.1-.87-6.4,3.78-3.56,5.09a9.09,9.09,0,0,1,4,0C42.87,50.89,42.8,47.48,39.75,46.84Z"/><path class="cls-19" d="M56,54.92c-.85-.7-2.47.21-4,.32-1.41.1-2.69-.48-4,.19s.34,2.46,4.09,2.16S56.74,55.52,56,54.92Z"/><path class="cls-17" d="M51.43,47.13c-3.21-.1-5.38,6.24-3.91,8.2,1,1.37,8.07.93,9.08-.8C57,53.89,54.49,47.22,51.43,47.13Z"/><path class="cls-20" d="M38.35,47.7c-1.62.44-.26,2.38,1.3,1.56C40.78,48.67,39.79,47.31,38.35,47.7Z"/><path class="cls-21" d="M40.28,41.89c3,.22,5,1.37,3.11,2.92-1.14.93-3.48.24-6.36.35-2.72.09-4.65,1.71-5.29-.14S36.69,41.62,40.28,41.89Z"/><path class="cls-21" d="M60.6,40.54c-2.79.61-4.61,2-2.66,3.29,1.16.77,3.29-.21,6-.48,2.57-.25,4.53,1.1,5-.81S64,39.82,60.6,40.54Z"/><path class="cls-18" d="M64.58,44.88c-4.19-.31-5.83,4.6-2.85,5.53a9.09,9.09,0,0,1,4-.54C68.21,48.49,67.68,45.12,64.58,44.88Z"/><path class="cls-20" d="M63.31,45.93c-1.55.65.06,2.39,1.49,1.37C65.84,46.57,64.68,45.35,63.31,45.93Z"/><path class="cls-22" d="M29.23,23.7c0-2-.09-3.82,2.36-4.13,2.06-.27,3.14,1.09,4.87,1.82.35-1.08-.1-2.2.41-3.27a3,3,0,0,1,2.84-1.57c2.13-.11,3,1.71,4.4,2.91.6-1.4,1.28-3.72,3.1-3.52a4.49,4.49,0,0,1,3.65,2.82c.78-1.48,1.67-4,3.76-2.81a6.66,6.66,0,0,1,3,4.4c.53-1,2-3.21,3.29-2.61,1.46.69,1.76,2.88,1.47,4.26.73-1,3.75-1.44,4.75-.73s.78,2.41.2,3.4c3.07-.1,4.13,3.34,1.1,4.55-2.7,1.07-4.23-1.17-5.85-2.84-2.05,2.75-5.78.47-7.34-1.46-1.42,3.16-5.33,1.84-7.44.41-.45,1.34-.67,2.16-2.13,2.65a3.57,3.57,0,0,1-3.39-.8c-.42,1-.68,1.79-1.94,2A2.94,2.94,0,0,1,37.72,28a3.5,3.5,0,0,1-1.31,2.56c-1.12.58-2.06-.28-3-.68,0,1.13,0,1.86-1.1,2.4s-1.53,0-2.54-.21c.11,1.47-.09,3.1-2,3,.84,1.93.33,5.45-2.53,4.42-2.53-.91-2.09-2.91-.14-4-2.95,0-2.85-5.34-.32-5.87C22.26,26.64,23.71,21.78,29.23,23.7Z"/><path class="cls-9" d="M62.87,37.28c-8.8-.91-21.07,1.1-26.24,2.59C45.49,39.3,52.45,38.56,62.87,37.28Z"/><path class="cls-9" d="M60.63,34.78c-7.72-.8-18.49,1-23,2.27C45.37,36.55,51.48,35.9,60.63,34.78Z"/></g></g></g></svg>