<svg xmlns="http://www.w3.org/2000/svg" xmlns:xlink="http://www.w3.org/1999/xlink" viewBox="0 0 66 66"><defs><style>.cls-1{fill:none;}.cls-2{isolation:isolate;}.cls-3{clip-path:url(#clip-path);}.cls-4{fill:#88af91;}.cls-5{fill:#e8dbdb;}.cls-6{fill:#fff;}.cls-7{fill:url(#linear-gradient);}.cls-8{opacity:0.1;}.cls-9{fill:#f5ecec;}.cls-10{opacity:0.15;}.cls-11{fill:#19b2ac;}.cls-12{fill:#118f8d;}.cls-13{fill:#d9a78a;mix-blend-mode:multiply;opacity:0.5;}.cls-14{fill:#4f2315;}.cls-15{fill:#fff3e2;}.cls-16{fill:#ffcb9e;}.cls-17{fill:#2f1f1d;}.cls-18{fill:#7d422b;}.cls-19{fill:#b08468;}.cls-20{fill:#ffac88;}.cls-21{opacity:0.6;}.cls-22{fill:#f04d4d;}.cls-23{fill:#8f312d;}.cls-24{fill:#fff9f0;}.cls-25{fill:#e8dac5;}.cls-26{fill:#b54d26;opacity:0.3;}.cls-27{fill:#121b21;}.cls-28{fill:#783f29;}.cls-29{fill:#5e0900;opacity:0.2;}.cls-30{fill:#38e0d5;}.cls-31{fill:#1dc2b7;}.cls-32{fill:#5ce6dc;}.cls-33{fill:#169e99;}</style><clipPath id="clip-path"><circle class="cls-1" cx="33" cy="33" r="33"/></clipPath><linearGradient id="linear-gradient" x1="35.77" y1="49.14" x2="35.77" y2="53.33" gradientUnits="userSpaceOnUse"><stop offset="0" stop-color="#ee986d"/><stop offset="1" stop-color="#ffc498"/></linearGradient></defs><g class="cls-2"><g id="Layer_2" data-name="Layer 2"><g id="avatars"><g class="cls-3"><rect class="cls-4" width="66" height="66"/><path class="cls-5" d="M32.54,55.91c1-.87-.17-4-1.57-3.22-3.36,1.81-4,9-5.3,13.31h3.1C29.7,62.46,30.52,57.61,32.54,55.91Z"/><path class="cls-5" d="M40.75,52.69c-1.39-.75-2.59,2.35-1.56,3.22C41.21,57.61,42,62.46,43,66h3.09C44.74,61.65,44.11,54.5,40.75,52.69Z"/><path class="cls-5" d="M41.86,60.66c1-2.5.71-5.2-.21-6.41-3.71-4.88-8.28-3.71-10.62-1.62a4.62,4.62,0,0,0-1.48,2.52c-1,2.63,0,3.84.53,6.09A13.11,13.11,0,0,1,30.31,66H41.36A8.07,8.07,0,0,1,41.86,60.66Z"/><path class="cls-6" d="M35.89,60.87a.5.5,0,1,0,.49.5A.5.5,0,0,0,35.89,60.87Z"/><path class="cls-6" d="M36,63.92a.5.5,0,1,0,.5.49A.49.49,0,0,0,36,63.92Z"/><path class="cls-7" d="M39.47,51.88c-1.81-1,.15-5.69-1.3-6.86A4.36,4.36,0,0,0,34,44.58c-2.48,1,0,6.7-2.41,7.72-.48.21-.58.78.34,2.27a8,8,0,0,0,4.09,3.76,8,8,0,0,0,4.08-4.1A1.87,1.87,0,0,0,39.47,51.88Z"/><path class="cls-8" d="M36.05,58.33a52.5,52.5,0,0,1-5.33-2.14l.52,4.31s4.37-1.93,4.8-1.93A52.67,52.67,0,0,1,41,60.65V57.11A45.77,45.77,0,0,1,36.05,58.33Z"/><path class="cls-9" d="M39.67,51.81a4.08,4.08,0,0,1-.25,3.59,13.43,13.43,0,0,1-3.37,2.93l4.62,1.37S41.69,53.19,39.67,51.81Z"/><path class="cls-9" d="M32.79,55.75c-1.52-2.18-1.06-3.63-1.06-3.63-2.25,1.54-.26,7.55-.26,7.55l4.58-1.34A9.12,9.12,0,0,1,32.79,55.75Z"/><path class="cls-10" d="M39,53.69c0-.3.33-.54.43-.82a2.84,2.84,0,0,0,0-1.16c-.43-.16-1.15.4-1.54.55a15.34,15.34,0,0,1-1.76.63,4.72,4.72,0,0,1-3.23-.5,2.64,2.64,0,0,1-1-.86A2.18,2.18,0,0,0,33.23,54c.49.31,1.06.34,1.55.6a4.86,4.86,0,0,0-1,2.57c-.27,1.4.09,2.86-.18,4.24.87.07,2.14-.94,2.79-1.46A5.76,5.76,0,0,0,38,58a3.14,3.14,0,0,0,.39-1.15A6,6,0,0,0,42.19,58a8.11,8.11,0,0,0-1.64-2.62C40.11,55,38.92,54.42,39,53.69Z"/><path class="cls-11" d="M38.87,50.7a4.23,4.23,0,0,0-.75.72,3.48,3.48,0,0,1-2.47.95,3.53,3.53,0,0,1-1.06-.19,2.88,2.88,0,0,1-2-1.61,3.3,3.3,0,0,0-1.08.89,3.36,3.36,0,0,0,1,1.82,3.5,3.5,0,0,0,1.12.69A5.39,5.39,0,0,0,39.74,52c.11-.18.16-.25,0-.43A5.07,5.07,0,0,0,38.87,50.7Z"/><path class="cls-11" d="M36.44,54.79c1.34.46,3.26-.88,2.39-2.32C37.41,50.09,33.69,53.85,36.44,54.79Z"/><path class="cls-11" d="M36.92,53.36c-.55.74-1.44,1-2,1.79a6,6,0,0,0-1,2.4,19.32,19.32,0,0,1-.62,3.8,4.94,4.94,0,0,0,4.5-6A5.31,5.31,0,0,0,36.92,53.36Z"/><path class="cls-11" d="M37.23,52.92c.63,5.77,5.17,6.18,7.54,5.2C42.12,57.11,41.12,52.07,37.23,52.92Z"/><path class="cls-12" d="M40.21,55.91c-1.09-.71-1.68-.67-2.15-1.24a3.07,3.07,0,0,0,1,1.95,3.19,3.19,0,0,0,2.21,1A3.06,3.06,0,0,0,40.21,55.91Z"/><path class="cls-12" d="M36.6,57.36a4,4,0,0,0-.13,2,3.25,3.25,0,0,0,1.11-1.88,4.21,4.21,0,0,0,0-2.2C37.47,56,37.07,56.23,36.6,57.36Z"/><path class="cls-12" d="M37.49,54.53a2.32,2.32,0,0,1-.63.11,1.71,1.71,0,0,1-.7-.16c-.06,0-.11-.06-.18,0a2.57,2.57,0,0,0,.7.51c.21.13.45.22.66.36a.49.49,0,0,0,.49.11c.22-.08.31-.33.41-.52a3.06,3.06,0,0,0,.47-1.19c-.14.11-.24.28-.39.41A2.5,2.5,0,0,1,37.49,54.53Z"/><path class="cls-13" d="M21.41,31.56c-1.76-.18-3.24,1.15-2.71,5.26a3.86,3.86,0,0,0,4.35,3.62S23.17,31.75,21.41,31.56Z"/><path class="cls-14" d="M37.33,10.05C25.33,11,19.92,20.4,16.72,28c-7.45,8.81-4.79,24.55,11.34,19.22,4.1-1.35,1.74-6.55,8.33-7,4.15-.3,5,4.52,6.46,5.5,9.27,6.33,17.3-7.81,7.27-19.65C42.05,24.12,47.16,12.24,37.33,10.05Z"/><path class="cls-15" d="M46.08,39.07a2.83,2.83,0,0,0-2.35,3.24,2.9,2.9,0,0,0,2.92,2.8A2.82,2.82,0,0,0,49,41.88,2.92,2.92,0,0,0,46.08,39.07Zm.48,5a2.1,2.1,0,0,1-2.11-2,2,2,0,0,1,1.7-2.35,2.09,2.09,0,0,1,2.11,2A2,2,0,0,1,46.56,44.06Z"/><path class="cls-16" d="M34.84,17.67c-10,.31-13.29,6.9-13,16.76s7.33,16.37,14.72,16.8c5.67.34,12.83-8.48,12.25-18.33S44.46,17.37,34.84,17.67Z"/><path class="cls-17" d="M28,31.4c-2.06-.77-3.11,3-1.68,4.15a2.81,2.81,0,0,1,2,.05C29.6,34.79,29.5,32,28,31.4Z"/><path class="cls-18" d="M27.69,26.81a3,3,0,0,0-2.31,2.05c2.52-2.11,4.18-.87,5.1-.51A2.75,2.75,0,0,0,27.69,26.81Z"/><path class="cls-19" d="M28.12,32.59c-.85.13-.53,1.88.36,1.44C29.12,33.71,28.88,32.48,28.12,32.59Z"/><path class="cls-14" d="M46.17,18.16c-2.09-2.45-5.14-3.72-8.11-4.78a12.75,12.75,0,0,0-6.81-.61C25.42,13.91,21.82,19.51,20.89,25c-.3,1.74-1.91,7.83.38,10.72.53-3.12,1.38-4.86,8.37-6.89a20.44,20.44,0,0,0,11.85-9.14c.2,4.3,7.16,6,7.22,12.25,0-1.57,1.11-4.29.84-5.87A16.22,16.22,0,0,0,46.17,18.16Z"/><path class="cls-20" d="M47.25,37.5a2.57,2.57,0,0,0-2.15-1c-1-.07-2.26.21-1.57,1.68.38.79,4.13,1.58,3.87-.19A1.48,1.48,0,0,0,47.25,37.5Z"/><path class="cls-20" d="M28.91,37.38a2.64,2.64,0,0,0-2.53-.67c-1.06.14-2.46.77-1.44,2.32.55.82,4.8.87,4.22-1.13A1.8,1.8,0,0,0,28.91,37.38Z"/><g class="cls-21"><path class="cls-22" d="M36.65,40.63c-2.8.06-6.92.85-9.11-.44,3.59,6.17,5.84,7.32,8.71,7.54,3.59.28,4.86-2.22,5.43-4.09a10.91,10.91,0,0,1,2.8-3.27C42.23,40.89,40,40.57,36.65,40.63Z"/></g><path class="cls-23" d="M29.22,41.28s2.16,4.14,6.63,4.3c2.86.1,4.76-.84,5.31-2.23A3.86,3.86,0,0,1,43,41.3,28.19,28.19,0,0,1,29.22,41.28Z"/><path class="cls-24" d="M30.88,41.67a2.25,2.25,0,0,0,1.7,1.75,14.6,14.6,0,0,0,6.51.38c1.53-.22,2.31-2.17,2.31-2.17A30,30,0,0,1,30.88,41.67Z"/><path class="cls-24" d="M37,43.93c-2,0-3.75-.12-4.76-.81-.72-.49-.8,0-.65.35,0,0,.64,1.72,4,2.16s5-1.59,4.61-2S38.91,43.89,37,43.93Z"/><path class="cls-25" d="M30.88,41.67a2.12,2.12,0,0,0,.39.88s7.67-.56,9.49.16a4,4,0,0,0,.64-1.08A34.92,34.92,0,0,1,30.88,41.67Z"/><path class="cls-25" d="M32.85,43.38c2.72,1.74,6,.35,6,.35A10.54,10.54,0,0,1,32.85,43.38Z"/><path class="cls-26" d="M37.17,36.92c-.64,0-.9-.29-1.35-.05S36.33,38,37.13,38s1.65-.76,1.41-1S37.88,36.94,37.17,36.92Z"/><path class="cls-17" d="M46.1,31.44C44,30.13,42.21,35,44.51,35.66a2.45,2.45,0,0,1,1.82-.29C47.12,34.34,47.2,32.15,46.1,31.44Z"/><path class="cls-19" d="M46,32.51c-.82,0-.7,1.84.18,1.51C46.81,33.78,46.72,32.5,46,32.51Z"/><path class="cls-27" d="M46.15,31.34c-1.89-.73-2.51,1.52-2.51,1.52a1.76,1.76,0,0,1,2.21-.41,3.9,3.9,0,0,0,4.81-.36C48.34,32.87,47.17,31.73,46.15,31.34Z"/><path class="cls-27" d="M26.59,31.51a6.14,6.14,0,0,1-4.85.86,4.3,4.3,0,0,0,5.05.18,2,2,0,0,1,2.29.18S28.57,30.5,26.59,31.51Z"/><path class="cls-28" d="M46,27.06a2.74,2.74,0,0,0-2.83,1.47c.93-.34,2.62-1.53,5.09.64A3,3,0,0,0,46,27.06Z"/><path class="cls-16" d="M20.22,31.54c-2.66,1.19-1.58,6.69.59,7.69a3.71,3.71,0,0,0,2.15.22l.05-.09c.31-.74-.26-4.41-.43-5.17C22.17,32.29,21.5,31,20.22,31.54Z"/><path class="cls-15" d="M22.18,39.61a2.81,2.81,0,0,0-2.57,3.06,2.88,2.88,0,0,0,2.7,3,2.81,2.81,0,0,0,2.57-3.05A2.9,2.9,0,0,0,22.18,39.61Zm.12,5a2.1,2.1,0,0,1-2-2.19,2,2,0,0,1,1.87-2.21,2.11,2.11,0,0,1,2,2.18A2.05,2.05,0,0,1,22.3,44.62Z"/><path class="cls-26" d="M21.08,33.38c-.54-.29-1.69.59-.91,2.09.12-1.53.79-.66.83.41,0,.71-.42.8.15,1.63.31.44.78.18,1-.13C22.84,36.42,21.73,33.74,21.08,33.38Z"/><path class="cls-29" d="M44.16,17.72c-2-1.28-4.61-1.18-6.89-.73a22.93,22.93,0,0,0-5.44,2.24c-2.95,1.39-6.19,1.54-9.23,2.65-1.23.46-6.59,6.57-4.52,7,1,.19,2.47-.84,3.26-1.33.89,1.56,3.36,3.86,5.27,3.81,2.18-.05,4.47-1.56,6.56-2.14a28.86,28.86,0,0,1,4.28-.8c3.3-.36,6.7.33,10,.67,1.39.15,3.79,1.37,4.43-.4,1-2.81-1.95-5.42-3.32-7.43C47.34,19.45,46,18.88,44.16,17.72Z"/><path class="cls-12" d="M29.81,7.15c-11.95,2.27-13.37,14.5-14,19.1-.45,3.33,3.53,1.35,6.16-.41.29-.19.58-.37.88-.53,5.81-3.21,12.14-2.52,18.42-3a26.46,26.46,0,0,1,7.23,0C50.82,22.81,47.74,3.76,29.81,7.15Z"/><path class="cls-11" d="M41.9,9.58A14.2,14.2,0,0,0,32.43,7.2c-4,.29-7.9,1.92-9.59,3.59a22.12,22.12,0,0,0,.54,10.83c.56,1.88,1.39.47,4.06-.59,7.56-3,12.78-2.48,18.75-1.21,1,.22,2.22.63,2.1-.35a15.15,15.15,0,0,0-4.07-7.95A14.05,14.05,0,0,0,41.9,9.58Z"/><path class="cls-30" d="M29.82,12c-2.75,1.33-1.48,6.28,1.44,5.55a20.58,20.58,0,0,1,8.22-.69c1.43.17,5,1.38,4.57-1.6C43.35,9.74,32.9,10.48,29.82,12Z"/><path class="cls-30" d="M30.84,18.5l-.27.08a2.49,2.49,0,0,1-.53.07.24.24,0,0,0-.22.24.23.23,0,0,0,.2.23h0a2.41,2.41,0,0,0,.64-.09l.26-.07a.24.24,0,0,0,.16-.29A.21.21,0,0,0,30.84,18.5Z"/><path class="cls-30" d="M31.17,10c-.29.06-.58.13-.85.21a.24.24,0,0,0-.16.29.21.21,0,0,0,.19.17h.08l.83-.2a.24.24,0,0,0,.17-.28A.21.21,0,0,0,31.17,10Z"/><path class="cls-30" d="M29.47,10.47a6.3,6.3,0,0,0-.82.36h0a.25.25,0,0,0-.09.31.26.26,0,0,0,.18.13l.12,0a7.27,7.27,0,0,1,.78-.34.24.24,0,0,0,.14-.3A.21.21,0,0,0,29.47,10.47Z"/><path class="cls-30" d="M34.25,17.71l-.86.16a.25.25,0,0,0-.18.28.23.23,0,0,0,.19.19h.06l.85-.15a.23.23,0,0,0,.18-.27A.21.21,0,0,0,34.25,17.71Z"/><path class="cls-30" d="M32.9,9.68,32,9.81a.24.24,0,0,0-.19.27.23.23,0,0,0,.2.19h.05c.28,0,.57-.09.85-.12a.24.24,0,0,0,.2-.26A.23.23,0,0,0,32.9,9.68Z"/><path class="cls-30" d="M32.53,18.06l-.85.22a.23.23,0,0,0-.16.28.22.22,0,0,0,.19.18h.07l.84-.21a.24.24,0,0,0,.17-.28A.23.23,0,0,0,32.53,18.06Z"/><path class="cls-30" d="M28.6,18.09a.21.21,0,0,0-.31,0,.25.25,0,0,0,0,.33,2.61,2.61,0,0,0,.8.5l.05,0a.22.22,0,0,0,.23-.16.24.24,0,0,0-.13-.3A2.41,2.41,0,0,1,28.6,18.09Z"/><path class="cls-30" d="M27,14.32h0a.22.22,0,0,0,.23-.22s0-.06,0-.09a4.58,4.58,0,0,1,.13-.77.23.23,0,0,0-.15-.29.22.22,0,0,0-.27.17,5.57,5.57,0,0,0-.15.85v.11A.22.22,0,0,0,27,14.32Z"/><path class="cls-30" d="M44.29,14.06a4.78,4.78,0,0,1,.25.84.2.2,0,0,0,.19.17h.07a.24.24,0,0,0,.17-.28,5.46,5.46,0,0,0-.28-.92.21.21,0,0,0-.29-.12A.24.24,0,0,0,44.29,14.06Z"/><path class="cls-30" d="M27.38,15.86a6.33,6.33,0,0,1-.15-.87.22.22,0,0,0-.24-.21.23.23,0,0,0-.19.26A7.52,7.52,0,0,0,27,16a.23.23,0,0,0,.19.17h.08A.24.24,0,0,0,27.38,15.86Z"/><path class="cls-30" d="M27.65,16.7a.22.22,0,0,0-.29-.12.25.25,0,0,0-.11.31,4.77,4.77,0,0,0,.45.84.23.23,0,0,0,.16.1.23.23,0,0,0,.15,0,.25.25,0,0,0,0-.32A4.6,4.6,0,0,1,27.65,16.7Z"/><path class="cls-30" d="M34.65,9.54l-.87.05a.23.23,0,0,0-.21.25.23.23,0,0,0,.2.22h0l.86-.05a.23.23,0,0,0,.21-.25A.21.21,0,0,0,34.65,9.54Z"/><path class="cls-30" d="M27.86,11.42a3.48,3.48,0,0,0-.57.78.25.25,0,0,0,.08.32.16.16,0,0,0,.09,0,.22.22,0,0,0,.21-.12,3.11,3.11,0,0,1,.49-.68.25.25,0,0,0,0-.33A.2.2,0,0,0,27.86,11.42Z"/><path class="cls-30" d="M39.85,10.08c-.27-.08-.56-.15-.85-.21a.22.22,0,0,0-.26.18.23.23,0,0,0,.17.28l.83.2h0a.23.23,0,0,0,.23-.18A.22.22,0,0,0,39.85,10.08Z"/><path class="cls-30" d="M42.3,11.12a.2.2,0,0,0-.3.09.24.24,0,0,0,.08.32,6.63,6.63,0,0,1,.69.49.22.22,0,0,0,.11.05.22.22,0,0,0,.19-.1.23.23,0,0,0,0-.32A6.61,6.61,0,0,0,42.3,11.12Z"/><path class="cls-30" d="M40.69,10.35a.21.21,0,0,0-.28.14.23.23,0,0,0,.14.3q.41.15.78.33l.07,0a.22.22,0,0,0,.22-.14.24.24,0,0,0-.11-.31A8.77,8.77,0,0,0,40.69,10.35Z"/><path class="cls-30" d="M42.87,17.94a4.66,4.66,0,0,1-.83,0,.22.22,0,0,0-.24.21.24.24,0,0,0,.2.26h0a6.71,6.71,0,0,0,.89,0,.24.24,0,0,0,.21-.25A.24.24,0,0,0,42.87,17.94Z"/><path class="cls-30" d="M44.06,13.39a.18.18,0,0,0,.14,0,.24.24,0,0,0,.06-.32,4.58,4.58,0,0,0-.56-.75.2.2,0,0,0-.31,0,.26.26,0,0,0,0,.33,4.23,4.23,0,0,1,.52.68A.2.2,0,0,0,44.06,13.39Z"/><path class="cls-30" d="M44.28,17.35a1.35,1.35,0,0,1-.62.44.24.24,0,0,0-.14.3.21.21,0,0,0,.19.15.14.14,0,0,0,.09,0,1.92,1.92,0,0,0,.81-.57.25.25,0,0,0,0-.33A.21.21,0,0,0,44.28,17.35Z"/><path class="cls-30" d="M44.87,15.52a.23.23,0,0,0-.21.25,3.28,3.28,0,0,1,0,.55,2.91,2.91,0,0,1,0,.31.23.23,0,0,0,.16.28h0a.22.22,0,0,0,.23-.18,2.2,2.2,0,0,0,.06-.37,4.27,4.27,0,0,0,0-.62A.21.21,0,0,0,44.87,15.52Z"/><path class="cls-30" d="M36.39,9.55c-.28,0-.58,0-.87,0a.23.23,0,0,0-.22.24.22.22,0,0,0,.2.23h0l.86,0a.22.22,0,0,0,.23-.22A.22.22,0,0,0,36.39,9.55Z"/><path class="cls-30" d="M37.73,17.48h-.87a.24.24,0,0,0-.22.24.23.23,0,0,0,.2.23h.88a.22.22,0,0,0,.22-.23A.22.22,0,0,0,37.73,17.48Z"/><path class="cls-30" d="M36,17.51l-.88.08a.24.24,0,0,0-.19.26.22.22,0,0,0,.19.21h0L36,18a.23.23,0,0,0,.2-.25A.21.21,0,0,0,36,17.51Z"/><path class="cls-30" d="M39.47,17.58l-.87-.07a.23.23,0,0,0-.23.22.23.23,0,0,0,.2.25h0l.86.07h0a.23.23,0,0,0,.24-.21A.24.24,0,0,0,39.47,17.58Z"/><path class="cls-30" d="M38.13,9.71c-.28,0-.57-.08-.86-.1h0a.22.22,0,0,0-.24.21.21.21,0,0,0,.19.25l.85.11h0a.23.23,0,0,0,.24-.2A.24.24,0,0,0,38.13,9.71Z"/><path class="cls-30" d="M41.19,17.83l-.43-.07-.42-.07a.22.22,0,0,0-.25.2.23.23,0,0,0,.18.26l.42.07.44.07h0a.24.24,0,0,0,.24-.2A.23.23,0,0,0,41.19,17.83Z"/><path class="cls-12" d="M49.12,21.64c-2.23-2.88-20.38-3.46-28,4.41,3,2.45,3,5,7.24,3.65,3.35-1.07,6.66-2.29,10.14-2.45,6.36-.3,12.28.51,15.13,3.35,2.57.81.84-1.56.21-2.47C52.11,25.63,50.75,23.75,49.12,21.64Z"/><path class="cls-31" d="M48.87,21.72c-2.17-2.81-19.64-4-27.1,3.69,3.7,3.05,3.24,4,8.52,2.33,5.81-1.85,18.32-3.2,23,1.45,1.67,1.41,1.47.41.19-1.13C51.59,25.79,50.47,23.78,48.87,21.72Z"/><path class="cls-11" d="M19.85,24.88c-1.13.91-2.2,1.26-3,.89s-.58.3-.63.89.84,1.15,3,.15a13.8,13.8,0,0,0,4.08-3.5,8.09,8.09,0,0,1-.51-1.71A24.25,24.25,0,0,1,19.85,24.88Z"/><path class="cls-32" d="M35.66,26.31c-4.49.61-7.18,2.1-9.32,1.83C24.62,27.93,22.42,26,22.42,26s1.92,2.58,3.66,2.93c2.28.47,3.5-1.13,9.69-2.19a38.91,38.91,0,0,1,11.34-.27A39.92,39.92,0,0,0,35.66,26.31Z"/><path class="cls-33" d="M31.16,25.94c-4.12,1-5.62,1.1-7.7-.86,0,0,1,2.3,2.85,2.37,2.58.09,4.67-1.47,12.16-2.2A25.08,25.08,0,0,0,31.16,25.94Z"/><path class="cls-33" d="M43.43,25.12s6.3.42,9,2.45l-.52-.81A19.12,19.12,0,0,0,43.43,25.12Z"/></g></g></g></g></svg>