<svg xmlns="http://www.w3.org/2000/svg" xmlns:xlink="http://www.w3.org/1999/xlink" viewBox="0 0 96 96"><defs><style>.cls-1{fill:none;}.cls-2{clip-path:url(#clip-path);}.cls-3{fill:#fff;}.cls-4{fill:#93aebf;}.cls-5{fill:#ff697c;}.cls-6{fill:#00315e;opacity:0.15;}.cls-7{fill:#23232d;}.cls-8{fill:#108d8e;}.cls-9{opacity:0.1;}.cls-10{fill:#27b3b0;}.cls-11{fill:#f2e6b3;}.cls-12{fill:#854422;}.cls-13{fill:#9c552c;}.cls-14{fill:#70442d;}.cls-15,.cls-16{fill:#66241b;}.cls-15,.cls-22{opacity:0.7;}.cls-16,.cls-21{opacity:0.4;}.cls-17{fill:#4cb5cf;}.cls-18{fill:#9ddded;}.cls-19{fill:#d17642;}.cls-20{fill:#261b18;}.cls-21{fill:#661004;}.cls-22{fill:#f0ded1;}.cls-23{fill:#121b21;}.cls-24{fill:#611f16;}</style><clipPath id="clip-path"><circle class="cls-1" cx="48" cy="48" r="48"/></clipPath></defs><g id="Layer_2" data-name="Layer 2"><g id="Layer_4" data-name="Layer 4"><g class="cls-2"><rect class="cls-3" width="96" height="96"/><path class="cls-4" d="M76.59,53.56c1.21-7,1.77-12.8-2.37-17.84-.37-.45-1.73-1.2-2.06-1.68C65.39,24.16,50.73,19.2,39.27,19.2a22,22,0,0,0-15.68,7.17c-3.87,4.33-5.19,10.14-5.49,17-.14,3-.49,11.45-4.91,11.32,2.16,1.66,5,2.2,5.81,0,0,11.21,13.45,29.39,18.42,32.38a18.36,18.36,0,0,0,11.21,2.41A21.77,21.77,0,0,0,66.32,76.81c1.44-3.17,2.81-6.37,4-9.64,1.07-2.92,1.28-6.51,3-9.1,1.71,1.84,5.58,1.81,6.82.57C77.65,57.81,76.32,55.13,76.59,53.56Z"/><path class="cls-5" d="M61.57,95.45a18.86,18.86,0,0,0,4.16-8.8c.38-1.63,1.36-3,1.53-4.74,1.91.31,4.09-1.08,5.15-2.61-3.38-.29-3.34-3.12-2-5.42,1.72-2.84,4.29-5.65,5-9a9.42,9.42,0,0,0-.53-5.4c-1-2.54-.59-5.14-.62-7.8-.3.74-2,5.7-1.68,6.3a30.62,30.62,0,0,1-1.19-3.14c.55,3.44-.3,11-5,13.68-1.83,1.06-.14,4.07-1.66,5.51-.61.59-1.46.79-2,1.52a5.06,5.06,0,0,0-.7,4.59c-2.61,0-2.31-1.9-2.84-3.73.25.85-.94,3.33-1.67,3.8-1.43.91-3.69.21-5.18,0-4.44-.75-7.88-.1-12.17.17a7.29,7.29,0,0,1-5.81-3.16,12.77,12.77,0,0,1-.44,3.12c-6.1-3-2-9.92-5.32-14a4.27,4.27,0,0,1-2.75,3.13c-1.19-1.83-2-6.13-3.27-9.52-1.13,5.3-3.59-4.15-2.65-9.08-2.54,4.4-2,10.43-.7,12.71a28.92,28.92,0,0,1,3.26,7.57c1.1,4.74-3.32,12.64,3.65,14.24-1.27-1.85.09-3.43-.19-5.21,3.79,3.32.81,9.16,4.87,15.65,3.43-.86,5-3.1,6.22-4.79a11.46,11.46,0,0,0,2.21,5H57.08a10.54,10.54,0,0,0,2.22-4.16A11.72,11.72,0,0,0,61.57,95.45Z"/><path class="cls-6" d="M57.26,86A8.47,8.47,0,0,0,59,84.9c3.79-2.88-2.13-5.51-1.61-8.64.21-1.23,2.65-2.44,2.59-3.17.09,1,1.24,1.67,1.19,2.77,2.34-2.41,1.77-5.63,3.63-8.14,1.28-1.71,3.24-3,4.17-4.91,1.16-2.45-.31-5.37.24-8,.64-3,2.88-9.74.23-12.26-1.75-1.65-3.89-.88-5.95-1a19.13,19.13,0,0,1-7.1-2.15c-3.88-2.06-6.92-5.52-10.49-8-4.56-3.22-14.67-7.89-19-.34-2.25,3.88-1.73,9.14-2.07,10.85-.7,3.61-3.77,5.84-4.09,9.56-.23,2.6,1,4.79,2.64,6.73.7.86,1.87,1.75,2.3,2.77s.14,2.13,1.2,3.06S29,64.85,30,65.47s1.13,1.25,1.55,2.22a12.68,12.68,0,0,1,1.29,3.48c.05.44.22,3.37-.4,3.52a5.75,5.75,0,0,0,2.12-.56,19.9,19.9,0,0,0,2-2.21c.4,1.24.87,2.1,1.08,3,.52,2.54-1.12,3.79-1.61,6a5.67,5.67,0,0,0,3,5.85c2.4,1.37,5.77.72,8.42.74C50.48,87.6,54.3,87.35,57.26,86Z"/><path class="cls-7" d="M39.53,80.83l-.78-7.26c-6.17,2-7.54,8.23-8.57,13.77-.47,2.52-1,5.22-1.89,8.65H36C37,90.5,38.53,81.44,39.53,80.83Z"/><path class="cls-7" d="M58.14,73.57l-.78,7.26c1,.61,2.5,9.67,3.53,15.16H68.6c-.9-3.43-1.42-6.13-1.89-8.65C65.68,81.8,64.31,75.6,58.14,73.57Z"/><path class="cls-7" d="M62.44,90.65c.3-2.18-.65-4.14-.75-6.11-.21-4.26.56-8.8-1.38-10-1.77-1.06-3.69-1.75-4.15-2.14-2.95-2.46-9-2.5-16.17.69-.67.3-2.8,1.25-3.53,1.6-3.13,1.49-.35,5.38-1,9-.21,1.07-.63,2.5-.76,3.6-.46,3.74.53,6.63,2.5,8.62h22.7A9,9,0,0,0,62.44,90.65Z"/><path class="cls-8" d="M62.65,90.38c-3.64,0-3-16.29-3-16.29l-3.31-1.62a51.36,51.36,0,0,1,0,14c-9.62,1.7-15.66-.21-15.66-.21-.13-9.76.84-13.9.84-13.9L38.08,73.7c.84,18.57-3.62,16.45-3.62,16.45A46.08,46.08,0,0,0,35.79,96H61A56.79,56.79,0,0,0,62.65,90.38Z"/><path class="cls-9" d="M41.32,92a34.71,34.71,0,0,0,13.85-.44S44.41,92.22,41.32,92Z"/><path class="cls-10" d="M41.12,92s-.25,2-.29,2.09c.88.12,1.7.34,2.59.44a40.49,40.49,0,0,0,7.93.17c1.17-.11,2.72-.29,3.45-.92.48-.4.27-2.16.63-2.26A36.85,36.85,0,0,1,41.12,92Z"/><path class="cls-11" d="M38.45,88.16a1.2,1.2,0,0,0-1,1.31,1.07,1.07,0,1,0,2.09,0A1.2,1.2,0,0,0,38.45,88.16Z"/><path class="cls-11" d="M58.34,88.5a1.33,1.33,0,1,0,1,1.3A1.19,1.19,0,0,0,58.34,88.5Z"/><polygon class="cls-9" points="40.33 91.01 37.94 92.87 36.26 90.48 36.21 90.66 37.86 93.7 40.72 91.42 40.71 87.36 40.33 91.01"/><polygon class="cls-9" points="56.48 91.69 56.35 87.51 56.09 92.01 58.86 94.16 61.08 90.53 58.73 93.22 56.48 91.69"/><path class="cls-12" d="M48.49,65.9a4.6,4.6,0,0,0-5.62,2.63c-.56,1.32-.54,4-.59,5.55a6,6,0,0,0,11.66,2.68A8,8,0,0,0,48.49,65.9Z"/><path class="cls-7" d="M53.54,75.87c-1,3.17-4,4.61-7.47,3.48-1.76-.59-2.75-3.07-2.88-4.84-.09-1.22-.49-3.39-1.23-.73a6.49,6.49,0,0,0,2,6.48c3.71,3,9.91,1.23,10.73-2.92a10.14,10.14,0,0,0-.18-4.41C53.8,72,53.7,75.33,53.54,75.87Z"/><path class="cls-13" d="M68.15,44.27c-1.68-14.93-9.44-21.86-20.81-21.78-17.06.12-24.46,11-19.41,25.89.69,15.23,11.74,27.37,23.72,26C61.57,73.32,70,61,68.15,44.27Z"/><path class="cls-14" d="M27,45.67c.9-.13,1.37,1.11,3.15.35-.65-9.31,3.43-11.89,6.47-13,2.22-.78.05-1.55-1.61-3.29-1.26-1.32-2.72-2.77-4.38-1.41C29.09,29.59,24.36,34.47,27,45.67Z"/><path class="cls-13" d="M26.5,57.93a8.25,8.25,0,0,0,4,0l.07-.16c.56-1.2-.7-6.87-1-8C28.7,46.86,27.37,44.89,25,46,20.09,48.22,22.38,56.67,26.5,57.93Z"/><path class="cls-15" d="M28.65,55.59c2.13-1.19.41-5.74-1.1-6.55-1.24-.67-4.48.21-3.12,2.81.91-2.28,2.24-.67,1.93,1-.2,1.11-1.38,1-.28,2.55C26.67,56.17,28,56,28.65,55.59Z"/><path class="cls-16" d="M43.6,25.89c1.11.19,2.14.41,3,.58,9.62,1.89,20.61,3.82,23.1,15,1.33,6-6.33,3.85-9.24,2.57-4.87-2.16-9.63-7.67-15.13-7-3,.39-4.86.82-7.78-.4-2.74-1.15-10.74-8.6-6.94-13.07C32.81,21,39.72,25.2,43.6,25.89Z"/><path class="cls-17" d="M37.67,34.71c3.15,1.94,5.63,1,9,.71,3-.26,5.53,1,7.9,2.67a59.57,59.57,0,0,0,13.8,7.62c3.49,1.22,10.36,1.28,14,.48-2-3-2.95-7.59-4.31-11.11-.38-1-3.71-7.95-4.3-8a5.31,5.31,0,0,1,1.67.36,16.27,16.27,0,0,0-2.61-4.13C68.38,18,60.46,16.1,53.94,15.88c.44,0,1.44-.33,2.13-.43A18.16,18.16,0,0,0,46.93,14c-6.28.61-21.76,5.67-15.9,14.75A29.59,29.59,0,0,0,37.67,34.71Z"/><path class="cls-18" d="M50.61,17c-2.17,1-4.59.9-6.67,2.17,0,0-.08.22-.1.24,9.55-2.79,19-.73,27.08,4.82C66.23,22.76,60.38,21.42,55.54,23c8.74.41,16.27,7,20.43,14.13a20.37,20.37,0,0,1,1.7,3.2c-9.13.32-16.52-4-23.54-9.4a9.92,9.92,0,0,1,.49,1.81c-3.56-1.26-7.41-2-9.78-5.24.63.86-2.62,1.15-2.75,1.16A11.66,11.66,0,0,1,36.73,27c-3.91-2.18-3.81-5.66.06-7.95S46.23,16.51,50.61,17Z"/><path class="cls-19" d="M66.81,53.59a2.14,2.14,0,0,1,.23.7c.37,2.58-5.06,1.43-5.61.29-1-2.14.9-2.55,2.28-2.45C64.77,52.2,66.24,52.5,66.81,53.59Z"/><path class="cls-19" d="M40,53a2.34,2.34,0,0,1,.37.76c.84,2.9-5.33,2.82-6.12,1.62-1.47-2.24.55-3.15,2.09-3.36C37.53,51.83,39.19,51.84,40,53Z"/><path class="cls-20" d="M69,42.82c-1.67-2.09-7.83-2.13-10.09.23C61.89,43.34,64.42,42.44,69,42.82Z"/><path class="cls-21" d="M54.35,55.16c.38.43-.8,1.61-2.25,1.73C50.83,57,49.27,55.6,50,55.2s1.14,0,2.17,0S53.9,54.66,54.35,55.16Z"/><path class="cls-20" d="M31.89,42.4c2.51-2.19,9.45-2.37,11.52.29C39.48,42.79,37.57,42.54,31.89,42.4Z"/><path class="cls-20" d="M39,51.38a4,4,0,0,0-2.9-.08c-2.09-1.63-.56-7.13,2.43-6C40.79,46.13,40.93,50.2,39,51.38Z"/><path class="cls-22" d="M37.08,46.61c1.1-.16,1.45,1.62.51,2.08C36.31,49.33,35.84,46.8,37.08,46.61Z"/><path class="cls-20" d="M64.85,45.35c1.6,1,1.47,4.19.33,5.68a3.6,3.6,0,0,0-2.63.42C59.21,50.45,61.85,43.44,64.85,45.35Z"/><path class="cls-22" d="M62.72,46.34c1.05,0,1.19,1.83.27,2.18C61.7,49,61.54,46.38,62.72,46.34Z"/><path class="cls-23" d="M71.46,46.29s-2.73,2.88-7,.51a2.55,2.55,0,0,0-3.2.6s.9-3.25,3.65-2.2C66.4,45.77,68.1,47.42,71.46,46.29Z"/><path class="cls-23" d="M29.54,46.69a6.23,6.23,0,0,0,7.31.27,2.84,2.84,0,0,1,3.33.25s-.75-3.23-3.61-1.77C35.47,46,32.92,47.67,29.54,46.69Z"/><path class="cls-15" d="M39.2,57.84c1.67,3.13-2.27,4.62-3.89,1.54A2.93,2.93,0,0,0,39.2,57.84Z"/><path class="cls-15" d="M61.38,57.3c-.86,3.25,3.41,4.37,4.25,1.2A3.32,3.32,0,0,1,61.38,57.3Z"/><path class="cls-24" d="M49.94,68.32c-5.85-.2-10.55-3.33-12.52-7.49a.76.76,0,0,1,.49-1.06,1,1,0,0,1,1.23.51c1.72,3.62,5.93,6.36,11.19,6.39,5.47,0,10.17-2.84,11.73-7.22A.91.91,0,0,1,63.23,59,.86.86,0,0,1,63.85,60c-1.81,5.05-7.13,8.33-13.42,8.28Z"/></g></g></g></svg>