<svg xmlns="http://www.w3.org/2000/svg" xmlns:xlink="http://www.w3.org/1999/xlink" viewBox="0 0 66 66"><defs><style>.cls-1{fill:none;}.cls-2{isolation:isolate;}.cls-3{clip-path:url(#clip-path);}.cls-4{fill:#ed9335;}.cls-5{fill:#e8dbdb;}.cls-6{fill:#fff;}.cls-7{fill:url(#linear-gradient);}.cls-8{fill:#a09a8f;}.cls-13,.cls-8{mix-blend-mode:multiply;}.cls-10,.cls-8{opacity:0.2;}.cls-9{fill:#f5ecec;}.cls-11{fill:#85b428;}.cls-12{fill:#588a17;}.cls-13{fill:#d9a78a;opacity:0.5;}.cls-14{fill:#4f2315;}.cls-15{fill:#fff3e2;}.cls-16{fill:#9c552c;}.cls-17{fill:#161110;}.cls-18{fill:#7d422b;}.cls-19{fill:#f0ded1;}.cls-19,.cls-25{opacity:0.7;}.cls-20{fill:#bf6c3c;}.cls-21{fill:#932f19;}.cls-22{fill:#8f312d;}.cls-23{fill:#fff9f0;}.cls-24{fill:#e8dac5;}.cls-25{fill:#66241b;}.cls-26{fill:#783f29;}.cls-27{fill:#380500;opacity:0.3;}.cls-28{fill:#acd14b;}.cls-29{fill:#88c138;}.cls-30{fill:#c0e366;}.cls-31{fill:#6ca81e;}</style><clipPath id="clip-path" transform="translate(0.01 0)"><circle class="cls-1" cx="33" cy="33" r="33"/></clipPath><linearGradient id="linear-gradient" x1="34.9" y1="48.55" x2="34.9" y2="52.71" gradientUnits="userSpaceOnUse"><stop offset="0" stop-color="#854326"/><stop offset="1" stop-color="#9c552c"/></linearGradient></defs><g class="cls-2"><g id="Layer_2" data-name="Layer 2"><g id="avatars"><g class="cls-3"><rect class="cls-4" width="66" height="66"/><path class="cls-5" d="M30.16,52.18C28,53.25,27.44,55.7,26.85,58.3c-.28,1.23-1.29,5.48-2,7.7h3.24c.73-2.74,2.58-10.44,3.2-10.75Z" transform="translate(0.01 0)"/><path class="cls-5" d="M39.54,52.18l-1.11,3.07c.62.31,2.46,8,3.19,10.75h3.25c-.72-2.22-1.74-6.47-2-7.7C42.27,55.7,41.71,53.25,39.54,52.18Z" transform="translate(0.01 0)"/><path class="cls-5" d="M41,60c1-2.49.7-5.17-.21-6.37-3.68-4.86-8.22-3.69-10.56-1.62a4.66,4.66,0,0,0-1.46,2.51c-1,2.61,0,3.82.52,6A13.47,13.47,0,0,1,29.38,66H40.67A8,8,0,0,1,41,60Z" transform="translate(0.01 0)"/><path class="cls-6" d="M35,60.2a.5.5,0,1,0,.5.5A.49.49,0,0,0,35,60.2Z" transform="translate(0.01 0)"/><path class="cls-6" d="M35.09,63.23a.5.5,0,0,0,0,1,.5.5,0,1,0,0-1Z" transform="translate(0.01 0)"/><path class="cls-7" d="M38.59,51.27c-1.8-1,.14-5.65-1.29-6.81A4.35,4.35,0,0,0,33.17,44c-2.46,1,0,6.65-2.39,7.67-.47.2-.57.77.34,2.25a7.94,7.94,0,0,0,4.07,3.74,7.91,7.91,0,0,0,4.05-4.07A1.87,1.87,0,0,0,38.59,51.27Z" transform="translate(0.01 0)"/><path class="cls-8" d="M35.19,57.68c-.56,0-5.18-1.24-5.18-1.24l.4,3.4s4.34-1.92,4.77-1.92A52,52,0,0,1,40.06,60V56.47A45.9,45.9,0,0,1,35.19,57.68Z" transform="translate(0.01 0)"/><path class="cls-9" d="M38.79,51.2a4.07,4.07,0,0,1-.25,3.57,13.28,13.28,0,0,1-3.35,2.91L39.78,59S40.79,52.57,38.79,51.2Z" transform="translate(0.01 0)"/><path class="cls-9" d="M31.94,55.12c-1.51-2.17-1.05-3.61-1.05-3.61C28.65,53,30.63,59,30.63,59l4.56-1.33A9.22,9.22,0,0,1,31.94,55.12Z" transform="translate(0.01 0)"/><path class="cls-10" d="M38.15,53.07c0-.3.33-.54.43-.82a2.67,2.67,0,0,0,0-1.16c-.42-.15-1.14.41-1.53.55a13.93,13.93,0,0,1-1.74.63,4.75,4.75,0,0,1-3.22-.49,2.61,2.61,0,0,1-1-.86,2.16,2.16,0,0,0,1.27,2.42c.49.31,1.06.34,1.54.61a4.76,4.76,0,0,0-1,2.55c-.27,1.39.09,2.83-.18,4.21.86.07,2.13-.93,2.78-1.45a5.73,5.73,0,0,0,1.56-1.9,3,3,0,0,0,.4-1.15,5.88,5.88,0,0,0,3.79,1.18,8.16,8.16,0,0,0-1.63-2.6C39.22,54.37,38,53.8,38.15,53.07Z" transform="translate(0.01 0)"/><path class="cls-11" d="M38,50.09a4.57,4.57,0,0,0-.74.72,3.52,3.52,0,0,1-2.46.95,3.42,3.42,0,0,1-1-.19,2.9,2.9,0,0,1-2-1.6,3.37,3.37,0,0,0-1.07.88,3.34,3.34,0,0,0,1,1.81,3.3,3.3,0,0,0,1.12.68,5.34,5.34,0,0,0,6-1.93c.12-.18.17-.25,0-.43A5,5,0,0,0,38,50.09Z" transform="translate(0.01 0)"/><path class="cls-11" d="M35.58,54.17c1.32.45,3.23-.88,2.37-2.32C36.54,49.5,32.84,53.23,35.58,54.17Z" transform="translate(0.01 0)"/><path class="cls-11" d="M36.05,52.74c-.55.73-1.43,1-2,1.78a6.05,6.05,0,0,0-.95,2.38,19,19,0,0,1-.62,3.78A4.91,4.91,0,0,0,37,54.76,5.36,5.36,0,0,0,36.05,52.74Z" transform="translate(0.01 0)"/><path class="cls-11" d="M36.36,52.31c.63,5.73,5.13,6.14,7.5,5.16C41.22,56.47,40.22,51.46,36.36,52.31Z" transform="translate(0.01 0)"/><path class="cls-12" d="M39.33,55.28c-1.09-.71-1.67-.67-2.15-1.24a3.12,3.12,0,0,0,1,1.94,3.25,3.25,0,0,0,2.19,1A3,3,0,0,0,39.33,55.28Z" transform="translate(0.01 0)"/><path class="cls-12" d="M35.74,56.72a4.08,4.08,0,0,0-.14,2,3.19,3.19,0,0,0,1.11-1.87,4.28,4.28,0,0,0,0-2.19C36.6,55.36,36.2,55.59,35.74,56.72Z" transform="translate(0.01 0)"/><path class="cls-12" d="M36.62,53.91A2,2,0,0,1,36,54a1.62,1.62,0,0,1-.69-.15c-.07,0-.11-.07-.18-.06a2.47,2.47,0,0,0,.69.51c.21.13.45.22.65.36a.53.53,0,0,0,.5.11c.21-.08.3-.33.4-.52a3.27,3.27,0,0,0,.48-1.18c-.15.11-.25.28-.4.4A2.58,2.58,0,0,1,36.62,53.91Z" transform="translate(0.01 0)"/><path class="cls-13" d="M20.64,31.08c-1.76-.18-3.22,1.13-2.7,5.22a3.84,3.84,0,0,0,4.33,3.6S22.39,31.26,20.64,31.08Z" transform="translate(0.01 0)"/><path class="cls-14" d="M36.46,9.69C24.53,10.64,19.16,20,16,27.56,8.57,36.32,11.21,52,27.25,46.67c4.07-1.34,1.73-6.51,8.28-7,4.13-.3,5,4.49,6.42,5.46,9.21,6.3,17.19-7.75,7.22-19.52C41.16,23.68,46.23,11.87,36.46,9.69Z" transform="translate(0.01 0)"/><path class="cls-15" d="M45.16,38.54a2.79,2.79,0,0,0-2.33,3.22,2.86,2.86,0,0,0,2.89,2.78,2.79,2.79,0,0,0,2.33-3.21A2.87,2.87,0,0,0,45.16,38.54Zm.48,5a2.1,2.1,0,0,1-2.11-2,2,2,0,0,1,1.69-2.34,2.1,2.1,0,0,1,2.11,2A2,2,0,0,1,45.64,43.5Z" transform="translate(0.01 0)"/><path class="cls-16" d="M34,17.26c-10,.31-13.22,6.86-13,16.67s7.29,16.27,14.63,16.7C41.3,51,48.42,42.19,47.84,32.4S43.54,17,34,17.26Z" transform="translate(0.01 0)"/><path class="cls-17" d="M27.15,30.92c-2-.77-3.09,3-1.66,4.12a2.79,2.79,0,0,1,2,.05C28.77,34.28,28.68,31.49,27.15,30.92Z" transform="translate(0.01 0)"/><path class="cls-18" d="M26.88,26.35a2.94,2.94,0,0,0-2.3,2c2.51-2.1,4.16-.87,5.07-.5A2.71,2.71,0,0,0,26.88,26.35Z" transform="translate(0.01 0)"/><path class="cls-19" d="M27.31,32.1c-.85.13-.53,1.86.35,1.43C28.3,33.21,28.06,32,27.31,32.1Z" transform="translate(0.01 0)"/><path class="cls-14" d="M45.25,17.75c-2.08-2.43-5.11-3.69-8.06-4.75a12.7,12.7,0,0,0-6.77-.6c-5.79,1.13-9.38,6.69-10.3,12.18-.3,1.73-1.9,7.78.38,10.65.52-3.09,1.37-4.82,8.32-6.84A20.34,20.34,0,0,0,40.6,19.3c.2,4.28,7.11,5.93,7.17,12.18,0-1.56,1.1-4.26.84-5.83A16.15,16.15,0,0,0,45.25,17.75Z" transform="translate(0.01 0)"/><path class="cls-20" d="M46.31,37a2.54,2.54,0,0,0-2.13-1c-.94-.07-2.25.21-1.55,1.68.37.78,4.09,1.57,3.84-.2A1.43,1.43,0,0,0,46.31,37Z" transform="translate(0.01 0)"/><path class="cls-20" d="M28.09,36.86a2.61,2.61,0,0,0-2.51-.67c-1.06.14-2.44.76-1.43,2.3.54.82,4.77.88,4.19-1.11A1.68,1.68,0,0,0,28.09,36.86Z" transform="translate(0.01 0)"/><path class="cls-21" d="M35.78,40.09c-2.78.06-6.87.84-9-.44,3.57,6.13,5.81,7.28,8.66,7.5,3.57.27,4.82-2.21,5.39-4.07a10.81,10.81,0,0,1,2.79-3.25C41.33,40.34,39.14,40,35.78,40.09Z" transform="translate(0.01 0)"/><path class="cls-22" d="M28.4,40.73S30.54,44.85,35,45c2.84.1,4.73-.83,5.28-2.21a3.83,3.83,0,0,1,1.82-2A28,28,0,0,1,28.4,40.73Z" transform="translate(0.01 0)"/><path class="cls-23" d="M30.05,41.12a2.23,2.23,0,0,0,1.69,1.74,14.43,14.43,0,0,0,6.47.38c1.52-.22,2.29-2.16,2.29-2.16A29.93,29.93,0,0,1,30.05,41.12Z" transform="translate(0.01 0)"/><path class="cls-23" d="M36.14,43.37c-2,.05-3.72-.12-4.73-.81-.72-.49-.79,0-.64.35,0,0,.63,1.71,4,2.15s4.95-1.58,4.58-1.94S38,43.33,36.14,43.37Z" transform="translate(0.01 0)"/><path class="cls-24" d="M30.05,41.12a2,2,0,0,0,.39.88s7.62-.56,9.43.16a4,4,0,0,0,.63-1.08A34.47,34.47,0,0,1,30.05,41.12Z" transform="translate(0.01 0)"/><path class="cls-24" d="M32,42.82c2.7,1.73,6,.35,6,.35A10.5,10.5,0,0,1,32,42.82Z" transform="translate(0.01 0)"/><path class="cls-25" d="M36.3,36.41c-.64,0-.89-.29-1.34-.06s.51,1.13,1.3,1.09,1.64-.76,1.41-1S37,36.42,36.3,36.41Z" transform="translate(0.01 0)"/><path class="cls-17" d="M45.17,31c-2.05-1.31-3.86,3.49-1.57,4.18a2.44,2.44,0,0,1,1.8-.28C46.19,33.83,46.27,31.66,45.17,31Z" transform="translate(0.01 0)"/><path class="cls-19" d="M45.07,32c-.81,0-.7,1.82.18,1.49C45.88,33.27,45.79,32,45.07,32Z" transform="translate(0.01 0)"/><path class="cls-17" d="M45.23,30.86c-1.88-.73-2.5,1.51-2.5,1.51A1.74,1.74,0,0,1,44.92,32a3.88,3.88,0,0,0,4.79-.35C47.4,32.38,46.24,31.25,45.23,30.86Z" transform="translate(0.01 0)"/><path class="cls-17" d="M25.78,31a6.1,6.1,0,0,1-4.82.86,4.28,4.28,0,0,0,5,.18,2,2,0,0,1,2.28.17S27.75,30,25.78,31Z" transform="translate(0.01 0)"/><path class="cls-26" d="M45,26.6a2.71,2.71,0,0,0-2.81,1.46c.92-.34,2.6-1.52,5.05.63A2.94,2.94,0,0,0,45,26.6Z" transform="translate(0.01 0)"/><path class="cls-16" d="M19.46,31.05c-2.65,1.18-1.58,6.65.58,7.65a3.76,3.76,0,0,0,2.14.22l0-.1c.32-.73-.25-4.38-.42-5.13C21.4,31.8,20.73,30.49,19.46,31.05Z" transform="translate(0.01 0)"/><path class="cls-15" d="M21.4,39.08a2.8,2.8,0,0,0-2.56,3,2.88,2.88,0,0,0,2.69,3,2.8,2.8,0,0,0,2.56-3A2.88,2.88,0,0,0,21.4,39.08Zm.12,5a2.09,2.09,0,0,1-1.95-2.17,2,2,0,0,1,1.86-2.2,2.09,2.09,0,0,1,1.95,2.17A2,2,0,0,1,21.52,44.05Z" transform="translate(0.01 0)"/><path class="cls-25" d="M20.3,32.88c-.53-.29-1.67.59-.9,2.08.12-1.52.78-.65.83.4,0,.71-.42.8.15,1.62.3.45.78.19,1-.12C22.06,35.9,21,33.24,20.3,32.88Z" transform="translate(0.01 0)"/><path class="cls-27" d="M43.25,17.32c-2-1.28-4.59-1.18-6.85-.73A22,22,0,0,0,31,18.82c-2.94,1.38-6.16,1.53-9.18,2.64-1.85.68-5.32,4.81-5.08,6.87,1.31.17,2.36-.84,3.53-1.12.38,1.71,3.93,3.66,5.54,3.63,2.16-.05,4.43-1.56,6.52-2.13a27.23,27.23,0,0,1,4.25-.79c3.28-.36,6.66.32,9.93.66,1.37.14,3.76,1.36,4.4-.4,1-2.79-1.93-5.39-3.3-7.38C46.41,19,45.1,18.47,43.25,17.32Z" transform="translate(0.01 0)"/><path class="cls-12" d="M29,6.81c-11.87,2.26-13.29,14.41-13.9,19-.45,3.31,3.51,1.34,6.13-.4.28-.19.57-.37.86-.53,5.78-3.19,12.08-2.51,18.31-2.94a26.18,26.18,0,0,1,7.19,0C49.86,22.38,46.81,3.44,29,6.81Z" transform="translate(0.01 0)"/><path class="cls-11" d="M41,9.23a14.08,14.08,0,0,0-9.41-2.37c-4,.29-7.86,1.91-9.53,3.57a21.84,21.84,0,0,0,.54,10.76c.55,1.87,1.37.47,4-.58,7.52-3,12.71-2.46,18.64-1.2,1,.21,2.2.62,2.09-.36a15.1,15.1,0,0,0-4-7.89A13,13,0,0,0,41,9.23Z" transform="translate(0.01 0)"/><path class="cls-28" d="M29,11.6c-2.73,1.32-1.47,6.24,1.43,5.52a20.58,20.58,0,0,1,8.18-.69c1.42.17,4.92,1.38,4.54-1.59C42.45,9.39,32.05,10.12,29,11.6Z" transform="translate(0.01 0)"/><path class="cls-28" d="M30.34,9.62c-.29.06-.58.14-.85.21a.24.24,0,0,0-.15.29.21.21,0,0,0,.18.17h.08l.82-.2a.25.25,0,0,0,.18-.28A.22.22,0,0,0,30.34,9.62Z" transform="translate(0.01 0)"/><path class="cls-28" d="M30,18.1l-.27.07a2.34,2.34,0,0,1-.53.08.22.22,0,0,0-.21.23.22.22,0,0,0,.19.23h0a2.34,2.34,0,0,0,.63-.09l.26-.07a.23.23,0,0,0,.16-.28A.2.2,0,0,0,30,18.1Z" transform="translate(0.01 0)"/><path class="cls-28" d="M28.65,10.11a5.75,5.75,0,0,0-.82.36h0a.23.23,0,0,0-.09.31.21.21,0,0,0,.17.12.16.16,0,0,0,.12,0,7.27,7.27,0,0,1,.78-.34.26.26,0,0,0,.14-.3A.22.22,0,0,0,28.65,10.11Z" transform="translate(0.01 0)"/><path class="cls-28" d="M33.79,9.18c-.29,0-.58,0-.86.06a.24.24,0,0,0-.21.25.22.22,0,0,0,.2.21h0l.85,0A.23.23,0,0,0,34,9.41.24.24,0,0,0,33.79,9.18Z" transform="translate(0.01 0)"/><path class="cls-28" d="M31.69,17.66l-.84.21a.23.23,0,0,0,0,.46H31l.83-.21a.24.24,0,0,0,.17-.27A.22.22,0,0,0,31.69,17.66Z" transform="translate(0.01 0)"/><path class="cls-28" d="M32.06,9.33c-.29,0-.58.08-.86.12a.23.23,0,0,0-.18.27.21.21,0,0,0,.19.2h.05l.85-.12a.24.24,0,0,0,.19-.26A.21.21,0,0,0,32.06,9.33Z" transform="translate(0.01 0)"/><path class="cls-28" d="M26.17,13.94h0a.22.22,0,0,0,.23-.22s0-.06,0-.09a4.58,4.58,0,0,1,.13-.77.23.23,0,0,0-.15-.28.22.22,0,0,0-.27.16,4.71,4.71,0,0,0-.14.85.34.34,0,0,0,0,.1A.23.23,0,0,0,26.17,13.94Z" transform="translate(0.01 0)"/><path class="cls-28" d="M43.38,13.68a5.34,5.34,0,0,1,.25.83.22.22,0,0,0,.19.18h.07a.23.23,0,0,0,.16-.28,6.83,6.83,0,0,0-.27-.91.22.22,0,0,0-.29-.12A.24.24,0,0,0,43.38,13.68Z" transform="translate(0.01 0)"/><path class="cls-28" d="M26.57,15.47a6.33,6.33,0,0,1-.15-.87.21.21,0,0,0-.23-.2.23.23,0,0,0-.2.25,5.77,5.77,0,0,0,.16.94.2.2,0,0,0,.19.17h.07A.25.25,0,0,0,26.57,15.47Z" transform="translate(0.01 0)"/><path class="cls-28" d="M26.84,16.3a.22.22,0,0,0-.29-.12.26.26,0,0,0-.11.32,5,5,0,0,0,.45.83.2.2,0,0,0,.15.09.26.26,0,0,0,.15,0,.25.25,0,0,0,0-.33A4.82,4.82,0,0,1,26.84,16.3Z" transform="translate(0.01 0)"/><path class="cls-28" d="M27.78,17.68a.2.2,0,0,0-.3,0,.25.25,0,0,0,0,.33,2.74,2.74,0,0,0,.8.5l.05,0a.25.25,0,0,0,.23-.15.24.24,0,0,0-.13-.31A2.2,2.2,0,0,1,27.78,17.68Z" transform="translate(0.01 0)"/><path class="cls-28" d="M27.05,11.05a3.73,3.73,0,0,0-.57.78.25.25,0,0,0,.08.32l.09,0a.22.22,0,0,0,.21-.12,3.07,3.07,0,0,1,.48-.68.24.24,0,0,0,0-.33A.2.2,0,0,0,27.05,11.05Z" transform="translate(0.01 0)"/><path class="cls-28" d="M33.39,17.31c-.27,0-.56.1-.85.16a.23.23,0,0,0-.18.27.22.22,0,0,0,.2.19h0l.85-.15a.24.24,0,0,0,.18-.27A.22.22,0,0,0,33.39,17.31Z" transform="translate(0.01 0)"/><path class="cls-28" d="M43.15,13a.15.15,0,0,0,.14,0,.24.24,0,0,0,.06-.32,5,5,0,0,0-.56-.74.2.2,0,0,0-.3,0,.25.25,0,0,0,0,.33,5.39,5.39,0,0,1,.51.67A.2.2,0,0,0,43.15,13Z" transform="translate(0.01 0)"/><path class="cls-28" d="M41.4,10.76a.21.21,0,0,0-.3.08.25.25,0,0,0,.07.32,6.05,6.05,0,0,1,.69.49.31.31,0,0,0,.12,0,.23.23,0,0,0,.19-.1.23.23,0,0,0,0-.32A5.63,5.63,0,0,0,41.4,10.76Z" transform="translate(0.01 0)"/><path class="cls-28" d="M42,17.54a4.73,4.73,0,0,1-.83,0,.23.23,0,0,0-.24.22.23.23,0,0,0,.2.25h0A5.35,5.35,0,0,0,42,18a.23.23,0,0,0,0-.46Z" transform="translate(0.01 0)"/><path class="cls-28" d="M43.37,17a1.35,1.35,0,0,1-.62.44.23.23,0,0,0-.13.29.21.21,0,0,0,.18.16.15.15,0,0,0,.09,0,1.88,1.88,0,0,0,.81-.56.25.25,0,0,0,0-.33A.2.2,0,0,0,43.37,17Z" transform="translate(0.01 0)"/><path class="cls-28" d="M39.8,10a.22.22,0,0,0-.28.14.23.23,0,0,0,.14.3c.26.1.53.21.77.33h.07a.22.22,0,0,0,.22-.13.25.25,0,0,0-.1-.31C40.36,10.21,40.08,10.09,39.8,10Z" transform="translate(0.01 0)"/><path class="cls-28" d="M44,15.13a.24.24,0,0,0-.21.25,5,5,0,0,1,0,.55,2.34,2.34,0,0,1-.05.3.24.24,0,0,0,.17.28h0a.23.23,0,0,0,.23-.18c0-.11,0-.24.05-.36a4.21,4.21,0,0,0,0-.62A.22.22,0,0,0,44,15.13Z" transform="translate(0.01 0)"/><path class="cls-28" d="M40.3,17.42l-.43-.07-.42-.07a.24.24,0,0,0-.25.2.25.25,0,0,0,.18.27l.42.06.43.07h0a.22.22,0,0,0,.23-.2A.23.23,0,0,0,40.3,17.42Z" transform="translate(0.01 0)"/><path class="cls-28" d="M36.86,17.08H36a.22.22,0,0,0-.21.24.22.22,0,0,0,.19.23h.87a.24.24,0,0,0,.23-.23A.22.22,0,0,0,36.86,17.08Z" transform="translate(0.01 0)"/><path class="cls-28" d="M35.12,17.11l-.86.08a.24.24,0,0,0-.2.26.22.22,0,0,0,.2.2h0c.28,0,.56-.06.85-.07a.23.23,0,0,0,.2-.25A.22.22,0,0,0,35.12,17.11Z" transform="translate(0.01 0)"/><path class="cls-28" d="M37.26,9.36l-.86-.11h0a.23.23,0,0,0-.24.22.23.23,0,0,0,.19.25l.84.1h0a.22.22,0,0,0,.23-.2A.22.22,0,0,0,37.26,9.36Z" transform="translate(0.01 0)"/><path class="cls-28" d="M35.53,9.19l-.87,0a.22.22,0,0,0-.22.23.22.22,0,0,0,.2.23h0c.29,0,.57,0,.85,0a.23.23,0,0,0,.23-.23A.22.22,0,0,0,35.53,9.19Z" transform="translate(0.01 0)"/><path class="cls-28" d="M39,9.72c-.28-.08-.56-.15-.85-.21a.23.23,0,0,0-.26.19A.24.24,0,0,0,38,10l.82.2h0A.24.24,0,0,0,39,9.72Z" transform="translate(0.01 0)"/><path class="cls-28" d="M38.59,17.18l-.86-.07a.24.24,0,0,0,0,.47h0c.28,0,.56,0,.85.07h0a.23.23,0,0,0,.24-.22A.23.23,0,0,0,38.59,17.18Z" transform="translate(0.01 0)"/><path class="cls-12" d="M48.17,21.21C46,18.35,27.92,17.77,20.33,25.6c3,2.43,3,5,7.2,3.63,3.33-1.06,6.62-2.28,10.09-2.44,6.31-.3,12.2.51,15,3.33,2.55.8.83-1.55.2-2.46C51.15,25.18,49.8,23.31,48.17,21.21Z" transform="translate(0.01 0)"/><path class="cls-29" d="M47.93,21.29C45.77,18.5,28.41,17.31,21,25c3.67,3,3.22,4,8.46,2.32,5.78-1.85,18.21-3.19,22.85,1.44,1.66,1.4,1.46.41.2-1.12C50.64,25.34,49.52,23.34,47.93,21.29Z" transform="translate(0.01 0)"/><path class="cls-11" d="M19.09,24.44c-1.13.9-2.19,1.24-3,.88s-.57.3-.63.88.84,1.14,3,.15a13.66,13.66,0,0,0,4.06-3.48,7.94,7.94,0,0,1-.51-1.7A25.28,25.28,0,0,1,19.09,24.44Z" transform="translate(0.01 0)"/><path class="cls-30" d="M34.8,25.85c-4.46.61-7.14,2.1-9.27,1.83-1.71-.22-3.89-2.17-3.89-2.17s1.91,2.56,3.64,2.91c2.27.46,3.48-1.12,9.62-2.18A38.68,38.68,0,0,1,46.18,26,39.21,39.21,0,0,0,34.8,25.85Z" transform="translate(0.01 0)"/><path class="cls-31" d="M30.33,25.48c-4.09,1-5.59,1.1-7.65-.85,0,0,1,2.29,2.83,2.36,2.56.09,4.63-1.46,12.08-2.19A25.36,25.36,0,0,0,30.33,25.48Z" transform="translate(0.01 0)"/><path class="cls-31" d="M42.52,24.67s6.26.41,8.95,2.43L51,26.3A19.16,19.16,0,0,0,42.52,24.67Z" transform="translate(0.01 0)"/></g></g></g></g></svg>