<svg xmlns="http://www.w3.org/2000/svg" xmlns:xlink="http://www.w3.org/1999/xlink" viewBox="0 0 96 96"><defs><style>.cls-1{fill:none;}.cls-2{clip-path:url(#clip-path);}.cls-3{fill:#fff;}.cls-4{fill:#9c552c;}.cls-5{fill:url(#linear-gradient);}.cls-6{fill:#ff392b;}.cls-7{fill:#854326;}.cls-8{fill:#261b18;}.cls-9{fill:#573d2f;}.cls-10,.cls-11{fill:#661004;}.cls-10{opacity:0.3;}.cls-11{opacity:0.4;}.cls-12{fill:#bf6c3c;}.cls-13{fill:#f0ded1;opacity:0.7;}.cls-14{fill:#d47b48;}.cls-15{fill:#78231f;}.cls-16{fill:#fff7ea;}.cls-17{fill:#ecdcc4;}.cls-18{fill:#161110;}</style><clipPath id="clip-path"><circle class="cls-1" cx="48" cy="48" r="48"/></clipPath><linearGradient id="linear-gradient" x1="47.75" y1="74.63" x2="47.75" y2="81.05" gradientUnits="userSpaceOnUse"><stop offset="0" stop-color="#854326"/><stop offset="1" stop-color="#9c552c"/></linearGradient></defs><g id="Layer_2" data-name="Layer 2"><g id="Layer_4" data-name="Layer 4"><g class="cls-2"><rect class="cls-3" width="96" height="96"/><path class="cls-4" d="M40.11,84.79c1.74-1.46-.29-6.69-2.64-5.43C33.15,81.69,31.52,89.28,30,96h5.19C36.35,91.38,37.73,86.79,40.11,84.79Z"/><path class="cls-4" d="M59.08,79.36c-2.35-1.26-4.37,4-2.63,5.43,2.37,2,3.76,6.59,4.91,11.21h5.19C65,89.28,63.4,81.69,59.08,79.36Z"/><path class="cls-5" d="M56.41,77.88c-1-.74-2.37-.86-3.21-1.23-1.64-.72-1.8-2.1-2.22-3.22-.84-2.24-5-2.67-5.41-.19-.67,4.34-4.33,3.82-6.66,5.17-4.7,2.73-1.88,5.17,1.66,8.71,3.92,3.93,10.82,4.5,16.19-.37C60.64,83.23,59,79.78,56.41,77.88Z"/><path class="cls-6" d="M55.27,88.62c4.3,0,9.1-5.55,9.1-5.55s-4.9-4.47-8.14-5.72C56.23,77.35,51,88.62,55.27,88.62Z"/><path class="cls-4" d="M38.88,87.82A76.06,76.06,0,0,0,40.79,96H56c.26-2.28.42-5.25.84-8C57.2,85.94,38.52,84.64,38.88,87.82Z"/><path class="cls-7" d="M39.16,89.49c.36,5.38,18.11,4.67,17.69-1.21C56.62,85.12,38.93,86,39.16,89.49Z"/><path class="cls-6" d="M36.81,79.79a9,9,0,0,0-4.28,4s4.16,8,16,7.91c8.72-.07,9.67-5.49,9.67-5.49s1-6.14-2-8.82C56.23,77.35,51.14,84.36,36.81,79.79Z"/><path class="cls-8" d="M19.71,18.66a12.13,12.13,0,0,0-1.24,17.09c4.06,4.83,11.73,5.07,17.11.55S42,24.18,38,19.34,25.09,14.13,19.71,18.66Z"/><path class="cls-9" d="M20.77,19.55c-2.59,2.18-4.23,6.14-2.43,9,1.5,2.42,2.5-.3,2.87-2,1.32,2.44,2.43-.68,2.44-2.23,1.11,1.09,2.86-1.09,3-2.16,2.2-.5,3.87-2.87,5.85-3.76C30.24,15.18,23.44,17.3,20.77,19.55Z"/><path class="cls-8" d="M61.71,19.34C45.94,8.4,24.87,17.72,22,31.83a27.23,27.23,0,0,0,6.64,24.3c2.77,3.08,4.76,6.76,7.45,9.83s5.56-2.16,7.72-3.41a15.41,15.41,0,0,1,9.69-2.08c2.94.43,5,3.49,8,3.54,3.92.08,5-6.47,5.88-9.26.83-2.57,1.45-5.21,2-7.85C71.93,35.07,69.91,25,61.71,19.34Z"/><path class="cls-4" d="M44.42,22.74C33.69,24.87,26.18,40.33,28.2,54.8,29.71,65.64,41,76.55,50.72,76.58c10.42,0,19.19-16.93,17.49-30.26C66.35,31.82,59.44,19.76,44.42,22.74Z"/><path class="cls-10" d="M58.26,25a48.75,48.75,0,0,0-13-2c-3.91,0-8.17-.26-11.82,1.41-2,.91-4.46,2.17-5.21,4.39-.92,2.77-.46,6.25,0,9.07a24.57,24.57,0,0,0,2.93,8.95c.12-1.92,1-3.75,1.39-5.62,1.34-6,5.2-8.21,9.85-9,3.87-.66,8.28-.35,12.23-.47,2.12-.06,14.42,2,11.76-2.94C65.17,26.55,60.43,25.62,58.26,25Z"/><path class="cls-4" d="M24.44,48.79c-5.27,1.46-2.82,9.72,1.49,11.25a4.45,4.45,0,0,0,3.95-.12l.08-.13c.63-1-.27-6.61-.6-7.66C28.54,49.47,27,48.08,24.44,48.79Z"/><path class="cls-11" d="M26.29,51.61c-1.18-.54-4.13.45-2.74,2.77.73-2.16,2-.75,1.85.77-.13,1-1.23,1.05-.14,2.36.6.7,1.79.44,2.4.06C29.57,56.35,27.74,52.27,26.29,51.61Z"/><path class="cls-8" d="M53.16,18.33a36.5,36.5,0,0,0-11-.29c-6.08.74-13.41,3.65-15.31,10.1-1.16,4-.53,8.54-.22,12.58.2,2.45-.77,7.18,1.32,9,2.45,2.14,3.4-1.1,3.63-3.43.25-2.61,0-5.47.78-8,1.82-6.19,5.1-7.39,14-8.1,4.61-.37,16-1.29,18.22,2.81.82,1.53,7.51-3,1.44-9.7C63.34,20.39,56.89,19,53.16,18.33Z"/><path class="cls-9" d="M37.49,17.52a19.18,19.18,0,0,0-7.68,4.33A18,18,0,0,0,26,26.64a10.91,10.91,0,0,0-1.32,6.3c.14,1.47,1.41,4.58,3.66,3.73-.09-1.43-.32-3-.54-4.38.47.32,2.6,1.74,3.24,1.36s.25-2.41.35-3c2.58,2.73,3.86-1.39,3.66-3.54,1.09.63,1.85,1.82,3,2.36,1.62.77,3.34-.11,5.16-.45a55.63,55.63,0,0,1,7.16-.92c2.47-.13,2.93.17,3.91-2.09a2.3,2.3,0,0,0,1,1.74,2.52,2.52,0,0,0,1.37-2.33c0,2.54,5.68,4,7.6,3.4,3-.93-.39-5.47-2.22-7.27C55.75,15.38,45.58,15.31,37.49,17.52Z"/><path class="cls-12" d="M66.63,54.06c-.92-1.13-2.69-1.18-3.95-1.06-1.64.16-3.76,1-2.1,3.25.88,1.19,7.48,1.43,6.47-1.44A2.28,2.28,0,0,0,66.63,54.06Z"/><path class="cls-12" d="M41.09,54.6c-1-1-2.79-1-4-.81-1.63.24-4.45,1.78-2.1,3.43,1.69,1.2,7.83.8,6.61-1.91A2.61,2.61,0,0,0,41.09,54.6Z"/><path class="cls-8" d="M40.08,46.94c-3.85-1-6.25,3.27-3.63,4.66a8.57,8.57,0,0,1,3.81.19C42.83,50.94,42.93,47.71,40.08,46.94Z"/><path class="cls-11" d="M51.4,53.89c-1,.08-1.84-.38-2.7.16s.3,2,2.84,1.74,3.12-1.69,2.6-2.17S52.46,53.8,51.4,53.89Z"/><path class="cls-12" d="M51,49.37c-1.82,0-3,3.43-2.09,4.48.61.73,4.58.42,5.12-.53C54.23,53,52.73,49.39,51,49.37Z"/><path class="cls-13" d="M39.79,49.2c-1.17.34-.28,2.24.86,1.54C41.47,50.24,40.82,48.9,39.79,49.2Z"/><path class="cls-8" d="M64.53,45.93c-4-.51-5.76,4.07-3,5.1a8.45,8.45,0,0,1,3.79-.32C67.79,49.53,67.46,46.31,64.53,45.93Z"/><path class="cls-13" d="M64.42,48.28c-1.09.49,0,2.26,1,1.42C66.19,49.09,65.39,47.85,64.42,48.28Z"/><path class="cls-14" d="M62.87,59.67c-6.65-1.12-17,.41-23.13.58-.49,0-.88.16-.66.69.93,2.24,4.49,10.49,12.8,10.42,6.95-.06,7.6-4.91,7.95-7.47.18-1.26,2.07-2.78,3.54-3.71C63.85,59.88,63.48,59.77,62.87,59.67Z"/><path class="cls-15" d="M40,61.08a11.06,11.06,0,0,0,10.82,6.49c7.33-.3,8.28-2.66,8.66-4.3A4.83,4.83,0,0,1,62,60.17C49.45,63.18,40,61.08,40,61.08Z"/><path class="cls-16" d="M42.65,61.75a3.37,3.37,0,0,0,2.48,3A19.37,19.37,0,0,0,55.6,65c2.49-.6,4-4,4-4A86.74,86.74,0,0,1,42.65,61.75Z"/><path class="cls-16" d="M52.72,65.06a27.21,27.21,0,0,1-8.06-.77c-1.34-.43-1.37.2-1.14.76,0,0,.36,2.28,6.68,2.6,5.52.27,8-2.68,7.45-3.26S56.2,65,52.72,65.06Z"/><path class="cls-17" d="M42.64,61.72a3,3,0,0,0,.23,1S56.06,61.42,59,62.26A5.41,5.41,0,0,0,59.64,61,101,101,0,0,1,42.64,61.72Z"/><path class="cls-17" d="M45.39,64.29c5.38,2.12,11.5,0,11.5,0A28.35,28.35,0,0,1,45.39,64.29Z"/><path class="cls-18" d="M38.12,45.77c-2.06.48-4.68,2.66-8.07.26,0,0,1.17,4,7.88,1.53,2.73-1,4.25,1.89,4.25,1.89S42.16,44.84,38.12,45.77Z"/><path class="cls-18" d="M64.32,45.21c-3.79-1-4,3.51-4,3.51a3.52,3.52,0,0,1,4.24-1.65c6.07,2.24,7.4-1.5,7.4-1.5C68.64,47.85,66.25,45.7,64.32,45.21Z"/><path class="cls-8" d="M63.24,40.44c-2.65.21-5.23,1.8-4.92,3.11.34,1.46,2.28-.88,4.87-1.5,3.24-.78,5.26.61,5.16.27C68.08,41.33,65.66,40.24,63.24,40.44Z"/><path class="cls-8" d="M38.91,41.06c-3-.28-6.18.65-6.3,1.63-.07.63,2.52-.85,6.49,0,3.18.69,5.4,2.9,5.83,1.5C45.31,43,42.16,41.36,38.91,41.06Z"/></g></g></g></svg>