<svg xmlns="http://www.w3.org/2000/svg" xmlns:xlink="http://www.w3.org/1999/xlink" viewBox="0 0 66 66"><defs><style>.cls-1{fill:none;}.cls-2{clip-path:url(#clip-path);}.cls-3{fill:#ef5649;}.cls-4{fill:#9ab5de;}.cls-5{fill:#3a3a4a;}.cls-6{fill:#f2f2f2;}.cls-7{opacity:0.1;}.cls-8{fill:#b0c6e8;}.cls-9{fill:#f1aa83;}.cls-10{fill:#c9beb7;}.cls-11{fill:#ffb97f;}.cls-12,.cls-16{fill:#bf3c1b;}.cls-12{opacity:0.2;}.cls-13,.cls-19{fill:#b54319;}.cls-13{opacity:0.35;}.cls-14{fill:#f0eae6;}.cls-14,.cls-27{opacity:0.7;}.cls-15{fill:#9e8f88;}.cls-16,.cls-18,.cls-21,.cls-25{opacity:0.3;}.cls-17{fill:#ffcb9e;}.cls-18{fill:#6e2210;}.cls-19{opacity:0.5;}.cls-20{fill:#121b21;}.cls-21{fill:#a67663;}.cls-22{fill:#ffd2ab;}.cls-23{fill:#7d8ba8;}.cls-24{fill:#4f2c1e;}.cls-25,.cls-26,.cls-27{fill:#fff;}.cls-28{fill:#c1c5c9;}</style><clipPath id="clip-path" transform="translate(0)"><circle class="cls-1" cx="33" cy="33" r="33"/></clipPath></defs><g id="Layer_2" data-name="Layer 2"><g id="avatars"><g class="cls-2"><rect class="cls-3" width="66" height="66"/><path class="cls-4" d="M26.63,56.78l-.87-4.56a9.23,9.23,0,0,0-7.21,8.43c-.16,2-.36,5.08-.36,5.35h5.75S24.26,58.05,26.63,56.78Z" transform="translate(0)"/><path class="cls-4" d="M40.36,52.22l-.87,4.56C41.86,58.05,42.18,66,42.18,66h5.75c0-.27-.2-3.36-.36-5.35A9.25,9.25,0,0,0,40.36,52.22Z" transform="translate(0)"/><path class="cls-4" d="M40.49,51.92c-3.67-1.27-10.67-1.76-15,.18-2.39,1.07-2.09,7.76-1.89,13.9H42.49C42.64,59.84,42.8,52.73,40.49,51.92Z" transform="translate(0)"/><path class="cls-5" d="M41,52.06a.83.83,0,0,0-1.6.46c.72,2.48.28,7-.19,11.87L39.08,66h1.67c0-.48.09-1,.13-1.45C41.37,59.56,41.82,54.84,41,52.06Z" transform="translate(0)"/><rect class="cls-6" x="39.75" y="62.16" width="0.83" height="1.95" transform="translate(-23.8 101.97) rotate(-88.8)"/><path class="cls-5" d="M26.7,52.52a.83.83,0,0,0-1.6-.46c-.8,2.78-.35,7.5.14,12.5,0,.47.09,1,.13,1.44H27l-.15-1.6C26.42,59.56,26,55,26.7,52.52Z" transform="translate(0)"/><rect class="cls-6" x="24.98" y="62.72" width="1.95" height="0.83" transform="translate(-1.26 0.53) rotate(-1.15)"/><path class="cls-7" d="M36.68,54.33c-2.26-1.42-11.44-1.78-10.41,2.15A11.26,11.26,0,0,0,30,62.37l3.06-3.5,3.26,3.31a17,17,0,0,0,4-6.56A6.5,6.5,0,0,1,36.68,54.33Z" transform="translate(0)"/><path class="cls-8" d="M26.06,52.9c-1.45,4.65,3.84,8.43,3.84,8.43l3.16-2.46L36,61.19S41.83,57.4,39.62,52C37.64,47.1,27.75,47.5,26.06,52.9Z" transform="translate(0)"/><path class="cls-9" d="M32.93,45.55c-2.57.05-6.17,1.64-6.37,5.65-.09,1.86.2,2.94,1.16,4a15.18,15.18,0,0,0,5.4,3.12A16,16,0,0,0,38.42,55c.93-1.05,1.19-2.14,1-4C39.14,47,35.5,45.5,32.93,45.55Z" transform="translate(0)"/><path class="cls-6" d="M33.07,63.24a.63.63,0,1,0,.63.62A.62.62,0,0,0,33.07,63.24Z" transform="translate(0)"/><path class="cls-10" d="M29.15,8.47C8,10,11.35,39.43,17.39,38.19,21.85,37.27,26.25,36,30.67,35c4.12-1,8.68-.18,12.9.12,3.29.25,3.25-1.15,3.42-3.82.34-5-.21-6.82,0-8.83C48.12,13.87,41.27,7.59,29.15,8.47Z" transform="translate(0)"/><path class="cls-11" d="M29.84,14.73c-7.79,1.47-13.33,12.62-12,23.12,1,7.86,7,16.52,16.18,15.92,9.31-.61,14-12.14,12.86-21.81C45.67,21.45,40.75,12.66,29.84,14.73Z" transform="translate(0)"/><path class="cls-11" d="M15.2,33.46c-3.83,1-2.33,6.62.79,7.76a7.69,7.69,0,0,0,3.08.35l.06-.1c.46-.72-.34-4.43-.56-5.2C18,34.34,17,33,15.2,33.46Z" transform="translate(0)"/><path class="cls-12" d="M43.43,17.71a35.83,35.83,0,0,0-13-2.81c-3.1-.07-7.74-.28-10.24,2-2,1.82-2.17,5.22-2.3,7.74-.05.95-.07,8.26.49,6.68,1-2.86,3.36-3.94,3.3-6.95,4.48,2,11.23,1.88,17.09,1.31,3.69-.35,6.65-1.25,7.37,1.82C46.63,24.8,46.36,18.89,43.43,17.71Z" transform="translate(0)"/><path class="cls-13" d="M16.53,35.52c-.86-.4-3,.3-2,2,.54-1.55,1.48-.53,1.33.58-.1.74-.9.74-.11,1.7.43.52,1.29.33,1.73.06C18.87,39,17.57,36,16.53,35.52Z" transform="translate(0)"/><path class="cls-10" d="M50.85,10.58c-5,4-13.05-4.82-24.37-1.44-15.49,4.62-9.73,21-9.66,23a9.72,9.72,0,0,0,1.58,4.5,3.6,3.6,0,0,0,2.08,0c-1.39-1.3-1.93-4.83-.8-8.13.63-1.83,1.55-3.12,1.35-5.61,1.35,1.24,11.08,3.1,23.24.56a11.6,11.6,0,0,0,7.52-5.09,28.1,28.1,0,0,0-3,.34C50.59,16.87,50.82,13.24,50.85,10.58Z" transform="translate(0)"/><path class="cls-14" d="M38.06,10.16C32.51,8.6,24,8.44,19.68,13s-.61,8.47,14.2,8.3c13.52-.16,16.34-9.7,16.34-9.7C46.17,13.48,43.6,11.73,38.06,10.16Z" transform="translate(0)"/><path class="cls-15" d="M16.05,33.37c1.34.09,1.51,2.7,2.48,3.37a3.4,3.4,0,0,0,1.95-.09c-1-1.48-1.25-5.25-1.26-6.3C18.49,31.91,14.82,33.29,16.05,33.37Z" transform="translate(0)"/><path class="cls-14" d="M15.29,18.77a14.33,14.33,0,0,0-1.08,3.85c-.21,1.59-.35,3.83.83,5.11a2.45,2.45,0,0,0,4.13-1.06C20.82,21.74,15.29,18.77,15.29,18.77Z" transform="translate(0)"/><path class="cls-7" d="M25.17,52.67c1.57,5.89,14.41,7.46,17.16.88C44.38,48.66,24,48.15,25.17,52.67Z" transform="translate(0)"/><path class="cls-10" d="M46.77,30.8c.75,16-4.24,10-4.24,10L41,41.37c.56,3.89-3.49,5.53-4.15,2.92l-3.79.2c-1,3.84-5.07-.41-5-2.71s-1.84-.57-1.84-.57c-2.52,2.46-5.95-3.66-6.26-5l-1.93-.14s.08,21.57,18.64,19.84C52.57,54.45,47.06,30,47.06,30Z" transform="translate(0)"/><path class="cls-16" d="M30.34,43.45c1.21,3,7.52,2.82,8.45.39C36.65,44.6,32,45,30.34,43.45Z" transform="translate(0)"/><path class="cls-17" d="M36.07,41.9a19,19,0,0,1-4.75-.25,1.19,1.19,0,0,0-1.19,2c1.28,1.46,3.74,1.4,5.36,1.32,1.28-.08,3.95-.35,4.16-2.42C39.83,40.77,36.82,41.84,36.07,41.9Z" transform="translate(0)"/><path class="cls-18" d="M25.85,41.45C31,44,40.26,43.76,43.53,40.91,39.43,41.71,29.87,42.27,25.85,41.45Z" transform="translate(0)"/><path class="cls-19" d="M23.47,33.87c0,.63,1.47.32,1.9.43-.37.38-1.49.38-1.95.65s-.43.47.15.46a10.81,10.81,0,0,0,2.54-.68C27.16,33.84,24,33.74,23.47,33.87Z" transform="translate(0)"/><path class="cls-19" d="M45.5,34.4c-.35-.27-1.29-.29-1.56-.68.37-.09,1.53.23,1.64-.39-.4-.14-3.09-.09-2.3.81a7.5,7.5,0,0,0,2.06.71C45.82,34.87,45.88,34.69,45.5,34.4Z" transform="translate(0)"/><path class="cls-20" d="M27.31,31.17c-2-.88-3.28,2.67-1.92,3.84a2.91,2.91,0,0,1,2,.18C28.72,34.5,28.8,31.82,27.31,31.17Z" transform="translate(0)"/><path class="cls-10" d="M35.49,37.69l-1.52,0a9.87,9.87,0,0,0-5.21,1.11c-.78.38-2.93,1.77-3.31,2.58a32.91,32.91,0,0,0,15.85.44A6.55,6.55,0,0,0,44,40.72c-1.85-1.48-4.49-3.14-6.95-3.21A6,6,0,0,0,35.49,37.69Z" transform="translate(0)"/><path class="cls-21" d="M35.45,37c-1,0-1.43-.32-2.11,0s.31,1.61,2.09,1.54S38,37.26,37.6,36.92,36.57,37,35.45,37Z" transform="translate(0)"/><path class="cls-22" d="M34.82,31.36c-.87.05-1,2.42-1.34,3.53s-.5,2.18,0,2.51c1.15.81,3.5.3,4.17-.32.27-.24-.37-1.39-.88-2.54S35.81,31.31,34.82,31.36Z" transform="translate(0)"/><path class="cls-20" d="M43.43,31.1c-2-1.1-3.66,3.24-1.39,3.79a2.58,2.58,0,0,1,1.74-.49C44.54,33.48,44.53,31.69,43.43,31.1Z" transform="translate(0)"/><path class="cls-23" d="M26.73,31.67c-.81.27-.2,1.86.59,1.29C27.9,32.54,27.46,31.43,26.73,31.67Z" transform="translate(0)"/><path class="cls-23" d="M42.92,31.65c-.78.2-.33,1.71.45,1.24C43.94,32.56,43.61,31.48,42.92,31.65Z" transform="translate(0)"/><path class="cls-24" d="M41.66,26.83c-1.8.06-3.15,0-3.15,0,0,.85.39,2.58,1.75,2.41.82-.11,1.65-.33,2.46-.37a10.29,10.29,0,0,1,3,.27.52.52,0,0,0,.54-.81A6,6,0,0,0,41.66,26.83Z" transform="translate(0)"/><path class="cls-24" d="M27.28,27.06a6.63,6.63,0,0,0-5,1.73c-.24.2,0,1,.69.79a13,13,0,0,1,3.34-.4c.91,0,1.87.21,2.8.28,1.54.12,1.79-1.64,1.68-2.5C30.79,26.91,29.3,27.05,27.28,27.06Z" transform="translate(0)"/><path class="cls-22" d="M45.67,36.43a3.24,3.24,0,0,0-3-.76c-1.22.17-2.77.9-1.48,2.66.69.94,5.6,1,4.77-1.3A2,2,0,0,0,45.67,36.43Z" transform="translate(0)"/><path class="cls-22" d="M27.77,36.56a3.24,3.24,0,0,0-3.13-.71c-1.27.23-2.88,1.08-1.46,3,.75,1,5.9.86,5-1.6A2.26,2.26,0,0,0,27.77,36.56Z" transform="translate(0)"/><path class="cls-14" d="M37.27,38.65a5.08,5.08,0,0,1-2.49.67c-.59,0-2.17-.79-3.08-.69a10.55,10.55,0,0,0-3.61,1.87c4.5,1,10.3,1.31,13.56-.39C40.57,39.21,38.45,38.11,37.27,38.65Z" transform="translate(0)"/><path class="cls-14" d="M42.53,46.38c-1.35-1.63-2.79-.22-2.73,1.5-2-2.8-5.63-.9-5.79.94-1.14-3.11-4.28-2.9-4.06-.75-.49-1.86-3.12-4.28-5.12-3.93-3.48.61-.51,5.16.66,6.73C29.71,56.5,46.87,55.94,45.66,45,45.35,42.22,42.13,42.9,42.53,46.38Z" transform="translate(0)"/><path class="cls-21" d="M41.73,31.08c.82-.06,1.66-.07,2.49-.08a5.93,5.93,0,0,0,2.1-.18c.87-.36.69-1.57.16-2.18s-1.38-.43-2.13-.35a18.82,18.82,0,0,0-2.89.52,17.16,17.16,0,0,0-3.67,1,4.45,4.45,0,0,1-2.7.81c-2.26-.08-4.18-1.48-6.44-1.7a18.94,18.94,0,0,0-7.08.16c-.6.17-2.42.87-1.19,1.51s3,.41,4.33.45c.6,0,1.22,0,1.82.09,2.16.18,5.46-.13,5.31,2.55-.11,1.85-1.29,3.75-2.78,4.1a19.59,19.59,0,0,1-4.43.49,7.59,7.59,0,0,1-3.21-.68c-.29-.13-1.15-.67-1.43-.28-.47.66,1.29,1.75,1.75,2A10.59,10.59,0,0,0,25,40c2.8.28,5.69.12,7.26-2.47.91-1.5,1.36-3.26,2.2-4.8,1.38-2.52,2,.91,2.36,2.41a8,8,0,0,0,1,2.37,5.35,5.35,0,0,0,4,2.08,17,17,0,0,0,4.49-.48c.5-.21.76-1,.17-1.29a30.54,30.54,0,0,0-3.25.32,10.15,10.15,0,0,1-1.65-.17,4.75,4.75,0,0,1-2-.92,4.15,4.15,0,0,1-1-1.19,3.91,3.91,0,0,1-.15-3.16C39,31.25,40.49,31.17,41.73,31.08Z" transform="translate(0)"/><path class="cls-5" d="M19.14,28.84c-1.85.18-3.46-.23-3.87.17s.56,2.1.56,2.1a3.25,3.25,0,0,0,1.49.4c.2,1.27.35,4.59,2.84,6.53,2.08,1.62,8.54,1.71,10.47.58a7.76,7.76,0,0,0,3.59-6.09C34.93,26.87,21.74,28.59,19.14,28.84ZM30.67,37.1c-2.34,1.74-8.64,1.4-10.39-.5-1.35-1.47-1.79-4.69-1.05-5.2,2.25-1.56,11.08-1.59,13.22-.17C33.48,31.92,32.44,35.79,30.67,37.1Z" transform="translate(0)"/><path class="cls-5" d="M49.29,28.21C47,28.08,35.61,27,36.39,32.59c.32,2.29,1.17,4.63,3.28,5.92,1.7,1,7.26.65,9-1.06,2.09-2.05,2.12-5.38,2.25-6.66a2.61,2.61,0,0,0,1.27-.46s.9-1.64.43-2.13S50.88,28.3,49.29,28.21ZM48.54,36c-1.46,2-6.88,2.61-8.95,1C38,35.77,37,32,37.88,31.21c1.8-1.51,9.42-1.89,11.4-.44C49.93,31.25,49.66,34.48,48.54,36Z" transform="translate(0)"/><path class="cls-25" d="M39.39,30.8c-1.27.49,1,1.31,1.43,1.41a16,16,0,0,0,5.41.1c1-.13,3-.91,2.48-1.49C47.94,30,40.8,30.26,39.39,30.8Z" transform="translate(0)"/><path class="cls-26" d="M45,30.79c-.69.08-1.14.26-1,.59.33.65,4.32.51,4.62.05S46.43,30.64,45,30.79Z" transform="translate(0)"/><path class="cls-27" d="M40.57,35.58c-.43,0-.73.06-.66.34.13.55,2.6.95,2.83.62S41.47,35.63,40.57,35.58Z" transform="translate(0)"/><path class="cls-27" d="M21.68,36c-.47,0-.8,0-.73.32.12.56,2.82,1,3.09.73S22.68,36.14,21.68,36Z" transform="translate(0)"/><path class="cls-25" d="M31.45,31c-1.69-.47-9.93-.55-10.72.23-.57.55,1.91,1.25,3,1.35A22.38,22.38,0,0,0,30,32.33C30.51,32.22,33,31.4,31.45,31Z" transform="translate(0)"/><path class="cls-26" d="M27.85,30.72c-.75.08-1.25.26-1.07.59.37.65,4.78.51,5.1.05S29.46,30.57,27.85,30.72Z" transform="translate(0)"/><path class="cls-5" d="M38.13,29.29a10,10,0,0,1-5.88.1c-1.85-.5,1,1.11,1.19,2s0,4,.58,2.26,1.78-1.78,2.52-.2.9-2.53,1.22-2.91S39.86,28.77,38.13,29.29Z" transform="translate(0)"/><path class="cls-28" d="M20,29.33c5-.07,9-.19,12.09.78C30.06,28.62,26.66,28.49,20,29.33Z" transform="translate(0)"/><path class="cls-28" d="M38.66,29.84c2.59-1.1,5.84-.82,10.2-1.22C43,28.5,40.31,28.39,38.66,29.84Z" transform="translate(0)"/></g></g></g></svg>