<svg xmlns="http://www.w3.org/2000/svg" xmlns:xlink="http://www.w3.org/1999/xlink" viewBox="0 0 96 96"><defs><style>.cls-1{fill:none;}.cls-2{clip-path:url(#clip-path);}.cls-3{fill:#fff;}.cls-4{fill:#d47844;}.cls-5{fill:#bf6430;}.cls-6{fill:#e0e0e0;}.cls-7{fill:#f2f2f2;}.cls-8{fill:#301e18;}.cls-9{fill:#fff9f0;}.cls-10,.cls-11{fill:#661004;}.cls-10{opacity:0.2;}.cls-11,.cls-23{opacity:0.3;}.cls-12{fill:#472c23;}.cls-13{fill:#d4502c;}.cls-14{fill:#1f1a17;}.cls-15{fill:#a89191;}.cls-16{fill:#eda264;}.cls-17{fill:#611f16;opacity:0.8;}.cls-18{opacity:0.4;}.cls-19{fill:#c21f22;}.cls-20{fill:#d62325;}.cls-21{fill:#ff4044;}.cls-22{fill:#ea3336;}.cls-23{fill:#5e0900;}.cls-24{fill:#b01518;}.cls-25{fill:#f73e40;}.cls-26{fill:#f3373b;}</style><clipPath id="clip-path"><circle class="cls-1" cx="48" cy="48" r="48"/></clipPath></defs><g id="Layer_2" data-name="Layer 2"><g id="Layer_4" data-name="Layer 4"><g class="cls-2"><rect class="cls-3" width="96" height="96"/><path class="cls-4" d="M56,77.92l1.36,6.46c.56,1.86-.59,7.1.57,11.62h5.73C61.09,91.15,64.49,81,56,77.92Z"/><path class="cls-4" d="M39.94,84.38l1.35-6.46C32.8,81,36.19,91.15,33.64,96h5.73C40.52,91.48,39.38,86.24,39.94,84.38Z"/><path class="cls-4" d="M58,92.59c.54-1.89-4.4-3-9.33-3.2-4.92.15-9.86,1.31-9.32,3.2.4,1.41.86,2.45,1.21,3.41H56.81C57.16,95,57.62,94,58,92.59Z"/><path class="cls-5" d="M39.7,93.55c.71,2.35,17.12,2.31,18-.18C59.37,89,38.51,89.65,39.7,93.55Z"/><path class="cls-4" d="M54.53,77.23c-3.6-1.25-1.35-6.47-6.26-6.47S46,75.68,42.2,77.34s-5,8.78-3.47,12c2.63,5.65,15.05,6.46,19.43,1.08C60.71,87.23,60.5,79.3,54.53,77.23Z"/><path class="cls-6" d="M56,77.66a1.18,1.18,0,0,0-.8-.32c1.1,6.9.59,9.94-6.74,9.94s-7.6-3-5.93-10.19a3.46,3.46,0,0,0-1,.5c-1.57,6.49-3.25,6-3.69,9.54a7.4,7.4,0,0,0,1.47,5.78c1.89,2.33,17.24,2.09,18.73,0a7.36,7.36,0,0,0,1.56-5.35C59.26,84.72,56.9,85,56,77.66Z"/><path class="cls-7" d="M55.05,86.76c-1.65-.22-3.1.76-5.69.88-4.22.19-5.74-1.08-7.26-1-2,0-3.93,2.13-1.87,3.58C43.65,92.56,55,92,57,90.19,58.29,89,57.53,87.08,55.05,86.76Z"/><path class="cls-5" d="M44.22,75.16c-.64,3.38,9.13,3.54,8.66.54S44.86,71.79,44.22,75.16Z"/><path class="cls-8" d="M56,64.52c.83-3,2.43-7.94,6.42-8.08,2.58-.09,3.44,2.83,5.78,3.33s5.18-1.09,5-3.28c2.66-.62,2.81-4.25,2-6.3C78,48.85,77.44,45,75.08,43a5.36,5.36,0,0,0,.43-.33c2.17-1.9.4-3.86-.42-6-1-2.48-.62-6-1.14-8.74-.4-2.09-2.06-4.67-1.45-6.79S75,18,75,15.69c.06-3.25-4.86-5.42-8-3.49,3.38-4.86-3.6-8-6.86-4.18C61.3,1,51.55.5,50.3,6c-.66-6.09-10.23-6-10.78,0C35.26.5,26.1,5.54,28.08,10.84,23,8.47,17.71,14.11,22.78,19c-7.72-1.52-6.69,8.46-1.27,7.64-.83,1.37-.77.81-.8,2.37s.74,6.36.21,8c-.44,1.36-2,3.73-.61,5.19-2.69-1.51-8.53,2.48-4.71,7.26-3.87-.66-6.39,5.84-1.91,7.76-4.82,1.92-1.62,9.25,3,7.91-.41,2.12-1.19,4.25.61,6.07a4.84,4.84,0,0,0,5.95.64c-.09,3,6.25,4.08,7.39,1.64.74,2.75,6.17,4.1,7.87,1.63.75,0,1.22.55,2,.61a5.19,5.19,0,0,0,4.29-2.3c.7-1.17.66-2.67,1.62-3.56,1.75-1.61,4-.69,6-1.24S55.4,66.52,56,64.52Z"/><path class="cls-9" d="M68.78,55.7a1.84,1.84,0,1,0,1.83-1.83A1.83,1.83,0,0,0,68.78,55.7Z"/><path class="cls-4" d="M71.43,47.52c.22-15.67-8.45-23.91-20-24.06S28.53,31.07,27.8,46.93,37.94,74.88,49.33,76.39C58.08,77.55,71.21,63.4,71.43,47.52Z"/><path class="cls-4" d="M24.29,50.77a9.09,9.09,0,0,0,3.88.7,1.47,1.47,0,0,1,.1-.13c.7-.94.26-6,.08-7.09-.43-2.66-1.44-4.58-3.86-4C19.45,41.34,20.5,49,24.29,50.77Z"/><path class="cls-10" d="M32.14,41.09c-.3,0-.69,4.12-3.06,2-1-.85-1.18-3.21-1.22-4.41-.16-4.67,3.86-7.79,6.64-11,2.91-3.37,7.5-4.47,11.77-4.82a57.51,57.51,0,0,1,18.61,1.67c2.19.55,5.24,1,6.85,2.73s.45,5.46.56,7.72,1.42,5.4-.71,7c-1.77,1.33-4.08.1-5.69-.82a3.7,3.7,0,0,1-4.43-.32c-.69-.57-1.59-2.18-2.76-1.72s-.07,2.53-1,3.62c-2,2.51-5.47,1.35-7.24-.7-1.39-1.61-.19-1-2.44-1.44a5.31,5.31,0,0,1-3.85-2.45c-1.8,1.9-6.48,3.05-8.47.88A4.39,4.39,0,0,1,32.14,41.09Z"/><path class="cls-11" d="M27,49.41c2.35-.71,1.26-5.17-.17-6.19-1.18-.82-4.61-.59-3.59,2,1.26-1.93,2.38-.22,1.83,1.23-.36,1-1.56.71-.65,2.28C24.87,49.6,26.22,49.64,27,49.41Z"/><path class="cls-8" d="M62,37.23c1.23,2.47,2.5,3.85,5.08,2a1.8,1.8,0,0,0,2.81,1c3.65-1.9,2.89-9,2.19-12.24C70.55,21,64.6,17.65,57.89,16.1c-2.35-.54-4.5-1.54-6.94-1.83a27,27,0,0,0-12,1.65c-5.71,2-10,7.77-12.36,13.11a21.85,21.85,0,0,0-2.09,10.11c.24,3.2,3.95,4.31,4.08,6.9.07,1.5-1.4,2.79-2.69,1.67-2,3.92,8.12,5.23,6.79-.91-.1-.45-1.72-6.27-2.1-6.24,2.36-.2,3.33-1.64,4.05-3.69,3.6,3.77,6.89,1.33,9.38-2.16.47,2.33,4,4.87,6.29,3.26.29,2.93,1.91,4.88,4.89,5a4.87,4.87,0,0,0,3.12-.75,9.44,9.44,0,0,0,1.17-2.52c-.92.62-3-.22-2.15-1.47C57.91,37.37,60.87,37.7,62,37.23Z"/><path class="cls-12" d="M68.3,32.13a4.87,4.87,0,0,0-2.44-2.35c-1.29-.63-2,.1-3.42.29a11,11,0,0,1-3.83-.31,16.49,16.49,0,0,1-2.82-1.2,4.48,4.48,0,0,0-3.33-.15,62.53,62.53,0,0,0-7.54,1.77c-2.2.72-5.94,2.11-6.9,4.44-.69,1.66.7,2.08,2,1.35s1.87-2.25,3.07-3.08c2.73,2.59,5.23,3.41,8.48,1.06.08,1.68.88,4.56,3.1,4.35-.58-2.42,3.82-3.87,5.6-4,2-.14,1.57,1.53,3.2,2.42a3,3,0,0,0,3.74-.66A3.57,3.57,0,0,0,68.3,32.13Z"/><path class="cls-8" d="M34.48,43c-.07-.86,2.74-2.13,5.55-2.35,3.06-.23,6.28.69,6.14,1.82s-2.63-.29-5.7-.41C36.63,41.89,34.52,43.54,34.48,43Z"/><path class="cls-8" d="M71.05,44.49c.11-.85-2.12-2.21-4.43-2.51-2.51-.32-5.23.49-5.18,1.61s2.19-.2,4.73-.22C69.35,43.34,71,45.05,71.05,44.49Z"/><path class="cls-13" d="M69.71,55.11a3,3,0,0,1,.17,1c0,3.68-7.35,1-7.87-.68-1-3.19,1.76-3.4,3.68-3C67.15,52.78,69.12,53.48,69.71,55.11Z"/><path class="cls-13" d="M41.18,51.35a3.31,3.31,0,0,1,.71.91c1.88,3.53-6.79,4.53-8.18,3.15-2.63-2.59,0-4.11,2.09-4.65C37.42,50.36,39.75,50.07,41.18,51.35Z"/><path class="cls-14" d="M40.79,50.41A4.15,4.15,0,0,0,38,49.63c-1.63-2,1.13-6.73,3.74-5C43.71,46,42.89,49.79,40.79,50.41Z"/><path class="cls-11" d="M56.13,54.88c-.53-.52-1.22,0-2.55-.1s-1.69-.54-2.51-.2.29,2,2.41,2.09S56.59,55.34,56.13,54.88Z"/><path class="cls-14" d="M67.65,46c1.55,1.1,1.23,3.84-.09,5.1a3.93,3.93,0,0,0-2.72.45C61.52,50.34,64.77,44,67.65,46Z"/><path class="cls-15" d="M40.73,47.45c1.09-.15,1.42,1.55.5,2C39.94,50,39.5,47.62,40.73,47.45Z"/><path class="cls-15" d="M66.38,48.46c1.08,0,1.13,1.74.16,2C65.2,50.87,65.16,48.44,66.38,48.46Z"/><path class="cls-14" d="M32.9,44.78a5.42,5.42,0,0,0,6.71,1.44l-.19-1.58S36.09,47.22,32.9,44.78Z"/><path class="cls-14" d="M74.19,48.09a5.44,5.44,0,0,1-6.86-.34l.6-1.49S70.48,49.62,74.19,48.09Z"/><path class="cls-16" d="M56.23,53c-2.59-4.32-9.26,2.31-2.65,2.66C55.5,55.72,57.71,55.44,56.23,53Z"/><path class="cls-17" d="M64.58,59.55a2.64,2.64,0,0,1-3.42-1.37,2.34,2.34,0,0,0,.27,2.26,9.89,9.89,0,0,1-10.08,5.42,10.06,10.06,0,0,1-8.72-6.42,2.2,2.2,0,0,0,.18-2.31,2.36,2.36,0,0,1-3.33,1.13,2.4,2.4,0,0,0,1.72,1.65,11.65,11.65,0,0,0,9.7,7.4l.41,0A11.26,11.26,0,0,0,62.86,61.1,2,2,0,0,0,64.58,59.55Z"/><path class="cls-12" d="M16.93,50c-4.86.69-5.61,4.38-1.24,6.92-3.39.82-5,5.4-.22,5.77-.49-3.28,5-6.67,8-4.61.16-1.91.88-4.8,2.45-6-2.55.78-4.86-2.26-5.57-4.25-.6-1.72.13-6.39-3.19-4.8C14.36,44.45,15.57,48.53,16.93,50Z"/><path class="cls-18" d="M38.64,16.39l0,0c-5.58-.06-12.17,1.81-15.29,7.18-2.13,3.65-1.14,10.92,1.75,13.73s4.75-.7,7.12-2.18a53,53,0,0,1,10.22-5.3A61.44,61.44,0,0,1,54,27a5.26,5.26,0,0,0,1.08-.45c1.9,2.55,5.51,2.26,8.18,1.73,2.05-.41,1.71-.43,3.5,1.07,1.11.93,3.24,3.2,4.69,3.41,2.46.37,3.14-6.44,2.55-8-1.09-2.82-5.4-4.91-8-6.19-4.84-2.39-10-2.28-14.85-4.62a23.17,23.17,0,0,0-6.62-1.67C42,11.85,39.7,11,37.09,10.7,37.84,12.92,36.91,14.43,38.64,16.39Z"/><path class="cls-19" d="M21.43,44.6c3.1-4.89,9.42-10.85,18.47-14.75,9.25-4,22.46-4.72,23.36-8.2s-11.17-3-18-3.65c-18.95-1.92-25.4,7.35-25.48,9.93-.08,2.35.28,7.48-.15,15.85C19.54,45.45,20.63,45.84,21.43,44.6Z"/><path class="cls-20" d="M54.38,25c-4.54,1.62-9.43,1.51-13.87,3.22-3.59,1.39-12.39,8.64-14,2.41-1.23-4.7,2.2-9.84,6.5-11.1a32,32,0,0,1,12.11-1.11c1.85.16,13.77.67,11.75,4.29a3.31,3.31,0,0,1-.58.77Z"/><path class="cls-21" d="M42.26,22.16s1.61-.35,2.23.79-1,2-1.2.84A2.49,2.49,0,0,0,42.26,22.16Z"/><path class="cls-21" d="M46.32,22.22c4.77,4-4.73,6.83-5.32,2.86s-5.72-4.29-7.08-3.78A10.39,10.39,0,0,1,46.32,22.22Zm-4,1.94c.4.36-1.37,1.29-.29,1.61.57.18.69-1,1.35-.63s-.15,1.37.85,1.37c.2-.64-.27-2.06.89-1.37.18.11.45.77.71.54s-.44-.82-.45-1.06c0-1,1.31.23,1.59-.32s-.78-.35-.91-.41c-.6-.27-.14-.07,0-.59,0-.16.17-.3.21-.44-.23-.14-.69.16-.91.21.06-.3.53-1.16,0-1.3-.32-.08-.44.42-.71.41-.88,0-.18-.5-.34-.88-.38-.88-.54,0-.82.11-.83.29-.26-.29-.47-.69-.34-.64-.49-.18-.86,0-.14.09,0,.41-.36.34s0-.41-.11-.56.14-.34-.25-.38-.19.34-.39.44-.12.43-.46.21,0-.53-.09-.63c-.41-.3-.61.14-.7.57-.59-.35,0-.92-.86-.41-.18.1.13.4-.25.44-.18,0-.35-.43-.61-.46a.64.64,0,0,0-.73.37c.17,0,.36.21.55.22-.07.05-.15.2-.24.26.58.68,1.22-.49,1.87,0-1.23,1.34.91.42,1.13.78s-.62.34-.24.8,1-.3,1.39.06c.52.5-.55.58-.67.85-.39.86.66.36.92.4A.66.66,0,0,1,42.35,24.16Z"/><path class="cls-19" d="M74.36,34.84C72.65,32.31,65.71,26,57.2,24.73s-3-5.5,2.88-5.15S74.61,22,75.55,24s.2,7.7.64,10.1C76.38,35.07,75.25,36.15,74.36,34.84Z"/><path class="cls-22" d="M73.19,32.85a1.94,1.94,0,0,1-.31-.44c-.44-.83-.22-1.81-.8-2.66a18.91,18.91,0,0,1-1.44-3.44c.69-.59,3.7-4.11,4.72-2.44-.43,0-1.09-.25-1.06.39,0,.26,1.06.95.38,1.07-.4.06-.93-1.12-1.24-.49s.69.66.74,1.08c.13.9-.63.08-.86,0s-1.2-.51-.77.35c.11.21,1.57.69.87,1-.48.2-.93-.79-1.44-.36s.34,1.09.83,1.16c.26,0,1.18-.44,1.06.27s-.91.05-1.15.39c-.77,1.05,2,.23,1.77,1.23-.15.75-.94-.06-1.31.19-.62.41.15,1.1.63,1.25s1.28-.26,1.19.53-1-.12-1.38.2.9,1.71,1.22,2A11.46,11.46,0,0,1,73.19,32.85Z"/><path class="cls-23" d="M64.44,26c1.88.84,4.67,4,6.64,4,1.78,0-1-1.7-.92-2.59.16-1.73,4.1-.62,4.6-2.51.73-2.74-7.57-3.24-9.15-3.32-2.58-.13-4.53,1.16-2.84,3.7Z"/><path class="cls-23" d="M54.86,24.92a16.67,16.67,0,0,1-2.34,0,46.56,46.56,0,0,0-5.89.55c-1.17.18-3.46.78-4.59.09-1.56-1,.74-1.72,1.38-2.72.23-.35-3.71-1-4-1.05-.78-.11-2.58-.22-3.17-.72-1.84-1.53,3.12-1.68,3.89-1.76a41,41,0,0,1,7.35-.1c1.62.1,11.93,1.73,8.54,5.19A2,2,0,0,1,54.86,24.92Z"/><path class="cls-20" d="M58.68,17.64c-2.81-3.14-2.75-6-7.18-7.54-4.23-1.5-8.78.39-13.14,0C41.58,19.66,47,24.67,56.61,21.89c1.38-.4,2.72-.81,4.14-1.08Z"/><path class="cls-24" d="M56,18.92c-.37-2.73-3.57-5.16-6.25-5.47.86,1.24,2.81,2.75,3,4.27-1,.19-3-1.28-4-1.66-1.39-.55-2.75-1.15-4.1-1.81A10.83,10.83,0,0,0,55.72,22c.78-.08,1.94-.23,2.41-.91Z"/><path class="cls-20" d="M69.29,13.53c2.45-.75,8,1.5,10.42,1.52-1.65,4.93-5.5,9.8-10,10.91-3.84.93-6.48-3-10.2-3.95A15.83,15.83,0,0,1,69.29,13.53Z"/><path class="cls-24" d="M65.56,20.34c2.79-.48,5-2.64,7.8-3.09-.71,2.27-2.79,2.68-3.86,4.42.59.25,1.29.18,1.82.52-2.06,1.68-9.71,2.85-7.93-1.72Z"/><path class="cls-20" d="M67.22,21.21c-.59,2.86-2.15,6.64-5.57,6.37-2.75-.22-6.43-1.2-6.57-4.38-.07-1.49.5-6.08,1.51-7.27,1.44-1.69,5.55-.1,7.27.42C66.32,17.09,67.76,18.56,67.22,21.21Z"/><path class="cls-25" d="M58,16.37c1.59-.81,3.31-.12,5,0l1.59.45c2.25.65,3,4.25,1.77,6,0,0-.13,0-.12,0,.09-1,1-2.61-.08-3.31-.15.16-.63,2.57-1.13,1.54s.92-1.91-.36-2.83c-.45.5-.06,3.19-1.27,2.65s.67-2.4-.59-3.13c-.22.52-.65,4.77-1.87,3.67-.45-.42,1.21-4.57-.23-3.87-.75.37-.95,4.48-1.68,1.14-.11-.49-.14-1-.22-1.51a3.73,3.73,0,0,0-.41.08c.32,1.48-.65,2.48-1,.57-.38.52-.55,1.17-.93,1.65C57.14,18.19,56.53,17.13,58,16.37Z"/><path class="cls-25" d="M55.6,14.76c-1.22-2.39-2-3.78-4.67-4.47s-5.43,0-8.2.16a10.66,10.66,0,0,0-3.48.34,10.79,10.79,0,0,0,1.93,3.75c.54-1-1.21-2.09-1.14-2.28.37-1,1.17-.11,1.84.19-.33-.42-.25-.77-.32-1.24.66.27,1,.77,1.74.79-.26-.66-.18-1,.45-1s.73.95,1.39.95c.21,0-.18-1,.52-1s.28,1.11,1.14.88c.15,0,.32-1.15.36-1.37.94.46.12,1.44,1.39,1.67l.06,0a1.6,1.6,0,0,1,.27-1.38c.66.4.28,1.24.53,1.46,1.26,1.15.54-.29.94-.51.59-.31.29-1,1.14,0,.37.42-.89,1.24.4,1.37,0-.42.34-.86.4-1.21,1.32.36.1,1.2.65,1.74s.76-.17.64-.72A25.2,25.2,0,0,1,56.05,16Z"/><path class="cls-25" d="M65.19,16.33C66.84,15.15,67.87,14,70,14.05s4.08.9,6.14,1.18a16.25,16.25,0,0,1,2.69.36c-.15,1.78-1.66,3.26-2.66,4.63A5.75,5.75,0,0,1,76.47,18s1.62-1.45,1.33-1.39a8,8,0,0,0-1.2.79c-1.36-.37.35-.92-.09-1.22-.88-.59-1.87.68-2.85.35.47-.69.33-1.21-.49-1.24-.58,0-1.17,1.29-1.83,1-1.09-.42.36-1.21.1-1.49-1-1-1.48,1.66-2.7,1.17.46-.36.48-.77.64-1.21-.95,0-1.48.82-2.27,1.16C66.6,16.16,65.57,16.06,65.19,16.33Z"/><path class="cls-24" d="M66,23.87c-1.09,3.15-6.4.94-8.38-.21a4.4,4.4,0,0,1-1.89-1.78c-1.18,4.6,6.69,6.84,9.54,3.71a5.34,5.34,0,0,0,1.2-2.34Z"/><path class="cls-21" d="M34.47,31.92c.18-.32.43-1.07.78-1.23s.77.19,1,0c1.49-.87-.37-.69-.58-.88-1-.85.55-.89,1.08-1,1.1-.21,1.2-.35.28-1-.21-.14-1,.23-.84-.4s.87-.19,1.2-.28c1.18-.31,1.66-2.06.23-1.62-.78.24-.75,1.83-1.46.18-.13-.3.43-1-.4-1.11s-.42.81-1,.95c-1.64.42.25-2.07-1-2-.71,0-1.74,2.67-1.77.24,0-.25.3-.61.47-.77-1.24-1.14-1,.58-1.89.66-1.07.1-.72-1-.33-1.43-.91-1.15-2.39,2.15-2.5-.19,0,0,.6-1.17,0-1.06,1.81-.33,5.48,1.76,7.19,2.5l5,2.15-1.92,3.12C37,30.6,36.56,31.23,34.47,31.92Z"/><path class="cls-21" d="M32.33,29.71s-1-1.82-2.68-1.45-1.16,2.62.18,1.85A3.39,3.39,0,0,1,32.33,29.71Z"/><path class="cls-21" d="M57,20.55s-.87,1.73.37,2.66,2.75-.67,1.37-1.16A2.84,2.84,0,0,1,57,20.55Z"/><path class="cls-21" d="M63.19,23.84s1.54.47,2.22-.59-.79-2-1.1-.91A2.36,2.36,0,0,1,63.19,23.84Z"/><path class="cls-21" d="M47.76,14s-.68-1.43-1.95-1.24-1,1.92,0,1.41A2.55,2.55,0,0,1,47.76,14Z"/><path class="cls-21" d="M72.24,22s1.28.22,1.72-.69-.83-1.55-1-.63A1.9,1.9,0,0,1,72.24,22Z"/><path class="cls-26" d="M21.43,29.47s2.23.71,3.26-.81-1.1-3-1.58-1.36A3.55,3.55,0,0,1,21.43,29.47Z"/><path class="cls-26" d="M23.63,33.86s-1.49,1.2-.85,2.59,2.6.59,1.67-.47A2.89,2.89,0,0,1,23.63,33.86Z"/><path class="cls-21" d="M48.6,19.93l-2.36-2.34s-1.05,1.31.11,2A2.79,2.79,0,0,0,48.6,19.93Z"/><path class="cls-21" d="M68.21,19.16,71,17.82s-.86-1.32-1.85-.52A2.51,2.51,0,0,0,68.21,19.16Z"/><path class="cls-25" d="M38.47,18.46s-10.76.05-16.18,6.22c0,0,.26,1.41,2.86-.63A32.52,32.52,0,0,1,38.47,18.46Z"/><path class="cls-12" d="M20.08,25.65c-4.67-1.11-1.31-7.68,4.34-6-6.62-6.16,1.5-9.63,5.33-7.47C26.06,7.29,35.12,1.43,40,7.38c0-7.32,9.91-6.16,10.23.14,2.6-7,9.52-4.66,9.48,2,4.56-5.36,9.72-1.26,6.4,3.48s-1.93.88-8,1.26c0,0-2.75-5.88-9.33-6.18A33.48,33.48,0,0,0,37.2,9.65,24.58,24.58,0,0,0,37.53,14c.35,1.27-.74,2.71-3.22,2.8A16.37,16.37,0,0,0,20.08,25.65Z"/><path class="cls-9" d="M23.72,54.05a1.83,1.83,0,1,0,1.83-1.83A1.84,1.84,0,0,0,23.72,54.05Z"/></g></g></g></svg>