<svg xmlns="http://www.w3.org/2000/svg" xmlns:xlink="http://www.w3.org/1999/xlink" viewBox="0 0 96 96"><defs><style>.cls-1{fill:none;}.cls-2{clip-path:url(#clip-path);}.cls-3{fill:#8f4651;}.cls-4{fill:#c4bab1;}.cls-5{opacity:0.15;}.cls-6{fill:#e62628;}.cls-7{fill:#ff3b3b;}.cls-8{fill:#c21f23;}.cls-9{fill:#8e9194;}.cls-10{fill:#261b18;}.cls-11{fill:#d47844;}.cls-12,.cls-17{fill:#661004;}.cls-12{opacity:0.2;}.cls-13{fill:#45362e;}.cls-14{fill:#abafb3;}.cls-15{fill:#6f6f78;}.cls-16{fill:#d4502c;}.cls-17{opacity:0.3;}.cls-18{fill:#f0ded1;opacity:0.7;}.cls-19{fill:#121b21;}.cls-20{fill:#8f2621;}.cls-21{fill:#fff9f0;}.cls-22{fill:#e8dac5;}</style><clipPath id="clip-path" transform="translate(0)"><circle class="cls-1" cx="48" cy="48" r="48"/></clipPath></defs><g id="Layer_2" data-name="Layer 2"><g id="Layer_4" data-name="Layer 4"><g class="cls-2"><rect class="cls-3" width="96" height="96"/><path class="cls-4" d="M57,89.11c.09-2.33-.49-7.34-3.12-8.34-3.91-1.49-9.89-1.57-13.75.08C37,82.17,36,84.05,38.05,90.56c.75,2.31,1.6,2.1,1.75,4.54a6.72,6.72,0,0,1,0,.9H55.3C55.76,93.19,56.84,92.33,57,89.11Z" transform="translate(0)"/><path class="cls-4" d="M40.13,84.56l-2.37-4.67c-3.22,1.64-4,5.36-4.93,9.3a34,34,0,0,1-2,6.81h5.65A52.84,52.84,0,0,0,38,90.33C38.52,87.75,39.11,85.08,40.13,84.56Z" transform="translate(0)"/><path class="cls-4" d="M57.85,79.89l-2.37,4.67c1,.52,1.61,3.19,2.19,5.77A50.46,50.46,0,0,0,59.17,96h5.65a34.71,34.71,0,0,1-2-6.81C61.9,85.25,61.07,81.53,57.85,79.89Z" transform="translate(0)"/><path class="cls-5" d="M58.31,81.09A5.67,5.67,0,0,0,53.39,78a12.12,12.12,0,0,0-6.46,1.4c2.7,1.34,3.4,9.31,3.62,14.33,0,.72.05,1.49.06,2.27H58C59.13,90.25,59.64,83.57,58.31,81.09Z" transform="translate(0)"/><path class="cls-6" d="M53.66,77.75a13.58,13.58,0,0,0-6.78,1.59c2.88,1.25,4.42,7.52,4.8,14.68,0,.53,0,1.21,0,2h9.92c-.26-5.92-1.34-13-2.74-15.33A6,6,0,0,0,53.66,77.75Z" transform="translate(0)"/><path class="cls-7" d="M59.13,87.56c-1.28-.07-.86,3.92-.93,4.78a6.8,6.8,0,0,0-1.38-2.23,8.13,8.13,0,0,0-1.32,3.77c-.45,1.92-1.68-.41-2.14-.86,0,0-.07,1.83-.1,3h7.48C60.71,93.17,60.55,87.64,59.13,87.56Z" transform="translate(0)"/><path class="cls-5" d="M35.19,85.26c3.43,5.43,12.45,6.55,16.8,5.22,3.32-1,8-3.71,9.34-9.29C64.89,66.26,25.5,69.91,35.19,85.26Z" transform="translate(0)"/><path class="cls-6" d="M34.54,84.05c3.62,5.39,13.17,6.49,17.79,5.15,3.52-1,8.5-3.7,9.92-9.25C66.05,65.11,24.29,68.83,34.54,84.05Z" transform="translate(0)"/><path class="cls-8" d="M37.93,76.67c2.53,2.57,9.15,4,13.55,2.94,2.5-.61,6.61-1.36,7.72-3.9C62.14,68.9,30.78,69.41,37.93,76.67Z" transform="translate(0)"/><path class="cls-7" d="M52.08,80.86c-.45-.53-2.38.2-4.47.17C43.78,81,43.72,80,41.67,80c-.45,2,4,3.16,5,3.48-1.06,0-3.26-.3-4.14.58-1.26,1.27,0,3,1,3.36a10.09,10.09,0,0,0,5.67.5c.59-.12,2-.31,2.23-1.17.15-.65-.43-.62-.37-1.26s.77-.8.73-1.47-.57-.71-1.25-.75C51.08,83,52.75,81.64,52.08,80.86Z" transform="translate(0)"/><path class="cls-9" d="M49.35,18.52c-49-.18-51.05,57.44-1,53C98,67.15,91.76,18.67,49.35,18.52Z" transform="translate(0)"/><path class="cls-10" d="M19.28,54.14a46.92,46.92,0,0,0,5,15.06c5.57,10.4,15.46,2.24,25.8,3.22,8.35.79,15.07,7.9,20.08-.56,7.11-12,7-23.86,4.54-36C69.65,11,40,5.28,28.16,20A43.75,43.75,0,0,0,19.28,54.14Z" transform="translate(0)"/><path class="cls-11" d="M28.23,56.37c1.29,10.94,10.6,22.75,21.85,22,13.54-.86,20.37-16.8,19-29.8-1.57-14.77-8.34-27.17-23.67-24.47C34.45,26.07,26.48,41.62,28.23,56.37Z" transform="translate(0)"/><path class="cls-12" d="M46.74,40.57a37.68,37.68,0,0,1-3.84,1.57c-2.07.72-11.3,1-11.32-2.4,0,2.41,1,5.2-1.17,7.21-2.91-2.43-6.7-6.16-6.11-10,.87-5.63,3.34-9.26,9-11.57,3.75-1.54,9.1-1.19,13.08-1a51.15,51.15,0,0,1,18.15,4.2c3.19,1.33,8.63,8.34,5.58,11.69C66.26,44.44,56.15,37.39,54,34,53.06,36.88,49.87,39.06,46.74,40.57Z" transform="translate(0)"/><path class="cls-10" d="M40.06,17.23c-7.39,1.14-13.22,7.49-16,13.88-3.2,7.26-5.63,14.26-4.5,24.46.76,6.82,2.66,14.75,10.11,21.29,4.25,3.72,10.44,7.93,12.06,13.84,1.14-2.18,1-7.76.28-10-2.17-6.54-8.54-9.63-10.48-16.37-1.58-5.48-2.45-11.19,0-16.59,2.05-4.57,7.27-5.52,11.73-7.51,4.16-1.86,9-4.24,10.66-8.88A39,39,0,0,0,61,37.28c2.55,1.55,5,2.14,6.76,4.69C71,46.54,71.18,52.9,69.65,58.11,67.63,65,63,71.75,56.46,78c-3.18,3-3.46,9.37-1.22,14.87C57.18,80.2,67.39,80.54,72.22,68A41.6,41.6,0,0,0,69.9,32.34c-3-5.18-5.43-10.21-10.85-13.18C53.37,16.05,46.31,16.26,40.06,17.23Z" transform="translate(0)"/><path class="cls-13" d="M69.83,34.38c-6.89,2.59-12.31-1.15-17-7,.9,1.13-4.77,6.87-5.61,7.57-5,4.14-11.67,6.71-17.87,8,.57-1.66,2-3.06,2.31-4.74-.26,1.41-4.22,2.28-5.3,2.06-1.64-.32-3.47-1-2.36-2.35C29,32.15,53.41,17.56,69.83,34.38Z" transform="translate(0)"/><path class="cls-13" d="M22.14,54c1.46,3.43,4.71,4.48,6.58,7.45s1,4.75.51,7.73a9.93,9.93,0,0,0,.52,4.68C22.49,68,22.14,54,22.14,54Z" transform="translate(0)"/><path class="cls-13" d="M63.11,77.61c1.93-2.68.68-4.22,1.34-6.53s2-2.7,3.72-3.79a6.67,6.67,0,0,0,2.17-2.4C70.68,75.35,63.11,77.61,63.11,77.61Z" transform="translate(0)"/><path class="cls-14" d="M57.62,6.57c2.17,1.54,10.15,15.27,10.15,15.27L25.46,24.08S30,9.89,33.21,7.46C38.39,3.57,53.11,3.36,57.62,6.57Z" transform="translate(0)"/><path class="cls-15" d="M64.76,16.82c2,3.22,3,5,3,5L25.46,24.08a46.66,46.66,0,0,1,1.63-4.7C29.81,12.31,61.19,11,64.76,16.82Z" transform="translate(0)"/><path class="cls-9" d="M48.19,17.08c-30.53,1.48-37.73,19-36.38,32.22.53,5.27,5.58,2.09,7.28-4,6.23-22.35,49-28.86,56.79-2.15,2.77,9.48,6.72,10,7.49,2.43C84.65,32.69,76.91,15.69,48.19,17.08Z" transform="translate(0)"/><path class="cls-16" d="M67.25,54a2.49,2.49,0,0,1,.37.81c.8,3-6,2-6.83.73-1.52-2.45.75-3.06,2.46-3C64.57,52.54,66.4,52.79,67.25,54Z" transform="translate(0)"/><path class="cls-16" d="M41.19,53.5a2.65,2.65,0,0,1,.59.72c1.59,2.84-5.59,3.64-6.75,2.53-2.19-2.08,0-3.3,1.7-3.73C38.07,52.69,40,52.46,41.19,53.5Z" transform="translate(0)"/><path class="cls-17" d="M55.13,56.06c-.56-.68-1.45,0-3-.11-1.41-.07-1.38-.66-2.39-.21S49.46,57.9,52,58,55.61,56.64,55.13,56.06Z" transform="translate(0)"/><path class="cls-10" d="M65.22,46.61c-3.65-1.56-7,2.94-4.35,5.29.52-.57,3.38-1.5,5.15-.17C67.52,50.66,67.18,47.44,65.22,46.61Z" transform="translate(0)"/><path class="cls-18" d="M63.71,47.06c1.51-.47,2.1,1.83.84,2.65C62.81,50.86,62,47.59,63.71,47.06Z" transform="translate(0)"/><path class="cls-10" d="M36.29,46.9c3.6-1.66,7.06,2.75,4.5,5.17-.54-.56-3.43-1.4-5.15,0C34.1,51,34.35,47.8,36.29,46.9Z" transform="translate(0)"/><path class="cls-18" d="M39.32,47.35c-1.53-.42-2,1.89-.77,2.67C40.32,51.12,41,47.83,39.32,47.35Z" transform="translate(0)"/><path class="cls-10" d="M41.56,42.07c1,0,1.64.62,1.1,1.58-.42.76-1.48.6-2.27.64-1.16.05-2.31,0-3.48,0a18.3,18.3,0,0,0-4.48.48c-.29.08-.52.28-.84.23,0-.38.38-.81.69-1.06a9.84,9.84,0,0,1,3.59-1.53A21.34,21.34,0,0,1,41.56,42.07Z" transform="translate(0)"/><path class="cls-10" d="M59.11,42c-1,.09-1.58.67-1,1.57.42.72,1.46.52,2.22.53,1.13,0,2.26-.12,3.39-.14a17.29,17.29,0,0,1,4.37.28c.29.07.52.25.82.19,0-.37-.37-.76-.68-1a9.44,9.44,0,0,0-3.52-1.34A21.06,21.06,0,0,0,59.11,42Z" transform="translate(0)"/><path class="cls-19" d="M71.58,46.12S69,49.64,64,47.52c-2.18-.93-3.82,1.17-3.82,1.17A3.8,3.8,0,0,1,64.49,46C66.22,46.29,68,47.77,71.58,46.12Z" transform="translate(0)"/><path class="cls-19" d="M30.05,46.56s2.66,3.49,7.6,1.32c2.18-1,3.83,1.13,3.83,1.13a3.79,3.79,0,0,0-4.35-2.66C35.42,46.68,33.61,48.18,30.05,46.56Z" transform="translate(0)"/><path class="cls-7" d="M63.61,60.12C60,61,56.51,59.76,51,60c-4.56.2-11.35,2.39-15,.57,6.11,9,8.48,11.76,14.5,11.76,6.6,0,7.81-4.45,8.65-7.25C59.55,63.9,62.47,60.83,63.61,60.12Z" transform="translate(0)"/><path class="cls-20" d="M38.82,62.11a50.13,50.13,0,0,0,22.42-.55,6,6,0,0,0-2.89,3.11c-.84,2.08-3.89,3.55-8.56,3.53C42.5,68.16,38.82,62.11,38.82,62.11Z" transform="translate(0)"/><path class="cls-21" d="M41.53,62.62s.25,1.84,2.85,2.52a26,26,0,0,0,10.6.29c2.49-.4,3.68-3.31,3.68-3.31A53.83,53.83,0,0,1,41.53,62.62Z" transform="translate(0)"/><path class="cls-21" d="M42.79,65.26c-.26-.47-.16-1.25,1-.55,1.68,1,4.45,1.16,7.78,1,3.09-.15,4.64-1,5.25-.51s-2.1,3.57-7.42,3.08C43.9,67.78,42.79,65.26,42.79,65.26Z" transform="translate(0)"/><path class="cls-22" d="M42.21,63.91s12.45-1.16,15.45-.17a6,6,0,0,0,1-1.62,62.32,62.32,0,0,1-17.13.5A3,3,0,0,0,42.21,63.91Z" transform="translate(0)"/><path class="cls-22" d="M44.82,65.07a18.81,18.81,0,0,0,9.83.27S49.33,67.53,44.82,65.07Z" transform="translate(0)"/></g></g></g></svg>