<svg xmlns="http://www.w3.org/2000/svg" xmlns:xlink="http://www.w3.org/1999/xlink" viewBox="0 0 66 66"><defs><style>.cls-1{fill:none;}.cls-2{clip-path:url(#clip-path);}.cls-3{fill:#b6a8a9;}.cls-4{fill:#1e1e29;}.cls-5{fill:#ffc596;}.cls-6{fill:#8e9194;}.cls-7{fill:#141418;}.cls-8{fill:#d9d9d9;}.cls-27,.cls-28,.cls-9{fill:#fff;}.cls-10{fill:#43acf0;}.cls-11{fill:url(#linear-gradient);}.cls-12{fill:#313142;}.cls-13{fill:#231e1a;}.cls-14{fill:#d14f2e;}.cls-14,.cls-25,.cls-27{opacity:0.3;}.cls-15{fill:#bf3c1b;opacity:0.2;}.cls-16{fill:#423833;}.cls-17{fill:#1a1614;}.cls-18{fill:#2b241e;}.cls-19{fill:#a88686;}.cls-20{fill:#ffa26f;}.cls-21{fill:#ff3b3b;opacity:0.5;}.cls-22{fill:#8f2722;}.cls-23{fill:#fff9f0;}.cls-24{fill:#e8dac5;}.cls-25{fill:#b54d26;}.cls-26{fill:#f06799;}.cls-28{opacity:0.7;}.cls-29{fill:#ffd1e2;}</style><clipPath id="clip-path" transform="translate(0 0)"><circle class="cls-1" cx="33" cy="33" r="33"/></clipPath><linearGradient id="linear-gradient" x1="34.31" y1="53.25" x2="34.31" y2="56.42" gradientUnits="userSpaceOnUse"><stop offset="0" stop-color="#ee996d"/><stop offset="0.02" stop-color="#ee9a6e"/><stop offset="0.37" stop-color="#f8b181"/><stop offset="0.71" stop-color="#fdbf8d"/><stop offset="1" stop-color="#ffc491"/></linearGradient></defs><g id="Layer_2" data-name="Layer 2"><g id="avatars"><g class="cls-2"><rect class="cls-3" width="66" height="66"/><path class="cls-4" d="M30.17,58.65l-2.26-2.83c-2.11,1.69-3.49,5-4.2,10.18h3.65C28.1,61.09,29.37,59.29,30.17,58.65Z" transform="translate(0 0)"/><path class="cls-5" d="M48.54,47.08c-2.42,2.94,0,3.78,2.32,5.31,1.16.76,2.52,2.09,3.46.15a31.5,31.5,0,0,0,1-3.14,12.06,12.06,0,0,1,1.4-3.07C58.37,44.16,56,38,48.54,47.08Z" transform="translate(0 0)"/><path class="cls-6" d="M47.8,33.34a1,1,0,0,0-1.35,0l-5.52,5.55a1,1,0,0,0,0,1.35l9.88,9.83a1,1,0,0,0,1.34,0l5.53-5.55a1,1,0,0,0,0-1.35Z" transform="translate(0 0)"/><path class="cls-7" d="M47.44,33a.93.93,0,0,0-1.3.06l-5.42,5.44a.93.93,0,0,0,0,1.3l9.42,9.38a.93.93,0,0,0,1.3-.06L56.8,43.7a.91.91,0,0,0,.05-1.3Z" transform="translate(0 0)"/><path class="cls-8" d="M47.44,33a.93.93,0,0,0-1.3.06l-5.42,5.44a.93.93,0,0,0,0,1.3l9.42,9.38a.93.93,0,0,0,1.3-.06L56.8,43.7a.91.91,0,0,0,.05-1.3Z" transform="translate(0 0)"/><path class="cls-9" d="M47.54,35a.71.71,0,0,0-1,0l-3.95,4a.71.71,0,0,0,0,1l7.28,7.25a.71.71,0,0,0,1,0l3.95-4a.71.71,0,0,0,0-1Z" transform="translate(0 0)"/><path class="cls-5" d="M46.55,46c-.17.47.64,1.34.83,1.77.32.68-.2,1.94.62,2.47.66.43,1.2-.08,1.46-.65a3.06,3.06,0,0,0-.94-3.28C48.09,45.86,46.82,45.24,46.55,46Z" transform="translate(0 0)"/><path class="cls-4" d="M51,53c.26,2.9-.54,5-2.2,5.76-2.13,1-5.32-.27-8.13-3.16l-2.59,2.51c2.89,3,6.17,4.59,9.13,4.59a7.44,7.44,0,0,0,3.1-.66c3.09-1.42,4.69-4.92,4.29-9.37Z" transform="translate(0 0)"/><path class="cls-4" d="M41.07,62.47c.8-3,.55-6-1.77-7.83-3.15-2.46-7.59-2-10.81.46-1.71,1.28-2.53,3.21-1,7A19.31,19.31,0,0,1,28.77,66H40.26C40.43,65,40.68,63.87,41.07,62.47Z" transform="translate(0 0)"/><path class="cls-10" d="M37.92,54.18c-1.26-.6-6.92-.67-7.69.12-2.05,2.09-1.8,8.76,4.45,10.3C39.83,63.36,40.27,55.3,37.92,54.18Z" transform="translate(0 0)"/><path class="cls-8" d="M34.79,59.07a.6.6,0,0,0-.62.59.63.63,0,1,0,.62-.59Z" transform="translate(0 0)"/><path class="cls-8" d="M34.79,61.45a.6.6,0,0,0-.62.59.63.63,0,1,0,.62-.59Z" transform="translate(0 0)"/><path class="cls-11" d="M37.83,54.07c-.59-.37-.94-2.36-.85-3.92.2-3.52-5.89-3.65-5.88.19,0,1.71,0,3.16-.43,3.63-.89.91-.36,2.38,4,4.18C37.11,56.94,39.31,55,37.83,54.07Z" transform="translate(0 0)"/><path class="cls-12" d="M37.55,53.62C39,57,39,62,34.82,64.59a13,13,0,0,0,8-3.87s-1-1.19-1.72-1.81a6.14,6.14,0,0,1,2.5-.8C42.92,56.47,39.54,54.24,37.55,53.62Z" transform="translate(0 0)"/><path class="cls-12" d="M30.81,53.77c-1.85.6-4.69,2.37-5.27,4.15a6,6,0,0,1,2.53.78c-.64.69-1.58,2-1.58,2a13.11,13.11,0,0,0,8.19,3.9C30.35,62,29.93,57.07,30.81,53.77Z" transform="translate(0 0)"/><path class="cls-13" d="M48,15.81c-1.87-2.42-2.45-5.14.64-5.31-2-1.46-7.69-3-14-2.7.2-.54.06-.94.59-1.38-2.69.35-5.91.41-9.34,2.48-1.58.95-2.26,2.39-4.08,2.9a17.85,17.85,0,0,0-4.48,1.81c-3.62,2.05-5.6,6.47-6,7.8a4,4,0,0,1,3-.85,6.75,6.75,0,0,0-.66,6.29c.84,2.27-1.47,6.61-.27,8.39a31.43,31.43,0,0,1,4.89,12.69s4.93-3.33,5.37-4c.81-1.12,1-2.5,1.87-3.61,2.18-2.74,6.07-3.95,9.45-3.88,2.47.06,3.36,1.12,4.83,2.76,1,1.08,4.59,2.46,6.81,7a8.86,8.86,0,0,0,2.18-5c.38.66,1.88.67,3.37,0-1.74-1.39-3.14-5.92-2.94-8,.13-1.53,2.82-2.74,1.49-6.63-.35-1-.6-.82-.65-1.92,1.33-.2,2.18-1.05,3.3-1.76C49.62,22.73,50.14,18.65,48,15.81Z" transform="translate(0 0)"/><path class="cls-9" d="M47.14,39.17a1.38,1.38,0,0,0,.25,2.71,1.25,1.25,0,0,0,1-1.45A1.27,1.27,0,0,0,47.14,39.17Z" transform="translate(0 0)"/><path class="cls-5" d="M32.63,16.25c-8.15.72-14.42,7.83-13.8,19.12s7.9,18.54,16.09,18.54c7.24,0,13.89-10.16,12.9-21.42S40.79,15.53,32.63,16.25Z" transform="translate(0 0)"/><path class="cls-5" d="M16,32.39c-3.63,1.65-1.86,7.93,1.21,8.87a6.06,6.06,0,0,0,3,0l.05-.12c.41-.88-.57-5.09-.84-6C18.75,33.07,17.75,31.6,16,32.39Z" transform="translate(0 0)"/><path class="cls-14" d="M18.11,34.59c-1-.53-3.53.15-2.43,2.2.7-1.79,1.75-.52,1.53.77-.15.87-1.08.82-.2,2a1.65,1.65,0,0,0,2,.19C20.7,38.83,19.31,35.24,18.11,34.59Z" transform="translate(0 0)"/><path class="cls-9" d="M18.69,40.3a1.26,1.26,0,0,0-1.11,1.38A1.27,1.27,0,0,0,18.75,43a1.38,1.38,0,0,0-.06-2.72Z" transform="translate(0 0)"/><path class="cls-15" d="M42.51,17a41.47,41.47,0,0,0-13.37,1c-6.77,1.73-12,9.18-11.39,16.19.35,4,1.72,9.41,6.67,9.11a16.88,16.88,0,0,1-1.15-1.74C21.4,38,20.64,32.19,22,28.34c.26.06,1.63.49,1.6.84.27-3,1.51-4.14,4.2-5.2a23.23,23.23,0,0,1,6.62-1.75c1.62-.06,3.11,1.4,4.54,2.12a8.74,8.74,0,0,0,5.08,1,3.47,3.47,0,0,1-.48-1.73c0-.37,2.21,1.86,2.31,2a7.36,7.36,0,0,1,1.53,3.54c.66-2.76-1.24-5-1.61-7.87S44.87,17.17,42.51,17Z" transform="translate(0 0)"/><path class="cls-13" d="M47.4,19.45c-.93-1.61-1.75-3.09-3.46-3.87-7.88-3.57-15.88-1.4-23.28,2.18a8.8,8.8,0,0,0-3.84,3.58c-1.6,2.84-.21,10.17,1.22,16.06,1.13,4.66,4.92,5,4.93,5C19.32,37.65,21.44,26,23,23.49a3.79,3.79,0,0,0,.36,3.8c0-2.64,2.3-3.55,4.27-4.56a21.4,21.4,0,0,1,8-2.25c1,1.79,4.85,4,6.93,3.71A1.63,1.63,0,0,1,42,22.13c1.11.48,2,.47,2.94,1.24.25.19,3.6,2.51,3.61,2.63C48.45,24,48.89,22,47.4,19.45Z" transform="translate(0 0)"/><path class="cls-16" d="M47.88,17.61c-1.16-1.4-2.92-4.2-6.31-4.94a11.42,11.42,0,0,1,4.17-2.33,23.16,23.16,0,0,0-7.65-1.19c-1,0-2.1.65-3.1.27-.32-.11-1.7-1.08-1-2.27a30.8,30.8,0,0,0-5.94,1.94c-1.65.81-2.95,2.12-4.57,3-2.13,1.12-4.17.78-6.85,2.55C15,15.7,14,18,13.33,18.82c1.11-.53,4.27-2,5.46-1.78-1.52,3.49-1.28,5.38-4.62,8.61,6.58.93,7.92-4.12,10.26-4.88-.14,1.1-.61,2.12-.66,3.23,3-3.91,7.67-4.69,12.23-5.27a8.9,8.9,0,0,0,4.31,3.12,8.22,8.22,0,0,1,.29-2.93c1.93.22,9.56,5.46,11.19,4.16C49.5,23,49.45,19.5,47.88,17.61Z" transform="translate(0 0)"/><path class="cls-17" d="M28.85,31.67c-2.24-.78-3.33,3.18-1.75,4.33a3.12,3.12,0,0,1,2.17,0C30.67,35.17,30.52,32.25,28.85,31.67Z" transform="translate(0 0)"/><path class="cls-17" d="M45.1,31.53c-2.21-1.22-4.13,3.39-1.67,4a2.92,2.92,0,0,1,1.94-.3C46.21,34.26,46.29,32.19,45.1,31.53Z" transform="translate(0 0)"/><path class="cls-18" d="M23.36,30.5a10.75,10.75,0,0,1,5.16-.64c1.84.18,2.68,1,3.18-1.29a34.88,34.88,0,0,1-4.21.28A6.32,6.32,0,0,0,23.36,30.5Z" transform="translate(0 0)"/><path class="cls-18" d="M40,28.09c.52,2.1,1.27,1.25,2.94.92a9.36,9.36,0,0,1,4.71.14A5.35,5.35,0,0,0,43.88,28,31,31,0,0,1,40,28.09Z" transform="translate(0 0)"/><path class="cls-14" d="M36.82,39c-.8.07-1.15-.24-1.68.11s.79,1.34,1.77,1.18,1.94-1.17,1.61-1.47S37.7,38.93,36.82,39Z" transform="translate(0 0)"/><path class="cls-17" d="M22.64,32.7a4.06,4.06,0,0,0,5.12.3l-.33-1.15S25.27,34.14,22.64,32.7Z" transform="translate(0 0)"/><path class="cls-17" d="M45.16,31.6l-.34,1c2.76,2,4.6.12,4.6.12C47.32,33.62,45.16,31.6,45.16,31.6Z" transform="translate(0 0)"/><path class="cls-19" d="M27.84,32.33c-.86.36-.06,2,.75,1.34C29.18,33.18,28.61,32,27.84,32.33Z" transform="translate(0 0)"/><path class="cls-19" d="M44,32c-.84.2-.38,1.86.48,1.36C45.1,33,44.76,31.82,44,32Z" transform="translate(0 0)"/><path class="cls-20" d="M44.54,37.23c-1.22.1-2.16.85-2.09,1.68s1.13,1.41,2.35,1.31,2.16-.86,2.09-1.68S45.76,37.13,44.54,37.23Z" transform="translate(0 0)"/><path class="cls-20" d="M27.39,37.67c-1.35-.11-2.51.54-2.59,1.44s.95,1.74,2.3,1.85,2.51-.54,2.59-1.45S28.74,37.78,27.39,37.67Z" transform="translate(0 0)"/><path class="cls-21" d="M29.71,42.76c-2.18.45-1.84,1-1,2.39,1.35,2.39,5.14,4.57,9.72,3.2a3.6,3.6,0,0,0,2.76-4.64L43.66,42C40.33,41.44,33.82,41.9,29.71,42.76Z" transform="translate(0 0)"/><path class="cls-22" d="M30.38,43.51c-1.27.06-1.74.33-.74,1.64,1.31,1.71,4.56,2.58,7.46,2.1,2.6-.43,3.84-2.09,3.48-3.86.27-.16.64-.46,1-.69C38.59,42.3,33.48,43.38,30.38,43.51Z" transform="translate(0 0)"/><path class="cls-23" d="M40.53,42.69a41.35,41.35,0,0,0-9,1.05c-.46.11-1.41.58-.85.94,1,.65,8.91.12,9.27-.07C40.48,44.3,41.25,42.71,40.53,42.69Z" transform="translate(0 0)"/><path class="cls-24" d="M40.68,42.61A71.27,71.27,0,0,0,30,43.54a1.5,1.5,0,0,0,.62,1.14A19.56,19.56,0,0,1,40.68,43.6S41.29,42.64,40.68,42.61Z" transform="translate(0 0)"/><path class="cls-25" d="M46.32,29a20.89,20.89,0,0,0-4.13.78,18,18,0,0,0-3.55,1.1,4.17,4.17,0,0,1-2.56.87c-2.13,0-4-1.29-6.09-1.44a17.87,17.87,0,0,0-6.64.31c-.56.17-2.25.87-1.08,1.45s2.83.32,4.07.33c.57,0,1.15,0,1.72,0,2,.13,5.12-.25,5,2.28C33,36.45,32,38.26,30.58,38.63a18.25,18.25,0,0,1-4.15.55,7.11,7.11,0,0,1-3-.55c-.28-.12-1.1-.61-1.35-.23-.43.63,1.25,1.61,1.68,1.79a10,10,0,0,0,3.11.6c2.65.2,5.35,0,6.77-2.49.82-1.43,1.2-3.09,2-4.56,1.24-2.39,2,.79,2.41,2.17a6.84,6.84,0,0,0,1.12,2.18,5.31,5.31,0,0,0,4,1.76,6,6,0,0,0,2.54-.42c.48-.21.66-.79.07-1a4.64,4.64,0,0,0-1.29,0,12.62,12.62,0,0,1-1.63-.08,4.84,4.84,0,0,1-2-.78,3.75,3.75,0,0,1-1-1.06,3.43,3.43,0,0,1-.3-3c.44-1.35,1.9-1.5,3.11-1.64,1.47-.17,3-.19,4.43-.37a16,16,0,0,1,2,0c.84,0,2.64-.32,1.61-1.5S47.68,28.9,46.32,29Z" transform="translate(0 0)"/><path class="cls-26" d="M21.23,29.77c-1.74.11-3.24-.33-3.63,0s.46,2,.46,2a3,3,0,0,0,1.38.41c.15,1.21.18,4.33,2.46,6.22,1.9,1.59,8,1.87,9.81.86a7.28,7.28,0,0,0,3.56-5.6C36.11,28.41,23.68,29.61,21.23,29.77Zm10.56,8.11c-2.25,1.55-8.15,1-9.73-.8-1.23-1.42-1.53-4.45-.83-4.91,2.16-1.39,10.45-1.15,12.41.25C34.59,33.1,33.49,36.69,31.79,37.88Z" transform="translate(0 0)"/><path class="cls-26" d="M49.71,28.38c-2.21.07-13.49,0-12.25,5.21a7.27,7.27,0,0,0,3.7,5.25c1.76.83,7.18,0,8.74-1.77,1.88-2.1,1.62-5.21,1.64-6.42a2.61,2.61,0,0,0,1.21-.55s.74-1.6.23-2S51.28,28.33,49.71,28.38Zm-.07,7.36c-1.26,2-6.51,3-8.68,1.69-1.64-1-3-4.49-2.16-5.26,1.63-1.57,9.06-2.59,11.13-1.4C50.6,31.16,50.61,34.21,49.64,35.74Z" transform="translate(0 0)"/><path class="cls-27" d="M40.24,31.66c-1.21.56,1,1.14,1.52,1.19a16.32,16.32,0,0,0,5.31-.37c.92-.21,2.89-1.12,2.3-1.61C48.54,30.18,41.58,31,40.24,31.66Z" transform="translate(0 0)"/><path class="cls-9" d="M45.71,31.17c-.66.12-1.09.33-.9.63.38.57,4.28.1,4.53-.36S47.12,30.89,45.71,31.17Z" transform="translate(0 0)"/><path class="cls-28" d="M41.64,36.18c-.42,0-.71.09-.63.35.16.51,2.6.77,2.81.44S42.53,36.19,41.64,36.18Z" transform="translate(0 0)"/><path class="cls-28" d="M23.39,36.61c-.44-.06-.75,0-.7.27.1.53,2.62,1.08,2.88.78S24.33,36.72,23.39,36.61Z" transform="translate(0 0)"/><path class="cls-27" d="M32.71,32.14c-1.57-.5-9.29-.83-10.06-.12-.56.5,1.75,1.23,2.8,1.36a21.07,21.07,0,0,0,5.83,0C31.79,33.29,34.13,32.6,32.71,32.14Z" transform="translate(0 0)"/><path class="cls-9" d="M29.35,31.8c-.71.05-1.19.2-1,.52.32.62,4.46.63,4.78.2S30.86,31.71,29.35,31.8Z" transform="translate(0 0)"/><path class="cls-26" d="M38.81,30.4a6.58,6.58,0,0,1-5.42.23c-1.71-.55.93,1.07,1.16,1.95s0,3.57.55,2,1.72-1.76,2.52-.32.62-2.48.92-2.85S40.4,29.61,38.81,30.4Z" transform="translate(0 0)"/><path class="cls-29" d="M22.06,30.26c4.7.08,8.45.1,11.32,1.1C31.48,29.9,28.29,29.67,22.06,30.26Z" transform="translate(0 0)"/><path class="cls-29" d="M49.33,28.8c-5.72.39-8.39.52-9.88,2C41.89,29.57,45.09,29.55,49.33,28.8Z" transform="translate(0 0)"/></g></g></g></svg>