<svg xmlns="http://www.w3.org/2000/svg" xmlns:xlink="http://www.w3.org/1999/xlink" viewBox="0 0 66 66"><defs><style>.cls-1{fill:none;}.cls-2{isolation:isolate;}.cls-3{clip-path:url(#clip-path);}.cls-4{fill:#fff;}.cls-5{fill:#ffbc82;}.cls-6{fill:#85b428;}.cls-7{fill:url(#linear-gradient);}.cls-8{fill:#bbe351;}.cls-10,.cls-8{opacity:0.5;}.cls-9{fill:#fff9f0;}.cls-10{fill:#d9af96;mix-blend-mode:multiply;}.cls-11{fill:#4f2619;}.cls-12{fill:#b54d26;}.cls-12,.cls-21{opacity:0.3;}.cls-13{fill:#2f2120;}.cls-14{fill:#7d4732;}.cls-15{fill:#b08a72;}.cls-16{fill:#ff7752;}.cls-17{opacity:0.8;}.cls-18{fill:#ff3b3b;}.cls-19{fill:#a80a0a;}.cls-20{fill:#e8dac5;}.cls-21,.cls-24{fill:#d14f2e;}.cls-22{fill:#121b21;}.cls-23{fill:#784430;}.cls-24{opacity:0.4;}</style><clipPath id="clip-path" transform="translate(0)"><circle class="cls-1" cx="33" cy="33" r="33"/></clipPath><linearGradient id="linear-gradient" x1="4127.23" y1="51.89" x2="4127.23" y2="55.18" gradientTransform="translate(-4092.82)" gradientUnits="userSpaceOnUse"><stop offset="0" stop-color="#e88958"/><stop offset="0.34" stop-color="#f49d62"/><stop offset="0.69" stop-color="#fcab69"/><stop offset="1" stop-color="#ffb06b"/></linearGradient></defs><g class="cls-2"><g id="Layer_2" data-name="Layer 2"><g id="avatars"><g class="cls-3"><rect class="cls-4" width="66" height="66"/><path class="cls-5" d="M27.18,66c.28-2.47,0-6.59,2.53-7.44.82-.28,2.12-2.6,1.69-3.38s-.87-1.14-1.68-.82c-4.5,1.78-5.52,5.39-5.81,11.64Z" transform="translate(0)"/><path class="cls-5" d="M42.3,66c-.29-2.47,0-6.59-2.53-7.44-.83-.28-2.13-2.6-1.69-3.38s.86-1.14,1.68-.82c4.5,1.78,5.52,5.39,5.81,11.64Z" transform="translate(0)"/><path class="cls-6" d="M39.46,54c-2.47-.81-7-1.08-9.71.07-2.15.92-2.84,2.42-1.37,7A22.9,22.9,0,0,1,29.51,66H39.8a30.52,30.52,0,0,1,1-4.55C41.87,57.35,42,54.86,39.46,54Z" transform="translate(0)"/><path class="cls-7" d="M37.69,53.87c-.68-.84-.31-2.48-.22-4.08.21-3.62-6-3.76-6,.2,0,1.75.2,3.13-.23,3.66-2.17,2.66,3.55,4.47,3.55,4.47S39.51,56.14,37.69,53.87Z" transform="translate(0)"/><path class="cls-8" d="M30,60.28c.43,1.34,2.6,1.7,4.49,1.67,3.74-.06,5.14-1.45,4.5-3.1-.16-.45-1-.75-1.92-.41a10.46,10.46,0,0,1-5.76-.1C30.31,58.08,29.72,59.27,30,60.28Z" transform="translate(0)"/><path class="cls-9" d="M33.51,55.59a.89.89,0,1,0,.89-.89A.89.89,0,0,0,33.51,55.59Z" transform="translate(0)"/><path class="cls-9" d="M31.59,55a.79.79,0,1,0,.78-.78A.78.78,0,0,0,31.59,55Z" transform="translate(0)"/><path class="cls-9" d="M30.67,53.74a.64.64,0,0,0,1.28,0,.64.64,0,1,0-1.28,0Z" transform="translate(0)"/><path class="cls-9" d="M30.76,52.69a.45.45,0,0,0,.45.46.46.46,0,1,0,0-.91A.45.45,0,0,0,30.76,52.69Z" transform="translate(0)"/><path class="cls-9" d="M37.2,55a.79.79,0,1,1-.78-.78A.78.78,0,0,1,37.2,55Z" transform="translate(0)"/><path class="cls-9" d="M38.12,53.74a.64.64,0,1,1-1.28,0,.64.64,0,0,1,.64-.64A.64.64,0,0,1,38.12,53.74Z" transform="translate(0)"/><path class="cls-9" d="M38,52.69a.46.46,0,0,1-.46.46.46.46,0,0,1,0-.91A.46.46,0,0,1,38,52.69Z" transform="translate(0)"/><path class="cls-10" d="M20.53,40.66a4.27,4.27,0,0,1-4.82-4c-.57-4.56,1.05-6,3-5.82S20.53,40.66,20.53,40.66Z" transform="translate(0)"/><path class="cls-11" d="M35.29,40.42c4.6-.34,6.19,5.39,8,5.91,20.8,5.81,18.2-33.68-7-39.3C3.65,9.62.83,52.94,26.09,46.71,30.72,45.56,28,41,35.29,40.42Z" transform="translate(0)"/><path class="cls-9" d="M46,39.15a3.14,3.14,0,0,0-2.61,3.6,3.23,3.23,0,0,0,3.24,3.11,3.13,3.13,0,0,0,2.61-3.59A3.23,3.23,0,0,0,46,39.15Zm.53,5.54a2.34,2.34,0,0,1-2.35-2.26,2.27,2.27,0,0,1,1.89-2.61,2.35,2.35,0,0,1,2.35,2.26A2.27,2.27,0,0,1,46.53,44.69Z" transform="translate(0)"/><path class="cls-5" d="M49,32.31c-.64-10.75-4.78-17.18-15.42-16.85C22.51,15.8,18.87,23.1,19.15,34s8.12,18.11,16.3,18.59C41.72,53,49.64,43.21,49,32.31Z" transform="translate(0)"/><path class="cls-12" d="M36.29,24.71c-5.09,4.74-12.39,3.54-16.53,7.53-.65.63-.33-.81-1-1.49-1-1.05.7-4.05,1.24-5,2.5-4.36,7-7.57,11.54-9.54a23.75,23.75,0,0,1,4.72-1.49c2.51-.51,5.35-.62,7.62.8,3.38,2.11,5.82,5.65,5.55,9.81-.08,1.3,0,6.05-.88,3.52-1.09-3.12-8.34-8-8-9.93A31,31,0,0,1,36.29,24.71Z" transform="translate(0)"/><path class="cls-13" d="M26.33,35.31a3.07,3.07,0,0,0-2.21-.06C22.53,34,23.69,29.81,26,30.66,27.67,31.3,27.78,34.41,26.33,35.31Z" transform="translate(0)"/><path class="cls-14" d="M23.1,27.85a3.28,3.28,0,0,1,2.56-2.27,3,3,0,0,1,3.09,1.71C27.73,26.88,25.9,25.51,23.1,27.85Z" transform="translate(0)"/><path class="cls-15" d="M26.42,32.55c.84-.13,1.1,1.23.39,1.58C25.83,34.62,25.48,32.69,26.42,32.55Z" transform="translate(0)"/><path class="cls-11" d="M29.6,10.05a14,14,0,0,1,7.54.67c3.29,1.17,6.66,2.58,9,5.28a18.09,18.09,0,0,1,3.74,8.8c.29,1.75-.89,4.75-.94,6.49-.06-6.95-7.76-8.8-8-13.56A22.61,22.61,0,0,1,27.83,27.85c-7.74,2.24-8.68,4.17-9.27,7.62-2.53-3.2-.75-9.94-.42-11.86C19.17,17.5,23.16,11.3,29.6,10.05Z" transform="translate(0)"/><path class="cls-16" d="M47.3,37.41a1.56,1.56,0,0,1,.18.54c.28,2-3.87,1.09-4.28.22-.77-1.64.67-2,1.73-1.87A2.81,2.81,0,0,1,47.3,37.41Z" transform="translate(0)"/><path class="cls-16" d="M27,37.27a1.79,1.79,0,0,1,.28.59c.65,2.21-4.07,2.15-4.67,1.24-1.12-1.72.42-2.41,1.6-2.57C25.12,36.41,26.38,36.41,27,37.27Z" transform="translate(0)"/><g class="cls-17"><path class="cls-18" d="M44.24,40.59c-2.48.57-4.92.22-8.67.29-3.09.06-7.65.93-10.07-.5,4,6.83,6.47,8.11,9.64,8.35,4,.3,5.37-2.45,6-4.53A12.14,12.14,0,0,1,44.24,40.59Z" transform="translate(0)"/></g><path class="cls-19" d="M27.36,41.59a31.15,31.15,0,0,0,15.24,0,4.24,4.24,0,0,0-2,2.27c-.62,1.54-2.72,2.58-5.89,2.47C29.74,46.18,27.36,41.59,27.36,41.59Z" transform="translate(0)"/><path class="cls-9" d="M29.19,42A2.48,2.48,0,0,0,31.08,44a16.19,16.19,0,0,0,7.2.42C40,44.13,40.84,42,40.84,42A33.48,33.48,0,0,1,29.19,42Z" transform="translate(0)"/><path class="cls-9" d="M30,44c-.17-.36-.09-.94.71-.39,1.12.77,3,.95,5.27.9,2.1-.05,3.17-.68,3.57-.28s-1.5,2.62-5.1,2.15C30.7,45.92,30,44,30,44Z" transform="translate(0)"/><path class="cls-20" d="M29.63,43s8.48-.62,10.49.17A4.59,4.59,0,0,0,40.84,42a38.63,38.63,0,0,1-11.65,0A2.32,2.32,0,0,0,29.63,43Z" transform="translate(0)"/><path class="cls-20" d="M31.38,43.92a11.76,11.76,0,0,0,6.67.39S34.39,45.84,31.38,43.92Z" transform="translate(0)"/><path class="cls-21" d="M37.68,36.77c.26.31-.57,1.1-1.57,1.15s-2-1-1.45-1.21.78,0,1.49.06S37.37,36.42,37.68,36.77Z" transform="translate(0)"/><path class="cls-13" d="M46,30.71c1.23.78,1.13,3.2.26,4.34a2.7,2.7,0,0,0-2,.32C41.73,34.6,43.74,29.25,46,30.71Z" transform="translate(0)"/><path class="cls-15" d="M45.92,32.29c.8,0,.91,1.4.2,1.66C45.15,34.32,45,32.31,45.92,32.29Z" transform="translate(0)"/><path class="cls-22" d="M51.08,31.43a4.32,4.32,0,0,1-5.32.39,2,2,0,0,0-2.45.45s.69-2.48,2.79-1.68C47.22,31,48.51,32.29,51.08,31.43Z" transform="translate(0)"/><path class="cls-22" d="M19.08,31.73a4.74,4.74,0,0,0,5.58.2,2.19,2.19,0,0,1,2.54.2s-.57-2.47-2.75-1.35A6.81,6.81,0,0,1,19.08,31.73Z" transform="translate(0)"/><path class="cls-23" d="M45.25,11.41a21.76,21.76,0,0,1,8.08,9.3s-5.95,5.05-10.38.05a6.37,6.37,0,0,1-1.62-4.11c-3.69,5.34-9.36,9.14-13.39,9a21.59,21.59,0,0,1-6.14-1.27c-1.69-.6-3.26-1.5-4.91-2.17-.32-.12-3.57-1.29-3.76-1,0,0,3.93-6,8.43-8.59C21.56,12.64,35.88,20,45.25,11.41Z" transform="translate(0)"/><path class="cls-23" d="M48.24,27.85a3.3,3.3,0,0,0-2.5-2.33,3,3,0,0,0-3.13,1.62C43.64,26.77,45.51,25.45,48.24,27.85Z" transform="translate(0)"/><path class="cls-5" d="M18.05,39.32a4.07,4.07,0,0,0,2.38.25l.05-.11c.35-.81-.28-4.87-.46-5.71-.46-2.1-1.21-3.57-2.62-2.94C14.46,32.13,15.65,38.21,18.05,39.32Z" transform="translate(0)"/><path class="cls-24" d="M19.53,37.28c.77-1.07-.46-4-1.19-4.43s-1.86.65-1,2.31c.13-1.69.87-.72.93.45,0,.79-.47.89.16,1.8C18.77,37.91,19.29,37.62,19.53,37.28Z" transform="translate(0)"/><path class="cls-9" d="M19.45,39.75a3.12,3.12,0,0,0-2.86,3.39,3.21,3.21,0,0,0,3,3.34,3.12,3.12,0,0,0,2.86-3.39A3.21,3.21,0,0,0,19.45,39.75Zm.13,5.56a2.34,2.34,0,0,1-2.18-2.42,2.27,2.27,0,0,1,2.08-2.47,2.34,2.34,0,0,1,2.17,2.43A2.26,2.26,0,0,1,19.58,45.31Z" transform="translate(0)"/></g></g></g></g></svg>