<svg xmlns="http://www.w3.org/2000/svg" xmlns:xlink="http://www.w3.org/1999/xlink" viewBox="0 0 66 66"><defs><style>.cls-1{fill:none;}.cls-2{clip-path:url(#clip-path);}.cls-3{fill:#ed9335;}.cls-4{fill:#ffcb9e;}.cls-5{fill:#f1aa83;}.cls-6{fill:#e0e0e0;}.cls-7{fill:#c4bab1;}.cls-8{fill:#4f3023;}.cls-9{fill:#bf3c1b;}.cls-10,.cls-14,.cls-9{opacity:0.3;}.cls-10{fill:#c94614;}.cls-11{fill:#693a27;}.cls-12{fill:#bf795c;}.cls-13{fill:#ff8e69;}.cls-14{fill:#b54d26;}.cls-15{opacity:0.5;}.cls-16{fill:#94110c;}.cls-17{fill:#224245;}.cls-18{fill:#d4e6dd;opacity:0.7;}.cls-19{fill:#2b221c;}.cls-20{fill:#ffdfc2;}</style><clipPath id="clip-path" transform="translate(0.01)"><circle class="cls-1" cx="33" cy="33" r="33"/></clipPath></defs><g id="Layer_2" data-name="Layer 2"><g id="avatars"><g class="cls-2"><rect class="cls-3" width="66" height="66"/><path class="cls-4" d="M28.33,58.82a1.78,1.78,0,1,0-2-3c-5.91,3.93-7.12,7.68-7.08,10.15h3.58s0,0,0,0C22.8,63.77,24.8,61.17,28.33,58.82Z" transform="translate(0.01)"/><path class="cls-4" d="M43.12,55.85a1.78,1.78,0,1,0-2,3c3.53,2.35,5.53,5,5.49,7.14,0,0,0,0,0,0H50.2C50.24,63.53,49,59.78,43.12,55.85Z" transform="translate(0.01)"/><path class="cls-4" d="M39.38,53.06a4.44,4.44,0,0,0-4.66-4,4.43,4.43,0,0,0-4.65,4c-.09,1.36-5,2.89-4.85,3.9.81,4.91,2.94,6.74,9.5,6.77s8.28-.89,9.09-7.09C44,55.63,39.46,54.42,39.38,53.06Z" transform="translate(0.01)"/><path class="cls-5" d="M34.58,47.73c-2.11,0-5.07,1.09-5.24,3.74C29.26,52.71,30.39,56,34.72,56s5.35-3.5,5.23-4.73C39.69,48.65,36.7,47.69,34.58,47.73Z" transform="translate(0.01)"/><path class="cls-6" d="M42.79,61.22c-3.08-.73-1.19-6.58-1.56-6.78a2.48,2.48,0,0,0-1.06-.28c-.63,0,.18,6.12-5.5,6.13-5.43,0-4.6-6.24-5.26-6.08a4.86,4.86,0,0,0-1.09.32c-.34.19,1.89,5.86-1.69,6.73,0,1.57.09,3.2.18,4.74H42.62C42.71,64.45,42.79,62.81,42.79,61.22Z" transform="translate(0.01)"/><path class="cls-7" d="M42.9,60.75A1.56,1.56,0,0,1,41.83,60c-.58-1-.55-2.83.08-5.09l-.44-.2-.48,0c-.41,1.47-1,4.19,0,5.83a2.54,2.54,0,0,0,1.68,1.22h.1a.47.47,0,0,0,.47-.36A.48.48,0,0,0,42.9,60.75Z" transform="translate(0.01)"/><path class="cls-7" d="M27.89,54.26a.45.45,0,0,0-.35.54l0,.08c.63,2.26.66,4.12.08,5.09a1.56,1.56,0,0,1-1.07.78.48.48,0,0,0-.36.58.47.47,0,0,0,.47.36h.11a2.54,2.54,0,0,0,1.67-1.22c1-1.64.43-4.36,0-5.83A.52.52,0,0,0,27.89,54.26Z" transform="translate(0.01)"/><path class="cls-7" d="M40.18,53.68h0a.48.48,0,0,0-.48.47c0,.23-.11,5.65-5,5.66h0c-4.41,0-4.75-4.67-4.77-5.61a.46.46,0,0,0-.47-.46h0a.46.46,0,0,0-.46.48c0,.67.31,6.54,5.72,6.54h0c5.85,0,6-6.33,6-6.6A.48.48,0,0,0,40.18,53.68Z" transform="translate(0.01)"/><path class="cls-8" d="M45.15,9.49C37,7.4,23.18,8.38,18.26,15.07a8.3,8.3,0,0,0-1.69,6.53c.51,2.46,2.21,4.15,4.94,3.46a5.46,5.46,0,0,1,3.7.34c1.46.55,2.8,1.39,4.3,1.82,2.57.74,5.33.42,7.86,1.28a10.91,10.91,0,0,0,7.14.33c2.27-.68,4.8-1,5.18-3.75a3.27,3.27,0,0,1,.36,2.58A8.59,8.59,0,0,0,53.14,24a10.71,10.71,0,0,0-.29-8.43A11.57,11.57,0,0,0,45.15,9.49Z" transform="translate(0.01)"/><path class="cls-4" d="M31.1,15.18C23.27,16.71,17.75,28,19.18,38.54c1.08,7.92,7.19,16.6,16.39,16,9.38-.67,14-12.31,12.84-22C47.09,21.86,42.08,13,31.1,15.18Z" transform="translate(0.01)"/><path class="cls-9" d="M41.43,17.1a35.43,35.43,0,0,0-9.33-1.42c-2.81,0-5.86-.2-8.47.95-1.44.63-3.21,1.49-3.75,3-.44,1.27-1,2.94-.25,4,1.49,2.36,4.42,1,5.53.37,2.4-1.24,13.33-.39,18.43-.4,2.12,0,5.17-.37,4.3-3.23C47.19,18.2,43.43,17.68,41.43,17.1Z" transform="translate(0.01)"/><path class="cls-4" d="M16.45,34.14c-3.85,1.06-2.3,6.68.84,7.8a7.49,7.49,0,0,0,3.11.34l.06-.09c.46-.73-.18-4.83-.42-5.6C19.45,34.65,18.3,33.63,16.45,34.14Z" transform="translate(0.01)"/><path class="cls-10" d="M17.8,36.21c-.86-.4-3,.32-2,2,.54-1.57,1.49-.54,1.34.57-.09.75-.89.76-.1,1.72.43.52,1.31.32,1.75.05C20.18,39.67,18.86,36.69,17.8,36.21Z" transform="translate(0.01)"/><path class="cls-8" d="M45.43,13.17a7.76,7.76,0,0,0-1.91-1.3,13.92,13.92,0,0,0-5.92-1.2c-1.58,0-3.14-.33-4.73-.32a32.25,32.25,0,0,0-5.2.5,19,19,0,0,0-5.93,1.8c-1.56.85-2.18,2.84-2.9,4.35a6.89,6.89,0,0,0-.33,2.35c-.07,1.29-.11,2.66-.05,3.94.11,2.32,3.22,2.67,4.53,1a5.5,5.5,0,0,1,4.49-1.84c3-.11,14.62-.66,17.35.27,1.5.52,3.5,1.29,3.79-1.09a10.27,10.27,0,0,0-.79-4.24A10.75,10.75,0,0,0,45.43,13.17Z" transform="translate(0.01)"/><path class="cls-11" d="M47.47,12.08C43.56,9.86,38.33,9.73,34,9.94a26.6,26.6,0,0,0-10.43,2.79c-3.49,1.67-4.54,5.4-4,7.26,1.35-2,5.15-3.92,6.89-4.11-.18.91-1.84,2.69-2.17,3.54,1.4-.81,8.23-3.86,10-3.83-.59.67-1.94,1.54-1.85,2.53,3-.49,6.14-2.17,9.19-2-.94.9-2.43,1.1-3.21,2.23,2.94,0,6.19-.4,9.24-.43a12.35,12.35,0,0,0-2.8,1.61c2.42.07,5.36-.18,7.68.52A10,10,0,0,0,47.47,12.08Z" transform="translate(0.01)"/><path class="cls-12" d="M17.65,24c-1.07,1.72-.65,9.36-.39,10,1.84.22,4.1,2.69,4.1,2.69-.64-4.46.06-6.85.94-11.79A20.64,20.64,0,0,1,17.65,24Z" transform="translate(0.01)"/><path class="cls-13" d="M47.23,36.84c-.71-.86-2.14-.93-3.16-.86-1.33.09-3.08.69-1.8,2.4.67.91,6,1.21,5.28-1A1.71,1.71,0,0,0,47.23,36.84Z" transform="translate(0.01)"/><path class="cls-13" d="M28,36.94a3.68,3.68,0,0,0-3.23-.45c-1.28.27-2.86,1.13-1.3,2.72.82.84,6.05.42,4.94-1.72A1.93,1.93,0,0,0,28,36.94Z" transform="translate(0.01)"/><path class="cls-14" d="M43.19,46.68a1.84,1.84,0,0,1,2.29-1.45C44.3,43.23,42,44.64,43.19,46.68Z" transform="translate(0.01)"/><path class="cls-14" d="M25.91,47.42a1.85,1.85,0,0,1,2.41,1.24C29.35,46.51,26.91,45.33,25.91,47.42Z" transform="translate(0.01)"/><g class="cls-15"><path class="cls-16" d="M37.23,40.86c-3.94-.07-8.58,1.67-10.1,5.73a.57.57,0,0,0,.34.74.52.52,0,0,0,.21,0,.58.58,0,0,0,.54-.38c1.28-3.43,5.4-5,8.78-5h.21c3,.06,5.29,1.25,5.88,3a.59.59,0,0,0,.74.37.57.57,0,0,0,.36-.73C43.44,42.4,40.77,40.93,37.23,40.86Z" transform="translate(0.01)"/></g><path class="cls-14" d="M22.5,34c.23.62,1.61.08,2.08.11-.27.44-1.41.63-1.81,1s-.31.54.28.43a9.65,9.65,0,0,0,2.41-1.1C26.28,33.31,23,33.74,22.5,34Z" transform="translate(0.01)"/><path class="cls-17" d="M25.28,32.06c-1.64.66-1.56,2-.36,2.61a6.86,6.86,0,0,1,2.68.07C31,33.89,28.34,30.83,25.28,32.06Z" transform="translate(0.01)"/><path class="cls-18" d="M27.15,32.28c-.86,0-1.16.83-.44.95C27.71,33.41,28.12,32.27,27.15,32.28Z" transform="translate(0.01)"/><path class="cls-19" d="M27.35,26.67c-2.77-1-4-.28-4.71.21-.2.13.5.51,1.1.59A9.7,9.7,0,0,1,29,30.24c1.12,1.06,2-1.12,1.47-2.19A18.81,18.81,0,0,0,27.35,26.67Z" transform="translate(0.01)"/><path class="cls-14" d="M46.29,33c.39-.07,1.57.32,1.71-.31-.4-.16-3.17-.25-2.41.7a7.61,7.61,0,0,0,2.08.83c.5,0,.57-.14.2-.45S46.56,33.39,46.29,33Z" transform="translate(0.01)"/><path class="cls-17" d="M45.55,31.1c-2.63-.89-4.58,2.35-1.69,2.84a4.92,4.92,0,0,1,2.21-.32A1.38,1.38,0,0,0,45.55,31.1Z" transform="translate(0.01)"/><path class="cls-18" d="M45.09,31.49c-.8.08-.37,1.15.44.88C46.12,32.17,45.81,31.42,45.09,31.49Z" transform="translate(0.01)"/><path class="cls-19" d="M43.19,26.62a13.5,13.5,0,0,0-2.41,1.6c-.34,1.08.51,3.14,1.34,2a7.78,7.78,0,0,1,4-3.11c.49-.13,1-.55.86-.67C46.37,26,45.35,25.4,43.19,26.62Z" transform="translate(0.01)"/><path class="cls-14" d="M32.23,45a14,14,0,0,1,6.56-1.4C38.58,42.17,33.67,42.61,32.23,45Z" transform="translate(0.01)"/><path class="cls-14" d="M36.13,37.34c-1.17,0-1.64-.52-2.47,0s.36,2.07,2.45,2,3-1.5,2.55-2S37.44,37.33,36.13,37.34Z" transform="translate(0.01)"/><path class="cls-20" d="M35.83,32.91c-2.22-.19-2.39,4.49-1.88,4.9,1.24,1,3.84.28,4.6-.51C38.84,37,37.94,33.09,35.83,32.91Z" transform="translate(0.01)"/></g></g></g></svg>