<svg xmlns="http://www.w3.org/2000/svg" xmlns:xlink="http://www.w3.org/1999/xlink" viewBox="0 0 66 66"><defs><style>.cls-1{fill:none;}.cls-2{clip-path:url(#clip-path);}.cls-20,.cls-21,.cls-3{fill:#fff;}.cls-4{fill:#d9d9d9;}.cls-5{fill:#85b428;}.cls-6{fill:#45362e;}.cls-7{fill:#f2f2f2;}.cls-8{fill:#c9beb7;}.cls-9{fill:#9c552c;}.cls-10,.cls-13{fill:#66241b;}.cls-10,.cls-12,.cls-16,.cls-21{opacity:0.7;}.cls-11{fill:#66261e;}.cls-11,.cls-13{opacity:0.4;}.cls-12{fill:#f0eae6;}.cls-14{fill:#d17642;}.cls-15{fill:#261b18;}.cls-16{fill:#f0ded1;}.cls-17{opacity:0.8;}.cls-18{fill:#541d15;}.cls-19{fill:#212126;}.cls-20{opacity:0.3;}</style><clipPath id="clip-path" transform="translate(0 0)"><circle class="cls-1" cx="33" cy="33" r="33"/></clipPath></defs><g id="Layer_2" data-name="Layer 2"><g id="avatars"><g class="cls-2"><rect class="cls-3" width="66" height="66"/><path class="cls-4" d="M43.73,53.1l-4.54,3.58c.79,1,2.57,3.82,3.9,9.32h6C48.14,59.73,46.6,54.91,43.73,53.1Z" transform="translate(0 0)"/><path class="cls-4" d="M24.76,53.1c-2.87,1.81-4.41,6.63-5.36,12.9h6c1.33-5.5,3.11-8.32,3.9-9.32Z" transform="translate(0 0)"/><path class="cls-5" d="M43.81,59.14a9.71,9.71,0,0,1,1.27-5c.18-.31-1.14-2.9-10.84-2.85-9.42,0-10.56,2.7-10.44,3a14.5,14.5,0,0,1,1,4.84c0,2.8-.07,4.94,0,6.82h19C43.85,64.13,43.81,61.84,43.81,59.14Z" transform="translate(0 0)"/><path class="cls-6" d="M42,59.08a35.44,35.44,0,0,0,.1-6.67.79.79,0,0,0-1.55.26A36.39,36.39,0,0,1,40.47,59c-.14,2.06-.29,4.49-.33,7h1.57C41.74,63.56,41.89,61.22,42,59.08Z" transform="translate(0 0)"/><rect class="cls-7" x="40.02" y="61.95" width="1.98" height="0.78" transform="translate(-1.23 0.83) rotate(-1.14)"/><path class="cls-6" d="M27.84,52.67a.79.79,0,0,0-1.55-.26,35.44,35.44,0,0,0,.1,6.67c.14,2.13.29,4.48.32,6.92h1.57c0-2.53-.19-5-.33-7A36.27,36.27,0,0,1,27.84,52.67Z" transform="translate(0 0)"/><rect class="cls-7" x="27.02" y="61.35" width="0.78" height="1.98" transform="translate(-35.49 88.45) rotate(-88.81)"/><path class="cls-8" d="M49.85,15.25c.68-1.1,1.38-1.67.15-2.66A4,4,0,0,0,46.21,12c.68-2.81-3.2-3.49-4.72-1.9-.43-3.11-3.42-3.53-5.24-1.3C35.37,6.47,32,6,31.4,8.84c-2-2.62-5.76-1.24-6.42,1.76-1.65-2.13-5.59-1.22-5.35,1.75a3,3,0,0,0-3.56.9c-.94,1-.72,3.07-.07,4.09-3.56-.23-3.44,3-1.68,4.75-2.76.17-4,4.07-.64,4.38-1.81.64-2,3.06.16,3.4-2.23.8-1.28,2.77.66,3.19-.68,2-.25,2.76,1.3,4a21.33,21.33,0,0,1,2.41,2.6C20.35,42,21.88,44.89,24,47.28s4.31-1.66,6-2.62a12,12,0,0,1,7.52-1.59c2.27.34,3.87,2.71,6.19,2.76,1.4,0,2.29-1.15,2.88-2.28s.44-2.26.72-3.5,1.37-1.5,2.08-2.33c.31-.35,1.22-2.68,0-2.67,2.07,0,2.06-1.74,1.39-3.06a4.67,4.67,0,0,0-.51-.77c2.25-.33,1.39-2,.58-3.34.78-.51,1.34-.58,1.27-1.62a2.72,2.72,0,0,0-1.63-2c.79-.57,1.78-.59,1.87-1.7s-.85-2-1.56-2.63C54.1,19.15,52.59,15.59,49.85,15.25Z" transform="translate(0 0)"/><path class="cls-9" d="M31.52,13.79C23.2,15.41,17.34,27.38,18.87,38.6,20,47,26.5,56.22,36.26,55.53c10-.71,14.92-13.07,13.63-23.41C48.49,20.89,43.17,11.52,31.52,13.79Z" transform="translate(0 0)"/><path class="cls-9" d="M16,33.92c-4.09,1.13-2.45,7.09.89,8.29a8.24,8.24,0,0,0,3.3.36l.06-.11c.49-.77-.19-5.12-.44-5.94C19.15,34.46,17.93,33.38,16,33.92Z" transform="translate(0 0)"/><path class="cls-10" d="M17.4,36.12c-.92-.43-3.21.34-2.13,2.13.56-1.66,1.58-.57,1.42.61-.1.79-1,.81-.11,1.82.46.55,1.39.35,1.86,0C19.93,39.8,18.52,36.63,17.4,36.12Z" transform="translate(0 0)"/><path class="cls-11" d="M26.31,26.37c6.53-.05,11.66-.31,19.37-.82C39.26,24.52,30.17,25.49,26.31,26.37Z" transform="translate(0 0)"/><path class="cls-11" d="M27.13,24.34c5.73-.05,10.24-.27,17-.72C38.5,22.71,30.52,23.56,27.13,24.34Z" transform="translate(0 0)"/><path class="cls-8" d="M50,42.86c1.17-.49.71-2.59-.27-2.75C43.25,53.1,31,51.38,26,45.82c-2.78-3.11-1.62-5.59-3.63-4.93-4,1.35-6,4.13-2.68,4.92-1.4,1-.73,2.8,1.06,2.52-.73,1.54-.37,3.77,1.92,3.33-.9,1.89.59,3.31,2.61,2.28-.09,1.94,2.12,1.71,3.17.65.37,1.85,2.31,2,3.91,1.3.12,2,3.23,1.8,4.16.51,1.25,1.51,5.1,1.43,5.09-.94,1.43,1,5.57-.16,4.14-2.29,1.89,1.42,4.2-2.82,2.1-4,2,.33,2.84-1.76,1.21-3C50.84,46.22,51.8,43.42,50,42.86Z" transform="translate(0 0)"/><path class="cls-12" d="M26.44,47.54a21.74,21.74,0,0,1-3.35-4.22c-1,.93-3.53,4.25-.47,4.2-.58,1.3-.73,3.42,1.41,2.66-.22.63-.53,1.71-.14,2.3.68,1,1.82.06,2.62-.31.27,2.31,1.75,1.27,3.38.7-.54,2.24,2.11,2,3.38,1,0,1.92,3.8,2,4.41.59.89,1.93,3.41.26,4-.91,1.74,1.29,4.36.12,3.28-1.94,2.52.9,2.79-1.36,2-3,2.61-.69,1.72-3.36,1-4.15C43.56,52.49,32.12,53.05,26.44,47.54Z" transform="translate(0 0)"/><path class="cls-13" d="M41.26,15.57A37.47,37.47,0,0,0,31.17,14c-3-.05-6.33-.22-9.16,1.06-1.56.7-3.47,1.67-4.05,3.39a14.23,14.23,0,0,0-.09,6.68c.17,1.1,1,4.08,2.73,3.64,1-.25.9-3.21,1.26-3.22a2.58,2.58,0,0,0,2.59-2.87c1.08,0,2.46-.38,2.66-1.58a2.71,2.71,0,0,0,1.79.71H29c1.21,0,1.38-.76,2.19-1.08,1.12-.44,3,.81,3.76-.84,1.29.81,2.93,1.35,4.11,0,.83,1.27,3.22,2,4.46.88,1.29,1.26,5.07-.17,4-2.22C46.61,16.81,42.94,16.08,41.26,15.57Z" transform="translate(0 0)"/><path class="cls-8" d="M37.33,10.41a28.26,28.26,0,0,0-8.56-.26c-4.71.56-10.4,2.8-11.89,7.79-.91,3.07-.43,6.62-.2,9.76.12,1.58-.4,3.4,0,4.95.33,1.29,1.62,1.77,2.54.61.62-.78,2.83-9,2.22-9.06,1.7.15,2.48-1.29,2.4-2.79,1.36.34,3,.07,3.53-1.44a3.37,3.37,0,0,0,2.23.55c.78-.14,1.07-1.06,1.5-1.18.62-.18,1.6.63,2.35.49s1.2-.74,1.64-1.44c1.13,1.78,3.73,1.38,5.06.13a2.69,2.69,0,0,0,4.1,1.31c-.64.42.93,1.73,1.74,2.21a1.09,1.09,0,0,0,.38.17c1.12.14,1.71-.71,2.22-1.6,1.25-2.21.27-4.53-1.33-6.3C45.21,12,40.22,11,37.33,10.41Z" transform="translate(0 0)"/><path class="cls-12" d="M48.53,16.49c.46-.71.78-1.88,0-2.51a3.44,3.44,0,0,0-3.47.34c.26-1,.14-2.62-.9-3.19s-2.06,1.07-2.48,1.78a4.94,4.94,0,0,0-2-3.35c-1.47-1-2.22.85-2.85,1.9a3.3,3.3,0,0,0-2.53-2.22C33,9,32.39,10.71,31.9,11.7c-1-.93-1.52-2.31-3.07-2.31a2.15,2.15,0,0,0-2.13,1c-.41.77-.12,1.61-.42,2.39-1.23-.61-2-1.65-3.46-1.54-1.79.13-1.8,1.47-1.88,2.94-3.92-1.64-5.17,1.87-3.47,4.17-1.85.29-2.15,4.19,0,4.32-1.46.75-1.85,2.2-.06,3,2,.88,2.54-1.68,2-3.14,1.37.12,1.58-1.06,1.56-2.15.72.22,1.07.6,1.83.26s.82-.89.9-1.72c.68.34,1.32,1,2.16.62a2.59,2.59,0,0,0,1.05-1.82,2.11,2.11,0,0,0,1.86,1c.93-.12,1.14-.67,1.49-1.41a2.57,2.57,0,0,0,2.42.72c1.08-.29,1.28-.89,1.66-1.85,1.47,1.13,4.24,2.26,5.4,0,1.06,1.48,3.67,3.31,5.27,1.38,1.1,1.29,2.12,3,4.12,2.32C51.38,19.11,50.76,16.54,48.53,16.49Z" transform="translate(0 0)"/><path class="cls-10" d="M22.8,34.44c.13.68,1.66.17,2.14.22-.36.47-1.58.62-2.05,1s-.42.57.22.48a12,12,0,0,0,2.69-1.06C26.84,33.93,23.32,34.23,22.8,34.44Z" transform="translate(0 0)"/><path class="cls-10" d="M46.69,34.35a10.35,10.35,0,0,0,2.43,1.06c.57.08.64-.12.19-.49s-1.52-.49-1.84-1c.43-.06,2.16.46,2.28-.23C49.28,33.53,45.76,33.23,46.69,34.35Z" transform="translate(0 0)"/><path class="cls-14" d="M48.9,36.56c-.77-1-2.26-1-3.32-.91-1.38.12-3.18.81-1.8,2.71.74,1,6.3,1.26,5.47-1.15A2.36,2.36,0,0,0,48.9,36.56Z" transform="translate(0 0)"/><path class="cls-14" d="M29.09,36.87c-.83-.84-2.28-.78-3.3-.62-1.34.21-3.63,1.5-1.71,2.82,1.38,1,6.4.56,5.4-1.63A1.85,1.85,0,0,0,29.09,36.87Z" transform="translate(0 0)"/><path class="cls-15" d="M28.32,31.61c-3-.8-4.85,2.51-2.82,3.6a6.61,6.61,0,0,1,2.94.16A1.91,1.91,0,0,0,28.32,31.61Z" transform="translate(0 0)"/><path class="cls-10" d="M37,38.37c-1.25,0-2.35-.56-3.52,0s.17,2.19,3.49,2.11,4.23-1.59,3.62-2.16S38.35,38.35,37,38.37Z" transform="translate(0 0)"/><path class="cls-14" d="M36.88,32.31c-2.35-.21-4.2,4.36-3.2,5.86.7,1,5.88,1,6.7-.22C40.68,37.5,39.13,32.5,36.88,32.31Z" transform="translate(0 0)"/><path class="cls-16" d="M27.26,32.19c-1.21.26-.29,1.74.88,1.2C29,33,28.33,32,27.26,32.19Z" transform="translate(0 0)"/><path class="cls-15" d="M46.63,31c-3.06-.4-4.47,3.14-2.32,3.94a6.71,6.71,0,0,1,2.94-.24A1.9,1.9,0,0,0,46.63,31Z" transform="translate(0 0)"/><path class="cls-16" d="M45.65,31.71c-1.16.42,0,1.76,1,1.07C47.49,32.28,46.69,31.34,45.65,31.71Z" transform="translate(0 0)"/><g class="cls-17"><path class="cls-18" d="M44.75,40c-1.17,2.48,1.93,3.47,3.06,1A2.28,2.28,0,0,1,44.75,40Z" transform="translate(0 0)"/><path class="cls-18" d="M24.43,41.49a1.71,1.71,0,1,0,3.22-1.09A2.55,2.55,0,0,1,24.43,41.49Z" transform="translate(0 0)"/><path class="cls-18" d="M45.82,41.41a.79.79,0,0,0-.93.43,9.44,9.44,0,0,1-8.37,5.35c-4.21.24-7.93-1.8-9.3-5.11a.73.73,0,0,0-.93-.33.67.67,0,0,0-.43.85c1.58,3.82,5.81,6.14,10.64,5.87l.39,0a10.87,10.87,0,0,0,9.35-6.24A.58.58,0,0,0,45.82,41.41Z" transform="translate(0 0)"/></g><path class="cls-8" d="M28.81,27.08c-2.62-.34-6.79.57-6.4,2s1.87.28,3.88.32,3.81.64,4.68,0C32.44,28.3,31,27.37,28.81,27.08Z" transform="translate(0 0)"/><path class="cls-8" d="M44.11,27.06c-1.94.28-3.31,1.18-2.13,2.22.71.62,2.25,0,4.12,0S49,30.34,49.53,29,46.45,26.73,44.11,27.06Z" transform="translate(0 0)"/><path class="cls-19" d="M39.54,30.41c-1.25,1.46-.62,6.34.2,7.93s9.43,1.78,11.51,1,3.77-6.43,2.29-8.69S41.37,28.26,39.54,30.41Zm11.23,7.86c-1.56.54-9.25.39-10-.65s-1-5.42-.1-6.41C42,29.76,51,30,52.3,31.44S52.33,37.72,50.77,38.27Z" transform="translate(0 0)"/><path class="cls-19" d="M18.66,30.88c-1.58,1.52,0,6.52,1.37,8.06s11.31.89,13.31,0,2-6.33.31-8.49S21,28.63,18.66,30.88ZM32.51,38c-1.5.59-10.14,1-11.28.08s-2.43-5.38-1.31-6.37c1.64-1.47,11.17-1.82,12.61-.47S34,37.41,32.51,38Z" transform="translate(0 0)"/><path class="cls-19" d="M34.76,33.35c-.21.11-1.11,1.37-.48,1.67a5.53,5.53,0,0,1,4.91-.4c.37.15.71.11.59-.39C39.32,32.36,36.08,32.7,34.76,33.35Z" transform="translate(0 0)"/><path class="cls-20" d="M46.07,30.6c-.59.16-4.56.91-3.82,2.78.49,1.23,9.73,2.08,10.36,0C53.88,29.24,47.21,30.3,46.07,30.6Z" transform="translate(0 0)"/><path class="cls-20" d="M31.87,30.6c-1.51-.48-4.71-.22-6.56.09-.66.11-3.71.61-2.67,2.6s8.73,2.33,10.13.65A2,2,0,0,0,31.87,30.6Z" transform="translate(0 0)"/><path class="cls-3" d="M46.71,30.92c-1,0-1.68.26-1.46.76.42,1,6.24,1.24,6.72.58S48.85,30.85,46.71,30.92Z" transform="translate(0 0)"/><path class="cls-21" d="M42.22,36.32c-.61-.07-1.06,0-1,.46.15.84,3.71,1.64,4.07,1.17S43.54,36.49,42.22,36.32Z" transform="translate(0 0)"/><path class="cls-3" d="M27.64,30.74c-1,.05-1.64.26-1.42.73.43.91,6.15,1,6.61.42S29.73,30.64,27.64,30.74Z" transform="translate(0 0)"/><path class="cls-21" d="M21.81,36.55c-.61-.06-1,0-1,.43.17.77,3.67,1.46,4,1S23.11,36.68,21.81,36.55Z" transform="translate(0 0)"/></g></g></g></svg>