<svg xmlns="http://www.w3.org/2000/svg" xmlns:xlink="http://www.w3.org/1999/xlink" viewBox="0 0 96 96"><defs><style>.cls-1{fill:none;}.cls-2{clip-path:url(#clip-path);}.cls-3{fill:#fff;}.cls-4{fill:#313142;}.cls-5{fill:#765aa3;}.cls-6{fill:#1e1e29;}.cls-7{fill:#3c3c4d;}.cls-8{fill:#8e4a29;}.cls-9{fill:#261b18;}.cls-10{fill:#783618;}.cls-11{fill:#9c552c;}.cls-12{fill:#66241b;}.cls-12,.cls-14{opacity:0.7;}.cls-13{fill:#45362e;}.cls-14{fill:#f0ded1;}.cls-15{fill:#d17642;}.cls-16{opacity:0.8;}.cls-17{fill:#611f16;}</style><clipPath id="clip-path"><circle class="cls-1" cx="48" cy="48" r="48"/></clipPath></defs><g id="Layer_2" data-name="Layer 2"><g id="Layer_4" data-name="Layer 4"><g class="cls-2"><rect class="cls-3" width="96" height="96"/><path class="cls-4" d="M62.19,78.45c-3.2-7.35-23.13-8.13-29-.21-2.76,3.69-1.83,11.34-.32,17.76H62.23C63.38,90,64.1,82.84,62.19,78.45Z"/><path class="cls-5" d="M49.73,86.12l1.39-2.93a3.64,3.64,0,0,0-4.19-1.87,3.84,3.84,0,0,0-3.19,2.93L46,86.59,43.55,95l.64,1h8.08l.62-1.37Z"/><path class="cls-4" d="M34.3,85.13,35.44,76S24.51,81.21,25.06,96h6.49A25.1,25.1,0,0,1,34.3,85.13Z"/><path class="cls-4" d="M59.81,76,61,85.13A25.18,25.18,0,0,1,63.7,96h6.5C70.74,81.21,59.81,76,59.81,76Z"/><path class="cls-6" d="M37.19,78.62A14,14,0,0,0,43.29,87l4.34-4.55,4.61,4.3c4.4-4.29,5.37-5.16,5.71-8.89S36,73.43,37.19,78.62Z"/><path class="cls-7" d="M37.31,74.67c-2.15,6,5.66,11,5.66,11l4.66-3.2,4.34,3s8.6-4.91,5.34-12C54.39,67.14,39.8,67.65,37.31,74.67Z"/><path class="cls-8" d="M44.15,67.45a6.72,6.72,0,0,0-4.95,6.18c-.16,2.18.19,3.44,1.4,4.65a9.84,9.84,0,0,0,3.79,2.19c1,.32,2.9,1.57,3.22,1.57.13,0,.75-.53,1.74-1,1.45-.76,3.52-1.75,4.32-3.33,1.17-2.31,2.21-6.88,0-8.67S46.9,66.85,44.15,67.45Z"/><path class="cls-9" d="M26.77,53.91c-2.44-.7-4.88-1.38-6.19-3.91-1.39-2.7-.55-5.41,2.26-6.44-5.32.13-4.64-6-.35-7.27-1.68-1.51-3-3.23-2.43-5.63.5-2.19,2.21-3.1,4.32-3-1.82-5.24,1.75-10.18,7.23-7.57-.83-5.62,6.26-7.72,9.51-4.54,2.11-4.51,8.73-5.09,10.84.36C55.24,11,62.1,14,61.63,18.23a6.5,6.5,0,0,1,5.8,2.22c1.24,1.52,1.81,4.38.64,6.1,4.43.14,6,4.91,2.6,7.4,2.75.91,4.2,5.65.7,6.54,1.47,1.36,2.28,5.53-1.19,6.17,2.18,4.28-2.63,7.76-5.28,10.43C61.23,60.78,56,61.41,51,60.88a53.11,53.11,0,0,1-8.54-1.78,89.65,89.65,0,0,1-12.81-4.2A21.19,21.19,0,0,0,26.77,53.91Z"/><path class="cls-10" d="M68.25,59.43a11.28,11.28,0,0,1-4.64.5l-.1-.14c-.68-1.09.55-6.67.9-7.83.88-2.89,2.33-5,5.09-4.19C75.25,49.36,72.94,57.74,68.25,59.43Z"/><path class="cls-11" d="M25.06,54.34c1.61,11.83,10.73,24.8,24.46,23.82,14-1,20.65-18.34,19.18-32.91-.82-8-1.89-26.85-22.9-26.85C19.6,18.4,24.37,49.25,25.06,54.34Z"/><path class="cls-9" d="M23.5,47.08c.68,1.69,3.74,4.84,4.88,2,.66-1.66-.65-4.07-2.57-3.89,2.85-2,.87-5-1.15-6.53.62-.36,3.21-4.73,1.5-4.7,2.94,0,3.69-2.51,3.38-5,2.19.45,5.07-1.4,4.89-3.82,2.27,1.45,4,.16,5.49-1.57.76,2.05,1.91,4.9,4.81,2.83-.33,2.37-.12,5.18,2.34,6.33,4.08,1.91,7-1.46,8.67-4.61-.8,1.56,4.73,1.56,5.43-1.22,0-.07,0-.07,0,0,.15,1.68,1.72,3.15,3.36,2.52.13,1.37,0,4.34,2.14,3.91,0,.7.76,2.59,1.79,1.66,1.89-1.73-2.42-9.13-3.63-10.43-2.45-2.65-6.07-5.55-9.47-6.77-7.17-2.57-17.66-.72-24,3.35a17.6,17.6,0,0,0-7.73,10.72C22.59,36.56,21.69,42.47,23.5,47.08Z"/><path class="cls-11" d="M22.23,59.43a11.28,11.28,0,0,0,4.64.5l.09-.14c.69-1.09-.54-6.67-.89-7.83-.88-2.89-2.33-5-5.09-4.19C15.23,49.36,17.54,57.74,22.23,59.43Z"/><path class="cls-12" d="M24.45,57.36c2.1-1.32.12-5.77-1.46-6.5-1.29-.59-4.51.48-3,3,.81-2.34,2.23-.8,2,.86-.14,1.12-1.35,1.13-.15,2.56C22.49,58.06,23.79,57.77,24.45,57.36Z"/><path class="cls-13" d="M28.91,26.07a3.67,3.67,0,0,0,4.71-2.92c2.7.85,5.41.34,6.59-2.39A6.8,6.8,0,0,0,42.33,24c1.66,1,4.81-.65,5.89-1.94-.83,1.82-1.88,6.26,1.34,7,4,.88,5.29-3.36,5.72-6.15-.1,1.52,1,3.15,2.27,3.26,1.72.17,2.14-.58,2.59-2.09-.4,2.35,3.64,3.19,5.15,2.4,2.54-1.32.86-5-1-6.12-1.15-.69-3.45-1.29-4.48-.11.1-2.13-.71-3.79-2.26-4.21a3.73,3.73,0,0,0-4.52,2.5,6.47,6.47,0,0,0-6.48-3.07c-2.09.29-3.15,1.51-3.8,3.59a6.74,6.74,0,0,0-6.42-2.33c-1.77.49-3.48,3.24-3.82,5C26.31,20.69,26.92,25.29,28.91,26.07Z"/><path class="cls-9" d="M64.11,50.33a4.18,4.18,0,0,0-2.91-.26c-2-1.69-.16-6.91,2.78-5.64C66.16,45.37,66.08,49.3,64.11,50.33Z"/><path class="cls-14" d="M62.55,45.49c1.06-.36,1.72,1.27.88,1.88C62.27,48.22,61.36,45.9,62.55,45.49Z"/><path class="cls-15" d="M66.23,52.27a2.66,2.66,0,0,1,.51.81c1.28,3.07-6.11,3-7.16,1.76-2-2.38.36-3.36,2.18-3.58C63.16,51.08,65.14,51.08,66.23,52.27Z"/><path class="cls-15" d="M37.91,52.78a2.72,2.72,0,0,1,.51.86c1.24,3.27-6.5,3-7.56,1.6-2-2.55.49-3.5,2.4-3.67C34.73,51.43,36.81,51.49,37.91,52.78Z"/><path class="cls-12" d="M53.75,54.27c-.93-.86-2.86.09-4.67.11-1.64,0-3.07-.72-4.61,0s.23,2.85,4.57,2.75S54.56,55,53.75,54.27Z"/><path class="cls-15" d="M49,46.47c-3.07-.27-5.49,5.69-4.18,7.65.92,1.37,7.68,1.32,8.74-.28C53.93,53.25,51.91,46.72,49,46.47Z"/><path class="cls-9" d="M61.9,38.41c2.35-.24,5.85,1,5.29,2.42s-1.86,1.06-3.62,1-3.24-.37-3.91-1.1C58.55,39.51,60,38.59,61.9,38.41Z"/><path class="cls-9" d="M33,50.33a4.18,4.18,0,0,1,2.91-.26c2-1.69.15-6.91-2.79-5.64C30.9,45.37,31,49.3,33,50.33Z"/><path class="cls-14" d="M34.51,45.49c-1.06-.36-1.72,1.27-.87,1.88C34.8,48.22,35.7,45.9,34.51,45.49Z"/><path class="cls-9" d="M35.16,38.41c-2.35-.24-5.85,1-5.29,2.42s1.86,1.06,3.62,1,3.25-.37,3.91-1.1C38.52,39.51,37.11,38.59,35.16,38.41Z"/><g class="cls-16"><path class="cls-17" d="M64.72,58.24a3.32,3.32,0,0,1-4.24-1.19A2.41,2.41,0,0,0,61,59.51c-1.68,4.2-6.27,6.94-11.62,6.91-5.2,0-9.37-2.71-11.13-6.27a2.27,2.27,0,0,0,0-2.58,3,3,0,0,1-3.9,1.56,2.89,2.89,0,0,0,2.23,1.66c2,4.05,6.67,7.09,12.42,7.28h.49c6.16,0,11.38-3.1,13.3-8A2.31,2.31,0,0,0,64.72,58.24Z"/></g></g></g></g></svg>