<svg xmlns="http://www.w3.org/2000/svg" xmlns:xlink="http://www.w3.org/1999/xlink" viewBox="0 0 96 96"><defs><style>.cls-1{fill:none;}.cls-2{clip-path:url(#clip-path);}.cls-3{fill:#fec051;}.cls-4{fill:#f0d5c4;}.cls-5{fill:#85b428;}.cls-6{fill:#ffa763;}.cls-7{fill:#8e9194;}.cls-8{fill:#141418;}.cls-9{fill:#d9d9d9;}.cls-10{fill:#fff;}.cls-11{fill:#acd14b;opacity:0.5;}.cls-12{fill:url(#linear-gradient);}.cls-13{fill:#331f1b;}.cls-14{fill:#593c2d;}.cls-15{fill:#313142;}.cls-16{fill:#1e1e29;}.cls-17{fill:#ed904e;}.cls-18{fill:#85260f;opacity:0.3;}.cls-19{fill:#fca760;}.cls-20{fill:#e6d2c3;opacity:0.7;}.cls-21{fill:#2b221c;}.cls-22{fill:#f7a25b;}.cls-23{fill:#121b21;}.cls-24{fill:#960800;opacity:0.4;}.cls-25{fill:#8f2621;}.cls-26{fill:#fff9f0;}.cls-27{fill:#e8dac5;}</style><clipPath id="clip-path"><circle class="cls-1" cx="48" cy="48" r="48"/></clipPath><linearGradient id="linear-gradient" x1="50.51" y1="69.48" x2="50.22" y2="81.66" gradientUnits="userSpaceOnUse"><stop offset="0" stop-color="#e37c32"/><stop offset="1" stop-color="#ed904e"/></linearGradient></defs><g id="Layer_2" data-name="Layer 2"><g id="Layer_4" data-name="Layer 4"><g class="cls-2"><rect class="cls-3" width="96" height="96"/><path class="cls-4" d="M41.1,86.32c1-1.33,0-9.64-1.38-9.15C35.5,78.7,31.09,88.91,31.35,96h7.82C38.88,93,39.58,88.32,41.1,86.32Z"/><path class="cls-5" d="M39.87,76.85c-5,2.63-9.16,8.6-9.21,16.24a23.1,23.1,0,0,0,9,.9,10.79,10.79,0,0,1,1.81-7.56C42.52,85.06,41.22,76.14,39.87,76.85Z"/><path class="cls-6" d="M71.1,71.91c-3.48,4.23,0,5.44,3.34,7.64,1.66,1.09,3.63,3,5,.22.77-1.6.77-2.88,1.37-4.53a17.25,17.25,0,0,1,2-4.4C85.24,67.71,81.85,58.83,71.1,71.91Z"/><path class="cls-7" d="M70,52.16a1.38,1.38,0,0,0-1.94.06l-7.94,8a1.36,1.36,0,0,0,0,1.93L74.3,76.27a1.38,1.38,0,0,0,1.94-.06l7.94-8a1.37,1.37,0,0,0,0-1.93Z"/><path class="cls-8" d="M69.52,51.71a1.32,1.32,0,0,0-1.87.08L59.86,59.6a1.35,1.35,0,0,0-.07,1.88L73.33,75a1.33,1.33,0,0,0,1.87-.09L83,67.06a1.33,1.33,0,0,0,.08-1.87Z"/><path class="cls-9" d="M69.52,51.71a1.32,1.32,0,0,0-1.87.08L59.86,59.6a1.35,1.35,0,0,0-.07,1.88L73.33,75a1.33,1.33,0,0,0,1.87-.09L83,67.06a1.33,1.33,0,0,0,.08-1.87Z"/><path class="cls-10" d="M69.67,54.5a1,1,0,0,0-1.43,0l-5.67,5.7a1,1,0,0,0,0,1.42L73,72a1,1,0,0,0,1.43,0l5.67-5.7a1,1,0,0,0,0-1.42Z"/><path class="cls-4" d="M73.78,79.1c.69,14.38-9-.86-13.46-1.18-1.49-.12.32,8,1.14,9.17,6.39,8.76,19.74,6.12,18.69-7.56Z"/><path class="cls-5" d="M60.8,87.72c2.26,3.77,6.44,5.36,8.76,5.92,1.68-2.2,2.15-6,2.28-8.88-3.58-.73-9.23-7.12-12.16-7.33C58.12,77.31,60.05,86.47,60.8,87.72Z"/><path class="cls-6" d="M68.24,70.33c-.24.69.92,1.93,1.2,2.54.45,1-.29,2.79.89,3.55,1,.62,1.72-.11,2.1-.92.69-1.49,0-3.37-1.36-4.72C70.45,70.16,68.63,69.26,68.24,70.33Z"/><path class="cls-5" d="M62.4,92.53c2.47-4,3.2-12.66-2.37-15.65-4.24-2.28-15.45-3.66-20.14,0-5.11,4-4,10.4-2.55,16.47A17.15,17.15,0,0,0,38.25,96H60.5A20.87,20.87,0,0,1,62.4,92.53Z"/><path class="cls-4" d="M41.9,76.85a3.11,3.11,0,0,0,.51,2.43C46,85,55.77,84.81,58.48,78.92a2.85,2.85,0,0,0-.11-2.81C56,72.14,43.1,72.13,41.9,76.85Z"/><path class="cls-11" d="M58.16,83.74c-2.77,2.67-11.83,2.62-15.13-1-1.87-2-3.87,2.05-3.11,4.91,1,3.8,6.4,4.95,11.12,5,9.32.12,12.44-4.06,10.94-8.74C61.58,82.67,60,82,58.16,83.74Z"/><path class="cls-12" d="M50.35,69.48c-2.75,0-6.64,1.59-6.92,5.8-.12,2,.17,3.09,1.19,4.17,2.85,3,8.8,2.84,11.47,0,1-1.08,1.31-2.22,1.18-4.17C57,71.07,53.11,69.47,50.35,69.48Z"/><path class="cls-13" d="M34.17,46.47C24,42.46,16.68,49.18,18,62.36c.76,7.52-1.45,11-5.34,9.63.94,4.35,14.41,10.94,25.55.61C53.1,58.82,39.05,48.4,34.17,46.47Z"/><path class="cls-14" d="M32.15,47.74c-2.46-2-9.52-.83-12.26,6.39-2.36,6.2,1.59,12.69-.48,17.18,6.2.08,4.49-10.24,9-13.32C34.88,53.59,32.15,47.74,32.15,47.74Z"/><path class="cls-15" d="M26.73,34.87C13.88,38.12,16.3,63.53,33,61.83,45.56,60.55,35.69,32.6,26.73,34.87Z"/><path class="cls-16" d="M33.09,49.92a9.09,9.09,0,0,1-4.21.58c-1.55-.23-4.74-2.21-5.89-.72-.4.53-.13,1.8-.52,2.45-1.23,2-2.49,2.17-.92,4.57a14.06,14.06,0,0,0,3.35,3.49c2.54,1.79,5.41,1.85,8.49,1.54,3.24-.33,5.31-2.16,5.85-5.22.45-2.61.73-7.37-2.94-7.34A10.9,10.9,0,0,0,33.09,49.92Z"/><path class="cls-13" d="M70.58,26.27c-.1-.24-.2-.47-.32-.7,1.89-.57,4.12-2.25,5.73-3.4a67.53,67.53,0,0,1-9.06-2.88,13.59,13.59,0,0,0,3.63-2.09c-6.06-.3-14.85-3.52-19.7-3.86-8-.58-16.68,1.78-22.42,7.92C18.06,32.34,19.62,52.94,32.2,63.62c4.46,3.78,9.7,5,15.3,6.09,7,1.41,12.75.23,17.23-5.7,6.25-8.26,8.86-21.22,6.46-31.16C70.69,30.75,71.37,28.32,70.58,26.27Z"/><path class="cls-17" d="M30.59,55.94c1.19,10.5,9.94,21.57,21.19,21.57,11,0,18.94-15.87,17.63-28.78C68,34.7,61.6,22.89,47,25.4,36.62,27.19,29,41.93,30.59,55.94Z"/><path class="cls-18" d="M69.13,31.93c-3.51-1.32-6.11-2.8-9.63-4a40.22,40.22,0,0,0-11.69-2.24c-3.78-.15-7.89-.46-11.45,1.06-2.8,1.2-4.67,2.39-5.34,5.3-1.09,4.75-.76,12.22,1.77,16.43a31,31,0,0,1,2.47-10.13c4.13,1.53,13.13,1.8,19,.5a9.86,9.86,0,0,1-2.18-1.57,61.43,61.43,0,0,0,14-1.52C68.89,35.17,73,33.38,69.13,31.93Z"/><path class="cls-17" d="M28,60.39a10.12,10.12,0,0,0,4.1.53l.09-.12c.63-.95-.1-6.38-.39-7.41-.73-2.59-2.22-4-4.68-3.35C22,51.33,23.86,58.81,28,60.39Z"/><path class="cls-18" d="M30,58.59c1.87-1.12.21-5.1-1.17-5.77-1.13-.56-4,.33-2.71,2.6.75-2.06,2-.67,1.75.79-.15,1-1.21,1-.18,2.27C28.25,59.18,29.41,59,30,58.59Z"/><path class="cls-13" d="M79.82,29.05a24.23,24.23,0,0,1-5.41,0c1.53-.51,3.78-1.72,4.49-3.09-3.51.42-8.62-.58-9.62-.75a22.14,22.14,0,0,1-8.56-3.43C55,18.06,48.56,17.83,42,18.81a25.23,25.23,0,0,0-8,2.33c-2.13,1.13-3,3.87-4,5.95-2.39,4.86-.48,22.8.31,23.58a6.13,6.13,0,0,1,1.32,2.72,3.26,3.26,0,0,0,2.29.67A28.46,28.46,0,0,1,32.72,45a39.9,39.9,0,0,1,2-9.86c3.67,3.48,12.16,3.2,16.31,2.64-.59-.52-1.57-1.35-2.09-1.91C55.76,36,74.68,34.73,79.82,29.05Z"/><path class="cls-14" d="M44.24,15.67c13.76-1,24.54,7,25.92,7.34-1,1.85-3.41,2.34-4.84,3.75a16.83,16.83,0,0,0,7.47.47c-.5,1.1-2.52,1.85-3.59,2.33-6.64,3-12.85,2.79-19.71,1.32a28.23,28.23,0,0,0,3.09,1.93c-4.48.73-10.3.22-14-2.8.92,2.26,3,3.5,4.08,5.63-3.57.2-7.72-1.57-10.54-3.6-1.1,4.42-2.36,8.82-2.05,14.59-3.67,0-6-4.17-6-4.19C22.23,34.18,25.48,25.94,30,21.7A24.83,24.83,0,0,1,44.24,15.67Z"/><path class="cls-19" d="M68.89,55.13c-.42-1.32-2.13-1.79-3.41-2-1.67-.24-4.1.08-3.42,2.65.36,1.36,6.7,3.16,6.92.14A2,2,0,0,0,68.89,55.13Z"/><path class="cls-19" d="M43.46,55.26a2.35,2.35,0,0,0-.46-.77c-1-1.12-3-1-4.32-.77-1.79.32-4.11,1.41-2.29,3.65C37.35,58.57,44.57,58.23,43.46,55.26Z"/><path class="cls-13" d="M41.48,52a4.65,4.65,0,0,0-2.92-.31c-2-1.6-.08-6.25,2.86-5C43.61,47.57,43.48,51.12,41.48,52Z"/><path class="cls-20" d="M40.28,47.54c1.07-.29,1.71,1.2.86,1.72C40,50,39.08,47.87,40.28,47.54Z"/><path class="cls-13" d="M66.62,52a4.66,4.66,0,0,0-2.92-.32c-2-1.6-.08-6.24,2.86-5C68.75,47.58,68.61,51.13,66.62,52Z"/><path class="cls-20" d="M65.36,47.59c1.07-.29,1.71,1.2.86,1.72C65,50,64.16,47.92,65.36,47.59Z"/><path class="cls-21" d="M42.25,44.64c1,0,2.19-.12,2.32-.86.17-1-.55-1.37-1.69-1.38-1.57,0-8.19.66-8.37,1.32C34.24,44.65,37.14,44.82,42.25,44.64Z"/><path class="cls-21" d="M69.67,44c-.16-.66-5.48-1.29-6.74-1.27-.91,0-1.48.4-1.33,1.39.12.74,1.06.81,1.88.84C67.58,45.12,69.9,44.93,69.67,44Z"/><path class="cls-18" d="M56.75,55.29c-.54-.95-1.51-.1-3.13-.29-1.47-.16-1.4-1-2.49-.39s-.4,2.91,2.19,3.13S57.21,56.1,56.75,55.29Z"/><path class="cls-22" d="M53.44,50.72c-1.21,0-3.17,4-2.59,4.59,1.41,1.57,4.72,1,5.75,0C57,54.94,54.8,50.76,53.44,50.72Z"/><path class="cls-23" d="M72.23,43.78S71.43,48,66,47.67A3.17,3.17,0,0,0,62.88,50,3.45,3.45,0,0,1,65.76,46C67.46,45.75,69.77,46.55,72.23,43.78Z"/><path class="cls-23" d="M33.29,44s1.05,4.18,6.46,3.51A3.18,3.18,0,0,1,43,49.6a3.44,3.44,0,0,0-3.1-3.73C38.17,45.69,35.91,46.62,33.29,44Z"/><path class="cls-24" d="M47.7,60c-3.35.72-8,3.32-4.81,7s12.84,3.63,17.3.84c2.2-1.37,3.14-4.39.75-6.25l3.13-1.35C58.65,59.44,53,58.89,47.7,60Z"/><path class="cls-25" d="M43.38,64.65c1.34,3.17,11.43,3,14.91,1.88,3.22-1,3.52-3.6,1.18-5.26.45-.13,1.07-.4,1.68-.6C51.36,59.4,41.85,61.05,43.38,64.65Z"/><path class="cls-26" d="M59.72,60.54C54.9,60,48.65,60,45.1,61.72c-.72.35-.58.73.38,1.11,1.67.65,5.88,0,8.09,0,5.45-.1,6,.42,6.43-.16S60.92,60.67,59.72,60.54Z"/><path class="cls-27" d="M59.88,60.57c-2-.4-11.8-1-15.13,1.39,0,0-.68.46.73.87a21.22,21.22,0,0,1,14.92-1S60.76,60.7,59.88,60.57Z"/></g></g></g></svg>