<svg xmlns="http://www.w3.org/2000/svg" xmlns:xlink="http://www.w3.org/1999/xlink" viewBox="0 0 96 96"><defs><style>.cls-1{fill:none;}.cls-2{clip-path:url(#clip-path);}.cls-3,.cls-8{fill:#fff;}.cls-4{fill:#d47844;}.cls-5{fill:#23232d;}.cls-6{fill:url(#linear-gradient);}.cls-7{fill:#fff9f0;}.cls-8{opacity:0.07;}.cls-9{fill:#231e1a;}.cls-10{fill:#ebebeb;}.cls-11,.cls-12{fill:#661004;}.cls-11{opacity:0.3;}.cls-12{opacity:0.2;}.cls-13{fill:#423631;}.cls-14{fill:#d4502c;}.cls-15{fill:#ffc48f;}.cls-16{fill:#261b18;}.cls-17{fill:#c9afaf;}.cls-18{fill:#2b221c;}.cls-19{fill:#121b21;}.cls-20{fill:#e64343;}.cls-21{fill:#78231f;}.cls-22{fill:#e8dac5;}</style><clipPath id="clip-path"><circle class="cls-1" cx="48" cy="48" r="48"/></clipPath><linearGradient id="linear-gradient" x1="47.62" y1="75.49" x2="47.62" y2="80.68" gradientUnits="userSpaceOnUse"><stop offset="0" stop-color="#c25421"/><stop offset="1" stop-color="#d47844"/></linearGradient></defs><g id="Layer_2" data-name="Layer 2"><g id="Layer_4" data-name="Layer 4"><g class="cls-2"><rect class="cls-3" width="96" height="96"/><path class="cls-4" d="M40.49,80.05c-5.22,1.83-5.58,6.07-7.74,16h4.83c.94-4.35,1.73-8.49,4-10.38C43.34,84.12,43.08,79.14,40.49,80.05Z"/><path class="cls-4" d="M54.86,80.05c-2.6-.91-2.86,4.07-1.07,5.57,2.24,1.89,3,6,4,10.38h4.83C60.43,86.12,60.07,81.88,54.86,80.05Z"/><path class="cls-4" d="M55.91,80.27c-3-2.16-13-2.65-16.85.28S39.53,89.1,40.6,96H55C55.87,89.13,59.88,83.15,55.91,80.27Z"/><path class="cls-5" d="M56.46,90.05c-1.27-2.76-1.22-7.57-.55-9.78a2.91,2.91,0,0,0-1.33-.84c-3.53-1.17-10-1.55-13.91.1a6.23,6.23,0,0,0-1.61,1,15.17,15.17,0,0,1-.35,9A36.22,36.22,0,0,1,40.35,96H55.26A37.53,37.53,0,0,1,56.46,90.05Z"/><path class="cls-6" d="M51.73,73.36c.3-5.2-8.67-5.39-8.66.28,0,2.51.1,4.1-.59,4.77a11.23,11.23,0,0,1-1.81,1.12c.82,5.26,1.38,7.37,7,7.37,5.09,0,6.44-1.63,6.91-7.47a13.22,13.22,0,0,1-2.37-1.16C51.4,77.62,51.6,75.65,51.73,73.36Z"/><path class="cls-7" d="M42.23,78.46a.78.78,0,0,0-.74.79.76.76,0,0,0,.79.74A.75.75,0,0,0,43,79.2.77.77,0,0,0,42.23,78.46Z"/><path class="cls-7" d="M44,79.65a.76.76,0,0,0-.73.79.77.77,0,0,0,.79.74.76.76,0,0,0,.73-.79A.77.77,0,0,0,44,79.65Z"/><path class="cls-7" d="M46.24,80.45a.77.77,0,0,0,0,1.53.77.77,0,0,0,0-1.53Z"/><path class="cls-7" d="M48.51,80.57a.77.77,0,1,0,.05,1.53.77.77,0,0,0-.05-1.53Z"/><path class="cls-7" d="M52.61,78.39a.76.76,0,0,0,0,1.52.76.76,0,1,0,0-1.52Z"/><path class="cls-7" d="M50.79,79.73a.77.77,0,1,0,.79.74A.78.78,0,0,0,50.79,79.73Z"/><path class="cls-8" d="M51.38,87.46c-2.54.9-5.64.52-8.25-.13-1.5-.38-2.34,1.32-1.88,2.77.61,1.93,3.73,2.43,6.44,2.39,5.35-.08,7.35-2.07,6.44-4.44C53.89,87.41,52.75,87,51.38,87.46Z"/><path class="cls-9" d="M16.64,25.18C23.1,19.58,40,8.32,48.13,17.45,59.86,3.35,83.54,25,88.77,35.2c2,3.84,6.2,10.87-.81,11,3.35,1.78,3.41,7.51-1,6.5,1.75,3.12,1.53,7.84-2.69,6.76,2,3.48-2.3,7-5.89,4.45.47,4.62-3.41,5.25-6,3.35.2,10.82-13.34-2.89-21-2.56-8.5.36-20.7,15.35-23.36,6-2.59,2.33-6.36,1.81-7.65-1.84-3.67,1.31-6.72-1-6.27-4.81C9.92,64,8.68,60.21,10.49,57c-4.7-.91-3.76-7-1.3-10.08C-2.37,47.56,8.39,32.34,16.64,25.18Z"/><path class="cls-10" d="M70.4,58.58a2.2,2.2,0,1,1-2.48-2.28A2.39,2.39,0,0,1,70.4,58.58Z"/><path class="cls-4" d="M28,52C29.6,67.86,40.27,77.28,51.81,77.15,60.67,77,70.77,62,68.7,46.2c-2-15.6-10.93-23.46-22.37-22S26.48,36.12,28,52Z"/><path class="cls-4" d="M26.09,60.39a8.53,8.53,0,0,0,4.23-.12c0-.05,0-.11.07-.17.51-1.28-1.12-7.14-1.55-8.33-1.06-3-2.56-5-5-3.8C18.85,50.51,21.72,59.25,26.09,60.39Z"/><path class="cls-11" d="M28.58,58.16c2.29-1.41.12-6.38-1.61-7.21-1.42-.7-5,.41-3.29,3.24.87-2.57,2.44-.84,2.2,1-.16,1.23-1.47,1.21-.17,2.82C26.42,58.88,27.86,58.6,28.58,58.16Z"/><path class="cls-10" d="M30.42,61.64a2.28,2.28,0,0,1-1.88,2.58,2.48,2.48,0,0,1-.32-4.88A2.25,2.25,0,0,1,30.42,61.64Z"/><path class="cls-12" d="M41.51,26.94a58.32,58.32,0,0,1,18.77-2.26c3.34.12,7,.53,7.74,4.45.34,1.94,1.65,7.88-.75,9.13-1.37.71-3.73-1.06-4.52-2.95-.06,1.33.67,3-1.63,3.63S56.19,35.25,54,33.56c-8.95-7.1-13.49,11.55-19.13,6.72.2,2.27-.92,7-3.34,5.95,1.09,2.93,2.53,9.16.4,11.91-3.59,4.64-5.12-4.48-5.53-7.71C25.16,40.58,32.08,29.79,41.51,26.94Z"/><path class="cls-9" d="M27,54.91c1.19,4.12,2.87,5,4.08,1.18.83-2.63-.55-8.47-.34-13.2.28,1.35.79,3,2.23,2.55s1.18-5.22,1.35-8.13c1.7,6.14,9.45-4.09,11.2-5.55,4.85-4.07,6.78-1.88,10.45,1.55,1.68,1.57,3.58,4.72,5.41,3.85,1.42-.68.91-3.22.94-4.62a9.58,9.58,0,0,0,4.22,4.7c1.73,1,3.29-2.94,1.24-8.18-1.08-2.77-2.8-5.31-5.6-6.44-11.31-4.56-22.46-1-32.67,4.46a12.41,12.41,0,0,0-5.19,5.28C22.28,36.45,24.67,46.69,27,54.91Z"/><path class="cls-13" d="M13,33.25c-2,2.18-7.1,6.92-4.31,8.83s12.75-9.78,17-12.92c-2.05,1.82-10,10.07-8.12,13.13,2,3.4,7.61-4.28,9.48-6.34-1.23,2.13-2.35,7.12-.5,7.53s3.67-4.68,4.69-7.3c-.29,1.35-1,5.16.58,5.12s1.84-6.9,2.94-9.89c.48,7.63,7.25-1.78,9.08-3.25,3.91-3.14,5.45-3.39,9.69-.68,2.21,1.41,4,5.33,6,5.22s1.83-3.68,1.25-5.81c1.27,2.67,5.77,10.35,6.71,3.4,1.23,4.51,10.33,17,7.75,5.64.88,2.07,4.92,8,7.57,5.85,2.46-2-5-9.55-3.84-10.48,1.08,1.45,3.49,4.05,5.31,2C86.42,31,73.16,21.46,71.84,20.6c-3.47-2.27-7.79-4.45-12-4.87a7.83,7.83,0,0,0-6,1.49c-1.12.93-3.24,4.32-2.29,5.9,0,.05.06.07,0,0C41.09,6.63,21.43,23.75,13,33.25Z"/><path class="cls-14" d="M67.73,52.93a2.5,2.5,0,0,1,.28.85c.46,3.06-6.21,1.34-6.87,0-1.24-2.6,1.09-3,2.78-2.75C65.23,51.15,67,51.6,67.73,52.93Z"/><path class="cls-14" d="M41.48,52.81a2.48,2.48,0,0,1,.66.67c1.88,2.65-5.18,4.18-6.46,3.2-2.39-1.84-.37-3.28,1.32-3.88C38.29,52.33,40.19,51.91,41.48,52.81Z"/><path class="cls-11" d="M55.72,54c-.6-.86-1.45,0-3,0-1.4,0-1.4-.8-2.4-.18s-.14,2.81,2.35,2.81S56.23,54.72,55.72,54Z"/><path class="cls-15" d="M52.18,49.9c-1.15.07-2.69,4-2.09,4.58,1.48,1.39,4.58.57,5.5-.45C55.94,53.62,53.49,49.82,52.18,49.9Z"/><path class="cls-16" d="M65.15,45c-4-1.5-7.29,3.44-4.39,5.82.53-.64,3.53-1.75,5.47-.41C67.77,49.15,67.26,45.75,65.15,45Z"/><path class="cls-17" d="M65.69,47.62c.93-.33,1.36,1.09.6,1.63C65.24,50,64.64,48,65.69,47.62Z"/><path class="cls-17" d="M62,45.65c1.58-.56,2.31,1.85,1,2.78C61.18,49.73,60.18,46.29,62,45.65Z"/><path class="cls-16" d="M36.26,46.49c3.75-1.93,7.63,2.6,5,5.28-.6-.57-3.71-1.33-5.48.22C34.13,51,34.25,47.53,36.26,46.49Z"/><path class="cls-17" d="M36,49.21c-1-.23-1.23,1.23-.41,1.69C36.75,51.54,37.1,49.46,36,49.21Z"/><path class="cls-17" d="M39.5,46.83c-1.64-.38-2.09,2.1-.69,2.87C40.74,50.79,41.34,47.27,39.5,46.83Z"/><path class="cls-16" d="M41.28,40.71c1-.09,1.7.4,1.3,1.42-.32.82-1.39.81-2.16.95-1.14.21-2.3.28-3.45.46a18,18,0,0,0-4.38,1.08c-.27.12-.48.35-.8.34a1.59,1.59,0,0,1,.55-1.14,9.72,9.72,0,0,1,3.34-2A21.56,21.56,0,0,1,41.28,40.71Z"/><path class="cls-18" d="M59.14,39.75c-1,0-1.62.54-1.16,1.48.36.75,1.41.64,2.17.7,1.13.09,2.26,0,3.39.11a17.56,17.56,0,0,1,4.34.62c.28.08.5.28.81.25,0-.37-.32-.79-.61-1a9.48,9.48,0,0,0-3.41-1.6A21,21,0,0,0,59.14,39.75Z"/><path class="cls-19" d="M71.88,44.14S69.25,48,63.88,46c-2.36-.89-4,1.41-4,1.41a4,4,0,0,1,4.46-3.06C66.19,44.57,68.19,46.06,71.88,44.14Z"/><path class="cls-19" d="M29.62,46.41s3,3.59,8.13,1.06c2.27-1.12,4.12,1,4.12,1a4,4,0,0,0-4.74-2.63C35.32,46.29,33.47,48,29.62,46.41Z"/><path class="cls-20" d="M64.25,58.21c-3.6,1-7.21.79-12.69,1.26-4.54.39-11.14,2-14.84.36C43.21,68.54,47,70,51.67,70c5.87,0,7.65-3.82,8.38-6.65C60.36,62.16,63.14,59,64.25,58.21Z"/><path class="cls-21" d="M39.57,61.25a50.11,50.11,0,0,0,22.37-1.51A6,6,0,0,0,59.18,63c-.75,2.11-3.73,3.71-8.4,3.88C43.51,67.13,39.57,61.25,39.57,61.25Z"/><path class="cls-7" d="M42.3,61.64s.32,1.83,3,2.39a25.7,25.7,0,0,0,10.61-.16c2.46-.49,3.52-3.46,3.52-3.46A53.76,53.76,0,0,1,42.3,61.64Z"/><path class="cls-7" d="M43.67,64.23c-.29-.47-.22-1.25,1-.6,1.72.91,4.49,1,7.81.67,3.08-.28,4.59-1.22,5.23-.73S55.77,67.22,50.44,67C44.88,66.69,43.67,64.23,43.67,64.23Z"/><path class="cls-22" d="M43,62.9s12.39-1.69,15.42-.82a5.94,5.94,0,0,0,.93-1.67A61.76,61.76,0,0,1,42.3,61.64,2.92,2.92,0,0,0,43,62.9Z"/><path class="cls-22" d="M45.69,64a18.9,18.9,0,0,0,9.83-.15S50.29,66.22,45.69,64Z"/></g></g></g></svg>