<svg xmlns="http://www.w3.org/2000/svg" xmlns:xlink="http://www.w3.org/1999/xlink" viewBox="0 0 66 66"><defs><style>.cls-1{fill:none;}.cls-2{clip-path:url(#clip-path);}.cls-3{fill:#f1c4b5;}.cls-4{fill:#8f4e20;}.cls-5{fill:#ffb685;}.cls-6{fill:#404048;}.cls-7{fill:#141418;}.cls-26,.cls-28,.cls-8{fill:#fff;}.cls-9{fill:#7d421d;}.cls-10{fill:#e0e0e0;}.cls-11{opacity:0.1;}.cls-12{fill:#e88e61;}.cls-13{fill:#ad652b;}.cls-14{fill:#4f3023;}.cls-15{fill:#ffb97f;}.cls-16{fill:#bf3c1b;}.cls-16,.cls-26{opacity:0.3;}.cls-17{fill:#a82807;opacity:0.4;}.cls-18{fill:#693a27;}.cls-19{fill:#121b21;}.cls-20{fill:#ffcb9e;}.cls-21{fill:#7d8ba8;}.cls-22{fill:#8f2724;}.cls-23{fill:#fff9f0;}.cls-24{fill:#e8dac5;}.cls-25{fill:#3a3a4a;}.cls-27{fill:#c1c5c9;}.cls-28{opacity:0.7;}</style><clipPath id="clip-path" transform="translate(0.01)"><circle class="cls-1" cx="33" cy="33" r="33"/></clipPath></defs><g id="Layer_2" data-name="Layer 2"><g id="avatars"><g class="cls-2"><rect class="cls-3" width="66" height="66"/><path class="cls-4" d="M17.11,66h7.74l-3.22-11C19.65,56.21,17.92,57.79,17.11,66Z" transform="translate(0.01)"/><path class="cls-5" d="M45.54,41.71c-1.83,3.4.75,3.76,3.35,4.84,1.29.53,2.91,1.59,3.47-.52a31.12,31.12,0,0,0,.34-3.32,12.2,12.2,0,0,1,.79-3.32C54.77,36.9,51.22,31.2,45.54,41.71Z" transform="translate(0.01)"/><path class="cls-6" d="M42.28,27.68A1,1,0,0,0,41,28l-4.42,6.59a1,1,0,0,0,.22,1.35l11.73,7.87a1,1,0,0,0,1.34-.31l4.41-6.59A1,1,0,0,0,54,35.55Z" transform="translate(0.01)"/><path class="cls-7" d="M41.86,27.43a1,1,0,0,0-1.29.32L36.24,34.2a.94.94,0,0,0,.2,1.31L47.63,43a.93.93,0,0,0,1.29-.31l4.33-6.46a.94.94,0,0,0-.21-1.3Z" transform="translate(0.01)"/><path class="cls-7" d="M41.86,27.43a1,1,0,0,0-1.29.32L36.24,34.2a.94.94,0,0,0,.2,1.31L47.63,43a.93.93,0,0,0,1.29-.31l4.33-6.46a.94.94,0,0,0-.21-1.3Z" transform="translate(0.01)"/><path class="cls-8" d="M42.34,29.35a.71.71,0,0,0-1,.18l-3.16,4.71a.71.71,0,0,0,.2,1L47,41a.73.73,0,0,0,1-.19l3.15-4.71a.71.71,0,0,0-.2-1Z" transform="translate(0.01)"/><path class="cls-5" d="M45.37,40.64c-.52-.37-1.93-.76-2,.09-.08.53.9,1.29,1.18,1.7.45.66.17,2.11,1.1,2.5.76.32,1.2-.34,1.35-1A3.36,3.36,0,0,0,45.37,40.64Z" transform="translate(0.01)"/><path class="cls-4" d="M52.91,42.76l-5.29,4.37s4.86,3.21,4.15,6.19c-.38,1.59-3.21,3.57-6.68,1.77-.91-.47-.63,6.73-.42,6.83a9.55,9.55,0,0,0,12.12-4.75C60.41,49.56,52.91,42.76,52.91,42.76Z" transform="translate(0.01)"/><path class="cls-9" d="M52.83,56.06a15.62,15.62,0,0,0-1.15,5.87,9,9,0,0,0,5.11-4.76,9.87,9.87,0,0,0,1-3.83A4.85,4.85,0,0,0,52.83,56.06Z" transform="translate(0.01)"/><path class="cls-10" d="M41.28,53.52c-4.3-5-12.17-3.38-15.1-.92S23,57.07,26.62,62c1.09,1.51,2.17,2.84,3.15,4h6.78C39.46,61.88,43.18,55.71,41.28,53.52Z" transform="translate(0.01)"/><path class="cls-11" d="M37,54.12a6.41,6.41,0,0,1,0,2.47,28.81,28.81,0,0,1-2.14,4.74c.3-.29,2-3.2,2.69-4s1.39,0,2.27.13A25.68,25.68,0,0,0,37,54.12Z" transform="translate(0.01)"/><path class="cls-11" d="M29.87,54.22A25.68,25.68,0,0,0,27,57.56c.88-.15,1.54-.94,2.27-.13s2.6,3.87,2.89,4.16a28.9,28.9,0,0,1-2.34-4.9A6.41,6.41,0,0,1,29.87,54.22Z" transform="translate(0.01)"/><path class="cls-4" d="M25.18,54.16a8.75,8.75,0,0,1,.53-1.49c-2.33,1-5,2.76-5.46,3.95-.17.43,2,4.12,3.13,9.38h7.45C27.94,63,23.72,57.79,25.18,54.16Z" transform="translate(0.01)"/><path class="cls-4" d="M46.62,56.12c-.73-.79-4.59-2.68-5.88-3.3a4.66,4.66,0,0,1,.38,1.38c-.34,4.84-3.4,9.23-5.59,11.8h8.13C44.82,60.08,46.94,56.47,46.62,56.12Z" transform="translate(0.01)"/><path class="cls-12" d="M31.35,46.4a4.65,4.65,0,0,0-3.43,4.26,3,3,0,0,0,2,3.21c.66.33.09,1.65.21,2.44.66.12.72.1,1.11.59s1.36,3.61,2.07,4.78c.2-.6,2.39-5.43,2.51-5.83.25,0,.53-.05.78,0a6.93,6.93,0,0,0,.1-2.09,2.87,2.87,0,0,0,2-2.66c.21-1.19.28-2.76-.77-3.61C36.34,46.19,33.25,46,31.35,46.4Z" transform="translate(0.01)"/><path class="cls-13" d="M42.48,60.6c-.11-.17-1.49-1.5-1.49-1.5a16.27,16.27,0,0,0,2.3-1.1c.11-.19,0-3.68,0-4.06s-.9-.69-1.82-1.25-1.31-.58-1.36.11c-.33,5-3.56,10.52-5.37,13.2h2.12C39.41,63.64,42.55,60.7,42.48,60.6Z" transform="translate(0.01)"/><path class="cls-13" d="M25.12,52.69c-.92.56-1.85.87-1.82,1.25s-.13,3.87,0,4.06a16.27,16.27,0,0,0,2.3,1.1s-1.38,1.33-1.49,1.5,3.07,3,5.64,5.4h2.12c-1.81-2.68-5-8.18-5.37-13.2C26.43,52.11,26,52.13,25.12,52.69Z" transform="translate(0.01)"/><path class="cls-8" d="M33.83,63.43a.66.66,0,1,0,0,1.32.66.66,0,1,0,0-1.32Z" transform="translate(0.01)"/><path class="cls-14" d="M44.71,20.89C44.84,12.37,37.43,7,25.62,9.14,5,13,11.51,41.48,17.31,39.61,21.6,38.22,25.78,36.52,30,35c3.94-1.43,8.5-1.13,12.67-1.28,3.27-.13,3.07-1.49,3-4.14C45.42,24.63,44.68,22.9,44.71,20.89Z" transform="translate(0.01)"/><path class="cls-15" d="M27,15.21c-7.49,2.29-11.72,13.85-9.23,24,1.87,7.61,8.72,15.46,17.62,13.87,9.08-1.61,12.44-13.45,10.26-22.82C43.27,20.08,37.47,12,27,15.21Z" transform="translate(0.01)"/><path class="cls-15" d="M14.64,35.21C11,36.63,13.08,42,16.26,42.73a7.39,7.39,0,0,0,3.07,0,.93.93,0,0,0,.05-.1c.38-.76-.81-4.32-1.12-5C17.48,35.76,16.39,34.52,14.64,35.21Z" transform="translate(0.01)"/><path class="cls-16" d="M40.66,16.65a38.16,38.16,0,0,0-13.08-1.34c-3,.27-7.63.57-9.83,3.07-1.77,2-1.56,5.36-1.42,7.84.06.94.83,8.12,1.21,6.51.69-2.92,2.87-4.23,2.48-7.18,4.62,1.5,11.23.62,16.93-.58,3.58-.75,6.39-1.95,7.44,1C43.88,23.67,42.1,17,40.66,16.65Z" transform="translate(0.01)"/><path class="cls-17" d="M16.17,37.08c-.88-.3-2.91.63-1.75,2.17.36-1.58,1.4-.68,1.37.42,0,.74-.8.83.08,1.69.47.46,1.3.18,1.7-.14C18.85,40.22,17.25,37.45,16.17,37.08Z" transform="translate(0.01)"/><path class="cls-14" d="M47.17,8.84c-4.46,4.46-13.34-3.31-24.1,1.25-14.71,6.22-7.26,21.68-7,23.62a9.57,9.57,0,0,0,2,4.25,3.56,3.56,0,0,0,2.05-.21c-1.5-1.12-2.42-4.52-1.67-7.89.42-1.87,1.18-3.24.71-5.65,1.46,1.06,11.22,1.83,22.89-2a11.47,11.47,0,0,0,6.83-5.82c-1,.15-1.7.37-2.88.66C47.6,15.05,47.43,11.46,47.17,8.84Z" transform="translate(0.01)"/><path class="cls-18" d="M34.56,9.83c-5.62-.93-14-.17-17.75,4.76s.33,8.39,14.86,6.6c13.26-1.63,15-11.3,15-11.3C42.89,12.2,40.18,10.76,34.56,9.83Z" transform="translate(0.01)"/><path class="cls-17" d="M22.81,34.7c.11.61,1.49.16,1.92.21-.33.42-1.43.55-1.85.86s-.37.51.2.43a10.4,10.4,0,0,0,2.42-.94C26.44,34.27,23.28,34.52,22.81,34.7Z" transform="translate(0.01)"/><path class="cls-17" d="M44.51,32.82c-.38-.22-1.3-.14-1.61-.5.36-.13,1.54.06,1.57-.55-.41-.1-3,.24-2.17,1a7,7,0,0,0,2.1.48C44.88,33.25,44.92,33.06,44.51,32.82Z" transform="translate(0.01)"/><path class="cls-19" d="M26.29,31.63c-2.05-.64-2.93,3-1.46,4a2.78,2.78,0,0,1,2,0C28.05,34.75,27.83,32.11,26.29,31.63Z" transform="translate(0.01)"/><path class="cls-17" d="M34.93,36.51c-1,.15-1.45-.19-2.07.25s.5,1.78,2.23,1.5,2.37-1.74,1.94-2.08S36,36.36,34.93,36.51Z" transform="translate(0.01)"/><path class="cls-20" d="M33.69,31c-.85.15-.75,2.49-.93,3.62s-.26,2.19.24,2.46c1.21.67,3.46-.08,4.06-.76.23-.27-.53-1.33-1.15-2.41S34.66,30.84,33.69,31Z" transform="translate(0.01)"/><path class="cls-19" d="M42.12,29.8c-2.13-.85-3.24,3.59-.95,3.88A2.58,2.58,0,0,1,42.83,33C43.47,32,43.26,30.26,42.12,29.8Z" transform="translate(0.01)"/><path class="cls-21" d="M25.78,32.19c-.77.35,0,1.84.72,1.2C27,32.92,26.46,31.87,25.78,32.19Z" transform="translate(0.01)"/><path class="cls-21" d="M41.67,30.41c-.74.27-.13,1.71.58,1.17C42.77,31.18,42.33,30.16,41.67,30.41Z" transform="translate(0.01)"/><path class="cls-14" d="M40.47,26.41c-1.47,0-2.58-.14-2.58-.09,0,.84.36,2.55,1.47,2.43.67-.07,1.35-.26,2-.27a7.19,7.19,0,0,1,2.47.39c.51.16.63-.58.43-.78A4.73,4.73,0,0,0,40.47,26.41Z" transform="translate(0.01)"/><path class="cls-14" d="M25.56,28.08a4.93,4.93,0,0,0-3.31,2.85c-.13.26.26.92.72.59a8.43,8.43,0,0,1,2.42-1.18c.69-.21,1.47-.26,2.19-.42,1.19-.25.92-2,.62-2.78C28.17,27.09,27.08,27.58,25.56,28.08Z" transform="translate(0.01)"/><path class="cls-20" d="M44.9,34.9a3.43,3.43,0,0,0-3-.36c-1.17.27-2.62,1.07-1.17,2.49.77.75,5.6.28,4.55-1.64A1.76,1.76,0,0,0,44.9,34.9Z" transform="translate(0.01)"/><path class="cls-20" d="M27.22,36.89a3.64,3.64,0,0,0-3.15-.27c-1.22.33-2.72,1.21-1.15,2.65.84.76,5.89.1,4.73-1.88A2.13,2.13,0,0,0,27.22,36.89Z" transform="translate(0.01)"/><path class="cls-17" d="M30.46,40.93c-2.28.84-5.53,2.89-3.06,4.88,3.1,2.52,10.59,1.42,13.25-1,1.73-1.56,1.76-3.21-.56-4.34l1.85-.76C38.07,39.56,34,39.61,30.46,40.93Z" transform="translate(0.01)"/><path class="cls-22" d="M38.81,40.93c.3-.14.72-.41,1.13-.62-7-.16-13.48,1.93-12.09,4.63,1.22,2.39,9.52,1.39,11.65-.2C41.31,43.39,41.59,41.8,38.81,40.93Z" transform="translate(0.01)"/><path class="cls-23" d="M38.91,40.26c-3.42,0-7.8.51-10.12,2.19-.47.34-.34.65.36.85,1.6.45,4.12-.48,5.66-.71,3.81-.54,4.22,0,4.44-.48S39.77,40.27,38.91,40.26Z" transform="translate(0.01)"/><path class="cls-24" d="M39,40.28c-1.45-.15-8.35.24-10.46,2.39,0,0-.44.43.58.63A13.36,13.36,0,0,1,39.5,41.21S39.66,40.31,39,40.28Z" transform="translate(0.01)"/><path class="cls-11" d="M44.28,34.37a28.36,28.36,0,0,1-4.78.38c-2.11-.14-2.88-3.55-.92-4.43s4.23.25,6.17-.75c.67-.35.77-.67.56-.95-.47-.6-2.4-1-2.89-1a47.2,47.2,0,0,0-5.54.73c-5.81.73-11.78.8-17.59,2.69-2.2.72.07,2.42,1.36,2.41s2.76-.71,4.17-.9,5.34-1.33,5.45,1.15a2.67,2.67,0,0,1-2.17,2.91,21,21,0,0,1-4.24.74c-.59,0-4.78-.26-4.11,1.15.35.72,2.43.62,3.11.65a20.18,20.18,0,0,0,4.2-.66c1.82-.32,3.24-.68,4.16-2.36.74-1.36,1-2.9,1.67-4.28,1.09-2.26,2.68.54,3.28,1.77a6.11,6.11,0,0,0,2.27,2.61,5.14,5.14,0,0,0,3,.42c1.33,0,3.33.19,4.26-.95C46.91,34.19,45.57,34.25,44.28,34.37Z" transform="translate(0.01)"/><path class="cls-25" d="M49.51,27.17c-.93-.93-32.33,2.78-33.17,4l-.07.11c0,.19.3,1.47.3,1.47a1.33,1.33,0,0,0,1.05.18c.35,1.14,1.21,3.69,2.72,4.71,2,1.33,8.11.08,9.84-.94,2.1-1.22,1.15-5.78,3.65-6.1,1.81-.24,2.27,3.82,4.13,4.63s8.74.44,10-1.2c.91-1.17.54-3.44.57-5a2,2,0,0,0,1.15-.59,5.71,5.71,0,0,0-.08-1.19ZM30,35.63c-1.49,1.29-7.91,2-9.19,1.35s-2.24-3.87-1.58-4.33,10.3-2.29,11.44-1.87S30.94,34.8,30,35.63Zm16.91-1.9c-1,.88-7.19,1.53-8.84.66-1.06-.56-2.53-3.7-1.63-4.27s10.34-.92,11-.64S48,32.85,46.89,33.73Z" transform="translate(0.01)"/><path class="cls-26" d="M37.37,30c-1.35.56,1.08,1.28,1.6,1.37a18.74,18.74,0,0,0,5.82-.16c1-.18,3.21-1.07,2.59-1.63C46.51,28.81,38.86,29.4,37.37,30Z" transform="translate(0.01)"/><path class="cls-27" d="M46.49,27.73c-12.17.16-26.32,3.05-26.32,3.05Z" transform="translate(0.01)"/><path class="cls-8" d="M43.36,29.74c-.72.11-1.2.32-1,.64.39.64,4.67.32,5-.17S44.92,29.52,43.36,29.74Z" transform="translate(0.01)"/><path class="cls-28" d="M38.66,33.54c-.45,0-.76.15-.65.42.21.55,2.88.63,3.09.27S39.64,33.48,38.66,33.54Z" transform="translate(0.01)"/><path class="cls-28" d="M21.51,36.05c-.46,0-.77.15-.66.43.21.54,2.89.62,3.09.26S22.48,36,21.51,36.05Z" transform="translate(0.01)"/><path class="cls-26" d="M30,31.09c-1.7-.25-9.65.78-10.3,1.67-.47.64,2,1,3.12.94a20.87,20.87,0,0,0,6-1.05C29.27,32.47,31.52,31.32,30,31.09Z" transform="translate(0.01)"/><path class="cls-8" d="M26.49,31.33c-.72.18-1.17.43-.95.73.45.6,4.68-.13,4.93-.64S28,31,26.49,31.33Z" transform="translate(0.01)"/></g></g></g></svg>