<svg xmlns="http://www.w3.org/2000/svg" xmlns:xlink="http://www.w3.org/1999/xlink" viewBox="0 0 66 66.01"><defs><style>.cls-1{fill:none;}.cls-2{clip-path:url(#clip-path);}.cls-3{fill:#a77e64;}.cls-4{fill:#1e1e29;}.cls-5{fill:#f0f0f0;}.cls-6{fill:#535361;}.cls-7{opacity:0.1;}.cls-8{fill:#fbfbfb;}.cls-9{fill:url(#linear-gradient);}.cls-10{fill:#261b18;}.cls-11{fill:#573d2f;}.cls-12{fill:#ffc38f;}.cls-13{fill:#bf3c1b;}.cls-13,.cls-14,.cls-24{opacity:0.3;}.cls-14{fill:#b54d26;}.cls-15{fill:#ff7752;}.cls-16{fill:#1c5c57;}.cls-17{fill:#6cd9d2;}.cls-17,.cls-26{opacity:0.7;}.cls-18{fill:#e64e4e;opacity:0.6;}.cls-19{fill:#8f3935;}.cls-20{fill:#fff7ea;}.cls-21{fill:#ecdcc4;}.cls-22{fill:#161110;}.cls-23{fill:#f06799;}.cls-24,.cls-25,.cls-26{fill:#fff;}.cls-27{fill:#ffd1e2;}</style><clipPath id="clip-path" transform="translate(0.01)"><circle class="cls-1" cx="33" cy="33" r="33"/></clipPath><linearGradient id="linear-gradient" x1="-2157.36" y1="50.09" x2="-2157.36" y2="55.1" gradientTransform="matrix(-1, 0, 0, 1, -2124.32, 0)" gradientUnits="userSpaceOnUse"><stop offset="0" stop-color="#ee996d"/><stop offset="0.02" stop-color="#ee9a6e"/><stop offset="0.37" stop-color="#f8b181"/><stop offset="0.71" stop-color="#fdbf8d"/><stop offset="1" stop-color="#ffc491"/></linearGradient></defs><g id="Layer_2" data-name="Layer 2"><g id="avatars"><g class="cls-2"><rect class="cls-3" width="66" height="66"/><path class="cls-4" d="M22.8,66c-.44-4.57.65-8.58,2.71-9.88L23.4,53c-3.12,1.72-4.23,6.61-4.24,13Z" transform="translate(0.01)"/><path class="cls-4" d="M42.46,66c.44-4.57-.65-8.58-2.71-9.88L41.86,53C45,54.71,46.09,59.6,46.1,66Z" transform="translate(0.01)"/><path class="cls-5" d="M26.54,51.69c-3.93,2.65-2.73,7.15-1.68,14.31H40.47c1.16-6.6,2.49-12.48-1.38-14.64C35.07,49.12,29.21,49.89,26.54,51.69Z" transform="translate(0.01)"/><path class="cls-4" d="M27.14,51.59S23,52.73,22.62,53.68,23.67,60.89,24.41,66H28.3C28.46,61.8,28.35,55.93,27.14,51.59Z" transform="translate(0.01)"/><path class="cls-6" d="M28,53.82c-.22-.59-3.92.85-3.84,1.36S26.49,62.08,27.6,66h.71C28.55,60.53,28.33,54.81,28,53.82Z" transform="translate(0.01)"/><path class="cls-6" d="M28,49.81c-1.86,1.11-3.92,2.49-4,2.92s4.1,2.58,4.09,2.15S28,49.81,28,49.81Z" transform="translate(0.01)"/><path class="cls-4" d="M38.29,51s3.57,1.56,4.28,2.47C43,54,41.36,59.09,41.15,66H37C36.84,61.53,37,55.46,38.29,51Z" transform="translate(0.01)"/><path class="cls-6" d="M37.3,53.82c.22-.59,3.92.85,3.84,1.36S38.76,62.08,37.65,66h-.71C36.7,60.52,36.93,54.81,37.3,53.82Z" transform="translate(0.01)"/><path class="cls-6" d="M37.26,49.81c1.86,1.11,3.92,2.49,4,2.92s-4.11,2.58-4.09,2.15S37.26,49.81,37.26,49.81Z" transform="translate(0.01)"/><path class="cls-7" d="M38.51,53.1a7.28,7.28,0,0,1-3.39,5.39l-2.51-2.36-1.9,2.37a8.67,8.67,0,0,1-3.46-4.64C26.47,50.89,38.53,51.67,38.51,53.1Z" transform="translate(0.01)"/><path class="cls-8" d="M32.63,55.85l2.38,2s4.88-3.05,3.15-7.15c-1.56-3.68-8.73-3.61-10.88-.33s3.26,7.39,3.26,7.39Z" transform="translate(0.01)"/><path class="cls-9" d="M32.94,55.46c1.24,0,6.49-4.07,2.8-8.06a4.7,4.7,0,0,0-4.4-1c-1.32.39-2.2,2.08-2.29,3.82C28.94,52.46,31.3,55.4,32.94,55.46Z" transform="translate(0.01)"/><path class="cls-8" d="M32.06,59.79a.55.55,0,1,0,1.09,0,.55.55,0,0,0-1.09,0Z" transform="translate(0.01)"/><path class="cls-8" d="M32.06,62.87a.55.55,0,1,0,.54-.54A.54.54,0,0,0,32.06,62.87Z" transform="translate(0.01)"/><path class="cls-10" d="M27.36,12c2.75,3.5,1.83,8.82-2.07,11.9s-9.29,2.72-12-.78a8.55,8.55,0,0,1,1.27-12C18.4,8,24.6,8.48,27.36,12Z" transform="translate(0.01)"/><path class="cls-11" d="M23.54,11.21c-1.42.59-2.65,2.22-4.21,2.52-.14.75-1.42,2.25-2.18,1.46,0,1.09-.89,3.27-1.76,1.51-.31,1.18-1.07,3.07-2.08,1.34-1.2-2.08,0-4.83,1.93-6.31S22,8.87,23.54,11.21Z" transform="translate(0.01)"/><path class="cls-10" d="M48.88,32.12c2.07-8.28.88-15.4-4.78-19.61-10.87-8.07-25.93-2-28.29,7.9A19.22,19.22,0,0,0,19.93,37.7c1.89,2.23,3.21,4.87,5,7.1s4-1.39,5.53-2.23a10.84,10.84,0,0,1,6.88-1.24c2.06.36,3.45,2.57,5.55,2.68,2.76.14,3.67-4.46,4.36-6.4S48.42,34,48.88,32.12Z" transform="translate(0.01)"/><path class="cls-12" d="M19.67,36.76c.82,7.67,8.49,15.62,15.38,15.86,7.35.25,13.92-11.5,13-20.94-1-10.26-5.57-18.92-16.23-17.16C24.22,15.78,18.57,26.5,19.67,36.76Z" transform="translate(0.01)"/><path class="cls-13" d="M30.18,21.12c-3.3.45-6.07,1.91-7.15,6.12a26.14,26.14,0,0,0-1.11,3.93,17.28,17.28,0,0,1-1.86-6.37c-.27-2-.51-4.47.2-6.4.58-1.55,2.34-2.38,3.78-3,2.61-1.09,5.6-.85,8.37-.72a34.18,34.18,0,0,1,9.13,1.71c1.52.5,4.84,1.27,5.63,2.85,1.76,3.53-6.86,1.81-8.36,1.81C36,21.06,32.92,20.74,30.18,21.12Z" transform="translate(0.01)"/><path class="cls-12" d="M18,40.4a3.18,3.18,0,0,0,2.79,0l.06-.09c.46-.69,0-4.67-.25-5.42C20,33,19,32,17.15,32.43,13.41,33.34,15,39.22,18,40.4Z" transform="translate(0.01)"/><path class="cls-14" d="M19.22,38.69c1.38-.82.19-3.73-.82-4.23-.82-.41-2.93.22-2,1.89.56-1.5,1.46-.48,1.28.59-.11.72-.89.7-.14,1.65C17.94,39.11,18.79,39,19.22,38.69Z" transform="translate(0.01)"/><path class="cls-10" d="M45.79,22.22c.54,1.09,5.36-1.94,1.23-6.81-1.79-2.11-6.31-3.22-8.92-3.8a25.76,25.76,0,0,0-7.78-.46c-4.3.39-9.53,2.27-11,6.77-.92,2.77-.57,6-.44,8.87.08,1.73-.71,5.05.72,6.39,1.68,1.57,2.42-.69,2.63-2.33.24-1.84.16-3.86.74-5.63,1.42-4.33,3.76-5.1,10.05-5.4C36.27,19.66,44.33,19.28,45.79,22.22Z" transform="translate(0.01)"/><path class="cls-11" d="M21.55,13.56a13.64,13.64,0,0,1,5.52-2.88C32.82,9.31,40,9.59,44.26,14.06c1.26,1.31,3.51,4.59,1.4,5.17-1.37.38-5.3-.77-5.28-2.56a1.8,1.8,0,0,1-1,1.61A1.62,1.62,0,0,1,38.72,17c-.74,1.57-1.06,1.35-2.8,1.38a39,39,0,0,0-5.07.49c-1.29.19-2.53.77-3.65.19-.79-.4-1.3-1.26-2.05-1.72.08,1.52-.91,4.39-2.67,2.41-.08.44.17,1.87-.31,2.13s-1.93-.8-2.26-1a29.26,29.26,0,0,1,.28,3.1c-1.6.54-2.42-1.68-2.49-2.72a7.76,7.76,0,0,1,1.07-4.41A12.91,12.91,0,0,1,21.55,13.56Z" transform="translate(0.01)"/><path class="cls-15" d="M46.78,37.1a1.9,1.9,0,0,1,.28.55c.64,2-4,1.72-4.6.86-1.11-1.62.4-2.17,1.56-2.24A3.21,3.21,0,0,1,46.78,37.1Z" transform="translate(0.01)"/><path class="cls-15" d="M28.76,36.91a1.64,1.64,0,0,1,.32.51c.8,1.94-3.53,2.08-4.7,1.2-1.62-1.22.4-2.24,1.56-2.38A3.35,3.35,0,0,1,28.76,36.91Z" transform="translate(0.01)"/><path class="cls-16" d="M28.22,31.48c-2.69-.81-4.48,2.16-2.66,3.2a6,6,0,0,1,2.68.23A1.74,1.74,0,0,0,28.22,31.48Z" transform="translate(0.01)"/><path class="cls-14" d="M38,36.51c-.41-.41-1.18.09-1.93.13s-1.29-.31-1.91,0,.17,1.41,2,1.29S38.34,36.86,38,36.51Z" transform="translate(0.01)"/><path class="cls-17" d="M28,33.07c-.83.21-.25,1.57.57,1.1C29.13,33.84,28.7,32.88,28,33.07Z" transform="translate(0.01)"/><path class="cls-16" d="M45.48,31.33c-2.77-.45-4.15,2.73-2.21,3.52A6,6,0,0,1,46,34.72,1.74,1.74,0,0,0,45.48,31.33Z" transform="translate(0.01)"/><path class="cls-17" d="M45.35,33c-.78.32,0,1.59.71,1C46.59,33.59,46,32.7,45.35,33Z" transform="translate(0.01)"/><path class="cls-18" d="M27.68,40.86C32,40.88,39.34,40,44,41c.43.09.69.17.34.38-1.05.62-2.42,1.65-2.57,2.53-.31,1.8-.88,5.21-5.78,5.09-5.86-.14-8.18-6-8.79-7.64C27.05,41,27.34,40.86,27.68,40.86Z" transform="translate(0.01)"/><path class="cls-19" d="M27.86,41.45a37.65,37.65,0,0,0,15.53-.14,3.38,3.38,0,0,0-1.85,2.12c-.31,1.16-1,2.8-6.21,2.84A7.79,7.79,0,0,1,27.86,41.45Z" transform="translate(0.01)"/><path class="cls-20" d="M29.7,42a2.38,2.38,0,0,0,1.68,2.2,13.68,13.68,0,0,0,7.37.39c1.77-.37,2.94-2.72,2.94-2.72A60.76,60.76,0,0,1,29.7,42Z" transform="translate(0.01)"/><path class="cls-20" d="M30.24,44.33c-.15-.4-.11-.85.82-.51a19.13,19.13,0,0,0,5.66.72c2.46,0,3.08-.79,3.49-.36s-1.43,2.45-5.33,2.13C30.43,46,30.24,44.33,30.24,44.33Z" transform="translate(0.01)"/><path class="cls-21" d="M29.83,42.65s9.33-.6,11.35.06a3.6,3.6,0,0,0,.51-.86,71.16,71.16,0,0,1-12,.11A2.06,2.06,0,0,0,29.83,42.65Z" transform="translate(0.01)"/><path class="cls-21" d="M31.57,43.84a20.08,20.08,0,0,0,8.11.25S35.32,45.45,31.57,43.84Z" transform="translate(0.01)"/><path class="cls-22" d="M21.17,30.61s.74,2.83,5.52,1.26c1.95-.64,3,1.43,3,1.43s.09-3.25-2.78-2.69C25.4,30.9,23.51,32.38,21.17,30.61Z" transform="translate(0.01)"/><path class="cls-22" d="M50.72,31.24s-1,2.61-5.25.89a2.47,2.47,0,0,0-3,1.07s.25-3.14,2.9-2.39C46.71,31.2,48.34,32.77,50.72,31.24Z" transform="translate(0.01)"/><path class="cls-10" d="M48.26,28c-.17-.71-1.85-1.54-3.56-1.45-1.87.09-3.73,1.15-3.54,2.08s1.77-.09,3.61-.47C47.07,27.63,48.32,28.19,48.26,28Z" transform="translate(0.01)"/><path class="cls-10" d="M23.06,27.39c.1-.69,2.38-1.27,4.47-1,2.29.29,4.47,1.5,4.18,2.37s-2-.22-4.19-.78C24.73,27.27,23,27.84,23.06,27.39Z" transform="translate(0.01)"/><path class="cls-14" d="M40.41,37.63a3.93,3.93,0,0,1-1-1.21,3.76,3.76,0,0,1-.11-3.21c.57-1.42,2.15-1.48,3.47-1.54,1.59-.08,3.2,0,4.78-.09,1,0,1.3-.27,1.54-1.28.34-1.45-.95-1.5-2.08-1.48a22.67,22.67,0,0,0-4.49.54,19,19,0,0,0-3.9.94,4.54,4.54,0,0,1-2.81.75c-2.29-.17-4.17-1.66-6.44-2a25.38,25.38,0,0,0-5.36-.4c-1.06.07-3.13.56-1.58,1.88.78.66,1.89.43,2.86.5.62.05,1.23.08,1.84.16,2.17.28,5.53.1,5.26,2.81-.19,1.86-1.46,3.73-3,4a20.65,20.65,0,0,1-4.5.3,7.83,7.83,0,0,1-3.21-.82c-.29-.14-1.14-.73-1.44-.35-.5.66,1.23,1.83,1.69,2.06a11,11,0,0,0,3.3.86c2.83.4,5.75.35,7.45-2.2,1-1.47,1.51-3.23,2.42-4.76,1.5-2.48,2,1,2.43,2.51a7.8,7.8,0,0,0,1,2.42,5.72,5.72,0,0,0,4.16,2.17A6.31,6.31,0,0,0,45.47,40c.53-.2.77-.8.14-1.06a4.94,4.94,0,0,0-1.39-.1,14.48,14.48,0,0,1-1.74-.2A5.34,5.34,0,0,1,40.41,37.63Z" transform="translate(0.01)"/><path class="cls-23" d="M16,27.63c.45-.36,2,.22,3.9.22,2.65,0,16.09-.4,14.82,5.22a7.87,7.87,0,0,1-4.22,5.77c-2.07.95-8.55.21-10.49-1.62-2.31-2.2-2.13-5.56-2.2-6.87a3.22,3.22,0,0,1-1.46-.54S15.44,28.1,16,27.63Zm4.28,8.14c1.57,2.09,7.87,3.06,10.4,1.55,1.92-1.15,3.35-4.94,2.38-5.74-2-1.64-10.9-2.49-13.32-1.14C19,30.88,19.09,34.16,20.31,35.77Z" transform="translate(0.01)"/><path class="cls-23" d="M53.79,30.45a2.71,2.71,0,0,1-1.33.5c-.11,1.3-.06,4.66-2.22,6.79C48.43,39.51,42.55,40,40.72,39c-2.26-1.26-3.22-3.6-3.61-5.91-1-5.65,11.16-4.81,13.54-4.73,1.69.06,3.14-.46,3.54-.09S53.79,30.45,53.79,30.45ZM50.71,31c-2.13-1.42-10.19-.86-12.06.72-.9.76.26,4.59,2,5.8,2.23,1.6,8,.84,9.44-1.2C51.2,34.72,51.41,31.44,50.71,31Z" transform="translate(0.01)"/><path class="cls-24" d="M40.24,31.23c1.48-.58,9-1,9.87-.2.6.58-1.58,1.42-2.59,1.57a18.07,18.07,0,0,1-5.73,0C41.28,32.53,38.9,31.76,40.24,31.23Z" transform="translate(0.01)"/><path class="cls-25" d="M46.15,31.09c1.54-.19,4.18.09,3.88.56s-4.52.7-4.89.06C45,31.38,45.43,31.18,46.15,31.09Z" transform="translate(0.01)"/><path class="cls-26" d="M41.42,36.19c1,.07,2.53.68,2.29,1s-2.86-.11-3-.68C40.65,36.24,41,36.15,41.42,36.19Z" transform="translate(0.01)"/><path class="cls-26" d="M21.78,35.35c1,.2,2.56,1,2.26,1.3s-3-.47-3-1C21,35.31,21.31,35.26,21.78,35.35Z" transform="translate(0.01)"/><path class="cls-24" d="M21.3,30.37c.88-.71,9.16.2,10.81.85,1.49.59-1.07,1.17-1.62,1.23A23,23,0,0,1,24.21,32C23.1,31.82,20.67,30.88,21.3,30.37Z" transform="translate(0.01)"/><path class="cls-25" d="M28.52,30.62c1.63,0,4.36.61,4,1s-4.82.13-5.13-.56C27.23,30.75,27.75,30.62,28.52,30.62Z" transform="translate(0.01)"/><path class="cls-23" d="M33,29.64a7.1,7.1,0,0,0,5.84.14c1.77-.74,0,.64-.36,1s-.43,4.62-1.19,3-2-1.54-2.73.16-.28-1.18-.46-2.13S31.15,28.94,33,29.64Z" transform="translate(0.01)"/><path class="cls-27" d="M32.88,30.43c-1.93-1.71-5.35-2.18-12.08-2C25.84,28.86,29.87,29.15,32.88,30.43Z" transform="translate(0.01)"/><path class="cls-27" d="M39.44,30.28c1.71-1.51,4.59-1.46,10.77-1.47C45.6,29.31,42.16,29.1,39.44,30.28Z" transform="translate(0.01)"/></g></g></g></svg>