<svg xmlns="http://www.w3.org/2000/svg" xmlns:xlink="http://www.w3.org/1999/xlink" viewBox="0 0 96 96"><defs><style>.cls-1{fill:none;}.cls-2{clip-path:url(#clip-path);}.cls-3{fill:#fff;}.cls-4{fill:#8e9194;}.cls-5{fill:#949494;opacity:0.5;}.cls-6{fill:#c9beb7;}.cls-7{fill:#2b221c;}.cls-8{fill:#cc7c43;}.cls-15,.cls-9{fill:#661004;}.cls-9{opacity:0.2;}.cls-10{fill:#66241b;opacity:0.6;}.cls-11{fill:#45362e;}.cls-12{fill:#eda264;}.cls-13{fill:#261b18;}.cls-14{fill:#e6d2c3;opacity:0.7;}.cls-15{opacity:0.3;}</style><clipPath id="clip-path"><circle class="cls-1" cx="48" cy="48" r="48"/></clipPath></defs><g id="Layer_2" data-name="Layer 2"><g id="Layer_4" data-name="Layer 4"><g class="cls-2"><rect class="cls-3" width="96" height="96"/><path class="cls-4" d="M24.62,96c0-.44.34-5.6.61-8.92C25.74,81,30,74.4,37.58,73l1.5,7.6C35,82.73,34.46,96,34.46,96Z"/><path class="cls-4" d="M71.06,96c0-.44-.34-5.6-.61-8.92C70,81,65.64,74.4,58.1,73l-1.49,7.6C60.67,82.73,61.22,96,61.22,96Z"/><path class="cls-4" d="M36.79,73.39C30.15,77.71,31.66,84.85,33.43,96H62.25c1.94-10.54,3.62-19.69-2.9-23.19C52.13,68.93,41.59,70.27,36.79,73.39Z"/><path class="cls-5" d="M47.86,82.63c13.57,0,17.49-19.37-1.15-19.37C33.3,63.26,33.34,82.63,47.86,82.63Z"/><path class="cls-6" d="M47.84,81c14.48,0,18.67-18.34-1.22-18.34C32.31,62.61,32.35,81,47.84,81Z"/><path class="cls-7" d="M70.45,24.4c-1.08-4.1-3.68-7.62-7.76-8.51-9.45-2.06-21.66-.54-31.33-.21-5.44.19-12.86,3.68-8,11.35-3.92-1.33-4.25,3.89-.12,5.94-6.11,1.91-.1,10.27,1.3,11,5,2.65,11-1.56,16.08-.1,6.76,1.93,23.57-.26,28.27-7.25C71,33.4,71.55,28.59,70.45,24.4Z"/><path class="cls-8" d="M26.54,56.29C28.11,67.82,37,80.47,50.41,79.52c13.66-1,20.46-17.93,18.7-32.11C67.19,32,59.89,19.14,43.91,22.25,32.49,24.48,24.45,40.89,26.54,56.29Z"/><path class="cls-9" d="M35.24,35.25c-1.61.83-5.87,2.88-8-.54-1-1.62-.27-4.06.37-5.91.79-2.25,3.36-3.51,5.46-4.43,3.81-1.68,8.25-1.45,12.34-1.39A52,52,0,0,1,59,25.06c2.91.85,8.39,1.6,9.4,4.89,1.28,4.16-3.18,4.7-6.26,4.71C54.66,34.67,38.75,33.43,35.24,35.25Z"/><path class="cls-8" d="M23.79,61.24a11,11,0,0,0,4.52.5l.09-.14c.67-1.07-.27-7-.61-8.15-.86-2.83-2.54-4.31-5.23-3.57C17,51.42,19.21,59.6,23.79,61.24Z"/><path class="cls-10" d="M26,59.22c2.05-1.28.12-5.63-1.42-6.33-1.26-.58-4.4.46-2.93,2.93.78-2.29,2.18-.79,2,.83-.14,1.09-1.31,1.11-.15,2.5C24,59.91,25.31,59.63,26,59.22Z"/><path class="cls-7" d="M61.84,17.86C58.25,16,37,16.75,32.72,19.89c-4.92,3.66-7.52,8.05-7.22,14.19.15,3.37,4.68,3.88,6.59,1.47,1.64-2.06,3.93-2.6,6.54-2.69,4.33-.16,21.29-1,25.27.4,2.19.75,5.09,1.88,5.53-1.59a13,13,0,0,0-3.15-10.51A16.63,16.63,0,0,0,61.84,17.86Z"/><path class="cls-11" d="M62.75,24.22a11.19,11.19,0,0,1,3.67,1.1c3.43-4.8-5-7.57-8-7.94-3.25-.4-12.55-1.14-14.62,1.15a11.91,11.91,0,0,0-5.1-.56c-3.08,0-6-.09-9,.74-5.11,1.42-2.51,3.83,1.17,4.89,2.76.8,6.09.61,9,.6,3.88,0,7.5-.43,11.36,0C54.94,24.6,59,23.72,62.75,24.22Z"/><path class="cls-7" d="M31.09,36.43c-1.29,7.2-2.3,10.68-1.38,17.18,0,0-3.29-3.61-6-3.92a45.54,45.54,0,0,1-.41-8.84C23.49,37.37,28.57,36.4,31.09,36.43Z"/><path class="cls-12" d="M67,54.13a2.45,2.45,0,0,1,.38.85c.81,3.14-6.31,2.07-7.15.7-1.57-2.57.81-3.19,2.6-3.16C64.19,52.55,66.11,52.83,67,54.13Z"/><path class="cls-12" d="M40.28,53.78a2.91,2.91,0,0,1,.61.76c1.64,3-5.88,3.74-7.09,2.57-2.27-2.2,0-3.45,1.82-3.88C37,52.9,39,52.68,40.28,53.78Z"/><path class="cls-13" d="M37.67,52.13a4.12,4.12,0,0,0-2.91-.25c-2-1.71-.15-6.92,2.79-5.66C39.74,47.17,39.65,51.11,37.67,52.13Z"/><path class="cls-10" d="M55.2,55.49c-.73-.9-1.77.1-3.67.12-1.72,0-2.4-.76-3.6,0s.51,3,3.55,2.9S55.83,56.27,55.2,55.49Z"/><path class="cls-12" d="M51.08,49.15c-3.23-.28-3.47,6.54-2.74,7.13,1.81,1.43,5.6.42,6.7-.73C55.47,55.09,54.16,49.42,51.08,49.15Z"/><path class="cls-13" d="M65.87,46c1.6,1,1.59,4.27.39,5.6a3.83,3.83,0,0,0-3.11,0C60.68,50,62.88,44.23,65.87,46Z"/><path class="cls-14" d="M36.13,47.5c1.06-.36,1.72,1.27.88,1.88C35.85,50.23,34.94,47.91,36.13,47.5Z"/><path class="cls-14" d="M64.33,47c1-.21,1.46,1.42.59,1.9C63.72,49.57,63.15,47.26,64.33,47Z"/><path class="cls-7" d="M40.3,39.77A2.31,2.31,0,0,1,42.14,43c-.52,1.52-2.89.81-6.13,1-3.51.18-4.6.64-4.81-.36s-.08-2.58,3.05-3.44A14.82,14.82,0,0,1,40.3,39.77Z"/><path class="cls-7" d="M61,40a2.32,2.32,0,0,0-1.66,3.29c.61,1.48,2.94.64,6.18.62,3.51,0,4.63.38,4.78-.63S70.22,40.65,67,40A14.69,14.69,0,0,0,61,40Z"/><path class="cls-7" d="M60.26,58.37c1.16.81,4.11,4,6.54,1.64,1.17-1.12,3-5.66,2.41-11.63,3,2,2.88,7.9,2.23,11.08-.26,1.3-1.18,2.77-1.08,4,.15,2,1.73,4,2,6.09.38,2.41.35,5.81-2.52,6.51.31,3.06-.56,4.79-4,4.47,1.07,3.85-2.81,6.35-6,3.85.29,4.15-8.56,2.36-10.16.43-.41,2-3.42,2.16-5,1.82-2-.43-3.17-2-4.08-3.64-1.15,1.29-4,1.28-5.43.38-1.8-1.16-1.69-3.41-1.49-5.35-3.52,1-3.88-3-3.22-5.4-2.4-.52-2.63-4.86-2.63-6.85,0-2.44-2-15,.48-15.79,2.22-.69,1.91,2.45,2.13,3.85,1.4,8.85,7.85,10.3,10.46,6.87,3.37-4.43,5.79-3,10.73-3.12C55.4,57.17,57.17,56.2,60.26,58.37Z"/><path class="cls-12" d="M60.49,65.38c-.28-1.25-3.18-1.79-4.11-2.73-.64,1.62-3.49.6-4.56-.08-1.07,1.17-4.09,1.51-5.21.37-.2.9-3.15,1.7-3.29,2.89C45.87,70.11,59.07,68.54,60.49,65.38Z"/><path class="cls-15" d="M46.87,64.81c1.23-.61,7.85-1.16,9.38-.36C52.82,65.61,46.87,64.81,46.87,64.81Z"/><path class="cls-11" d="M64.71,73.83c.29.91,1.1,2.7.55,3.58-1.07,1.72-4.59.57-5.87-.11.47.94,1.85,2.6.88,3.63-1.56,1.66-3.82-1.7-5.12-1.14-.81.35-.09,2.44-1.38,3-1.79.79-3.43-1.89-4.83-2.51A3.94,3.94,0,0,1,45.09,82c-2.25-.33-2-1.65-2.55-3.42-1.8,1.94-4.85,2.81-5.13-.71-2.35,3.05-2.59-3.45-1.52-5.14a15.28,15.28,0,0,1,3-3.32c1.74-1.46,2.62-.9,4.74-.39C47,69.84,51.5,70.63,55,70c4.2-.71,7.53-3.77,10.79.08.56.66,2,2.16,1.62,3.18C67.2,74,65,74.72,64.71,73.83Z"/></g></g></g></svg>