<svg xmlns="http://www.w3.org/2000/svg" xmlns:xlink="http://www.w3.org/1999/xlink" viewBox="0 0 66 66"><defs><style>.cls-1{fill:none;}.cls-2{clip-path:url(#clip-path);}.cls-3{fill:#fff;}.cls-4{fill:#3a3a4a;}.cls-5{fill:#66667d;}.cls-6{fill:#f1aa83;}.cls-7{fill:#5e5a3a;}.cls-8{fill:#9e996f;}.cls-9{fill:#918fa0;}.cls-10{fill:#eba971;}.cls-11{fill:#d99a64;}.cls-12{fill:#ffbc82;}.cls-13{fill:#b54319;opacity:0.3;}.cls-14{fill:#45362e;}.cls-15{fill:#ffd4ad;}.cls-16{fill:#c26346;}.cls-17{fill:#261b18;}.cls-18{fill:#e6d2c3;opacity:0.7;}.cls-19{fill:#e62628;}.cls-20{fill:#ff3b3b;}</style><clipPath id="clip-path" transform="translate(0)"><circle class="cls-1" cx="33" cy="33" r="33"/></clipPath></defs><g id="Layer_2" data-name="Layer 2"><g id="avatars"><g class="cls-2"><rect class="cls-3" width="66" height="66"/><path class="cls-4" d="M41.24,51.74C37.51,50.44,30.41,50,26,51.92,23.57,53,23.87,59.78,24.07,66H43.28C43.43,59.75,43.59,52.56,41.24,51.74Z" transform="translate(0)"/><polygon class="cls-5" points="32.14 58.37 35.42 58.5 35.06 65.25 32.27 65.3 32.14 58.37"/><path class="cls-5" d="M33.7,58.8l3,2.35s5.91-3.84,3.67-9.35c-2-4.95-12-4.55-13.76.93-1.48,4.72,3.89,8.57,3.89,8.57Z" transform="translate(0)"/><path class="cls-6" d="M27.1,51c.2-4.07,3.85-5.68,6.46-5.73s6.32,1.43,6.64,5.49c.15,1.89-.11,3-1.06,4.06a16.08,16.08,0,0,1-5.38,3.37A15.12,15.12,0,0,1,28.28,55C27.3,54,27,52.9,27.1,51Z" transform="translate(0)"/><path class="cls-7" d="M46.79,54.41c-.45-1-5.11-2.52-5.11-2.52A30.86,30.86,0,0,0,37.25,66h7.33C45.49,59.06,47.17,55.28,46.79,54.41Z" transform="translate(0)"/><path class="cls-7" d="M45.63,53.09,43,57.5c.83.91,1.17,4.89,1.37,8.5H51C50.45,59,48.41,54.63,45.63,53.09Z" transform="translate(0)"/><path class="cls-8" d="M40.65,48.75c9.12.51,4.66,12.54.2,8.48a10.27,10.27,0,0,0-2.9,4C39.16,55.64,40.65,48.75,40.65,48.75Z" transform="translate(0)"/><path class="cls-7" d="M20.76,54.41c.44-1,5.1-2.52,5.1-2.52A30.62,30.62,0,0,1,30.29,66H23C22.05,59.06,20.38,55.28,20.76,54.41Z" transform="translate(0)"/><path class="cls-7" d="M21.92,53.09l2.67,4.41c-.83.91-1.18,4.89-1.38,8.5H16.58C17.09,59,19.14,54.63,21.92,53.09Z" transform="translate(0)"/><path class="cls-8" d="M26.89,48.75c-9.12.51-4.66,12.54-.2,8.48a10.17,10.17,0,0,1,2.91,4Z" transform="translate(0)"/><path class="cls-9" d="M34.29,60.27a.58.58,0,1,1-.58-.58A.58.58,0,0,1,34.29,60.27Z" transform="translate(0)"/><path class="cls-9" d="M34.3,63.49a.58.58,0,1,1-.57-.58A.58.58,0,0,1,34.3,63.49Z" transform="translate(0)"/><path class="cls-10" d="M47.58,41.6a5.42,5.42,0,0,1-2.61.24.31.31,0,0,1,0-.1c-.37-.73.27-4.73.49-5.48.54-1.9,1.53-2.86,3.06-2.31C51.67,35.1,50.24,40.58,47.58,41.6Z" transform="translate(0)"/><path class="cls-11" d="M24.05,37.12c2.53-.63,5.08-1.2,7.63-1.76,4.19-.93,8.78,0,13,.4,3.33.32,3.57,1.87,3.57-.84,0-3.35.61-8.84,0-12.57C45.54,5.07,20.43,8.08,16.77,20.86c-1.33,4.64-1.26,11.31,1.08,16C19.07,39.25,22,37.63,24.05,37.12Z" transform="translate(0)"/><path class="cls-12" d="M18.69,38c.87,8,6.76,16.85,16,16.44,9.43-.42,14.43-12,13.48-21.77C47.14,22,44.84,13,31.28,14.89,19.41,16.51,17.53,27.36,18.69,38Z" transform="translate(0)"/><path class="cls-12" d="M16.88,42.38a2.17,2.17,0,0,0,3.09-1c.68-.92.33-3.41-.31-5.58C19.14,34,18,33.08,16.1,33.52,12.13,34.44,13.93,41,16.88,42.38Z" transform="translate(0)"/><path class="cls-13" d="M18.23,40c1.43-.85.18-3.88-.87-4.39-.85-.43-3,.23-2.06,2,.58-1.56,1.51-.5,1.33.61-.12.75-.92.73-.15,1.72C16.9,40.45,17.78,40.28,18.23,40Z" transform="translate(0)"/><path class="cls-14" d="M32.44,12.81C22.81,12.73,16,19.64,16.61,33.42a2.43,2.43,0,0,1,1.82.58,4.65,4.65,0,0,1,1,2.08c.1.22.21.58,1,.54C19,32,19.88,25,21.46,22.84c3.9-5.23,10.17.7,15,.59,3.82-.09,8-5,10.08,0C47.93,26.77,47.89,12.94,32.44,12.81Z" transform="translate(0)"/><path class="cls-13" d="M38.42,38.46c-.54-.63-1.27.1-2.64.14s-1.73-.5-2.59,0,.42,2.15,2.61,2S38.88,39,38.42,38.46Z" transform="translate(0)"/><path class="cls-15" d="M35.21,33c-1,.16-2.22,5.53-1.66,5.92a4.62,4.62,0,0,0,4.87-.5C38.7,38.11,36.35,32.86,35.21,33Z" transform="translate(0)"/><path class="cls-14" d="M22,28.39c-.77.1-.92-.67-.06-1.07a8,8,0,0,1,3.65-.92c.9.11,5.55,1.15,4.45,2.68-.56.76-1.89,0-2.46-.33a6.17,6.17,0,0,0-3.76-.67C23.52,28.11,22.74,28.3,22,28.39Z" transform="translate(0)"/><path class="cls-14" d="M47.31,28.73c.62.1.9-.63.18-1a6.67,6.67,0,0,0-3.33-1c-.83.08-5.11,1-4.18,2.56.46.77,1.71,0,2.24-.27a5.29,5.29,0,0,1,3.46-.58C45.94,28.41,46.64,28.62,47.31,28.73Z" transform="translate(0)"/><path class="cls-15" d="M46.81,37.65a1.82,1.82,0,0,1,.27.58c.59,2.16-4.33,1.48-4.92.55-1.1-1.76.53-2.21,1.77-2.2A3.54,3.54,0,0,1,46.81,37.65Z" transform="translate(0)"/><path class="cls-15" d="M27.44,37a2,2,0,0,1,.4.53c1.08,2.09-4.11,2.49-4.92,1.66-1.53-1.55,0-2.37,1.31-2.64A3.72,3.72,0,0,1,27.44,37Z" transform="translate(0)"/><path class="cls-16" d="M27.47,40.8c.64,2.22-1.86,3-2.47.8A1.74,1.74,0,0,0,27.47,40.8Z" transform="translate(0)"/><path class="cls-16" d="M42.23,41.4c-.88,2.14,1.53,3.17,2.37,1.07A1.76,1.76,0,0,1,42.23,41.4Z" transform="translate(0)"/><path class="cls-16" d="M30.05,45.86a3.94,3.94,0,0,1-4.09-3,.64.64,0,0,1,1.2-.42c.88,2.52,2.37,2.39,5.39,1.88a18.93,18.93,0,0,1,4-.38,14.37,14.37,0,0,1,2.47.37c1.72.37,2.43.52,3.23-1.17a.64.64,0,0,1,.84-.3.63.63,0,0,1,.3.84c-1.22,2.6-2.87,2.24-4.63,1.87a13,13,0,0,0-2.26-.34,17.2,17.2,0,0,0-3.76.36A17.32,17.32,0,0,1,30.05,45.86Z" transform="translate(0)"/><path class="cls-17" d="M26.33,35.56a3.17,3.17,0,0,0-2.21,0c-1.6-1.17-.49-5.2,1.79-4.41C27.61,31.71,27.76,34.68,26.33,35.56Z" transform="translate(0)"/><path class="cls-17" d="M45.46,31.46c1.19.76,1.11,3.26.18,4.23a3,3,0,0,0-2.35-.06C41.46,34.35,43.24,30,45.46,31.46Z" transform="translate(0)"/><path class="cls-18" d="M25.17,31.86c.78-.33,1.37.87.76,1.37C25.11,33.93,24.29,32.23,25.17,31.86Z" transform="translate(0)"/><path class="cls-18" d="M44.56,31.91c.8-.14,1.08,1.1.41,1.44C44.05,33.82,43.67,32.06,44.56,31.91Z" transform="translate(0)"/><path class="cls-19" d="M48.17,33.88s.7.63,1-.49S52.37,14.7,39.05,9.57C27.86,5.26,17,12,14.27,18.73c-2.27,5.69.5,7.19.5,7.19s-.95,1.31-.18,3.87a7.12,7.12,0,0,1,.14,4c-.23,1.12,1.79-.87,3.95.52.55-9,5.3-15.91,18.09-15.31C50.09,19.59,48,30.24,48.17,33.88Z" transform="translate(0)"/><path class="cls-20" d="M18.06,24.09a7.71,7.71,0,0,1,1.71-3.87,13.84,13.84,0,0,1,7.62-5,15,15,0,0,1,2.81-.49,7.42,7.42,0,0,0-5.57.35c-1.43.74-2.74,1.89-4.36,2.17-2.21.38-2.41-1.34-1.05-2.8a16.06,16.06,0,0,1,10.94-5,19.88,19.88,0,0,1,8.58,1.21,7.31,7.31,0,0,1,2.8,1.79c1.35,1.61-.68,1.59-2,1.52s-2.1-.3-3.22.26c.37-.19,2.41.45,2.94.51a18.55,18.55,0,0,1,3.15.46A6.46,6.46,0,0,1,46.2,18C47,19.11,48,20.59,47.71,22c-2.17.11-1.16-3.51-2.37-4.27-.39.52-.1,2.1-1.26,1.76-.78-.22-.8-3.18-1.71-2.23-.42.43.09,1.09-.22,1.47-.45.55-1.17,0-1.44-.46s-.65-2.24-1.39-2.21-.2,1.47-.6,1.86c-1,1-2.08-1.4-2.43-1.88-.9-1.23-1,.81-1.26,1.55-.84-.05-1.45-1.95-2.24-1.76S32.89,18,32,18c-.58,0-1-1.41-1.67-1.39s-.5.57-.64,1.1c-.51,2-1.18-.08-2.3-.38-.1.38.32,1.72-.11,1.92s-1.28-.9-1.75-1.09c-.17.54.13,1.65-.55,1.91s-1.36-1.32-2-1,.33,1.8-.23,2.07-1.11-.84-1.5-1.07c-.2,1.15.8,3.32-1,2.1-.17.93.37,2.34-.9,2,0,.44,0,2.12-.53,2.35C17.72,26.93,18,24.57,18.06,24.09Z" transform="translate(0)"/></g></g></g></svg>