<svg xmlns="http://www.w3.org/2000/svg" xmlns:xlink="http://www.w3.org/1999/xlink" viewBox="0 0 66 66"><defs><style>.cls-1{fill:none;}.cls-2{clip-path:url(#clip-path);}.cls-3,.cls-9{fill:#fff;}.cls-4{fill:#3a3a4a;}.cls-5{fill:#765aa3;}.cls-6{fill:#967cbf;}.cls-7{fill:#5e4684;}.cls-8{fill:#f1aa83;}.cls-9{opacity:0.15;}.cls-10{opacity:0.1;}.cls-11{fill:#c93712;}.cls-12{fill:#ff9819;}.cls-13{fill:#ffc38f;}.cls-14{fill:#bf3c1b;opacity:0.3;}.cls-15{fill:#d14f2e;opacity:0.4;}.cls-16{fill:#e85216;}.cls-17{fill:#ff7752;}.cls-18{opacity:0.8;}.cls-19{fill:#ff3b3b;}.cls-20{fill:#80221d;}.cls-21{fill:#fff9f0;}.cls-22{fill:#e8dac5;}.cls-23{fill:#1c5c57;}.cls-24{fill:#6cd9d2;opacity:0.7;}.cls-25{fill:#121b21;}.cls-26{fill:#6e1000;opacity:0.25;}.cls-27,.cls-32{fill:#8e9194;}.cls-28{fill:#c1c5c9;}.cls-29{fill:#6e7073;}.cls-30{fill:#5d5f61;}.cls-31{fill:#9fa2a6;}.cls-32{opacity:0.5;}</style><clipPath id="clip-path" transform="translate(0)"><circle class="cls-1" cx="33" cy="33" r="33"/></clipPath></defs><g id="Layer_2" data-name="Layer 2"><g id="avatars"><g class="cls-2"><rect class="cls-3" width="66" height="66"/><path class="cls-4" d="M26.05,53.12c-3.52,3.25-4.33,6.44-4.39,8.55a2.18,2.18,0,0,0,2.11,2.23h.06A2.16,2.16,0,0,0,26,61.79C26,60,27.08,58.06,29,56.3a2.17,2.17,0,1,0-2.94-3.18Z" transform="translate(0)"/><path class="cls-4" d="M45,53.12a2.17,2.17,0,1,0-2.94,3.18c1.91,1.76,3,3.66,3,5.49a2.17,2.17,0,0,0,2.16,2.11h.06a2.18,2.18,0,0,0,2.11-2.23C49.34,59.56,48.53,56.37,45,53.12Z" transform="translate(0)"/><path class="cls-5" d="M43.5,62.23c0-4.52,3.33-8.06,1.21-9.6-5.27-3.82-14-2.74-18.39,0-2,1.25,1,5.23,1.11,9.6,0,1.45.1,2.68.18,3.77H43.42C43.45,64.89,43.49,63.66,43.5,62.23Z" transform="translate(0)"/><path class="cls-6" d="M26.13,49.39c-1.79,2.71,2,5.48,9.31,5.48,7.88,0,11.12-2.6,9.39-5.48C39.2,40,31.62,41.06,26.13,49.39Z" transform="translate(0)"/><path class="cls-7" d="M29.17,49.74c-2.09,2.69,2.15,4.09,6.25,4.15s7.38-1.26,6.59-3.7C41.07,47.3,31.05,47.31,29.17,49.74Z" transform="translate(0)"/><path class="cls-8" d="M35.37,46.26c-1.81,0-4.37,1-4.55,3.51a2.78,2.78,0,0,0,.77,2.52,5.9,5.9,0,0,0,3.78,1.92,5.85,5.85,0,0,0,3.78-1.92,2.79,2.79,0,0,0,.78-2.52C39.75,47.23,37.19,46.26,35.37,46.26Z" transform="translate(0)"/><path class="cls-5" d="M30.88,49c-1.6.67-3,5.56,4.82,5.43C37.19,54.38,30.89,54,30.88,49Z" transform="translate(0)"/><path class="cls-5" d="M39.84,49c.61,4.77-6.3,5.41-4.82,5.43C42.81,54.53,41.45,49.64,39.84,49Z" transform="translate(0)"/><path class="cls-9" d="M40.48,55.9c-2.07,2.31-7.53,2.16-9.15.35-1.08-1.21-2-.78-2.31,0-1,3.06.81,5.87,6.43,6,2.85.06,6.13-.59,6.81-3.06C42.77,57.33,41.64,54.59,40.48,55.9Z" transform="translate(0)"/><g class="cls-10"><path d="M28.82,62.3a6.73,6.73,0,0,0,2.95,1.91,15.13,15.13,0,0,1-2.72.11c2.17,1.21,9.72,1.8,11.78.2-.34-.09-2.17-.06-2.41-.08a10.33,10.33,0,0,0,3.91-2.12C38.09,64.1,32.42,63.57,28.82,62.3Z" transform="translate(0)"/></g><path class="cls-6" d="M30.84,54.09A13.59,13.59,0,0,0,28,60a.4.4,0,0,0,.3.49h.1a.41.41,0,0,0,.4-.31,12.82,12.82,0,0,1,2.63-5.6.41.41,0,0,0-.62-.54Z" transform="translate(0)"/><path class="cls-6" d="M40.05,54.09a.41.41,0,1,0-.62.54,12.77,12.77,0,0,1,2.63,5.6.41.41,0,0,0,.4.31h.1a.4.4,0,0,0,.3-.49A13.59,13.59,0,0,0,40.05,54.09Z" transform="translate(0)"/><path class="cls-11" d="M38.94,8.78c-.7-1.82-.81-2.48-.5-3.67a5.26,5.26,0,0,0-2.93,3.21,7.55,7.55,0,0,0-6.12-3.24,8.42,8.42,0,0,1,2.28,3.66c-1.5.21-2.55.24-4.06.44-7.77,1-12.32,5.71-14.34,12.75-1,3.32-.53,7.93,0,11.33.24,1.72,2,6.09,0,7.42a1.53,1.53,0,0,1-2.45-1.42,3.15,3.15,0,0,0-.52,5.05c1.61,1.41,4.52,1.56,6.45.87a10.1,10.1,0,0,0,2,7.7,5,5,0,0,1,1.67-2.75c-.5.38,1.65,1.48,1.87,1.52a5.23,5.23,0,0,0,2.57-.49c2.22-.75,3.93-2,6.31-2.5,1.91-.4,18.78,2.72,18.27-.61.13.86.21,1.76.34,2.64,1.79-1.39,3.33-3.62,3.11-6,2.65-.38,4.39-1.16,3.58-4.12-.43,1.17-1.86,1.11-2.84.65-3.23-1.48-1-7.06.47-10.83a19.27,19.27,0,0,0,.84-2.62,31.47,31.47,0,0,1,1.83,3.1A22.16,22.16,0,0,0,55.2,18C53,13.32,48.14,15.08,38.94,8.78Z" transform="translate(0)"/><path class="cls-12" d="M49.41,39.22a1.36,1.36,0,1,0,1.38,1.34A1.36,1.36,0,0,0,49.41,39.22Z" transform="translate(0)"/><path class="cls-13" d="M32.25,13.19C24.58,14.79,19.3,25.94,20.86,36.3c1.16,7.76,7.27,16.21,16.3,15.45C46.37,51,50.8,39.47,49.48,29.93,48.05,19.55,43,10.94,32.25,13.19Z" transform="translate(0)"/><path class="cls-14" d="M49.39,18.4a5.41,5.41,0,0,0-1.92-1.76,22.32,22.32,0,0,0-5.28-2,35.15,35.15,0,0,0-9.35-1.34c-2.81,0-5.87-.13-8.47,1.1-1.43.67-3.19,1.58-3.7,3.18-.64,2-.29,4.49.06,6.51a17.62,17.62,0,0,0,2.17,6.39,8,8,0,0,1,1.67-4.29c.75-1,1.83-2.71,3.13-2.94,0,0-.87,2.51-1,2.77a5.4,5.4,0,0,1-2.16,1.82c.8.68,3.19.55,4.16.35a5.07,5.07,0,0,0,2-.76,2.52,2.52,0,0,0-.11.79c1.27-.18,2.56-.13,3.86-.41a17.42,17.42,0,0,0,2.78-.92,1.83,1.83,0,0,0-.28.62,4,4,0,0,0,.77-.3,2.1,2.1,0,0,0-.19.91c2.47-.06,5.06-.11,7.53-.34a5.26,5.26,0,0,0,4.18-2.64A6.71,6.71,0,0,0,50,21.71C49.88,20.56,50,19.43,49.39,18.4Z" transform="translate(0)"/><path class="cls-13" d="M18.11,32c-3.77,1.09-2.17,6.59.93,7.66A7.56,7.56,0,0,0,22.1,40a.37.37,0,0,1,.06-.1c.44-.72-.25-4.73-.49-5.49C21.06,32.47,19.92,31.49,18.11,32Z" transform="translate(0)"/><path class="cls-15" d="M19.46,34c-.85-.38-3,.36-1.94,2,.5-1.55,1.46-.55,1.33.54-.09.74-.88.76-.08,1.69.43.5,1.28.3,1.71,0C21.85,37.4,20.51,34.49,19.46,34Z" transform="translate(0)"/><path class="cls-11" d="M48.42,15.52c-1.64-1.11-2.58-2.86-4.49-3.78A22.07,22.07,0,0,0,38.49,10a26,26,0,0,0-7.92-.14c-4.35.58-9.59,2.72-10.9,7.36-.81,2.85-.33,6.13-.07,9,.3,3.34-.2,7.31,3,9.51.19-.8.14-1.68.26-2.5a15.72,15.72,0,0,0,.39-3.28,10.54,10.54,0,0,1,.05-3.12,8.54,8.54,0,0,1,3.19-4.55c1.23-1,2-.51,1.61,1a7.28,7.28,0,0,1-2.56,3.3c.11-.09,3.25.21,3.91,0a5.87,5.87,0,0,0,3.29-2.49c-.63,1.11-.41,1.81-1.42,2.8,3,.87,4.7-.12,7.2-2a6,6,0,0,1-.77,1.52c.39-.21,1-.59,1.36-.75-.18.51-.39,1-.59,1.49,2-.34,4,.44,6-.06,2.46-.61,6.33-3.65,6.75-6.28a4.52,4.52,0,0,0-.65-3A7.09,7.09,0,0,0,48.42,15.52Z" transform="translate(0)"/><path class="cls-16" d="M45.48,12.77c-5.72.55-9.75,6.58-15.82,5.28-2.55-.54-4.91-1.27-7.56-1.22s-6,1.06-7.11,3.56c-.24.53-1.94,6.66-.64,6.83,1.59.21,3-.55,4.42-1s1.84.43,2.84,1.08c-.76-.49,2.46-4.26,2.94-4.66a3.78,3.78,0,0,1,3.55-.92,2.58,2.58,0,0,1,.37.19c1.24.81,0,2.59-.26,3.62a25.19,25.19,0,0,0,6-3.55,35,35,0,0,1-.76,3.67,6.58,6.58,0,0,0,4-2.09c.61-.59,1.1-1.46,1.87-1.86.39-.21.63-.43.79.09a10.46,10.46,0,0,1-.65,1.83c.57-.39,1.92-2.31,2.68-2.09S40.37,26,40,25.88a9,9,0,0,0,6.64-1.36,10,10,0,0,0,2.47-2.2c.83-1.06.14-1.93.47-3.12a8,8,0,0,1,1,1.69c.65,1.87.17,3.57-.29,5.47,2.62,1,3.15-.95,3.61-3.23.53.71.85,1.58,1.4,2.28C56.45,19.82,51.64,12.19,45.48,12.77Z" transform="translate(0)"/><path class="cls-12" d="M20.19,40.51a1.36,1.36,0,1,0,1.38,1.34A1.36,1.36,0,0,0,20.19,40.51Z" transform="translate(0)"/><path class="cls-17" d="M48.69,37.13a2.7,2.7,0,0,0-2.24-1c-1,0-2.34.28-1.58,1.79.4.8,4.29,1.53,4-.3A1.55,1.55,0,0,0,48.69,37.13Z" transform="translate(0)"/><path class="cls-17" d="M29.72,37.44a2.74,2.74,0,0,0-2.63-.64c-1.09.18-2.51.86-1.43,2.44.58.84,5,.79,4.34-1.26A1.72,1.72,0,0,0,29.72,37.44Z" transform="translate(0)"/><path class="cls-11" d="M42.86,28.9a60.48,60.48,0,0,0,7.55.05C49.17,27.19,44.46,27.19,42.86,28.9Z" transform="translate(0)"/><path class="cls-15" d="M37.92,37.86c-.74,0-1-.28-1.54,0s.63,1.26,1.54,1.17,1.85-1,1.57-1.27S38.74,37.83,37.92,37.86Z" transform="translate(0)"/><path class="cls-11" d="M23.65,29c4.05,0,5.42.15,8.22,0C30.35,27.12,25.4,27.36,23.65,29Z" transform="translate(0)"/><g class="cls-18"><path class="cls-19" d="M27.7,40.55c4.16,6.22,6.65,7.31,9.77,7.41,3.91.13,5.17-2.5,5.71-4.46a11.38,11.38,0,0,1,2.9-3.5c-2.42.63-4.82.39-8.49.61C34.56,40.79,30.13,41.79,27.7,40.55Z" transform="translate(0)"/></g><path class="cls-20" d="M29.57,41.6a9.07,9.07,0,0,0,7.37,4.15c3.11,0,5.13-1.08,5.67-2.53A4.11,4.11,0,0,1,44.51,41,31.86,31.86,0,0,1,29.57,41.6Z" transform="translate(0)"/><path class="cls-21" d="M31.38,41.93a2.33,2.33,0,0,0,1.92,1.73,16.36,16.36,0,0,0,7.08.11c1.65-.29,2.41-2.34,2.41-2.34A34.33,34.33,0,0,1,31.38,41.93Z" transform="translate(0)"/><path class="cls-21" d="M38.13,44c-2.22.14-4.07,0-5.2-.63-.81-.47-.86.07-.68.4,0,0,.76,1.74,4.46,2,3.55.29,5.33-1.86,4.91-2.22S40.18,43.87,38.13,44Z" transform="translate(0)"/><path class="cls-22" d="M31.38,41.93a2.06,2.06,0,0,0,.47.9s8.29-.92,10.29-.26a4,4,0,0,0,.65-1.14A39.55,39.55,0,0,1,31.38,41.93Z" transform="translate(0)"/><path class="cls-22" d="M33.6,43.62c3,1.67,6.55.1,6.55.1A12,12,0,0,1,33.6,43.62Z" transform="translate(0)"/><path class="cls-23" d="M28.47,31.21c-2.15-.75-3.15,3.2-1.63,4.32a2.9,2.9,0,0,1,2.07,0C30.24,34.67,30.07,31.77,28.47,31.21Z" transform="translate(0)"/><path class="cls-24" d="M28.65,33.16c-.88.15-.51,2,.4,1.47C29.7,34.29,29.43,33,28.65,33.16Z" transform="translate(0)"/><path class="cls-23" d="M47.51,31c-2.13-1.37-4,3.63-1.64,4.35a2.61,2.61,0,0,1,1.88-.3C48.57,34,48.66,31.76,47.51,31Z" transform="translate(0)"/><path class="cls-24" d="M47.2,32.75c-.84,0-.72,1.9.19,1.55C48.05,34.06,48,32.74,47.2,32.75Z" transform="translate(0)"/><path class="cls-25" d="M47.58,30.92c-2-.75-2.61,1.57-2.61,1.57a1.83,1.83,0,0,1,2.29-.43,4,4,0,0,0,5-.36C49.83,32.51,48.62,31.33,47.58,30.92Z" transform="translate(0)"/><path class="cls-25" d="M27.05,31.35a6.36,6.36,0,0,1-5,1,4.45,4.45,0,0,0,5.22.07,2,2,0,0,1,2.38.13S29.07,30.26,27.05,31.35Z" transform="translate(0)"/><path class="cls-26" d="M38.44,15c-3.68-.34-7.34-1.06-11-.94-2.34.08-5.06.1-7.2,1.09-1,.46-2.28,1.43-2.28,2.48a1.42,1.42,0,0,0,.42,1c.79.88,2.79,1.21,3.9,1.61,2.58.92,5.29,1.32,7.91,2.09,4.43,1.31,15,2.61,19.21.47C54,20.34,45.48,15.61,38.44,15Z" transform="translate(0)"/><path class="cls-27" d="M15.78,12.21c-1,.79-1.41,3.95.43,5,6.81,3.9,31.07,7,38.88,2.74C63.16,15.59,26.14,4.29,15.78,12.21Z" transform="translate(0)"/><path class="cls-28" d="M20,10.37,18.39,11a3.58,3.58,0,0,0-1.83,3.76c.94,3.14,12.29,7.5,33.46,6.06C29.69,20.38,16.43,16.71,20,10.37Z" transform="translate(0)"/><path class="cls-29" d="M20.39,10.06l-1.59.58C17.88,11,16.15,13,17,14.41c1.1,1.9,10.21,5.79,26.29,6.09C27.53,18.54,16.85,16.4,20.39,10.06Z" transform="translate(0)"/><path class="cls-29" d="M46.46,3.89c-3.9-2.6-23.88-2.2-25.7.93-.94,1.61-2.75,8.73-1.43,10,3,2.88,26.91,5.65,31.17.74C49.9,10.39,47.68,4.71,46.46,3.89Z" transform="translate(0)"/><path class="cls-30" d="M51.3,15.81,50,12c-.14,0-.37.12-.67.24a32,32,0,0,1-11.22,1.92,63.36,63.36,0,0,1-18.54-2.94L19,11l-1.33,3.84.59.17a67.33,67.33,0,0,0,20,3.12h.51A35.2,35.2,0,0,0,51,15.92l.32-.12-.67-1.91Z" transform="translate(0)"/><path class="cls-31" d="M51.29,15.1,50,11.26c-.15,0-.37.12-.67.23a32.16,32.16,0,0,1-11.22,1.92,63.36,63.36,0,0,1-18.54-2.94L19,10.3l-1.34,3.84.6.17a67.31,67.31,0,0,0,19.94,3.12h.51A35,35,0,0,0,51,15.21l.32-.12-.67-1.91Z" transform="translate(0)"/><path class="cls-31" d="M40.81,3.19a33.51,33.51,0,0,0-10.67-.14c-1.57.25-3.15.43-4.73.66a8.06,8.06,0,0,0-3.26.91,9.08,9.08,0,0,0,2.44-.06,104.88,104.88,0,0,1,10.49-.43c2.41.09,4.83.34,7.24.49.38,0,2.44.17,2.54-.4v0C44.89,3.41,41.25,3.27,40.81,3.19Z" transform="translate(0)"/><path class="cls-28" d="M22.32,15.68a69.24,69.24,0,0,0,7.17,1.42l.78-4.45a66.81,66.81,0,0,1-6.63-1.31Z" transform="translate(0)"/><path class="cls-32" d="M40.63,6.16A41.61,41.61,0,0,0,27.27,6a8.5,8.5,0,0,0-4,1.46c-.38.31-2.42,1.72-1.72,2,3.48,1.49,7.56,2,11.29,2.54a28.57,28.57,0,0,0,12.61-.86A8.67,8.67,0,0,0,44.11,7.7C43.42,6.5,42,6.36,40.63,6.16Z" transform="translate(0)"/><path class="cls-4" d="M26,61.79a2.16,2.16,0,0,0-2.1-2.22h-.06a2.17,2.17,0,0,0-2.17,2.1,8.53,8.53,0,0,0,1,4.33h6.08A4.49,4.49,0,0,1,26,61.79Z" transform="translate(0)"/><path class="cls-4" d="M47.24,59.57h-.07a2.16,2.16,0,0,0-2.1,2.22A4.49,4.49,0,0,1,42.3,66h6.08a8.53,8.53,0,0,0,1-4.33A2.16,2.16,0,0,0,47.24,59.57Z" transform="translate(0)"/></g></g></g></svg>