<svg xmlns="http://www.w3.org/2000/svg" xmlns:xlink="http://www.w3.org/1999/xlink" viewBox="0 0 66 66"><defs><style>.cls-1{fill:none;}.cls-2{clip-path:url(#clip-path);}.cls-3{fill:#a77e64;}.cls-4{fill:#261b18;}.cls-5{fill:#ff9819;}.cls-6{fill:#ad9162;}.cls-7{fill:#ccaf7e;}.cls-8{fill:#57472f;}.cls-9{fill:url(#linear-gradient);}.cls-10{opacity:0.1;}.cls-11{fill:#ffbc82;}.cls-12{fill:#bf3c1b;}.cls-12,.cls-15,.cls-26{opacity:0.3;}.cls-13{fill:#57443a;}.cls-14{fill:#ff7752;opacity:0.4;}.cls-15{fill:#b54319;}.cls-16{fill:#947463;}.cls-17{fill:#121b21;}.cls-18{fill:#ff3b3b;}.cls-19{fill:#8f2621;}.cls-20{fill:#fff9f0;}.cls-21{fill:#e8dac5;}.cls-22{fill:#588a17;}.cls-23{fill:#85b428;}.cls-24{fill:#daef3f;}.cls-25{fill:#82c126;}.cls-26{fill:#004022;}.cls-27{fill:#579418;}.cls-28{fill:#bbe351;}.cls-29{fill:#8cce29;}</style><clipPath id="clip-path" transform="translate(0)"><circle class="cls-1" cx="33" cy="33" r="33"/></clipPath><linearGradient id="linear-gradient" x1="-16.36" y1="52.25" x2="-16.36" y2="57.13" gradientTransform="matrix(-1, 0, 0, 1, 16.23, 0)" gradientUnits="userSpaceOnUse"><stop offset="0" stop-color="#ee996d"/><stop offset="0.02" stop-color="#ee9a6e"/><stop offset="0.37" stop-color="#f8b181"/><stop offset="0.71" stop-color="#fdbf8d"/><stop offset="1" stop-color="#ffc491"/></linearGradient></defs><g id="Layer_2" data-name="Layer 2"><g id="avatars"><g class="cls-2"><rect class="cls-3" width="66" height="66"/><path class="cls-4" d="M12.75,36.34A32.77,32.77,0,0,0,16.34,47c4,7.34,9.92,6.48,17.32,7.17,6,.56,10.08-1.85,13.91-7.67,5.12-7.8,5.07-14.41,4.09-22.83-2.12-18.42-24-21.78-32.55-11.4A30.61,30.61,0,0,0,12.75,36.34Z" transform="translate(0)"/><path class="cls-5" d="M26.31,54.88a2,2,0,0,0-2.82-.2c-3.3,2.84-4,6.28-4,11.32h4.26c.08-2.48.39-6.59,2.38-8.3A2,2,0,0,0,26.31,54.88Z" transform="translate(0)"/><path class="cls-5" d="M38.86,54.88a2,2,0,0,1,2.82-.2c3.3,2.84,4,6.28,4,11.32H41.45c-.08-2.48-.39-6.59-2.38-8.3A2,2,0,0,1,38.86,54.88Z" transform="translate(0)"/><path class="cls-6" d="M23.68,54.54c-2,1.37,1.22,5.15,1.22,11.46H40c0-5.58,3.1-10.34,1.19-11.46C37,52.1,28.7,51.14,23.68,54.54Z" transform="translate(0)"/><path class="cls-7" d="M32.53,56.54c6.94,0,10.57-2.47,8.87-4.88-5.23-7.42-12.47-8.36-17.84,0C21.92,54.22,25,56.54,32.53,56.54Z" transform="translate(0)"/><path class="cls-8" d="M32.54,55.67c3.91-.05,11.35-4,9.36-6.39-1.79-2.16-17.17-2.91-18.06-.34C23.09,51.11,28.63,55.73,32.54,55.67Z" transform="translate(0)"/><path class="cls-9" d="M28.24,52c.17-2.27,2.61-3.13,4.34-3.13s4.18.86,4.35,3.13a2.38,2.38,0,0,1-.74,2.24A5.81,5.81,0,0,1,32.58,56,5.78,5.78,0,0,1,29,54.24,2.38,2.38,0,0,1,28.24,52Z" transform="translate(0)"/><path class="cls-7" d="M39.21,61.61a.39.39,0,0,1-.37-.29,11.18,11.18,0,0,0-2.5-5,.38.38,0,0,1,0-.54.39.39,0,0,1,.54,0,11.87,11.87,0,0,1,2.68,5.31.36.36,0,0,1-.27.46Z" transform="translate(0)"/><path class="cls-7" d="M25.82,61.61l-.09,0a.37.37,0,0,1-.27-.46,12,12,0,0,1,2.68-5.31.39.39,0,0,1,.54,0,.38.38,0,0,1,0,.54,11.18,11.18,0,0,0-2.5,5A.38.38,0,0,1,25.82,61.61Z" transform="translate(0)"/><path class="cls-6" d="M32.27,56.12c-1.42,0,4.59-.35,4.6-4.84C38.4,51.88,39.7,56.23,32.27,56.12Z" transform="translate(0)"/><path class="cls-6" d="M32.92,56.12c1.42,0-5.17-.59-4.6-4.84C26.79,51.88,25.49,56.23,32.92,56.12Z" transform="translate(0)"/><path class="cls-7" d="M26,60.4c.64,2.2,3.77,2.78,6.49,2.73,5.36-.1,7.08-2.61,6.13-5.33-.25-.73-1.17-1.11-2.2,0-1.54,1.62-6.76,1.75-8.72-.31C26.61,56.29,25.53,58.73,26,60.4Z" transform="translate(0)"/><g class="cls-10"><path d="M38.83,63.16A6.38,6.38,0,0,1,36,64.86a15.73,15.73,0,0,0,2.59.1c-2.34,1.22-9.75,1.25-11.23.18.33-.08,2.07,0,2.3-.07A9.9,9.9,0,0,1,26,63.17C30,64.77,35.4,64.3,38.83,63.16Z" transform="translate(0)"/></g><path class="cls-11" d="M19.07,37.92c.91,7.72,7.48,16,15.42,15.55,9.55-.61,14.37-11.86,13.4-21C46.77,22,42,13.25,31.18,15.17,23.46,16.53,17.83,27.51,19.07,37.92Z" transform="translate(0)"/><path class="cls-12" d="M32.13,26.76a25.14,25.14,0,0,1-2.71,1.11c-1.46.51-8,.69-8-1.69,0,1.7.68,3.67-.83,5.09-2.05-1.72-4.72-4.35-4.31-7,.62-4,2.36-6.54,6.33-8.17,2.65-1.09,6.42-.84,9.23-.72a36.42,36.42,0,0,1,12.81,3c2.25.95,6.09,5.89,3.94,8.25-2.69,2.95-9.83-2-11.33-4.42C36.59,24.16,34.34,25.7,32.13,26.76Z" transform="translate(0)"/><path class="cls-4" d="M27.41,10.29c-5.21.8-9.33,5.29-11.31,9.8-2.25,5.12-4.14,9.05-3.35,16.25a27.77,27.77,0,0,0,7,16.18c2.7,2.92,8,5.07,9.11,9.24.8-1.54.38-4.6-.14-6.17-1.53-4.61-5.92-7.28-7.29-12-1.12-3.87-1.34-7.39,1.07-10.8a16.83,16.83,0,0,1,7.19-6.21c2.94-1.32,6.35-3,7.52-6.27a27.12,27.12,0,0,0,5.07,4.18C44,25.54,45.73,26,47,27.75c2.26,3.23,2.38,7.71,1.3,11.39-1.42,4.87-4.8,11.15-10,13.44-2.84,1.26-1.76,7.19-.18,11.07C39.5,54.74,46.44,53,49,46.54c5.45-13.87,3.15-19.22-.51-25.58-2.1-3.66-3.84-7.21-7.66-9.3C36.81,9.46,31.83,9.61,27.41,10.29Z" transform="translate(0)"/><path class="cls-13" d="M30.89,8.12c7.1-.35,17.6,3,19.1,13.21-4.94,1.82-9.88.26-13.23-3.88.65.8-3.42,4.85-4,5.34a30.36,30.36,0,0,1-12.8,5.67c.41-1.17,1.43-2.16,1.65-3.35-.19,1-3,1.61-3.79,1.46a2.5,2.5,0,0,1-2.12-2.2c-.29-2,1.26-5.64,2.12-7.39A16.25,16.25,0,0,1,30.89,8.12Z" transform="translate(0)"/><path class="cls-13" d="M14.57,36.39c1,2.42,3.32,3.17,4.64,5.26s.73,3.36.36,5.45a7.13,7.13,0,0,0,.36,3.31C14.81,46.26,14.57,36.39,14.57,36.39Z" transform="translate(0)"/><path class="cls-13" d="M43.3,52c1.43-1.81.83-2.61,1.47-4.08s1.46-1.83,2.63-2.67A6.52,6.52,0,0,0,49,43.62,10.81,10.81,0,0,1,43.3,52Z" transform="translate(0)"/><path class="cls-14" d="M46.61,36.27a1.87,1.87,0,0,1,.26.57c.56,2.12-4.25,1.43-4.82.51-1.08-1.73.53-2.16,1.74-2.14A3.44,3.44,0,0,1,46.61,36.27Z" transform="translate(0)"/><path class="cls-14" d="M28.21,35.89a2.12,2.12,0,0,1,.42.51c1.12,2-3.94,2.57-4.77,1.78-1.54-1.47,0-2.32,1.2-2.63A3.64,3.64,0,0,1,28.21,35.89Z" transform="translate(0)"/><path class="cls-15" d="M38.05,37.7c-.39-.48-1,0-2.12-.08s-1-.47-1.69-.15-.19,1.52,1.57,1.58S38.39,38.11,38.05,37.7Z" transform="translate(0)"/><path class="cls-4" d="M45.18,31c-2.58-1.1-4.94,2.08-3.08,3.73a3.39,3.39,0,0,1,3.64-.11A2.29,2.29,0,0,0,45.18,31Z" transform="translate(0)"/><path class="cls-16" d="M44.11,31.35c1.06-.34,1.48,1.28.59,1.87C43.47,34,42.91,31.72,44.11,31.35Z" transform="translate(0)"/><path class="cls-4" d="M24.75,31.23c2.55-1.17,5,1.94,3.18,3.65a3.37,3.37,0,0,0-3.64,0C23.21,34.14,23.39,31.87,24.75,31.23Z" transform="translate(0)"/><path class="cls-16" d="M26.89,31.55c-1.08-.3-1.44,1.33-.54,1.89C27.6,34.21,28.1,31.89,26.89,31.55Z" transform="translate(0)"/><path class="cls-4" d="M28.48,27.82c.73,0,1.15.44.77,1.12s-1.05.42-1.6.45c-.82,0-1.63,0-2.46,0a13.48,13.48,0,0,0-3.16.34c-.2.06-.37.2-.59.16a1.1,1.1,0,0,1,.49-.74,6.92,6.92,0,0,1,2.53-1.09A15.08,15.08,0,0,1,28.48,27.82Z" transform="translate(0)"/><path class="cls-4" d="M40.86,27.74c-.71.06-1.11.47-.74,1.11s1,.37,1.56.37c.8,0,1.6-.09,2.4-.1a12.68,12.68,0,0,1,3.08.2c.21.05.37.17.58.13,0-.26-.26-.54-.48-.69a6.67,6.67,0,0,0-2.48-1A14.71,14.71,0,0,0,40.86,27.74Z" transform="translate(0)"/><path class="cls-17" d="M49.66,30.68a4.36,4.36,0,0,1-5.35,1,2.42,2.42,0,0,0-2.7.82,2.68,2.68,0,0,1,3-1.91C45.88,30.81,47.16,31.85,49.66,30.68Z" transform="translate(0)"/><path class="cls-17" d="M20.35,31a4.36,4.36,0,0,0,5.37.94,2.41,2.41,0,0,1,2.7.79,2.68,2.68,0,0,0-3.07-1.88C24.14,31.08,22.86,32.13,20.35,31Z" transform="translate(0)"/><path class="cls-18" d="M44,40.57c-2.57.6-5.11.34-9,.5-3.21.15-7.92,1.1-10.47-.19,4.31,6.34,6.93,7.48,10.23,7.62,4.14.18,5.51-2.46,6.11-4.43A11.38,11.38,0,0,1,44,40.57Z" transform="translate(0)"/><path class="cls-19" d="M26.54,42a35.41,35.41,0,0,0,15.82-.39,4.22,4.22,0,0,0-2,2.2c-.59,1.46-2.74,2.5-6,2.49A9.65,9.65,0,0,1,26.54,42Z" transform="translate(0)"/><path class="cls-20" d="M28.46,42.33s.17,1.29,2,1.77a18.25,18.25,0,0,0,7.49.21C39.7,44,40.54,42,40.54,42A38,38,0,0,1,28.46,42.33Z" transform="translate(0)"/><path class="cls-20" d="M29.34,44.19c-.18-.33-.11-.88.73-.39,1.19.7,3.15.82,5.5.71,2.17-.1,3.27-.72,3.7-.36S37.79,46.67,34,46.32,29.34,44.19,29.34,44.19Z" transform="translate(0)"/><path class="cls-21" d="M28.93,43.24s8.79-.82,10.9-.12A4.36,4.36,0,0,0,40.54,42a44,44,0,0,1-12.08.35A2.12,2.12,0,0,0,28.93,43.24Z" transform="translate(0)"/><path class="cls-21" d="M30.78,44.06a13.28,13.28,0,0,0,6.93.19S34,45.8,30.78,44.06Z" transform="translate(0)"/><path class="cls-4" d="M25.73,14.5c-.63.15-1.21.31-1.71.46-4.94,1.43-16,5.23-8.93,11.85,2,1.9,3.5-.5,5.25-1.54a39.85,39.85,0,0,1,7.54-3.75,48.15,48.15,0,0,1,8.53-2,3.54,3.54,0,0,0,.79-.32c1.41,1.8,4.07,1.6,6,1.22,1.51-.29,1.26-.3,2.58.76.82.66,2.38,2.25,3.45,2.41,1.82.26,2.32-4.55,1.88-5.62C48.12,10.44,33,12.68,25.73,14.5Z" transform="translate(0)"/><path class="cls-22" d="M12.37,31.94c2.28-3.45,7-7.66,13.62-10.41,6.82-2.81,16.56-3.34,17.22-5.79S35,13.65,29.94,13.16c-14-1.35-18.73,5.19-18.79,7-.06,1.65.21,5.27-.11,11.18C11,32.54,11.78,32.81,12.37,31.94Z" transform="translate(0)"/><path class="cls-23" d="M36.67,18.12c-3.35,1.14-7,1.07-10.23,2.27-2.65,1-9.14,6.1-10.35,1.7-.91-3.32,1.62-6.94,4.79-7.83a24.68,24.68,0,0,1,8.93-.79c1.36.11,10.15.48,8.66,3a2.45,2.45,0,0,1-.42.54Z" transform="translate(0)"/><path class="cls-24" d="M27.73,16.1s1.18-.24,1.64.56-.71,1.42-.88.59A1.76,1.76,0,0,0,27.73,16.1Z" transform="translate(0)"/><path class="cls-24" d="M21.58,15.49c1-.36,4.78-.13,5.22,2.67s7.44.84,3.92-2A7.93,7.93,0,0,0,21.58,15.49Zm6,1.94c-.19,0-1,.32-.68-.29.09-.19.88-.24.5-.6s-.73.3-1,0,.35-.28.17-.56-1.74.39-.83-.55c-.48-.33-1,.49-1.38,0,.06,0,.13-.15.18-.18-.14,0-.28-.13-.41-.16a.47.47,0,0,1,.54-.26c.19,0,.31.34.45.32s.05-.24.18-.31c.66-.35.2,0,.64.3.06-.31.21-.62.51-.4.1.06-.11.33.07.44s.23-.1.34-.15,0-.34.29-.31.11.17.18.27-.23.34.08.4.16-.19.27-.25c.27-.15.38-.48.63,0,.16.28-.26.69.35.48.21-.07.32-.7.6-.07.12.26-.39.59.25.62.2,0,.29-.35.53-.3.43.1.08.71,0,.93.17,0,.51-.26.68-.16,0,.11-.13.2-.16.31-.08.37-.42.23,0,.42.09,0,.9-.16.67.29s-1.2-.51-1.18.23c0,.16.6.52.33.74s-.39-.3-.52-.38c-.85-.49-.51.52-.66,1-.74,0-.19-.74-.63-1s-.57.57-1,.45c-.79-.23.51-.88.21-1.14A.4.4,0,0,0,27.54,17.43Z" transform="translate(0)"/><path class="cls-22" d="M51.4,25.05a21.54,21.54,0,0,0-12.66-7.13C32.47,17,36.56,14,40.87,14.28S51.58,16,52.28,17.36s.14,5.44.47,7.13C52.89,25.21,52.06,26,51.4,25.05Z" transform="translate(0)"/><path class="cls-25" d="M50.54,23.64a1.19,1.19,0,0,1-.23-.31c-.33-.58-.16-1.27-.59-1.88A12.42,12.42,0,0,1,48.66,19c.5-.42,2.73-2.9,3.48-1.73-.32,0-.81-.17-.79.28,0,.19.79.68.28.76-.29,0-.68-.79-.91-.35s.51.46.55.76c.09.64-.47.06-.63,0s-.9-.37-.58.25c.08.15,1.16.48.65.69s-.69-.55-1.07-.25.26.77.61.82c.19,0,.88-.32.79.19s-.67,0-.85.27c-.57.74,1.46.16,1.31.87-.11.53-.7,0-1,.13-.46.29.11.78.46.89s.95-.19.88.37-.74-.08-1,.14.66,1.21.9,1.38A7.45,7.45,0,0,1,50.54,23.64Z" transform="translate(0)"/><path class="cls-26" d="M44.09,18.78c1.38.59,3.44,2.84,4.89,2.85s-.74-1.21-.67-1.83c.11-1.23,3-.44,3.39-1.78.53-1.92-5.59-2.28-6.75-2.34-1.9-.09-3.35.82-2.1,2.62Z" transform="translate(0)"/><path class="cls-26" d="M37,18.05a14.19,14.19,0,0,1-1.72,0,35.31,35.31,0,0,0-4.35.38c-.86.13-2.55.56-3.38.06-1.15-.68.54-1.21,1-1.91.16-.25-2.74-.72-2.95-.75a6.39,6.39,0,0,1-2.34-.5c-1.35-1.08,2.31-1.19,2.87-1.25A33.81,33.81,0,0,1,31.59,14c1.19.08,8.8,1.23,6.3,3.67A1.56,1.56,0,0,1,37,18.05Z" transform="translate(0)"/><path class="cls-23" d="M39.83,12.91c-2.07-2.22-2-4.21-5.29-5.32-3.12-1.06-6.47.27-9.69,0,2.38,6.79,6.34,10.32,13.46,8.36,1-.28,2-.57,3-.76Z" transform="translate(0)"/><path class="cls-27" d="M37.84,13.81c-.28-1.92-2.63-3.64-4.61-3.86.64.88,2.07,1.94,2.18,3-.73.13-2.21-.91-2.94-1.18-1-.38-2-.81-3-1.27.83,3.28,4.54,5.81,8.2,5.49.58-.06,1.44-.16,1.78-.64Z" transform="translate(0)"/><path class="cls-23" d="M47.66,10c1.81-.53,5.87,1.06,7.69,1.07-1.22,3.48-4.06,6.92-7.4,7.7-2.83.66-4.78-2.13-7.52-2.79A11.45,11.45,0,0,1,47.66,10Z" transform="translate(0)"/><path class="cls-27" d="M44.91,14.82c2.06-.34,3.66-1.87,5.75-2.19-.52,1.61-2,1.9-2.85,3.12.44.18,1,.13,1.35.37-1.52,1.18-7.16,2-5.85-1.21Z" transform="translate(0)"/><path class="cls-23" d="M46.13,15.43c-.43,2-1.58,4.69-4.11,4.49-2-.15-4.74-.84-4.84-3.08,0-1.06.37-4.3,1.12-5.14,1.05-1.19,4.09-.07,5.36.3C45.47,12.52,46.53,13.56,46.13,15.43Z" transform="translate(0)"/><path class="cls-28" d="M39.36,12c1.18-.57,2.44-.08,3.67,0l1.17.32c1.66.46,2.2,3,1.31,4.25,0,0-.09,0-.09,0,.06-.73.71-1.84-.06-2.34-.11.11-.46,1.82-.83,1.09s.68-1.35-.27-2c-.33.36,0,2.25-.93,1.87s.49-1.69-.44-2.21c-.16.37-.48,3.37-1.38,2.59-.33-.29.9-3.23-.17-2.73-.55.26-.7,3.16-1.24.8-.08-.34-.1-.71-.16-1.06a2.27,2.27,0,0,0-.3.06c.23,1-.48,1.75-.74.4-.28.36-.41.82-.68,1.16C38.7,13.3,38.25,12.55,39.36,12Z" transform="translate(0)"/><path class="cls-28" d="M37.57,10.88c-.9-1.69-1.47-2.67-3.45-3.15s-4,0-6,.1a8.41,8.41,0,0,0-2.56.24,7.55,7.55,0,0,0,1.42,2.65c.4-.72-.89-1.47-.84-1.61.27-.71.86-.08,1.35.13-.23-.29-.18-.54-.23-.87.49.2.77.54,1.28.56-.19-.46-.13-.71.34-.74s.54.68,1,.67c.16,0-.13-.67.38-.7s.21.78.85.62c.11,0,.24-.81.26-1,.7.33.09,1,1,1.18l0,0a1.08,1.08,0,0,1,.2-1c.49.28.21.87.39,1,.93.81.4-.21.7-.36s.21-.71.84,0c.27.3-.66.88.29,1,0-.29.25-.61.29-.85,1,.25.08.85.48,1.22s.56-.11.48-.5a17.86,17.86,0,0,1,1.82,2.25Z" transform="translate(0)"/><path class="cls-28" d="M44.64,12c1.21-.82,2-1.62,3.51-1.6s3,.64,4.53.83a12.19,12.19,0,0,1,2,.25c-.11,1.26-1.23,2.3-2,3.27A3.68,3.68,0,0,1,53,13.16s1.19-1,1-1a6.93,6.93,0,0,0-.88.56c-1-.26.26-.65-.07-.86-.64-.42-1.37.48-2.1.24.35-.48.25-.85-.36-.87-.43,0-.86.91-1.35.73-.8-.3.27-.86.07-1.06-.69-.69-1.08,1.17-2,.83.34-.25.35-.54.47-.85-.7,0-1.09.58-1.68.81C45.67,11.87,44.92,11.79,44.64,12Z" transform="translate(0)"/><path class="cls-27" d="M45.22,17.31c-.8,2.22-4.72.66-6.18-.15a3.18,3.18,0,0,1-1.4-1.26c-.87,3.25,4.94,4.83,7,2.62a3.59,3.59,0,0,0,.88-1.65Z" transform="translate(0)"/><path class="cls-24" d="M22,23c.13-.23.31-.76.57-.87s.56.14.78,0c1.09-.62-.28-.49-.43-.62-.71-.6.4-.64.79-.71.82-.14.89-.24.21-.68-.16-.1-.73.16-.62-.28s.64-.13.89-.2c.86-.22,1.22-1.45.17-1.14-.58.17-.55,1.29-1.08.12-.09-.21.31-.69-.3-.78s-.31.58-.7.67c-1.21.3.19-1.46-.7-1.43-.52,0-1.28,1.88-1.3.16,0-.17.22-.42.34-.54-.91-.8-.74.41-1.39.47s-.53-.68-.24-1c-.67-.81-1.77,1.52-1.85-.13,0,0,.45-.83,0-.75,1.33-.23,4,1.24,5.3,1.76l3.67,1.52-1.41,2.2A4,4,0,0,1,22,23Z" transform="translate(0)"/><path class="cls-24" d="M20.41,21.43a2.05,2.05,0,0,0-2-1c-1.21.26-.85,1.84.14,1.3A2.56,2.56,0,0,1,20.41,21.43Z" transform="translate(0)"/><path class="cls-24" d="M38.58,15s-.65,1.22.27,1.88,2-.47,1-.82A2,2,0,0,1,38.58,15Z" transform="translate(0)"/><path class="cls-24" d="M43.17,17.29s1.13.32,1.63-.42-.58-1.43-.81-.64A1.71,1.71,0,0,1,43.17,17.29Z" transform="translate(0)"/><path class="cls-24" d="M31.78,10.37a1.53,1.53,0,0,0-1.43-.88c-.94.14-.76,1.36,0,1A1.94,1.94,0,0,1,31.78,10.37Z" transform="translate(0)"/><path class="cls-24" d="M49.84,16s.94.15,1.27-.49-.62-1.1-.72-.45A1.37,1.37,0,0,1,49.84,16Z" transform="translate(0)"/><path class="cls-29" d="M12.37,21.26s1.64.5,2.4-.57-.81-2.1-1.16-1A2.54,2.54,0,0,1,12.37,21.26Z" transform="translate(0)"/><path class="cls-29" d="M14,24.36s-1.1.84-.63,1.82,1.93.42,1.23-.32A2,2,0,0,1,14,24.36Z" transform="translate(0)"/><path class="cls-24" d="M32.4,14.52l-1.74-1.65s-.77.93.08,1.43A2.13,2.13,0,0,0,32.4,14.52Z" transform="translate(0)"/><path class="cls-24" d="M46.86,14,49,13s-.64-.93-1.37-.37A1.75,1.75,0,0,0,46.86,14Z" transform="translate(0)"/><path class="cls-28" d="M24.94,13.49S17,13.53,13,17.88c0,0,.19,1,2.11-.44A24.46,24.46,0,0,1,24.94,13.49Z" transform="translate(0)"/></g></g></g></svg>