<svg xmlns="http://www.w3.org/2000/svg" xmlns:xlink="http://www.w3.org/1999/xlink" viewBox="0 0 66 66"><defs><style>.cls-1{fill:none;}.cls-2{clip-path:url(#clip-path);}.cls-3{fill:#2b6877;}.cls-4{fill:#25252e;}.cls-5{fill:#918fa0;}.cls-6{fill:#f29f63;}.cls-7{fill:#eba971;}.cls-8{fill:#d99a64;}.cls-9{fill:#ffbc82;}.cls-10{fill:#b54d26;opacity:0.4;}.cls-11{fill:#261b18;}.cls-12{fill:#ffd4ad;}.cls-13{fill:#e6d2c3;opacity:0.7;}.cls-14{fill:#80523a;}.cls-15{opacity:0.5;}.cls-16{fill:#94110c;}.cls-17{fill:#fff;}</style><clipPath id="clip-path" transform="translate(0.01 0)"><circle class="cls-1" cx="33" cy="33" r="33"/></clipPath></defs><g id="Layer_2" data-name="Layer 2"><g id="avatars"><g class="cls-2"><rect class="cls-3" width="66" height="66"/><path class="cls-4" d="M28.47,53.59c-3.91.62-7.9,5.17-8.53,12.41h6.53c.2-3.76.54-7.77,1.15-8.85Z" transform="translate(0.01 0)"/><path class="cls-4" d="M39.1,53.59,40,57.15c.61,1.08.95,5.09,1.15,8.85h6.54C47,58.76,43,54.21,39.1,53.59Z" transform="translate(0.01 0)"/><path class="cls-4" d="M40.21,53.88c-3.76-1.52-9.78-1-12.92.06-1.91.66-1.67,6.71-1.41,12.06H41.7C42,60.69,42.17,54.67,40.21,53.88Z" transform="translate(0.01 0)"/><path class="cls-5" d="M28.06,52.92c-1.91,3.08,5.73,6.25,5.73,6.25s6.75-3,6-5.73C39,50.15,29.78,50.16,28.06,52.92Z" transform="translate(0.01 0)"/><path class="cls-6" d="M33.71,49c-2,0-4.78,1-5,3.64a2.83,2.83,0,0,0,.85,2.62,6.54,6.54,0,0,0,4.13,2,6.52,6.52,0,0,0,4.12-2,2.78,2.78,0,0,0,.85-2.62C38.48,50,35.69,49,33.71,49Z" transform="translate(0.01 0)"/><path class="cls-7" d="M48.82,34.2c-1.54-.59-2.51.38-3,2.3-.2.76-.76,4.82-.38,5.57l0,.1a5.35,5.35,0,0,0,2.6-.2C50.71,41,52,35.43,48.82,34.2Z" transform="translate(0.01 0)"/><path class="cls-8" d="M17.16,21.11c-1,4.85-1.26,11.3,1.07,15.94,1.23,2.43,4.14.81,6.2.3,2.53-.63,5.07-1.2,7.62-1.76,4.18-.92,8.77,0,13,.4,3.32.32,3.57,1.87,3.57-.83,0-3.36.86-8.88,0-12.56C44.49,4.71,19.63,9.42,17.16,21.11Z" transform="translate(0.01 0)"/><path class="cls-9" d="M31.65,15.15C19.79,16.76,17.92,27.61,19.07,38.24c.87,8,6.75,16.82,16,16.42,9.42-.42,14.42-11.95,13.47-21.74C47.48,22.28,45.2,13.31,31.65,15.15Z" transform="translate(0.01 0)"/><path class="cls-9" d="M16.46,33.75c-3.89,1-2,8.24.9,9.88a2,2,0,0,0,3-1.11c.66-1,.27-3.8-.4-6.22C19.44,34.34,18.32,33.29,16.46,33.75Z" transform="translate(0.01 0)"/><path class="cls-10" d="M17.75,35.86c-.85-.42-3,.24-2.07,2,.58-1.56,1.51-.5,1.34.61-.12.74-.93.73-.15,1.72.41.53,1.29.36,1.74.09C20,39.39,18.79,36.37,17.75,35.86Z" transform="translate(0.01 0)"/><path class="cls-11" d="M27,31.21c-2.28-.8-3.38,3.23-1.78,4.4a3.14,3.14,0,0,1,2.2,0C28.88,34.76,28.73,31.79,27,31.21Z" transform="translate(0.01 0)"/><path class="cls-10" d="M36.65,38.83c-1.23.05-1.73-.51-2.58,0s.42,2.14,2.6,2,3.08-1.65,2.61-2.19S38,38.79,36.65,38.83Z" transform="translate(0.01 0)"/><path class="cls-12" d="M36.08,33.28c-1,.16-2.21,5.52-1.66,5.9a4.6,4.6,0,0,0,4.86-.49C39.57,38.34,37.21,33.1,36.08,33.28Z" transform="translate(0.01 0)"/><path class="cls-11" d="M46.56,31.54c-2.22-1.41-4,2.89-2.17,4.17a3,3,0,0,1,2.35.06C47.67,34.8,47.75,32.3,46.56,31.54Z" transform="translate(0.01 0)"/><path class="cls-13" d="M26.3,32c-.88.37-.07,2.06.76,1.36C27.66,32.81,27.07,31.62,26.3,32Z" transform="translate(0.01 0)"/><path class="cls-13" d="M45.66,32c-.89.16-.51,1.91.41,1.44C46.74,33.09,46.46,31.86,45.66,32Z" transform="translate(0.01 0)"/><path class="cls-14" d="M26.58,28.07c-1.35,0-3.39,1.35-4.37,2.25.23.45,1.05.21,1.43.1.65-.16,1.33-.44,1.59-.5a5.29,5.29,0,0,1,3.49.25c.56.27,1.87.88,2.26.07C31.75,28.61,27.41,28.08,26.58,28.07Z" transform="translate(0.01 0)"/><path class="cls-14" d="M41.47,30.25c.33.81,1.49.18,2-.09a4.1,4.1,0,0,1,3-.3c.23.06.81.33,1.38.49.33.09,1,.32,1.25-.13-.84-.88-2.6-2.21-3.78-2.18C44.62,28.05,40.82,28.63,41.47,30.25Z" transform="translate(0.01 0)"/><path class="cls-12" d="M47.67,37.88a3.54,3.54,0,0,0-2.88-1.07c-1.24,0-2.87.44-1.77,2.19.59.94,5.5,1.62,4.92-.54A1.82,1.82,0,0,0,47.67,37.88Z" transform="translate(0.01 0)"/><path class="cls-12" d="M28.67,37.11a3.74,3.74,0,0,0-3.2-.45c-1.26.26-2.84,1.09-1.31,2.64.81.82,6,.42,4.92-1.66A2,2,0,0,0,28.67,37.11Z" transform="translate(0.01 0)"/><g class="cls-15"><path class="cls-16" d="M25.1,41.67c1.09,2.14,3.84,1.15,2.72-1A2.05,2.05,0,0,1,25.1,41.67Z" transform="translate(0.01 0)"/><path class="cls-16" d="M43.2,40.46a1.54,1.54,0,1,0,2.93.86A2.29,2.29,0,0,1,43.2,40.46Z" transform="translate(0.01 0)"/><path class="cls-16" d="M44.46,41.62a.64.64,0,0,0-.82.33c-1.12,3-4.4,5-8.19,4.9a8.48,8.48,0,0,1-7.7-4.53A.72.72,0,0,0,26.9,42a.52.52,0,0,0-.35.73A9.79,9.79,0,0,0,35.16,48h.35c4.36.08,8.07-2.14,9.37-5.63A.6.6,0,0,0,44.46,41.62Z" transform="translate(0.01 0)"/></g><path class="cls-8" d="M32.81,13.07C23.19,13,16.36,19.89,17,33.66a2.45,2.45,0,0,1,1.82.57,4.7,4.7,0,0,1,1,2.08c.1.22.22.58,1,.54-1.43-4.62-.61-11.11,1-13.22,3.9-5.23,12.66,1.84,15.56,1.73,2.19-.08,7.46-6.66,9.55-1.72C48.28,27,48.24,13.2,32.81,13.07Z" transform="translate(0.01 0)"/><path class="cls-17" d="M18.2,41.17a1,1,0,1,0,1,1A1,1,0,0,0,18.2,41.17Z" transform="translate(0.01 0)"/></g></g></g></svg>