<svg xmlns="http://www.w3.org/2000/svg" xmlns:xlink="http://www.w3.org/1999/xlink" viewBox="0 0 66 66"><defs><style>.cls-1{fill:none;}.cls-2{clip-path:url(#clip-path);}.cls-3{fill:#fff;}.cls-4{fill:#3a3a4a;}.cls-5{fill:#1e1e29;}.cls-13,.cls-6{opacity:0.3;}.cls-7{fill:#535363;}.cls-8{fill:#f29f63;}.cls-9{fill:#1c1c26;}.cls-10{fill:#3d2518;}.cls-11{fill:#977053;}.cls-12{fill:#ffbc82;}.cls-13{fill:#a63f24;}.cls-14{fill:#b54319;opacity:0.5;}.cls-15{fill:#82572e;}.cls-16{fill:#202930;}.cls-17{fill:#ffd4ad;}.cls-18{fill:#c3cee6;opacity:0.7;}.cls-19{fill:#2b221c;}.cls-20{fill:#8f2a25;}.cls-21{fill:#fff7ea;}.cls-22{fill:#ecdcc4;}</style><clipPath id="clip-path" transform="translate(0)"><circle class="cls-1" cx="33" cy="33" r="33"/></clipPath></defs><g id="Layer_2" data-name="Layer 2"><g id="avatars"><g class="cls-2"><rect class="cls-3" width="66" height="66"/><path class="cls-4" d="M39.6,51.5c-4.9-2.63-12-1.73-15.28.39-4.25,2.76-3.57,7.24-2.46,14.11H41.77C43,59.38,43.76,53.73,39.6,51.5Z" transform="translate(0)"/><path class="cls-5" d="M43.89,53.73c-.42-1.08-5.27-2.7-5.27-2.7-1.35,4.4-1.62,10.2-1.52,15h6.33C43.79,59.42,44.15,54.41,43.89,53.73Z" transform="translate(0)"/><path class="cls-5" d="M42.16,52.46,41.23,66h6.09c.22-1.58.56-4.34.71-7.09C48.27,54.69,45.21,53.73,42.16,52.46Z" transform="translate(0)"/><path class="cls-5" d="M24.85,51s-4.85,1.62-5.26,2.7c-.27.68.09,5.69.45,12.27h6.34C26.47,61.23,26.21,55.43,24.85,51Z" transform="translate(0)"/><path class="cls-5" d="M15.44,58.91c.16,2.75.5,5.51.71,7.09h6.09l-.93-13.54C18.27,53.73,15.2,54.69,15.44,58.91Z" transform="translate(0)"/><path class="cls-6" d="M25.19,54.27a10,10,0,0,0,4.21,5.24l2.32-2.68,3.05,2.67c2.08-1.13,4.09-3.84,4.12-6.09C38.91,51.79,24.24,50.91,25.19,54.27Z" transform="translate(0)"/><path class="cls-7" d="M25.22,50.28c-2.59,3.69,4,8.35,4,8.35l2.55-2.12,2.89,2.22s5.94-3.45,3.83-8.08C36.57,46.49,27.84,46.56,25.22,50.28Z" transform="translate(0)"/><path class="cls-8" d="M36.42,47c-1.64-1.3-4.85-1.5-6.82-1.08a4.72,4.72,0,0,0-3.55,4.31c-.18,2.49,3.49,5.82,6,5.88C34,56.11,42.15,51.47,36.42,47Z" transform="translate(0)"/><path class="cls-7" d="M31.63,60a.65.65,0,1,0,.65.65A.65.65,0,0,0,31.63,60Z" transform="translate(0)"/><path class="cls-7" d="M31.61,63.29a.65.65,0,1,0,.65.65A.65.65,0,0,0,31.61,63.29Z" transform="translate(0)"/><path class="cls-9" d="M31.77,58.24l4,2.66c.73-.82,1.07-3.76.23-4.67Z" transform="translate(0)"/><path class="cls-9" d="M27.79,60.9l4-2.66-4.21-2C26.72,57.14,27.05,60.08,27.79,60.9Z" transform="translate(0)"/><path class="cls-9" d="M32.06,56.84h-.34c-.49,0-1.13,0-1.43.25s0,1.53.16,2c.3.77,1.08.47,1.78.49,1,0,1.26-.77,1.29-1.73S32.89,56.81,32.06,56.84Z" transform="translate(0)"/><path class="cls-10" d="M30.23,9.68c-4.95.18-10.17,2.46-12.54,7a14.09,14.09,0,0,0-1.33,6c-.14,4.67-.74,9,1.39,13.36,1.11,2.3,3.88.82,5.82.37,2.38-.55,4.78-1,7.18-1.54C34.69,34,39,35,43,35.41c3.12.34,2.05-2.6,1.84-5.13-.3-3.78.84-4.83,1-6.75C46.38,14.29,41.75,9.26,30.23,9.68Z" transform="translate(0)"/><path class="cls-11" d="M41.31,20.77c-.88,6.93-.16,11.49.14,11.93a2.24,2.24,0,0,1,1.71.57,4.27,4.27,0,0,1,.89,2,5.08,5.08,0,0,0,2.26.42C47.35,21.26,44.82,21.09,41.31,20.77Z" transform="translate(0)"/><path class="cls-12" d="M30.67,15.63c-7.44,1.13-13.08,11.51-12.15,21.52.7,7.49,6.1,15.9,14.79,15.66,8.85-.26,13.71-11,13-20.24C45.45,22.56,41.08,14.06,30.67,15.63Z" transform="translate(0)"/><path class="cls-13" d="M43.45,18.94a34.08,34.08,0,0,0-12.23-3.12c-2.69-.16-5.61-.44-8.16.59-3.83,1.54-5.54,4-6.18,7.94-.25,1.46-.26,3.91,1.67,4.13,2.27.26,2.88-2.06,3.59-3.62a3.41,3.41,0,0,1,3-2.2c2-.16,4.08.76,6.11,1.26a12.31,12.31,0,0,0,1.32.26,18.12,18.12,0,0,0,5-.18c1.24-.18,2.38-.69,3.58-.91A10.7,10.7,0,0,0,44,22.37C45.65,21.42,44.58,19.44,43.45,18.94Z" transform="translate(0)"/><path class="cls-12" d="M16.13,32.89c-3.67.85-2.44,6.19.48,7.38a7.1,7.1,0,0,0,2.91.44l.06-.08c.46-.67,0-4.55-.17-5.29C18.93,33.49,17.88,32.49,16.13,32.89Z" transform="translate(0)"/><path class="cls-14" d="M17.31,34.89c-.79-.41-2.85.18-2,1.81.56-1.45,1.42-.44,1.24.6-.12.7-.88.68-.17,1.61a1.34,1.34,0,0,0,1.64.11C19.42,38.25,18.29,35.39,17.31,34.89Z" transform="translate(0)"/><path class="cls-10" d="M45.34,12.05c-.87-.53-3.11-.16-4.12-.4.5-1.51,1.71-2.38,1.78-4.06a10.15,10.15,0,0,1-3.11,1,10.89,10.89,0,0,0,.6-2.29,9.14,9.14,0,0,1-3.74,1.5,20.66,20.66,0,0,1,.41-2.33A25.11,25.11,0,0,0,34.51,7c-.18.1-2,1-2,.77,0-.45,0-.9,0-1.35A5.44,5.44,0,0,1,29.38,8a2.42,2.42,0,0,1-.06-.79,63.55,63.55,0,0,1-7.84,5.25c-1.51.9-2.21,2.54-3,4.13-.58,1.14-1.7,3.91-1,5.07.55.88,3.63,2.84,4.72,1.54a4.22,4.22,0,0,1,3.69-1.54c2.18,0,4.33.8,6.38,1.43a11.9,11.9,0,0,0,6.79-.23c.89-.24,2.07-.38,3.19-.63,1.38-.29,3.06-.71,3.24-2.32s.2-3.88,1.25-4.08a7.19,7.19,0,0,0-3.14-1.69A13.85,13.85,0,0,1,45.34,12.05Z" transform="translate(0)"/><path class="cls-11" d="M16.49,20.89c-.89,6.92-.16,11.49.14,11.92a2.33,2.33,0,0,1,1.71.57,4.34,4.34,0,0,1,.89,2,2.42,2.42,0,0,0,1.63.5c-.49-4.69.37-11.26,1.33-12.65C18.86,22.72,16.74,21.29,16.49,20.89Z" transform="translate(0)"/><path class="cls-15" d="M45.82,15.67a8.43,8.43,0,0,0-3.25-.9A6.31,6.31,0,0,1,44,12c-1.4-.2-2.79.86-4.17.74.6-1.28,1.86-2.94,2.09-4.27a11,11,0,0,1-3.16.92,9.16,9.16,0,0,0,.37-2.13C38.11,7.9,37,9,35.68,9.07c-.11-.75.16-1.57,0-2.28a13.65,13.65,0,0,1-3.87,2.49c-.14-.47-.28-1-.41-1.48-.63.44-3.34,2.92-3,1C26.17,11,21.82,12.26,20.15,15c-1,1.61,1.29-1.5,9.3-3.22.5-.1-5,3.64-4.94,4.1.46-.17,7.59-3.94,7.68-3.28.22,1.76-6,5.1-7,6.39,0,0,11.18-6.61,12.4-6.68,0,1.75-6.11,7.15-7.39,7.88,2.71-.47,8.16-5.45,10.78-6-.28.63-6.21,6.13-7.33,7,1.35-.46,7.9-4.36,9.46-4.9-.14,2-4.26,4.93-5.69,5.83,1-.44,4.86-2.45,5.81-3a8.22,8.22,0,0,1-1,2.26,7.93,7.93,0,0,0,2.35-2c.37-.67.53-1.55.82-2.23a4.2,4.2,0,0,1-.87,0C44.73,16.55,45.39,16.14,45.82,15.67Z" transform="translate(0)"/><path class="cls-16" d="M27.21,31c-1.87-.9-3.21,2.42-2,3.58a2.67,2.67,0,0,1,1.88.24C28.43,34.21,28.59,31.67,27.21,31Z" transform="translate(0)"/><path class="cls-14" d="M34.91,37.64c-1.11,0-1.53-.56-2.32-.13s.25,2,2.22,2,2.86-1.3,2.48-1.82S36.14,37.68,34.91,37.64Z" transform="translate(0)"/><path class="cls-17" d="M34.69,30.92c-.9,0-1.24,2.82-1.63,4.12s-.69,2.55-.23,2.94c1.14,1,3.61.43,4.35-.28.29-.29-.29-1.65-.74-3S35.72,30.88,34.69,30.92Z" transform="translate(0)"/><path class="cls-16" d="M43.62,31.56c-1.88-1.24-3.46,2.43-1.91,3.55a2.51,2.51,0,0,1,2,.08C44.53,34.37,44.63,32.23,43.62,31.56Z" transform="translate(0)"/><path class="cls-18" d="M26.5,31.56c-.78.23-.25,1.75.52,1.24C27.58,32.43,27.2,31.35,26.5,31.56Z" transform="translate(0)"/><path class="cls-18" d="M42.85,31.94c-.77.12-.47,1.63.33,1.24C43.76,32.9,43.53,31.83,42.85,31.94Z" transform="translate(0)"/><path class="cls-19" d="M28.79,27.93A21.69,21.69,0,0,1,26,27.38a3.38,3.38,0,0,0-3.24,2,4.83,4.83,0,0,0,.85-.12A6.49,6.49,0,0,1,24.84,29a15.22,15.22,0,0,1,2.4.4c.59.08,3.42.81,3.48-.1A2.44,2.44,0,0,0,30.37,28C30.05,27.72,29.18,28,28.79,27.93Z" transform="translate(0)"/><path class="cls-19" d="M40.77,28.27c-.37,0-1.15-.3-1.47-.05a2.54,2.54,0,0,0-.44,1.32c0,.91,2.65.38,3.21.34.3,0,1.46-.14,1.78-.19a14.33,14.33,0,0,1,.21-1.64A25.85,25.85,0,0,1,40.77,28.27Z" transform="translate(0)"/><path class="cls-19" d="M44.65,28.34a8.11,8.11,0,0,0-.09,1.28c.22.06,1.41,0,1.67.06C46.07,29.07,45.21,28.76,44.65,28.34Z" transform="translate(0)"/><path class="cls-17" d="M45,37a3.35,3.35,0,0,0-2.79-.77c-1.15.1-2.65.65-1.47,2.2.63.83,5.28,1.06,4.56-.91A1.87,1.87,0,0,0,45,37Z" transform="translate(0)"/><path class="cls-17" d="M27.66,36.54a3.49,3.49,0,0,0-2.9-.89c-1.21.06-2.79.59-1.61,2.26.63.88,5.5,1.28,4.81-.81A1.77,1.77,0,0,0,27.66,36.54Z" transform="translate(0)"/><path class="cls-14" d="M24.56,39.75s1.9,8.37,8.37,9.11c4.13.47,5.51-1.65,7.15-4.2a33.58,33.58,0,0,1,2.78-4.41C40,42.46,32.37,44.46,24.56,39.75Z" transform="translate(0)"/><path class="cls-14" d="M41.36,40.39c-.24.16.27.07,1,0s.4,1,.83.94.57-.91.09-1.36S41.36,40.39,41.36,40.39Z" transform="translate(0)"/><path class="cls-14" d="M24.41,39.39c-.61.14-1,1.17-.59,1.36s.62-.73,1.29-.87,1.56.13,1.37-.08A5.1,5.1,0,0,0,24.41,39.39Z" transform="translate(0)"/><path class="cls-20" d="M25.82,41s1.77,6.11,7.64,6.6a6.56,6.56,0,0,0,5.93-3.3,13.08,13.08,0,0,1,2.36-2.81A14.81,14.81,0,0,1,25.82,41Z" transform="translate(0)"/><path class="cls-21" d="M25.82,41a9.9,9.9,0,0,0,3.44,3.5,11.93,11.93,0,0,0,7.78.83c2-.37,4.71-3.84,4.71-3.84S34.68,45.63,25.82,41Z" transform="translate(0)"/><path class="cls-21" d="M34.3,45.26A12.66,12.66,0,0,1,29,43.9c-1-.49-1,.57-.79,1.1,0,0,.92,1.92,4.78,2.53,3.64.57,5.53-2.12,5.08-2.7S37,45.41,34.3,45.26Z" transform="translate(0)"/><path class="cls-22" d="M25.82,41a7.7,7.7,0,0,0,1.47,2,29.54,29.54,0,0,0,13,.18s1.35-1.17,1.48-1.65A17.44,17.44,0,0,1,25.82,41Z" transform="translate(0)"/><path class="cls-22" d="M28.23,43.86C33.79,47.51,37.6,45,37.6,45A16.11,16.11,0,0,1,28.23,43.86Z" transform="translate(0)"/></g></g></g></svg>