<svg xmlns="http://www.w3.org/2000/svg" xmlns:xlink="http://www.w3.org/1999/xlink" viewBox="0 0 66 66"><defs><style>.cls-1{fill:none;}.cls-2{clip-path:url(#clip-path);}.cls-3{fill:#fff;}.cls-4{fill:#e83133;}.cls-5{fill:#e0e0e0;}.cls-6{fill:#fff9f0;}.cls-7{fill:#f29f63;}.cls-8{fill:#3a3a4a;}.cls-9{fill:#3d2216;}.cls-10{fill:#ffbc82;}.cls-11{fill:#a61900;opacity:0.2;}.cls-12{fill:#b54319;}.cls-12,.cls-26{opacity:0.5;}.cls-13{fill:#fa9769;}.cls-14{fill:#4f4f4f;}.cls-15{fill:#ffd4ad;}.cls-16{fill:#edf0ef;opacity:0.7;}.cls-17{fill:#8f2a25;}.cls-18{fill:#fff7ea;}.cls-19{fill:#ecdcc4;}.cls-20{fill:#330500;opacity:0.3;}.cls-21,.cls-26{fill:#8e9194;}.cls-22{fill:#c1c5c9;}.cls-23{fill:#6e7073;}.cls-24{fill:#5d5f61;}.cls-25{fill:#9fa2a6;}</style><clipPath id="clip-path" transform="translate(0)"><circle class="cls-1" cx="33" cy="33" r="33"/></clipPath></defs><g id="Layer_2" data-name="Layer 2"><g id="avatars"><g class="cls-2"><rect class="cls-3" width="66" height="66"/><path class="cls-4" d="M29.2,57.19,28,53.64c-4,1.19-5.94,4.74-6.82,12.36h5.75C27.58,62.55,28.56,57.52,29.2,57.19Z" transform="translate(0)"/><path class="cls-4" d="M42.21,53.64,41,57.19c.65.33,1.62,5.36,2.27,8.81H49C48.16,58.38,46.2,54.83,42.21,53.64Z" transform="translate(0)"/><path class="cls-5" d="M41.36,53.68c-3.15-1.1-9.18-1.52-12.92.15-1.92.86-1.65,6.81-1.29,12.17H43C43.15,60.53,43.3,54.36,41.36,53.68Z" transform="translate(0)"/><path class="cls-6" d="M28.84,53.51c.29,4.08,6.12,5.82,6.12,5.82s6.61-2.6,5.62-6.55C39.51,48.52,28.52,49,28.84,53.51Z" transform="translate(0)"/><path class="cls-7" d="M34.71,48.46c-1.91,0-4.6,1.16-4.74,4a3.23,3.23,0,0,0,.87,2.8,6.11,6.11,0,0,0,4,2.09,6.15,6.15,0,0,0,4-2.22,3.23,3.23,0,0,0,.78-2.83C39.35,49.46,36.63,48.42,34.71,48.46Z" transform="translate(0)"/><path class="cls-4" d="M40.87,52.91s-.07,3.46-2.08,5.35a75.76,75.76,0,0,1,.5,7.74h4.77c-.28-4.61-.79-9.64-1.79-12.33A12.35,12.35,0,0,0,40.87,52.91Z" transform="translate(0)"/><path class="cls-8" d="M40.75,51.4c-2,.9-.22,2.17-2.41,4a16.22,16.22,0,0,0,.54,3.49,8.68,8.68,0,0,0,3-5.5C42,52.14,41.18,51.2,40.75,51.4Z" transform="translate(0)"/><path class="cls-4" d="M31.1,58.39c-2.07-1.82-2.25-5.27-2.25-5.27a12.18,12.18,0,0,0-1.38.8c-.88,2.66-1.23,7.54-1.36,12.08h4.94C31.09,62.86,31.12,60,31.1,58.39Z" transform="translate(0)"/><path class="cls-8" d="M28.71,51.76c-.46-.1-.72,1.46-.71,2.08.08,2.94,3.17,5.18,3.17,5.18a18.27,18.27,0,0,0,.29-3.46C29.33,54.07,31,52.2,28.71,51.76Z" transform="translate(0)"/><path class="cls-9" d="M51.34,45.36h0S51.31,45.31,51.34,45.36Z" transform="translate(0)"/><path class="cls-9" d="M51.52,38.35c.34-4.82,3.5-11.54-.41-16.64-6-7.86-17.12-7.62-21.64-6.86C23,15.94,15.87,19.1,13.71,26.21a19.87,19.87,0,0,0-.05,12c1.1,3.58,1.34,5.19-.77,8.27A10.87,10.87,0,0,0,17,46a11.66,11.66,0,0,1-1.31,6.46c2.3,0,3.26-.61,5.28-1.41.19.84-1.08,3.2-.66,4A26.62,26.62,0,0,0,23.83,52a11.77,11.77,0,0,0,1,1.59c1.81-3.37,3.05-7.31,6.68-9.39a8,8,0,0,1,8.16,0c3.93,2,3.89,6.74,8.13,8.7a14.13,14.13,0,0,0,.35-3.75A10.14,10.14,0,0,0,52.33,52c-.1-2.46,0-4.36-1-6.66h0s0,0,0,0h0a28.91,28.91,0,0,0,2.95.93C53.43,43.91,51.32,41.09,51.52,38.35Z" transform="translate(0)"/><path class="cls-10" d="M32.06,15.33C24.29,16.85,18.81,28,20.24,38.52,21.31,46.37,27.37,55,36.49,54.34c9.32-.66,13.95-12.21,12.75-21.87C47.93,22,43,13.21,32.06,15.33Z" transform="translate(0)"/><path class="cls-11" d="M42.08,17a35.42,35.42,0,0,0-9.43-1.48c-2.84-.05-5.92-.21-8.57,1-1.45.66-3.23,1.56-3.78,3.17-.67,2-.35,4.52,0,6.57a17.68,17.68,0,0,0,2.1,6.49,8,8,0,0,1,1.75-4.31c.77-1,1.88-2.72,3.2-2.94a13.92,13.92,0,0,1-3.1,5.77c1.24.14,2.77-.87,3.91-1.3a21.25,21.25,0,0,0,2.71-1.26l1.71-.94c0,.47-.16.92-.17,1.38C34.48,29.31,37,28,38.73,27a9.7,9.7,0,0,1,6.86-1.51c1.79.37,3.43,1.32,4-1.05a4.49,4.49,0,0,0-.55-3.89C47.5,18.38,44.48,17.7,42.08,17Z" transform="translate(0)"/><path class="cls-10" d="M17.52,34.15c-3.82,1.05-2.28,6.62.84,7.74a7.51,7.51,0,0,0,3.08.34l.06-.1c.46-.72-.18-4.79-.42-5.55C20.5,34.65,19.35,33.64,17.52,34.15Z" transform="translate(0)"/><path class="cls-12" d="M18.86,36.2c-.86-.39-3,.32-2,2,.53-1.55,1.48-.53,1.33.57-.09.74-.89.75-.1,1.71.43.51,1.3.32,1.73.05C21.22,39.64,19.91,36.68,18.86,36.2Z" transform="translate(0)"/><path class="cls-9" d="M48.36,17.9C46.72,16.76,45.8,15,43.88,14a22.18,22.18,0,0,0-5.48-1.87,26.44,26.44,0,0,0-8-.24c-4.41.52-9.72,2.61-11.11,7.28-.86,2.86-.41,6.18-.19,9.11.08,1.13-.18,5.38.76,6.25a9.79,9.79,0,0,1,1.16,2,6.67,6.67,0,0,0,1.74,1.92c-.1-.83-.46-1.68-.53-2.51.36.28.78.81,1.29.74-.88-2.68-1.39-4.93-.73-7.78a8.55,8.55,0,0,1,3.28-4.56c.5-.39,1.68-1.35,2.35-.84s.07,1.94-.17,2.52a9.78,9.78,0,0,1-4,4.45,10.81,10.81,0,0,0,4.76-1.46c1.72-1,2.9-2.59,4.86-3.14.13.74-.39,1.59-.51,2.31,2.1-.33,3.68-1.44,5.59-2.27a16.18,16.18,0,0,1,4.93-1.34,5.06,5.06,0,0,1,2.67.35,4.1,4.1,0,0,0,1.9.61,2.51,2.51,0,0,0,2.58-2.36,4.53,4.53,0,0,0-.61-3.06A7.15,7.15,0,0,0,48.36,17.9Z" transform="translate(0)"/><path class="cls-13" d="M47.84,36.23a3.51,3.51,0,0,0-3-.3c-1.18.3-2.63,1.13-1.14,2.54.8.75,5.67.17,4.58-1.75A1.81,1.81,0,0,0,47.84,36.23Z" transform="translate(0)"/><path class="cls-13" d="M30.25,37.09a3.68,3.68,0,0,0-3-1.08c-1.28,0-3,.48-1.81,2.29.62,1,5.72,1.63,5.1-.6A2,2,0,0,0,30.25,37.09Z" transform="translate(0)"/><path class="cls-14" d="M29.31,32.06c-2.26-.68-3.68,2.12-2.14,3a4.42,4.42,0,0,1,2.23.13A1.64,1.64,0,0,0,29.31,32.06Z" transform="translate(0)"/><path class="cls-12" d="M37.51,38.3c-1.17,0-1.64-.52-2.46,0s.36,2,2.43,2,3-1.49,2.53-2S38.81,38.29,37.51,38.3Z" transform="translate(0)"/><path class="cls-15" d="M37.2,33.91c-2.2-.2-2.37,4.45-1.86,4.85,1.23,1,3.81.29,4.56-.5C40.19,38,39.3,34.09,37.2,33.91Z" transform="translate(0)"/><path class="cls-14" d="M46.23,31.9c-2.36-1-4.1,2.17-2.15,3.06a4.38,4.38,0,0,1,2.46,0A1.83,1.83,0,0,0,46.23,31.9Z" transform="translate(0)"/><path class="cls-16" d="M28.5,32.55c-.91.22-.22,1.46.68,1C29.82,33.23,29.32,32.36,28.5,32.55Z" transform="translate(0)"/><path class="cls-16" d="M45.31,32.24c-.93.13-.49,1.4.47,1C46.47,33,46.14,32.13,45.31,32.24Z" transform="translate(0)"/><path class="cls-12" d="M44.48,40c-.35.1.32.19,1.19.36a.52.52,0,0,1,.35.2c-4.07,1.5-13.08,2.54-18.7,1l.16-.12c.8-.52,2-.59,1.64-.75a6.92,6.92,0,0,0-2.75.51c-.68.45-.61,1.84-.05,1.88s.44-.71.79-1.27c.47,1.5,2.72,7.36,9.47,7.24,5.08-.09,6.6-1.8,6.71-4.29.07-1.39,1.74-3.14,2.8-4,.1.41-.18,1,.22,1.07.56.05,1.08-.85.67-1.58S44.48,40,44.48,40Z" transform="translate(0)"/><path class="cls-17" d="M28.42,42.51s2.42,6.1,8.42,5.71c5.42-.36,6-2.48,6.16-4a3.82,3.82,0,0,1,1.68-2.8A32.88,32.88,0,0,1,28.42,42.51Z" transform="translate(0)"/><path class="cls-18" d="M30.42,43.08a3.26,3.26,0,0,0,2,2.7,12,12,0,0,0,7.78.07C42,45.29,43,42.23,43,42.23A52.22,52.22,0,0,1,30.42,43.08Z" transform="translate(0)"/><path class="cls-18" d="M38.09,45.94a16.86,16.86,0,0,1-6-.6c-1-.37-1,.2-.8.7,0,0,.4,2,5.11,2.25,4.11.18,5.8-2.49,5.32-3S40.66,45.82,38.09,45.94Z" transform="translate(0)"/><path class="cls-19" d="M30.41,43.06a3.35,3.35,0,0,0,.23.87s9.7-1.29,11.89-.57A5,5,0,0,0,43,42.23,61.28,61.28,0,0,1,30.41,43.06Z" transform="translate(0)"/><path class="cls-19" d="M32.6,45.34c4.13,1.84,8.53-.14,8.53-.14A17.68,17.68,0,0,1,32.6,45.34Z" transform="translate(0)"/><path class="cls-9" d="M48,28.64c-1.13-.69-2.59-1.4-3.9-.95a8.69,8.69,0,0,0-1.48.81,1.86,1.86,0,0,1-2.07.12c.05,3.37,3,1.72,5.11,1.61,1.1-.06,2.67.49,3.66-.09C49.28,29.42,48.6,29,48,28.64Z" transform="translate(0)"/><path class="cls-9" d="M30.6,28.72a8.74,8.74,0,0,0-1.49-.79c-1.31-.44-2.77.29-3.89,1-.56.35-1.24.79-1.3,1.51,1,.57,2.56,0,3.66.05,2.12.09,5.08,1.71,5.09-1.66A1.88,1.88,0,0,1,30.6,28.72Z" transform="translate(0)"/><path class="cls-20" d="M38.11,18.46c-3.93-.24-7.86-.88-11.79-.64-3,.19-6.94.51-9.34,2.43a4.43,4.43,0,0,0-1.13,1.63c-.27.65-.72,1.63-.1,2.09.89.65,3.07,0,4.12.11,1.84.26,6.72,1.48,9.7,2.25,4.77,1.23,16.08,2.26,20.46-.11C54.88,23.6,45.64,18.93,38.11,18.46Z" transform="translate(0)"/><path class="cls-21" d="M14.63,16.27c-1,.87-1.24,4.26.61,5.32,6.89,3.95,31,6.45,38.58,1.7C61.64,18.38,24.58,7.48,14.63,16.27Z" transform="translate(0)"/><path class="cls-22" d="M18.72,14.17l-1.56.67a3.93,3.93,0,0,0-1.66,4.08c1.05,3.32,12.45,7.61,33.34,5.4C28.7,24.55,15.45,21.05,18.72,14.17Z" transform="translate(0)"/><path class="cls-23" d="M19.12,13.83l-1.56.67c-.9.39-2.53,2.58-1.67,4.08,1.16,2,10.32,5.85,26.25,5.67C26.5,22.66,15.85,20.71,19.12,13.83Z" transform="translate(0)"/><path class="cls-23" d="M44.85,5.34c-4-2.65-23.71-1.59-25.39,1.8C18.59,8.89,16.89,17.63,18.25,19c3,3,26.83,5.19,30.86-.19C48.33,13.24,46.09,6.17,44.85,5.34Z" transform="translate(0)"/><path class="cls-24" d="M49.86,18.87,48.54,15l-.64.27a29,29,0,0,1-11.09,2.41c-7.93.39-15.09-1.6-18.53-2.55l-.6-.17-1.07,3.91.58.16a65.13,65.13,0,0,0,17.56,2.75c.74,0,1.5,0,2.25-.05A32.85,32.85,0,0,0,49.56,19l.32-.14L49.2,17Z" transform="translate(0)"/><path class="cls-25" d="M49.83,18.11l-.66-1.91-.65-1.92-.65.27A28.73,28.73,0,0,1,36.78,17c-7.92.38-15.08-1.6-18.52-2.56l-.6-.16-1.07,3.9.59.17a65,65,0,0,0,17.54,2.74c.74,0,1.5,0,2.26,0a32.91,32.91,0,0,0,12.55-2.76l.32-.14-.68-1.91Z" transform="translate(0)"/><path class="cls-25" d="M39.23,4.77A30.64,30.64,0,0,0,28.68,5c-1.55.32-3.11.56-4.66.86a7.43,7.43,0,0,0-3.19,1.08,8.53,8.53,0,0,0,2.41-.15A97.21,97.21,0,0,1,33.6,6c2.39,0,4.79.21,7.18.29.38,0,2.43.11,2.5-.5v0C43.28,4.87,39.68,4.84,39.23,4.77Z" transform="translate(0)"/><path class="cls-22" d="M21.29,19.63a66.68,66.68,0,0,0,7.12,1.28L29,16.42a60.59,60.59,0,0,1-6.63-1.2Z" transform="translate(0)"/><path class="cls-26" d="M39.17,7.94a38.41,38.41,0,0,0-13.23.21,8.07,8.07,0,0,0-3.89,1.69c-.37.34-2.5,3-1.8,3.29,3.5,1.48,7.55,1.84,11.27,2.36A26.28,26.28,0,0,0,44,14.16c-.36-1.64-.43-3.21-1.28-4.68C41.94,8.22,40.51,8.11,39.17,7.94Z" transform="translate(0)"/></g></g></g></svg>