<svg xmlns="http://www.w3.org/2000/svg" xmlns:xlink="http://www.w3.org/1999/xlink" viewBox="0 0 66 66"><defs><style>.cls-1{fill:none;}.cls-2{clip-path:url(#clip-path);}.cls-3{fill:#604949;}.cls-4{fill:#379bdb;}.cls-5{fill:#0d73b5;}.cls-6{fill:#f5ab76;}.cls-7{fill:#ca3564;}.cls-8{fill:#e34f7e;}.cls-9{fill:#b51b4c;}.cls-10{fill:#c93712;}.cls-11{fill:#ffcb9e;}.cls-12{fill:#bf3c1b;}.cls-12,.cls-15{opacity:0.3;}.cls-13{fill:#ffa073;}.cls-14{fill:#224245;}.cls-15{fill:#b54d26;}.cls-16{fill:#ffdfc2;}.cls-17{fill:#d4e6dd;opacity:0.7;}.cls-18{fill:#d94d15;}.cls-19{fill:#e88564;}.cls-20{fill:#e85216;}</style><clipPath id="clip-path" transform="translate(0.01)"><circle class="cls-1" cx="33" cy="33" r="33"/></clipPath></defs><g id="Layer_2" data-name="Layer 2"><g id="avatars"><g class="cls-2"><rect class="cls-3" width="66" height="66"/><path class="cls-4" d="M26.08,57.74l-2.64-4.19a12.92,12.92,0,0,0-5.67,11.71c0,.25,0,.49.07.74h5c0-.33-.09-.65-.11-1A8,8,0,0,1,26.08,57.74Z" transform="translate(0.01)"/><path class="cls-4" d="M43.55,57.74l2.64-4.19a12.92,12.92,0,0,1,5.67,11.71c0,.25,0,.49-.07.74h-5a8.1,8.1,0,0,0,.11-1A8,8,0,0,0,43.55,57.74Z" transform="translate(0.01)"/><path class="cls-4" d="M42.48,51.49c-4.9-2.63-12-1.72-15.28.39C23,54.65,23.63,59.13,24.74,66H44.65C45.86,59.37,46.64,53.72,42.48,51.49Z" transform="translate(0.01)"/><path class="cls-5" d="M34.31,46.67c-7.72,0-8,11.5.37,11.5C42.49,58.17,45,46.67,34.31,46.67Z" transform="translate(0.01)"/><path class="cls-6" d="M37.17,45.61c-1.71-.46-4.49-.23-5.91,1.17-5,4.9-.13,9.72,3.76,9.72S40.4,53,40.24,50.29C40.12,48.16,38.94,46.09,37.17,45.61Z" transform="translate(0.01)"/><path class="cls-7" d="M47,53.72c-.41-1.07-4.73-2.67-4.73-2.67a35.26,35.26,0,0,0-4.13,15H45C45.82,58.66,47.37,54.64,47,53.72Z" transform="translate(0.01)"/><path class="cls-8" d="M42.19,49.21s-3.5,8.41-3.35,11.42c3.56-5.2,9.24-8.19,9.3-8.82S44.94,49.39,42.19,49.21Z" transform="translate(0.01)"/><path class="cls-9" d="M42.86,56.42a3.12,3.12,0,0,0,3.31,0A15.32,15.32,0,0,0,42.86,56.42Z" transform="translate(0.01)"/><path class="cls-9" d="M40,62.52a5.2,5.2,0,0,0,4.35-.1A26,26,0,0,0,40,62.52Z" transform="translate(0.01)"/><path class="cls-7" d="M22.45,53.72c-.36.92,1.19,4.94,2,12.28h6.82a35.12,35.12,0,0,0-4.13-15S22.86,52.65,22.45,53.72Z" transform="translate(0.01)"/><path class="cls-8" d="M21.32,51.81c.06.63,5.75,3.62,9.3,8.82.15-3-3.35-11.42-3.35-11.42C24.52,49.39,21.27,51.18,21.32,51.81Z" transform="translate(0.01)"/><path class="cls-9" d="M23.29,56.45a3,3,0,0,0,3.26,0A14.86,14.86,0,0,0,23.29,56.45Z" transform="translate(0.01)"/><path class="cls-9" d="M25.12,62.42c0,.15,2.73,1.09,4.36.1A26.11,26.11,0,0,0,25.12,62.42Z" transform="translate(0.01)"/><path class="cls-10" d="M52.82,14.85c.56-.64,1.1-1.16.33-2.14s-2.61-1.57-3.6-.92c.39-.94.85-2.45-.17-3.17a3.8,3.8,0,0,0-3.71.45C47,5.69,41,3.65,39.55,6.67c-.59-1.73-1.65-3.14-3.71-3-1.28.07-3.46,1.23-3.67,2.63C31.25,5.19,30.72,4.1,29.06,4,27.21,4,25.35,5.35,25.62,7.34c-1.38-.9-3.11-1.61-4.64-.69a3,3,0,0,0-1.51,3.69C18.44,9.91,17,9.21,16,10s-.18,3,.61,3.86a2.21,2.21,0,0,0-2.53,1.72c-.53,2.17,1.08,4.3,1.71,6.25a71,71,0,0,1,1.95,9.58c.63,3.46,1.2,7.38,2.82,10.54,1.17,2.29,2.34,1.32,4.06.42,2.22-1.18,5.51-1.38,8-1.49s6.26-.33,8.62.78c1.54.72,2.36,1.31,3.94.1a9.52,9.52,0,0,0,2.6-3.6c1-2.1,1-4.2,1.17-6.46.37-4.55,1.08-9.12,4.52-12.39a4.44,4.44,0,0,0,1.19-1.44,2.08,2.08,0,0,0-2.35-2.34A4.32,4.32,0,0,1,52.82,14.85Z" transform="translate(0.01)"/><path class="cls-11" d="M19.55,38.7c1.08,7.9,7.17,16.56,16.34,15.91,9.36-.67,14-12.28,12.81-22C47.39,22.06,42.39,13.26,31.44,15.4,23.62,16.92,18.12,28.16,19.55,38.7Z" transform="translate(0.01)"/><path class="cls-12" d="M32.68,23.46c-2.33-.75-6.33.19-7.71.92-2.22,1.19-2.57,4.16-3.61,6.23a6,6,0,0,1-1.64-2.76A22.72,22.72,0,0,1,19.36,24a11.63,11.63,0,0,1,.26-4.24c.54-1.62,2.34-2.52,3.8-3.19,2.66-1.2,5.76-1,8.61-1a35.39,35.39,0,0,1,9.48,1.49c2,.61,5.85,1.15,6.56,3.51.87,2.91-2.15,3.54-4.21,3.87a3.61,3.61,0,0,0-2.7,1.3,16.35,16.35,0,0,1-2.43,2.42,13.72,13.72,0,0,1-.44-1.37c-1.08,2.11-4.27,2.05-6.09.95,1.12-.52,2.68-1.57,2-3A2.42,2.42,0,0,0,32.68,23.46Z" transform="translate(0.01)"/><path class="cls-11" d="M17.66,42.1a7.62,7.62,0,0,0,3.1.33l.06-.09c.46-.73-.18-4.82-.41-5.58-.59-1.94-1.74-3-3.58-2.45C13,35.37,14.53,41,17.66,42.1Z" transform="translate(0.01)"/><path class="cls-12" d="M19.15,40.71c1.4-.88.07-3.85-1-4.34-.86-.39-3,.32-2,2,.53-1.57,1.49-.54,1.34.57-.1.75-.9.76-.1,1.71C17.84,41.18,18.71,41,19.15,40.71Z" transform="translate(0.01)"/><path class="cls-10" d="M47.81,21.32l.06-.2c.73-3.28-2.93-6.07-5.07-7.89-4.33-3.66-10-3.63-15.27-2.71a18.94,18.94,0,0,0-6,1.88c-1.59.89-2.22,3-3,4.55-.86,1.87,0,17.21.63,17.78a4.55,4.55,0,0,1,1,2,2.49,2.49,0,0,0,1.74.47,37,37,0,0,1-.21-7.94c.3-4.19.79-6.45,5.59-6.63,2.19-.08,8.05-.92,8.6,2.31.24,1.45-1,2.26-2.16,2.79,1.76.55,4,.45,4.55-1.73a2.45,2.45,0,0,1,.77,1.7c2.22-1.48.89-3.86,3.83-4.11C44.86,23.46,47.18,23.55,47.81,21.32Z" transform="translate(0.01)"/><path class="cls-13" d="M48.15,37.08a2,2,0,0,1,.26.58c.55,2.16-4.33,1.42-4.9.48-1.08-1.76.56-2.18,1.78-2.16A3.54,3.54,0,0,1,48.15,37.08Z" transform="translate(0.01)"/><path class="cls-13" d="M28,36.73a1.78,1.78,0,0,1,.41.52c1.13,2-4,2.57-4.85,1.76-1.55-1.5,0-2.36,1.25-2.65A3.67,3.67,0,0,1,28,36.73Z" transform="translate(0.01)"/><path class="cls-14" d="M27.17,35.85a2.85,2.85,0,0,0-2-.17c-1.37-1.17-.11-4.74,1.91-3.87C28.59,32.45,28.53,35.15,27.17,35.85Z" transform="translate(0.01)"/><path class="cls-15" d="M39.43,38.41c-.5-.62-1.21.06-2.52.08s-1.64-.52-2.47,0,.36,2,2.44,2S39.86,38.94,39.43,38.41Z" transform="translate(0.01)"/><path class="cls-16" d="M36.61,34.07c-2.22-.2-2.38,4.48-1.88,4.88,1.24,1,3.83.28,4.59-.5C39.61,38.13,38.71,34.25,36.61,34.07Z" transform="translate(0.01)"/><path class="cls-14" d="M46.48,31.67c1.1.66,1.09,2.93.27,3.84a2.67,2.67,0,0,0-2.13,0C42.93,34.4,44.43,30.44,46.48,31.67Z" transform="translate(0.01)"/><path class="cls-17" d="M26.37,32.43c.73-.24,1.18.87.6,1.29C26.18,34.3,25.55,32.71,26.37,32.43Z" transform="translate(0.01)"/><path class="cls-17" d="M45.68,32.1c.72-.14,1,1,.41,1.3C45.26,33.85,44.87,32.27,45.68,32.1Z" transform="translate(0.01)"/><path class="cls-18" d="M42.26,28.63c-.17.18-.33.38-.49.58-1.44,1.88,2.67,1.08,3.38,1.06a10.85,10.85,0,0,1,2.56.26c.61.12,1.33-.11,1.37-.83s-.44-.78-1-.56c.86-.71-.1-.93-.72-.69.72-1.3-1.28-.59-1.77-.24.22-.47.46-.7-.13-.8a2.39,2.39,0,0,0-1.51.66C44.24,27.11,42.42,28.46,42.26,28.63Z" transform="translate(0.01)"/><path class="cls-18" d="M29.5,28.63c.17.18.33.38.49.58,1.45,1.88-2.66,1.08-3.38,1.06a10.72,10.72,0,0,0-2.55.26c-.62.12-1.34-.11-1.38-.83s.44-.78,1-.56c-.87-.71.09-.93.71-.69-.72-1.3,1.28-.59,1.77-.24-.22-.47-.46-.7.14-.8s1.13.38,1.5.66C27.53,27.11,29.34,28.46,29.5,28.63Z" transform="translate(0.01)"/><path class="cls-19" d="M28.37,40.85c1.11,2.1-1.53,3.09-2.61,1A2,2,0,0,0,28.37,40.85Z" transform="translate(0.01)"/><path class="cls-19" d="M43.21,40.5a1.49,1.49,0,1,0,2.84.79A2.22,2.22,0,0,1,43.21,40.5Z" transform="translate(0.01)"/><path class="cls-19" d="M35.55,47.86a9.42,9.42,0,0,1-8.38-5,.51.51,0,0,1,.33-.71.67.67,0,0,1,.82.33,8.2,8.2,0,0,0,7.49,4.28c3.66,0,6.81-1.9,7.85-4.83a.61.61,0,0,1,.79-.32.57.57,0,0,1,.41.71c-1.21,3.38-4.77,5.57-9,5.55Z" transform="translate(0.01)"/><path class="cls-20" d="M31,7a6.56,6.56,0,0,1,1.78,1.3c1.33-.88,3.38-2.86,5.15-2.2A1.74,1.74,0,0,1,38.63,9c.9-1.14,4.84-.31,4.28,1.62,1.51-.72,5-.85,3.79,1.86,1.21-.16,5,.12,2.67,2,.47-.38,2.06,1,2.1,1.56.07.9-1.4,2-1.94,2.6.28-2.68-3.47-2.62-3.26-.48-1-2.31-2.86-2.75-3,0-.12,2.54-1.54,4.25-4.34,3.93,2.39-1.62,2-2.87,1.15-5.49-.68,2.67-2.83.31-3.71-.46-.25,1.19-1.37,2-1.71,3.19a23.44,23.44,0,0,0-2.26-3.41c-.67,1.59-3.13,2.77-3.68.35-.6,1-1.38,2.38-2.83,2.27a2.39,2.39,0,0,1-2-2.44c-.8.3-2.41,3.58-1.9,4.35A23.38,23.38,0,0,0,19.1,16.3c-.69-.68-2.19-2.43-.2-2.73-.81-2.12,2.09-1.09,2.89-.62-.53-1-.67-3.11.17-4,1.34-1.44,3.7-.22,5,.65.49-1,.51-2.6,1.83-3A3.2,3.2,0,0,1,31,7Z" transform="translate(0.01)"/></g></g></g></svg>