<svg xmlns="http://www.w3.org/2000/svg" xmlns:xlink="http://www.w3.org/1999/xlink" viewBox="0 0 66 66"><defs><style>.cls-1{fill:none;}.cls-2{clip-path:url(#clip-path);}.cls-3{fill:#a44f49;}.cls-4{fill:#c4bab1;}.cls-5{fill:#765aa3;}.cls-6{fill:#3a3a4a;}.cls-7{fill:#b86037;}.cls-8{fill:#261b18;}.cls-9{fill:#ed904e;}.cls-10{fill:#b54319;opacity:0.5;}.cls-11{fill:#45362e;}.cls-12{fill:#f7ad6f;}.cls-13{opacity:0.12;}.cls-14,.cls-17,.cls-22{fill:#b54d26;}.cls-14{opacity:0.6;}.cls-15{fill:#e6d2c3;opacity:0.7;}.cls-16{fill:#2b221c;}.cls-17{opacity:0.4;}.cls-18{fill:#ffb373;}.cls-19{fill:#8f2621;}.cls-20{fill:#fff9f0;}.cls-21{fill:#e8dac5;}.cls-22{opacity:0.8;}</style><clipPath id="clip-path" transform="translate(0.01)"><circle class="cls-1" cx="33" cy="33" r="33"/></clipPath></defs><g id="Layer_2" data-name="Layer 2"><g id="avatars"><g class="cls-2"><rect class="cls-3" width="66" height="66"/><path class="cls-4" d="M27.93,59.31c.69-.92,0-6.63-.95-6.29-2.91,1-5.94,8.1-5.75,13h5.38C26.4,63.94,26.88,60.69,27.93,59.31Z" transform="translate(0.01)"/><path class="cls-5" d="M27.09,52.79A12.57,12.57,0,0,0,20.75,64a16.05,16.05,0,0,0,6.17.62,7.4,7.4,0,0,1,1.25-5.2C28.91,58.44,28,52.31,27.09,52.79Z" transform="translate(0.01)"/><path class="cls-4" d="M41.45,53c-.94-.34-1.64,5.37-.94,6.29,1,1.38,1.52,4.63,1.31,6.69h5.39C47.4,61.12,44.36,54.07,41.45,53Z" transform="translate(0.01)"/><path class="cls-5" d="M41.35,52.79c-.93-.48-1.82,5.65-1.08,6.59a7.4,7.4,0,0,1,1.24,5.2A16,16,0,0,0,47.68,64,12.54,12.54,0,0,0,41.35,52.79Z" transform="translate(0.01)"/><path class="cls-6" d="M42.34,59.63a18.84,18.84,0,0,1,1.08-5.23c.1-.31-1.12-2.67-9.12-2.71-8.24,0-9.31,2.27-9.16,2.58a12.76,12.76,0,0,1,1,5.31c0,2.55.2,4.63.32,6.42H42C42.14,64.22,42.32,62.15,42.34,59.63Z" transform="translate(0.01)"/><path class="cls-4" d="M28.53,53c-.69,2.54,5.74,5.47,5.74,5.47s7.27-3.14,5.45-5.94C38.08,50,29.34,50,28.53,53Z" transform="translate(0.01)"/><path class="cls-7" d="M34.24,46.82a4.5,4.5,0,0,0-4.65,4.23,3.78,3.78,0,0,0,.8,3,5.72,5.72,0,0,0,3.85,2.32,5.72,5.72,0,0,0,3.86-2.32,3.78,3.78,0,0,0,.8-3A4.5,4.5,0,0,0,34.24,46.82Z" transform="translate(0.01)"/><path class="cls-8" d="M49.48,18.78A2.12,2.12,0,0,0,50,17a1.65,1.65,0,0,0-2-1.34c1.52-2.26-1.54-5.44-3.42-3.33.32-.36-1.17-2.07-1.49-2.22-.91-.43-2.1.06-3,.5-1.2-1.54-4-2-5.44-.6-.67-1.95-4.57-1.34-5.52.12-.58-1.58-4-.55-4,1.06A2.62,2.62,0,0,0,21.46,14c-2.13-.55-4,1.24-2.48,3.29-1.75.13-1.46,2.17-.74,3.21-1.55.19-2.29,3.54-.34,3.67-1.22.89-2.45,3.65-.19,4.07-1.51,1.53-.44,1.93-.27,3.24.07.52-.37,1.26-.2,1.82s.89.85,1,1.19c.41,1.33.15,2.31,1,3.67a12.56,12.56,0,0,0,2.42,2.72c3.33,2.84,6.93.57,10.84.39,4.54-.22,8.2,1,12.5-1.2A10.89,10.89,0,0,0,48,38c1-1.15.45-1.22.5-2.51s1.36-1.51.08-2.74c1.31.21,1.21-1.94.59-2.58.69.1.92-.75.92-1.33,0-.84-.45-1-.93-1.59.87-.28.66-1.73.42-2.35A1.79,1.79,0,0,0,50,21.65C51.59,20.81,51.22,18.85,49.48,18.78Z" transform="translate(0.01)"/><path class="cls-9" d="M31.44,17.18c-7.38,1.44-12.58,12.05-11.22,22,1,7.45,6.76,15.63,15.42,15,8.84-.63,13.24-11.59,12.1-20.76C46.5,23.48,41.78,15.16,31.44,17.18Z" transform="translate(0.01)"/><path class="cls-10" d="M44.35,19.94A34,34,0,0,0,32,17.34c-2.69,0-5.62-.2-8.13.94-2,.9-3.29,1.78-3.72,3.86-.31,1.46-.95,3.88.14,5.16,1.29,1.52,2.5-.7,3-2,.82,1.44,2.76.39,3.55-.59a4.48,4.48,0,0,0,5.34,0,3.89,3.89,0,0,0,.48-.43c.81,1.39,3.07,1.15,4.1.23a3,3,0,0,0,4,.51c.75,1.29,3,1.79,4,.48C46.6,24,45.48,20.39,44.35,19.94Z" transform="translate(0.01)"/><path class="cls-9" d="M17.64,35c-3.62,1-2.17,6.29.79,7.35a7.14,7.14,0,0,0,2.93.32l.06-.09c.43-.69-.18-4.55-.4-5.27C20.46,35.52,19.38,34.56,17.64,35Z" transform="translate(0.01)"/><path class="cls-10" d="M18.91,37c-.81-.38-2.84.3-1.89,1.89.5-1.48,1.4-.51,1.27.54-.1.7-.85.71-.1,1.62.4.49,1.23.3,1.64,0C21.15,40.25,19.91,37.44,18.91,37Z" transform="translate(0.01)"/><path class="cls-8" d="M42.16,15.13c-4.08-3.45-9.39-3.43-14.41-2.56a18,18,0,0,0-5.69,1.78c-1.5.84-2.09,2.81-2.78,4.3-1.63,3.5,0,16.25.59,16.78a4.38,4.38,0,0,1,1,1.93,2.37,2.37,0,0,0,1.64.43,37,37,0,0,1-.29-6.4c0-1.7-.12-6.19,1.45-7.21,1,1.24,2.54.36,3.3-.64a5.51,5.51,0,0,0,6.25-.18c.69,1,2.5,1.48,3.21.24a4.1,4.1,0,0,0,5.09.09c-.2.12,1,1.22,1.18,1.29.72.34,2.12.12,2-1,.21,1.43,2.4-.09,2.61-.83a1.85,1.85,0,0,0,.06-.57c0-1.13-1-2.13-1.5-3.07A15.34,15.34,0,0,0,42.16,15.13Z" transform="translate(0.01)"/><path class="cls-11" d="M46.53,16.39c1-.53.46-1.94-.26-2.43s-2.06-.17-2.85.32c.44-2.53-2.42-2.79-4.1-1.67a1.9,1.9,0,0,0-1.1-2.15C36.9,10,35.83,11.23,35,12a3.71,3.71,0,0,0-3.31-1.78,1.41,1.41,0,0,0-1.37.62c-.25.34-.71,1.42-.41,1.82-1.29-1.74-3.54-.76-3.41.6-.13-1.42-2.78.11-2.13,1.61-.67-.22-1-.75-1.79-.4a1.54,1.54,0,0,0-.88,1.6c-.78,0-1.81.52-1.57,1.48s1.85.94,2.61.71a1,1,0,0,0,.57,1.21c.87.39,1.85-.35,2.54-.79,0,.71.79,1.22,1.41,1.39,1.1.3,1.84-.29,2.69-.77.53,1.74,2.77,1.12,3.62.09a2.46,2.46,0,0,0,2.28,1.46c1.1-.05,1.36-.95,2-1.67a2.09,2.09,0,0,0,1.71,1.57c1,.19,1.6-.59,2-1.42.62.57,1.21,1.27,2.19,1s.46-1.27,1.16-1.21,1.4.83,2.35.46a2,2,0,0,0,1.2-1.94C48.26,16.78,47.27,16.57,46.53,16.39Z" transform="translate(0.01)"/><path class="cls-12" d="M44.52,35.8c-1.19-.16-2.92.12-2.39,2.17.28,1.08,4.83,2.42,4.93,0a1.71,1.71,0,0,0-.08-.66C46.66,36.27,45.43,35.92,44.52,35.8Z" transform="translate(0.01)"/><path class="cls-12" d="M29.16,36.63c-.77-.9-2.16-.75-3.14-.49-1.27.32-2.89,1.31-1.48,3.11.75,1,5.91.44,5-2A2.14,2.14,0,0,0,29.16,36.63Z" transform="translate(0.01)"/><g class="cls-13"><path d="M47.13,37.22c-.86,6.64.1,3.1-2.93,2.35-2.3-.57-4.26.41-7.55.69s-5.73-2-9.33-.46c-2.49,1-4.72,3.83-4.82-2-.05-2.67-2.17-3.64-1.59.6.17,1.25,0,2.71.18,3.44,1.89,6.56,7,12.94,14.55,12.4s11.6-8.64,12-16.71C47.68,36.13,47.36,35.48,47.13,37.22Z" transform="translate(0.01)"/></g><path class="cls-8" d="M27.73,31.66c-2.11-.83-3.4,2.5-2,3.61a3.33,3.33,0,0,1,2.09.18A2.17,2.17,0,0,0,27.73,31.66Z" transform="translate(0.01)"/><path class="cls-14" d="M36.49,38.25c-1.55,0-2.16-.66-3.25,0s.44,2.71,3.18,2.57,3.94-2,3.38-2.72S38.21,38.21,36.49,38.25Z" transform="translate(0.01)"/><path class="cls-12" d="M35.79,33c-1.4.09-3.08,4.86-2.6,5.55,1.3,1.84,6.09,1,6.64-.52C40,37.52,37.36,32.9,35.79,33Z" transform="translate(0.01)"/><path class="cls-15" d="M27,32.24c-.85.25-.19,1.75.64,1.21A.7.7,0,0,0,27,32.24Z" transform="translate(0.01)"/><path class="cls-16" d="M31,28.62c-1,.61-2.89-.07-4.86.37-1.45.32-4,2.44-2.94,2.62.44.07,2-.94,2.83-1.1,2.28-.46,4,.71,4.48.66C32.11,31,32.27,27.83,31,28.62Z" transform="translate(0.01)"/><path class="cls-8" d="M45.44,31.27c-2.11-.83-3.4,2.51-2,3.61a3.33,3.33,0,0,1,2.09.18A2.17,2.17,0,0,0,45.44,31.27Z" transform="translate(0.01)"/><path class="cls-15" d="M44.7,31.85c-.85.25-.19,1.75.64,1.21A.7.7,0,0,0,44.7,31.85Z" transform="translate(0.01)"/><path class="cls-16" d="M45.63,28.59c-1.67-.43-3.3.24-4.14-.36-1.1-.79-1,2.4.34,2.54.45.05,1.92-1.12,3.86-.66.68.17,2,1.17,2.38,1.1C49,31,46.86,28.92,45.63,28.59Z" transform="translate(0.01)"/><path class="cls-17" d="M28.47,43.94c-.55.42,1.67,6.75,7.84,6.7s6.94-5.45,6.38-6.56S28.8,43.68,28.47,43.94Z" transform="translate(0.01)"/><path class="cls-18" d="M44.21,40.45c-.62-.17-6.46.28-7.79.37-1.75.12-9,0-9.24.66s2.56,8.22,9.6,7.79c5.27-.32,5.47-3.61,6.06-5.76A3.15,3.15,0,0,1,44,41.89a3.42,3.42,0,0,0,.61-.37C45,41.08,44.76,40.6,44.21,40.45Z" transform="translate(0.01)"/><path class="cls-19" d="M27.58,41.62a10.16,10.16,0,0,0,8.29,4.43c3.49-.06,5.74-1.24,6.33-2.83a4.52,4.52,0,0,1,2.1-2.43A36.78,36.78,0,0,1,27.58,41.62Z" transform="translate(0.01)"/><path class="cls-20" d="M29.61,42s.2,1,2.15,1.51a18.69,18.69,0,0,0,7.92,0,4.13,4.13,0,0,0,2.7-2.22A39.37,39.37,0,0,1,29.61,42Z" transform="translate(0.01)"/><path class="cls-20" d="M37.22,44.61a12.61,12.61,0,0,1-5.86-.74c-.91-.45-1,.06-.76.37,0,0,.87,1.64,5,1.88,4,.24,6-1.8,5.49-2.13S39.52,44.46,37.22,44.61Z" transform="translate(0.01)"/><path class="cls-21" d="M29.61,42a1.39,1.39,0,0,0,.72.91s9-1.14,11.24-.43a3.49,3.49,0,0,0,.81-1.16A45.36,45.36,0,0,1,29.61,42Z" transform="translate(0.01)"/><path class="cls-21" d="M32.21,44.2c3.41,1.55,7.34,0,7.34,0A16,16,0,0,1,32.21,44.2Z" transform="translate(0.01)"/><path class="cls-22" d="M42.4,39.74h-.66a5.3,5.3,0,0,1,1.78.84,2.25,2.25,0,0,1,1,1.54c0,.39-.17,1.57.44.84a2,2,0,0,0-.17-2.45A4,4,0,0,0,42.4,39.74Z" transform="translate(0.01)"/><path class="cls-22" d="M27.1,40.66a2.14,2.14,0,0,0-.8,2.63c.49,1,.56-.38.7-.79a2.5,2.5,0,0,1,1.58-1.41,6.14,6.14,0,0,1,2.21-.45l-.74-.17A4.64,4.64,0,0,0,27.1,40.66Z" transform="translate(0.01)"/><path class="cls-8" d="M39.54,51.05a2,2,0,0,1-1.7-.9c-.51-.74-1.71-.69-2.39.36a1.68,1.68,0,0,1-1.67.91c-2.5-.08-3.32-3.07-3.32-3.07-.86.78.31,6.2,6.18,5.66s5.67-5.56,5.46-6.23C41.73,47.72,41.41,50.94,39.54,51.05Z" transform="translate(0.01)"/></g></g></g></svg>