<svg xmlns="http://www.w3.org/2000/svg" xmlns:xlink="http://www.w3.org/1999/xlink" viewBox="0 0 96 96"><defs><style>.cls-1{fill:none;}.cls-2{clip-path:url(#clip-path);}.cls-3{fill:#fec051;}.cls-4{fill:#313142;}.cls-5{fill:#6e7073;}.cls-6{opacity:0.2;}.cls-7{fill:#9fa2a6;}.cls-8{fill:#854422;}.cls-9{fill:#70442d;}.cls-10{fill:#9c552c;}.cls-11{fill:#66241b;}.cls-11,.cls-14{opacity:0.7;}.cls-12{fill:#261b18;}.cls-13{fill:#bf6c3c;}.cls-14{fill:#e6d2c3;}.cls-15{fill:#d47b48;}.cls-16{fill:#78231f;}.cls-17{fill:#fff7ea;}.cls-18{fill:#ecdcc4;}</style><clipPath id="clip-path" transform="translate(0)"><circle class="cls-1" cx="48" cy="48" r="48"/></clipPath></defs><g id="Layer_2" data-name="Layer 2"><g id="Layer_4" data-name="Layer 4"><g class="cls-2"><rect class="cls-3" width="96" height="96"/><path class="cls-4" d="M35.47,85.57l-3.81-6c-5.31,3.34-8.4,9.63-8.14,16.48h7.15v-.09C30.44,91.54,32.28,87.58,35.47,85.57Z" transform="translate(0)"/><path class="cls-4" d="M64,79.52l-3.81,6c3.19,2,5,6,4.8,10.34,0,0,0,.06,0,.09h7.16C72.37,89.15,69.29,82.86,64,79.52Z" transform="translate(0)"/><path class="cls-5" d="M59.21,77.37c-7.07-3.8-17.38-2.49-22.09.57-5.64,3.68-5.26,9.44-3.93,18.06H62.78C64.24,87.46,64.73,80.34,59.21,77.37Z" transform="translate(0)"/><path class="cls-4" d="M30.3,80.6c-.43,1.12,1,8.27,2.23,15.4H40.3c0-6.24-.6-13.49-2.42-19.38C37.88,76.62,30.9,79.05,30.3,80.6Z" transform="translate(0)"/><path class="cls-4" d="M65.34,80.6c-.6-1.55-7.59-4-7.59-4C55.94,82.51,55.38,89.76,55.34,96h7.77C64.35,88.87,65.77,81.72,65.34,80.6Z" transform="translate(0)"/><path class="cls-6" d="M38.38,81.38C39.75,86.22,44.46,89,44.46,89l3.36-3.88,4.41,3.86c3-1.64,5.92-5.54,6-8.8C58.23,77.79,37,76.53,38.38,81.38Z" transform="translate(0)"/><path class="cls-7" d="M38.43,75.62C34.68,81,44.16,87.69,44.16,87.69l3.69-3.07L52,87.83s8.58-5,5.54-11.68C54.84,70.13,42.21,70.24,38.43,75.62Z" transform="translate(0)"/><path class="cls-8" d="M54.62,70.82c-2.37-1.88-7-2.18-9.86-1.57a6.83,6.83,0,0,0-5.13,6.24c-.26,3.59,5,8.4,8.72,8.5C51.12,84,62.9,77.34,54.62,70.82Z" transform="translate(0)"/><path class="cls-7" d="M48,88.17a.94.94,0,1,0,.94.94A.93.93,0,0,0,48,88.17Z" transform="translate(0)"/><circle class="cls-7" cx="48.04" cy="93.34" r="0.94"/><path class="cls-8" d="M70,50.07c-2.24-1-3.63.56-4.34,3.56-.28,1.19-1,7.57-.48,8.75a.77.77,0,0,1,.07.16A7.13,7.13,0,0,0,69,62.25C72.81,60.73,74.66,52,70,50.07Z" transform="translate(0)"/><path class="cls-9" d="M24.45,30.87C23,37.89,22.62,47.21,26,53.92c1.76,3.51,6,1.17,9,.43,3.66-.9,7.33-1.73,11-2.54,6.05-1.34,12.68,0,18.82.58,4.8.46,5.16,2.7,5.16-1.21,0-4.85,1.24-12.83,0-18.15C64,7.16,28,14,24.45,30.87Z" transform="translate(0)"/><path class="cls-10" d="M45.4,22.26c-17.14,2.33-19.85,18-18.18,33.37C28.47,67.14,37,80,50.32,79.38,63.94,78.77,71.16,62.1,69.79,48,68.29,32.56,65,19.59,45.4,22.26Z" transform="translate(0)"/><path class="cls-10" d="M23.44,49.1C17.85,50.21,20.71,59.3,25,61.38c1.69.84,3.57.47,4.33-1.31.92-1.24.31-4.7-.7-7.72C27.77,49.9,26.12,48.57,23.44,49.1Z" transform="translate(0)"/><path class="cls-11" d="M25.31,52.19c-1.24-.61-4.39.35-3,2.84.84-2.25,2.18-.73,1.92.88C24.07,57,22.91,57,24,58.4c.6.76,1.87.52,2.53.13C28.62,57.31,26.82,52.94,25.31,52.19Z" transform="translate(0)"/><path class="cls-9" d="M47.08,19.25C33.17,19.14,23.29,29.12,24.21,49a3.53,3.53,0,0,1,2.63.84C28,51,28,52.22,28.27,52.85c.15.31.31.84,1.41.78-2.07-6.68-.87-16.07,1.4-19.11C36.71,27,49.38,37.18,53.57,37c3.17-.12,10.79-9.64,13.81-2.48C69.44,39.41,69.38,19.44,47.08,19.25Z" transform="translate(0)"/><path class="cls-12" d="M38.53,44.81c-3.31-1.09-4.81,4.75-2.47,6.41a4.55,4.55,0,0,1,3.19,0C41.29,49.9,41,45.62,38.53,44.81Z" transform="translate(0)"/><path class="cls-11" d="M52.33,55.62c-2.12,0-2.93-.89-4.45-.2s.49,3.13,4.26,3.15,5.49-2.1,4.74-2.92S54.69,55.67,52.33,55.62Z" transform="translate(0)"/><path class="cls-13" d="M51.56,47.66c-2,.14-5,7.77-4,8.38,2.56,1.47,8,.91,9.58-.29C57.77,55.28,53.8,47.51,51.56,47.66Z" transform="translate(0)"/><path class="cls-12" d="M66.77,44.81c-3.24-2-5.7,4.28-3,6.09a4.21,4.21,0,0,1,3.39,0C68.45,49.49,68.5,45.88,66.77,44.81Z" transform="translate(0)"/><path class="cls-14" d="M37.49,45.9c-1.26.56-.05,3,1.13,2C39.47,47.11,38.6,45.4,37.49,45.9Z" transform="translate(0)"/><path class="cls-14" d="M65.48,45.49c-1.28.24-.69,2.77.63,2.07C67.06,47.05,66.63,45.27,65.48,45.49Z" transform="translate(0)"/><path class="cls-12" d="M57.89,42.25c.55,1.3,3.1.5,3.89,0A5,5,0,0,1,66,41.86c.37.1,4,.87,4.29.13-1.39-1.42-4.29-3.52-6.2-3.44C62.94,38.59,56.79,39.64,57.89,42.25Z" transform="translate(0)"/><path class="cls-12" d="M36.61,39.18c-2,0-5.16,2.06-6.66,3.48.35.73,4.13.12,4.53,0,1.73-.44,3.75-.88,5.32,0,.83.44,2.81,1.47,3.41.17C44.41,40.2,37.86,39.21,36.61,39.18Z" transform="translate(0)"/><path class="cls-13" d="M68.53,54c-.92-1.27-2.83-1.49-4.2-1.48-1.78,0-4.13.71-2.49,3.22.87,1.33,8,2.2,7.09-.9A2.62,2.62,0,0,0,68.53,54Z" transform="translate(0)"/><path class="cls-13" d="M41,53.3c-1.22-1.09-3.23-.89-4.63-.57-1.82.42-4.08,1.65-1.83,3.85,1.19,1.17,8.68.46,7.07-2.52A2.72,2.72,0,0,0,41,53.3Z" transform="translate(0)"/><path class="cls-15" d="M37.49,58.88S40.15,74.05,51,73.9c6-.09,8.05-3.5,10.15-8.61,1-2.41,1.3-5,2.82-6.87C60.81,61.09,46.67,63.87,37.49,58.88Z" transform="translate(0)"/><path class="cls-11" d="M61.79,58.73c-.33.24.4.08,1.39-.09s.64,1.47,1.26,1.3.76-1.35,0-2S61.79,58.73,61.79,58.73Z" transform="translate(0)"/><path class="cls-11" d="M37.25,58.38c-.87.24-1.32,1.74-.76,2s.85-1.1,1.8-1.35,2.25.09,2-.2A7.19,7.19,0,0,0,37.25,58.38Z" transform="translate(0)"/><path class="cls-16" d="M39.49,60.61s3.32,8.82,11.73,9.12c4.17.15,6.83-3,8-5.26a17.91,17.91,0,0,1,3-4.27A20.78,20.78,0,0,1,39.49,60.61Z" transform="translate(0)"/><path class="cls-17" d="M39.49,60.61s2.46,3.66,5.35,4.87A16.71,16.71,0,0,0,56,66.15c2.77-.68,6.18-6,6.18-6S52.7,66.79,39.49,60.61Z" transform="translate(0)"/><path class="cls-17" d="M52.11,66.27a17.9,17.9,0,0,1-7.75-1.62c-1.53-.64-1.28.91-1,1.67,0,0,1.57,2.75,7.14,3.36,5.24.58,7.58-3.49,6.86-4.3S56,66.3,52.11,66.27Z" transform="translate(0)"/><path class="cls-18" d="M39.49,60.61a11.91,11.91,0,0,0,2.34,2.75s9.62,2.12,18.49-.65c0,0,1.75-1.8,1.87-2.51C62.19,60.2,52.37,66.68,39.49,60.61Z" transform="translate(0)"/><path class="cls-18" d="M43.29,64.64c8.39,5,13.47,1.07,13.47,1.07A22.81,22.81,0,0,1,43.29,64.64Z" transform="translate(0)"/></g></g></g></svg>