<svg xmlns="http://www.w3.org/2000/svg" xmlns:xlink="http://www.w3.org/1999/xlink" viewBox="0 0 66 66"><defs><style>.cls-1{fill:none;}.cls-2{clip-path:url(#clip-path);}.cls-3{fill:#7997a0;}.cls-4{fill:#faa665;}.cls-5,.cls-6{fill:#f28b50;}.cls-5{opacity:0.5;}.cls-7{fill:#4f2c1e;}.cls-8{fill:#121b21;}.cls-9{fill:#f58245;}.cls-10{fill:#7d8ba8;}.cls-11{fill:#bf3c1b;opacity:0.3;}.cls-12{fill:#693a27;}.cls-13{fill:#c26346;}</style><clipPath id="clip-path" transform="translate(0.01)"><circle class="cls-1" cx="33" cy="33" r="33"/></clipPath></defs><g id="Layer_2" data-name="Layer 2"><g id="avatars"><g class="cls-2"><rect class="cls-3" width="66" height="66"/><path class="cls-4" d="M42.35,54.65c-.83-.34-.66,5.42,1,6.3,1.1.57,1.55,3.15,1.48,5h4.72A11.31,11.31,0,0,0,42.35,54.65Z" transform="translate(0.01)"/><path class="cls-4" d="M42.46,54.64a8.85,8.85,0,0,0-2.92-1.16c-1.64-.36-3.53-2.14-5.45-2.11s-3.87,1.6-5.66,2.18c-1,.33-2.21.76-3,1.1-2.7,1.12-2.56,6.29-1.67,11.35H44.09C45,61.35,45.2,56.33,42.46,54.64Z" transform="translate(0.01)"/><path class="cls-5" d="M34,51.33a5.25,5.25,0,0,0-3.5,1.18c-4.74,4.39,11.41,5.42,8.12.4C37.83,51.68,35.55,51.31,34,51.33Z" transform="translate(0.01)"/><path class="cls-6" d="M25.47,64.66c.53,1,3.28.94,2.36-.59C27.36,63.28,24.54,63,25.47,64.66Z" transform="translate(0.01)"/><path class="cls-6" d="M39.72,63.75c-1,1.49,1.76,1.64,2.33.71C43.07,62.81,40.23,63,39.72,63.75Z" transform="translate(0.01)"/><path class="cls-7" d="M47.52,21.2c.39-8.73-7.05-14.51-19.22-12.62C7,11.9,12.87,41.33,18.87,39.58c4.43-1.3,8.77-2.91,13.15-4.37,4.09-1.35,8.76-.9,13-.94,3.35,0,3.19-1.43,3.15-4.15C48.13,25.06,47.43,23.26,47.52,21.2Z" transform="translate(0.01)"/><path class="cls-4" d="M29.52,14.84C21.77,17,17.09,28.7,19.34,39.19,21,47.05,27.82,55.3,37,53.94c9.36-1.38,13.16-13.42,11.19-23.09C46.06,20.33,40.36,11.86,29.52,14.84Z" transform="translate(0.01)"/><path class="cls-6" d="M24.65,34.71c.1.63,1.52.21,2,.28-.34.42-1.47.51-1.91.82s-.41.51.18.45a10.83,10.83,0,0,0,2.51-.89C28.38,34.38,25.14,34.54,24.65,34.71Z" transform="translate(0.01)"/><path class="cls-6" d="M47,33.43c-.38-.24-1.33-.19-1.63-.56.36-.12,1.57.11,1.62-.52-.41-.11-3.13.15-2.26,1a7.33,7.33,0,0,0,2.14.55C47.32,33.88,47.37,33.69,47,33.43Z" transform="translate(0.01)"/><path class="cls-8" d="M28.32,31.66c-2.1-.71-3.1,3-1.63,4.05a2.87,2.87,0,0,1,2,0C30,34.92,29.87,32.2,28.32,31.66Z" transform="translate(0.01)"/><path class="cls-6" d="M36.82,37.51c-1.1.08-1.59-.29-2.31.12S35,39.49,36.9,39.3s2.74-1.64,2.28-2S38.05,37.42,36.82,37.51Z" transform="translate(0.01)"/><path class="cls-9" d="M35.82,31.92c-1,.09-1,2.49-1.25,3.64s-.43,2.23.1,2.54c1.31.76,3.86.12,4.56-.54.28-.26-.5-1.39-1.12-2.53S36.91,31.8,35.82,31.92Z" transform="translate(0.01)"/><path class="cls-8" d="M44.6,30.26c-2.16-.94-3.43,3.59-1.1,4a2.59,2.59,0,0,1,1.73-.65C45.92,32.58,45.76,30.77,44.6,30.26Z" transform="translate(0.01)"/><path class="cls-10" d="M27.59,33.71c-.8.34-.05,1.89.7,1.25C28.84,34.49,28.3,33.4,27.59,33.71Z" transform="translate(0.01)"/><path class="cls-10" d="M44,32c-.77.26-.19,1.76.56,1.22C45.09,32.78,44.67,31.72,44,32Z" transform="translate(0.01)"/><path class="cls-4" d="M16.26,35c-3.78,1.35-1.8,6.87,1.44,7.76a7.62,7.62,0,0,0,3.15.1.93.93,0,0,1,0-.1c.41-.77-.7-4.45-1-5.21C19.16,35.64,18.08,34.33,16.26,35Z" transform="translate(0.01)"/><path class="cls-11" d="M42.49,17.19C38.06,15.8,34.83,14.7,30.12,15c-3.14.19-7.84.36-10.17,2.85-1.88,2-1.76,5.46-1.69,8,0,1,.61,8.36,1,6.71.79-3,3.07-4.25,2.76-7.29,4.69,1.68,11.49,1,17.37-.08,3.7-.66,6.61-1.82,7.6,1.22C46.79,23.52,45.55,18.14,42.49,17.19Z" transform="translate(0.01)"/><path class="cls-6" d="M17.78,37c-.9-.34-3,.55-1.87,2.17.42-1.62,1.46-.66,1.4.47,0,.76-.85.83,0,1.73.48.49,1.34.23,1.76-.08C20.43,40.25,18.87,37.36,17.78,37Z" transform="translate(0.01)"/><path class="cls-7" d="M50.4,8.92c-4.7,4.44-13.58-3.79-24.74.56-15.27,5.95-8.1,22-7.87,24a9.9,9.9,0,0,0,2,4.42,3.6,3.6,0,0,0,2.11-.15c-3.69-4.67.61-10,.2-12.52,1.47,1.14,10.67.81,22.75-2.75A11.81,11.81,0,0,0,52,16.73c-1,.12-1.75.33-3,.59C50.66,15.3,50.59,11.61,50.4,8.92Z" transform="translate(0.01)"/><path class="cls-7" d="M43,26.74c-1.51-.06-2.64-.23-2.64-.17,0,.85.29,2.62,1.43,2.54.69-.06,1.4-.23,2.08-.22a7.51,7.51,0,0,1,2.53.47c.51.18.65-.58.45-.79A4.82,4.82,0,0,0,43,26.74Z" transform="translate(0.01)"/><path class="cls-7" d="M27.67,28a5.06,5.06,0,0,0-3.48,2.82c-.14.26.24,1,.73.63a8.27,8.27,0,0,1,2.51-1.15c.71-.19,1.51-.22,2.25-.36,1.23-.23,1-2,.72-2.83C30.38,27.07,29.25,27.54,27.67,28Z" transform="translate(0.01)"/><path class="cls-9" d="M47.3,35.57a3.58,3.58,0,0,0-3-.46c-1.21.25-2.73,1-1.28,2.52.77.8,5.73.46,4.72-1.54A1.91,1.91,0,0,0,47.3,35.57Z" transform="translate(0.01)"/><path class="cls-9" d="M29.17,37.24c-.8-.81-2.21-.75-3.19-.58-1.28.21-2.89,1-1.42,2.59.78.86,6,.67,5-1.46A2.08,2.08,0,0,0,29.17,37.24Z" transform="translate(0.01)"/><path class="cls-12" d="M37.44,9.56C31.71,8.43,23.13,9,19.1,13.91s.09,8.61,15,7.21C47.79,19.85,49.84,10,49.84,10,45.92,12.24,43.17,10.68,37.44,9.56Z" transform="translate(0.01)"/><path class="cls-13" d="M44.75,39.4a.64.64,0,0,0-.75.51c-.59,2.93-3.39,5.28-7,5.83a8.18,8.18,0,0,1-8.75-4.17.65.65,0,0,0-.88-.25.64.64,0,0,0-.25.87A9.43,9.43,0,0,0,37.22,47a3.43,3.43,0,0,0,.34-.06c3.95-.73,7-3.42,7.7-6.79A.65.65,0,0,0,44.75,39.4Z" transform="translate(0.01)"/><path class="cls-4" d="M24.39,61c1.69-.88,1.86-6.64,1-6.3A11.31,11.31,0,0,0,18.19,66h4.72C22.84,64.1,23.29,61.52,24.39,61Z" transform="translate(0.01)"/></g></g></g></svg>