<svg xmlns="http://www.w3.org/2000/svg" xmlns:xlink="http://www.w3.org/1999/xlink" viewBox="0 0 96 96"><defs><style>.cls-1{fill:none;}.cls-2{clip-path:url(#clip-path);}.cls-3{fill:#ffe477;}.cls-4{fill:#d47844;}.cls-5{fill:#ebebeb;}.cls-21,.cls-22,.cls-23,.cls-6{fill:#fff;}.cls-6{opacity:0.07;}.cls-7{fill:#c9beb7;}.cls-8{fill:url(#linear-gradient);}.cls-9{fill:#231e1a;}.cls-10,.cls-11{fill:#661004;}.cls-10,.cls-19,.cls-21{opacity:0.3;}.cls-11{opacity:0.2;}.cls-12{fill:#423631;}.cls-13{fill:#1a1614;}.cls-14{fill:#2b241e;}.cls-15{fill:#a88686;}.cls-16{fill:#d4502c;}.cls-17,.cls-19{fill:#66241b;}.cls-17,.cls-23{opacity:0.7;}.cls-18{fill:#611f16;}.cls-20{fill:#3a3a4a;}.cls-24{fill:#c1c5c9;}</style><clipPath id="clip-path" transform="translate(0)"><circle class="cls-1" cx="48" cy="48" r="48"/></clipPath><linearGradient id="linear-gradient" x1="47.79" y1="75.09" x2="47.79" y2="80.26" gradientUnits="userSpaceOnUse"><stop offset="0" stop-color="#c25421"/><stop offset="1" stop-color="#d47844"/></linearGradient></defs><g id="Layer_2" data-name="Layer 2"><g id="Layer_4" data-name="Layer 4"><g class="cls-2"><rect class="cls-3" width="96" height="96"/><path class="cls-4" d="M59.53,85.63l-4.28.55c.13,1.11.21,2.14.29,3.12A27.4,27.4,0,0,0,56.67,96H61.3a18.9,18.9,0,0,1-1.46-7C59.76,87.9,59.67,86.81,59.53,85.63Z" transform="translate(0)"/><path class="cls-5" d="M56.25,78.21,53.88,83c.21.1.77.72,1.5,4.17L60.49,86C59.81,82.83,58.93,79.6,56.25,78.21Z" transform="translate(0)"/><path class="cls-4" d="M40.9,86.18l-4.28-.55c-.14,1.18-.23,2.27-.31,3.32a18.9,18.9,0,0,1-1.46,7h4.64a27.86,27.86,0,0,0,1.12-6.7C40.69,88.32,40.77,87.29,40.9,86.18Z" transform="translate(0)"/><path class="cls-5" d="M35.67,86l5.11,1.12c.72-3.45,1.28-4.07,1.49-4.17L39.9,78.21C37.22,79.6,36.34,82.83,35.67,86Z" transform="translate(0)"/><path class="cls-5" d="M56.81,88.35c1.57-6,1.74-9.61-1.88-10.83s-10-1.58-13.89.11C38,79,37,81.15,39.08,87.79A33.85,33.85,0,0,1,40.88,96H55.4A39.55,39.55,0,0,1,56.81,88.35Z" transform="translate(0)"/><path class="cls-6" d="M51.74,84.46c-2.54.91-5.63.53-8.24-.14-1.5-.38-2.34,1.35-1.88,2.83.61,2,3.72,2.48,6.43,2.43,5.34-.08,7.35-2.11,6.44-4.52C54.25,84.41,53.1,84,51.74,84.46Z" transform="translate(0)"/><path class="cls-7" d="M54.9,84.81c.89-3,.94-7.16-1.85-9.18a.94.94,0,0,0-1.32.22A1,1,0,0,0,52,77.21c1.84,1.33,1.89,4.49,1.13,7a31.92,31.92,0,0,1-3.37,6.83A17,17,0,0,0,47.33,96h2a21.34,21.34,0,0,1,2-3.92A33.22,33.22,0,0,0,54.9,84.81Z" transform="translate(0)"/><path class="cls-7" d="M42.47,83.94c-.78-2-1.19-5,1.32-7.42a1,1,0,0,0,0-1.37.93.93,0,0,0-1.34,0C39.92,77.6,39.29,81,40.7,84.65a38.91,38.91,0,0,0,3.92,6.95A24.08,24.08,0,0,1,47.14,96h2c-.28-1.47-1.46-3.27-2.92-5.48A37.06,37.06,0,0,1,42.47,83.94Z" transform="translate(0)"/><path class="cls-8" d="M52.34,71.33c.3-5.29-8.66-5.48-8.65.29,0,2.56.19,4.51-.33,5.34-3.59,5.73,12.28,6.41,8.93.27C51.53,75.86,52.21,73.67,52.34,71.33Z" transform="translate(0)"/><path class="cls-9" d="M17.38,21.35C24.06,16,41.42,5.5,49.17,15,61.48,1.38,84.23,24,89,34.43c1.8,3.91,5.73,11.12-1.28,11,3.27,1.93,3.08,7.65-1.32,6.45,1.61,3.2,1.19,7.9-3,6.64,1.87,3.57-2.59,6.87-6.07,4.19.26,4.65-3.63,5.11-6.17,3.1C70.94,76.6,58,62.33,50.32,62.33c-8.51,0-21.34,14.46-23.59,5-2.7,2.22-6.44,1.54-7.57-2.16-3.73,1.15-6.67-1.29-6.07-5.07C9,59.86,7.93,56,9.88,52.87,5.22,51.75,6.43,45.69,9,42.74-2.56,42.91,8.83,28.16,17.38,21.35Z" transform="translate(0)"/><path class="cls-5" d="M69.67,57a2.2,2.2,0,1,1-2.39-2.38A2.39,2.39,0,0,1,69.67,57Z" transform="translate(0)"/><path class="cls-4" d="M27.63,48.63c.88,15.92,11.14,25.78,22.68,26.14,8.86.27,19.58-14.32,18.19-30.2-1.37-15.68-9.92-23.91-21.42-22.89S26.74,32.71,27.63,48.63Z" transform="translate(0)"/><path class="cls-4" d="M25.33,56.94a8.61,8.61,0,0,0,4.22.05l.08-.16c.57-1.26-.82-7.18-1.19-8.39-.94-3-2.35-5.13-4.81-4C18.51,46.75,21,55.61,25.33,56.94Z" transform="translate(0)"/><path class="cls-10" d="M27.9,54.81c2.35-1.31.4-6.36-1.3-7.28-1.39-.74-5,.21-3.42,3.1,1-2.52,2.47-.73,2.16,1.09-.22,1.23-1.53,1.16-.29,2.82C25.72,55.44,27.16,55.22,27.9,54.81Z" transform="translate(0)"/><path class="cls-5" d="M29.6,58.37a2.27,2.27,0,0,1-2,2.49A2.48,2.48,0,0,1,27.5,56,2.28,2.28,0,0,1,29.6,58.37Z" transform="translate(0)"/><path class="cls-11" d="M42.15,24.17A58.6,58.6,0,0,1,61,22.7c3.33.27,7,.84,7.54,4.78.26,2,1.32,8-1.14,9.09-1.4.65-3.68-1.21-4.39-3.14-.11,1.33.55,3-1.78,3.56s-4.77-3.89-6.84-5.68c-8.64-7.47-14,11-19.41,5.91.11,2.27-1.21,7-3.58,5.8,1,3,2.14,9.26-.11,11.92-3.78,4.47-4.92-4.7-5.2-7.95C25.24,37.1,32.61,26.61,42.15,24.17Z" transform="translate(0)"/><path class="cls-9" d="M26.5,51.5c1,4.16,2.66,5.13,4,1.35.94-2.59-.19-8.48.22-13.2.22,1.36.66,3.07,2.12,2.64s1.4-5.17,1.69-8.07C36,40.43,44.18,30.54,46,29.15c5-3.85,6.86-1.58,10.37,2C58,32.79,59.75,36,61.6,35.22c1.46-.61,1.06-3.18,1.14-4.57a9.56,9.56,0,0,0,4,4.87c1.69,1,3.41-2.79,1.59-8.11-1-2.82-2.58-5.43-5.33-6.68-11.1-5-22.39-2-32.83,3.07a12.46,12.46,0,0,0-5.41,5.05C22.53,32.86,24.48,43.19,26.5,51.5Z" transform="translate(0)"/><path class="cls-12" d="M13.37,29.26c-2,2.1-7.38,6.61-4.67,8.65s13.15-9.23,17.55-12.2c-2.13,1.74-10.37,9.64-8.67,12.78,1.88,3.48,7.79-4,9.74-5.94-1.32,2.08-2.65,7-.82,7.51s3.87-4.52,5-7.1c-.34,1.34-1.22,5.12.37,5.15s2.13-6.83,3.35-9.77c.16,7.66,7.33-1.46,9.22-2.85,4-3,5.59-3.16,9.7-.28,2.15,1.51,3.74,5.51,5.81,5.48s2-3.6,1.49-5.75c1.16,2.72,5.33,10.58,6.56,3.68,1.05,4.56,9.6,17.4,7.5,6,.8,2.1,4.59,8.19,7.32,6.16,2.55-1.88-4.61-9.75-3.39-10.63,1,1.49,3.32,4.19,5.22,2.23C86.85,30.08,74,20,72.72,19.12c-3.37-2.41-7.59-4.77-11.77-5.37a7.84,7.84,0,0,0-6,1.23c-1.16.89-3.42,4.19-2.54,5.8,0,0,.06.07,0,0C42.6,3.86,22.22,20.13,13.37,29.26Z" transform="translate(0)"/><path class="cls-13" d="M42.68,51.57a4.25,4.25,0,0,0-2.92,0c-2.12-1.55-.66-6.88,2.36-5.83C44.37,46.49,44.57,50.41,42.68,51.57Z" transform="translate(0)"/><path class="cls-13" d="M64,45.52c1.59.89,1.48,3.68.35,5a4,4,0,0,0-2.6.39C58.42,50.07,61,43.87,64,45.52Z" transform="translate(0)"/><path class="cls-14" d="M68.71,44c-.79-2-3.38-2.68-4.85-2.78-1.73-.13-5.29.29-7,0,.54,2.45,1.91,2.62,4.06,2.4C63.59,43.31,67.76,43.55,68.71,44Z" transform="translate(0)"/><path class="cls-14" d="M34.14,44.18c.84-2,3.68-2.64,5.31-2.73,1.9-.11,5.82.35,7.71,0-.57,2.44-2.08,2.6-4.44,2.36C39.77,43.57,35.18,43.76,34.14,44.18Z" transform="translate(0)"/><path class="cls-10" d="M55.13,55.33c.44.42-.68,1.75-2.17,2-1.32.21-3.09-1.12-2.38-1.59s1.18,0,2.26-.15S54.62,54.85,55.13,55.33Z" transform="translate(0)"/><path class="cls-13" d="M33.77,47.09a5.44,5.44,0,0,0,6.87.41L40.21,46S37.3,49,33.77,47.09Z" transform="translate(0)"/><path class="cls-13" d="M69.79,47.13s-2.48,2.49-6.2-.15l.47-1.36S67,48.34,69.79,47.13Z" transform="translate(0)"/><path class="cls-15" d="M40.76,46.6c1-.44,1.8,1.14,1,1.8C40.67,49.33,39.6,47.09,40.76,46.6Z" transform="translate(0)"/><path class="cls-15" d="M62.5,46.14c1-.23,1.47,1.34.64,1.82C62,48.64,61.36,46.41,62.5,46.14Z" transform="translate(0)"/><path class="cls-16" d="M63.22,53.19c1.65-.14,3.06.65,3.16,1.76s-1.16,2.11-2.81,2.25-3.06-.65-3.16-1.76S61.57,53.32,63.22,53.19Z" transform="translate(0)"/><path class="cls-16" d="M39.35,53.78c-1.82-.15-3.37.72-3.48,1.94S37.15,58.05,39,58.2s3.37-.72,3.48-1.94S41.16,53.93,39.35,53.78Z" transform="translate(0)"/><path class="cls-17" d="M41.75,58.47c1.46,2.73-1.91,4.07-3.33,1.4A2.52,2.52,0,0,0,41.75,58.47Z" transform="translate(0)"/><path class="cls-17" d="M60.75,57.79c-.72,2.86,3,3.8,3.64,1A2.8,2.8,0,0,1,60.75,57.79Z" transform="translate(0)"/><path class="cls-18" d="M51.05,67.56a12.08,12.08,0,0,1-10.81-6.45.67.67,0,0,1,.42-.93.88.88,0,0,1,1.06.43,10.44,10.44,0,0,0,9.65,5.5c4.68,0,8.68-2.59,10-6.44a.79.79,0,0,1,1-.44.77.77,0,0,1,.54.93c-1.5,4.45-6,7.37-11.42,7.4Z" transform="translate(0)"/><path class="cls-19" d="M58.32,54.57A5.47,5.47,0,0,1,56.87,53a5,5,0,0,1-.29-4.29c.7-1.93,2.82-2.08,4.58-2.23,2.13-.18,4.29-.13,6.41-.32a24.38,24.38,0,0,1,2.83.08c1.21.05,3.83-.33,2.4-2.1s-4.1-1.75-6.07-1.65a29.7,29.7,0,0,0-6,.91c-1.68.44-3.65.63-5.19,1.43S53.52,46,51.8,46c-3.07-.13-5.65-2.05-8.72-2.38s-6.45-.73-9.6.12c-.82.23-3.3,1.16-1.63,2s4.07.6,5.85.67c.83,0,1.66.06,2.48.14,2.92.28,7.41-.11,7.17,3.53-.17,2.51-1.79,5.07-3.83,5.53a25.92,25.92,0,0,1-6,.6,10.32,10.32,0,0,1-4.34-1c-.39-.18-1.56-.93-1.94-.4-.65.89,1.72,2.39,2.34,2.67a14,14,0,0,0,4.47,1c3.81.42,7.73.23,9.89-3.26,1.25-2,1.88-4.41,3-6.48C52.88,45.38,53.75,50,54.34,52a10.45,10.45,0,0,0,1.51,3.2A7.71,7.71,0,0,0,61.51,58a8.6,8.6,0,0,0,3.7-.48c.7-.29,1-1.11.15-1.43A6.86,6.86,0,0,0,63.49,56a16.8,16.8,0,0,1-2.35-.19A7,7,0,0,1,58.32,54.57Z" transform="translate(0)"/><path class="cls-20" d="M25.2,42.22c.59-.5,2.74.2,5.25.12C34,42.23,52,41.11,50.53,48.7c-.6,3.09-2,6.23-5.41,7.91C42.41,58,33.67,57.27,31,54.89c-3.2-2.85-3.09-7.35-3.25-9.1a4.34,4.34,0,0,1-2-.67S24.43,42.88,25.2,42.22ZM31.29,53c2.2,2.73,10.69,3.76,14,1.62,2.52-1.62,4.28-6.77,2.94-7.79-2.76-2.12-14.72-2.87-17.91-1C29.3,46.44,29.59,50.84,31.29,53Z" transform="translate(0)"/><path class="cls-20" d="M76,44.37a3.72,3.72,0,0,1-1.77.72c-.09,1.75.13,6.25-2.69,9.2-2.34,2.45-10.2,3.41-12.7,2.13-3.09-1.59-4.47-4.69-5.1-7.76-1.54-7.54,14.75-6.94,18-6.93,2.28,0,4.19-.77,4.74-.28C77.11,42.08,76,44.37,76,44.37Zm-4.11.83c-2.93-1.82-13.7-.72-16.14,1.47-1.18,1.07.55,6.16,2.87,7.71,3.06,2,10.7.77,12.61-2C72.67,50.19,72.81,45.79,71.85,45.2Z" transform="translate(0)"/><path class="cls-21" d="M57.82,46c2-.85,12.06-1.74,13.22-.7.83.74-2.06,2-3.4,2.22A24,24,0,0,1,60,47.8C59.27,47.7,56.05,46.76,57.82,46Z" transform="translate(0)"/><path class="cls-22" d="M65.74,45.55c2.05-.32,5.6-.06,5.23.58s-6,1.14-6.56.29C64.15,46,64.78,45.71,65.74,45.55Z" transform="translate(0)"/><path class="cls-23" d="M59.62,52.59c1.29.06,3.42.81,3.11,1.26s-3.83,0-4-.78C58.59,52.69,59,52.57,59.62,52.59Z" transform="translate(0)"/><path class="cls-23" d="M33.25,52.33c1.34.21,3.47,1.22,3.09,1.63s-4-.5-4.12-1.27C32.16,52.3,32.61,52.22,33.25,52.33Z" transform="translate(0)"/><path class="cls-21" d="M32.39,45.66c1.15-1,12.29-.13,14.53.67,2,.73-1.38,1.62-2.12,1.72a30.89,30.89,0,0,1-8.43-.28C34.87,47.53,31.56,46.37,32.39,45.66Z" transform="translate(0)"/><path class="cls-22" d="M42.08,45.68c2.19-.07,5.87.63,5.39,1.22s-6.46.39-6.89-.52C40.36,45.91,41.05,45.71,42.08,45.68Z" transform="translate(0)"/><path class="cls-20" d="M48,44.18c3.24,1.16,5.51,1,7.84-.06s0,.85-.45,1.37-.37,6.2-1.46,4.07-2.8-2-3.65.33-.43-1.57-.71-2.84S45.53,43.31,48,44.18Z" transform="translate(0)"/><path class="cls-24" d="M47.92,45.24c-2.66-2.2-7.26-2.7-16.29-2.15C38.41,43.45,43.83,43.65,47.92,45.24Z" transform="translate(0)"/><path class="cls-24" d="M56.71,44.76c2.23-2.1,6.09-2.16,14.37-2.44C64.93,43.19,60.3,43.06,56.71,44.76Z" transform="translate(0)"/></g></g></g></svg>