<svg xmlns="http://www.w3.org/2000/svg" xmlns:xlink="http://www.w3.org/1999/xlink" viewBox="0 0 66 66"><defs><style>.cls-1{fill:none;}.cls-2{clip-path:url(#clip-path);}.cls-3{fill:#fff;}.cls-4{fill:#c4bab1;}.cls-5{fill:#765aa3;}.cls-6{fill:#85b428;}.cls-7{fill:#588a17;}.cls-8{fill:#acd14b;}.cls-9{fill:#ebebeb;}.cls-10{fill:#ba9552;}.cls-11{fill:#ffcb9e;}.cls-12,.cls-13{fill:#bf3c1b;}.cls-12{opacity:0.15;}.cls-13,.cls-16{opacity:0.3;}.cls-14{fill:#ffa073;}.cls-15{fill:#305d80;}.cls-16{fill:#b54d26;}.cls-17{fill:#ffdfc2;}.cls-18{fill:#86bae3;}.cls-19{fill:#f7a286;}.cls-20{fill:#8f3935;}.cls-21{fill:#fff9f0;}.cls-22{fill:#e8dac5;}.cls-23{fill:#a16b43;}.cls-24{fill:#f0d197;}</style><clipPath id="clip-path" transform="translate(0)"><circle class="cls-1" cx="33" cy="33" r="33"/></clipPath></defs><g id="Layer_2" data-name="Layer 2"><g id="avatars"><g class="cls-2"><rect class="cls-3" width="66" height="66"/><path class="cls-4" d="M22.68,60.63c1-.65,2.3-6.43,1.27-6.42C20.1,54.21,13.87,60.28,14,66h5.23A7.6,7.6,0,0,1,22.68,60.63Z" transform="translate(0)"/><path class="cls-5" d="M24.09,53.61c-3.56,1.07-8.25,4-10,9.08a16.34,16.34,0,0,0,5.82,2.63,7.59,7.59,0,0,1,2.92-4.66C23.85,60,25.12,53.3,24.09,53.61Z" transform="translate(0)"/><path class="cls-4" d="M41,54.21c-1,0,.29,5.77,1.28,6.42A7.66,7.66,0,0,1,45.67,66h5.22C51.06,60.28,44.82,54.21,41,54.21Z" transform="translate(0)"/><path class="cls-5" d="M40.83,53.61c-1-.31.24,6.38,1.28,7A7.63,7.63,0,0,1,45,65.32a16.22,16.22,0,0,0,5.81-2.63C49.08,57.58,44.39,54.68,40.83,53.61Z" transform="translate(0)"/><path class="cls-6" d="M41,53.29c-3.25-2-14.66-2.19-17.45.19-1.72,1.46-1.82,6.4-1.72,11l0,1.51H43.48c0-.4.05-.8.07-1.2C43.79,60.14,43.94,55.09,41,53.29Z" transform="translate(0)"/><path class="cls-7" d="M22.9,62.5c6.88,1.17,15,1.15,19.75-.16C36.45,62.08,27.59,62.36,22.9,62.5Z" transform="translate(0)"/><path class="cls-8" d="M38.09,50.16c-2.29-.4-4.8,0-7.1.16-1.57.11-4.26-.09-5.14,1.64a2,2,0,0,0,.54,2.54C28,55.91,31,56.41,33,56.3a15,15,0,0,0,5.36-1C40.71,54.05,41,50.67,38.09,50.16Z" transform="translate(0)"/><path class="cls-7" d="M34.65,54.67l-2.7.08c.06,1.69.48,6,.49,11.25h2.44C34.94,62.41,34.91,58.38,34.65,54.67Z" transform="translate(0)"/><path class="cls-9" d="M34.11,54.43l-1.65,0c0,1.71.34,6.16.37,11.55h1.53C34.39,62.33,34.35,58.19,34.11,54.43Z" transform="translate(0)"/><path class="cls-8" d="M28.94,57.6c-1.36-.08-4.83-.27-5.75.91-1.62,2.09,3.74,2.78,5,2.67s2.86-.78,3-2.07S30.12,57.67,28.94,57.6Z" transform="translate(0)"/><path class="cls-7" d="M37.43,50.63a31.36,31.36,0,0,0-6,.1c-1.32.08-3.59-.06-4.32,1.11a1.17,1.17,0,0,0,.45,1.71,10.2,10.2,0,0,0,5.55,1.21,15.22,15.22,0,0,0,4.5-.67C39.64,53.25,39.9,51,37.43,50.63Z" transform="translate(0)"/><path class="cls-8" d="M24.49,64.38c-1.07.36-1.28,1-1,1.62h8s0,0,0,0C31.54,63.73,25.56,64,24.49,64.38Z" transform="translate(0)"/><path class="cls-8" d="M42.2,64.27c-1.31-.66-3.86-.36-4.7-.23s-2,.7-1.71,2h7a1.18,1.18,0,0,0,.17-.74A1.28,1.28,0,0,0,42.2,64.27Z" transform="translate(0)"/><path class="cls-8" d="M42.22,57.92c-1.3-.68-3.85-.44-4.7-.32s-2.1.7-1.72,2.12c.31,1.14,1.87,1.23,2.8,1.36s4.57-.44,4.39-2.15A1.27,1.27,0,0,0,42.22,57.92Z" transform="translate(0)"/><path class="cls-10" d="M46.82,15.38c1.5-.38,1.15-4.14,1-5.14a12.88,12.88,0,0,0-.64-2.87,6.87,6.87,0,0,0-1.8-2.82c-1.44,2.92-5.42,4.5-8.5,4A2,2,0,0,0,37.66,7c-1.23.26-2.36.83-3.6,1.06-4.9.92-9.8,1.05-13.92,4.37-5.8,4.67-4.93,12.25-3.77,18.65.63,3.46,1.2,7.36,2.81,10.52,1.17,2.28,2.34,1.32,4.05.41,2.23-1.17,5.5-1.36,8-1.48s6.24-.33,8.6.78c1.55.72,2.36,1.31,3.94.1a9.46,9.46,0,0,0,2.59-3.59c1-2.1,1-4.2,1.17-6.45.24-2.91,1-5.31.76-8.23-.08-1-1.33-4.93.94-8.24A16.32,16.32,0,0,0,46.82,15.38Z" transform="translate(0)"/><path class="cls-11" d="M30,15.1c-7.8,1.52-13.29,12.74-11.86,23.26,1.07,7.88,7.15,16.52,16.31,15.87,9.34-.66,14-12.25,12.78-21.94C46,21.75,41,13,30,15.1Z" transform="translate(0)"/><path class="cls-12" d="M40.09,16.76a35.18,35.18,0,0,0-9.45-1.49c-2.85,0-5.95-.21-8.6,1-1.46.66-3.25,1.57-3.8,3.18A12,12,0,0,0,18,23.67a22.73,22.73,0,0,0,.37,3.86A5.83,5.83,0,0,0,20,30.28c1.18-2.33,1.63-6.09,4.4-7.1,1.94-.71,4.76-.22,6.79.36l.41.12c3.52,1.08,5.69,2.09,9.49,1.16,2.14-.53,6.46-1.58,5.57-4.56C45.94,17.9,42.12,17.36,40.09,16.76Z" transform="translate(0)"/><path class="cls-11" d="M15.46,34c-3.83,1.05-2.3,6.64.83,7.76a7.63,7.63,0,0,0,3.1.34l.06-.09c.46-.73-.18-4.81-.42-5.58C18.44,34.48,17.3,33.47,15.46,34Z" transform="translate(0)"/><path class="cls-13" d="M16.8,36c-.86-.39-3,.32-2,2,.54-1.56,1.49-.53,1.34.58-.1.74-.9.75-.1,1.7.43.52,1.3.33,1.74,0C19.17,39.48,17.85,36.52,16.8,36Z" transform="translate(0)"/><path class="cls-10" d="M41.38,12.94C38.08,10.15,34.16,9.7,30,10.66c-2.52.58-5.41.93-7.51,2.56a20.26,20.26,0,0,0-4.76,4.57c-2,3.06-1,15.18.33,17,.14.2,1.75,2.19,2.5,2.13A37.35,37.35,0,0,1,20.37,29c.25-3.52,1.07-7.33,5.09-8,2.28-.36,9.55,2.77,11.21,3.12,2.22.47,7.43-2,8.19-2.33,1.87-.78,1.76-2.91.88-4.38A19.26,19.26,0,0,0,41.38,12.94Z" transform="translate(0)"/><path class="cls-14" d="M44.1,35.81c-1.32,0-3.25.54-2.75,2.89.27,1.25,5.28,2.23,5.5-.64a2.12,2.12,0,0,0-.07-.78C46.46,36.08,45.11,35.83,44.1,35.81Z" transform="translate(0)"/><path class="cls-14" d="M26.81,36.88c-.7-1.06-2.13-.91-3.15-.64-1.32.35-3.07,1.47-1.81,3.61.67,1.14,6,.63,5.27-2.23A2.39,2.39,0,0,0,26.81,36.88Z" transform="translate(0)"/><path class="cls-15" d="M25.7,31.48c-2-.87-3.28,2.7-1.9,3.86a2.91,2.91,0,0,1,2,.17C27.14,34.81,27.19,32.12,25.7,31.48Z" transform="translate(0)"/><path class="cls-16" d="M35.51,38.14c-1.18,0-1.64-.52-2.47,0s.36,2,2.44,2,3-1.5,2.53-2S36.81,38.13,35.51,38.14Z" transform="translate(0)"/><path class="cls-17" d="M35.13,32.31c-1.23.18-2.31,5.89-1.8,6.29,1.24,1,3.82.29,4.57-.5C38.2,37.79,37.22,32,35.13,32.31Z" transform="translate(0)"/><path class="cls-15" d="M45.05,31.34c-2-1.23-3.54,2.72-1.86,3.83a2.67,2.67,0,0,1,2.13,0C46.14,34.26,46.15,32,45.05,31.34Z" transform="translate(0)"/><path class="cls-18" d="M25,32.1c-.81.28-.19,1.86.6,1.29C26.16,33,25.71,31.85,25,32.1Z" transform="translate(0)"/><path class="cls-18" d="M44.26,31.77c-.81.16-.42,1.75.4,1.3C45.26,32.74,45,31.63,44.26,31.77Z" transform="translate(0)"/><path class="cls-19" d="M44,41.22c-.56-.39-1.23-.7-1.79-1a.94.94,0,0,0,.28.67c-2.38.15-4.78.33-7.18.44-1.58.07-3.17.19-4.76.21-1.16,0-3.36.25-4.28-.39a2.58,2.58,0,0,0,.84-.49,8.37,8.37,0,0,0-4.22,1.69c.89-.36,2.07-.89,2.86-.13a31.44,31.44,0,0,0,4.33,3.63C33.43,48,40,47.76,41.72,43.52c.15-.38.93-1.62,1.48-1.75a4.73,4.73,0,0,1,1.8.48A2.89,2.89,0,0,0,44,41.22Z" transform="translate(0)"/><path class="cls-20" d="M26.47,41.72a10.38,10.38,0,0,0,8.2,3.84c3.5,0,5.79-1,6.42-2.31a4.21,4.21,0,0,1,2.16-2A43.83,43.83,0,0,1,26.47,41.72Z" transform="translate(0)"/><path class="cls-21" d="M28.5,42s.18,1.18,2.13,1.6a22.42,22.42,0,0,0,7.94.13,4,4,0,0,0,2.75-2.14A47,47,0,0,1,28.5,42Z" transform="translate(0)"/><path class="cls-21" d="M36,44c-2.49.12-4.57,0-5.83-.6-.89-.44-1,0-.77.36,0,0,.83,1.6,5,1.9s6-1.69,5.56-2S38.35,43.85,36,44Z" transform="translate(0)"/><path class="cls-22" d="M28.5,42a1.71,1.71,0,0,0,.51.83s9.32-.81,11.56-.19a3.83,3.83,0,0,0,.75-1.05A54,54,0,0,1,28.5,42Z" transform="translate(0)"/><path class="cls-22" d="M31,43.59c3.37,1.55,7.35.11,7.35.11A16.38,16.38,0,0,1,31,43.59Z" transform="translate(0)"/><path class="cls-23" d="M21.26,30c3.83.07,5.12.28,7.79.15C27.68,27.67,23,27.91,21.26,30Z" transform="translate(0)"/><path class="cls-23" d="M40.82,30.26c2.3.12,3.41-.1,6.72-.18C46.08,28,42,27.8,40.82,30.26Z" transform="translate(0)"/><path class="cls-24" d="M44.86,17l0,0h0S44.85,17,44.86,17Z" transform="translate(0)"/><path class="cls-24" d="M44.88,17l0,0s0,0,0,0h0c2.48-2.52,2.69-7.53.41-10.15C43,9.84,38.42,9.56,35,9.51a21.68,21.68,0,0,0-5.21.55,34.54,34.54,0,0,0-6.6,2.29,8,8,0,0,0-4,3.06,10.77,10.77,0,0,0-1.11,2.67c-.14.54.07,2.55-.15,2.83a11.65,11.65,0,0,1,9-4.56,4.36,4.36,0,0,0-.12,2c-.06-.35,6.12-2.92,6.31-2.93-.49.73-3.26,3-3,3.87,0-.06,7.73-4.83,8.09-4.93-.32,1.08-4.56,6.2-3.84,7.08.4-.46,8.08-7.61,8.48-7.81-.09.68-6.5,8.23-6.09,8.67.32-.57,5.33-4.21,5.82-4.57a34,34,0,0,1-1.9,4.14c2.64-1.65,7.21-3.29,6.76-5.39A7.79,7.79,0,0,0,44.88,17Z" transform="translate(0)"/></g></g></g></svg>