<svg xmlns="http://www.w3.org/2000/svg" xmlns:xlink="http://www.w3.org/1999/xlink" viewBox="0 0 66 66"><defs><style>.cls-1{fill:none;}.cls-2{clip-path:url(#clip-path);}.cls-3{fill:#d6bb40;}.cls-4{fill:#8d573e;}.cls-5{fill:#37231a;}.cls-6{fill:#c78b6d;}.cls-7{fill:#f2b081;}.cls-8{fill:#322b2a;}.cls-9{fill:#ffcb9e;}.cls-10{fill:#1b2c33;}.cls-11{fill:#c94614;opacity:0.3;}.cls-12{fill:#ffe1c7;}.cls-13{fill:#a5abb8;}.cls-14{fill:#423736;}.cls-15{fill:#c4170e;opacity:0.2;}.cls-16{fill:#8f3935;}.cls-17{fill:#fff9f0;}.cls-18{fill:#e8dac5;}.cls-19{fill:#5e0900;opacity:0.15;}.cls-20{fill:#59362a;}.cls-21{fill:#8e523b;}.cls-22{fill:#d69f85;}.cls-23{fill:#a86b4d;}.cls-24{fill:#7a4733;}</style><clipPath id="clip-path" transform="translate(0)"><circle class="cls-1" cx="33" cy="33" r="33"/></clipPath></defs><g id="Layer_2" data-name="Layer 2"><g id="avatars"><g class="cls-2"><rect class="cls-3" width="66" height="66"/><path class="cls-4" d="M18.8,66H27l-.38-13.39C21.1,55.43,18.8,58.65,18.8,66Z" transform="translate(0)"/><path class="cls-4" d="M42.31,52.61,41.92,66h8.25C50.17,58.65,47.86,55.43,42.31,52.61Z" transform="translate(0)"/><path class="cls-4" d="M43.23,53.87c-2-5-13.7-3.68-16.57-1.26-2.45,2-2.07,8.27-1.25,13.39H43.2C44,61.78,44.44,56.81,43.23,53.87Z" transform="translate(0)"/><path class="cls-5" d="M36.83,57.61A2.47,2.47,0,0,0,34,56.34a2.6,2.6,0,0,0-2.17,2l1.56,1.58L31.33,66h6.59l-2.5-6.25Z" transform="translate(0)"/><path class="cls-6" d="M27.26,52.34c-1.5,3.84,4,7,4,7l3.25-2,3.05,1.91s6-3.12,3.73-7.59C39.21,47.56,29,47.89,27.26,52.34Z" transform="translate(0)"/><path class="cls-7" d="M32.1,47a4.54,4.54,0,0,0-3.36,4.17,3.55,3.55,0,0,0,1,3.15,6.69,6.69,0,0,0,2.57,1.48c.72.22,2,1.06,2.19,1.06s.51-.36,1.18-.71c1-.51,2.39-1.18,2.93-2.24.8-1.56,1.51-4.65,0-5.86S34,46.56,32.1,47Z" transform="translate(0)"/><path class="cls-8" d="M30.74,9.53a17.53,17.53,0,0,0-9.23,3.39,9,9,0,0,0-3,4.28,24,24,0,0,1-1,2.19C17,20.53,15,26.53,15,28.62c0,.9.17,3.72.32,4.58A8.82,8.82,0,0,0,17.58,38a2,2,0,0,0,1.87.53c4.34-.91,8.61-2.14,12.92-3.22,4-1,8.46-.23,12.56,0,3.22.22,3.17-1.14,3.32-3.75.3-4.85-.24-6.63,0-8.59C49.25,14.68,42.55,8.6,30.74,9.53Z" transform="translate(0)"/><path class="cls-9" d="M31.45,15.62C23.88,17.1,18.54,28,19.93,38.21c1,7.66,7,16.06,15.84,15.42,9.07-.64,13.59-11.9,12.42-21.31C46.91,22.08,42.07,13.55,31.45,15.62Z" transform="translate(0)"/><path class="cls-10" d="M28.57,31.53c-2-.84-3.18,2.62-1.85,3.75a2.8,2.8,0,0,1,1.93.17C30,34.77,30,32.15,28.57,31.53Z" transform="translate(0)"/><path class="cls-11" d="M37.47,38c-1,0-1.41-.23-2.09.05s.26,1.28,2,1.19,2.58-1.07,2.2-1.34S38.57,38,37.47,38Z" transform="translate(0)"/><path class="cls-12" d="M37,34.07c-.86,0-1.08,1.71-1.39,2.49s-.55,1.54-.1,1.76A5.81,5.81,0,0,0,39.61,38c.27-.18-.35-1-.83-1.77S38,34,37,34.07Z" transform="translate(0)"/><path class="cls-10" d="M45.43,31.4c-2-1.2-3.45,2.64-1.81,3.72a2.57,2.57,0,0,1,2.07,0C46.49,34.24,46.49,32,45.43,31.4Z" transform="translate(0)"/><path class="cls-13" d="M28.43,33.05c-.79.27-.19,1.81.58,1.25C29.57,33.9,29.14,32.81,28.43,33.05Z" transform="translate(0)"/><path class="cls-13" d="M45.21,32.73c-.78.16-.4,1.7.4,1.26C46.19,33.68,45.91,32.59,45.21,32.73Z" transform="translate(0)"/><path class="cls-9" d="M17.28,34c-3.72,1-2.22,6.45.82,7.54a7.31,7.31,0,0,0,3,.33l.06-.09c.45-.71-.35-4.32-.58-5.07C20,34.79,19.07,33.46,17.28,34Z" transform="translate(0)"/><path class="cls-11" d="M18.59,36c-.84-.39-2.92.3-1.94,1.94.52-1.52,1.44-.52,1.3.55-.1.73-.87.74-.1,1.66.41.51,1.26.32,1.69,0C20.89,39.31,19.61,36.42,18.59,36Z" transform="translate(0)"/><path class="cls-8" d="M45.56,15.3a15.47,15.47,0,0,0-9.44-5.48,16.41,16.41,0,0,0-6.93.53c-3.3.92-5.19,2.32-7.78,4.57-3,2.63-3.68,5.69-3.74,9.56,0,2.81,1.08,5.4,1.19,8.16A9.46,9.46,0,0,0,20.42,37a3.44,3.44,0,0,0,2,0c-1.36-1.26-1.91-4.69-.82-7.91a32,32,0,0,0,1.15-4c.2-1,.29-1.64,1.37-1.72,1.48-.12,2.37,1.26,3.74,1.44.47.07,1,.1,1.44.13a30.37,30.37,0,0,0,4.37-.09c2-.18,4-.24,6-.34,1.45-.08,2.87,0,4.31-.2l.14,0c1.06-.1,2.29,0,3.16-.7A3.61,3.61,0,0,0,48.51,20,14.31,14.31,0,0,0,45.56,15.3Z" transform="translate(0)"/><path class="cls-8" d="M27.42,27.81a4.34,4.34,0,0,0-3.22,2.58.48.48,0,0,0,.75.53,9,9,0,0,1,2.68-1.15,6.53,6.53,0,0,1,2.95.15.68.68,0,0,0,.77-1C30.66,27.8,28.54,27.59,27.42,27.81Z" transform="translate(0)"/><path class="cls-8" d="M44.69,27.46c-1,0-3.06.74-3.47,1.79a.61.61,0,0,0,.87.75,6.48,6.48,0,0,1,2.63-.83,8,8,0,0,1,2.51.7c.56.17.71-.33.56-.58A3.77,3.77,0,0,0,44.69,27.46Z" transform="translate(0)"/><path class="cls-12" d="M47.1,36.87a3.42,3.42,0,0,0-2.89-.66c-1.18.14-2.69.78-1.42,2.32.69.82,5.47.85,4.64-1.14A1.93,1.93,0,0,0,47.1,36.87Z" transform="translate(0)"/><path class="cls-12" d="M29.28,37.2a3.58,3.58,0,0,0-3-.79c-1.25.11-2.85.73-1.56,2.38.69.88,5.7,1.08,4.9-1A2,2,0,0,0,29.28,37.2Z" transform="translate(0)"/><path class="cls-8" d="M40.07,7.58c-4.14,1.48-8.58,1.78-10.65,2.1-1.06.16-3,.57-3.44,1.75,1.25.23,2.58.2,3.86.37A49.35,49.35,0,0,0,40.57,12c1.11-.11,2.25-1.55,2.82-2.19-1.2-.05-2.93-.2-4.45-.28A8.47,8.47,0,0,0,40.07,7.58Z" transform="translate(0)"/><path class="cls-14" d="M46.16,16.2a14.75,14.75,0,0,0-9.8-5.53,23.18,23.18,0,0,0-9.73.75,11.5,11.5,0,0,0-4.46,2.79c-1.28,1.35-2.45,3.58-.83,5.15a49,49,0,0,0,6.23,4.56c-.16-.8-.05-1.67-.18-2.45A91.32,91.32,0,0,1,37,24.32,10,10,0,0,1,37.27,22a12.46,12.46,0,0,1,5.94,2.18c.07-1,.45-2,.53-3a12.12,12.12,0,0,1,6,1.71,26.9,26.9,0,0,0-2.36-5A17.22,17.22,0,0,0,46.16,16.2Z" transform="translate(0)"/><path class="cls-15" d="M26.24,40.62s2.31,8.51,9,9c4.26.3,5.58-1.93,7.16-4.62A34.16,34.16,0,0,1,45,40.34C42.2,42.73,34.45,45.11,26.24,40.62Z" transform="translate(0)"/><path class="cls-11" d="M43.49,40.55c-.23.18.29.06,1-.06s.46,1,.89.93.55-1,0-1.41S43.49,40.55,43.49,40.55Z" transform="translate(0)"/><path class="cls-11" d="M26.06,40.26c-.62.17-.94,1.24-.54,1.43s.61-.78,1.28-1,1.6.07,1.4-.14A5.26,5.26,0,0,0,26.06,40.26Z" transform="translate(0)"/><path class="cls-16" d="M27.58,41.83S29.66,48,35.7,48.27a6.74,6.74,0,0,0,5.94-3.65,13.54,13.54,0,0,1,2.3-3A15.21,15.21,0,0,1,27.58,41.83Z" transform="translate(0)"/><path class="cls-17" d="M27.58,41.83a10.17,10.17,0,0,0,3.68,3.44,12.28,12.28,0,0,0,8,.52c2-.47,4.66-4.15,4.66-4.15S36.87,46.22,27.58,41.83Z" transform="translate(0)"/><path class="cls-17" d="M36.47,45.85a13,13,0,0,1-5.53-1.16c-1.07-.46-1,.63-.76,1.16,0,0,1,1.94,5,2.38,3.76.43,5.58-2.4,5.09-3S39.24,45.89,36.47,45.85Z" transform="translate(0)"/><path class="cls-18" d="M27.58,41.83a7.67,7.67,0,0,0,1.59,1.94A30.24,30.24,0,0,0,42.5,43.4s1.33-1.26,1.44-1.76A17.91,17.91,0,0,1,27.58,41.83Z" transform="translate(0)"/><path class="cls-18" d="M30.18,44.68c5.86,3.5,9.66.8,9.66.8A16.63,16.63,0,0,1,30.18,44.68Z" transform="translate(0)"/><path class="cls-19" d="M46.19,19.71a3.36,3.36,0,0,0-1.48-1.26A35,35,0,0,0,32,15.79c-2.77,0-5.77-.21-8.35,1a12.05,12.05,0,0,0-5.8,5.32c-.44.9-3.45,6-1.37,6.39,1.09.22,2.53-1.05,3.38-1.61a35.22,35.22,0,0,1,2.91,2c1.38,1.1,2.67,2.31,4.49,1.56C35.77,27,42.85,28,44.81,27.92c.74,0,2.07.35,2.74.09,1.93-.73-.52-5.55-.82-6.72A4.13,4.13,0,0,0,46.19,19.71Z" transform="translate(0)"/><path class="cls-20" d="M28.73,6.43C16,8.6,14.56,20.77,13.93,25.34c-.46,3.31,3.78,1.37,6.58-.36a9.37,9.37,0,0,1,.92-.52c6.18-3.17,12.94-2.44,19.64-2.83a29.77,29.77,0,0,1,7.71.05C51.24,22.15,47.84,3.16,28.73,6.43Z" transform="translate(0)"/><path class="cls-21" d="M41.65,8.92A16,16,0,0,0,31.53,6.5c-4.28.25-8.42,1.85-10.2,3.5A20.42,20.42,0,0,0,22,20.78c.6,1.88,1.48.48,4.33-.55,8-2.93,13.61-2.39,20-1.09,1.08.22,2.37.64,2.24-.34a15,15,0,0,0-4.4-7.93A14.28,14.28,0,0,0,41.65,8.92Z" transform="translate(0)"/><path class="cls-22" d="M28.77,11.22c-2.92,1.31-1.54,6.24,1.57,5.53a23.52,23.52,0,0,1,8.77-.63c1.53.17,5.29,1.41,4.87-1.57C43.2,9.09,32.05,9.76,28.77,11.22Z" transform="translate(0)"/><path class="cls-6" d="M29.91,17.73l-.29.07a2.8,2.8,0,0,1-.57.08.23.23,0,0,0-.23.23.24.24,0,0,0,.21.23h0a2.71,2.71,0,0,0,.68-.09l.28-.07a.23.23,0,0,0,.17-.28A.24.24,0,0,0,29.91,17.73Z" transform="translate(0)"/><path class="cls-6" d="M28.4,9.72c-.33.12-.63.24-.88.36h0a.23.23,0,0,0-.09.31.21.21,0,0,0,.19.12.2.2,0,0,0,.13,0,7.48,7.48,0,0,1,.83-.34.23.23,0,0,0,.14-.29A.23.23,0,0,0,28.4,9.72Z" transform="translate(0)"/><path class="cls-6" d="M28.24,17.73a2.6,2.6,0,0,1-.73-.43.23.23,0,1,0-.29.36,3.1,3.1,0,0,0,.85.51h.06a.24.24,0,0,0,.24-.15A.23.23,0,0,0,28.24,17.73Z" transform="translate(0)"/><path class="cls-6" d="M30.21,9.25c-.32.06-.62.13-.91.21a.23.23,0,0,0-.17.28.23.23,0,0,0,.2.17h.08c.29-.08.58-.15.89-.21a.23.23,0,1,0-.09-.45Z" transform="translate(0)"/><path class="cls-6" d="M32.05,9l-.92.12a.24.24,0,0,0-.2.27.24.24,0,0,0,.21.2h.06l.9-.11A.24.24,0,0,0,32.05,9Z" transform="translate(0)"/><path class="cls-6" d="M31.7,17.3l-.9.21a.24.24,0,0,0-.17.28.23.23,0,0,0,.21.18h.07l.89-.2a.23.23,0,0,0,.18-.28A.24.24,0,0,0,31.7,17.3Z" transform="translate(0)"/><path class="cls-6" d="M33.53,17l-.91.15a.23.23,0,0,0-.19.27.23.23,0,0,0,.21.19h.06l.9-.15a.23.23,0,1,0-.07-.46Z" transform="translate(0)"/><path class="cls-6" d="M42.59,11.35a.17.17,0,0,0,.12.05.21.21,0,0,0,.2-.09.24.24,0,0,0,0-.33,7.71,7.71,0,0,0-.79-.52.23.23,0,0,0-.32.08.23.23,0,0,0,.09.32A7.9,7.9,0,0,1,42.59,11.35Z" transform="translate(0)"/><path class="cls-6" d="M25.76,13.54h0a.23.23,0,0,0,.25-.21.34.34,0,0,1,0-.1,4.76,4.76,0,0,1,.13-.77.22.22,0,0,0-.16-.28.24.24,0,0,0-.29.16,5.8,5.8,0,0,0-.15.85.41.41,0,0,1,0,.11A.23.23,0,0,0,25.76,13.54Z" transform="translate(0)"/><path class="cls-6" d="M26.68,10.66a3.37,3.37,0,0,0-.6.78.24.24,0,0,0,.09.32l.09,0a.24.24,0,0,0,.23-.11A2.69,2.69,0,0,1,27,11a.23.23,0,0,0,0-.33A.24.24,0,0,0,26.68,10.66Z" transform="translate(0)"/><path class="cls-6" d="M44.22,13.39a4.87,4.87,0,0,1,.28.84.23.23,0,0,0,.2.18h.08a.23.23,0,0,0,.17-.28,4.85,4.85,0,0,0-.3-.91.23.23,0,0,0-.43.18Z" transform="translate(0)"/><path class="cls-6" d="M26.19,15.08a6.64,6.64,0,0,1-.16-.87.23.23,0,0,0-.25-.21.24.24,0,0,0-.21.26,6.19,6.19,0,0,0,.17.94.23.23,0,0,0,.21.17H26A.23.23,0,0,0,26.19,15.08Z" transform="translate(0)"/><path class="cls-6" d="M26.49,15.91a.23.23,0,1,0-.42.19,4.85,4.85,0,0,0,.48.84.23.23,0,0,0,.33,0,.23.23,0,0,0,.05-.32A4.71,4.71,0,0,1,26.49,15.91Z" transform="translate(0)"/><path class="cls-6" d="M40.94,17.12l-.45-.07L40,17a.23.23,0,0,0-.06.46l.44.07.47.07h0a.23.23,0,0,0,.25-.19A.24.24,0,0,0,40.94,17.12Z" transform="translate(0)"/><path class="cls-6" d="M40.36,9.68a.23.23,0,0,0-.3.14.25.25,0,0,0,.15.3q.43.15.84.33l.07,0a.23.23,0,0,0,.23-.14.23.23,0,0,0-.11-.31C41,9.9,40.67,9.78,40.36,9.68Z" transform="translate(0)"/><path class="cls-6" d="M44,12.73a.29.29,0,0,0,.16,0,.24.24,0,0,0,.06-.32,4.88,4.88,0,0,0-.61-.75.23.23,0,1,0-.33.32,5.94,5.94,0,0,1,.55.69A.25.25,0,0,0,44,12.73Z" transform="translate(0)"/><path class="cls-6" d="M42.73,17.25a5.33,5.33,0,0,1-.88,0,.24.24,0,0,0-.26.21.25.25,0,0,0,.21.26h0a7.76,7.76,0,0,0,.95,0,.24.24,0,0,0,.22-.25A.23.23,0,0,0,42.73,17.25Z" transform="translate(0)"/><path class="cls-6" d="M44.85,14.85a.24.24,0,0,0-.22.25,3.3,3.3,0,0,1,0,.55,1.36,1.36,0,0,1,0,.3.23.23,0,0,0,.18.28h0a.23.23,0,0,0,.24-.19,1.93,1.93,0,0,0,.06-.36,3.21,3.21,0,0,0,0-.62A.23.23,0,0,0,44.85,14.85Z" transform="translate(0)"/><path class="cls-6" d="M44.24,16.67a1.55,1.55,0,0,1-.66.43.23.23,0,0,0-.15.3.21.21,0,0,0,.2.15.17.17,0,0,0,.1,0,2,2,0,0,0,.86-.56.23.23,0,0,0-.35-.31Z" transform="translate(0)"/><path class="cls-6" d="M35.77,8.85l-.93,0a.23.23,0,0,0-.23.23.23.23,0,0,0,.21.24h0c.3,0,.61,0,.91,0A.23.23,0,0,0,36,9.09.23.23,0,0,0,35.77,8.85Z" transform="translate(0)"/><path class="cls-6" d="M37.25,16.75h-.93a.24.24,0,0,0-.23.24.23.23,0,0,0,.21.23h.94a.24.24,0,0,0,.24-.23A.23.23,0,0,0,37.25,16.75Z" transform="translate(0)"/><path class="cls-6" d="M33.91,8.83,33,8.88a.23.23,0,0,0,0,.46h0l.91,0a.24.24,0,1,0,0-.47Z" transform="translate(0)"/><path class="cls-6" d="M35.39,16.78c-.31,0-.62,0-.93.07a.24.24,0,0,0-.21.26.22.22,0,0,0,.21.2h0l.9-.07a.23.23,0,0,0,.22-.24A.22.22,0,0,0,35.39,16.78Z" transform="translate(0)"/><path class="cls-6" d="M39.11,16.87l-.93-.08a.24.24,0,0,0-.25.22.23.23,0,0,0,.21.25h0l.91.07h0a.23.23,0,1,0,0-.46Z" transform="translate(0)"/><path class="cls-6" d="M37.63,9l-.93-.11h0a.23.23,0,0,0,0,.46l.9.11h0A.23.23,0,0,0,37.63,9Z" transform="translate(0)"/><path class="cls-6" d="M39.46,9.4c-.29-.08-.6-.15-.91-.21a.22.22,0,0,0-.27.18.23.23,0,0,0,.18.28c.3.06.6.12.88.2h0a.23.23,0,0,0,.08-.46Z" transform="translate(0)"/><path class="cls-20" d="M49.42,21C47,18.09,27.66,17.39,19.57,25.18c3.18,2.45,3.27,5,7.75,3.68,3.57-1,7.09-2.24,10.81-2.38,6.77-.26,13.1.59,16.16,3.44,2.74.82.87-1.55.2-2.46C52.64,25,51.17,23.08,49.42,21Z" transform="translate(0)"/><path class="cls-23" d="M49.16,21.05c-2.34-2.82-21-4.12-28.88,3.5,4,3.06,3.48,4,9.1,2.37,6.18-1.81,19.52-3.07,24.53,1.59,1.79,1.42,1.57.42.2-1.12C52.09,25.12,50.88,23.11,49.16,21.05Z" transform="translate(0)"/><path class="cls-21" d="M18.23,24c-1.21.9-2.35,1.23-3.2.86s-.62.3-.67.88.9,1.15,3.18.17a14.13,14.13,0,0,0,4.32-3.46,7.64,7.64,0,0,1-.55-1.7A25,25,0,0,1,18.23,24Z" transform="translate(0)"/><path class="cls-22" d="M35.1,25.53c-4.79.58-7.87,2.24-10.14,1.81a10.63,10.63,0,0,1-4-2.24S22.44,27.67,24.9,28s3.72-1.1,10.31-2.12a44.85,44.85,0,0,1,12.1-.2A45.48,45.48,0,0,0,35.1,25.53Z" transform="translate(0)"/><path class="cls-24" d="M30.29,25.13c-4.38.94-6,1.06-8.21-.91,0,0,1.08,2.31,3.05,2.38,2.75.11,5-1.43,13-2.11A29.06,29.06,0,0,0,30.29,25.13Z" transform="translate(0)"/><path class="cls-24" d="M43.38,24.4s6.72.45,9.62,2.49l-.56-.81A21.9,21.9,0,0,0,43.38,24.4Z" transform="translate(0)"/></g></g></g></svg>