<svg xmlns="http://www.w3.org/2000/svg" xmlns:xlink="http://www.w3.org/1999/xlink" viewBox="0 0 96 96"><defs><style>.cls-1{fill:none;}.cls-2{clip-path:url(#clip-path);}.cls-3{fill:#f6cb7d;}.cls-4{fill:#3a3a4a;}.cls-5{fill:#66667d;}.cls-6{fill:#8f4721;}.cls-7{fill:#313142;}.cls-8{fill:#85b428;}.cls-9{fill:#918fa0;}.cls-10{fill:#854825;}.cls-11{fill:#4f3023;}.cls-12{fill:#9c552c;}.cls-13,.cls-20{fill:#66241b;}.cls-13,.cls-14{opacity:0.4;}.cls-14{fill:#661004;}.cls-15{fill:#261b18;}.cls-16{fill:#45362e;}.cls-17{fill:#5e4684;}.cls-18{fill:#765aa3;}.cls-19{fill:#d17642;}.cls-20,.cls-21{opacity:0.7;}.cls-21{fill:#f0ded1;}.cls-22{fill:#d47b48;}.cls-23{fill:#78231f;}.cls-24{fill:#fff7eb;}.cls-25{fill:#e8dac5;}</style><clipPath id="clip-path"><circle class="cls-1" cx="48" cy="48" r="48"/></clipPath></defs><g id="Layer_2" data-name="Layer 2"><g id="Layer_4" data-name="Layer 4"><g class="cls-2"><rect class="cls-3" width="96" height="96"/><path class="cls-4" d="M59.11,75.26c-5.42-1.89-15.76-2.61-22.17.26C33.4,77.1,33.85,87,34.14,96H62.08C62.29,86.91,62.53,76.45,59.11,75.26Z"/><polygon class="cls-5" points="45.86 84.91 50.64 85.08 50.13 94.91 46.06 94.97 45.86 84.91"/><path class="cls-5" d="M48.14,85.52l4.35,3.42s8.6-5.59,5.34-13.6c-2.93-7.2-17.53-6.62-20,1.35-2.15,6.88,5.67,12.47,5.67,12.47Z"/><path class="cls-6" d="M38.54,74.19c.29-5.92,5.61-8.28,9.41-8.34s9.17,2.08,9.64,8c.22,2.76-.16,4.36-1.54,5.91-2.2,2.48-7.21,4.8-7.82,4.91a22.18,22.18,0,0,1-8-4.62C38.83,78.53,38.4,76.94,38.54,74.19Z"/><path class="cls-7" d="M67.18,79.14c-.65-1.47-7.43-3.66-7.43-3.66C55.62,81.81,53.9,89.3,53.31,96H64C65.3,85.91,67.73,80.41,67.18,79.14Z"/><path class="cls-7" d="M65.49,77.22l-3.88,6.42c1.2,1.32,1.71,7.11,2,12.36h9.64C72.51,85.85,69.53,79.46,65.49,77.22Z"/><path class="cls-8" d="M58.25,70.91c13.27.74,6.78,18.24.29,12.34a15.05,15.05,0,0,0-4.22,5.87Z"/><path class="cls-7" d="M29.32,79.14c.64-1.47,7.42-3.66,7.42-3.66C40.88,81.81,42.6,89.3,43.19,96H32.53C31.2,85.91,28.76,80.41,29.32,79.14Z"/><path class="cls-7" d="M31,77.22l3.89,6.42c-1.21,1.32-1.71,7.11-2,12.36H23.25C24,85.85,27,79.46,31,77.22Z"/><path class="cls-8" d="M38.24,70.91C25,71.65,31.46,89.15,38,83.25a15,15,0,0,1,4.23,5.87C40.41,80.92,38.24,70.91,38.24,70.91Z"/><path class="cls-9" d="M49,87.66a.84.84,0,0,1-1.68,0,.84.84,0,0,1,1.68,0Z"/><path class="cls-9" d="M49,92.35a.84.84,0,1,1-.84-.84A.84.84,0,0,1,49,92.35Z"/><path class="cls-10" d="M68.48,60.32a7.21,7.21,0,0,1-3.81.35,1,1,0,0,0-.07-.15c-.54-1.18.32-7.59.63-8.79.76-3,2.18-4.56,4.43-3.65C74.33,50,72.33,58.73,68.48,60.32Z"/><path class="cls-11" d="M68.27,25.49c-1.37-2.54-4.75-6.71-7.22-8.28-9.2-5.84-20.89-4.16-30.34,1.2-3.21,1.82-9,5.44-9.3,9.66s4,8.44,8.11,7.39A8.08,8.08,0,0,1,35,36c2.15.82,4.13,2.06,6.35,2.69,3.79,1.09,7.87.63,11.61,1.9A16.11,16.11,0,0,0,63.52,41c2.38-.71,4.72-.91,5.89-3.17,1-1.85.82-5.16.57-7.16A14.94,14.94,0,0,0,68.27,25.49Z"/><path class="cls-12" d="M43.7,20.86c16.22-3.16,23.62,9.88,25.57,25.52C71.07,60.76,64.16,78,50.3,79c-13.6,1-22.62-11.87-24.21-23.57C24,39.77,32.12,23.11,43.7,20.86Z"/><path class="cls-13" d="M34.91,34c-1.63.84-5.95,2.92-8.16-.56-1.05-1.63-.28-4.11.38-6,.79-2.29,3.4-3.57,5.53-4.5,3.86-1.7,8.37-1.48,12.52-1.41A53.13,53.13,0,0,1,59,23.7c3,.86,8.51,1.62,9.53,5,1.3,4.22-3.22,4.77-6.35,4.78C54.62,33.45,38.47,32.19,34.91,34Z"/><path class="cls-12" d="M23.26,62.21c1.19.93,3.72,2.51,5.29.77s-.85-9.34-1.2-10.48c-.87-2.87-2.57-4.38-5.3-3.62C16.36,50.44,19.38,59.17,23.26,62.21Z"/><path class="cls-14" d="M25.49,58.36c2.07-1.31.11-5.71-1.44-6.43-1.28-.59-4.47.48-3,3,.79-2.31,2.2-.79,2,.85-.15,1.11-1.34,1.12-.16,2.54C23.55,59.05,24.84,58.77,25.49,58.36Z"/><path class="cls-15" d="M60.51,18.57a23.2,23.2,0,0,0-7.93-4.11c-6.6-1.82-17.14,1.31-22.22,5.43-4,3.24-5.57,8.27-5.34,13.07.16,3.29,4.76,3.8,6.7,1.44,1.65-2,4-2.54,6.63-2.63,4.4-.16,21.59-.94,25.64.39,7.69,2.53,4.83-4.22,2-8A30,30,0,0,0,60.51,18.57Z"/><path class="cls-16" d="M30.7,35.24c-1.31,7.29-2.34,10.83-1.39,17.42,0,0-3.35-3.65-6.06-4-.38-1-1-12.3.58-14.83C26.36,34.43,28.14,35.21,30.7,35.24Z"/><path class="cls-17" d="M69.5,48.91s1.43,1,1.84-.61S76,21.1,56.64,13.63C40.35,7.36,24.48,17.22,20.58,27c-3.31,8.28.73,10.45.73,10.45s-1.39,1.91-.27,5.64c.73,2.45.25,3.82-.12,5.67-.33,1.64,2.36-.62,5.5,1.4C27.23,37,34.72,26.31,53.33,27.3,69.2,28.15,68.32,43.06,69.5,48.91Z"/><path class="cls-18" d="M26.09,34.77a11.22,11.22,0,0,1,2.49-5.63,20.19,20.19,0,0,1,11.09-7.3,24.67,24.67,0,0,1,4.09-.72c-2.23-1-6-.57-8.11.52s-4,2.75-6.34,3.15c-3.21.56-3.51-1.95-1.53-4.06a23.44,23.44,0,0,1,15.92-7.3,29,29,0,0,1,12.49,1.76,10.92,10.92,0,0,1,4.08,2.6c2,2.35-1,2.32-3,2.22-1.72-.08-3.06-.44-4.67.38.53-.27,3.5.66,4.27.74a27.05,27.05,0,0,1,4.58.67,9.42,9.42,0,0,1,5.55,4.07c1.12,1.65,2.62,3.8,2.19,5.92-3.15.15-1.68-5.12-3.44-6.22-.57.75-.15,3.06-1.84,2.57-1.13-.33-1.16-4.63-2.49-3.26-.61.62.13,1.59-.32,2.14-.65.8-1.69-.05-2.09-.66s-.94-3.26-2-3.22-.29,2.13-.87,2.7c-1.5,1.45-3-2-3.54-2.73-1.3-1.8-1.46,1.18-1.83,2.26-1.23-.07-2.12-2.84-3.27-2.57s.16,3.06-1.13,3c-.84,0-1.42-2-2.43-2s-.72.83-.92,1.6c-.74,2.89-1.73-.11-3.35-.55-.15.55.47,2.5-.16,2.79-.79.38-1.87-1.31-2.54-1.58-.26.77.18,2.4-.81,2.77s-2-1.91-2.92-1.44c-.76.38.48,2.62-.34,3s-1.62-1.22-2.18-1.56c-.29,1.67,1.16,4.83-1.49,3.05-.25,1.36.54,3.41-1.31,2.92,0,.64.07,3.07-.77,3.42C25.59,38.9,26,35.47,26.09,34.77Z"/><path class="cls-19" d="M68.09,52.91a2.48,2.48,0,0,1,.38.84c.8,3.13-6.29,2.06-7.12.7-1.57-2.56.8-3.18,2.59-3.14C65.3,51.33,67.21,51.61,68.09,52.91Z"/><path class="cls-19" d="M38.71,52.4a2.58,2.58,0,0,1,.61.76c1.63,3-5.86,3.72-7.06,2.56-2.26-2.2,0-3.44,1.81-3.87C35.47,51.52,37.48,51.31,38.71,52.4Z"/><path class="cls-15" d="M37.59,50.75a4.21,4.21,0,0,0-2.9-.25c-2-1.69-.16-6.89,2.77-5.63C39.64,45.81,39.56,49.74,37.59,50.75Z"/><path class="cls-20" d="M55,54.1c-.73-.89-1.76.1-3.66.12-1.71,0-2.38-.76-3.58,0s.51,3,3.54,2.89S55.67,54.88,55,54.1Z"/><path class="cls-19" d="M50.94,47.79c-3.22-.28-3.46,6.52-2.73,7.1,1.81,1.42,5.57.42,6.67-.73C55.31,53.71,54,48.06,50.94,47.79Z"/><path class="cls-15" d="M65.67,44.67c1.59,1,1.58,4.26.39,5.58a3.85,3.85,0,0,0-3.1,0C60.5,48.63,62.69,42.89,65.67,44.67Z"/><path class="cls-21" d="M36.05,46.14c1.06-.35,1.72,1.27.88,1.88C35.77,48.86,34.86,46.55,36.05,46.14Z"/><path class="cls-21" d="M64.14,45.67c1-.21,1.45,1.41.59,1.89C63.52,48.21,63,45.9,64.14,45.67Z"/><path class="cls-15" d="M60.26,38.75c-1,0-1.61.82-1.27,2.18.27,1.08,2.43.75,5.22,1.07,3,.36,4.59,1,4.89.3s-1-2.1-3.62-2.9A15.9,15.9,0,0,0,60.26,38.75Z"/><path class="cls-15" d="M40.7,38.86c1.09,0,1.81.84,1.4,2.2-.32,1.07-2.75.71-5.92,1-3.43.3-4.45.68-4.79,0s.42-1.87,3.4-2.62A20.26,20.26,0,0,1,40.7,38.86Z"/><path class="cls-22" d="M63.2,57.52c-1.69-1.17-3.73.16-13.3.71a112.18,112.18,0,0,1-13.43.06c1.44,9.8,4.54,17.49,13.75,17.05,7.39-.36,8.63-3.8,10.14-11.67a8.48,8.48,0,0,1,3.39-5.6A2.6,2.6,0,0,0,63.2,57.52Z"/><path class="cls-23" d="M37.74,59.24s10.64,3.7,25.32-1.45a8.51,8.51,0,0,0-3.16,5.35C59.31,66,58,70.07,49.58,70.55,40.22,71.09,37.74,59.24,37.74,59.24Z"/><path class="cls-24" d="M40.21,60A3.66,3.66,0,0,0,43,63.41a25.4,25.4,0,0,0,12,.17c2.86-.6,4.4-4.38,4.4-4.38A64.91,64.91,0,0,1,40.21,60Z"/><path class="cls-24" d="M43.27,68.15c-.23-.57-.2-1.23,1-.81a22.63,22.63,0,0,0,7.53.64c3.24-.17,4-1.4,4.58-.8s-1.72,3.69-6.87,3.53C43.65,70.51,43.27,68.15,43.27,68.15Z"/><path class="cls-25" d="M40.62,61.53S55.15,60.14,58.47,61a12.9,12.9,0,0,0,1-1.76s-7.69,1.86-19.24.79A3.08,3.08,0,0,0,40.62,61.53Z"/><path class="cls-25" d="M44.84,67.84a24,24,0,0,0,10.72-.25S49.91,69.92,44.84,67.84Z"/></g></g></g></svg>