<svg xmlns="http://www.w3.org/2000/svg" xmlns:xlink="http://www.w3.org/1999/xlink" viewBox="0 0 66 66"><defs><style>.cls-1{fill:none;}.cls-2{clip-path:url(#clip-path);}.cls-3{fill:#5f5d7f;}.cls-4{fill:#ffcb9e;}.cls-5{fill:#765aa3;}.cls-6{fill:#2b221c;}.cls-7{fill:#bf3c1b;}.cls-13,.cls-7,.cls-8{opacity:0.3;}.cls-8{fill:#c94614;}.cls-17,.cls-9{fill:#45362e;}.cls-10{fill:#bf795c;}.cls-11{fill:#ffa073;}.cls-12{fill:#261b18;}.cls-13{fill:#b54d26;}.cls-14{fill:#ffdfc2;}.cls-15{fill:#e6d2c3;opacity:0.7;}.cls-16{fill:#f5b37a;}.cls-17{opacity:0.5;}</style><clipPath id="clip-path" transform="translate(0.01)"><circle class="cls-1" cx="33" cy="33" r="33"/></clipPath></defs><g id="Layer_2" data-name="Layer 2"><g id="avatars"><g class="cls-2"><rect class="cls-3" width="66" height="66"/><path class="cls-4" d="M27.06,59,25,55.45c-3.45,1.28-4.23,4.18-5.06,7.26a33.39,33.39,0,0,1-1,3.29H24c.27-.83.49-1.64.7-2.41C25.36,61.05,25.84,59.47,27.06,59Z" transform="translate(0.01)"/><path class="cls-4" d="M41.32,55.45,39.21,59c1.21.45,1.69,2,2.38,4.57.21.77.43,1.58.7,2.41h5.12a33.39,33.39,0,0,1-1-3.29C45.55,59.63,44.76,56.73,41.32,55.45Z" transform="translate(0.01)"/><path class="cls-4" d="M33.55,52.85c-5.65-.07-9.38,1.71-9.4,2.26-.21,5.93,1.78,7.18,3.65,8.5,1.31.92,9.51.86,10.82,0,2.09-1.34,4-2.66,3.79-8.36C42.39,54.76,39,52.92,33.55,52.85Z" transform="translate(0.01)"/><path class="cls-5" d="M41.22,62c-.61-1.52-.35-3.08-.06-7.75a5.38,5.38,0,0,0-1.36-.6c.23,8-1.68,9.5-6.63,9.5-4.38,0-6.64-1-6.36-9.69a4.89,4.89,0,0,0-1.63.64c.28,3.94.58,6.27-.09,7.82,0,1.35.1,2.75.17,4.1H41.05C41.12,64.67,41.18,63.3,41.22,62Z" transform="translate(0.01)"/><path class="cls-6" d="M45.16,11.73c-5.09-5.57-13.53-6.17-23.07-2A17.83,17.83,0,0,0,27,9.48c-5,2.31-10.93,5.35-12.23,11.25-3.2,14.6,8.84,7.87,12.93,9,4.63,1.33,16.18-.17,19.4-5,1.46-2.17,1.54-5.42.71-8.3A12.4,12.4,0,0,0,45.16,11.73Z" transform="translate(0.01)"/><path class="cls-4" d="M30,14.92c-7.83,1.53-13.35,12.8-11.92,23.37,1.08,7.91,7.19,16.6,16.39,16,9.38-.67,14.05-12.31,12.84-22.05C46,21.61,41,12.78,30,14.92Z" transform="translate(0.01)"/><path class="cls-7" d="M40.33,16.85A35.44,35.44,0,0,0,31,15.42c-2.8,0-5.85-.2-8.47,1-1.44.63-3.21,1.5-3.74,3.05-.45,1.26-1,2.94-.26,4,1.5,2.35,4.42.94,5.53.37,2.4-1.25,13.33-.4,18.43-.4,2.12,0,5.18-.38,4.3-3.24C46.1,17.94,42.33,17.43,40.33,16.85Z" transform="translate(0.01)"/><path class="cls-4" d="M15.35,33.88c-3.85,1.06-2.3,6.68.84,7.81A7.67,7.67,0,0,0,19.3,42l.06-.1c.46-.73-.18-4.82-.42-5.59C18.35,34.39,17.2,33.38,15.35,33.88Z" transform="translate(0.01)"/><path class="cls-8" d="M16.7,36c-.86-.4-3,.32-2,2,.54-1.56,1.49-.54,1.35.58-.1.74-.9.75-.11,1.71a1.43,1.43,0,0,0,1.75,0C19.08,39.42,17.76,36.44,16.7,36Z" transform="translate(0.01)"/><path class="cls-6" d="M42.32,11.9c-5.92-3.1-15-2.29-20,1.4-3.38,2.51-5.17,5.52-5,9.74.11,2.31,3.22,2.67,4.53,1,1.12-1.42,2.7-1.78,4.49-1.85,3-.11,14.62-.66,17.36.28,1.49.51,3.49,1.29,3.79-1.1a8.91,8.91,0,0,0-2.16-7.21A11.72,11.72,0,0,0,42.32,11.9Z" transform="translate(0.01)"/><path class="cls-9" d="M43.67,12.9a14.77,14.77,0,0,0-8.39-4.05A16.29,16.29,0,0,0,29,9.43a22.3,22.3,0,0,1,2.24.91,33.81,33.81,0,0,0-6.34,2.07c-.64.29-5.81,3.8-5.81,3.8,1.44.79,3.14.49,4.69.15a15.77,15.77,0,0,1,7.1-.19c2.22.5,4.21,1.6,6.41,2.12.06-1-.89-1.86-1.31-2.54,1.26,0,6.08,3,7.07,3.84-.24-.85-1.41-2.63-1.54-3.54,1.23.19,4,2.67,4.86,4.11a10.64,10.64,0,0,0-.33-3.6A8.54,8.54,0,0,0,43.67,12.9Z" transform="translate(0.01)"/><path class="cls-10" d="M15.88,27.69a31.43,31.43,0,0,0,.28,6.07c1.84.21,4.1,2.69,4.1,2.69-.64-4.46.06-6.86.94-11.79C19.48,24.63,16,25.3,15.88,27.69Z" transform="translate(0.01)"/><path class="cls-11" d="M45.85,36.8A3.53,3.53,0,0,0,43,35.7c-1.23,0-2.87.4-1.78,2.17.57.94,5.46,1.67,4.91-.48A1.78,1.78,0,0,0,45.85,36.8Z" transform="translate(0.01)"/><path class="cls-11" d="M27.52,36.56a3.69,3.69,0,0,0-3.2-.37c-1.26.29-2.81,1.15-1.25,2.66.83.81,6,.29,4.86-1.76A1.83,1.83,0,0,0,27.52,36.56Z" transform="translate(0.01)"/><path class="cls-12" d="M25.64,31.38c-2-.87-3.29,2.71-1.91,3.88a2.88,2.88,0,0,1,2,.17C27.08,34.73,27.14,32,25.64,31.38Z" transform="translate(0.01)"/><path class="cls-13" d="M35.24,37.82c-1.18,0-1.65-.52-2.48,0s.36,2.06,2.45,2,3-1.51,2.55-2S36.55,37.81,35.24,37.82Z" transform="translate(0.01)"/><path class="cls-14" d="M34.93,33.39c-2.22-.2-2.39,4.49-1.88,4.89,1.24,1,3.84.29,4.6-.5C38,37.47,37,33.57,34.93,33.39Z" transform="translate(0.01)"/><path class="cls-12" d="M45.08,31.24C43,30,41.52,34,43.21,35.09a2.62,2.62,0,0,1,2.14,0C46.17,34.17,46.19,31.9,45.08,31.24Z" transform="translate(0.01)"/><path class="cls-15" d="M24.67,32.25c-.82.28-.2,1.88.6,1.3C25.85,33.13,25.4,32,24.67,32.25Z" transform="translate(0.01)"/><path class="cls-15" d="M44,31.92c-.81.17-.42,1.76.4,1.31C45,32.9,44.75,31.78,44,31.92Z" transform="translate(0.01)"/><path class="cls-6" d="M27.53,27a10.09,10.09,0,0,0-4.15.25c-2.15.59-2.24,1.67-2.1,2.36s.9.37,3.31.25c2.21-.11,3.85.37,4.2-.67A1.59,1.59,0,0,0,27.53,27Z" transform="translate(0.01)"/><path class="cls-6" d="M45.89,27.08a10.18,10.18,0,0,0-4.15,0,1.58,1.58,0,0,0-1.14,2.26c.41,1,2,.44,4.23.42,2.42,0,3.18.26,3.29-.43S48.07,27.55,45.89,27.08Z" transform="translate(0.01)"/><path class="cls-6" d="M48.17,43.23c-.07-.86.56-1.87.74-2.76.44-2.19.53-6.21-1.53-7.61.42,4.1-.86,7.21-1.66,8-1.67,1.59-3.69-.57-4.48-1.12-2.13-1.5-3.35-.83-5.89-.53C32,39.25,30.3,38.3,28,41.34c-1.79,2.35-6.22,1.36-7.18-4.72-.15-1,.06-3.12-1.46-2.64-1.72.54-.33,9.16-.33,10.84,0,1.36.16,4.34,1.81,4.7-.46,1.66-.21,4.38,2.2,3.71-.13,1.33-.21,2.87,1,3.67a3.37,3.37,0,0,0,3.73-.26,4.33,4.33,0,0,0,2.8,2.5c1.09.23,3.15.09,3.44-1.25,1.1,1.32,7.17,2.55,7-.3,2.22,1.72,4.88,0,4.14-2.64,2.33.22,2.93-1,2.71-3.07,2-.48,2-2.81,1.73-4.47C49.35,46,48.27,44.59,48.17,43.23Z" transform="translate(0.01)"/><path class="cls-16" d="M38.57,42.66c-.44,1.11-2.4.41-3.14-.06-.73.8-2.8,1-3.57.25-.14.62-2.16,1.17-2.26,2,1.76,2.94,10.82,1.86,11.79-.31C41.2,43.67,39.21,43.3,38.57,42.66Z" transform="translate(0.01)"/><path class="cls-10" d="M32,44.14s4.08.55,6.44-.25C37.43,43.34,32.88,43.72,32,44.14Z" transform="translate(0.01)"/><path class="cls-17" d="M37.64,47.72a21.37,21.37,0,0,1-7.86-.7c-1.45-.36-2.06-.74-3.25.26a10.48,10.48,0,0,0-2,2.28c-.73,1.16-.57,5.62,1,3.53.2,2.42,2.29,1.82,3.53.49.35,1.22.2,2.12,1.75,2.35a2.71,2.71,0,0,0,2.64-1.17c1,.43,2.08,2.27,3.32,1.72.88-.39.39-1.82.94-2.06.89-.38,2.45,1.92,3.52.78.66-.7-.28-1.84-.61-2.49.89.47,3.3,1.25,4,.08.37-.61-.18-1.84-.38-2.46.19.61,1.71.11,1.87-.37.25-.7-.72-1.73-1.11-2.19C42.81,45.13,40.52,47.23,37.64,47.72Z" transform="translate(0.01)"/></g></g></g></svg>