<svg xmlns="http://www.w3.org/2000/svg" xmlns:xlink="http://www.w3.org/1999/xlink" viewBox="0 0 96 96"><defs><style>.cls-1{fill:none;}.cls-2{clip-path:url(#clip-path);}.cls-3{fill:#fff;}.cls-4{fill:#261b18;}.cls-5{fill:#85b428;}.cls-6{fill:#588a17;}.cls-7{fill:#23232d;}.cls-8{opacity:0.15;}.cls-9{fill:#d9c9b2;}.cls-10{fill:#bdaf9b;}.cls-11{fill:#f2e4ce;}.cls-12{fill:#9c552c;}.cls-13,.cls-19{fill:#66241b;}.cls-13,.cls-14{opacity:0.4;}.cls-14{fill:#661004;}.cls-15{fill:#573d2f;}.cls-16{fill:#bf6c3c;}.cls-17{fill:#161110;}.cls-18{fill:#f0ded1;}.cls-18,.cls-19{opacity:0.7;}.cls-20{fill:#611f16;}</style><clipPath id="clip-path"><circle class="cls-1" cx="48" cy="48" r="48"/></clipPath></defs><g id="Layer_2" data-name="Layer 2"><g id="Layer_4" data-name="Layer 4"><g class="cls-2"><rect class="cls-3" width="96" height="96"/><path class="cls-4" d="M23.42,26.85c-3.9,10.2-4.26,18.08-6.92,34.21-.68,4.08-3.26,10.36-2.15,12.84,1.55,3.49,5.52,1.49,8.78,2.55,3.52,1.15,7.43,2.8,8.27-2.17a7.57,7.57,0,0,1,.37,3c2.74.07,12.12-2.9,18.45-2.64,5.63.23,17.3,5.34,19.68-1.13,1.77-4.83,3.52-26.2,2.77-33.19,0-.43,1.67-1,1.73-1.38.17-1.25.27-2.13.29-2.48C76.23,8.68,33.14,1.44,23.42,26.85Z"/><path class="cls-5" d="M30.72,87.18C30,91.42,29.41,96,29.41,96h13.1L38.56,77.3C34.11,78.46,31.86,80.32,30.72,87.18Z"/><path class="cls-5" d="M68.31,87.18C69,91.42,69.62,96,69.62,96H56.52l3.94-18.7C64.92,78.46,67.16,80.32,68.31,87.18Z"/><path class="cls-5" d="M56.29,80.39c-4.63-2.64-12.4-2-16.3,1.23-3,2.46.27,10.71-.19,12.79A13.18,13.18,0,0,1,39.29,96H58.66c-.27-.56-.47-1-.58-1.27C57.45,93.2,60.4,82.74,56.29,80.39Z"/><path class="cls-6" d="M46,87.38a1.21,1.21,0,1,0,1.66.42A1.2,1.2,0,0,0,46,87.38Z"/><path class="cls-6" d="M51.8,87.33a1.2,1.2,0,1,0,1.65.42A1.21,1.21,0,0,0,51.8,87.33Z"/><path class="cls-6" d="M51.91,91.8a1.21,1.21,0,1,0,1.66.42A1.21,1.21,0,0,0,51.91,91.8Z"/><path class="cls-6" d="M46.09,91.81a1.21,1.21,0,0,0-.42,1.66,1.21,1.21,0,0,0,2.07-1.24A1.21,1.21,0,0,0,46.09,91.81Z"/><path class="cls-7" d="M42.05,79.17c-1.76,4.55,5,6.77,7.05,3C50.74,85.7,57.7,83.8,56,79S44.1,73.89,42.05,79.17Z"/><path class="cls-8" d="M38.2,82.35c3,4.36,10.67,5.15,14.35,4,2.81-.88,6.75-3.12,7.81-7.68C63.18,66.49,29.75,70,38.2,82.35Z"/><path class="cls-9" d="M38.15,81.12c3.06,4.22,10.93,4.95,14.71,3.83,2.89-.86,7-3,8-7.46C63.84,65.69,29.52,69.21,38.15,81.12Z"/><path class="cls-10" d="M40.77,76.07c2.09,2.27,7.55,3.41,11.17,2.32,2.06-.62,5.45-1.41,6.35-3.76C60.71,68.35,34.86,69.64,40.77,76.07Z"/><path class="cls-8" d="M54.9,76.12a12.81,12.81,0,0,0-6.78,1.59C51,79.07,52.5,86,52.83,91.29c.09,1.44.14,3.08.22,4.71H63.69c-.23-6.09-2-13.86-3.56-16.72A6,6,0,0,0,54.9,76.12Z"/><path class="cls-11" d="M49.06,81.18c-.39-.41-2.23-.06-2.76-.1a13.75,13.75,0,0,1-2.79-.53,19.49,19.49,0,0,1-4.09-2.42l-1.51-1.46a14.46,14.46,0,0,1,.35,1.68c.36,1.39.44,2.14,1.51,3.18a9.32,9.32,0,0,0,7,2.71c.46,0,2.28,0,2.3-.71s-1.37-.8-1.78-.67C47.8,82.7,50,82.16,49.06,81.18Z"/><path class="cls-12" d="M28.48,55.4c1.3,10.95,11.23,21.86,21.86,22,11.24.19,20.37-16.79,19-29.8C67.74,32.87,61,20.46,45.65,23.17,34.7,25.1,26.74,40.65,28.48,55.4Z"/><path class="cls-13" d="M47.18,40A3.3,3.3,0,0,1,46,39c-.35.92-.51,1.55-1.39,2-2,1-5.57,0-7.69-.11-2.38-.15-4.65.61-5.11-2.15,0,2.42,1,5.21-1.17,7.22-2.91-2.44-6.7-6.17-6.11-10,.88-5.62,3.34-9.26,9-11.57,3.76-1.54,9.1-1.19,13.08-1a51.48,51.48,0,0,1,18.15,4.2c4.6,1.92,10.41,12.81,2,12.95-1.93,0-5.47.37-5.82-2-.3,1.1-.89,1.38-1.87,1.7-2.26.73-4.71.44-7,.31C50.47,40.5,48.6,40.69,47.18,40Z"/><path class="cls-12" d="M25.76,60.09a10.64,10.64,0,0,0,4.32.55l.09-.13c.66-1-.14-6.72-.45-7.81C29,50,27.37,48.54,24.79,49.21,19.4,50.58,21.41,58.44,25.76,60.09Z"/><path class="cls-14" d="M26.61,52.12c-1.19-.58-4.21.37-2.84,2.75.78-2.17,2.08-.72,1.85.83-.15,1-1.26,1-.18,2.38.59.74,1.81.49,2.43.12C29.84,57,28.07,52.82,26.61,52.12Z"/><path class="cls-4" d="M69.83,31.22c-1.65-4.2-5.14-8-8.27-10.8-6-5.22-13.81-5.31-21.25-4.16-2.85.44-6.91,1.09-9.48,2.46-2.24,1.2-3.17,4.1-4.23,6.29-1.89,3.91-2.55,8.67-3,13-.23,2.3.64,4.68.83,7s1.16,4.21,1.55,6.43a20,20,0,0,1-.82,10.06c-.48,1.37-1.58,2.49-.6,3.73.77,1,2.68,1.45,3.53.58.71-.72,2.17-6.74,2.5-8.28a55.88,55.88,0,0,0,.68-12,29.45,29.45,0,0,1,1.37-10.77c-.14,1.47.4,3.39.47,4.94,3.69-.38,7.62,0,11.33-.09a14.15,14.15,0,0,0,1.29-3.79c0-.06,0-.08,0,0,.25.63.48,2.21,1,2.62.87.73,3.47.33,4.54.42,2,.17,5.45.94,7.4.13,1.26-.52,1.47-1.69,1.81-3,0-.07,0-.07,0,0,.39.67.54,1.86,1.17,2.18a13.66,13.66,0,0,0,3.66.72,29.24,29.24,0,0,0,4.39,0C72.56,38.27,70.56,33.09,69.83,31.22Z"/><path class="cls-15" d="M44,13.6c10.21-.9,25.54,3.3,28.28,17.61-6.15,2.51-10.69,1.51-15.54-.43a17.93,17.93,0,0,0-12.32.15A10.32,10.32,0,0,1,33,28.47c-6.45,13.32,2.73,23.86-9.49,43.69,3.6-9.84,5.22-21.67,3.78-30.74-1.51,6.71-5.72,6.88-6.22,12-.63,6.48,2.31,16.94-.53,18.89C18.32,73.78,17,73.71,16.89,71c-.14-2.93,1.79-7.77,2-11,.68-12.6,3-25.25,8.88-36.58C30.31,18.47,38.36,14.09,44,13.6Z"/><path class="cls-16" d="M67.57,54a2.33,2.33,0,0,1,.24.86C68.14,58,61.56,56,61,54.56c-1.13-2.65,1.21-2.91,2.9-2.63C65.14,52.15,66.91,52.67,67.57,54Z"/><path class="cls-16" d="M41.34,52.8a2.66,2.66,0,0,1,.64.69c1.76,2.73-5.36,4-6.59,2.93-2.31-2-.24-3.29,1.48-3.83C38.18,52.19,40.09,51.84,41.34,52.8Z"/><path class="cls-14" d="M55.52,54.57c-.55-.88-1.45,0-3-.14-1.4-.1-1.37-.85-2.39-.28s-.26,2.8,2.23,2.9S56,55.33,55.52,54.57Z"/><path class="cls-16" d="M52.16,50.34c-1.15,0-2.86,3.9-2.28,4.49,1.41,1.45,4.55.77,5.51-.22C55.76,54.22,53.47,50.32,52.16,50.34Z"/><path class="cls-17" d="M65.33,46c-3.89-1.66-7.43,3.13-4.64,5.62.56-.61,3.61-1.59,5.49-.17C67.77,50.25,67.41,46.83,65.33,46Z"/><path class="cls-18" d="M65.76,48.64c.94-.3,1.31,1.14.52,1.66C65.2,51,64.7,49,65.76,48.64Z"/><path class="cls-18" d="M62.12,46.51c1.6-.49,2.23,2,.89,2.82C61.16,50.55,60.31,47.08,62.12,46.51Z"/><path class="cls-17" d="M36.4,46.26c3.83-1.77,7.51,2.92,4.79,5.49-.58-.59-3.65-1.49-5.48,0C34.08,50.64,34.34,47.21,36.4,46.26Z"/><path class="cls-18" d="M36,49c-.95-.27-1.28,1.17-.48,1.67C36.67,51.32,37.12,49.27,36,49Z"/><path class="cls-18" d="M39.62,46.74c-1.62-.46-2.18,2-.81,2.84C40.69,50.75,41.44,47.25,39.62,46.74Z"/><path class="cls-4" d="M41.66,40.7c1-.05,1.68.47,1.24,1.48-.35.79-1.42.74-2.2.85-1.15.16-2.31.18-3.46.31a18,18,0,0,0-4.42.9c-.28.1-.5.32-.82.31a1.6,1.6,0,0,1,.59-1.12A9.68,9.68,0,0,1,36,41.57,21.31,21.31,0,0,1,41.66,40.7Z"/><path class="cls-4" d="M59.55,40.5c-1,0-1.65.47-1.23,1.43.34.76,1.39.69,2.14.78,1.13.14,2.26.15,3.39.26a18.11,18.11,0,0,1,4.31.8c.27.1.48.31.79.29A1.42,1.42,0,0,0,68.38,43a9.25,9.25,0,0,0-3.33-1.75A21.38,21.38,0,0,0,59.55,40.5Z"/><path class="cls-17" d="M72.09,45.42s-2.8,3.75-8.07,1.49c-2.33-1-4.06,1.25-4.06,1.25a4,4,0,0,1,4.59-2.88C66.38,45.61,68.32,47.18,72.09,45.42Z"/><path class="cls-17" d="M29.77,45.9s2.83,3.71,8.08,1.4c2.31-1,4.07,1.2,4.07,1.2a4,4,0,0,0-4.62-2.83C35.47,46,33.55,47.62,29.77,45.9Z"/><path class="cls-19" d="M36.07,60.5c1.56,3,5.38,1.53,3.77-1.5A2.85,2.85,0,0,1,36.07,60.5Z"/><path class="cls-19" d="M61.29,58.49c-.83,3.14,3.3,4.23,4.11,1.15A3.2,3.2,0,0,1,61.29,58.49Z"/><path class="cls-20" d="M63.08,60.1a.88.88,0,0,0-1.13.46c-1.52,4.24-6.06,7-11.35,7-5.09,0-9.16-2.68-10.82-6.19a1,1,0,0,0-1.19-.48.73.73,0,0,0-.48,1c1.91,4,6.45,7.05,12.11,7.24h.48c6.08,0,11.23-3.13,13-8A.82.82,0,0,0,63.08,60.1Z"/><path class="cls-9" d="M55.18,75.85a14.24,14.24,0,0,0-7.11,1.79c3,1.27,5.42,6.4,6,13.94.07,1,.13,2.67.22,4.42H64.75c-.08-6-2.13-14.18-4-17.17A6.25,6.25,0,0,0,55.18,75.85Z"/><path class="cls-11" d="M61.62,86c-.59-1.85-1.47-4.87-2.78-6.19a10.06,10.06,0,0,0,0,3.33c-.64-1-1.74-3.36-3.28-2.25-1.23.88-.45,3.45-.12,4.58a6.86,6.86,0,0,0-2-2.28h0C54.74,87.13,56,90.73,56.31,95a9.33,9.33,0,0,1,0,1h7c0-.33,0-.66,0-1A35,35,0,0,0,61.62,86Z"/></g></g></g></svg>