<svg xmlns="http://www.w3.org/2000/svg" xmlns:xlink="http://www.w3.org/1999/xlink" viewBox="0 0 96 96"><defs><style>.cls-1{fill:none;}.cls-2{clip-path:url(#clip-path);}.cls-3{fill:#ffb571;}.cls-4{fill:#9c552c;}.cls-5{fill:#854422;}.cls-6{fill:#261b18;}.cls-7,.cls-8{fill:#66241b;}.cls-7{opacity:0.4;}.cls-15,.cls-8{opacity:0.7;}.cls-9{fill:#d47b48;}.cls-10{fill:#732e2b;}.cls-11{fill:#fff9f0;}.cls-12{fill:#c4b9a7;}.cls-13{fill:#d17642;}.cls-14{opacity:0.2;}.cls-15{fill:#f0ded1;}.cls-16{fill:#f7efdc;}.cls-17{fill:#eddbc0;}.cls-18{fill:#85b428;}.cls-19{fill:#e6d0ae;}</style><clipPath id="clip-path" transform="translate(0)"><circle class="cls-1" cx="48" cy="48" r="48"/></clipPath></defs><g id="Layer_2" data-name="Layer 2"><g id="Layer_4" data-name="Layer 4"><g class="cls-2"><rect class="cls-3" width="96" height="96"/><path class="cls-4" d="M63.49,81.9c-4.85-4.32-22.76-4.22-29,0C29.61,85.24,32.3,90,34.64,96H63.92C66.29,91.58,68,85.91,63.49,81.9Z" transform="translate(0)"/><path class="cls-4" d="M35.33,89.53c-.06-2.44-.08-8.09-.8-7.63-6.23,3.95-9,9.35-8.51,14.1h7.37A6.32,6.32,0,0,1,35.33,89.53Z" transform="translate(0)"/><path class="cls-4" d="M63.49,81.9c-.72-.46-.73,5.19-.8,7.63A6.3,6.3,0,0,1,64.63,96H72C72.49,91.25,69.72,85.85,63.49,81.9Z" transform="translate(0)"/><path class="cls-5" d="M36.45,93.76c.76,1.38,4.73,1.36,3.4-.85C39.18,91.77,35.1,91.31,36.45,93.76Z" transform="translate(0)"/><path class="cls-5" d="M57.79,92.91c-1.32,2.21,2.65,2.23,3.41.85C62.55,91.31,58.47,91.77,57.79,92.91Z" transform="translate(0)"/><path class="cls-5" d="M48.81,73.58c-2.89,0-7,1.21-7.19,4.09C41.51,79,43,82.62,49,82.59s7.32-3.82,7.16-5.16C55.79,74.56,51.7,73.53,48.81,73.58Z" transform="translate(0)"/><path class="cls-6" d="M72.91,46.63c2.2-1.47,1.84-4.58-.83-5.92,4.56.07,3.64-5.25-.13-6.33,5.63-1.66,3.32-8.92-1.54-6.74,6.47-5.28-14.89-8.72-17.83-9.19-9.36-1.52-20.12-1.37-27,6.05-1.46,1.58-2.56,5.14-4.69,7.72-7.16.48-7.38,7.91-1.37,9.63-4.69.2-5.06,5.25-.4,5.94-3.62,4.41,6.11,10.8,9.66,13.48,8.15,6.14,20.7,7.44,30.51,5.42,6.37-1.31,7.05-2.31,9.43-7.25,1.49-3.09,5.55-9.26,3-12.28A4.07,4.07,0,0,0,72.91,46.63Z" transform="translate(0)"/><path class="cls-4" d="M25.92,57.5c2.2,11.91,12.07,24.62,25.95,23C66,78.78,72.26,60.82,69.72,46.17c-2.76-15.93-11-28.92-27.44-24.9C30.53,24.15,23,41.6,25.92,57.5Z" transform="translate(0)"/><path class="cls-7" d="M40.48,32.78a3.85,3.85,0,0,1-2.61-.89c-.2,1.72-2.13,2.41-3.67,2.44a3.68,3.68,0,0,1-3.51,4.26c-.22,1.21-.45,2.42-.66,3.63-.37,2.09-1.23,4.15-1.27,6.28a27.34,27.34,0,0,1-3.67-9.74c-.65-3.1-1.33-6.92-.44-10,.71-2.49,3.37-4,5.54-5.11,3.95-2,8.67-2,13-2.13a53.16,53.16,0,0,1,14.49,1.58c2.44.6,7.72,1.4,9.14,3.78,1.71,2.84-3.59,5.14-5.51,3.43-1.69,1.74-5.15.8-6.42-1-1.59,2-4,1.38-5.86.31-1,2.41-3.74.75-5.3,1.45-1.13.51-1.32,1.63-3,1.7Z" transform="translate(0)"/><path class="cls-4" d="M23.29,62.79a11.67,11.67,0,0,0,4.73.29l.09-.15c.64-1.14-.63-7.29-1-8.45-1-2.89-2.85-4.35-5.61-3.45C15.71,52.91,18.45,61.31,23.29,62.79Z" transform="translate(0)"/><path class="cls-8" d="M25.45,60.58c2.06-1.44-.16-5.85-1.8-6.51-1.33-.54-4.55.7-2.89,3.18.7-2.41,2.22-.92,2.08.78-.1,1.13-1.31,1.21,0,2.6C23.49,61.39,24.8,61,25.45,60.58Z" transform="translate(0)"/><path class="cls-6" d="M68.18,26.43c-.39-2.1-3.28-5.2-4.63-6.87-2.32-2.88-8.46-3.1-11.83-3.59a40.38,40.38,0,0,0-12.22.22c-6.68,1.12-14.63,4.69-16.42,11.91-1.1,4.43-.17,9.47.38,13.92.33,2.7-.51,8,1.89,9.9,2.81,2.25,3.71-1.38,3.84-4,.2-3.81.46-7.49.8-11.25,2.44.1,3.45-2,3.24-4.13,2,.38,4.34-.12,4.93-2.29a4.87,4.87,0,0,0,3.22.62c1.1-.25,1.45-1.57,2.06-1.78.87-.29,2.31.79,3.37.53s1.68-1.13,2.24-2.16c1.74,2.47,5.42,1.72,7.23-.16a3.83,3.83,0,0,0,5.93,1.59C62.45,32.7,69.38,32.87,68.18,26.43Z" transform="translate(0)"/><path class="cls-7" d="M52.23,61.56c-3.39.32-7.85,1.12-11.61.94-1.76-.09-2.82,1.64-2,2.72,5.4,7.06,8.8,7.56,13.25,7.58,6.41,0,8.77-3.5,9.58-6.94a11.11,11.11,0,0,1,1.76-3c1-1.39-.17-2.45-1.82-2.21C58.8,61,55.91,61.23,52.23,61.56Z" transform="translate(0)"/><path class="cls-9" d="M52.28,61.51c-3.51.3-8.12,1.05-12,.9-3.09-.12-4.15.09-2,2.51,5.55,6.45,9.07,6.9,13.66,6.9,6.63,0,9.08-3.24,9.94-6.41a9.74,9.74,0,0,1,1.82-2.76c1.67-2,1.17-2.43-1.88-2C59.07,61,56.07,61.18,52.28,61.51Z" transform="translate(0)"/><path class="cls-10" d="M38,62.92a70.32,70.32,0,0,0,25.74-1.41,8.81,8.81,0,0,0-2.35,3c-.93,2.13-4.53,3.77-10.1,4A16.65,16.65,0,0,1,38,62.92Z" transform="translate(0)"/><path class="cls-11" d="M41.24,63.3s.35,1.85,3.48,2.4a36.3,36.3,0,0,0,12.66-.23A6.4,6.4,0,0,0,61.66,62,76.26,76.26,0,0,1,41.24,63.3Z" transform="translate(0)"/><path class="cls-11" d="M42.82,65.91c-.33-.47-.23-1.26,1.22-.61,2,.91,5.35,1,9.32.63,3.68-.3,5.51-1.26,6.25-.77s-2.39,3.7-8.76,3.46C44.23,68.38,42.82,65.91,42.82,65.91Z" transform="translate(0)"/><path class="cls-12" d="M42.09,64.57s14.82-1.77,18.42-.92A6.17,6.17,0,0,0,61.66,62,87.51,87.51,0,0,1,41.24,63.3,2.76,2.76,0,0,0,42.09,64.57Z" transform="translate(0)"/><path class="cls-12" d="M45.24,65.61A26.47,26.47,0,0,0,57,65.4S50.69,67.88,45.24,65.61Z" transform="translate(0)"/><path class="cls-13" d="M68.11,53.09a2.89,2.89,0,0,1,.43.86c1,3.21-6.31,2.62-7.23,1.26-1.72-2.56.67-3.38,2.49-3.48C65.19,51.65,67.15,51.8,68.11,53.09Z" transform="translate(0)"/><path class="cls-13" d="M40.36,54.34a2.7,2.7,0,0,1,.6.79c1.58,3.06-5.55,3.95-7.59,2.69-2.83-1.75.36-3.74,2.24-4.14C37.06,53.39,39.13,53.21,40.36,54.34Z" transform="translate(0)"/><path class="cls-6" d="M38.91,46.9c-4.3-.95-6.75,3.92-3.78,5.32a9.49,9.49,0,0,1,4.21,0C42.15,51.19,42.1,47.61,38.91,46.9Z" transform="translate(0)"/><path class="cls-14" d="M55.91,55.53c-.89-.74-2.6.21-4.24.3s-2.83-.52-4.2.16.34,2.59,4.28,2.31S56.67,56.17,55.91,55.53Z" transform="translate(0)"/><path class="cls-13" d="M51.17,47.31c-3.38-.13-5.7,6.51-4.18,8.58,1.08,1.45,8.47,1,9.55-.76C56.93,54.47,54.38,47.44,51.17,47.31Z" transform="translate(0)"/><path class="cls-15" d="M37.43,47.8c-1.7.45-.29,2.49,1.35,1.65C40,48.83,39,47.4,37.43,47.8Z" transform="translate(0)"/><path class="cls-6" d="M61.36,37.82c-2.55.22-4.5,1.36-3.22,2.9.76.91,2.87.23,5.28.33,2.26.09,3.54,1.69,4.47-.14S64.44,37.55,61.36,37.82Z" transform="translate(0)"/><path class="cls-6" d="M38.19,39.33c2.83-.1,5,.83,3.56,2.6-.86,1-3.19.62-5.86,1s-3.95,2.23-5,.45S34.78,39.46,38.19,39.33Z" transform="translate(0)"/><path class="cls-6" d="M65,45.07c-4.39-.36-6.16,4.78-3,5.78a9.36,9.36,0,0,1,4.17-.53C68.77,48.89,68.25,45.35,65,45.07Z" transform="translate(0)"/><path class="cls-15" d="M63.65,46.16c-1.63.67,0,2.51,1.56,1.45C66.3,46.85,65.1,45.56,63.65,46.16Z" transform="translate(0)"/><path class="cls-16" d="M62.42,16.48c-10.82-2-22.93-1.73-33,3.26-1.81.89-19,10.19-12.27,13,4.76,2,19.25-3.32,24.42-4.2,9.08-1.55,19-1.6,27.75-4.07C81,21.2,67.79,17.48,62.42,16.48Z" transform="translate(0)"/><path class="cls-17" d="M36.55,9.45A10.87,10.87,0,0,0,40,9.79c6-.69,8.74-6.86,14.21-1.15,2.46,2.57,4.5,6.93,7.07,9.41-3.14,4.5-11,5.78-16,6.83-3.58.75-15.46,1.42-20.65.09A55.46,55.46,0,0,0,28,15.23c.62-2.51,1-5.44,4-6.14A10.57,10.57,0,0,1,36.55,9.45Z" transform="translate(0)"/><path class="cls-18" d="M41.59,20.13c4.65-.47,9.07-1.08,13.18-3.58A20.68,20.68,0,0,0,58.25,14a8.6,8.6,0,0,0,2.54,3.75c-3.7,2.69-7.52,5.24-11.93,6C42.62,24.77,36.41,25.77,30.14,25c-1.7-.22-3.37-.91-5-1.12a14.53,14.53,0,0,0,1.61-4.65C32.37,21.13,37.62,20.53,41.59,20.13Z" transform="translate(0)"/><path class="cls-16" d="M32.35,14.09c.9-.34,1.83-.81,2.37-1a49.34,49.34,0,0,1,15.53-1.95c1.87.07,3.79-.44,2.49-2.62A3,3,0,0,0,49.22,7,14,14,0,0,0,46,9.08a10.47,10.47,0,0,0,2.92.65A54.71,54.71,0,0,1,36.35,10c-2.79-.33-5.26-.62-6.2,2.67C29.52,14.84,30.88,14.65,32.35,14.09Z" transform="translate(0)"/><path class="cls-19" d="M16.34,31.47s.12,2.32,6,1.59C31.27,32,38,28.78,45.85,27.94c10.39-1.12,19.67-2.32,23.43-3.44s3.85-3,3.85-3-1.85,2.23-6.49,2.9-15.12,1-24.52,2.83C34.37,28.71,29.53,31,23.5,31.93,17.76,32.86,16.34,31.47,16.34,31.47Z" transform="translate(0)"/></g></g></g></svg>