<svg xmlns="http://www.w3.org/2000/svg" xmlns:xlink="http://www.w3.org/1999/xlink" viewBox="0 0 66 66.01"><defs><style>.cls-1{fill:none;}.cls-2{clip-path:url(#clip-path);}.cls-3{fill:#2b6877;}.cls-4{fill:#ff9819;}.cls-5{fill:#ffc566;}.cls-6{fill:#fff;opacity:0.3;}.cls-7{fill:url(#linear-gradient);}.cls-8{fill:#d4a070;}.cls-9{fill:#f2d89b;}.cls-10{fill:#cf854d;opacity:0.5;}.cls-11,.cls-19{opacity:0.7;}.cls-12{fill:#ab6a3f;}.cls-13{fill:#9c552c;}.cls-14,.cls-15{fill:#661004;}.cls-14{opacity:0.4;}.cls-15{opacity:0.2;}.cls-16{fill:#261b18;}.cls-17{fill:#fae7bb;}.cls-18{fill:#bf6c3c;}.cls-19{fill:#f0ded1;}.cls-20{fill:#d47b48;}.cls-21{fill:#78231f;}.cls-22{fill:#fff7ea;}.cls-23{fill:#ecdcc4;}.cls-24{fill:#161110;}</style><clipPath id="clip-path" transform="translate(0.01)"><circle class="cls-1" cx="33" cy="33" r="33"/></clipPath><linearGradient id="linear-gradient" x1="4.98" y1="52.74" x2="5.15" y2="55.65" gradientTransform="matrix(-1, 0, 0, 1, 39.1, 0)" gradientUnits="userSpaceOnUse"><stop offset="0" stop-color="#854326"/><stop offset="1" stop-color="#9c552c"/></linearGradient></defs><g id="Layer_2" data-name="Layer 2"><g id="avatars"><g class="cls-2"><rect class="cls-3" width="66" height="66"/><path class="cls-4" d="M28.26,54a12.8,12.8,0,0,0-8,12H25.7C25.29,62.27,29.68,53.39,28.26,54Z" transform="translate(0.01)"/><path class="cls-4" d="M40.07,54a12.8,12.8,0,0,1,8,12H42.63C43,62.27,38.65,53.39,40.07,54Z" transform="translate(0.01)"/><path class="cls-4" d="M39.91,53.62c-2.59-2.52-8.82-1.56-11.17,0-3.09,2.05-2.69,8-1.31,10.76.28.56.55,1.08.77,1.63H40.72c.12-.34.25-.69.37-1.06C42.48,60.78,42.75,56.37,39.91,53.62Z" transform="translate(0.01)"/><path class="cls-5" d="M29.26,55a2.22,2.22,0,0,1,.07-1.93c1.43-2.73,9.09-2.74,9.81.51a2.39,2.39,0,0,1-.31,1.67C36.7,59.21,30.88,59.07,29.26,55Z" transform="translate(0.01)"/><path class="cls-6" d="M40.89,61.23c-.59,2.61-3.79,3.4-6.59,3.45-5.51.08-7.36-2.79-6.47-6,.23-.86,1.17-1.34,2.26-.12,1.64,1.83,7,1.8,9-.69C40.16,56.45,41.34,59.27,40.89,61.23Z" transform="translate(0.01)"/><path class="cls-7" d="M38.22,52.52a4.12,4.12,0,0,0-8.24,0,3.75,3.75,0,0,0,.71,2.87,4.61,4.61,0,0,0,6.83,0A3.71,3.71,0,0,0,38.22,52.52Z" transform="translate(0.01)"/><path class="cls-8" d="M30.67,41.64a11.94,11.94,0,0,0-3.06-7.51,5.48,5.48,0,0,0-2.88-1.62,7,7,0,0,0-4.71.57,13,13,0,0,0-4.14,3.47c-.91,1.18-2.42,2.31-2.79,3.8-.26,1.07.11,2.26,1.26,1.23a11.75,11.75,0,0,0-.46,3.49c0,1.33.67,2.38,1.82,1-.1,1.1-.43,5.85,1.51,3.38.22.89,0,2.31.67,3.06.76.92,1.61-.27,1.93-.94.09.77.18,2,1.18,2.13s1.75-1.07,2-1.8c.28,1.94,1.5.59,2.22-.14.55,1.46,2.22,1.06,3.23.17C31.24,49.46,30.83,44.92,30.67,41.64Z" transform="translate(0.01)"/><path class="cls-9" d="M10.69,44.7a1.15,1.15,0,0,0,1.09-.8l.07-.21c1.07-3.3,3.08-9.43,16.11-8.9a1.16,1.16,0,1,0,.09-2.31C13.26,31.89,10.74,39.66,9.66,43l-.07.21a1.16,1.16,0,0,0,.74,1.45A1.13,1.13,0,0,0,10.69,44.7Z" transform="translate(0.01)"/><path class="cls-9" d="M11.33,49.91A1.15,1.15,0,0,0,12.46,49c.09-.55,2.54-13.42,15.12-12.48a1.13,1.13,0,0,0,1.23-1.06,1.15,1.15,0,0,0-1.06-1.24c-11.76-.88-16.62,9-17.56,14.38a1.16,1.16,0,0,0,.93,1.34Z" transform="translate(0.01)"/><path class="cls-9" d="M13.23,52a1.15,1.15,0,0,0,1.1-.82c1.4-4.67,4.4-11.41,14.18-16a1.15,1.15,0,0,0-1-2.09c-8.08,3.79-13,9.32-15.4,17.42a1.14,1.14,0,0,0,.77,1.43A1.26,1.26,0,0,0,13.23,52Z" transform="translate(0.01)"/><path class="cls-9" d="M15.88,54.82a1.15,1.15,0,0,0,1.13-1c1.06-6.17,4.12-14.07,12.73-16.63a1.15,1.15,0,1,0-.65-2.2c-10.26,3-13.4,12.86-14.35,18.45a1.15,1.15,0,0,0,.94,1.33Z" transform="translate(0.01)"/><path class="cls-9" d="M18.71,56.77a1.15,1.15,0,0,0,1.14-1c.81-6.48,2.88-14.27,11.87-17a1.15,1.15,0,0,0-.68-2.2c-10.36,3.2-12.65,12.36-13.47,19a1.16,1.16,0,0,0,1,1.29Z" transform="translate(0.01)"/><path class="cls-9" d="M22.09,55.89a1.15,1.15,0,0,0,1.15-1.06c.35-4.21,1.91-11.65,8.51-14.09a1.15,1.15,0,1,0-.8-2.16c-7.8,2.88-9.62,11.3-10,16.06A1.16,1.16,0,0,0,22,55.89Z" transform="translate(0.01)"/><path class="cls-9" d="M25.31,54a1.14,1.14,0,0,0,1.15-1.1c.16-3.66,1.38-8.54,6.28-11a1.15,1.15,0,1,0-1-2c-5.89,3-7.35,8.71-7.54,13a1.15,1.15,0,0,0,1.1,1.2Z" transform="translate(0.01)"/><path class="cls-9" d="M28.46,52.88a1.15,1.15,0,0,0,1.15-1.1c.08-1.79.62-6.17,3.7-8.21A1.15,1.15,0,0,0,32,41.65c-3.82,2.52-4.6,7.36-4.73,10a1.16,1.16,0,0,0,1.09,1.21Z" transform="translate(0.01)"/><path class="cls-10" d="M18,34.36c-2.62.77-3,4.58-2.07,7.47,1.32,4,4.11,4.85,5.48,3.39.49,2.34,4.23,7.06,7.12,6.68,2.25-.3,2.09-2.73,2.63-4.43,1.28-4-1.41-8-4.28-10.62-1.93-1.76-5.76-3.13-8.42-2.6A3.84,3.84,0,0,0,18,34.36Z" transform="translate(0.01)"/><g class="cls-11"><path class="cls-12" d="M13.46,40.45a.39.39,0,0,0,.34-.2c1-1.94,3.28-4.15,5.51-4.61a.39.39,0,0,0,.3-.45.39.39,0,0,0-.46-.3c-2.46.51-4.89,2.9-6,5a.38.38,0,0,0,.16.52A.37.37,0,0,0,13.46,40.45Z" transform="translate(0.01)"/></g><g class="cls-11"><path class="cls-12" d="M15.14,43.85a.38.38,0,0,0,.35-.23,10.56,10.56,0,0,1,3.69-4.49.39.39,0,0,0,.13-.53.37.37,0,0,0-.52-.13,11.23,11.23,0,0,0-4,4.84.38.38,0,0,0,.2.5A.28.28,0,0,0,15.14,43.85Z" transform="translate(0.01)"/></g><g class="cls-11"><path class="cls-12" d="M16.12,47.51a.4.4,0,0,0,.37-.27,15.2,15.2,0,0,1,2.32-4.4.38.38,0,0,0-.09-.53.39.39,0,0,0-.54.09A16.28,16.28,0,0,0,15.75,47a.38.38,0,0,0,.26.48Z" transform="translate(0.01)"/></g><g class="cls-11"><path class="cls-12" d="M18.6,48.79a.38.38,0,0,0,.35-.24l.24-.56a19,19,0,0,1,2.26-4.31.39.39,0,1,0-.61-.47,19.71,19.71,0,0,0-2.36,4.49l-.24.55a.38.38,0,0,0,.21.5A.28.28,0,0,0,18.6,48.79Z" transform="translate(0.01)"/></g><g class="cls-11"><path class="cls-12" d="M21.11,51a.39.39,0,0,0,.38-.3,10.68,10.68,0,0,1,2-4.58.39.39,0,0,0-.05-.54.38.38,0,0,0-.54,0,11.51,11.51,0,0,0-2.15,4.92A.38.38,0,0,0,21,51Z" transform="translate(0.01)"/></g><g class="cls-11"><path class="cls-12" d="M24.25,51.37a.38.38,0,0,0,.38-.37A10.08,10.08,0,0,1,25,49c.07-.28.13-.57.19-.85a.39.39,0,0,0-.3-.45.37.37,0,0,0-.45.3c-.06.28-.12.55-.19.83A10.64,10.64,0,0,0,23.87,51a.38.38,0,0,0,.37.4Z" transform="translate(0.01)"/></g><g class="cls-11"><path class="cls-12" d="M26.81,52.41A.39.39,0,0,0,27.2,52a6.7,6.7,0,0,1,.31-1.95.38.38,0,0,0-.24-.49.4.4,0,0,0-.49.25A7.58,7.58,0,0,0,26.43,52a.37.37,0,0,0,.37.39Z" transform="translate(0.01)"/></g><path class="cls-13" d="M25.37,36.87c2.55-.5,5.11-1,7.67-1.4,4.21-.72,8.69,5.72,11.25,9.17s5.17-6,5.29-8.78c.17-3.4,1.28-8.95.6-12.71-3.29-18.32-28-15.87-31.29-3.08-1.25,4.87-1.79,11.38.32,16.2C20.32,38.78,23.29,37.29,25.37,36.87Z" transform="translate(0.01)"/><path class="cls-13" d="M20.54,37.58c.46,7.77,7,16.73,14.74,16.69S49.83,43.35,49.37,33.8c-.51-10.38-2.31-19.2-15.55-18C22.24,16.77,19.91,27.21,20.54,37.58Z" transform="translate(0.01)"/><path class="cls-13" d="M18.94,44.44c1.09.69,2.38.33,3-1.57.69-.95.07-4.74-.46-7.12-.43-1.93-1.48-3-3.31-2.64C14.39,33.86,16.18,42.72,18.94,44.44Z" transform="translate(0.01)"/><path class="cls-14" d="M20,39.51c1.42-.75.35-3.75-.63-4.3-.82-.45-3,.09-2.1,1.81.63-1.48,1.48-.41,1.26.66-.15.71-.93.67-.23,1.66C18.68,39.87,19.55,39.75,20,39.51Z" transform="translate(0.01)"/><path class="cls-15" d="M35,13.8C25.71,13.27,18.75,19.65,18.73,33a2.36,2.36,0,0,1,1.74.65,4.47,4.47,0,0,1,.86,2.06c.09.21.19.57.92.57a18.42,18.42,0,0,1-.47-5.64A23.48,23.48,0,0,1,22.1,28c.12-.63.67-1.76.19-2.32.92-.43.53-1.7.41-2.43a2,2,0,0,0,2.13-1.87A1.81,1.81,0,0,0,26.71,21a2.44,2.44,0,0,0,4.66.18,1,1,0,0,0,1.07.38c-.11,2.11,4.61,2.35,4.45.33.82.19.79,1.4,1.76,1.7a2,2,0,0,0,2.55-1.1h0c.24.9,1.72.92,2.42.78A4,4,0,0,0,45.53,22a1.12,1.12,0,0,0,1.81.77c-.8.68.85,2.21,1,2.72C49.6,28.82,50,14.64,35,13.8Z" transform="translate(0.01)"/><path class="cls-16" d="M21.27,42A1.69,1.69,0,0,1,20,44a1.85,1.85,0,0,1-.52-3.62A1.7,1.7,0,0,1,21.27,42Z" transform="translate(0.01)"/><path class="cls-9" d="M50.43,34.86a1.14,1.14,0,0,0,1.14-1c.19-1.32,1.71-13.08-4.65-20.19C43.85,10.25,39.53,8.59,34,8.78c-5,.17-9.08,1.88-12,5.1C16.68,19.81,16.82,29,17,31.63a1.2,1.2,0,0,0,1.2,1.13,1.11,1.11,0,0,0,1.1-1.14v-.13c-.15-2.44-.3-10.81,4.47-16.07,2.47-2.73,6-4.19,10.36-4.34,4.77-.16,8.49,1.23,11.09,4.14,4.59,5.15,4.73,13.94,4.08,18.32a1.16,1.16,0,0,0,1,1.31Z" transform="translate(0.01)"/><path class="cls-9" d="M39.48,22.8a1.15,1.15,0,0,0,1-.66c1.42-3,1.28-8.23-.34-12.38a1.15,1.15,0,1,0-2.14.83c1.58,4.06,1.38,8.47.4,10.57A1.15,1.15,0,0,0,39,22.69,1.21,1.21,0,0,0,39.48,22.8Z" transform="translate(0.01)"/><path class="cls-9" d="M43.54,22.62a1.15,1.15,0,0,0,.81-.33,11,11,0,0,0,3.32-8.45,1.15,1.15,0,1,0-2.3.13,8.65,8.65,0,0,1-2.64,6.68,1.15,1.15,0,0,0,.81,2Z" transform="translate(0.01)"/><path class="cls-9" d="M23.14,22.35a1.16,1.16,0,0,0,.68-2.09,6.88,6.88,0,0,1-2.65-4,1.16,1.16,0,0,0-2.28.38,9.25,9.25,0,0,0,3.57,5.46A1.22,1.22,0,0,0,23.14,22.35Z" transform="translate(0.01)"/><path class="cls-9" d="M37.36,20.7a1.14,1.14,0,0,0,1.14-1.05A21.56,21.56,0,0,0,36.44,9a1.15,1.15,0,0,0-2,1.07,19.56,19.56,0,0,1,1.81,9.35,1.15,1.15,0,0,0,1,1.24Z" transform="translate(0.01)"/><path class="cls-9" d="M31.51,20.18a1,1,0,0,0,.29,0,1.14,1.14,0,0,0,.83-1.39c0-.19-1.15-4.57-2.68-8.69a1.15,1.15,0,0,0-2.16.79c1.48,4,2.6,8.41,2.61,8.46A1.15,1.15,0,0,0,31.51,20.18Z" transform="translate(0.01)"/><path class="cls-9" d="M43,18.82a1.15,1.15,0,0,0,1.1-.81,12.44,12.44,0,0,0-.24-6.94,1.15,1.15,0,1,0-2.19.73,10.31,10.31,0,0,1,.23,5.55,1.15,1.15,0,0,0,.77,1.43A1.29,1.29,0,0,0,43,18.82Z" transform="translate(0.01)"/><path class="cls-9" d="M25.23,20.34a1.15,1.15,0,0,0,.78-2,8.15,8.15,0,0,1-2.21-4.78,1.15,1.15,0,0,0-2.29.25A10.31,10.31,0,0,0,24.46,20,1.13,1.13,0,0,0,25.23,20.34Z" transform="translate(0.01)"/><path class="cls-9" d="M34.59,22.46h.18a1.15,1.15,0,0,0,1-1.32,15,15,0,0,1-.13-1.6A22,22,0,0,0,33,9.34a1.15,1.15,0,0,0-2,1.09,19.74,19.74,0,0,1,2.37,9.22,18,18,0,0,0,.15,1.84A1.15,1.15,0,0,0,34.59,22.46Z" transform="translate(0.01)"/><path class="cls-9" d="M29.47,21.89a1.12,1.12,0,0,0,.69-.23,1.15,1.15,0,0,0,.23-1.61,22.61,22.61,0,0,1-3.78-8.62,1.15,1.15,0,1,0-2.23.57,25.41,25.41,0,0,0,4.17,9.43A1.14,1.14,0,0,0,29.47,21.89Z" transform="translate(0.01)"/><path class="cls-9" d="M47.49,21.92a1.13,1.13,0,0,0,.82-.34A8.83,8.83,0,0,0,50.46,18a1.15,1.15,0,0,0-2.25-.49A6.62,6.62,0,0,1,46.66,20a1.16,1.16,0,0,0,0,1.63A1.2,1.2,0,0,0,47.49,21.92Z" transform="translate(0.01)"/><path class="cls-9" d="M49.14,24a1.11,1.11,0,0,0,.63-.19l1.91-1.24a1.16,1.16,0,1,0-1.27-1.93l-1.9,1.25A1.15,1.15,0,0,0,49.14,24Z" transform="translate(0.01)"/><path class="cls-9" d="M21.25,25a1.15,1.15,0,0,0,.66-2.09,7.83,7.83,0,0,1-2.5-2.84,1.15,1.15,0,1,0-2.16.79,10.17,10.17,0,0,0,3.33,3.93A1.2,1.2,0,0,0,21.25,25Z" transform="translate(0.01)"/><path class="cls-9" d="M50.17,26.42a1.15,1.15,0,0,0,.26,0l1.11-.25A1.15,1.15,0,1,0,51,23.9l-1.12.25a1.15,1.15,0,0,0,.25,2.27Z" transform="translate(0.01)"/><path class="cls-9" d="M50.51,29.26l.21,0,.8-.15a1.15,1.15,0,1,0-.42-2.26l-.8.15a1.15,1.15,0,0,0,.21,2.28Z" transform="translate(0.01)"/><path class="cls-9" d="M50.64,32.24h.17l.33,0a1.15,1.15,0,1,0-.33-2.28l-.34.05a1.15,1.15,0,0,0,.17,2.29Z" transform="translate(0.01)"/><path class="cls-9" d="M50.8,34.9a1.15,1.15,0,0,0,.13-2.29l-.37,0a1.15,1.15,0,0,0-.26,2.29l.37,0Z" transform="translate(0.01)"/><path class="cls-9" d="M20.72,27.87a1.16,1.16,0,0,0,1-.58,1.15,1.15,0,0,0-.42-1.57l-3.54-2.06a1.16,1.16,0,0,0-1.58.42,1.15,1.15,0,0,0,.42,1.57l3.54,2.06A1.16,1.16,0,0,0,20.72,27.87Z" transform="translate(0.01)"/><path class="cls-9" d="M20.18,30.68a1.15,1.15,0,0,0,.52-2.18L17.62,27a1.15,1.15,0,1,0-1,2.05l3.09,1.55A1.16,1.16,0,0,0,20.18,30.68Z" transform="translate(0.01)"/><path class="cls-9" d="M20.33,33.67a1.15,1.15,0,0,0,.43-2.22l-2.88-1.14a1.17,1.17,0,0,0-1.5.65A1.15,1.15,0,0,0,17,32.45l2.88,1.14A1,1,0,0,0,20.33,33.67Z" transform="translate(0.01)"/><g class="cls-11"><path class="cls-12" d="M41.68,18.82a.38.38,0,0,0,.37-.3,12.12,12.12,0,0,0-.39-6.33.39.39,0,0,0-.71.31,11.3,11.3,0,0,1,.35,5.84.39.39,0,0,0,.29.47Z" transform="translate(0.01)"/></g><g class="cls-11"><path class="cls-12" d="M43.83,18.7a.39.39,0,0,0,.36-.25c.25-.66.6-1.51.88-2.17l.21-.51a.38.38,0,1,0-.71-.29l-.21.51c-.28.66-.64,1.52-.89,2.19a.38.38,0,0,0,.23.49A.31.31,0,0,0,43.83,18.7Z" transform="translate(0.01)"/></g><g class="cls-11"><path class="cls-12" d="M46.58,19.94a.37.37,0,0,0,.35-.22c.11-.24.24-.48.37-.72s.32-.58.45-.88a.38.38,0,0,0-.7-.3c-.12.27-.27.54-.42.81s-.28.51-.39.77a.38.38,0,0,0,.19.51A.4.4,0,0,0,46.58,19.94Z" transform="translate(0.01)"/></g><g class="cls-11"><path class="cls-12" d="M48.48,22.11a.42.42,0,0,0,.26-.1,2.15,2.15,0,0,1,.78-.47.39.39,0,0,0-.25-.73,3,3,0,0,0-1.05.63.39.39,0,0,0,.26.67Z" transform="translate(0.01)"/></g><g class="cls-11"><path class="cls-12" d="M38.56,17.48a.38.38,0,0,0,.37-.31A9.43,9.43,0,0,0,38,11.26a.4.4,0,0,0-.52-.18.38.38,0,0,0-.18.51A8.69,8.69,0,0,1,38.18,17a.39.39,0,0,0,.31.45Z" transform="translate(0.01)"/></g><g class="cls-11"><path class="cls-12" d="M36.05,18.84a.25.25,0,0,0,.12,0,.37.37,0,0,0,.24-.48A11.56,11.56,0,0,1,36,15.51a8.58,8.58,0,0,0-1.12-4.37.39.39,0,0,0-.53-.11.4.4,0,0,0-.11.54,7.76,7.76,0,0,1,1,4,12.76,12.76,0,0,0,.47,3A.4.4,0,0,0,36.05,18.84Z" transform="translate(0.01)"/></g><g class="cls-11"><path class="cls-12" d="M32.48,17.63h0a.37.37,0,0,0,.36-.4,13.16,13.16,0,0,0-.92-3.6c-.17-.49-.34-1-.48-1.44a.38.38,0,0,0-.74.21c.14.49.32,1,.5,1.49a13,13,0,0,1,.88,3.38A.38.38,0,0,0,32.48,17.63Z" transform="translate(0.01)"/></g><g class="cls-11"><path class="cls-12" d="M29.19,18.36a.37.37,0,0,0,.24-.08.38.38,0,0,0,.05-.54A8,8,0,0,1,28,12.94a.4.4,0,0,0-.39-.38h0a.39.39,0,0,0-.38.39,8.74,8.74,0,0,0,1.62,5.27A.36.36,0,0,0,29.19,18.36Z" transform="translate(0.01)"/></g><g class="cls-11"><path class="cls-12" d="M25.84,18.72a.39.39,0,0,0,.28-.12.39.39,0,0,0,0-.54,8.6,8.6,0,0,1-1.72-3.41.39.39,0,0,0-.74.23,9.09,9.09,0,0,0,1.93,3.74A.39.39,0,0,0,25.84,18.72Z" transform="translate(0.01)"/></g><g class="cls-11"><path class="cls-12" d="M23.35,19.64a.38.38,0,0,0,.32-.18.38.38,0,0,0-.12-.53,4.15,4.15,0,0,1-1.12-1.31,6.67,6.67,0,0,0-.45-.68.38.38,0,0,0-.54-.07.37.37,0,0,0-.07.53q.21.3.42.63a4.57,4.57,0,0,0,1.36,1.55A.36.36,0,0,0,23.35,19.64Z" transform="translate(0.01)"/></g><g class="cls-11"><path class="cls-12" d="M21.64,22.74a.41.41,0,0,0,.3-.14.38.38,0,0,0-.05-.54,3.68,3.68,0,0,1-1.21-1.52.37.37,0,0,0-.48-.24.39.39,0,0,0-.24.49,4.3,4.3,0,0,0,1.44,1.86A.38.38,0,0,0,21.64,22.74Z" transform="translate(0.01)"/></g><g class="cls-11"><path class="cls-12" d="M20.72,25a.4.4,0,0,0,.37-.26.39.39,0,0,0-.24-.49,4.91,4.91,0,0,1-1.39-.89.38.38,0,1,0-.49.59,5.26,5.26,0,0,0,1.63,1Z" transform="translate(0.01)"/></g><g class="cls-11"><path class="cls-12" d="M19.24,28.18a.43.43,0,0,0,.27-.11.38.38,0,0,0,0-.54,4.82,4.82,0,0,0-.92-.77.39.39,0,0,0-.42.65,4.4,4.4,0,0,1,.79.65A.39.39,0,0,0,19.24,28.18Z" transform="translate(0.01)"/></g><g class="cls-11"><path class="cls-12" d="M19.77,31a.37.37,0,0,0,.31-.17.38.38,0,0,0-.09-.53,3.28,3.28,0,0,0-1.4-.57.39.39,0,0,0-.44.32.39.39,0,0,0,.32.44,2.53,2.53,0,0,1,1.08.44A.41.41,0,0,0,19.77,31Z" transform="translate(0.01)"/></g><path class="cls-17" d="M37.47,18.31h0a1.15,1.15,0,0,0,1.12-1.18,19.09,19.09,0,0,0-1.33-5.5c-.29-.84-.57-1.63-.76-2.35a1.16,1.16,0,0,0-1.41-.82,1.14,1.14,0,0,0-.81,1.41c.21.8.5,1.63.8,2.51a17.75,17.75,0,0,1,1.21,4.81A1.15,1.15,0,0,0,37.47,18.31Z" transform="translate(0.01)"/><path class="cls-17" d="M40.2,20.05a1,1,0,0,0,1-.84A19.22,19.22,0,0,0,40,9.71a1,1,0,0,0-1.74.93,17.85,17.85,0,0,1,1,8.28A1,1,0,0,0,40.06,20Z" transform="translate(0.01)"/><path class="cls-17" d="M43.21,17.74a1,1,0,0,0,1-.84c.12-.84.68-5-.25-6.17a1,1,0,0,0-1.38-.13,1,1,0,0,0-.18,1.33,15.89,15.89,0,0,1-.14,4.68,1,1,0,0,0,.83,1.12Z" transform="translate(0.01)"/><path class="cls-17" d="M44.65,21.17a1,1,0,0,0,.79-.41,13,13,0,0,0,2.08-6.52,1,1,0,0,0-1-1,1,1,0,0,0-1,1,11,11,0,0,1-1.7,5.42A1,1,0,0,0,44.07,21,.94.94,0,0,0,44.65,21.17Z" transform="translate(0.01)"/><path class="cls-17" d="M48.29,20.78a1,1,0,0,0,.65-.24,4.77,4.77,0,0,0,1.13-1.69c.06-.14.12-.26.17-.35a1,1,0,0,0-.1-1.37,1,1,0,0,0-1.41.11,3.4,3.4,0,0,0-.45.78,3.09,3.09,0,0,1-.63,1,1,1,0,0,0-.1,1.39A1,1,0,0,0,48.29,20.78Z" transform="translate(0.01)"/><path class="cls-17" d="M49.78,23.33a1,1,0,0,0,.55-.17l.3-.18a5.75,5.75,0,0,0,.8-.5,1,1,0,0,0,.12-1.39A1,1,0,0,0,50.19,21c-.1.07-.35.21-.56.33l-.4.25A1,1,0,0,0,49,22.89,1,1,0,0,0,49.78,23.33Z" transform="translate(0.01)"/><path class="cls-17" d="M34.37,19.27h.09a1,1,0,0,0,.89-1.07,40.45,40.45,0,0,0-2.5-8.7,1,1,0,0,0-1.81.79,38.74,38.74,0,0,1,2.35,8.09A1,1,0,0,0,34.37,19.27Z" transform="translate(0.01)"/><path class="cls-17" d="M30.85,17.59a1.16,1.16,0,0,0,.37-.07,1,1,0,0,0,.55-1.28c-.15-.38-.39-1.24-.65-2.14A22,22,0,0,0,29.72,10,1,1,0,1,0,28,11a27.22,27.22,0,0,1,1.2,3.67c.28,1,.52,1.86.71,2.33A1,1,0,0,0,30.85,17.59Z" transform="translate(0.01)"/><path class="cls-17" d="M28.37,20.09a1,1,0,0,0,.64-.23,1,1,0,0,0,.12-1.39,17.34,17.34,0,0,1-1.8-4.53,15.57,15.57,0,0,0-1-2.73A1,1,0,0,0,25,10.87a1,1,0,0,0-.35,1.34,18.92,18.92,0,0,1,.8,2.31c.6,1.95,1.28,4.16,2.17,5.22A1,1,0,0,0,28.37,20.09Z" transform="translate(0.01)"/><path class="cls-17" d="M24.21,19.3A1,1,0,0,0,25,17.67a12,12,0,0,1-1.31-4,1,1,0,0,0-1-1h0a1,1,0,0,0-1,1A12.45,12.45,0,0,0,23.47,19,1,1,0,0,0,24.21,19.3Z" transform="translate(0.01)"/><path class="cls-17" d="M22.3,21.47a1,1,0,0,0,.67-.26A1,1,0,0,0,23,19.82a23.07,23.07,0,0,1-2-3.37,1,1,0,0,0-1.88.56,20.75,20.75,0,0,0,2.44,4.14A1,1,0,0,0,22.3,21.47Z" transform="translate(0.01)"/><path class="cls-17" d="M19.65,23.21a1,1,0,0,0,.7-.3,1,1,0,0,0,0-1.39,13.13,13.13,0,0,1-1-1.28,1,1,0,1,0-1.7,1A12.74,12.74,0,0,0,19,22.93,1,1,0,0,0,19.65,23.21Z" transform="translate(0.01)"/><path class="cls-17" d="M18.59,26.36a1,1,0,0,0,.6-1.77c-.28-.21-.57-.41-.85-.58a1,1,0,0,0-1.35.33,1,1,0,0,0,.33,1.35,7.37,7.37,0,0,1,.67.47A1,1,0,0,0,18.59,26.36Z" transform="translate(0.01)"/><path class="cls-17" d="M50.54,26.33a1.76,1.76,0,0,0,.64-.11A1,1,0,0,0,51.77,25a1,1,0,0,0-1.25-.59,1,1,0,0,0-1.14.78,1,1,0,0,0,.8,1.15A2.19,2.19,0,0,0,50.54,26.33Z" transform="translate(0.01)"/><path class="cls-17" d="M50.69,29.47a1,1,0,0,0,.44-.1,1,1,0,0,0,.93-.7,1,1,0,0,0-.66-1.23,1.37,1.37,0,0,0-1.47.43,1,1,0,0,0,.15,1.38A1,1,0,0,0,50.69,29.47Z" transform="translate(0.01)"/><path class="cls-18" d="M46.63,36.69a1.75,1.75,0,0,1,.29.52c.69,2-3.84,1.81-4.45,1-1.14-1.54.32-2.12,1.45-2.23A3.11,3.11,0,0,1,46.63,36.69Z" transform="translate(0.01)"/><path class="cls-18" d="M29.07,37.07a1.62,1.62,0,0,1,.33.49c.84,1.86-3.38,2.13-4.54,1.31-1.61-1.14.32-2.19,1.44-2.36A3.23,3.23,0,0,1,29.07,37.07Z" transform="translate(0.01)"/><path class="cls-16" d="M28.38,31.8c-2.65-.7-4.3,2.25-2.5,3.2a5.92,5.92,0,0,1,2.62.14A1.7,1.7,0,0,0,28.38,31.8Z" transform="translate(0.01)"/><path class="cls-14" d="M38,36.39c-.41-.39-1.15.13-1.88.19s-1.27-.26-1.86.11.21,1.37,2,1.19S38.4,36.73,38,36.39Z" transform="translate(0.01)"/><path class="cls-18" d="M35.88,33.47c-1.25,0-2,2.36-1.43,3.08.42.5,3.15.29,3.52-.36C38.11,36,37.08,33.48,35.88,33.47Z" transform="translate(0.01)"/><path class="cls-19" d="M28.18,33.36c-.81.23-.19,1.53.59,1C29.34,34.07,28.89,33.15,28.18,33.36Z" transform="translate(0.01)"/><path class="cls-16" d="M45.19,31.11c-2.72-.35-4,2.79-2,3.5a5.81,5.81,0,0,1,2.61-.22A1.69,1.69,0,0,0,45.19,31.11Z" transform="translate(0.01)"/><path class="cls-19" d="M45.11,32.72c-.75.34,0,1.55.72,1C46.33,33.28,45.78,32.43,45.11,32.72Z" transform="translate(0.01)"/><path class="cls-20" d="M28.15,41c4.17-.12,11.33-1.17,15.9-.4.42.07.67.14.34.35-1,.64-2.31,1.69-2.43,2.55-.24,1.76-.69,5.1-5.47,5.14-5.71,0-8.16-5.62-8.8-7.17C27.54,41.06,27.81,41,28.15,41Z" transform="translate(0.01)"/><path class="cls-21" d="M28.33,41.52a36.74,36.74,0,0,0,15.13-.62A3.32,3.32,0,0,0,41.72,43c-.26,1.14-.91,2.76-5.95,3A7.61,7.61,0,0,1,28.33,41.52Z" transform="translate(0.01)"/><path class="cls-22" d="M30.15,42a2.32,2.32,0,0,0,1.7,2.09,13.45,13.45,0,0,0,7.2.15c1.71-.41,2.77-2.75,2.77-2.75A59.13,59.13,0,0,1,30.15,42Z" transform="translate(0.01)"/><path class="cls-22" d="M30.75,44.25c-.17-.38-.14-.82.78-.52a18.66,18.66,0,0,0,5.54.53c2.39-.07,3-.87,3.39-.46S39.13,46.22,35.33,46C31,45.82,30.75,44.25,30.75,44.25Z" transform="translate(0.01)"/><path class="cls-23" d="M30.3,42.63s9.06-.87,11.05-.3a3.64,3.64,0,0,0,.47-.86A68.52,68.52,0,0,1,30.14,42,1.92,1.92,0,0,0,30.3,42.63Z" transform="translate(0.01)"/><path class="cls-23" d="M32,43.73a19.56,19.56,0,0,0,7.9,0S35.73,45.19,32,43.73Z" transform="translate(0.01)"/><path class="cls-24" d="M21.49,31.18s.8,2.73,5.41,1c1.87-.68,2.92,1.31,2.92,1.31s0-3.17-2.79-2.54C25.61,31.32,23.81,32.82,21.49,31.18Z" transform="translate(0.01)"/><path class="cls-24" d="M50.29,30.86s-.91,2.57-5.09,1A2.4,2.4,0,0,0,42.29,33S42.44,30,45,30.61C46.37,31,48,32.43,50.29,30.86Z" transform="translate(0.01)"/><path class="cls-16" d="M47.82,28.63c-.2-.69-1.86-1.44-3.52-1.3-1.82.14-3.59,1.24-3.38,2.14s1.57-.6,3.34-1C46.49,27.9,47.88,28.86,47.82,28.63Z" transform="translate(0.01)"/><path class="cls-16" d="M23.25,28.88c.08-.68,2.28-1.31,4.32-1.12,2.24.2,4.41,1.32,4.14,2.16s-1.82-.56-4-1C25,28.29,23.2,29.31,23.25,28.88Z" transform="translate(0.01)"/></g></g></g></svg>