<svg xmlns="http://www.w3.org/2000/svg" xmlns:xlink="http://www.w3.org/1999/xlink" viewBox="0 0 66 66"><defs><style>.cls-1{fill:none;}.cls-2{isolation:isolate;}.cls-3{clip-path:url(#clip-path);}.cls-4{fill:#c3b1bf;}.cls-5{fill:#e62628;}.cls-6{fill:#c21f23;}.cls-7{fill:#1f1a17;}.cls-8{fill:#ffc490;}.cls-15,.cls-9{fill:#d14f2e;}.cls-13,.cls-9{opacity:0.4;}.cls-10{fill:#b55019;mix-blend-mode:multiply;opacity:0.35;}.cls-11{fill:#ffd1a7;}.cls-12{fill:#a88888;}.cls-13,.cls-16{fill:#bc551e;}.cls-14{fill:#fab27b;}.cls-15{opacity:0.2;}.cls-16{opacity:0.3;}.cls-17{fill:#8f322d;}.cls-18{fill:#fff3e2;}.cls-19{fill:#e8dac5;}.cls-20{fill:#332823;}</style><clipPath id="clip-path" transform="translate(0.01)"><circle class="cls-1" cx="33" cy="33" r="33"/></clipPath></defs><g class="cls-2"><g id="Layer_2" data-name="Layer 2"><g id="avatars"><g class="cls-3"><rect class="cls-4" width="66" height="66"/><path class="cls-5" d="M44.33,57c-2.21-4.85-16-5.92-20.07-.71-1.72,2.2-1.74,6-1.22,9.67h22.1C45.52,62.84,45.46,59.54,44.33,57Z" transform="translate(0.01)"/><path class="cls-6" d="M33.84,60.44c7.88,0,10.16-13.11-.67-13.11C25.39,47.33,25.41,60.44,33.84,60.44Z" transform="translate(0.01)"/><path class="cls-5" d="M33.83,59.31c8.41,0,10.84-12.42-.71-12.42C24.81,46.89,24.83,59.31,33.83,59.31Z" transform="translate(0.01)"/><path class="cls-5" d="M27.11,54.19l-.86,3.31c-.83.91-1.18,4.89-1.38,8.5H18.25C18.76,59,23.13,55.06,27.11,54.19Z" transform="translate(0.01)"/><path class="cls-5" d="M40.55,54.19l.86,3.31c.82.91,1.17,4.89,1.37,8.5h6.63C48.9,59,44.53,55.06,40.55,54.19Z" transform="translate(0.01)"/><path class="cls-7" d="M48.78,22.62a4.7,4.7,0,0,0,3.19-4,2.93,2.93,0,0,1-2.07.59,3.58,3.58,0,0,0,1.75-3.55c-3.3-2.64-11.15-8-19.95-8.4-5.41-.27-11,1.12-14,6a10.73,10.73,0,0,0-1.45,3.39A4.9,4.9,0,0,1,15.35,14a3.56,3.56,0,0,0,0,4.41,4.06,4.06,0,0,0-2.79,1.19,5.54,5.54,0,0,1,2.25.33,6.41,6.41,0,0,0-.88,3.71,31.37,31.37,0,0,0,.78,7.14c.58,2.25,1.4,7.77,4.82,7.07,4.68-1,9.8-3.53,14.62-1.71,3.37,1.27,6.42,3.36,9.84,4.62,3,1.12,6,4.05,6.85-.11a27.59,27.59,0,0,0,.28-9.84C50.65,28.17,50.19,24.92,48.78,22.62Z" transform="translate(0.01)"/><path class="cls-8" d="M16.87,36.45c.72,10.81,8.08,18.08,18.44,18,11.45-.11,15.86-9.54,15.13-20.35S41.56,14.67,32.67,15.27,16.14,25.64,16.87,36.45Z" transform="translate(0.01)"/><path class="cls-9" d="M46.29,33.51c-.67-1,2-.69,2.42-.49-.19.61-1.31.12-1.7.16.22.43,1.16.58,1.48.91s.25.51-.23.42A7.17,7.17,0,0,1,46.29,33.51Z" transform="translate(0.01)"/><path class="cls-9" d="M27.8,35.25c.59-1.07-2.09-.53-2.46-.3.24.59,1.33,0,1.71,0-.18.44-1.11.67-1.4,1s-.21.54.26.41A7.08,7.08,0,0,0,27.8,35.25Z" transform="translate(0.01)"/><path class="cls-7" d="M29.4,35.76a2.85,2.85,0,0,0-2-.19c-1.35-1.16-.07-4.68,1.91-3.81C30.82,32.41,30.74,35.07,29.4,35.76Z" transform="translate(0.01)"/><path class="cls-10" d="M40.16,36.51c.43.44-.48,2.08-2.43,2.21s-3-1.55-2.27-2,1.22,0,2.33,0S39.66,36,40.16,36.51Z" transform="translate(0.01)"/><path class="cls-11" d="M40.06,36.73c1.38-1.4-.85-6.2-3.26-6-1,.08-1.68,1.51-1.81,3.35s-.07,2.7.42,3.06A4,4,0,0,0,40.06,36.73Z" transform="translate(0.01)"/><path class="cls-7" d="M46,30.57c1.13.49,1.28,2.27.6,3.23a2.52,2.52,0,0,0-1.68.64C42.63,34.07,43.88,29.64,46,30.57Z" transform="translate(0.01)"/><path class="cls-12" d="M28.32,32.49c.72-.24,1.16.86.59,1.27C28.12,34.33,27.51,32.75,28.32,32.49Z" transform="translate(0.01)"/><path class="cls-12" d="M45,31.38c.67-.22,1.08.81.55,1.19C44.84,33.1,44.27,31.63,45,31.38Z" transform="translate(0.01)"/><path class="cls-8" d="M16.08,41.62a9.78,9.78,0,0,0,3.53.29l.08-.1c.54-.72-.3-4.4-.55-5.16-.62-1.91-1.69-3.26-3.81-2.73C10.92,35,12.54,40.54,16.08,41.62Z" transform="translate(0.01)"/><path class="cls-13" d="M19.52,30.63a31.87,31.87,0,0,1,.74-4.54c.81-3.84,5.19-5.32,8.62-5.66,4.87-.49,16.54.79,17.71,2.28,1.77,2.25-1.78,2.6-3.24,2.77-3.77.43-9.12.89-19.47-.63-.44,1.25-2.52,4.12-3,12.77,0,.58-1.26-5-1.32-5.55A8.59,8.59,0,0,1,19.52,30.63Z" transform="translate(0.01)"/><path class="cls-9" d="M18.35,40.48c2-.65.67-3.84-.7-4.49-1.12-.54-4.17-.18-3,1.67,1-1.47,2.11-.29,1.75.79-.24.73-1.34.61-.39,1.7A2.53,2.53,0,0,0,18.35,40.48Z" transform="translate(0.01)"/><path class="cls-7" d="M24.47,14.38a11,11,0,0,0-4.13,3.52c-2.31,3.33-5.22,8.81-4,12.85.27.91.12,2.19.44,3.11.8,2.24,2,11,3.94,11,.72,0,2.77.49,2.42-.16C20,39,20.81,28.82,23.37,24c15.91,1.94,25-.26,24.36-3.83-.41-2.46-3.33-4.57-5.44-5.56C37.37,12.37,29.77,11.7,24.47,14.38Z" transform="translate(0.01)"/><path class="cls-14" d="M30.24,37.25a2.13,2.13,0,0,1,.55.6c1.51,2.42-4.59,3.56-5.65,2.65-2-1.71-.21-2.92,1.26-3.4C27.53,36.72,29.16,36.41,30.24,37.25Z" transform="translate(0.01)"/><path class="cls-14" d="M44.24,36.38c-.63.77-.61,1.78.73,2.43s4.05.74,4.72-.94c.92-2.31-2.32-2.86-3.8-2.5A3.12,3.12,0,0,0,44.24,36.38Z" transform="translate(0.01)"/><path class="cls-15" d="M41.08,51.17a4.46,4.46,0,0,0-3.5-1c-2,.3-2.64,1.39-2.65,1.58a2.52,2.52,0,0,1,1.82-2.49C38.34,48.74,41.22,49.36,41.08,51.17Z" transform="translate(0.01)"/><path class="cls-7" d="M45.07,28.44a4.14,4.14,0,0,1-2.49.55,2.38,2.38,0,0,1-2.17-2.17c1.24.31,2.65-.68,3.89-.82a3.07,3.07,0,0,1,3.28,1.45,2.14,2.14,0,0,1,.21.6,5.22,5.22,0,0,0-1.72,0A7.74,7.74,0,0,0,45.07,28.44Z" transform="translate(0.01)"/><path class="cls-7" d="M30.77,30c-1.43-.25-3.15-1.21-4.34,0-.23.24-.44.52-.68.74-1.22-1.65.71-4.19,2.62-4,.75.08,1.55.48,2.32.62a5.5,5.5,0,0,0,2.82-.1C33.59,29.16,32.68,30.36,30.77,30Z" transform="translate(0.01)"/><path class="cls-16" d="M44.55,39.18c.2-.08.78.53.8.73,0,.39-.43.64-.72.79a10.3,10.3,0,0,1-3.29.8,30.81,30.81,0,0,1-8.19.38,17.79,17.79,0,0,1-4.55-1,.83.83,0,0,1,.15-.11c.76-.47,1.88-.54,1.56-.68-1.71-.74-3.64.14-5,1.12,1.56-.34,3.21-.21,4.09,1.3,2.23,3.84,4.53,6.4,8.27,6.33,4.88-.08,5.9-3.32,6.5-5.48a4.31,4.31,0,0,1,1.17-2,6.27,6.27,0,0,1,2.07-1.64,4.2,4.2,0,0,1,1.73-.36C48.07,38.31,45.76,38.68,44.55,39.18Z" transform="translate(0.01)"/><path class="cls-17" d="M29.68,41.74a22.88,22.88,0,0,0,15.61-1A3.42,3.42,0,0,0,43.83,43c-.44,1.66-2,3.58-5.91,3.89C32.16,47.37,29.68,41.74,29.68,41.74Z" transform="translate(0.01)"/><path class="cls-18" d="M31.62,42.26a3,3,0,0,0,2,2.44,12.23,12.23,0,0,0,7.48.08c1.72-.51,2.55-3.3,2.55-3.3A26.32,26.32,0,0,1,31.62,42.26Z" transform="translate(0.01)"/><path class="cls-18" d="M32.51,44.94c-.22-.45-.24-1,.75-.63a17.22,17.22,0,0,0,5.8.54c2.47-.11,3-1.07,3.46-.59S41.44,47.15,37.47,47C33,46.8,32.51,44.94,32.51,44.94Z" transform="translate(0.01)"/><path class="cls-19" d="M32.36,43.86s8.28-1.14,10.41-.48a5.85,5.85,0,0,0,.89-1.9,29.2,29.2,0,0,1-12,.75A2.5,2.5,0,0,0,32.36,43.86Z" transform="translate(0.01)"/><path class="cls-19" d="M33.77,44.31a18,18,0,0,0,8.2-.13A11.64,11.64,0,0,1,33.77,44.31Z" transform="translate(0.01)"/><path class="cls-16" d="M27.18,39.57a1.46,1.46,0,0,0-.1.34c-.27,1.4.92,2.2,2,2.79a5.2,5.2,0,0,0,3.06.43,24.11,24.11,0,0,1,3.18,0,23.78,23.78,0,0,0,3.16.06c1.05-.08,2.06-.3,3.09-.44,1.85-.26,3.45-.15,4.94-1.49a2.93,2.93,0,0,0,1.27-2.7c-.06-.9-.4-1.89-1.46-1.87a2.25,2.25,0,0,0-1,.34c-.55.43.2.29.52.47.72.42.11,1.35-.52,1.38L42,39.15c-3.33.29-6.67.76-10,.72-.75,0-2.17.24-2.8-.24-.94-.72,1.29-1.39.12-1.58C28.51,37.92,27.47,38.92,27.18,39.57Z" transform="translate(0.01)"/><path class="cls-7" d="M37.81,42.94a17.9,17.9,0,0,0,3.5-.42,12.49,12.49,0,0,0,4.11-1.67c1-.64,2.45-1.49,2.31-3A1.49,1.49,0,0,0,45,37.22c.7-.43,1.37,0,1.34.51,0,.76-1,.69-1.53.64-1.7-.17-3.48-.78-5.22-.24-2.24.71-3.78-.09-6.11.26a30.91,30.91,0,0,0-3.44.88c-.57.16-1.32.26-1.46-.37a.68.68,0,0,1,1.09-.59c-.26-.53-1.29-.66-1.79-.48a1.34,1.34,0,0,0-.87,1.7c.22,1.12,1.84,1.87,2.82,2.25a19.58,19.58,0,0,0,4.67,1A20.45,20.45,0,0,0,37.81,42.94Z" transform="translate(0.01)"/><path class="cls-20" d="M15.7,31.35c.18,1.32,1,2.82,2.06.57-.34,3.28,3,8.43,2.76,6.26a27.74,27.74,0,0,1,.17-7.11,26.54,26.54,0,0,1,.53-3.41c.06-.27.74-3.25.71-3.25-.65,0-1.3-.08-1.95-.13-1.55-.14-2.91-1-4.45-1.06-.07,1.32,2.69,2.47,3.69,2.65a5.78,5.78,0,0,1-2,.11c-.72-.09-1.49-.59-2.2-.54.2,1.59,2.65,1.93,3.83,2.44a4.74,4.74,0,0,1-1.35.14c-.33,0-1-.23-1.28-.1C15.26,28.31,15.61,30.56,15.7,31.35Z" transform="translate(0.01)"/><path class="cls-20" d="M20.62,22.44S30.69,25.14,40,23.87s7.95-4.14,7.95-4.14S48,21,38.06,22.38A60.21,60.21,0,0,1,20.62,22.44Z" transform="translate(0.01)"/><path class="cls-20" d="M35.68,39c-1.71-.71-5.57.57-5,1.2s2.33.32,2.33.32a1.21,1.21,0,0,0,.79,1.06c.74.21,2.12-.79,2.12-.79a1,1,0,0,0,1,1.06c1,0,1.85-1.12,1.85-1.12s.64,1.08,1.65.9a1,1,0,0,0,.9-1.06,3.46,3.46,0,0,0,2,.37c.75-.22.31-1.27.31-1.27a2.35,2.35,0,0,0,2-.1c1.11-.53-1.17-.53-2.55-.8a6.1,6.1,0,0,0-3.65.16A4.22,4.22,0,0,1,35.68,39Z" transform="translate(0.01)"/><path class="cls-20" d="M30.67,22a32.64,32.64,0,0,0,14.81-2.7,13.8,13.8,0,0,0,5.09-3.78c-1.88-.68-10-5.75-16-6.79C23.7,6.81,16.06,13.71,20,17.19c2.84,2.54,6.86,2.11,10.29,1.61-2.23,1.57-9.52,1.31-12.77.38C20,20.52,23.2,21.68,30.67,22Z" transform="translate(0.01)"/></g></g></g></g></svg>