<svg xmlns="http://www.w3.org/2000/svg" xmlns:xlink="http://www.w3.org/1999/xlink" viewBox="0 0 66 66"><defs><style>.cls-1{fill:none;}.cls-2{clip-path:url(#clip-path);}.cls-3{fill:#c0b9ab;}.cls-4{fill:#fdd281;}.cls-5{fill:#f4bb6e;}.cls-6{fill:#ffcb9e;}.cls-7{fill:#1e1e29;}.cls-8{fill:#379bdb;}.cls-9{fill:url(#linear-gradient);}.cls-10{fill:#8dc7eb;opacity:0.5;}.cls-11{fill:#535361;}.cls-12,.cls-13{fill:#bf3c1b;}.cls-12{opacity:0.15;}.cls-13{opacity:0.2;}.cls-14{fill:#ffe8bd;}.cls-15{fill:#ffb387;}.cls-16{fill:#a16b43;}.cls-17{fill:#305d80;}.cls-18{fill:#86bae3;}.cls-19{fill:#121b21;}.cls-20{opacity:0.8;}.cls-21{fill:#f04d4d;}</style><clipPath id="clip-path"><circle class="cls-1" cx="33" cy="33" r="33"/></clipPath><linearGradient id="linear-gradient" x1="3366.34" y1="52.23" x2="3366.34" y2="55.77" gradientTransform="translate(-3332.04)" gradientUnits="userSpaceOnUse"><stop offset="0" stop-color="#eea17a"/><stop offset="0" stop-color="#eea17a"/><stop offset="0.36" stop-color="#f7b88e"/><stop offset="0.7" stop-color="#fdc69a"/><stop offset="1" stop-color="#ffcb9e"/></linearGradient></defs><g id="Layer_2" data-name="Layer 2"><g id="avatars"><g class="cls-2"><rect class="cls-3" width="66" height="66"/><path class="cls-4" d="M13.15,49.73C7.8,59.53,23,62,30.58,55.46c3.23-2.79,5.82,4.55,9.72,4.9,5.28.47,8.06-3.32,7-6.7.89,2.83,4,3,6.41,2a6.07,6.07,0,0,0,3.54-6,3.85,3.85,0,0,1-4.34.87A2.91,2.91,0,0,1,51.53,46c1.46-2.08,5.61-4.72,1.56-6.92a3,3,0,0,0,2.72.05c3.33-1.52,1.92-8.62-1.84-6.33,2.55-.09.09,4-1.34.91-.9-1.93,1.18-2.87,2.11-4.15a7.41,7.41,0,0,0,1.32-5.36c-.45-5.24-5.27-8.54-8-12.57-3-4.4-7.3-7.21-12.8-5.23a9,9,0,0,0-3.44,2.53,5.37,5.37,0,0,0-1.72-2.4c-.08.78-.12,1.57-.15,2.37-3-1.83-7.67-1.09-10.27.6-3.54,2.29-3.2,5.81-4.63,9.25-1.3,3.15-5.44,6.81-5.18,10.46.17,2.28,1.8,3.46,1.69,5.82-.09,2-2.22,3-1.25,4.94s5,1.27,2.94,4.56c-1.87,3-5.53-.55-3.24-1-2.53-1.24-3.59,2-3.21,4C7.28,50.23,11.1,50.29,13.15,49.73Z"/><path class="cls-5" d="M15.66,51.47c-1.47,1.36-1.92,2.47.18,3.83,3.4,2.2,8.17,2.33,13.54.53C31.94,55,40.21,59.55,43,58.07c2.27-1.19,3-2.38,3.87-6.47.73.91,1.71,2.41,3.06,2.4-1-2-.72-4.51-.47-6.6s1.69-3.58,1.73-5.6c0-.72-.38-2.17-.13-2.8s1.61-1.44,2.13-2a3.44,3.44,0,0,1-1.94-2.27c-.49-2,1.1-3.6,1.15-5.52s-4.95-10.6-7-7.52c-.49.71,2.28,4.92,1.67,5.57a6.14,6.14,0,0,1-2.63,1.42A81.36,81.36,0,0,1,32.54,30.9c-2.45.37-4.85,1-7.3,1.38a13,13,0,0,1-4.86.21c-1.83-.43-1.84-2.21-3.37-3-2.92-1.48-5.27,1.56-4.85,4.33a8.3,8.3,0,0,0,1.94,3.59c1.32,1.54,2.93,2,3.81,4A8.55,8.55,0,0,1,15.66,51.47Z"/><path class="cls-6" d="M45.77,66c-.14-.81-.67-5.72-.87-6.63l-3.39.73c.19.86.53,5,.64,5.9Z"/><path class="cls-7" d="M39.31,61.37c-.43-2-1-2.65-1.19-2.67l.57-6.27c2,.18,5.44,1.4,6.78,7.62Z"/><path class="cls-6" d="M23,66c.14-.81.67-5.72.87-6.63l3.38.73c-.18.86-.52,5-.63,5.9Z"/><path class="cls-7" d="M29.46,61.37c.42-2,1-2.65,1.19-2.67l-.57-6.27c-2,.18-5.44,1.4-6.78,7.62Z"/><path class="cls-8" d="M39.83,66a29.17,29.17,0,0,1,.94-4.7c1.1-4.1,1.22-6.58-1.31-7.41s-7-1.08-9.71.07c-2.15.92-2.84,2.41-1.37,7A25.61,25.61,0,0,1,29.61,66Z"/><path class="cls-9" d="M37.44,53.69c-.53-.94-.06-2.44,0-4,.21-3.62-6-3.76-6,.2,0,1.75.13,3.09-.23,3.66C28.69,57.42,39.78,57.89,37.44,53.69Z"/><path class="cls-10" d="M30.16,60c.42,1.34,2.6,1.69,4.49,1.66,3.74-.06,5.14-1.44,4.5-3.1-.17-.44-1-.74-1.92-.41A10.36,10.36,0,0,1,31.47,58C30.42,57.77,29.84,59,30.16,60Z"/><path class="cls-7" d="M31.33,52.62s-4.51,1-5,1.69c-2.14,2.85,1.47,7.27,1,11.69h5.17A83.09,83.09,0,0,0,31.33,52.62Z"/><path class="cls-11" d="M31.67,55.25c-.35-.61-5.4.6-5.27,1.12.1.36,2.75,5.68,4.46,9.63h1.79C32.84,61.21,32.2,56.18,31.67,55.25Z"/><path class="cls-11" d="M31.46,51.2c-2.52,1-5.79,2.2-5.84,2.63S32,56.77,32,56.33,31.46,51.2,31.46,51.2Z"/><path class="cls-7" d="M37.43,52.62s4.51,1,5,1.69c2.14,2.85-1.47,7.27-1,11.69H36.29A84.25,84.25,0,0,1,37.43,52.62Z"/><path class="cls-11" d="M37.1,55.25c.34-.61,5.4.6,5.26,1.12-.1.36-2.74,5.68-4.46,9.63H36.12C35.93,61.21,36.57,56.18,37.1,55.25Z"/><path class="cls-11" d="M37.31,51.2c2.51,1,5.78,2.2,5.84,2.63s-6.38,2.94-6.33,2.5S37.31,51.2,37.31,51.2Z"/><path class="cls-6" d="M50.25,30.69C49.83,19.21,41.31,14.31,33,15.38s-15,7.8-13.9,19.39S28,53.36,36.4,53.29C42.87,53.24,50.68,42.66,50.25,30.69Z"/><path class="cls-6" d="M16.46,38.15a7.8,7.8,0,0,0,3.26.11l.06-.1c.47-.81-.48-4.68-.74-5.47-.67-2-1.72-3.37-3.64-2.69C11.4,31.41,13.15,37.2,16.46,38.15Z"/><path class="cls-12" d="M22,28.55c0,.32-.05.64-.06.95,0,1.41,1.24,3.61,1,5-.43,2.56-2.3,4.29.07,6.58-2.34,1.29-4.81-.08-5-1.63-.39-3.86,1.65-4.46-.29-6.29-4-3.71-.69-4.15-.42-6.41s2.42-4.56,3.68-6.51c1.77-2.75,5-4,8.05-4.71a42.49,42.49,0,0,1,13.68-.7c2.13.23,5.22.36,6.38,2.47,1,1.73,1.78,5.34,1.11,7.23-.45,1.27-2.68.53-3.75.66a5.81,5.81,0,0,0-3.91,2.47c-1.73,2.37-2.78,4.09-6.93,4.09-2.55,0-5.62-3.74-3.53-5.89a3.14,3.14,0,0,0-1.8.33c-1.74.69-7.93,3-7.45-1.25A20.71,20.71,0,0,0,22,28.55Z"/><path class="cls-13" d="M18.76,36.91c1.84-.81.43-4.13-.86-4.75-1.06-.51-3.84,0-2.71,2,.81-1.62,1.93-.43,1.65.74-.19.79-1.2.73-.28,1.83A2.07,2.07,0,0,0,18.76,36.91Z"/><path class="cls-4" d="M43.22,25.16a7.39,7.39,0,0,1,3.35-.6c2.6,0,3.5-1.94,3.38-4.43-.32-6.74-6.76-10.2-12.72-10.73a43.2,43.2,0,0,0-5.08-.61,19,19,0,0,0-8.33,2.44C20,13.27,17.51,17.9,16.39,22a16.41,16.41,0,0,0-.48,7.56c.47,2.2,3.31,3,3.48,5.29.07,1-.82,1.78-.8,2.75a3.19,3.19,0,0,0,1,2.18,5.41,5.41,0,0,0,2.41.73c-1.59-1.74-.06-2.76.09-4.46a13.21,13.21,0,0,0-.59-4.53,6.94,6.94,0,0,1,2.09-8.15c.25,3.12,3.44,3,5.72,2.54,1-.2,4-1.41,4.54.15.32,1-1.23,1.8-1.58.7,0,1.65,0,3,2,3.43a6.13,6.13,0,0,0,7-3A5.28,5.28,0,0,1,43.22,25.16Z"/><path class="cls-14" d="M46.4,21.56a12,12,0,0,1-4.94,3.56,16.31,16.31,0,0,0-2.37,1.5c-1.09.7-3.11,1.49-4.42.87,1.51-1,.56-3.11-.89-3.44-1.82-.41-3.73.78-5.57.14-6-2.08,2.68-3.61,4.2-4.63a4.63,4.63,0,0,0,1.87-4.51,14.45,14.45,0,0,0-2.36-4.19,7,7,0,0,1,3.26-2c3.43-.92,8.4.75,10.49,3.67C48.24,16.12,48.19,19.18,46.4,21.56Z"/><path class="cls-14" d="M19.57,26.89a6.17,6.17,0,0,0,.52,4c-1.71-.2-4.11-2.41-4.87-3.94-.93-1.86.12-3.24,1.22-4.84,3.23-4.68,1.7-11.22,9.29-11.73,3.91-.27,5.37,3,3.34,6.25C26.6,20.55,20.94,22,19.57,26.89Z"/><path class="cls-15" d="M47.72,37.63a1.91,1.91,0,0,1,.16.51c.27,1.87-3.68,1-4.07.2-.73-1.55.65-1.84,1.65-1.77A2.7,2.7,0,0,1,47.72,37.63Z"/><path class="cls-15" d="M28.42,37.5a1.65,1.65,0,0,1,.26.55c.61,2.1-3.87,2.05-4.44,1.18-1.07-1.63.4-2.29,1.52-2.44A2.78,2.78,0,0,1,28.42,37.5Z"/><path class="cls-16" d="M49.35,29.33c-1.21-1.51-5.68-1.55-7.33.17C44.22,29.71,46.05,29.06,49.35,29.33Z"/><path class="cls-13" d="M38.74,38.29c.28.31-.58,1.17-1.62,1.26s-2.07-.94-1.54-1.23.82,0,1.56,0S38.42,37.92,38.74,38.29Z"/><path class="cls-16" d="M22.44,29c1.82-1.59,6.86-1.73,8.37.2C28,29.31,26.56,29.12,22.44,29Z"/><path class="cls-17" d="M27.63,35.54a3,3,0,0,0-2.11,0c-1.51-1.19-.4-5.18,1.77-4.37C28.9,31.73,29,34.69,27.63,35.54Z"/><path class="cls-18" d="M27.62,32.44c.8-.11,1.05,1.18.38,1.52C27.06,34.42,26.73,32.58,27.62,32.44Z"/><path class="cls-17" d="M46.36,31.17c1.17.74,1.08,3,.25,4.12a2.63,2.63,0,0,0-1.91.31C42.28,34.87,44.19,29.78,46.36,31.17Z"/><path class="cls-18" d="M46.24,32.25c.76,0,.86,1.33.19,1.58C45.5,34.18,45.38,32.27,46.24,32.25Z"/><path class="cls-19" d="M51.17,31.85a4.12,4.12,0,0,1-5.07.37,1.83,1.83,0,0,0-2.32.44s.65-2.37,2.64-1.6C47.49,31.47,48.73,32.67,51.17,31.85Z"/><path class="cls-19" d="M20.73,32.14a4.52,4.52,0,0,0,5.31.19,2.09,2.09,0,0,1,2.42.19s-.54-2.35-2.62-1.29A6.45,6.45,0,0,1,20.73,32.14Z"/><g class="cls-20"><path class="cls-21" d="M27.88,40.59c1.13,2.14-1.56,3.14-2.65,1A2,2,0,0,0,27.88,40.59Z"/><path class="cls-21" d="M43,40.27a1.51,1.51,0,1,0,2.88.82A2.24,2.24,0,0,1,43,40.27Z"/><path class="cls-21" d="M35.16,47.73a9.6,9.6,0,0,1-8.5-5.11.5.5,0,0,1,.34-.71.69.69,0,0,1,.83.34,8.35,8.35,0,0,0,7.6,4.37c3.71,0,6.91-1.92,8-4.89a.62.62,0,0,1,.8-.32.57.57,0,0,1,.41.72c-1.23,3.43-4.86,5.65-9.13,5.61Z"/></g></g></g></g></svg>