<svg xmlns="http://www.w3.org/2000/svg" xmlns:xlink="http://www.w3.org/1999/xlink" viewBox="0 0 96 96"><defs><style>.cls-1{fill:none;}.cls-2{clip-path:url(#clip-path);}.cls-3{fill:#ffe477;}.cls-4{fill:#93aebf;}.cls-5{fill:#ff697c;}.cls-6{fill:#00315e;opacity:0.15;}.cls-7{fill:#9c552c;}.cls-8{fill:#e0e0e0;}.cls-9{fill:#864427;}.cls-10,.cls-25,.cls-27{opacity:0.3;}.cls-11{fill:#fff9f0;}.cls-12{fill:#70442d;}.cls-13,.cls-14{fill:#66241b;}.cls-13,.cls-20,.cls-29{opacity:0.7;}.cls-14,.cls-19{opacity:0.4;}.cls-15{fill:#4cb5cf;}.cls-16{fill:#9ddded;}.cls-17{fill:#d17642;}.cls-18{fill:#261b18;}.cls-19{fill:#661004;}.cls-20{fill:#f0ded1;}.cls-21{fill:#121b21;}.cls-22{fill:#ff4564;opacity:0.8;}.cls-23{fill:#732e2b;}.cls-24{fill:#e8dac5;}.cls-25{fill:#b54d26;}.cls-26{fill:#3a3a4a;}.cls-27,.cls-28,.cls-29{fill:#fff;}.cls-30{fill:#c1c5c9;}</style><clipPath id="clip-path" transform="translate(0)"><circle class="cls-1" cx="48" cy="48" r="48"/></clipPath></defs><g id="Layer_2" data-name="Layer 2"><g id="Layer_4" data-name="Layer 4"><g class="cls-2"><rect class="cls-3" width="96" height="96"/><path class="cls-4" d="M76.88,53.56c1.2-7,1.76-12.8-2.38-17.84-.37-.45-1.72-1.2-2-1.68C65.67,24.16,51,19.21,39.55,19.21a22,22,0,0,0-15.67,7.16c-3.87,4.33-5.19,10.14-5.5,17-.13,3-.48,11.45-4.91,11.32,2.16,1.66,5,2.2,5.82,0,0,11.21,13.45,29.39,18.42,32.38a18.35,18.35,0,0,0,11.21,2.41A21.74,21.74,0,0,0,66.6,76.81c1.44-3.17,2.81-6.37,4-9.64,1.08-2.92,1.28-6.51,3-9.1,1.72,1.84,5.59,1.81,6.82.57C77.93,57.81,76.6,55.13,76.88,53.56Z" transform="translate(0)"/><path class="cls-5" d="M61.86,95.45A19.05,19.05,0,0,0,66,86.65c.38-1.63,1.36-3,1.52-4.74,1.91.31,4.1-1.08,5.15-2.61-3.37-.29-3.34-3.12-2-5.42,1.73-2.84,4.3-5.65,5-9a9.25,9.25,0,0,0-.53-5.4c-1-2.54-.58-5.14-.61-7.8-.3.74-2,5.7-1.68,6.3a28.46,28.46,0,0,1-1.19-3.14c.55,3.44-.3,11-5,13.68C64.83,69.58,66.52,72.59,65,74c-.62.59-1.47.79-2,1.52a5.05,5.05,0,0,0-.69,4.59c-2.61,0-2.31-1.9-2.84-3.73.24.85-.95,3.33-1.68,3.8-1.42.91-3.69.21-5.18,0-4.43-.75-7.88-.1-12.16.17a7.29,7.29,0,0,1-5.81-3.16,13.27,13.27,0,0,1-.44,3.12c-6.1-3-2-9.92-5.32-14a4.28,4.28,0,0,1-2.76,3.13c-1.18-1.83-2-6.13-3.26-9.52-1.14,5.3-3.6-4.15-2.65-9.08-2.54,4.4-2,10.43-.7,12.71a29.2,29.2,0,0,1,3.25,7.57c1.11,4.74-3.32,12.64,3.66,14.24-1.27-1.85.09-3.43-.19-5.21,3.79,3.32.81,9.16,4.86,15.65,3.44-.86,5-3.1,6.23-4.79a11.34,11.34,0,0,0,2.21,5H57.36a10.54,10.54,0,0,0,2.22-4.16A11.75,11.75,0,0,0,61.86,95.45Z" transform="translate(0)"/><path class="cls-6" d="M57.55,86a9,9,0,0,0,1.77-1.06c3.79-2.88-2.14-5.51-1.61-8.64.21-1.23,2.65-2.44,2.58-3.17.09,1,1.25,1.67,1.2,2.77,2.33-2.41,1.77-5.63,3.63-8.14,1.27-1.71,3.24-3,4.17-4.91,1.16-2.45-.31-5.37.24-8,.64-3,2.88-9.74.22-12.26-1.74-1.65-3.88-.88-5.94-1a19.07,19.07,0,0,1-7.1-2.15c-3.88-2.06-6.93-5.52-10.5-8-4.55-3.22-14.67-7.89-19-.34-2.25,3.88-1.74,9.14-2.07,10.85-.7,3.61-3.78,5.84-4.1,9.56-.22,2.6,1.05,4.79,2.65,6.73A14.35,14.35,0,0,1,26,60.94c.48,1.11.13,2.13,1.2,3.06.91.79,2.17.85,3.17,1.47s1.12,1.25,1.55,2.22a12.66,12.66,0,0,1,1.28,3.48c.06.44.22,3.37-.4,3.52a5.7,5.7,0,0,0,2.12-.56,20,20,0,0,0,2-2.21c.4,1.24.87,2.1,1.07,3,.53,2.54-1.12,3.79-1.61,6s1,4.71,3,5.85c2.4,1.37,5.77.72,8.43.74C50.77,87.6,54.59,87.35,57.55,86Z" transform="translate(0)"/><path class="cls-7" d="M36.66,80.85C32.65,83,31,89.69,29.52,96h5.24c1.08-4.09,2.41-7.94,4.53-9.72C41,84.82,39,79.59,36.66,80.85Z" transform="translate(0)"/><path class="cls-7" d="M60.14,80.85c-2.35-1.26-4.38,4-2.64,5.43C59.62,88.06,61,91.91,62,96h5.24C65.83,89.69,64.14,83,60.14,80.85Z" transform="translate(0)"/><path class="cls-7" d="M56.41,78.13c-1-.73-2.36-.86-3.21-1.23-1.63-.71-1.79-2.1-2.22-3.22-.84-2.24-5-2.67-5.41-.19-.66,4.34-4.33,3.82-6.65,5.17-4.7,2.73-1.89,5.18,1.65,8.72,3.93,3.92,10.82,4.49,16.2-.38C60.65,83.48,59,80,56.41,78.13Z" transform="translate(0)"/><path class="cls-8" d="M55.28,88.88c4.29,0,9.1-5.56,9.1-5.56s-4.9-4.47-8.15-5.72C56.23,77.6,51,88.88,55.28,88.88Z" transform="translate(0)"/><path class="cls-7" d="M38.88,88.07A71.39,71.39,0,0,0,40.74,96H56.06c.25-2.24.41-5.1.81-7.7C57.2,86.19,38.52,84.89,38.88,88.07Z" transform="translate(0)"/><path class="cls-9" d="M39.17,89.74c.36,5.38,18.11,4.68,17.68-1.21C56.62,85.37,38.93,86.2,39.17,89.74Z" transform="translate(0)"/><path class="cls-8" d="M36.82,80a9,9,0,0,0-4.28,4s4.15,8,16,7.91c8.73-.08,9.68-5.49,9.68-5.49s1-6.15-2-8.83C56.23,77.6,51.15,84.61,36.82,80Z" transform="translate(0)"/><path class="cls-9" d="M45.31,74.48c-.4,2.2,6.25,2.34,6.19.66C51.37,71.29,46,70.55,45.31,74.48Z" transform="translate(0)"/><path class="cls-10" d="M60.15,65.56c0,4.17,3.05,7.45,6.72,7.33s6.61-3.59,6.57-7.75-3-7.44-6.72-7.33S60.1,61.4,60.15,65.56Zm1.8-.77c0-3,2.08-5.46,4.7-5.54s4.78,2.26,4.81,5.24S69.39,70,66.76,70,62,67.77,62,64.79Z" transform="translate(0)"/><path class="cls-11" d="M60.89,64.58c0,4.12,3,7.36,6.63,7.23s6.53-3.54,6.49-7.65-3-7.35-6.64-7.23S60.84,60.47,60.89,64.58Zm1.63-.67c0-3,2.07-5.46,4.7-5.55S72,60.63,72,63.61s-2.07,5.47-4.7,5.55S62.55,66.9,62.52,63.91Z" transform="translate(0)"/><path class="cls-7" d="M68.44,44.27C66.76,29.34,59,22.41,47.63,22.49c-17.07.12-24.46,11-19.41,25.89.69,15.23,11.74,27.37,23.71,26C61.86,73.32,70.31,61,68.44,44.27Z" transform="translate(0)"/><path class="cls-12" d="M27.24,45.67c.91-.13,1.37,1.11,3.15.35-.64-9.31,3.44-11.89,6.48-13,2.21-.78,0-1.55-1.61-3.29C34,28.45,32.53,27,30.88,28.36,29.38,29.59,24.64,34.47,27.24,45.67Z" transform="translate(0)"/><path class="cls-7" d="M26.79,57.93a8.21,8.21,0,0,0,4,0l.08-.16c.56-1.2-.7-6.87-1-8C29,46.86,27.66,44.89,25.3,46,20.37,48.22,22.66,56.67,26.79,57.93Z" transform="translate(0)"/><path class="cls-13" d="M28.93,55.59c2.14-1.19.42-5.74-1.1-6.55-1.24-.67-4.48.21-3.12,2.81.92-2.28,2.24-.67,1.94,1-.2,1.11-1.39,1-.29,2.55C27,56.17,28.26,56,28.93,55.59Z" transform="translate(0)"/><path class="cls-14" d="M43.89,25.89c1.11.19,2.13.41,3,.58,9.62,1.89,20.6,3.82,23.1,15,1.33,6-6.33,3.85-9.24,2.57-4.88-2.16-9.64-7.67-15.14-7-3,.39-4.85.82-7.78-.4-2.74-1.15-10.74-8.6-6.94-13.07C33.09,21,40,25.2,43.89,25.89Z" transform="translate(0)"/><path class="cls-15" d="M38,34.71c3.14,1.94,5.62,1,9,.71,3-.26,5.53,1,7.89,2.67a59.57,59.57,0,0,0,13.8,7.62c3.5,1.22,10.37,1.28,14,.48-2-3-2.94-7.59-4.31-11.11-.37-1-3.71-7.95-4.3-8a5.37,5.37,0,0,1,1.68.36,16.55,16.55,0,0,0-2.61-4.13C68.67,18,60.75,16.1,54.23,15.88c.44,0,1.43-.33,2.13-.43A18.18,18.18,0,0,0,47.21,14c-6.27.61-21.76,5.67-15.9,14.75A29.69,29.69,0,0,0,38,34.71Z" transform="translate(0)"/><path class="cls-10" d="M23.43,65.26c-.2,4.24,2.69,7.75,6.42,7.84s6.93-3.28,7.13-7.52-2.69-7.75-6.44-7.84S23.62,61,23.43,65.26Zm2.15-1c.13-2.85,2.27-5.11,4.78-5s4.45,2.41,4.32,5.26-2.27,5.11-4.78,5S25.45,67.12,25.58,64.27Z" transform="translate(0)"/><path class="cls-11" d="M23.84,64.58c0,4.12,3,7.36,6.64,7.23S37,68.27,37,64.16s-3-7.35-6.64-7.23S23.8,60.47,23.84,64.58Zm1.63-.67c0-3,2.08-5.46,4.7-5.55S35,60.63,35,63.61s-2.08,5.47-4.71,5.55S25.5,66.9,25.47,63.91Z" transform="translate(0)"/><path class="cls-16" d="M50.9,17c-2.18,1-4.6.9-6.67,2.17,0,0-.09.22-.1.24,9.55-2.79,19-.73,27.08,4.82C66.52,22.76,60.67,21.42,55.82,23c8.75.41,16.28,7,20.43,14.13A21.29,21.29,0,0,1,78,40.31c-9.13.32-16.53-4-23.55-9.4a9.17,9.17,0,0,1,.49,1.81c-3.56-1.26-7.4-2-9.77-5.24.63.86-2.63,1.15-2.75,1.16A11.62,11.62,0,0,1,37,27c-3.91-2.18-3.82-5.66.06-7.95S46.51,16.51,50.9,17Z" transform="translate(0)"/><path class="cls-17" d="M67,54.25a2,2,0,0,1,.22.7c.37,2.58-5.06,1.43-5.6.29-1-2.14.89-2.55,2.28-2.45C65,52.87,66.41,53.16,67,54.25Z" transform="translate(0)"/><path class="cls-17" d="M40.41,54.07a2.56,2.56,0,0,1,.37.76c.84,2.9-5.34,2.82-6.12,1.63-1.48-2.25.54-3.16,2.08-3.37C37.92,52.93,39.59,52.94,40.41,54.07Z" transform="translate(0)"/><path class="cls-18" d="M69.24,42.82c-1.67-2.09-7.82-2.13-10.09.23C62.17,43.34,64.7,42.44,69.24,42.82Z" transform="translate(0)"/><path class="cls-19" d="M54.63,55.16c.38.43-.8,1.61-2.24,1.73-1.27.11-2.84-1.29-2.12-1.69s1.13,0,2.16,0S54.19,54.66,54.63,55.16Z" transform="translate(0)"/><path class="cls-18" d="M32.18,42.4c2.5-2.19,9.45-2.37,11.52.29C39.76,42.79,37.85,42.54,32.18,42.4Z" transform="translate(0)"/><path class="cls-18" d="M39.32,51.38a4,4,0,0,0-2.9-.08c-2.08-1.63-.55-7.13,2.43-6C41.07,46.13,41.21,50.2,39.32,51.38Z" transform="translate(0)"/><path class="cls-20" d="M37.37,46.61c1.09-.16,1.44,1.62.51,2.08C36.59,49.33,36.13,46.8,37.37,46.61Z" transform="translate(0)"/><path class="cls-18" d="M65.13,45.35c1.61,1,1.48,4.19.33,5.68a3.61,3.61,0,0,0-2.63.42C59.5,50.45,62.13,43.44,65.13,45.35Z" transform="translate(0)"/><path class="cls-20" d="M63,46.34c1,0,1.19,1.83.27,2.18C62,49,61.82,46.38,63,46.34Z" transform="translate(0)"/><path class="cls-21" d="M71.75,46.29s-2.74,2.88-7,.51a2.55,2.55,0,0,0-3.2.6s.9-3.25,3.64-2.2C66.69,45.77,68.38,47.42,71.75,46.29Z" transform="translate(0)"/><path class="cls-21" d="M29.82,46.69a6.24,6.24,0,0,0,7.32.27,2.83,2.83,0,0,1,3.32.25s-.74-3.23-3.61-1.77C35.75,46,33.21,47.67,29.82,46.69Z" transform="translate(0)"/><path class="cls-22" d="M51.78,58.5c4.88-.09,8.06.84,11.3.1-1,.65-3.69,3.57-4,4.71-.82,2.7-2.65,7.28-7.83,6.88-4.13-.32-7.38-3-12.56-11.86C41.81,60.2,47.75,58.58,51.78,58.5Z" transform="translate(0)"/><path class="cls-23" d="M41.07,59.9a40.52,40.52,0,0,0,19.87,0,5.56,5.56,0,0,0-2.64,3c-.8,2-3.54,3.36-7.67,3.22C44.18,65.88,41.07,59.9,41.07,59.9Z" transform="translate(0)"/><path class="cls-11" d="M43.46,60.46A3.23,3.23,0,0,0,45.92,63a20.87,20.87,0,0,0,9.38.55c2.21-.32,3.34-3.12,3.34-3.12A43.45,43.45,0,0,1,43.46,60.46Z" transform="translate(0)"/><path class="cls-11" d="M44.51,63.07c-.22-.47-.12-1.22.93-.51,1.46,1,3.91,1.24,6.86,1.17,2.74-.06,4.14-.88,4.67-.36S55,66.79,50.31,66.18C45.42,65.54,44.51,63.07,44.51,63.07Z" transform="translate(0)"/><path class="cls-24" d="M44,61.74s11-.81,13.68.23a6,6,0,0,0,.93-1.55,50.3,50.3,0,0,1-15.18,0A2.94,2.94,0,0,0,44,61.74Z" transform="translate(0)"/><path class="cls-24" d="M46.31,62.94a15.28,15.28,0,0,0,8.7.51S50.23,65.45,46.31,62.94Z" transform="translate(0)"/><path class="cls-25" d="M58.29,54.66a5.27,5.27,0,0,1-1.39-1.58,4.94,4.94,0,0,1-.19-4.2c.73-1.87,2.81-2,4.53-2.08,2.09-.13,4.2,0,6.27-.18a23.25,23.25,0,0,1,2.77.14c1.19.07,3.76-.25,2.4-2S68.7,43,66.77,43a28.55,28.55,0,0,0-5.89.77,24.9,24.9,0,0,0-5.1,1.28c-1.41.69-2,1.14-3.69,1-3-.19-5.48-2.13-8.47-2.52s-6.3-.85-9.4-.07c-.81.2-3.25,1-1.64,2s4,.68,5.72.79c.8,0,1.61.09,2.42.18,2.84.33,7.25,0,6.93,3.61-.22,2.44-1.86,4.92-3.86,5.33a26.51,26.51,0,0,1-5.89.46,10.32,10.32,0,0,1-4.23-1c-.38-.19-1.5-.95-1.89-.44-.65.86,1.64,2.38,2.24,2.66a13.77,13.77,0,0,0,4.35,1.09c3.71.49,7.55.39,9.74-3,1.27-2,1.94-4.27,3.12-6.28,1.93-3.29,2.69,1.25,3.22,3.25a10.1,10.1,0,0,0,1.41,3.16,7.54,7.54,0,0,0,5.48,2.79A8.43,8.43,0,0,0,65,57.67c.7-.28,1-1.07.17-1.4a6.49,6.49,0,0,0-1.82-.12,16.16,16.16,0,0,1-2.3-.24A7,7,0,0,1,58.29,54.66Z" transform="translate(0)"/><path class="cls-26" d="M26.65,44.73a4.24,4.24,0,0,0,1.92.69c.12,1.72-.08,6.12,3,9,2.56,2.38,11.09,3.26,13.78,2,3.33-1.58,4.8-4.62,5.46-7.63,1.6-7.39-16-6.67-19.52-6.64-2.45,0-4.54-.71-5.12-.23C25.39,42.51,26.65,44.73,26.65,44.73Zm4.45.78c3.16-1.8,14.85-.81,17.5,1.32,1.29,1-.54,6-3,7.56-3.3,2-11.58.83-13.68-1.88C30.27,50.41,30.07,46.09,31.1,45.51Z" transform="translate(0)"/><path class="cls-26" d="M76.25,42.21c-.53-.49-2.42.22-4.64.17-3.14-.07-19.06-1-17.72,6.4.56,3,1.85,6.08,4.83,7.7,2.42,1.3,10.13.53,12.48-1.81,2.81-2.83,2.69-7.24,2.82-9a3.64,3.64,0,0,0,1.74-.67S76.93,42.84,76.25,42.21ZM70.93,52.76c-1.93,2.7-9.43,3.78-12.38,1.72-2.24-1.57-3.82-6.58-2.64-7.6,2.42-2.09,13-2.94,15.82-1.11C72.65,46.38,72.42,50.69,70.93,52.76Z" transform="translate(0)"/><path class="cls-27" d="M58,46.26c1.94-.78,11.84-1.43,13-.4.8.75-2.05,1.88-3.37,2.1a23.5,23.5,0,0,1-7.52.12C59.36,48,56.23,47,58,46.26Z" transform="translate(0)"/><path class="cls-28" d="M65.74,46c2-.28,5.48.06,5.1.68s-5.93,1-6.42.14C64.17,46.39,64.79,46.13,65.74,46Z" transform="translate(0)"/><path class="cls-29" d="M59.6,52.76c1.26.08,3.33.86,3,1.29s-3.75-.11-3.93-.84C58.59,52.83,59,52.72,59.6,52.76Z" transform="translate(0)"/><path class="cls-29" d="M33.81,51.93c1.31.24,3.38,1.28,3,1.66s-3.91-.57-4-1.32C32.75,51.88,33.19,51.82,33.81,51.93Z" transform="translate(0)"/><path class="cls-27" d="M33.11,45.4c1.15-.94,12,.13,14.2,1,2,.76-1.38,1.56-2.11,1.64A30.16,30.16,0,0,1,37,47.55C35.5,47.28,32.29,46.07,33.11,45.4Z" transform="translate(0)"/><path class="cls-28" d="M42.59,45.62c2.14,0,5.73.75,5.25,1.31s-6.33.24-6.73-.66C40.9,45.81,41.58,45.63,42.59,45.62Z" transform="translate(0)"/><path class="cls-26" d="M48.39,44.28c3.15,1.2,5.37,1.09,7.67.1s0,.84-.46,1.34-.5,6.05-1.52,4-2.7-2-3.58.24-.38-1.54-.63-2.79S46,43.38,48.39,44.28Z" transform="translate(0)"/><path class="cls-30" d="M48.32,45.31c-2.57-2.21-7-2.79-15.9-2.44C39.05,43.36,44.35,43.67,48.32,45.31Z" transform="translate(0)"/><path class="cls-30" d="M56.92,45c2.23-2,6-2,14.11-2.09C65,43.67,60.47,43.44,56.92,45Z" transform="translate(0)"/></g></g></g></svg>