<svg xmlns="http://www.w3.org/2000/svg" xmlns:xlink="http://www.w3.org/1999/xlink" viewBox="0 0 66 66"><defs><style>.cls-1{fill:none;}.cls-2{clip-path:url(#clip-path);}.cls-3{fill:#7997a0;}.cls-4{fill:#f0d5c4;}.cls-5{fill:#eb2628;}.cls-6{fill:#ffa763;}.cls-7{fill:#8e9194;}.cls-8{fill:#141418;}.cls-9{fill:#d9d9d9;}.cls-10,.cls-11{fill:#fff;}.cls-11{opacity:0.2;}.cls-12{fill:#eb8449;}.cls-13{fill:#261b18;}.cls-14{fill:#bf3c1b;opacity:0.3;}.cls-15{fill:#b54319;opacity:0.5;}.cls-16{fill:#57443a;}.cls-17{fill:#ff7752;}.cls-18{fill:#ffc48f;}.cls-19{fill:#cfc4c4;}.cls-20{fill:#2b221c;}.cls-21{fill:#121b21;}.cls-22{fill:#c4170e;opacity:0.35;}.cls-23{fill:#8f2724;}.cls-24{fill:#fff9f0;}.cls-25{fill:#e8dac5;}</style><clipPath id="clip-path" transform="translate(0.01)"><circle class="cls-1" cx="33" cy="33" r="33"/></clipPath></defs><g id="Layer_2" data-name="Layer 2"><g id="avatars"><g class="cls-2"><rect class="cls-3" width="66" height="66"/><path class="cls-4" d="M27.67,59.35c.69-.92,0-6.64-1-6.3-2.9,1.06-5.93,8.07-5.75,13h5.37C26.15,63.94,26.63,60.72,27.67,59.35Z" transform="translate(0.01)"/><path class="cls-5" d="M26.83,52.83A12.55,12.55,0,0,0,20.49,64a16,16,0,0,0,6.17.62,7.4,7.4,0,0,1,1.24-5.2C28.65,58.48,27.75,52.35,26.83,52.83Z" transform="translate(0.01)"/><path class="cls-6" d="M48.29,49.44c-2.39,2.91,0,3.74,2.3,5.25,1.14.75,2.49,2.07,3.41.15a26.51,26.51,0,0,0,1-3.11,11.9,11.9,0,0,1,1.38-3C58,46.55,55.69,40.44,48.29,49.44Z" transform="translate(0.01)"/><path class="cls-7" d="M47.56,35.86a1,1,0,0,0-1.33,0l-5.46,5.48a1,1,0,0,0,0,1.34l9.76,9.71a.94.94,0,0,0,1.33,0l5.46-5.48a1,1,0,0,0,0-1.33Z" transform="translate(0.01)"/><path class="cls-8" d="M47.21,35.55a.92.92,0,0,0-1.29.05L40.57,41a.9.9,0,0,0,0,1.28l9.31,9.27a.91.91,0,0,0,1.28-.06l5.35-5.37a.92.92,0,0,0,0-1.29Z" transform="translate(0.01)"/><path class="cls-9" d="M47.21,35.55a.92.92,0,0,0-1.29.05L40.57,41a.9.9,0,0,0,0,1.28l9.31,9.27a.91.91,0,0,0,1.28-.06l5.35-5.37a.92.92,0,0,0,0-1.29Z" transform="translate(0.01)"/><rect class="cls-10" x="45.02" y="37.72" width="6.9" height="11.55" rx="0.7" transform="translate(-16.54 47.15) rotate(-45.12)"/><path class="cls-4" d="M50.14,54.38c.47,9.88-6.2-.59-9.26-.81-1-.08.22,5.53.79,6.31,4.39,6,13.57,4.2,12.85-5.21Z" transform="translate(0.01)"/><path class="cls-5" d="M41.21,60.31a9.78,9.78,0,0,0,6,4.07c1.16-1.52,1.48-4.11,1.57-6.11-2.46-.5-6.35-4.89-8.36-5C39.37,53.15,40.7,59.45,41.21,60.31Z" transform="translate(0.01)"/><path class="cls-6" d="M46.33,48.35c-.17.47.63,1.33.82,1.75.31.67-.2,1.92.61,2.44s1.19-.08,1.45-.64a3,3,0,0,0-.94-3.24C47.85,48.23,46.59,47.62,46.33,48.35Z" transform="translate(0.01)"/><path class="cls-5" d="M42.31,63.61c1.7-2.74,2.2-8.7-1.63-10.76-2.91-1.56-10.62-2.51-13.84,0C23.32,55.6,24.12,60,25.08,64.17A12.25,12.25,0,0,0,25.71,66H41A14.47,14.47,0,0,1,42.31,63.61Z" transform="translate(0.01)"/><path class="cls-4" d="M28.22,52.83a2.13,2.13,0,0,0,.35,1.68c2.46,3.93,9.18,3.8,11-.25a2,2,0,0,0-.08-1.94C37.88,49.6,29,49.59,28.22,52.83Z" transform="translate(0.01)"/><path class="cls-11" d="M39.4,57.57c-1.9,1.84-8.13,1.8-10.41-.69-1.28-1.4-2.65,1.41-2.13,3.38.68,2.61,4.4,3.4,7.64,3.44,6.41.09,8.55-2.79,7.52-6C41.75,56.83,40.67,56.35,39.4,57.57Z" transform="translate(0.01)"/><path class="cls-12" d="M34,47.77c-1.9,0-4.57,1.09-4.76,4a3.35,3.35,0,0,0,.82,2.87,5.88,5.88,0,0,0,7.88,0,3.38,3.38,0,0,0,.82-2.87C38.6,48.86,35.92,47.76,34,47.77Z" transform="translate(0.01)"/><path class="cls-13" d="M16.42,18.22c-2.79,7.05-3.11,12.53-5.1,23.71-.5,2.83-2.35,7.18-1.6,8.91,1,2.44,3.83,1.08,6.09,1.85,2.43.83,5.13,2,5.76-1.44a5.16,5.16,0,0,1,.23,2.1c1.91.07,8.45-1.91,12.85-1.68,3.91.21,12,3.86,13.69-.62,1.27-3.34,2.66-18.18,2.2-23,0-.3,1.17-.69,1.21-1,.13-.86.21-1.47.23-1.72C53.28,6,23.39.64,16.42,18.22Z" transform="translate(0.01)"/><path class="cls-6" d="M31.91,15.84c-7.63,1.26-13.3,12-12.21,22.26.81,7.62,7.62,15.29,15,15.5,7.81.22,14.29-11.5,13.44-20.55C47.18,22.77,42.58,14.09,31.91,15.84Z" transform="translate(0.01)"/><path class="cls-14" d="M45.14,19.09A35.66,35.66,0,0,0,32.56,16c-2.76-.15-6.48-.44-9.1.61-3.93,1.55-5.67,4.06-6.33,8-.44,2.66,2.16,5.28,4.17,7,1.5-1.38.86-3.33.87-5,.3,1.92,1.88,1.41,3.53,1.54,1.47.11,4,.82,5.35.14.61-.31.73-.75,1-1.39a2.15,2.15,0,0,0,.8.68A8.64,8.64,0,0,0,36.2,28a13.17,13.17,0,0,0,4.89-.15c.69-.21,1.1-.4,1.32-1.17.22,1.64,2.69,1.43,4,1.42C48.59,28.09,48.44,20.51,45.14,19.09Z" transform="translate(0.01)"/><path class="cls-6" d="M17.18,33.77c-3.75.91-2.42,6.39.59,7.57a7.36,7.36,0,0,0,3,.42l.06-.09c.47-.7,0-4.68-.25-5.43C20.07,34.34,19,33.33,17.18,33.77Z" transform="translate(0.01)"/><path class="cls-15" d="M18.43,35.8c-.82-.41-2.93.23-2,1.89.56-1.5,1.46-.48,1.28.59-.11.72-.89.71-.15,1.66a1.37,1.37,0,0,0,1.69.1C20.63,39.23,19.44,36.3,18.43,35.8Z" transform="translate(0.01)"/><path class="cls-13" d="M42.07,24.79h0Z" transform="translate(0.01)"/><path class="cls-13" d="M31.84,24.54a.14.14,0,0,1,0,.06s0,0,0,0S31.85,24.51,31.84,24.54Z" transform="translate(0.01)"/><path class="cls-13" d="M43,14.07C38.9,10.39,33.44,10.26,28.25,11a22.72,22.72,0,0,0-6.61,1.63c-1.56.81-2.23,2.82-3,4.33a27.18,27.18,0,0,0-2.18,9c-.18,1.6.4,3.26.52,4.86s.77,2.94,1,4.48a13.85,13.85,0,0,1-.66,7c-.34.95-1.12,1.72-.45,2.59a1.87,1.87,0,0,0,2.46.44c.5-.5,1.56-4.67,1.8-5.74a38.5,38.5,0,0,0,.58-8.37,20.36,20.36,0,0,1,1-7.48,29.5,29.5,0,0,0,.28,3.44c2.57-.23,5.3.06,7.88,0a9.58,9.58,0,0,0,.92-2.58.14.14,0,0,0,0-.06s0,0,0,0,0,0,0,0c.16.47.31,1.49.63,1.77.61.51,2.41.26,3.16.33,1.4.13,3.77.7,5.14.15.88-.35,1-1.16,1.28-2.05h0c.26.47.36,1.28.79,1.51a8.76,8.76,0,0,0,2.54.53,19.38,19.38,0,0,0,3.05,0c2-.31.68-3.93.19-5.24A21,21,0,0,0,43,14.07Z" transform="translate(0.01)"/><path class="cls-16" d="M30.83,9.18c-3.91.3-9.55,3.27-11.38,6.73C15.3,23.74,13.54,32.5,13,41.26c-.15,2.21-1.53,5.56-1.46,7.59.07,1.88,1,1.94,2.49.92,2-1.33,0-8.63.53-13.12.39-3.54,3.32-3.62,4.42-8.28.93,6.32-.29,14.53-2.88,21.34C24.73,36,18.44,28.62,23,19.42A7.17,7.17,0,0,0,31,21.23a12.47,12.47,0,0,1,8.56,0c3.35,1.39,6.5,2.12,10.8.43C48.56,11.69,37.94,8.64,30.83,9.18Z" transform="translate(0.01)"/><path class="cls-17" d="M44.59,36.15c-1.16-.23-2.8-.1-2.06,1.76.39,1,4.93,2.52,4.76.37a1.66,1.66,0,0,0-.15-.6A3.38,3.38,0,0,0,44.59,36.15Z" transform="translate(0.01)"/><path class="cls-17" d="M28.94,36.31a3.56,3.56,0,0,0-3.1-.23c-1.21.33-2.67,1.23-1.1,2.62.83.75,5.8,0,4.63-1.9A1.71,1.71,0,0,0,28.94,36.31Z" transform="translate(0.01)"/><path class="cls-15" d="M36.68,37.42c-1-.09-.94-.62-1.66-.24s-.24,1.94,1.49,2.06,2.58-1.13,2.26-1.66S37.76,37.53,36.68,37.42Z" transform="translate(0.01)"/><path class="cls-18" d="M36.51,34.57c-.8,0-2.06,2.66-1.67,3.08.95,1,3.15.62,3.83,0C38.94,37.34,37.42,34.58,36.51,34.57Z" transform="translate(0.01)"/><path class="cls-13" d="M45.74,32c-2.67-1.23-5.22,2-3.33,3.81a3.56,3.56,0,0,1,3.81,0C47.35,35.06,47.17,32.68,45.74,32Z" transform="translate(0.01)"/><path class="cls-19" d="M46,33.9c-.75.21-.44,1.64.33,1.16C46.88,34.72,46.65,33.71,46,33.9Z" transform="translate(0.01)"/><path class="cls-19" d="M43.5,32.35c-1.27.36-.74,2.79.57,2C45,33.74,44.62,32,43.5,32.35Z" transform="translate(0.01)"/><path class="cls-13" d="M25.63,31.66c-1.44.63-1.69,3-.58,3.8a3.53,3.53,0,0,1,3.81.12C30.8,33.84,28.33,30.51,25.63,31.66Z" transform="translate(0.01)"/><path class="cls-19" d="M25.33,33.54c-.65-.21-.91.79-.36,1.15C25.73,35.19,26.07,33.77,25.33,33.54Z" transform="translate(0.01)"/><path class="cls-19" d="M27.87,32.06c-1.12-.35-1.56,1.35-.63,2C28.53,34.87,29.12,32.45,27.87,32.06Z" transform="translate(0.01)"/><path class="cls-20" d="M29.4,27.91a14.63,14.63,0,0,0-3.94.49,6.64,6.64,0,0,0-2.41,1.23c-.21.18-.47.49-.44.76.22,0,.38-.13.58-.2a12,12,0,0,1,3.08-.53c.81-.07,1.61-.07,2.42-.16.54-.06,1.28,0,1.54-.54C30.56,28.26,30.12,27.89,29.4,27.91Z" transform="translate(0.01)"/><path class="cls-20" d="M45.64,28.75a14.53,14.53,0,0,0-3.81-.63c-.7-.05-1.15.29-.88,1s.95.51,1.47.59c.78.11,1.57.14,2.35.24a12.68,12.68,0,0,1,3,.64c.19.08.33.23.54.22a1,1,0,0,0-.37-.75A6.47,6.47,0,0,0,45.64,28.75Z" transform="translate(0.01)"/><path class="cls-21" d="M45.22,31.54A2.8,2.8,0,0,0,42,33.45a2.53,2.53,0,0,1,2.84-.79c3.62,1.67,5.64-.87,5.64-.87C47.79,32.94,46.48,31.81,45.22,31.54Z" transform="translate(0.01)"/><path class="cls-21" d="M26.27,31.27c-1.27.21-2.64,1.28-5.23,0,0,0,1.89,2.64,5.58,1.14a2.53,2.53,0,0,1,2.81.91A2.81,2.81,0,0,0,26.27,31.27Z" transform="translate(0.01)"/><path class="cls-22" d="M32.08,40.72c-2.31.49-5.51,2.28-3.31,4.82s8.82,2.48,11.89.57c1.51-1,2.16-3,.52-4.3l2.15-.93C39.6,40.33,35.69,40,32.08,40.72Z" transform="translate(0.01)"/><path class="cls-23" d="M29.1,43.91C30,46.1,37,46,39.35,45.21c2.22-.72,2.43-2.48.82-3.62.3-.09.73-.27,1.15-.41C34.59,40.31,28.06,41.44,29.1,43.91Z" transform="translate(0.01)"/><path class="cls-24" d="M40.34,41.09c-3.32-.36-7.61-.37-10.05.81-.5.24-.4.5.26.76,1.15.45,4,0,5.56,0,3.75-.07,4.16.29,4.42-.11S41.16,41.18,40.34,41.09Z" transform="translate(0.01)"/><path class="cls-25" d="M40.45,41.11c-1.39-.27-8.11-.65-10.4,1,0,0-.47.33.5.6A14.56,14.56,0,0,1,40.8,42S41.05,41.2,40.45,41.11Z" transform="translate(0.01)"/></g></g></g></svg>