<svg xmlns="http://www.w3.org/2000/svg" xmlns:xlink="http://www.w3.org/1999/xlink" viewBox="0 0 66 66"><defs><style>.cls-1{fill:none;}.cls-2{clip-path:url(#clip-path);}.cls-3{fill:#c0b9ab;}.cls-4{fill:#e0e0e0;}.cls-5{opacity:0.1;}.cls-6{fill:#f2f2f2;}.cls-7{fill:#8f4721;}.cls-8{fill:#535363;}.cls-9{fill:#261b18;}.cls-10{fill:#9c552c;}.cls-11,.cls-12{fill:#661004;}.cls-11{opacity:0.3;}.cls-12{opacity:0.4;}.cls-13{fill:#bf6c3c;}.cls-14{fill:#f0ded1;opacity:0.7;}.cls-15{fill:#d47b48;}.cls-16{fill:#78231f;}.cls-17{fill:#fff7ea;}.cls-18{fill:#ecdcc4;}.cls-19{fill:#45362e;}</style><clipPath id="clip-path" transform="translate(0.01)"><circle class="cls-1" cx="33" cy="33" r="33"/></clipPath></defs><g id="Layer_2" data-name="Layer 2"><g id="avatars"><g class="cls-2"><rect class="cls-3" width="66" height="66"/><path class="cls-4" d="M25.6,52.5S18,54.18,18.63,66h5.11a51.31,51.31,0,0,1,1-7.56Z" transform="translate(0.01)"/><path class="cls-4" d="M39.1,52.5,40,58.44A50.44,50.44,0,0,1,41,66h5.11C46.71,54.18,39.1,52.5,39.1,52.5Z" transform="translate(0.01)"/><path class="cls-4" d="M39.58,52.56c-3.58-1.25-10.41-1.73-14.65.17-2.28,1-1.82,7.54-1.38,13.27H41.06C41.39,60.12,41.86,53.35,39.58,52.56Z" transform="translate(0.01)"/><path class="cls-5" d="M24.89,56.43c.39,4,4,6.32,4,6.32l3.51-3.41,3.72,3.23c3.57-3.23,3.72-4.47,3.84-6.87S24.55,53,24.89,56.43Z" transform="translate(0.01)"/><path class="cls-6" d="M24.62,53.5c-1.61,4.55,4.24,8.24,4.24,8.24l3.48-2.4L35.6,61.6s6.43-3.69,4-9C37.4,47.85,26.48,48.23,24.62,53.5Z" transform="translate(0.01)"/><path class="cls-7" d="M32.2,46.34c-2.5,0-6,1.59-6.21,5.51-.09,1.82.19,2.87,1.13,3.86a14.53,14.53,0,0,0,5.27,3,15.4,15.4,0,0,0,5.17-3.24,4.59,4.59,0,0,0,1-3.9C38.27,47.71,34.71,46.29,32.2,46.34Z" transform="translate(0.01)"/><path class="cls-8" d="M28.07,63l4.32-2.66-4.58-2C26.91,59.2,27.27,62.14,28.07,63Z" transform="translate(0.01)"/><path class="cls-8" d="M32.39,60.3,36.71,63c.8-.82,1.16-3.76.25-4.67Z" transform="translate(0.01)"/><path class="cls-8" d="M32.43,59.14h-.3c-.7,0-1.26,0-1.24.85s.22,1.44,1.1,1.42c.6,0,1.26.23,1.53-.4.17-.41.52-1.31.13-1.67A1.85,1.85,0,0,0,32.43,59.14Z" transform="translate(0.01)"/><path class="cls-6" d="M32.35,63.6a.62.62,0,1,0,.61.61A.61.61,0,0,0,32.35,63.6Z" transform="translate(0.01)"/><path class="cls-9" d="M50.33,15.79c.79-1-.4-2.56-1.62-2.46.25-.93-.57-1.64-1.67-1.17-.08-1.74-1.61-2.08-3-1.53a1.37,1.37,0,0,0-2.38-.72c-.31-1.49-2-1.36-3.12-.7a2.54,2.54,0,0,0-3.63-.52c-1-1-2.9-.66-3.85.39-1.16-1-2.46-.48-3.17.75-1.13-1.18-2.61-.05-3.42,1-1.09-1-2.76-.09-3.12,1.2a2.27,2.27,0,0,0-3.1,1.62c-1.67-.15-3.42,1.35-2.39,3-1.25.19-2.58,1.69-1.24,2.71-1.34.14-1.43,1.6-.71,2.47-1.5.69-1.6,3.88-.25,3.1-1,.6-1.14,2,.22,2.15-1,.65-2,2-.1,2.24-.63.6-1.1,2,0,2.3-.68,1.21-.69,1.68.52,2.56-.32-.23-.25,1.44-.19,1.59.28.65,1,1,1.53,1.47a20.8,20.8,0,0,1,2.43,2.61c2.15,2.41,3.69,5.29,5.79,7.69s4.33-1.67,6-2.64a12,12,0,0,1,7.56-1.59c2.29.33,3.9,2.73,6.22,2.78s3.46-3.41,3.93-5.19c.3-1.15.38-2.76,1-3.68s1.72-1.28.86-2.61c.75.06,1.14-1.61.24-1.89.91-.14,1-1.55.29-2,1.13-.41,1.53-1.18.24-1.78,1.91-.43,1-2.52-.43-2.88,1.47-.65,1.61-2.15.5-2.58,1.29-.42,1.5-2.13.44-2.49,1.09-.41.85-1.78-.08-2.68C52.05,18.1,52.13,15.33,50.33,15.79Z" transform="translate(0.01)"/><path class="cls-10" d="M30.56,13.84c-8.37,1.63-14.27,13.67-12.73,25,1.15,8.46,7.67,17.73,17.5,17,10-.71,15-13.14,13.72-23.54C47.64,21,42.28,11.55,30.56,13.84Z" transform="translate(0.01)"/><path class="cls-9" d="M27.59,28.88c-2.64-.35-5.62.39-6.44,2,3.9-.51,7.24,1.33,8.62.33S29.79,29.17,27.59,28.88Z" transform="translate(0.01)"/><path class="cls-9" d="M43.79,28.44c-2,.39-3.45,1.4-2.12,2.44s4.42-1.06,8-.7C49,28.61,46.26,28,43.79,28.44Z" transform="translate(0.01)"/><path class="cls-11" d="M41.35,15.62A37.6,37.6,0,0,0,31.2,14c-3.06,0-6.38-.22-9.23,1.07-1.57.7-3.49,1.68-4.07,3.41-.73,2.15-.38,4.87,0,7.07a19.33,19.33,0,0,0,2.26,7,29.24,29.24,0,0,1,1.1-4.38c1.06-4.69,4.08-6.39,7.71-7,3-.5,6.45-.25,9.54-.33,1.65,0,11.23,1.58,9.17-2.26C46.73,16.86,43,16.12,41.35,15.62Z" transform="translate(0.01)"/><path class="cls-10" d="M14.91,34.09c-4.11,1.14-2.46,7.14.89,8.34a8,8,0,0,0,3.32.36.36.36,0,0,0,.07-.1c.49-.78-.2-5.15-.45-6C18.11,34.64,16.88,33.55,14.91,34.09Z" transform="translate(0.01)"/><path class="cls-12" d="M16.35,36.3c-.92-.42-3.23.34-2.14,2.15.57-1.67,1.59-.58,1.43.61-.1.8-1,.81-.11,1.84.46.55,1.39.35,1.87.05C18.89,40,17.48,36.82,16.35,36.3Z" transform="translate(0.01)"/><path class="cls-9" d="M37.38,10.42a28.52,28.52,0,0,0-8.6-.26C24,10.73,18.32,13,16.82,18c-.92,3.08-.44,6.66-.21,9.81.15,1.91-.62,5.6,1,7,1.9,1.68,2.65-.85,2.83-2.66.2-2,.05-4.27.63-6.25,1.44-4.82,4-5.75,10.94-6.28,3.6-.28,12.49-1,14.2,2.24.64,1.19,5.87-2.32,1.15-7.56C45.32,12.06,40.29,11,37.38,10.42Z" transform="translate(0.01)"/><path class="cls-13" d="M48.06,36.08c-.82-.78-2.19-.65-3.15-.43-1.26.28-2.82,1.14-1.32,2.71.81.84,5.93.38,4.87-1.74A2,2,0,0,0,48.06,36.08Z" transform="translate(0.01)"/><path class="cls-13" d="M27.78,37a3.74,3.74,0,0,0-3-1.09c-1.29,0-3.63.86-2,2.41,1.16,1.11,5.94,1.52,5.31-.71A1.9,1.9,0,0,0,27.78,37Z" transform="translate(0.01)"/><path class="cls-9" d="M26.77,31.67c-3-.82-4.88,2.52-2.84,3.62a6.55,6.55,0,0,1,3,.15A1.91,1.91,0,0,0,26.77,31.67Z" transform="translate(0.01)"/><path class="cls-12" d="M36.42,38.57c-1.26,0-2.37-.56-3.55,0s.17,2.21,3.52,2.13,4.26-1.61,3.63-2.18S37.82,38.55,36.42,38.57Z" transform="translate(0.01)"/><path class="cls-13" d="M36.35,32.47c-2.37-.21-4.24,4.39-3.23,5.9.71,1.05,5.93,1,6.75-.22C40.16,37.7,38.61,32.67,36.35,32.47Z" transform="translate(0.01)"/><path class="cls-14" d="M25.7,32.25c-1.22.26-.29,1.74.89,1.2C27.45,33.06,26.78,32,25.7,32.25Z" transform="translate(0.01)"/><path class="cls-9" d="M46.15,31.15c-3.07-.4-4.49,3.16-2.33,4a6.65,6.65,0,0,1,3-.24A1.92,1.92,0,0,0,46.15,31.15Z" transform="translate(0.01)"/><path class="cls-14" d="M45.17,31.87c-1.17.42-.05,1.77,1,1.08C47,32.45,46.21,31.5,45.17,31.87Z" transform="translate(0.01)"/><path class="cls-15" d="M44.8,41c-5.38-1.07-14.12.73-19,1-.39,0-.68,0-.52.6.61,2.18,3,10.11,11.48,10,6.23-.07,5.73-4.46,5.85-7.15.06-1.31,1.47-2.94,2.58-3.93C45.59,41.22,45.29,41.11,44.8,41Z" transform="translate(0.01)"/><path class="cls-16" d="M26.64,43.1s2.6,6.57,9.07,6.14c5.82-.38,6.42-2.67,6.62-4.26a4.11,4.11,0,0,1,1.81-3A35.33,35.33,0,0,1,26.64,43.1Z" transform="translate(0.01)"/><path class="cls-17" d="M28.79,43.71A3.49,3.49,0,0,0,31,46.61a12.88,12.88,0,0,0,8.37.09c1.95-.61,3-3.91,3-3.91A56.28,56.28,0,0,1,28.79,43.71Z" transform="translate(0.01)"/><path class="cls-17" d="M37.05,46.79a18.3,18.3,0,0,1-6.49-.65c-1.09-.4-1.08.21-.86.75,0,0,.44,2.21,5.51,2.43,4.42.2,6.24-2.68,5.72-3.24S39.82,46.66,37.05,46.79Z" transform="translate(0.01)"/><path class="cls-18" d="M28.78,43.68a3.31,3.31,0,0,0,.25.94s10.44-1.39,12.8-.61a5.56,5.56,0,0,0,.47-1.22A65.26,65.26,0,0,1,28.78,43.68Z" transform="translate(0.01)"/><path class="cls-18" d="M31.14,46.14c4.44,2,9.18-.15,9.18-.15A19,19,0,0,1,31.14,46.14Z" transform="translate(0.01)"/><path class="cls-12" d="M45.89,40.51c-1.1-.73-2.6-.51-3.83-.4l-1,.19A7.77,7.77,0,0,1,44,41a3.43,3.43,0,0,1,2,2c.17.56.21,2.36.88,1.1A3,3,0,0,0,45.89,40.51Z" transform="translate(0.01)"/><path class="cls-12" d="M24.88,41.21A3,3,0,0,0,24,44.8c.71,1.24.7-.56.86-1.12a3.38,3.38,0,0,1,1.94-2,8,8,0,0,1,2.84-.79l-1-.17C27.46,40.62,26,40.45,24.88,41.21Z" transform="translate(0.01)"/><path class="cls-19" d="M17.12,22.47h0Z" transform="translate(0.01)"/><path class="cls-19" d="M48,15.71c.31-.88-.43-2.13-1.44-1.53.67-.91-.53-2.64-1.5-1.23-.24-.53,0-1-.79-1s-.91.62-1.21,1.17c-.34-1.05-.39-2.41-1.68-2.83-1.49-.47-1.76.88-2.46,1.77-.37-.62-.46-1.43-1.11-1.89-.91-.62-1.37.27-1.8,1-.51-.33-.67-1-1.38-.75s-1.06,1.49-1.44,2.15c-.69-.78-1.26-2.05-2.37-2.32-1.42-.33-2,.75-2.51,1.79-.56-.31-.91-.88-1.64-.58s-.93,1.1-1.16,1.73a.91.91,0,0,0-1.46.89A2.59,2.59,0,0,0,21.29,13a1.3,1.3,0,0,0-1,1.17,2.17,2.17,0,0,0,.36,1.23c-1.26-.64-1.7.4-1.06,1.49-.5-.47-1.78-1.3-2.47-.86s-.57,2.45-.12,3c0,0,0,0,0,0-1.31.17-.33.88.41,1.1-1.91-.58-1.56,2.36-.28,2.37h0a.93.93,0,0,0-.34,1.83c-1.45-.31-.75,1.15.2,1.38,1.27.32,1.57-1,.55-1.57,1.37.79,1.67-.61.7-1.44,1.72.71.8-1.88.5-2.56.49.22,1,.86,1.54.71s.67-1,.64-1.6c.24.68,1.48,1.29,2.08.76s.28-1.75.44-2.33c.42.57,1.45,2,2.35,1.6.68-.33.45-1.64.64-2.26a2.61,2.61,0,0,0,2.41,1.72c1.34-.12,1.4-1,1.77-2.16.2.74,1.13,1.84,2.05,1.77,1.15-.1,1.35-1.23,1.78-2.27,1.17,2.22,3.7,2.65,4.6,0,.71,3.47,3.43,2.17,5.33.6-.32,2,1.12,2.54,2.22,1.05-.94,1.27.49,2.22,1.71,1.88a1.74,1.74,0,0,0,1.28-1.53,2.05,2.05,0,0,0-.35-1.38C49.13,16.57,48.07,15.59,48,15.71Z" transform="translate(0.01)"/></g></g></g></svg>