<svg xmlns="http://www.w3.org/2000/svg" xmlns:xlink="http://www.w3.org/1999/xlink" viewBox="0 0 96 96"><defs><style>.cls-1{fill:none;}.cls-2{clip-path:url(#clip-path);}.cls-3{fill:#fff;}.cls-4{fill:#3a3a4a;}.cls-5{fill:#918fa0;}.cls-6{fill:#8f4721;}.cls-7{fill:#9c552c;}.cls-8{opacity:0.1;}.cls-9{fill:#261b18;}.cls-10,.cls-15{fill:#66241b;}.cls-10,.cls-11{opacity:0.4;}.cls-11{fill:#661004;}.cls-12{fill:#45362e;}.cls-13{fill:#70442d;}.cls-14{fill:#d17642;}.cls-15,.cls-16{opacity:0.7;}.cls-16{fill:#f0ded1;}.cls-17{fill:#d47b48;}.cls-18{fill:#78231f;}.cls-19{fill:#fff7eb;}.cls-20{fill:#e8dac5;}</style><clipPath id="clip-path"><circle class="cls-1" cx="48" cy="48" r="48"/></clipPath></defs><g id="Layer_2" data-name="Layer 2"><g id="Layer_4" data-name="Layer 4"><g class="cls-2"><rect class="cls-3" width="96" height="96"/><path class="cls-4" d="M57.81,77.65c-5.47-2.21-14.22-1.49-18.79.09-2.87,1-2.4,10.32-2,18.26H59.94C60.36,88.11,60.75,78.84,57.81,77.65Z"/><path class="cls-5" d="M40.14,76.27c-2.78,4.47,8.33,9.08,8.33,9.08s9.82-4.28,8.77-8.33C56,72.22,42.64,72.24,40.14,76.27Z"/><path class="cls-6" d="M48.36,70.49c-2.89,0-7,1.46-7.24,5.3a4.09,4.09,0,0,0,1.24,3.82,9.51,9.51,0,0,0,6,2.91,9.56,9.56,0,0,0,6-2.91,4.11,4.11,0,0,0,1.23-3.82C55.3,72,51.24,70.49,48.36,70.49Z"/><path class="cls-7" d="M37.05,89.21a2.6,2.6,0,0,0-4.44-2.71A16,16,0,0,0,30,96H35.2A10.67,10.67,0,0,1,37.05,89.21Z"/><path class="cls-4" d="M38.48,78C30.86,81.4,28.86,85.19,26,91c1.87,1.22,8.58,2.48,11.18,1.75C37.07,86.9,40.32,77.14,38.48,78Z"/><g class="cls-8"><path d="M36.24,84.76c-1.78.29-.16,4.29,0,5.12-.08-.35-2.22-2.09-2.53-1.64-.46.65,2.54,2.94,3.46,3.67C37.18,91.91,36.79,84.67,36.24,84.76Z"/></g><path class="cls-7" d="M64.32,86.5a2.6,2.6,0,1,0-4.43,2.71A10.67,10.67,0,0,1,61.74,96H67A15.81,15.81,0,0,0,64.32,86.5Z"/><path class="cls-4" d="M58.46,78c-1.84-.83,1.41,8.93,1.33,14.8,2.6.73,9.31-.53,11.17-1.75C68.08,85.19,66.08,81.4,58.46,78Z"/><g class="cls-8"><path d="M60.69,89.88c.17-.83,1.79-4.83,0-5.12-.55-.09-.94,7.15-.94,7.15.92-.73,3.92-3,3.46-3.67C62.91,87.79,60.77,89.53,60.69,89.88Z"/></g><path class="cls-9" d="M64.31,13.38c-11.65-3.54-31.86-1.61-39,8.1A12,12,0,0,0,22.86,31,6.5,6.5,0,0,0,26,35.65c5.67,2.93,31,7.72,37.41,5.79,3.85-1.15,7.75-2,6.48-6.75,4.47,1,7.65-3.76,3-6.35C81.9,27.32,78.05,17.56,64.31,13.38Z"/><path class="cls-7" d="M26.64,55.53C28.21,67,37.06,79.61,50.41,78.66c13.61-1,20.38-17.85,18.63-32-1.92-15.36-9.19-28.16-25.11-25.06C32.57,23.85,24.56,40.2,26.64,55.53Z"/><path class="cls-10" d="M35.31,34.57c-1.61.83-5.85,2.88-8-.54-1-1.61-.27-4,.37-5.87.78-2.25,3.34-3.5,5.43-4.42,3.8-1.67,8.22-1.45,12.29-1.38a52,52,0,0,1,13.54,2.06c2.9.85,8.36,1.6,9.36,4.87C69.55,33.44,65.12,34,62,34,54.65,34,38.79,32.76,35.31,34.57Z"/><path class="cls-7" d="M23.89,60.46A10.86,10.86,0,0,0,28.4,61l.09-.14c.67-1.06-.26-7-.61-8.11-.85-2.82-2.52-4.3-5.2-3.56C17.1,50.68,19.33,58.83,23.89,60.46Z"/><path class="cls-11" d="M26.06,58.45c2-1.28.11-5.61-1.42-6.31-1.26-.58-4.39.46-2.92,2.91.78-2.27,2.16-.78,2,.84-.14,1.08-1.3,1.1-.15,2.49C24.15,59.13,25.42,58.85,26.06,58.45Z"/><path class="cls-9" d="M61.94,16.84a20.15,20.15,0,0,0-8.59-1.74c-2.29,0-4.55-.48-6.86-.47a48.85,48.85,0,0,0-7.54.72A28.29,28.29,0,0,0,30.35,18c-2.26,1.23-3.16,4.12-4.2,6.32a9.34,9.34,0,0,0-.48,3.41,54.55,54.55,0,0,0-.07,5.72c.16,3.35,4.67,3.87,6.57,1.46,1.62-2,3.91-2.58,6.51-2.68,4.31-.16,21.2-1,25.17.4,2.18.75,5.06,1.88,5.5-1.58.24-1.89-.52-4.35-1.15-6.14a15.42,15.42,0,0,0-3.49-6.14A10.37,10.37,0,0,0,61.94,16.84Z"/><path class="cls-12" d="M29.74,23.32c-2.12-.94-.44-3.46,3.25-5.24a38.55,38.55,0,0,1,15.14-4c7.32-.36,14.68.34,21.41,3.41,5.79,2.65,2.34,7.5-2.94,4.94C68.31,28.09,35.32,25.81,29.74,23.32Z"/><path class="cls-13" d="M31.17,35.75c-1.29,7.16-2.3,10.64-1.37,17.11,0,0-3.28-3.59-5.95-3.9-.37-1-1-12.07.57-14.57C26.91,35,28.66,35.72,31.17,35.75Z"/><path class="cls-14" d="M68.23,52.54a2.63,2.63,0,0,1,.38.85c.8,3.13-6.29,2.06-7.12.7-1.57-2.56.8-3.18,2.59-3.14C65.44,51,67.35,51.25,68.23,52.54Z"/><path class="cls-14" d="M38.85,52a2.77,2.77,0,0,1,.61.77c1.63,3-5.86,3.72-7.06,2.55-2.26-2.19,0-3.43,1.81-3.86C35.61,51.16,37.62,51,38.85,52Z"/><path class="cls-9" d="M37.73,50.39a4.21,4.21,0,0,0-2.9-.25c-2-1.69-.16-6.89,2.77-5.63C39.78,45.45,39.7,49.37,37.73,50.39Z"/><path class="cls-15" d="M55.18,53.74c-.73-.9-1.76.1-3.66.12-1.71,0-2.38-.76-3.58,0s.51,3,3.54,2.89S55.81,54.51,55.18,53.74Z"/><path class="cls-14" d="M51.08,47.43c-3.22-.28-3.46,6.52-2.73,7.1,1.81,1.42,5.57.41,6.67-.73C55.45,53.35,54.15,47.69,51.08,47.43Z"/><path class="cls-9" d="M65.81,44.31c1.59,1,1.58,4.26.39,5.58a3.85,3.85,0,0,0-3.1,0C60.64,48.27,62.83,42.52,65.81,44.31Z"/><path class="cls-16" d="M36.19,45.78c1.06-.35,1.72,1.27.88,1.88C35.91,48.5,35,46.19,36.19,45.78Z"/><path class="cls-16" d="M64.28,45.3c1-.2,1.45,1.42.59,1.89C63.66,47.85,63.1,45.54,64.28,45.3Z"/><path class="cls-9" d="M60.4,38.39c-1,0-1.61.82-1.27,2.18.27,1.08,2.43.74,5.22,1.07,3,.35,4.59,1,4.89.3s-1-2.1-3.62-2.9A15.9,15.9,0,0,0,60.4,38.39Z"/><path class="cls-9" d="M40.84,38.5c1.09,0,1.81.84,1.4,2.2-.32,1.07-2.75.7-5.92,1-3.43.3-4.45.68-4.79,0s.42-1.87,3.4-2.62A20.26,20.26,0,0,1,40.84,38.5Z"/><path class="cls-17" d="M63.34,57.16c-1.69-1.17-3.73.16-13.3.7a110.88,110.88,0,0,1-13.43.07C38.05,67.72,41.15,75.42,50.36,75c7.39-.36,8.63-3.8,10.14-11.67a8.48,8.48,0,0,1,3.39-5.6A2.6,2.6,0,0,0,63.34,57.16Z"/><path class="cls-18" d="M37.88,58.88s10.64,3.69,25.32-1.45A8.47,8.47,0,0,0,60,62.78c-.59,2.85-1.89,6.93-10.32,7.41C40.36,70.73,37.88,58.88,37.88,58.88Z"/><path class="cls-19" d="M40.35,59.63a3.66,3.66,0,0,0,2.83,3.42,25.4,25.4,0,0,0,12,.17c2.86-.6,4.4-4.38,4.4-4.38A64.91,64.91,0,0,1,40.35,59.63Z"/><path class="cls-19" d="M43.41,67.79c-.23-.58-.2-1.23,1.05-.81a22.9,22.9,0,0,0,7.53.64c3.24-.17,4-1.4,4.58-.8s-1.72,3.69-6.87,3.52C43.79,70.15,43.41,67.79,43.41,67.79Z"/><path class="cls-20" d="M40.76,61.17s14.53-1.39,17.85-.57a12.9,12.9,0,0,0,1-1.76s-7.69,1.86-19.24.79A3.08,3.08,0,0,0,40.76,61.17Z"/><path class="cls-20" d="M45,67.48a24,24,0,0,0,10.72-.25S50.05,69.56,45,67.48Z"/></g></g></g></svg>