<svg xmlns="http://www.w3.org/2000/svg" xmlns:xlink="http://www.w3.org/1999/xlink" viewBox="0 0 66 66"><defs><style>.cls-1{fill:none;}.cls-2{clip-path:url(#clip-path);}.cls-3{fill:#a77e64;}.cls-4{fill:#1e1e29;}.cls-5{fill:#fff7eb;}.cls-6{fill:#5e4684;}.cls-7{fill:#313142;}.cls-8{opacity:0.1;}.cls-9{fill:#ed9d6c;}.cls-10{fill:#4f2c1e;}.cls-11{fill:#ffb97f;}.cls-12{fill:#bf3c1b;opacity:0.3;}.cls-13,.cls-16{fill:#b54319;}.cls-13{opacity:0.35;}.cls-14{fill:#693a27;}.cls-15{fill:#9e8f88;}.cls-16{opacity:0.5;}.cls-17{fill:#121b21;}.cls-18{fill:#ffcb9e;}.cls-19{fill:#7d8ba8;}.cls-20{fill:#8f2724;}.cls-21{fill:#fff9f0;}.cls-22{fill:#e8dac5;}</style><clipPath id="clip-path" transform="translate(0.01)"><circle class="cls-1" cx="33" cy="33" r="33"/></clipPath></defs><g id="Layer_2" data-name="Layer 2"><g id="avatars"><g class="cls-2"><rect class="cls-3" width="66" height="66"/><path class="cls-4" d="M17.73,66H25.2L21.87,55C19,56.79,17.52,57.89,17.73,66Z" transform="translate(0.01)"/><path class="cls-4" d="M48.47,55,45.15,66h7.47C52.83,57.89,51.33,56.79,48.47,55Z" transform="translate(0.01)"/><path class="cls-5" d="M44,53.51c-2.11-5.14-13.35-3.64-16.32-1.14s-3.8,5.48.66,9.85A23.68,23.68,0,0,0,33.23,66h3.83C39.58,63.39,45.38,56.85,44,53.51Z" transform="translate(0.01)"/><path class="cls-6" d="M37.06,59.39l1-2A2.56,2.56,0,0,0,35.09,56a2.7,2.7,0,0,0-2.24,2.05l1.62,1.63-1.75,5.9L33,66h6l.3-.66Z" transform="translate(0.01)"/><path class="cls-4" d="M27.59,52.88a5,5,0,0,1,.54-1c-2.36,1-6.71,3.09-7.09,3.85S23.08,61.22,24,66H36C34.77,64.94,26,57,27.59,52.88Z" transform="translate(0.01)"/><path class="cls-4" d="M48.62,55.08a31.33,31.33,0,0,0-5.55-3.51c.14.33.61,1,.58,1.37-.56,6-6.53,12.17-7.43,13.06H46.74C47.4,62.22,49.1,55.6,48.62,55.08Z" transform="translate(0.01)"/><path class="cls-7" d="M46,61.22a25.75,25.75,0,0,0-2-3.15l3.44-1.94a14.73,14.73,0,0,0-4.81-5c.86,7.85-5.69,14-6.34,14.87h1.4a23.84,23.84,0,0,1,2.89-2C43.08,62.52,46,61.48,46,61.22Z" transform="translate(0.01)"/><path class="cls-7" d="M28.3,51.74a10.49,10.49,0,0,0-4.81,5L27.6,58.3a35,35,0,0,0-1.83,3.93c0,.33,3.07.22,6.93,2.2A11.89,11.89,0,0,1,35,66h1.14s0,0,0,0C35.78,65.41,28.3,60.49,28.3,51.74Z" transform="translate(0.01)"/><path class="cls-8" d="M39.3,53.13C37,51.92,27.61,51.62,28.67,55a9.73,9.73,0,0,0,3.8,5l3.13-3,3.34,2.83A14.16,14.16,0,0,0,43,54.23,7.65,7.65,0,0,1,39.3,53.13Z" transform="translate(0.01)"/><path class="cls-5" d="M28.14,51.91c-1.56,4,4.1,7.2,4.1,7.2L35.6,57l3.15,2s6.21-3.23,3.86-7.85C40.49,47,29.94,47.3,28.14,51.91Z" transform="translate(0.01)"/><path class="cls-9" d="M33.14,46.35a4.71,4.71,0,0,0-3.48,4.32,3.67,3.67,0,0,0,1,3.25,6.81,6.81,0,0,0,2.66,1.53c.74.22,2,1.09,2.26,1.1s.52-.38,1.22-.74c1-.52,2.47-1.22,3-2.32.82-1.61,1.56-4.8,0-6.05S35.07,45.93,33.14,46.35Z" transform="translate(0.01)"/><path class="cls-10" d="M46.68,20.55c.13-8.62-7.37-14.11-19.32-11.89C6.48,12.54,13.08,41.39,19,39.49c4.34-1.4,8.57-3.12,12.85-4.68,4-1.45,8.61-1.14,12.82-1.3,3.31-.12,3.11-1.51,3-4.18C47.39,24.34,46.65,22.58,46.68,20.55Z" transform="translate(0.01)"/><path class="cls-11" d="M28.74,14.8c-7.58,2.32-11.85,14-9.33,24.3,1.88,7.7,8.81,15.64,17.83,14,9.19-1.64,12.59-13.61,10.38-23.09C45.22,19.73,39.35,11.54,28.74,14.8Z" transform="translate(0.01)"/><path class="cls-11" d="M16.25,35c-3.69,1.45-1.58,6.83,1.64,7.62a7.71,7.71,0,0,0,3.1,0,.93.93,0,0,0,.05-.1c.38-.77-.82-4.38-1.13-5.11C19.12,35.6,18,34.35,16.25,35Z" transform="translate(0.01)"/><path class="cls-12" d="M42.58,16.27a35.8,35.8,0,0,0-13.24-1.36c-3.09.27-7.72.57-9.95,3.1C17.6,20,17.81,23.44,18,26c.05.95.83,8.22,1.22,6.59.7-3,2.9-4.29,2.51-7.27,4.68,1.51,11.36.62,17.14-.58,3.62-.76,6.46-2,7.52,1C46.54,23,45.62,17.12,42.58,16.27Z" transform="translate(0.01)"/><path class="cls-13" d="M17.8,36.94c-.9-.3-3,.63-1.77,2.19.36-1.6,1.41-.68,1.38.43,0,.75-.81.84.08,1.7.48.47,1.32.19,1.73-.13C20.51,40.11,18.89,37.31,17.8,36.94Z" transform="translate(0.01)"/><path class="cls-10" d="M49.17,8.36C44.66,12.87,35.67,5,24.78,9.62c-14.89,6.3-7.35,22-7.06,23.9a9.63,9.63,0,0,0,2.06,4.3,3.57,3.57,0,0,0,2.08-.2c-1.53-1.14-2.46-4.58-1.7-8,.43-1.89,1.2-3.28.72-5.72C22.36,25,32.24,25.76,44,21.9A11.6,11.6,0,0,0,51,16c-1,.15-1.73.38-2.92.67C49.6,14.64,49.43,11,49.17,8.36Z" transform="translate(0.01)"/><path class="cls-14" d="M36.4,9.36c-5.68-.94-14.13-.17-17.95,4.82s.32,8.48,15,6.68C46.9,19.21,48.64,9.42,48.64,9.42,44.84,11.76,42.09,10.3,36.4,9.36Z" transform="translate(0.01)"/><path class="cls-15" d="M17.09,34.85c1.34-.06,1.8,2.52,2.83,3.07a3.42,3.42,0,0,0,1.94-.3c-1.17-1.36-1.82-5.08-1.95-6.12C19.35,33.13,15.85,34.91,17.09,34.85Z" transform="translate(0.01)"/><path class="cls-16" d="M24.51,34.53c.12.62,1.51.16,1.95.21-.33.43-1.45.55-1.87.87s-.38.51.19.44a10.75,10.75,0,0,0,2.45-.95C28.18,34.09,25,34.34,24.51,34.53Z" transform="translate(0.01)"/><path class="cls-16" d="M46.48,32.63c-.39-.23-1.32-.15-1.63-.51.35-.13,1.55.06,1.58-.56-.41-.1-3.08.24-2.19,1.05a7.12,7.12,0,0,0,2.12.48C46.84,33.06,46.89,32.87,46.48,32.63Z" transform="translate(0.01)"/><path class="cls-17" d="M28,31.42c-2.08-.65-3,3-1.49,4a2.93,2.93,0,0,1,2,0C29.81,34.58,29.59,31.9,28,31.42Z" transform="translate(0.01)"/><path class="cls-13" d="M36.78,36.37c-1,.14-1.47-.2-2.1.25s.51,1.79,2.26,1.51,2.4-1.76,2-2.11S37.88,36.21,36.78,36.37Z" transform="translate(0.01)"/><path class="cls-18" d="M35.53,30.79c-.86.14-.77,2.51-.94,3.65s-.27,2.22.23,2.5c1.23.68,3.51-.09,4.11-.78.24-.27-.53-1.34-1.16-2.43S36.5,30.62,35.53,30.79Z" transform="translate(0.01)"/><path class="cls-17" d="M44.05,29.57c-2.15-.87-3.28,3.63-1,3.93a2.59,2.59,0,0,1,1.68-.69C45.42,31.82,45.21,30,44.05,29.57Z" transform="translate(0.01)"/><path class="cls-19" d="M27.52,32c-.78.37,0,1.87.73,1.22C28.77,32.72,28.21,31.67,27.52,32Z" transform="translate(0.01)"/><path class="cls-19" d="M43.6,30.18c-.75.28-.14,1.74.59,1.19C44.72,31,44.27,29.94,43.6,30.18Z" transform="translate(0.01)"/><path class="cls-16" d="M46.08,38.84c-.43-.68-2.46-.09-2.46-.09-.34.11.32.17,1.18.29a.49.49,0,0,1,.35.18c-3.91,1.66-12.68,3.12-18.24,1.86l.14-.12c.76-.55,1.91-.67,1.58-.81a6.65,6.65,0,0,0-2.66.63c-.65.48-.52,1.82,0,1.84s.4-.72.72-1.28c.52,1.44,3,7,9.59,6.58,5-.34,6.38-2.08,6.37-4.52,0-1.35,1.55-3.15,2.55-4,.12.4-.13,1,.26,1C46,40.43,46.51,39.52,46.08,38.84Z" transform="translate(0.01)"/><path class="cls-10" d="M42.39,26.14c-1.49,0-2.61-.15-2.62-.09,0,.84.37,2.58,1.5,2.46.67-.07,1.36-.26,2-.28a7.69,7.69,0,0,1,2.51.39c.51.17.63-.58.43-.78A4.78,4.78,0,0,0,42.39,26.14Z" transform="translate(0.01)"/><path class="cls-10" d="M27.3,27.83a5,5,0,0,0-3.36,2.88c-.13.26.27.93.74.6a8.1,8.1,0,0,1,2.45-1.2c.7-.21,1.48-.26,2.21-.42,1.21-.26.93-2,.63-2.81C29.94,26.83,28.84,27.33,27.3,27.83Z" transform="translate(0.01)"/><path class="cls-20" d="M28,42s2.64,5.82,8.5,5.14c5.28-.62,5.73-2.72,5.84-4.17a3.74,3.74,0,0,1,1.51-2.82A32.27,32.27,0,0,1,28,42Z" transform="translate(0.01)"/><path class="cls-21" d="M32.12,45a11.78,11.78,0,0,0,7.6-.31C41.47,44,42.24,41,42.24,41A51.3,51.3,0,0,1,30,42.46,3.16,3.16,0,0,0,32.12,45Z" transform="translate(0.01)"/><path class="cls-21" d="M37.65,44.86a16.6,16.6,0,0,1-5.92-.29c-1-.31-1,.24-.75.72,0,0,.49,2,5.1,1.94,4,0,5.56-2.71,5.06-3.2S40.16,44.61,37.65,44.86Z" transform="translate(0.01)"/><path class="cls-18" d="M46.87,34.73a3.5,3.5,0,0,0-3-.37c-1.19.28-2.66,1.09-1.19,2.52.78.77,5.66.29,4.6-1.65A1.64,1.64,0,0,0,46.87,34.73Z" transform="translate(0.01)"/><path class="cls-18" d="M29,36.75a3.69,3.69,0,0,0-3.19-.28c-1.24.33-2.75,1.23-1.16,2.68.85.77,5.95.1,4.78-1.9A1.92,1.92,0,0,0,29,36.75Z" transform="translate(0.01)"/><path class="cls-22" d="M30.27,43.26s9.42-1.73,11.6-1.14A4.67,4.67,0,0,0,42.24,41,60.36,60.36,0,0,1,30,42.43,2.84,2.84,0,0,0,30.27,43.26Z" transform="translate(0.01)"/><path class="cls-22" d="M32.25,44.54c4.12,1.59,8.33-.56,8.33-.56A17.28,17.28,0,0,1,32.25,44.54Z" transform="translate(0.01)"/></g></g></g></svg>