<svg xmlns="http://www.w3.org/2000/svg" xmlns:xlink="http://www.w3.org/1999/xlink" viewBox="0 0 66 66"><defs><style>.cls-1{fill:none;}.cls-2{clip-path:url(#clip-path);}.cls-3{fill:#fff;}.cls-4{fill:#a9acb0;}.cls-5{fill:#3a3a4a;}.cls-6{fill:#6e7073;}.cls-7{fill:#ebebeb;}.cls-8{fill:#ed9d6c;}.cls-9{fill:#b8bbbf;}.cls-10{fill:#8e9194;}.cls-11{fill:#2b241f;}.cls-12{fill:#857265;}.cls-13{fill:#ffb67d;}.cls-14{fill:#bc551e;opacity:0.4;}.cls-15,.cls-17{fill:#b54319;}.cls-15{opacity:0.5;}.cls-16{fill:#45362c;}.cls-17{opacity:0.3;}.cls-18{fill:#f59d66;}.cls-19{fill:#1f1a17;}.cls-20{fill:#8f322d;}.cls-21{fill:#fff3e2;}.cls-22{fill:#e8d5b8;}.cls-23{fill:#ffcb96;}.cls-24{fill:#a88888;}</style><clipPath id="clip-path" transform="translate(0)"><circle class="cls-1" cx="33" cy="33" r="33"/></clipPath></defs><g id="Layer_2" data-name="Layer 2"><g id="avatars"><g class="cls-2"><rect class="cls-3" width="66" height="66"/><path class="cls-4" d="M45.91,54.64l-3.34,3.54c.46.9.86,4.24,1.17,7.82h5C48,57.91,47.37,55.69,45.91,54.64Z" transform="translate(0)"/><path class="cls-4" d="M21.69,54.64c-1.46,1-2.11,3.27-2.8,11.36h5c.31-3.58.71-6.92,1.17-7.82Z" transform="translate(0)"/><path class="cls-5" d="M41.54,52.55c-4.89-2.63-12-1.72-15.27.39-4,2.62-3.63,6.79-2.64,13.06H43.91C45,59.84,45.48,54.66,41.54,52.55Z" transform="translate(0)"/><path class="cls-6" d="M33.35,47.73c-8.66,0-9,11.5.42,11.5C42.54,59.23,45.4,47.73,33.35,47.73Z" transform="translate(0)"/><path class="cls-7" d="M33.35,47.11c-8.66,0-9,11,.42,11C42.54,58.06,45.4,47.11,33.35,47.11Z" transform="translate(0)"/><path class="cls-8" d="M36.28,46.64c-2-.4-5.18-.2-6.83,1-5.72,4.25,2,8.06,4.35,9,2.88-1.19,6.21-3.61,6-5.95A4.53,4.53,0,0,0,36.28,46.64Z" transform="translate(0)"/><polygon class="cls-9" points="32.66 57.91 34.88 57.87 33.8 56.85 32.66 57.91"/><path class="cls-4" d="M46.08,54.78c-.41-1.07-4.73-2.67-4.73-2.67A34.36,34.36,0,0,0,37.3,66h6.87C45,59.33,46.42,55.66,46.08,54.78Z" transform="translate(0)"/><path class="cls-10" d="M41.26,48.76s-3.17,8.41-3,11.42c3.55-5.2,8.91-8.19,9-8.82S44,48.94,41.26,48.76Z" transform="translate(0)"/><path class="cls-10" d="M38.82,61.56A31.68,31.68,0,0,0,38,66h5.42c.27-2,.51-4.29.5-4.43C43.93,61.25,39,61.35,38.82,61.56Z" transform="translate(0)"/><path class="cls-9" d="M39,61.3a33.41,33.41,0,0,0-.76,4.7h5c.25-2,.5-4.54.49-4.69C43.75,61,39.24,61.09,39,61.3Z" transform="translate(0)"/><path class="cls-10" d="M39,60.93a6.05,6.05,0,0,0-.5,2.1,14.63,14.63,0,0,0,2.68,1.35c.15,0,2.63-1.22,2.74-1.29s.21-1.91,0-2A40.85,40.85,0,0,0,39,60.93Z" transform="translate(0)"/><path class="cls-5" d="M41.19,62.9a.46.46,0,1,0,.46.45A.45.45,0,0,0,41.19,62.9Z" transform="translate(0)"/><path class="cls-10" d="M40.87,57.48a5.22,5.22,0,0,0,4.36,0A26.54,26.54,0,0,0,40.87,57.48Z" transform="translate(0)"/><path class="cls-10" d="M45.86,57.68A51.43,51.43,0,0,0,44.1,66h.22C44.92,63.05,46,57.7,45.86,57.68Z" transform="translate(0)"/><path class="cls-4" d="M21.6,54.78c-.33.88,1,4.55,1.92,11.22h6.86a34.35,34.35,0,0,0-4-13.89S22,53.71,21.6,54.78Z" transform="translate(0)"/><path class="cls-10" d="M20.48,51.36c.06.63,5.41,3.62,9,8.82.14-3-3-11.42-3-11.42C23.68,48.94,20.43,50.73,20.48,51.36Z" transform="translate(0)"/><path class="cls-10" d="M23.74,61.57c0,.14.24,2.46.5,4.43h5.42a28.78,28.78,0,0,0-.8-4.44C28.64,61.35,23.75,61.25,23.74,61.57Z" transform="translate(0)"/><path class="cls-9" d="M23.92,61.31c0,.15.24,2.67.5,4.69h5a34.41,34.41,0,0,0-.77-4.7C28.45,61.09,23.93,61,23.92,61.31Z" transform="translate(0)"/><path class="cls-10" d="M23.82,61.07c-.25.11-.15,1.94,0,2s2.6,1.29,2.75,1.29A14.55,14.55,0,0,0,29.2,63a6,6,0,0,0-.49-2.1A41.07,41.07,0,0,0,23.82,61.07Z" transform="translate(0)"/><circle class="cls-5" cx="26.49" cy="63.35" r="0.46"/><path class="cls-10" d="M22.45,57.51c0,.15,2.76,1,4.36,0A26.54,26.54,0,0,0,22.45,57.51Z" transform="translate(0)"/><path class="cls-10" d="M23.37,66h.21a51.94,51.94,0,0,0-1.75-8.32C21.72,57.7,22.77,63.05,23.37,66Z" transform="translate(0)"/><path class="cls-11" d="M29.63,10.24c-19.4,4.49-15.22,27.29-9.55,26.12,3.45-.71,6.86-1.62,10.27-2.5s7.24-1.19,10.55,0c1,.35,1.81,1,2.84,1.27,3.37.87,6.17-.41,6.5-4,0-.19,0-.38,0-.57a31,31,0,0,0-1.21-9.08C46.77,13,37.85,8.33,29.63,10.24Z" transform="translate(0)"/><path class="cls-12" d="M48.73,29.26c0,.54-.19,2.33.74,2.21s.84-1.86.86-2.45a30.09,30.09,0,0,0-.49-4.13C47.74,25.1,48.64,27.9,48.73,29.26Z" transform="translate(0)"/><path class="cls-13" d="M32.64,14.56c-8.4.56-16.64,9.81-14,19.94,1.33,5.23,1.26,6.51,3.28,11.75s7.21,8.65,14.38,8.39c6.52-.24,9-3.51,10.76-9.06a34.77,34.77,0,0,0,2-13.1C48.36,22,41,14,32.64,14.56Z" transform="translate(0)"/><path class="cls-13" d="M16.17,32.55C12,33.6,13.5,39,16.85,40a8.91,8.91,0,0,0,3.33.3.86.86,0,0,0,.07-.1c.52-.7-.26-4.26-.49-5C19.18,33.35,18.17,32.05,16.17,32.55Z" transform="translate(0)"/><path class="cls-14" d="M43.51,18.61C39.56,18,34.86,19,30.9,19.68c-2.73.47-5.65,1.46-7.35,3.86s-4.05,4.57-3.7,7.65c.08.66,1.76,4.55,2.07,3,.46-2.35.82-5.73,1.23-5.64a46.51,46.51,0,0,0,8.59,1,25,25,0,0,0,13-4.32C48.34,22.78,45.15,18.88,43.51,18.61Z" transform="translate(0)"/><path class="cls-11" d="M46.7,13.27C43.6,10.52,39.18,9.33,35.14,9c-9.72-.82-17.64,4.3-19.51,14.65-.7,3.87.71,7.67,2.36,9,1.23,1,1.89,4.2,4,3.2.7-.33.57-1,.37-1.62-.7-2.25-.95-4.78.35-6.86C29.06,29,38,27.07,43.92,24.3a8.09,8.09,0,0,0,4.83-6.4A5.59,5.59,0,0,0,46.7,13.27Z" transform="translate(0)"/><path class="cls-12" d="M20.24,27.52c-1.07-.46-1.69.58-2.68.44s-1.48-1.16-2.17-1.76a8,8,0,0,0,.28,4c.8,1.65,1.46,1.06,3.1,2,2,1.15,2.26,3.24,3.24,2.31a22.83,22.83,0,0,1-.58-2.95C21.31,30.3,21.66,28.13,20.24,27.52Z" transform="translate(0)"/><path class="cls-15" d="M18.35,34.56c-1.05-.53-3.93-.19-2.87,1.61.91-1.43,2-.28,1.65.77-.23.7-1.27.58-.38,1.64A2.36,2.36,0,0,0,19,38.9C20.92,38.28,19.64,35.19,18.35,34.56Z" transform="translate(0)"/><path class="cls-16" d="M32.78,10c-4.72.22-10.17,2.33-12.77,6.81a12.36,12.36,0,0,0-1.51,3.45c-.1.49-.3,3.46,6.51,4.73-1.38.37-7.18-.4-7.82-.39.75.26,1.55.59,2.32.87a25.93,25.93,0,0,0,12.68.76,9.54,9.54,0,0,1-4.71,1.11,28.13,28.13,0,0,0,4.94-.2c4.37-.55,9-2.06,12.31-5.27,2.44-2.35,2.69-4.93,1.57-6.93C44.08,11,36.77,9.78,32.78,10Z" transform="translate(0)"/><path class="cls-11" d="M33.86,28.88c12.6-2.84,14-8.28,14-8.28L45.3,21.75C41.54,26.44,33.86,28.88,33.86,28.88Z" transform="translate(0)"/><path class="cls-17" d="M25.32,33.88c0,.6,1.37.31,1.77.41-.35.37-1.39.37-1.82.62s-.41.45.13.44a9.63,9.63,0,0,0,2.37-.64C28.76,33.86,25.78,33.76,25.32,33.88Z" transform="translate(0)"/><path class="cls-17" d="M46.52,34.15c.35,0,1.4.37,1.55-.2-.35-.17-2.85-.39-2.21.53a6.38,6.38,0,0,0,1.84.88c.45.07.52-.1.2-.41S46.73,34.55,46.52,34.15Z" transform="translate(0)"/><path class="cls-11" d="M42.41,29.17c.36,1.47,1.9.85,2.8.76.59-.07,2,.34,2.67,0a.58.58,0,0,0,.23-.18C49.93,27.39,41.68,26.21,42.41,29.17Z" transform="translate(0)"/><path class="cls-11" d="M25.64,29.84a.61.61,0,0,0,.26.18c.72.32,2.27-.12,2.91-.06,1,.1,2.66.72,3.06-.79C32.68,26.11,23.66,27.39,25.64,29.84Z" transform="translate(0)"/><path class="cls-18" d="M45.59,35.54c-1.05-.14-2.53.09-1.87,1.82.34.92,4.44,2.09,4.3,0a1.7,1.7,0,0,0-.13-.57A2.82,2.82,0,0,0,45.59,35.54Z" transform="translate(0)"/><path class="cls-18" d="M28.6,35.92a3.07,3.07,0,0,0-2.8-.1c-1.07.37-2.36,1.28-.9,2.55.77.67,5.22-.21,4.1-2A1.47,1.47,0,0,0,28.6,35.92Z" transform="translate(0)"/><path class="cls-19" d="M29.33,31.53c-1.77-1-3.33,2.22-2.18,3.47a2.62,2.62,0,0,1,1.83.38C30.31,34.86,30.65,32.31,29.33,31.53Z" transform="translate(0)"/><path class="cls-15" d="M43.27,38.83c-.32.09.26.23,1,.48a.45.45,0,0,1,.28.26c-3.18,1.84-11.22,3.18-16.55-.14l.15-.13c.75-.54,1.8-.54,1.52-.74a4.88,4.88,0,0,0-2.47.39c-.64.48-.71,2.06-.22,2.15s.45-.78.82-1.39c.26,1.73,1.71,9.09,7.66,9.39,4.47.24,6-2.12,6.3-5,.18-1.58,1.82-3.48,2.83-4.38.06.48-.25,1.17.09,1.24s1-.9.75-1.75S43.27,38.83,43.27,38.83Z" transform="translate(0)"/><path class="cls-20" d="M28.89,40.63s1.55,7.14,6.88,7.08c4.79-.05,5.49-2.44,5.79-4.12a4.65,4.65,0,0,1,1.74-3.1A15.7,15.7,0,0,1,28.89,40.63Z" transform="translate(0)"/><path class="cls-21" d="M30.6,41.42s-.06,2.29,1.53,3.21a8.25,8.25,0,0,0,6.83.6c1.65-.52,2.76-4,2.76-4A18.21,18.21,0,0,1,30.6,41.42Z" transform="translate(0)"/><path class="cls-21" d="M37.08,45.19a11.82,11.82,0,0,1-5.24-1.08c-.86-.5-.91.15-.77.74,0,0,.16,2.37,4.28,2.91,3.6.49,5.34-2.46,5-3.08S39.36,45.22,37.08,45.19Z" transform="translate(0)"/><path class="cls-22" d="M30.59,41.39a4.89,4.89,0,0,0,.32,1.82S39.1,42.1,41,43.07a12.52,12.52,0,0,0,.75-1.8S35.86,43.17,30.59,41.39Z" transform="translate(0)"/><path class="cls-22" d="M32.31,44.14c3.45,2.38,7.52.4,7.52.4A12.1,12.1,0,0,1,32.31,44.14Z" transform="translate(0)"/><path class="cls-15" d="M37.31,36.85c-1.13,0-1.61-.47-2.37-.12s.31,2,2.31,2,2.91-1.4,2.47-1.83S38.56,36.89,37.31,36.85Z" transform="translate(0)"/><path class="cls-23" d="M37.22,31.3c-2,0-3.08,5.12-2.07,5.9,1.26.95,3.62.45,4.4-.14C40.13,36.62,39.58,31.36,37.22,31.3Z" transform="translate(0)"/><path class="cls-19" d="M44.32,34.81a2.49,2.49,0,0,1,1.79-.17c.91-.78,1.24-2.58.29-3.37C44.63,29.78,42.24,33.84,44.32,34.81Z" transform="translate(0)"/><path class="cls-24" d="M28.39,32.14c-.79.18-.38,1.75.42,1.29C29.39,33.09,29.09,32,28.39,32.14Z" transform="translate(0)"/><path class="cls-24" d="M45.06,31.83c-.79.05-.65,1.66.2,1.33C45.87,32.93,45.76,31.79,45.06,31.83Z" transform="translate(0)"/><path class="cls-17" d="M36.8,50.3c.51-.06,1.1.91,1.08,1.46s-1.69,1.43-.09,1.31a1.21,1.21,0,0,0,1-1.77C38.35,50.16,37.68,50.19,36.8,50.3Z" transform="translate(0)"/></g></g></g></svg>