<svg xmlns="http://www.w3.org/2000/svg" xmlns:xlink="http://www.w3.org/1999/xlink" viewBox="0 0 96 96"><defs><style>.cls-1{fill:none;}.cls-2{clip-path:url(#clip-path);}.cls-3{fill:#ff8967;}.cls-4{fill:#1e1e29;}.cls-5{fill:#765aa3;}.cls-6{fill:#121219;}.cls-7{fill:#3a3a4a;}.cls-8{fill:#5e4684;}.cls-14,.cls-8{opacity:0.5;}.cls-9{fill:#242222;}.cls-10,.cls-14{fill:#9c552c;}.cls-11{fill:#70452c;}.cls-12,.cls-13{fill:#66241b;}.cls-12{opacity:0.4;}.cls-13,.cls-24{opacity:0.7;}.cls-15{fill:#d47b48;}.cls-16{fill:#732e2b;}.cls-17{fill:#fff9f0;}.cls-18{fill:#c4b9a7;}.cls-19{fill:#ada49e;}.cls-20{fill:#f0eae6;opacity:0.6;}.cls-21{fill:#d17642;}.cls-22{fill:#261b18;}.cls-23{opacity:0.2;}.cls-24{fill:#f0ded1;}.cls-25{fill:#423f3f;}.cls-26{fill:#54504f;}</style><clipPath id="clip-path" transform="translate(0)"><circle class="cls-1" cx="48" cy="48" r="48"/></clipPath></defs><g id="Layer_2" data-name="Layer 2"><g id="Layer_4" data-name="Layer 4"><g class="cls-2"><rect class="cls-3" width="96" height="96"/><path class="cls-4" d="M66.21,79.21l-4.89,5.13c.66,1.34,1.14,6.4,1.49,11.66H70C69.27,84.65,68.45,80.84,66.21,79.21Z" transform="translate(0)"/><path class="cls-4" d="M29.74,79.21C27.5,80.84,26.67,84.65,25.92,96h7.21c.36-5.26.84-10.32,1.5-11.66Z" transform="translate(0)"/><path class="cls-5" d="M59.31,76c-7.12-3.82-17.49-2.51-22.22.57-6,3.87-5.25,10.06-3.76,19.42H62.68C64.31,86.85,65.13,79.13,59.31,76Z" transform="translate(0)"/><path class="cls-4" d="M30.22,79.25c-.46,1.2,1.17,9.18,2.46,16.75h9.51c-1.58-7.6-3.52-15.56-5.08-20.63C37.11,75.37,30.82,77.69,30.22,79.25Z" transform="translate(0)"/><path class="cls-6" d="M29.22,79.39c.08,1,9.62,3.82,9.38,2.86s-1.32-8-1.32-8C31.35,74.65,29.14,78.43,29.22,79.39Z" transform="translate(0)"/><path class="cls-7" d="M31.35,84.87c.18.51,2.74,5.44,5.61,11.13H42.5C41,88.74,39.17,82.69,38.36,81.29S31,83.75,31.35,84.87Z" transform="translate(0)"/><path class="cls-4" d="M65.91,79.25c-.6-1.56-6.88-3.88-6.88-3.88-1.57,5.07-3.5,13-5.09,20.63h9.52C64.75,88.43,66.37,80.45,65.91,79.25Z" transform="translate(0)"/><path class="cls-6" d="M58.86,74.24s-1.08,7.05-1.33,8,9.3-1.89,9.39-2.86S64.79,74.65,58.86,74.24Z" transform="translate(0)"/><path class="cls-7" d="M57.78,81.29c-.82,1.4-2.6,7.45-4.15,14.71h5.55c2.87-5.69,5.43-10.62,5.61-11.13C65.19,83.75,58.52,80,57.78,81.29Z" transform="translate(0)"/><path class="cls-8" d="M46.86,66.6c-13.2,0-13.17,19.08,1.13,19.08C61.36,85.68,65.22,66.6,46.86,66.6Z" transform="translate(0)"/><path class="cls-5" d="M46.77,66C32.68,66,32.72,84,48,84,62.24,84,66.36,66,46.77,66Z" transform="translate(0)"/><path class="cls-9" d="M70.27,46.34a5.44,5.44,0,0,0-.75-1c3-.63,1.73-2.88.53-4.59,1-.75,1.78-.89,1.61-2.29a3.68,3.68,0,0,0-2.37-2.59c1-.84,2.37-.94,2.42-2.45s-1.32-2.7-2.32-3.46c4.49-1.31,2.16-6-1.58-6.28.83-1.55,1.75-2.37,0-3.62a5.46,5.46,0,0,0-5.19-.49c.72-3.86-4.61-4.49-6.54-2.22-.83-4.19-4.91-4.53-7.21-1.36-1.38-3.12-6-3.49-6.59.38-3-3.39-7.91-1.24-8.58,2.89A3.86,3.86,0,0,0,27,22.36a4.87,4.87,0,0,0-5.88,1.49c-1.12,1.47-.63,4,.33,5.35-4.85,0-3.84,4.2-1.31,6.46-3.75.45-5.09,5.84-.55,6-2.4,1-2.51,4.31.48,4.6-3,1.26-1.52,3.86,1.14,4.29-.78,2.73-.13,3.77,2.06,5.3a27.32,27.32,0,0,1,3.47,3.34c3.09,3.09,5.39,6.86,8.39,9.94s5.73-2.58,7.94-4a16.21,16.21,0,0,1,10.08-2.73c3.11.29,5.47,3.39,8.61,3.28,1.91-.06,3-1.75,3.74-3.32.79-1.77.43-3.1.71-4.81s1.75-2.14,2.65-3.31c.4-.5,1.46-3.74-.2-3.63C71.42,50.42,71.29,48.08,70.27,46.34Z" transform="translate(0)"/><path class="cls-10" d="M26.19,57.82c2.2,11.33,11.7,23.35,24.9,21.67,13.47-1.72,19.26-18.87,16.73-32.81C65.07,31.53,57.13,19.22,41.49,23.19,30.32,26,23.27,42.7,26.19,57.82Z" transform="translate(0)"/><path class="cls-11" d="M67.34,62.11C65.18,71,59.71,78.39,51.09,79.49c-13.2,1.68-22.7-10.34-24.9-21.67a38.14,38.14,0,0,1-.6-9.16c3.49,4.45,5.12,12.66,8.43,18.46,8.61-7.93,21.26-10.24,31.27-2.81A16.48,16.48,0,0,1,67.34,62.11Z" transform="translate(0)"/><path class="cls-12" d="M39.87,34.16a3.61,3.61,0,0,1-2.49-.83c-.19,1.65-2,2.32-3.49,2.36a3.49,3.49,0,0,1-3.3,4.08c-.21,1.16-.41,2.31-.6,3.47-.34,2-1.14,4-1.16,6A26.06,26.06,0,0,1,25.25,40c-.64-2.95-1.31-6.58-.5-9.55.66-2.38,3.18-3.84,5.24-4.91,3.75-1.95,8.24-2,12.37-2.13a50.93,50.93,0,0,1,13.81,1.38c2.32.56,7.36,1.28,8.74,3.53,1.64,2.7-3.39,4.92-5.23,3.31-1.59,1.68-4.89.8-6.12-.86-1.49,2-3.76,1.34-5.58.34-.88,2.31-3.55.74-5,1.43-1.08.49-1.25,1.56-2.9,1.64Z" transform="translate(0)"/><path class="cls-10" d="M23.74,62.88a11,11,0,0,0,4.5.24l.08-.15c.61-1.09-.65-6.94-1.05-8-1-2.75-2.75-4.13-5.37-3.24C16.44,53.53,19.11,61.51,23.74,62.88Z" transform="translate(0)"/><path class="cls-13" d="M25.77,60.76c1.95-1.39-.2-5.58-1.76-6.19-1.28-.51-4.33.7-2.73,3.06.64-2.3,2.1-.9,2,.72-.08,1.08-1.24,1.16,0,2.48C23.91,61.54,25.16,61.19,25.77,60.76Z" transform="translate(0)"/><path class="cls-9" d="M63.07,33.19a1.49,1.49,0,0,0,.53.21c1.52.1,2.27-1.1,2.89-2.34,1.54-3.1,0-6.17-2.28-8.46-2.94-2.93-9.81-4-13.77-4.54a38.83,38.83,0,0,0-11.64.3C32.45,19.48,24.9,23,23.26,29.84c-1,4.23-.09,9,.46,13.26.34,2.56-.42,7.59,1.89,9.42,2.69,2.12,3.51-1.35,3.62-3.81.16-3.63.38-7.14.67-10.72,2.32.08,3.27-1.94,3.05-4,1.87.35,4.14-.14,4.69-2.22a4.67,4.67,0,0,0,3.07.58c1-.25,1.36-1.52,1.94-1.72.83-.29,2.22.74,3.22.49s1.59-1.1,2.12-2.08c1.68,2.33,5.17,1.59,6.88-.22a3.65,3.65,0,0,0,5.66,1.47C59.7,31,61.93,32.61,63.07,33.19Z" transform="translate(0)"/><path class="cls-14" d="M54.39,74c-.4,2.18-6,2.75-7.15.48-1.48-2.89,5.81-3.36,6.82-1.79A1.76,1.76,0,0,1,54.39,74Z" transform="translate(0)"/><path class="cls-12" d="M51.29,61.48c-3.23.33-7.47,1.12-11.06,1-1.67-.06-2.67,1.59-1.87,2.62,5.2,6.67,8.45,7.12,12.68,7.11,6.1,0,8.32-3.4,9.07-6.69a10.6,10.6,0,0,1,1.65-2.88c1-1.33-.18-2.33-1.75-2.09C57.54,60.92,54.79,61.13,51.29,61.48Z" transform="translate(0)"/><path class="cls-15" d="M51.33,61.43c-3.34.32-7.73,1.06-11.44,1-1.72-.05-2.76,1.47-1.94,2.41,5.35,6.1,8.7,6.5,13.07,6.46,6.32,0,8.62-3.15,9.42-6.18a9.63,9.63,0,0,1,1.71-2.65c1-1.22-.18-2.14-1.8-1.9C57.79,60.88,55,61.09,51.33,61.43Z" transform="translate(0)"/><path class="cls-16" d="M37.72,62.89A67.29,67.29,0,0,0,63.18,61.1,6.53,6.53,0,0,0,60,64.25c-.87,2-4.28,3.63-9.59,3.87A15.89,15.89,0,0,1,37.72,62.89Z" transform="translate(0)"/><path class="cls-17" d="M40.83,63.23s.35,1.75,3.33,2.25a34.46,34.46,0,0,0,12.07-.32,6.09,6.09,0,0,0,4-3.37A72.36,72.36,0,0,1,40.83,63.23Z" transform="translate(0)"/><path class="cls-17" d="M42.36,65.69c-.32-.44-.24-1.19,1.15-.58,2,.85,5.11.86,8.88.52,3.51-.31,5.24-1.24,6-.78S56.1,68.39,50,68.22C43.72,68,42.36,65.69,42.36,65.69Z" transform="translate(0)"/><path class="cls-18" d="M41.65,64.43s14.1-1.81,17.54-1a5.82,5.82,0,0,0,1.08-1.61,84,84,0,0,1-19.44,1.44A2.7,2.7,0,0,0,41.65,64.43Z" transform="translate(0)"/><path class="cls-18" d="M44.66,65.4a25.26,25.26,0,0,0,11.18-.3S49.87,67.5,44.66,65.4Z" transform="translate(0)"/><path class="cls-19" d="M49,56.32a18.56,18.56,0,0,0-8.08,1.85,9.61,9.61,0,0,0-3.36,2.39c-1.63,2.1-1,4-2.73,5.31,5,1.74,11.39-2.46,16.39-2.74a53.19,53.19,0,0,1,7,.28c2.19.17,4.68,1.32,6.89.76-1.43-1.61-1.17-4.1-2.8-5.74-2.72-2.75-6.38-2.63-8.8-2.57a8.74,8.74,0,0,0-2.27.41Z" transform="translate(0)"/><path class="cls-20" d="M45.68,58c-4.14.7-5.77,3.11-8.08,6.14.31-.41,3.1-.51,3.83-.93s1.28-1.07,1.93-1.53c-.16.25-.23.67-.37.94,2.18.79,6-1.22,7.9-2.32,1.45.79,8.64,3.26,6.76.3.52.81,3.64,1.56,4.5,1.64C62.2,59,56.78,56.09,54,57.54a7.74,7.74,0,0,1-3.66,1.22C49.47,58.78,47.05,57.75,45.68,58Z" transform="translate(0)"/><path class="cls-13" d="M35.33,52.47c1.32-1.58-3.43-.91-4.12-.59.22.92,2.26.1,2.92.14-.46.67-2.1,1-2.71,1.47s-.52.8.33.64A16,16,0,0,0,35.33,52.47Z" transform="translate(0)"/><path class="cls-13" d="M63.65,50.21c-1.35-1.43,3.46-1.3,4.1-1.06-.1.94-2.49.37-3.08.48.48.62,2,.73,2.58,1.17s.55.75-.23.67A13.14,13.14,0,0,1,63.65,50.21Z" transform="translate(0)"/><path class="cls-21" d="M66.34,53.29a2.59,2.59,0,0,1,.42.81c.95,3-6,2.55-6.88,1.26-1.66-2.43.61-3.23,2.35-3.33C63.55,51.94,65.42,52.07,66.34,53.29Z" transform="translate(0)"/><path class="cls-21" d="M39.92,54.7a2.59,2.59,0,0,1,.58.75c1.53,2.89-5.25,3.8-7.21,2.62-2.71-1.65.31-3.57,2.1-4C36.77,53.81,38.74,53.63,39.92,54.7Z" transform="translate(0)"/><path class="cls-22" d="M38.48,47.62c-4.1-.86-6.39,3.79-3.55,5.1a9,9,0,0,1,4,0C41.6,51.68,41.53,48.27,38.48,47.62Z" transform="translate(0)"/><path class="cls-23" d="M54.74,55.71c-.85-.7-2.47.21-4,.32-1.41.1-2.69-.48-4,.19s.34,2.46,4.09,2.16S55.47,56.31,54.74,55.71Z" transform="translate(0)"/><path class="cls-21" d="M50.16,47.92c-3.21-.1-5.38,6.24-3.91,8.2,1,1.37,8.07.93,9.08-.8C55.7,54.68,53.22,48,50.16,47.92Z" transform="translate(0)"/><path class="cls-24" d="M37.08,48.49c-1.62.44-.26,2.38,1.3,1.56C39.51,49.46,38.52,48.1,37.08,48.49Z" transform="translate(0)"/><path class="cls-25" d="M39,42.68c3,.22,5,1.37,3.11,2.92-1.14.93-3.48.24-6.36.35-2.72.09-4.65,1.71-5.29-.14S35.42,42.41,39,42.68Z" transform="translate(0)"/><path class="cls-25" d="M59.33,41.33c-2.79.61-4.6,2-2.66,3.29,1.16.77,3.29-.21,6-.48,2.57-.25,4.53,1.1,5-.81S62.7,40.61,59.33,41.33Z" transform="translate(0)"/><path class="cls-22" d="M63.31,45.67c-4.19-.31-5.83,4.6-2.85,5.53a9.09,9.09,0,0,1,4-.54C66.94,49.28,66.42,45.91,63.31,45.67Z" transform="translate(0)"/><path class="cls-24" d="M62,46.72c-1.55.65.06,2.39,1.49,1.37C64.57,47.36,63.41,46.14,62,46.72Z" transform="translate(0)"/><path class="cls-26" d="M28,24.49c0-2-.09-3.82,2.36-4.13,2.06-.27,3.14,1.09,4.87,1.82.35-1.08-.1-2.2.41-3.27a3,3,0,0,1,2.84-1.57c2.13-.11,3,1.71,4.4,2.91.6-1.4,1.28-3.72,3.1-3.52a4.48,4.48,0,0,1,3.65,2.82c.78-1.48,1.67-4,3.76-2.81a6.68,6.68,0,0,1,3,4.4c.52-1,2-3.21,3.28-2.61,1.46.69,1.76,2.88,1.47,4.26.73-1,3.75-1.44,4.75-.73s.78,2.41.2,3.4c3.07-.1,4.13,3.34,1.1,4.55-2.7,1.07-4.23-1.17-5.84-2.84-2,2.75-5.79.47-7.35-1.46-1.42,3.16-5.33,1.84-7.44.41-.45,1.34-.66,2.16-2.13,2.65A3.57,3.57,0,0,1,41,28c-.42,1-.68,1.79-1.93,2a2.94,2.94,0,0,1-2.64-1.2,3.5,3.5,0,0,1-1.31,2.56c-1.12.58-2.06-.28-3-.68,0,1.13,0,1.86-1.09,2.4s-1.54,0-2.55-.21c.11,1.47-.09,3.1-2,3,.84,1.93.33,5.45-2.53,4.42-2.52-.91-2.09-2.91-.14-4-2.95,0-2.84-5.34-.32-5.87C21,27.43,22.44,22.57,28,24.49Z" transform="translate(0)"/><path class="cls-13" d="M61.6,38.07c-8.8-.91-21.06,1.1-26.23,2.59C44.22,40.09,51.18,39.35,61.6,38.07Z" transform="translate(0)"/><path class="cls-13" d="M59.36,35.57c-7.72-.8-18.49,1-23,2.27C44.1,37.34,50.21,36.69,59.36,35.57Z" transform="translate(0)"/></g></g></g></svg>