<svg xmlns="http://www.w3.org/2000/svg" xmlns:xlink="http://www.w3.org/1999/xlink" viewBox="0 0 96 96"><defs><style>.cls-1{fill:none;}.cls-2{clip-path:url(#clip-path);}.cls-3{fill:#feac70;}.cls-4{fill:#cc7c43;}.cls-5{fill:#e62628;}.cls-6{fill:#f5b28c;}.cls-7{fill:#968c83;}.cls-8{fill:#2b221c;}.cls-15,.cls-9{fill:#661004;}.cls-9{opacity:0.2;}.cls-10{fill:#66241b;opacity:0.6;}.cls-11{fill:#45362e;}.cls-12{fill:#eda264;}.cls-13{fill:#261b18;}.cls-14{fill:#e6d2c3;opacity:0.7;}.cls-15{opacity:0.3;}</style><clipPath id="clip-path"><circle class="cls-1" cx="48" cy="48" r="48"/></clipPath></defs><g id="Layer_2" data-name="Layer 2"><g id="Layer_4" data-name="Layer 4"><g class="cls-2"><rect class="cls-3" width="96" height="96"/><path class="cls-4" d="M36.28,82.51A2.75,2.75,0,0,0,33.21,78c-9.06,6.12-10.87,12-10.79,15.77A10.8,10.8,0,0,0,22.73,96h5.79a5.71,5.71,0,0,1-.61-2.39C27.84,90.14,30.81,86.2,36.28,82.51Z"/><path class="cls-5" d="M36.36,75.67C31.05,77.18,24,81.4,21.25,89.05a23.92,23.92,0,0,0,8.54,4.14c.76-2.81,2.12-5.44,4.47-6.93C35.81,85.27,37.89,75.23,36.36,75.67Z"/><path class="cls-4" d="M61.75,78a2.75,2.75,0,0,0-3.07,4.56c5.47,3.69,8.44,7.63,8.37,11.1A5.71,5.71,0,0,1,66.44,96h5.79a10.8,10.8,0,0,0,.31-2.28C72.62,89.91,70.81,84.07,61.75,78Z"/><path class="cls-5" d="M58.61,75.67c-1.54-.44.54,9.6,2.09,10.59,2.35,1.49,3.71,4.12,4.47,6.93a23.92,23.92,0,0,0,8.54-4.14C70.94,81.4,63.91,77.18,58.61,75.67Z"/><path class="cls-5" d="M59,75.06c-7.12-3.82-17.49-2.51-22.22.57-6.15,4-5.2,10.47-3.61,20.37h29.1C64,86.46,64.94,78.24,59,75.06Z"/><path class="cls-6" d="M53.32,68.19c-2.21-1.89-6.51-2.19-9.15-1.57S39.6,70,39.41,72.89c-.24,3.62,6.53,10.3,8.09,10.4C48.68,83.34,61,74.75,53.32,68.19Z"/><path class="cls-7" d="M37.54,74.3s-7,2.44-7.63,4c-.39,1,.8,7.73,1.54,17.7H40C40,89.29,39.58,80.93,37.54,74.3Z"/><path class="cls-7" d="M65.24,78.3c-.6-1.56-7.66-3.92-7.66-3.92C55.63,80.73,55.23,89.09,55.36,96h8.52C64.46,86.52,65.62,79.29,65.24,78.3Z"/><path class="cls-8" d="M70.63,23.58C69.55,19.48,67,16,62.87,15.07c-9.45-2.06-21.66-.54-31.33-.21-5.44.19-12.86,3.68-8,11.35-3.91-1.33-4.25,3.89-.12,5.94-6.11,1.91-.1,10.27,1.3,11,5,2.65,11-1.57,16.09-.1,6.75,1.93,23.56-.26,28.26-7.25C71.22,32.58,71.73,27.77,70.63,23.58Z"/><path class="cls-4" d="M26.72,55.47C28.29,67,37.19,79.65,50.59,78.7c13.66-1,20.46-17.93,18.7-32.11-1.92-15.42-9.22-28.27-25.2-25.16C32.67,23.66,24.63,40.07,26.72,55.47Z"/><path class="cls-9" d="M35.42,34.43c-1.61.83-5.87,2.88-8-.54-1-1.62-.26-4.06.38-5.91.78-2.25,3.35-3.51,5.45-4.43,3.81-1.68,8.25-1.46,12.34-1.39a52,52,0,0,1,13.59,2.08c2.91.85,8.39,1.6,9.4,4.89,1.28,4.16-3.17,4.7-6.26,4.71C54.84,33.85,38.93,32.61,35.42,34.43Z"/><path class="cls-4" d="M24,60.42a11,11,0,0,0,4.52.5l.09-.14c.67-1.07-.27-7-.61-8.15-.86-2.83-2.54-4.31-5.23-3.57C17.14,50.6,19.39,58.78,24,60.42Z"/><path class="cls-10" d="M26.13,58.4c2.05-1.28.12-5.63-1.42-6.33-1.26-.58-4.4.46-2.92,2.93.77-2.29,2.17-.79,1.95.83-.14,1.09-1.31,1.11-.15,2.5C24.22,59.09,25.5,58.81,26.13,58.4Z"/><path class="cls-8" d="M62,17c-3.59-1.88-24.89-1.11-29.12,2-4.92,3.66-7.52,8.05-7.22,14.19.15,3.37,4.68,3.88,6.59,1.47,1.64-2.06,3.93-2.6,6.54-2.69,4.33-.16,21.29-1,25.27.4,2.19.75,5.09,1.88,5.53-1.59a13,13,0,0,0-3.15-10.51A16.63,16.63,0,0,0,62,17Z"/><path class="cls-11" d="M62.93,23.4a11.24,11.24,0,0,1,3.68,1.1c3.42-4.8-5-7.57-8-7.94-3.25-.4-12.55-1.14-14.62,1.15a11.91,11.91,0,0,0-5.1-.56c-3.08,0-6-.09-9,.74-5.11,1.42-2.51,3.83,1.17,4.89,2.76.8,6.09.61,9,.6,3.88,0,7.51-.43,11.36,0C55.12,23.78,59.19,22.9,62.93,23.4Z"/><path class="cls-8" d="M31.27,35.61C30,42.81,29,46.29,29.9,52.79c0,0-3.3-3.61-6-3.92A45.54,45.54,0,0,1,23.51,40C23.67,36.55,28.75,35.58,31.27,35.61Z"/><path class="cls-12" d="M67.17,53.31a2.45,2.45,0,0,1,.38.85c.81,3.14-6.31,2.07-7.15.7-1.57-2.57.81-3.19,2.6-3.16C64.37,51.73,66.29,52,67.17,53.31Z"/><path class="cls-12" d="M40.46,53a2.91,2.91,0,0,1,.61.76c1.64,3-5.88,3.74-7.09,2.57-2.27-2.2,0-3.45,1.82-3.88C37.2,52.08,39.22,51.86,40.46,53Z"/><path class="cls-13" d="M37.86,51.31a4.15,4.15,0,0,0-2.92-.25c-2-1.71-.15-6.92,2.79-5.66C39.92,46.35,39.83,50.29,37.86,51.31Z"/><path class="cls-10" d="M55.38,54.67c-.73-.9-1.76.1-3.67.12-1.72,0-2.4-.76-3.6,0s.51,3,3.55,2.9S56,55.45,55.38,54.67Z"/><path class="cls-12" d="M51.26,48.33c-3.23-.28-3.47,6.54-2.74,7.13,1.81,1.43,5.6.42,6.7-.73C55.65,54.27,54.34,48.6,51.26,48.33Z"/><path class="cls-13" d="M66.05,45.21c1.61,1,1.59,4.27.39,5.6a3.83,3.83,0,0,0-3.11,0C60.86,49.18,63.06,43.41,66.05,45.21Z"/><path class="cls-14" d="M36.31,46.68c1.06-.36,1.72,1.27.88,1.88C36,49.41,35.12,47.09,36.31,46.68Z"/><path class="cls-14" d="M64.51,46.2c1-.21,1.46,1.42.59,1.9C63.9,48.75,63.33,46.44,64.51,46.2Z"/><path class="cls-8" d="M40.48,39a2.31,2.31,0,0,1,1.84,3.19c-.52,1.52-2.89.81-6.13,1-3.5.18-4.6.64-4.81-.36s-.07-2.58,3.05-3.44A14.82,14.82,0,0,1,40.48,39Z"/><path class="cls-8" d="M61.17,39.13a2.32,2.32,0,0,0-1.66,3.29c.61,1.48,2.94.64,6.18.62,3.51,0,4.63.38,4.78-.63s-.07-2.58-3.24-3.26A14.73,14.73,0,0,0,61.17,39.13Z"/><path class="cls-8" d="M60.45,57.55c1.15.81,4.1,4,6.53,1.64,1.17-1.12,3-5.66,2.42-11.63,3,2,2.87,7.9,2.22,11.08-.26,1.3-1.18,2.77-1.08,4,.15,2,1.73,4,2,6.09.38,2.41.35,5.81-2.52,6.51.31,3.06-.56,4.79-3.95,4.47,1.07,3.85-2.81,6.35-6,3.85.29,4.15-8.56,2.36-10.16.43-.41,2-3.42,2.16-5,1.82-2-.43-3.17-2-4.08-3.64-1.14,1.29-4,1.28-5.43.38-1.8-1.16-1.69-3.41-1.49-5.35-3.52,1-3.88-3-3.22-5.4C28.3,71.31,28.07,67,28.07,65c0-2.44-2-15,.48-15.79,2.22-.69,1.91,2.45,2.14,3.85,1.39,8.85,7.84,10.3,10.45,6.87,3.37-4.43,5.79-3,10.73-3.12C55.58,56.35,57.35,55.38,60.45,57.55Z"/><path class="cls-12" d="M60.67,64.56c-.28-1.25-3.18-1.79-4.11-2.73-.64,1.62-3.49.6-4.56-.08-1.07,1.17-4.09,1.5-5.21.37-.2.9-3.15,1.7-3.29,2.89C46.05,69.29,59.25,67.72,60.67,64.56Z"/><path class="cls-15" d="M47.05,64c1.23-.61,7.85-1.16,9.38-.36C53,64.79,47.05,64,47.05,64Z"/><path class="cls-11" d="M64.89,73c.29.91,1.1,2.7.55,3.58-1.07,1.72-4.58.57-5.87-.11.47.94,1.85,2.6.88,3.63-1.56,1.66-3.82-1.7-5.12-1.14-.81.35-.09,2.44-1.38,3-1.79.79-3.43-1.89-4.83-2.51a3.94,3.94,0,0,1-3.85,1.7c-2.25-.33-2-1.65-2.55-3.42-1.8,1.93-4.85,2.81-5.13-.71-2.35,3-2.59-3.45-1.52-5.14a15.28,15.28,0,0,1,3-3.32c1.74-1.46,2.62-.9,4.74-.39,3.46.84,7.92,1.63,11.45,1,4.2-.71,7.53-3.77,10.79.08.56.66,2,2.16,1.62,3.18C67.38,73.17,65.18,73.9,64.89,73Z"/></g></g></g></svg>