<svg xmlns="http://www.w3.org/2000/svg" xmlns:xlink="http://www.w3.org/1999/xlink" viewBox="0 0 66 66"><defs><style>.cls-1{fill:none;}.cls-2{clip-path:url(#clip-path);}.cls-3{fill:#fff;}.cls-4{fill:#1e1e29;}.cls-5{fill:#918fa0;}.cls-6{fill:#121219;}.cls-7{fill:#3a3a4a;}.cls-8{fill:#66667d;}.cls-9{fill:#4f3023;}.cls-10{fill:#ffcb9e;}.cls-11{fill:#bf3c1b;}.cls-11,.cls-12,.cls-17{opacity:0.3;}.cls-12{fill:#c94614;}.cls-13{fill:#693a27;}.cls-14{fill:#bf795c;}.cls-15{fill:#ffa073;}.cls-16{fill:#224245;}.cls-17{fill:#b54d26;}.cls-18{fill:#ffdfc2;}.cls-19{fill:#d4e6dd;opacity:0.7;}.cls-20{fill:#2b221c;}.cls-21{opacity:0.5;}.cls-22{fill:#94110c;}</style><clipPath id="clip-path" transform="translate(0)"><circle class="cls-1" cx="33" cy="33" r="33"/></clipPath></defs><g id="Layer_2" data-name="Layer 2"><g id="avatars"><g class="cls-2"><rect class="cls-3" width="66" height="66"/><path class="cls-4" d="M46.83,54.46,43.47,58c.45.92.78,4.41,1,8h5C48.93,58.19,48.37,55.58,46.83,54.46Z" transform="translate(0)"/><path class="cls-4" d="M21.76,54.46c-1.54,1.12-2.11,3.73-2.63,11.54h5c.24-3.61.57-7.1,1-8Z" transform="translate(0)"/><path class="cls-5" d="M42.09,52.25c-4.9-2.62-12-1.72-15.28.4C22.72,55.31,23.2,59.56,24.22,66H44.4C45.52,59.71,46.09,54.41,42.09,52.25Z" transform="translate(0)"/><path class="cls-4" d="M22.09,54.49c-.32.82.8,6.3,1.69,11.51h6.54c-1.09-5.22-2.42-10.7-3.5-14.19C26.82,51.81,22.5,53.41,22.09,54.49Z" transform="translate(0)"/><path class="cls-6" d="M21.4,54.58c.05.67,6.61,2.63,6.45,2S26.94,51,26.94,51C22.86,51.32,21.34,53.92,21.4,54.58Z" transform="translate(0)"/><path class="cls-7" d="M22.86,58.35c.13.35,1.88,3.74,3.86,7.65h3.81c-1.06-5-2.29-9.15-2.85-10.12S22.59,57.58,22.86,58.35Z" transform="translate(0)"/><path class="cls-4" d="M46.62,54.49c-.41-1.08-4.73-2.68-4.73-2.68-1.07,3.49-2.41,9-3.5,14.19h6.55C45.82,60.79,46.94,55.31,46.62,54.49Z" transform="translate(0)"/><path class="cls-6" d="M41.77,51s-.74,4.84-.91,5.51,6.4-1.3,6.45-2S45.85,51.32,41.77,51Z" transform="translate(0)"/><path class="cls-7" d="M41,55.88c-.56,1-1.78,5.13-2.85,10.12H42c2-3.91,3.73-7.3,3.85-7.65C46.13,57.58,41.54,55,41,55.88Z" transform="translate(0)"/><path class="cls-8" d="M33.52,45.79c-9.07,0-9.05,13.11.78,13.11C43.49,58.9,46.15,45.79,33.52,45.79Z" transform="translate(0)"/><path class="cls-5" d="M33.46,45.35c-9.68,0-9.66,12.42.83,12.42C44.1,57.77,46.93,45.35,33.46,45.35Z" transform="translate(0)"/><path class="cls-9" d="M44.26,8.51c-8.38-1.81-22.45-.27-27.21,6.76A8.48,8.48,0,0,0,15.59,22c.61,2.49,2.41,4.14,5.17,3.33a5.51,5.51,0,0,1,3.79.2c1.51.51,2.91,1.31,4.46,1.69,2.48.61,5.08.3,7.56.83a13.13,13.13,0,0,1,4.49,2.38,12.82,12.82,0,0,1,3,2.56,5.93,5.93,0,0,0,2,2c.62.27,2,.77,2.44.07a6.41,6.41,0,0,0,.2-2.16c.07-.82.07-1.64.1-2.45.1-2.1.53-4.14.73-6.21A3.36,3.36,0,0,1,50,26.84,8.7,8.7,0,0,0,53,23a10.93,10.93,0,0,0-.63-8.59A11.79,11.79,0,0,0,44.26,8.51Z" transform="translate(0)"/><path class="cls-10" d="M30.16,14.86C22.22,16.73,17,28.44,18.92,39.17c1.42,8,8,16.64,17.34,15.61,9.55-1.05,13.85-13.11,12.23-23C46.72,21.05,41.26,12.25,30.16,14.86Z" transform="translate(0)"/><path class="cls-11" d="M40.77,16.42a36.29,36.29,0,0,0-9.57-1.09c-2.87.07-6,0-8.61,1.31-1.44.7-3.21,1.65-3.7,3.25-.4,1.31-.86,3-.1,4.15,1.62,2.34,4.55.78,5.65.15,2.41-1.36,13.59-.93,18.78-1.14,2.17-.09,5.27-.58,4.26-3.47C46.69,17.31,42.83,16.93,40.77,16.42Z" transform="translate(0)"/><path class="cls-10" d="M16,34.78c-3.88,1.24-2.08,6.9,1.17,7.93a7.62,7.62,0,0,0,3.18.22l.06-.1c.44-.76-.38-4.91-.65-5.69C19,35.18,17.83,34.19,16,34.78Z" transform="translate(0)"/><path class="cls-12" d="M17.42,36.84c-.9-.37-3.07.44-2,2.13.49-1.62,1.5-.61,1.4.53-.07.77-.89.81,0,1.75.46.52,1.34.29,1.78,0C20,40.28,18.52,37.29,17.42,36.84Z" transform="translate(0)"/><path class="cls-9" d="M44.69,12.25a7.85,7.85,0,0,0-2-1.25,14.37,14.37,0,0,0-6.09-1c-1.61.07-3.21-.21-4.84-.14a33.66,33.66,0,0,0-5.28.71,19.88,19.88,0,0,0-6,2.07c-1.56.93-2.11,3-2.79,4.56a7,7,0,0,0-.24,2.41,38.55,38.55,0,0,0,.11,4c.2,2.36,3.38,2.6,4.66.85,1.08-1.49,2.67-1.92,4.5-2.06,3-.23,14.88-1.25,17.71-.4,1.55.46,3.61,1.17,3.82-1.27a10.64,10.64,0,0,0-1-4.29A11,11,0,0,0,44.69,12.25Z" transform="translate(0)"/><path class="cls-13" d="M46.73,11.05C42.65,9,37.31,9,32.9,9.41a27,27,0,0,0-10.53,3.26c-3.49,1.84-4.42,5.69-3.83,7.56,1.3-2.08,5.1-4.2,6.87-4.46-.15.93-1.77,2.81-2.08,3.69,1.4-.88,8.25-4.26,10.06-4.31-.58.72-1.91,1.65-1.78,2.66,3-.61,6.17-2.46,9.29-2.36-.92,1-2.43,1.22-3.18,2.4,3-.09,6.29-.65,9.4-.8a12.37,12.37,0,0,0-2.79,1.75c2.47,0,5.46-.4,7.85.23A10.23,10.23,0,0,0,46.73,11.05Z" transform="translate(0)"/><path class="cls-14" d="M16.79,24.37c-1,1.79-.3,9.56,0,10.25,1.88.15,4.29,2.58,4.29,2.58-.83-4.52-.21-7,.5-12.06A21.37,21.37,0,0,1,16.79,24.37Z" transform="translate(0)"/><path class="cls-15" d="M48.11,36.63a3.58,3.58,0,0,0-3-1c-1.26,0-2.91.52-1.74,2.28.63.94,5.64,1.5,5-.68A1.81,1.81,0,0,0,48.11,36.63Z" transform="translate(0)"/><path class="cls-15" d="M27.44,37.07c-.9-.73-2.3-.52-3.28-.25-1.26.35-2.81,1.28-1.17,2.76.88.79,6.13.06,4.9-2A2.09,2.09,0,0,0,27.44,37.07Z" transform="translate(0)"/><path class="cls-16" d="M26.36,31.82c-2.1-.81-3.25,2.89-1.8,4a3,3,0,0,1,2.05.1C28,35.18,27.91,32.42,26.36,31.82Z" transform="translate(0)"/><path class="cls-17" d="M36.4,38c-1.2.06-1.7-.47-2.53.07s.45,2.09,2.58,1.93,3-1.66,2.52-2.18S37.73,37.94,36.4,38Z" transform="translate(0)"/><path class="cls-18" d="M35.91,33.5c-2.27-.11-2.26,4.68-1.72,5.07,1.3,1,3.93.14,4.67-.7C39.15,37.54,38.07,33.6,35.91,33.5Z" transform="translate(0)"/><path class="cls-16" d="M46.18,30.91c-2.14-1.18-3.52,2.92-1.75,4a2.71,2.71,0,0,1,2.18-.09C47.41,33.86,47.33,31.54,46.18,30.91Z" transform="translate(0)"/><path class="cls-19" d="M25.4,32.75c-.82.32-.13,1.92.67,1.3C26.64,33.59,26.13,32.47,25.4,32.75Z" transform="translate(0)"/><path class="cls-19" d="M45.13,31.65c-.82.2-.36,1.8.47,1.31C46.2,32.61,45.86,31.47,45.13,31.65Z" transform="translate(0)"/><path class="cls-20" d="M31.2,27.37a18.85,18.85,0,0,0-4.86-.18c-2.5.25-4.17,1.07-4,1.59s2,.3,4.84.42c2.61.11,4.55.61,4.92-.12A1.1,1.1,0,0,0,31.2,27.37Z" transform="translate(0)"/><path class="cls-20" d="M45,26.56a15,15,0,0,0-4.32.43,1.13,1.13,0,0,0-.77,1.75c.35.71,2.06.12,4.37-.13,2.51-.26,4.12-.13,4.29-.66S47.23,26.68,45,26.56Z" transform="translate(0)"/><g class="cls-21"><path class="cls-22" d="M43.45,42.9c-.24.27-6,6.53-15,1a.83.83,0,0,0-1.06.16.65.65,0,0,0,.21,1,16.66,16.66,0,0,0,6.15,2.38,12.53,12.53,0,0,0,10.94-3.59.64.64,0,0,0-.14-1A.83.83,0,0,0,43.45,42.9Z" transform="translate(0)"/></g></g></g></g></svg>