<svg xmlns="http://www.w3.org/2000/svg" xmlns:xlink="http://www.w3.org/1999/xlink" viewBox="0 0 66 66"><defs><style>.cls-1{fill:none;}.cls-2{clip-path:url(#clip-path);}.cls-3{fill:#f1c4b5;}.cls-4{fill:#8d573e;}.cls-5{fill:#3a3a4a;}.cls-6{fill:#e0e0e0;}.cls-7{fill:#f29058;}.cls-8{fill:#2b221c;}.cls-9{fill:#faab6e;}.cls-10{fill:#a63f24;opacity:0.3;}.cls-11{fill:#b54319;opacity:0.5;}.cls-12{fill:#634f40;}.cls-13{fill:#1f1a17;}.cls-14{fill:#ffcb9e;}.cls-15{fill:#a87f7f;}.cls-16{fill:#8f2724;}.cls-17{fill:#fff9f0;}.cls-18{fill:#f58c53;}.cls-19{fill:#e8dac5;}</style><clipPath id="clip-path" transform="translate(0)"><circle class="cls-1" cx="33" cy="33" r="33"/></clipPath></defs><g id="Layer_2" data-name="Layer 2"><g id="avatars"><g class="cls-2"><rect class="cls-3" width="66" height="66"/><path class="cls-4" d="M24.44,57.74,21.8,53.55a12.92,12.92,0,0,0-5.67,11.71c0,.25,0,.49.07.74h5a8.1,8.1,0,0,1-.11-1A8,8,0,0,1,24.44,57.74Z" transform="translate(0)"/><path class="cls-4" d="M44.72,53.55l-2.64,4.19A8,8,0,0,1,45.44,65a8.1,8.1,0,0,1-.11,1h5c0-.25.05-.49.06-.74A12.9,12.9,0,0,0,44.72,53.55Z" transform="translate(0)"/><path class="cls-5" d="M40.77,52.15c-4.89-2.62-12-1.72-15.27.4-4.11,2.67-3.61,7-2.57,13.45H43.07C44.2,59.66,44.8,54.32,40.77,52.15Z" transform="translate(0)"/><path class="cls-6" d="M33,59.49c-2.6-.07-7.25-6.1-7.25-6.1l-2.05.39.3,8L40.56,62l.08-8S35.61,59.57,33,59.49Z" transform="translate(0)"/><path class="cls-4" d="M26,51.63s-4.83,1.68-5.24,2.76c-.32.82.81,6.37,1.7,11.61h5.21A50.6,50.6,0,0,0,26,51.63Z" transform="translate(0)"/><path class="cls-4" d="M45.75,54.39c-.42-1.08-5.25-2.76-5.25-2.76A51,51,0,0,0,38.83,66H44C44.93,60.76,46.06,55.21,45.75,54.39Z" transform="translate(0)"/><path class="cls-7" d="M37.6,47.62c-1.64-1.3-4.85-1.51-6.82-1.08a4.72,4.72,0,0,0-3.55,4.31c-.18,2.49,4.87,7.08,6,7.15C34.14,58,43.32,52.13,37.6,47.62Z" transform="translate(0)"/><path class="cls-8" d="M48.78,17.81c-5.09-4.7-9.35-8.41-18.49-7.46.19-.67.34-1.32.55-2-1.64.16-4.13,2.22-4.13,2.22s-3.51-.5-4.71.63a18.88,18.88,0,0,1,2.63.93c-2.06.23-11,5.05-12.14,15.76.19-.29,1.67-2,1.91-2.21a21.94,21.94,0,0,0,.5,6.49c.46,1.65,1.36,3.69,3.5,3.38,3.53-.5,7-1.2,10.56-1.87s7.37-.77,10.51.52c2.42,1,4.48,2.66,7.19.41,2.09-1.74,2-4,2.67-6.42.37.17,2,1.29,2.34,1.54.07-2-1.16-6-1.86-7.78.89-.25,2,0,2.86-.54C51.44,20.17,50.07,19,48.78,17.81Z" transform="translate(0)"/><path class="cls-9" d="M32.52,15.2c-8.4.1-17.06,8.63-15,18.58,1.07,5.14.94,6.37,2.7,11.55S27,54.09,34.18,54.22C46.33,54.43,48.09,43.58,48,33.43S40.92,15.1,32.52,15.2Z" transform="translate(0)"/><path class="cls-9" d="M15.23,31.76c-4.21.8-3,6.06.32,7.25a9.23,9.23,0,0,0,3.3.46l.08-.09c.55-.65-.05-4.14-.25-4.86C18.19,32.69,17.25,31.38,15.23,31.76Z" transform="translate(0)"/><path class="cls-10" d="M43.51,20.7a37.36,37.36,0,0,0-12-.68c-2.81.32-7-.89-9.57.17-1.69.7-2.4,3.19-3.28,5.11-.53,1.15-1.43,9.27.47,8.07.66-.42,2.76-8.13,3.24-9.79,9.13,3.26,19.32,2.26,19.32,2.26l-.8-1.55c.46.88,5.32.53,6-.15C49.45,21.72,45,21,43.51,20.7Z" transform="translate(0)"/><path class="cls-8" d="M46.64,18.9a18.69,18.69,0,0,0-7.37-3.47c-4.47-.89-7.89-1.93-12.52.3a18.68,18.68,0,0,0-8.36,8.65,14.79,14.79,0,0,0-1.74,6.54c0,1.42,2.35,4.65,2.7,2.53.51-3.05.09-6.14,2.9-11.6,5.15,2.3,14.46,2.69,17.69,2.95a9.45,9.45,0,0,1-1.31-1.6c.14.28,3.36.53,3.86.61,1.21.19,2.95.54,4.19,0C49,22.64,48.19,20.07,46.64,18.9Z" transform="translate(0)"/><path class="cls-11" d="M17.31,33.82c-1-.56-3.92-.39-2.94,1.41,1-1.33,2-.17,1.6.83-.26.67-1.29.5-.45,1.57a2.42,2.42,0,0,0,2.22.43C19.69,37.56,18.56,34.5,17.31,33.82Z" transform="translate(0)"/><path class="cls-12" d="M36.77,11.42c-2.59-.76-5.27-.44-8,0,0-.42.1-.85.13-1.27a4.74,4.74,0,0,0-1.5,1.14l-3.19-.09a3.46,3.46,0,0,1,2,1.26A22,22,0,0,0,18,17.7a11.38,11.38,0,0,0,2.06-.3,21.56,21.56,0,0,0-3.64,4.24,27.4,27.4,0,0,0,6.81-3.54A55.44,55.44,0,0,0,36,22c-.27-.74-3.56-2.64-4.94-4.33,4.4,1.29,14.64,3.71,14.64,3.71l-8-5.95c1.41.43,8.74,3.56,10.3,3.21C46.11,16.24,39.07,12.11,36.77,11.42Z" transform="translate(0)"/><path class="cls-11" d="M23.79,34.11c0,.64,1.5.34,1.94.45-.39.39-1.53.39-2,.65s-.44.48.15.47A10.49,10.49,0,0,0,26.47,35C27.56,34.1,24.29,34,23.79,34.11Z" transform="translate(0)"/><path class="cls-11" d="M46.27,34.76c-.36-.28-1.32-.3-1.6-.7.38-.09,1.57.25,1.68-.39-.41-.14-3.15-.11-2.35.81a7.38,7.38,0,0,0,2.1.74C46.59,35.25,46.66,35.06,46.27,34.76Z" transform="translate(0)"/><path class="cls-13" d="M27.72,31.38c-2-.91-3.36,2.71-2,3.91a2.93,2.93,0,0,1,2,.19C29.15,34.79,29.24,32.05,27.72,31.38Z" transform="translate(0)"/><path class="cls-11" d="M36,37.41c-1,0-1.46-.37-2.16,0s.31,1.88,2.12,1.8,2.64-1.51,2.23-1.9S37.14,37.38,36,37.41Z" transform="translate(0)"/><path class="cls-14" d="M35.39,31.61c-.89.05-1.08,2.46-1.38,3.6s-.53,2.22-.06,2.56c1.17.83,3.56.32,4.26-.31.27-.25-.38-1.42-.9-2.6S36.4,31.56,35.39,31.61Z" transform="translate(0)"/><path class="cls-13" d="M44.17,31.38c-2.08-1.13-3.75,3.3-1.44,3.87a2.67,2.67,0,0,1,1.79-.5C45.29,33.82,45.29,32,44.17,31.38Z" transform="translate(0)"/><path class="cls-15" d="M27.13,31.89c-.84.27-.22,1.89.6,1.31C28.31,32.78,27.87,31.65,27.13,31.89Z" transform="translate(0)"/><path class="cls-15" d="M43.64,32c-.79.19-.34,1.74.46,1.27C44.68,32.87,44.35,31.78,43.64,32Z" transform="translate(0)"/><path class="cls-11" d="M45.14,41c-.36-.74-2.48-.38-2.48-.38-.36.07.3.21,1.16.43a.53.53,0,0,1,.33.23C40,42.51,30.94,43,25.44,41l.16-.11c.84-.47,2-.46,1.7-.64a6.91,6.91,0,0,0-2.78.33c-.71.4-.74,1.78-.18,1.87s.49-.68.88-1.21c.36,1.51,2.22,7.48,9,7.79,5.07.24,6.71-1.36,7-3.83.16-1.37,2-3,3.06-3.79.08.42-.25,1,.14,1.08C44.91,42.62,45.49,41.75,45.14,41Z" transform="translate(0)"/><path class="cls-16" d="M26.47,42.1s2,6.21,8,6.2c5.42,0,6.12-2.08,6.4-3.54a3.87,3.87,0,0,1,1.86-2.68A33,33,0,0,1,26.47,42.1Z" transform="translate(0)"/><path class="cls-17" d="M28.43,42.79a3.21,3.21,0,0,0,1.84,2.81,12,12,0,0,0,7.74.57c1.84-.44,3-3.42,3-3.42A52.89,52.89,0,0,1,28.43,42.79Z" transform="translate(0)"/><path class="cls-17" d="M35.88,46.12a17.13,17.13,0,0,1-6-1c-1-.44-1,.13-.85.64,0,0,.27,2.06,5,2.57,4.09.44,5.95-2.1,5.51-2.65S38.46,46.16,35.88,46.12Z" transform="translate(0)"/><path class="cls-18" d="M46.42,36.94a3.58,3.58,0,0,0-3-.73c-1.24.15-2.82.79-1.5,2.42.7.87,5.71.95,4.86-1.14A1.6,1.6,0,0,0,46.42,36.94Z" transform="translate(0)"/><path class="cls-18" d="M28.05,36.88c-.8-.83-2.21-.79-3.2-.65-1.29.19-2.93.92-1.49,2.58.77.89,6,.8,5.07-1.36A2.1,2.1,0,0,0,28.05,36.88Z" transform="translate(0)"/><path class="cls-19" d="M28.42,42.76a3.31,3.31,0,0,0,.17.88s9.76-.65,11.89.2A4.74,4.74,0,0,0,41,42.75,61.3,61.3,0,0,1,28.42,42.76Z" transform="translate(0)"/><path class="cls-19" d="M30.45,45.17c4,2.09,8.52.41,8.52.41A17.77,17.77,0,0,1,30.45,45.17Z" transform="translate(0)"/><path class="cls-8" d="M27.23,26.53a42,42,0,0,0-4.54,2.7c.25.69.81.69,1.41.51a24.49,24.49,0,0,1,4-.95c.71.21,2.76.39,3.22-.48S27.71,26.39,27.23,26.53Z" transform="translate(0)"/><path class="cls-8" d="M39.56,28.8c.4.85,2.23.64,2.87.41a20.16,20.16,0,0,1,3.55.87c.52.18,1,.16,1.27-.53a34,34,0,0,0-4-2.6C42.84,26.82,39.14,27.87,39.56,28.8Z" transform="translate(0)"/></g></g></g></svg>