<svg xmlns="http://www.w3.org/2000/svg" xmlns:xlink="http://www.w3.org/1999/xlink" viewBox="0 0 96 96"><defs><style>.cls-1{fill:none;}.cls-2{clip-path:url(#clip-path);}.cls-3{fill:#fec051;}.cls-4{fill:#108d8e;}.cls-5{fill:#e62628;}.cls-6{fill:#ff3b3b;}.cls-7{fill:#c21f23;}.cls-8{fill:url(#linear-gradient);}.cls-9{fill:#fff;}.cls-13,.cls-9{opacity:0.3;}.cls-10{fill:#261b18;}.cls-11{fill:#9c552c;}.cls-12,.cls-13{fill:#661004;}.cls-12{opacity:0.4;}.cls-14{fill:#45362e;}.cls-15{fill:#d17642;}.cls-16{fill:#66241b;}.cls-16,.cls-17{opacity:0.7;}.cls-17{fill:#f0ded1;}.cls-18{fill:#161110;}.cls-19{fill:#611f16;}</style><clipPath id="clip-path" transform="translate(0)"><circle class="cls-1" cx="48" cy="48" r="48"/></clipPath><linearGradient id="linear-gradient" x1="42.05" y1="73.07" x2="55.37" y2="73.07" gradientUnits="userSpaceOnUse"><stop offset="0" stop-color="#854326"/><stop offset="1" stop-color="#9c552c"/></linearGradient></defs><g id="Layer_2" data-name="Layer 2"><g id="Layer_4" data-name="Layer 4"><g class="cls-2"><rect class="cls-3" width="96" height="96"/><path class="cls-4" d="M35.15,77.27C30,82,28.85,86.64,28.76,89.71a3.16,3.16,0,0,0,3.07,3.23h.08a3.15,3.15,0,0,0,3.15-3.06c.07-2.66,1.58-5.42,4.36-8a3.15,3.15,0,1,0-4.27-4.63Z" transform="translate(0)"/><path class="cls-4" d="M62.72,77.27a3.15,3.15,0,0,0-4.27,4.63c2.78,2.56,4.29,5.32,4.36,8A3.15,3.15,0,0,0,66,92.94h.09a3.14,3.14,0,0,0,3.06-3.23C69,86.64,67.85,82,62.72,77.27Z" transform="translate(0)"/><path class="cls-5" d="M60.53,90.51c.07-6.56,4.85-11.72,1.76-14-7.66-5.55-20.36-4-26.75,0-2.92,1.82,1.48,7.61,1.61,14,0,2.12.15,3.9.27,5.49h23C60.46,94.39,60.51,92.6,60.53,90.51Z" transform="translate(0)"/><path class="cls-6" d="M35.26,71.84c-2.6,3.94,3,8,13.54,8,11.46,0,16.18-3.79,13.67-8C54.28,58.2,43.25,59.73,35.26,71.84Z" transform="translate(0)"/><path class="cls-7" d="M39.69,72.35c-3,3.91,3.13,6,9.09,6S59.51,76.55,58.36,73C57,68.81,42.42,68.82,39.69,72.35Z" transform="translate(0)"/><path class="cls-8" d="M48.71,67.29c-2.64,0-6.37,1.4-6.63,5.1a4.06,4.06,0,0,0,1.13,3.67,8.64,8.64,0,0,0,5.5,2.8,8.66,8.66,0,0,0,5.5-2.8,4.09,4.09,0,0,0,1.13-3.67C55.07,68.69,51.35,67.29,48.71,67.29Z" transform="translate(0)"/><path class="cls-5" d="M42.18,71.23c-2.34,1-4.32,8.08,7,7.9C51.35,79.09,42.19,78.56,42.18,71.23Z" transform="translate(0)"/><path class="cls-5" d="M55.21,71.23c.88,6.93-9.17,7.86-7,7.9C59.53,79.31,57.54,72.21,55.21,71.23Z" transform="translate(0)"/><path class="cls-9" d="M56.13,81.31c-3,3.37-11,3.15-13.31.51-1.56-1.76-3-1.14-3.35.05-1.45,4.44,1.18,8.53,9.35,8.7,4.15.08,8.92-.86,9.9-4.47C59.47,83.39,57.82,79.41,56.13,81.31Z" transform="translate(0)"/><path class="cls-7" d="M39.18,90.62a9.82,9.82,0,0,0,4.29,2.78,24.42,24.42,0,0,1-4,.16c3.16,1.75,14.13,2.62,17.14.29-.51-.13-3.15-.09-3.51-.12,1.85-.69,4.16-1.5,5.68-3.09C52.65,93.24,44.42,92.47,39.18,90.62Z" transform="translate(0)"/><path class="cls-6" d="M42.12,78.67A20,20,0,0,0,38,87.32a.61.61,0,0,0,.44.73h.14a.59.59,0,0,0,.58-.46A18.84,18.84,0,0,1,43,79.46a.6.6,0,1,0-.89-.79Z" transform="translate(0)"/><path class="cls-6" d="M55.51,78.67a.6.6,0,1,0-.89.79,18.89,18.89,0,0,1,3.82,8.14.6.6,0,0,0,.58.46h.14a.6.6,0,0,0,.44-.73A19.94,19.94,0,0,0,55.51,78.67Z" transform="translate(0)"/><path class="cls-4" d="M35.06,89.88A3.15,3.15,0,0,0,32,86.64h-.09a3.16,3.16,0,0,0-3.15,3.07A12.32,12.32,0,0,0,30.25,96h8.84C37,95,35,93.09,35.06,89.88Z" transform="translate(0)"/><path class="cls-4" d="M66,86.64h-.09a3.15,3.15,0,0,0-3.06,3.24c.09,3.21-2,5.07-4,6.12h8.83a12.32,12.32,0,0,0,1.49-6.29A3.16,3.16,0,0,0,66,86.64Z" transform="translate(0)"/><path class="cls-10" d="M12.22,63.45a1.92,1.92,0,0,1-1.66-2.88c3.23-5.64,9.69-13.12,28.32-12.8a1.92,1.92,0,0,1,0,3.84h0c-16.6-.28-22.18,6.07-24.93,10.87A1.91,1.91,0,0,1,12.22,63.45Z" transform="translate(0)"/><path class="cls-10" d="M13.74,69.07a2,2,0,0,1-.85-.19A1.93,1.93,0,0,1,12,66.3C14.14,62,20.6,48.91,38.45,50.11a1.92,1.92,0,1,1-.25,3.83C24.65,53.05,18.93,61,15.46,68A1.9,1.9,0,0,1,13.74,69.07Z" transform="translate(0)"/><path class="cls-10" d="M16.55,73.46a1.82,1.82,0,0,1-.68-.13,1.93,1.93,0,0,1-1.12-2.48c3.87-10.18,11.3-17.27,23.38-22.29a1.92,1.92,0,0,1,1.48,3.55C28.42,56.76,21.86,63,18.35,72.22A1.93,1.93,0,0,1,16.55,73.46Z" transform="translate(0)"/><path class="cls-10" d="M20.6,76.78a1.85,1.85,0,0,1-.46,0,1.92,1.92,0,0,1-1.41-2.32c2.94-12.16,10.48-20.16,21.82-23.15a1.92,1.92,0,0,1,1,3.72c-10,2.64-16.44,9.48-19.07,20.33A1.91,1.91,0,0,1,20.6,76.78Z" transform="translate(0)"/><path class="cls-10" d="M25,79.06l-.37,0a1.92,1.92,0,0,1-1.51-2.26C25.57,64.08,32.27,56.4,43.57,53.3a1.92,1.92,0,1,1,1,3.71c-9.89,2.71-15.53,9.22-17.74,20.5A1.92,1.92,0,0,1,25,79.06Z" transform="translate(0)"/><path class="cls-10" d="M29.75,80h-.18a1.92,1.92,0,0,1-1.73-2.09c.72-7.83,4-18,15.59-21.75a1.92,1.92,0,1,1,1.2,3.65c-7.7,2.53-12.07,8.74-13,18.45A1.93,1.93,0,0,1,29.75,80Z" transform="translate(0)"/><path class="cls-10" d="M34.48,79.74h-.09a1.92,1.92,0,0,1-1.83-2c.17-3.46,1.54-15.11,12-19.84a1.92,1.92,0,0,1,1.58,3.51C37.67,65.22,36.54,75,36.4,77.92A1.91,1.91,0,0,1,34.48,79.74Z" transform="translate(0)"/><path class="cls-10" d="M39.19,78.27h-.11a1.92,1.92,0,0,1-1.81-2c.24-4.32,2.15-12.53,7.84-15.87a1.93,1.93,0,0,1,2,3.32c-4.29,2.51-5.77,9.45-6,12.76A1.93,1.93,0,0,1,39.19,78.27Z" transform="translate(0)"/><path class="cls-10" d="M23.29,50.68C19.23,51.74,18.57,57,20.08,61c2.05,5.42,6.36,6.66,8.49,4.65.75,3.23,9.68,9.63,14.16,9.11,3.48-.4.11-3.67,1-6,2-5.54-2.19-11-6.64-14.6-3-2.42-8.92-4.3-13-3.58C23.76,50.57,23.52,50.62,23.29,50.68Z" transform="translate(0)"/><path class="cls-11" d="M34.76,54.14c4-.7,7.92-1.32,11.9-1.92,6.52-1,13.45,7.85,17.43,12.59,3.83,4.58,8-8.3,8.2-12.07.25-4.66,2-12.29.93-17.47C68.11,10.09,29.78,13.45,24.72,31c-1.92,6.69-2.77,15.64.51,22.27C26.94,56.76,31.55,54.71,34.76,54.14Z" transform="translate(0)"/><path class="cls-11" d="M72,49.58c-.78-14.07-3.58-26-24.09-24.47-17.94,1.38-21.55,15.54-20.58,29.6C28,65.25,38.09,77.4,50.13,77.35S72.67,62.53,72,49.58Z" transform="translate(0)"/><path class="cls-11" d="M24.8,64.55c1.7.94,3.7.45,4.7-2.16,1.06-1.3.12-6.52-.71-9.79C28.12,50,26.5,48.47,23.66,49,17.75,50,20.53,62.18,24.8,64.55Z" transform="translate(0)"/><path class="cls-12" d="M26.44,57.77c2.21-1,.56-5.15-1-5.91-1.26-.62-4.59.12-3.25,2.48,1-2,2.31-.57,2,.9-.24,1-1.45.93-.35,2.29C24.41,58.26,25.75,58.09,26.44,57.77Z" transform="translate(0)"/><path class="cls-13" d="M50.2,16.88c-5.73-.42-11.61.29-16.37,3.56C28.73,24,25.9,30,24.35,35.72c-.85,3.12-1.76,6.56-1,9.79a5,5,0,0,0,2.57,3.62c1.81,1,1.75,1.78,2.59,3.46.14.3.29.79,1.43.79a22.52,22.52,0,0,1-.73-7.75A28.15,28.15,0,0,1,29.7,42c.18-.86,1-2.42.29-3.18,1.43-.59.83-2.34.64-3.34,2.15-.21,2.83-.88,3.29-2.57a3.1,3.1,0,0,0,2.92-.62c1,3.2,6,3.37,7.22.25a1.66,1.66,0,0,0,1.67.52c-.09,1.57,1.84,2.16,3.11,2.31a4.21,4.21,0,0,0,4.3-1.81c1.9,1.85,5.57,2.25,7.15-.24,1.34,2.33,4.56,1.58,6.49.49a2.56,2.56,0,0,0,2.35,1.77c.37,1.19,1.06,3,2.4,1.64,1.58-1.68.45-4.91-.37-6.62C68,23.86,62.5,18.72,54.84,17.44,53.32,17.19,51.77,17,50.2,16.88Z" transform="translate(0)"/><path class="cls-10" d="M28.42,61.2a2.36,2.36,0,0,1-2,2.8,2.57,2.57,0,0,1-2.78-2.19,2.37,2.37,0,0,1,2-2.79A2.55,2.55,0,0,1,28.42,61.2Z" transform="translate(0)"/><path class="cls-10" d="M73.6,51.71a1.63,1.63,0,0,1-.31,0,1.91,1.91,0,0,1-1.58-2.21c.91-5.53.82-16.79-5.36-23.86-4-4.61-10.1-6.83-18-6.59-7.32.22-13,2.5-16.84,6.78C25,33,25.26,43.61,25.49,46.7v.21a1.91,1.91,0,0,1-1.86,2,2,2,0,0,1-2-1.83c-.26-3.57-.5-15.55,7-23.84,4.6-5.09,11.18-7.79,19.58-8,9.13-.27,16.21,2.38,21,7.9,6.66,7.62,7.53,19.32,6.25,27A1.93,1.93,0,0,1,73.6,51.71Z" transform="translate(0)"/><path class="cls-10" d="M56.87,34.61a1.89,1.89,0,0,1-.89-.22,1.92,1.92,0,0,1-.8-2.6c1.58-3,1.76-9.94-.52-15.14a1.92,1.92,0,1,1,3.51-1.54c2.86,6.49,2.43,14.65.41,18.48A1.94,1.94,0,0,1,56.87,34.61Z" transform="translate(0)"/><path class="cls-10" d="M63.53,34.32a1.88,1.88,0,0,1-1.27-.49,1.91,1.91,0,0,1-.16-2.71c2.77-3.12,4.71-5.61,4.47-9.37a1.92,1.92,0,0,1,1.8-2,1.94,1.94,0,0,1,2,1.79c.36,5.65-3,9.42-5.44,12.17A1.92,1.92,0,0,1,63.53,34.32Z" transform="translate(0)"/><path class="cls-10" d="M31.31,34.51a1.89,1.89,0,0,1-1-.31,13,13,0,0,1-5.67-7.74,1.92,1.92,0,0,1,3.78-.71,9.24,9.24,0,0,0,4,5.22,1.92,1.92,0,0,1-1,3.54Z" transform="translate(0)"/><path class="cls-10" d="M53.34,32.25H53.2a1.92,1.92,0,0,1-1.78-2.05c0-.09.6-9-2.73-14.57a1.92,1.92,0,1,1,3.3-2c3.95,6.64,3.3,16.4,3.27,16.82A1.93,1.93,0,0,1,53.34,32.25Z" transform="translate(0)"/><path class="cls-10" d="M44.29,31.53a1.92,1.92,0,0,1-1.83-1.34c0-.08-2.47-7.75-4.77-13.26a1.92,1.92,0,1,1,3.55-1.48C43.6,21.12,46,28.7,46.12,29a1.9,1.9,0,0,1-1.25,2.41A2,2,0,0,1,44.29,31.53Z" transform="translate(0)"/><path class="cls-10" d="M62.12,29.67a1.86,1.86,0,0,1-.82-.19,1.91,1.91,0,0,1-.92-2.55c0-.11,2.11-4.67.71-8.41a1.92,1.92,0,1,1,3.6-1.34c2,5.29-.72,11.14-.83,11.38A1.92,1.92,0,0,1,62.12,29.67Z" transform="translate(0)"/><path class="cls-10" d="M34.55,31.75a1.92,1.92,0,0,1-1.34-.55,17.8,17.8,0,0,1-4.85-9.58,1.92,1.92,0,0,1,3.81-.46,14.29,14.29,0,0,0,3.72,7.29,1.92,1.92,0,0,1-1.34,3.3Z" transform="translate(0)"/><path class="cls-10" d="M49.05,34.67a1.92,1.92,0,0,1-1.89-1.59c-.11-.62-.22-1.45-.34-2.43A57.64,57.64,0,0,0,43.2,15.37a1.93,1.93,0,0,1,3.56-1.47,61.6,61.6,0,0,1,3.88,16.27c.11.91.2,1.67.3,2.24a1.92,1.92,0,0,1-1.55,2.23Z" transform="translate(0)"/><path class="cls-10" d="M41.12,33.88a1.91,1.91,0,0,1-1.47-.68c-2.65-3.14-5.23-8.55-6.91-14.47a1.92,1.92,0,1,1,3.69-1.05c1.82,6.38,4.37,10.92,6.16,13a1.92,1.92,0,0,1-1.47,3.16Z" transform="translate(0)"/><path class="cls-10" d="M69,33.92a1.91,1.91,0,0,1-1.43-3.2,14.24,14.24,0,0,0,2.71-4.17,1.92,1.92,0,1,1,3.73.91c-.58,2.38-3.08,5.27-3.58,5.83A1.93,1.93,0,0,1,69,33.92Z" transform="translate(0)"/><path class="cls-10" d="M71.61,36.73a1.92,1.92,0,0,1-1.13-3.48l3.2-2.31a1.92,1.92,0,1,1,2.25,3.12l-3.2,2.31A1.87,1.87,0,0,1,71.61,36.73Z" transform="translate(0)"/><path class="cls-10" d="M28.38,38.18a1.91,1.91,0,0,1-1-.29c-.41-.26-4.06-2.61-5.28-5.54a1.92,1.92,0,1,1,3.55-1.48c.64,1.54,3,3.28,3.77,3.76a1.92,1.92,0,0,1-1,3.55Z" transform="translate(0)"/><path class="cls-10" d="M73.2,40.11a1.92,1.92,0,0,1-.37-3.81L74.57,36a1.9,1.9,0,0,1,2.25,1.51,1.92,1.92,0,0,1-1.51,2.26l-1.74.34A1.55,1.55,0,0,1,73.2,40.11Z" transform="translate(0)"/><path class="cls-10" d="M73.73,44a1.92,1.92,0,0,1-.31-3.82L74.65,40a1.93,1.93,0,0,1,.62,3.8L74,44Z" transform="translate(0)"/><path class="cls-10" d="M73.92,48.11a1.92,1.92,0,0,1-.25-3.83l.52-.07a1.92,1.92,0,1,1,.5,3.81l-.52.07Z" transform="translate(0)"/><path class="cls-10" d="M74.17,51.77H74l-.57-.06a1.92,1.92,0,1,1,.4-3.82l.56,0a1.92,1.92,0,0,1-.19,3.84Z" transform="translate(0)"/><path class="cls-10" d="M27.57,42.1a1.85,1.85,0,0,1-.88-.22L21.2,39.06A1.92,1.92,0,0,1,23,35.64l5.49,2.83a1.92,1.92,0,0,1-.88,3.63Z" transform="translate(0)"/><path class="cls-10" d="M26.73,46A2,2,0,0,1,26,45.8l-4.78-2.12a1.92,1.92,0,0,1-1-2.54,1.9,1.9,0,0,1,2.53-1l4.78,2.12A1.92,1.92,0,0,1,26.73,46Z" transform="translate(0)"/><path class="cls-10" d="M27,50.08a1.8,1.8,0,0,1-.64-.11L21.87,48.4a1.92,1.92,0,1,1,1.27-3.62l4.46,1.56A1.92,1.92,0,0,1,27,50.08Z" transform="translate(0)"/><path class="cls-14" d="M53.51,28.48a1.44,1.44,0,0,1-1.43-1.4c-.07-2.41-1.42-6.66-2.41-9.76-.27-.85-.52-1.62-.71-2.27a1.44,1.44,0,0,1,2.76-.83c.19.64.43,1.4.69,2.23C53.51,19.9,54.87,24.19,55,27a1.44,1.44,0,0,1-1.39,1.48Z" transform="translate(0)"/><path class="cls-14" d="M57.75,31.09a1,1,0,0,1-.24,0,1.44,1.44,0,0,1-1.18-1.65c.78-4.69-.44-11.64-1.14-12.79a1.44,1.44,0,1,1,2.45-1.5C59,17.27,60,25.1,59.17,29.89A1.45,1.45,0,0,1,57.75,31.09Z" transform="translate(0)"/><path class="cls-14" d="M62.42,27.92l-.24,0A1.44,1.44,0,0,1,61,26.25c.48-2.94.81-7,.5-8.14a1.44,1.44,0,0,1,2.78-.74c.55,2.08-.13,7.45-.44,9.34A1.45,1.45,0,0,1,62.42,27.92Z" transform="translate(0)"/><path class="cls-14" d="M64.63,32.63a1.43,1.43,0,0,1-.91-.32,1.44,1.44,0,0,1-.2-2A20.53,20.53,0,0,0,67.07,22a1.45,1.45,0,0,1,1.44-1.4h0A1.44,1.44,0,0,1,70,22.09a22.56,22.56,0,0,1-4.2,10A1.47,1.47,0,0,1,64.63,32.63Z" transform="translate(0)"/><path class="cls-14" d="M70.29,32.11a1.45,1.45,0,0,1-1.14-.56,1.44,1.44,0,0,1,.26-2,6.85,6.85,0,0,0,1.14-1.91,5.33,5.33,0,0,1,.83-1.41,1.44,1.44,0,0,1,2.11,2c-.07.12-.22.44-.34.68a8,8,0,0,1-2,3A1.43,1.43,0,0,1,70.29,32.11Z" transform="translate(0)"/><path class="cls-14" d="M72.6,35.6a1.44,1.44,0,0,1-.74-2.67l1.81-1.37.27-.21a1.44,1.44,0,1,1,1.73,2.3l-.25.2c-1.75,1.33-2,1.47-2.09,1.55A1.39,1.39,0,0,1,72.6,35.6Z" transform="translate(0)"/><path class="cls-14" d="M48.71,30a1.44,1.44,0,0,1-1.43-1.29c-.13-1.26-.88-4.66-3.67-13.67a1.43,1.43,0,1,1,2.74-.85c2.3,7.41,3.58,12.2,3.79,14.22A1.45,1.45,0,0,1,48.86,30Z" transform="translate(0)"/><path class="cls-14" d="M43.27,27.71A1.45,1.45,0,0,1,42,26.86c-.27-.62-.71-1.9-1.27-3.53A55.19,55.19,0,0,0,38.27,17a1.44,1.44,0,1,1,2.39-1.6,41.94,41.94,0,0,1,2.74,7c.49,1.43,1,2.78,1.18,3.29a1.43,1.43,0,0,1-.73,1.89A1.36,1.36,0,0,1,43.27,27.71Z" transform="translate(0)"/><path class="cls-14" d="M39.42,31.16a1.42,1.42,0,0,1-1-.45c-1.29-1.37-2.37-4.35-3.64-8.12A30,30,0,0,0,33.39,19a1.44,1.44,0,0,1,2.39-1.59,22.24,22.24,0,0,1,1.68,4.26c.82,2.41,2,6,3,7.06a1.44,1.44,0,0,1-.06,2A1.41,1.41,0,0,1,39.42,31.16Z" transform="translate(0)"/><path class="cls-14" d="M33,30.07a1.43,1.43,0,0,1-1-.43c-1.06-1.06-3.1-6.17-3.12-8.23A1.43,1.43,0,0,1,30.25,20h0a1.44,1.44,0,0,1,1.44,1.42A19.19,19.19,0,0,0,34,27.63a1.43,1.43,0,0,1,0,2A1.41,1.41,0,0,1,33,30.07Z" transform="translate(0)"/><path class="cls-14" d="M30,33.05a1.44,1.44,0,0,1-1-.41,28.35,28.35,0,0,1-3.8-5.73,1.44,1.44,0,0,1,.9-1.82,1.42,1.42,0,0,1,1.82.9A31.49,31.49,0,0,0,31,30.58a1.44,1.44,0,0,1-1,2.47Z" transform="translate(0)"/><path class="cls-14" d="M25.9,35.44a1.46,1.46,0,0,1-.94-.35,19,19,0,0,1-2.15-2.35,1.44,1.44,0,0,1,2.41-1.58,15.83,15.83,0,0,0,1.62,1.75,1.44,1.44,0,0,1-.94,2.53Z" transform="translate(0)"/><path class="cls-14" d="M24.26,39.77a1.38,1.38,0,0,1-.8-.25c-.35-.23-.71-.45-1.06-.64a1.44,1.44,0,0,1,1.36-2.53,12.65,12.65,0,0,1,1.31.79,1.44,1.44,0,0,1-.81,2.63Z" transform="translate(0)"/><path class="cls-14" d="M73.54,39.71h-.27a1.44,1.44,0,0,1,.19-2.86c.18-.05.55-.19.7-.24l.34-.13a1.44,1.44,0,1,1,.87,2.75l-.2.07A4.87,4.87,0,0,1,73.54,39.71Z" transform="translate(0)"/><path class="cls-14" d="M74,44.05a1.43,1.43,0,0,1-1.07-2.4,2.08,2.08,0,0,1,2.1-.56,1.45,1.45,0,0,1,1,1.76,1.48,1.48,0,0,1-1.44,1.06A1.3,1.3,0,0,1,74,44.05Z" transform="translate(0)"/><path class="cls-15" d="M67.66,54.05a2.89,2.89,0,0,1,.43.92c1,3.43-7,2.57-7.91,1.09C58.4,53.3,61,52.51,63,52.47,64.53,52.43,66.65,52.65,67.66,54.05Z" transform="translate(0)"/><path class="cls-15" d="M40.26,54a2.76,2.76,0,0,1,.55.81c1.43,3.07-5.72,3.51-7.69,2.16-2.74-1.87.54-3.61,2.44-3.89C37,52.89,39.08,52.85,40.26,54Z" transform="translate(0)"/><path class="cls-10" d="M38.84,46.27c-4.07-1.06-6.61,3.36-3.83,4.78a9.41,9.41,0,0,1,4,.2C41.76,50.38,41.87,47.05,38.84,46.27Z" transform="translate(0)"/><path class="cls-16" d="M53.73,53.13c-.63-.58-1.77.19-2.9.28S48.88,53,48,53.57s.32,2,3,1.79S54.28,53.63,53.73,53.13Z" transform="translate(0)"/><path class="cls-15" d="M50.41,48.76c-1.93,0-3.12,3.53-2.21,4.61.64.75,4.84.43,5.42-.54C53.83,52.47,52.24,48.78,50.41,48.76Z" transform="translate(0)"/><path class="cls-17" d="M37.12,47.76c-1.24.35-.29,2.3.91,1.59C38.9,48.83,38.22,47.46,37.12,47.76Z" transform="translate(0)"/><path class="cls-10" d="M64.73,45.57c-4.17-.52-6.09,4.19-3.14,5.25a9.32,9.32,0,0,1,4-.33C68.19,49.27,67.84,46,64.73,45.57Z" transform="translate(0)"/><path class="cls-17" d="M63.2,47.16c-1.16.5,0,2.32,1.1,1.46C65.08,48,64.22,46.72,63.2,47.16Z" transform="translate(0)"/><path class="cls-18" d="M28.23,45.33s1.24,4.09,8.34,1.57c2.89-1,4.5,2,4.5,2s0-4.74-4.3-3.79C34.59,45.55,31.82,47.8,28.23,45.33Z" transform="translate(0)"/><path class="cls-18" d="M72.59,45.2s-1.41,3.85-7.83,1.55a3.75,3.75,0,0,0-4.49,1.7s.23-4.6,4.24-3.62C66.56,45.34,69.08,47.55,72.59,45.2Z" transform="translate(0)"/><path class="cls-10" d="M30.81,41.68c2-2.64,8.64-4.27,11.2-2.13C38.22,40.46,36.32,40.62,30.81,41.68Z" transform="translate(0)"/><path class="cls-10" d="M70.9,41.68c-2-2.64-8.64-4.27-11.2-2.13C63.49,40.46,65.39,40.62,70.9,41.68Z" transform="translate(0)"/><path class="cls-16" d="M39.18,58.78c1.55,3-2.27,4.4-3.78,1.42A2.84,2.84,0,0,0,39.18,58.78Z" transform="translate(0)"/><path class="cls-16" d="M60.54,58.67c-.89,3.11,3.2,4.27,4.06,1.22A3.17,3.17,0,0,1,60.54,58.67Z" transform="translate(0)"/><path class="cls-19" d="M49.32,69.06c-5.62-.29-10.09-3.39-11.91-7.43a.73.73,0,0,1,.49-1,1,1,0,0,1,1.18.51c1.59,3.51,5.59,6.23,10.66,6.35,5.26.14,9.83-2.55,11.41-6.74a.88.88,0,0,1,1.14-.43.81.81,0,0,1,.57,1c-1.83,4.83-7,7.89-13.06,7.73Z" transform="translate(0)"/></g></g></g></svg>