<svg xmlns="http://www.w3.org/2000/svg" xmlns:xlink="http://www.w3.org/1999/xlink" viewBox="0 0 66 66"><defs><style>.cls-1{fill:none;}.cls-2{clip-path:url(#clip-path);}.cls-3,.cls-9{fill:#fff;}.cls-4{fill:#ed904e;}.cls-5{fill:url(#linear-gradient);}.cls-6{fill:#3a3a4a;}.cls-7,.cls-9{opacity:0.1;}.cls-8{fill:#de3e78;}.cls-10{fill:#f06799;}.cls-11{fill:#331f1b;}.cls-12{fill:#593c2d;}.cls-13{fill:#85260f;opacity:0.3;}.cls-14{fill:#fca760;}.cls-15{fill:#e6d2c3;opacity:0.7;}.cls-16{fill:#2b221c;}.cls-17{fill:#960800;opacity:0.4;}.cls-18{fill:#8f2621;}.cls-19{fill:#fff9f0;}.cls-20{fill:#e8dac5;}.cls-21{fill:#f7a25b;}.cls-22{fill:#121b21;}</style><clipPath id="clip-path" transform="translate(0)"><circle class="cls-1" cx="33" cy="33" r="33"/></clipPath><linearGradient id="linear-gradient" x1="34.89" y1="51.87" x2="34.8" y2="55.6" gradientUnits="userSpaceOnUse"><stop offset="0" stop-color="#e37c32"/><stop offset="1" stop-color="#ed904e"/></linearGradient></defs><g id="Layer_2" data-name="Layer 2"><g id="avatars"><g class="cls-2"><rect class="cls-3" width="66" height="66"/><path class="cls-4" d="M30.54,57l-1.42-2.64c-2.19,1-2.64,3.26-3.11,5.6A13.12,13.12,0,0,1,23.62,66h3.71a18.64,18.64,0,0,0,1.78-5.51C29.5,58.56,29.78,57.35,30.54,57Z" transform="translate(0)"/><path class="cls-4" d="M38.67,57l1.43-2.64c2.19,1,2.63,3.26,3.1,5.6A13,13,0,0,0,45.6,66H41.88a18.89,18.89,0,0,1-1.77-5.51C39.72,58.56,39.44,57.35,38.67,57Z" transform="translate(0)"/><path class="cls-5" d="M34.64,49.73c2.73,0,1.33,2.48,3.4,3.39S44.16,56.7,40.48,60,32.09,63,29.4,60.29s-2.72-5.31,1.82-7C33.16,52.53,32,49.73,34.64,49.73Z" transform="translate(0)"/><path class="cls-6" d="M39.24,53.55A5.2,5.2,0,0,0,38,53c.38,1.68,1,5.76-3.25,5.76s-3.83-3.37-3.52-5.64a1.49,1.49,0,0,0-.92.42c-1.19,3.61-3.17,4.63-1.35,9A10.29,10.29,0,0,1,30.06,66h9a10.09,10.09,0,0,1,1.27-3.61C42.25,58.11,40.24,55.85,39.24,53.55Z" transform="translate(0)"/><path class="cls-7" d="M33,64.11c.19,0,.36-.09.53-.12-1-.18-2.3-.17-2.72-.89,1.23,0,2.46.18,3.73.21a31.1,31.1,0,0,0,4.21-.25c-.2,0-1.24.67-1.63.78A8.37,8.37,0,0,1,33,64.11Z" transform="translate(0)"/><path class="cls-8" d="M34.76,59.21a4,4,0,0,1-3.17-1.13c-1.09-1.25-.83-3.16-.61-4.7l0-.29a.46.46,0,0,1,.52-.39.45.45,0,0,1,.39.51l0,.29c-.18,1.36-.42,3,.4,4a3.19,3.19,0,0,0,2.48.82,2.8,2.8,0,0,0,2.32-.87c1-1.21.45-3.48.26-4.34a.46.46,0,0,1,.35-.54.44.44,0,0,1,.54.34c.22,1,.81,3.56-.44,5.11A3.67,3.67,0,0,1,34.76,59.21Z" transform="translate(0)"/><path class="cls-8" d="M28.24,59.62h0a.45.45,0,0,1-.44-.47,8.94,8.94,0,0,1,.92-3.28,23.2,23.2,0,0,0,.86-2.2.46.46,0,1,1,.87.29c-.31.92-.61,1.64-.89,2.27a7.76,7.76,0,0,0-.84,3A.47.47,0,0,1,28.24,59.62Z" transform="translate(0)"/><path class="cls-8" d="M41.14,59.62a.45.45,0,0,1-.46-.44,8,8,0,0,0-.85-3c-.27-.63-.58-1.35-.88-2.27a.46.46,0,1,1,.87-.29c.29.89.59,1.58.85,2.2a8.57,8.57,0,0,1,.92,3.28.44.44,0,0,1-.43.47Z" transform="translate(0)"/><path class="cls-9" d="M29.29,60.85c.49,1.49,3,1.88,5.22,1.84,4.33-.08,6-1.63,5.24-3.47-.2-.5-1.13-.83-2.24-.45a12.63,12.63,0,0,1-6.68-.08C29.61,58.4,28.92,59.72,29.29,60.85Z" transform="translate(0)"/><polygon class="cls-10" points="47.17 39.97 45.22 44.17 49.13 44.17 47.17 39.97"/><path class="cls-11" d="M24.06,31.42c-7-2.76-12,1.86-11.11,10.93.52,5.16-1,7.52-3.67,6.61.64,3,9.9,7.52,17.57.42C37.07,39.91,27.42,32.74,24.06,31.42Z" transform="translate(0)"/><path class="cls-12" d="M22.67,32.29c-1.69-1.34-6.55-.57-8.43,4.4-1.62,4.25,1.1,8.72-.33,11.81,4.26,0,3.09-7,6.2-9.17C24.55,36.31,22.67,32.29,22.67,32.29Z" transform="translate(0)"/><path class="cls-10" d="M19,23.44c-8.84,2.24-7.18,19.7,4.31,18.54C31.89,41.1,25.11,21.88,19,23.44Z" transform="translate(0)"/><path class="cls-8" d="M23.32,33.79a6.17,6.17,0,0,1-2.9.4c-1.07-.16-3.26-1.52-4.05-.49-.27.36-.08,1.23-.35,1.68-.85,1.4-1.71,1.49-.63,3.14a9.54,9.54,0,0,0,2.3,2.4c1.74,1.23,3.72,1.27,5.83,1.06a4.18,4.18,0,0,0,4-3.59c.31-1.79.49-5.07-2-5A7.35,7.35,0,0,0,23.32,33.79Z" transform="translate(0)"/><path class="cls-11" d="M49.09,17.53c-.07-.16-.14-.32-.22-.48a15.78,15.78,0,0,0,3.94-2.34,46.31,46.31,0,0,1-6.23-2,9.34,9.34,0,0,0,2.5-1.43c-4.17-.21-10.21-2.42-13.54-2.66C30,8.24,24.07,9.86,20.12,14.08,13,21.7,14.06,35.87,22.7,43.21c3.07,2.59,6.67,3.41,10.52,4.19,4.78,1,8.77.15,11.85-3.92a27.52,27.52,0,0,0,4.44-21.43C49.17,20.61,49.63,18.94,49.09,17.53Z" transform="translate(0)"/><path class="cls-4" d="M21.6,37.93c.82,7.22,6.83,14.83,14.57,14.83,7.53,0,13-10.91,12.11-19.79-1-9.64-5.36-17.76-15.38-16C25.75,18.16,20.5,28.29,21.6,37.93Z" transform="translate(0)"/><path class="cls-13" d="M48.09,21.42c-2.41-.91-4.19-1.93-6.62-2.77a27.54,27.54,0,0,0-8-1.55c-2.6-.1-5.43-.31-7.87.73-1.93.83-3.22,1.65-3.68,3.65-.75,3.26-.52,8.4,1.22,11.29a21.13,21.13,0,0,1,1.7-7c2.84,1.05,9,1.23,13.05.34a7,7,0,0,1-1.5-1.08A42.46,42.46,0,0,0,46,24C47.93,23.65,50.74,22.42,48.09,21.42Z" transform="translate(0)"/><path class="cls-4" d="M19.81,41a7,7,0,0,0,2.82.38l.05-.09c.44-.66-.07-4.39-.27-5.09-.49-1.78-1.52-2.73-3.21-2.31C15.68,34.76,17,39.9,19.81,41Z" transform="translate(0)"/><path class="cls-13" d="M21.19,39.75c1.29-.77.15-3.51-.8-4-.78-.38-2.76.23-1.87,1.79.52-1.42,1.37-.46,1.21.55-.1.67-.83.67-.13,1.55A1.29,1.29,0,0,0,21.19,39.75Z" transform="translate(0)"/><path class="cls-11" d="M55.45,19.44a16.25,16.25,0,0,1-3.72,0,5.89,5.89,0,0,0,3.08-2.12,26,26,0,0,1-6.61-.52,15,15,0,0,1-5.89-2.35c-3.92-2.53-8.36-2.69-12.88-2A17.41,17.41,0,0,0,23.91,14c-1.47.78-2.08,2.67-2.78,4.09-1.64,3.34-.33,15.68.21,16.21a4.23,4.23,0,0,1,.91,1.88,2.22,2.22,0,0,0,1.57.45,19.67,19.67,0,0,1-.76-6.22,26.83,26.83,0,0,1,1.35-6.78c2.52,2.39,8.36,2.2,11.21,1.81-.41-.35-1.08-.93-1.44-1.31C38.9,24.25,51.91,23.35,55.45,19.44Z" transform="translate(0)"/><path class="cls-12" d="M31,10.25c9.46-.71,16.87,4.79,17.82,5-.65,1.27-2.34,1.61-3.32,2.58a11.7,11.7,0,0,0,5.13.32c-.34.76-1.73,1.27-2.47,1.6-4.56,2.05-8.83,1.92-13.55.91A16.91,16.91,0,0,0,36.72,22c-3.08.51-7.08.16-9.61-1.92.63,1.56,2.06,2.41,2.8,3.87a12.36,12.36,0,0,1-7.25-2.47,31.43,31.43,0,0,0-1.41,10c-2.52,0-4.1-2.87-4.1-2.89a15.51,15.51,0,0,1,4-14.25A17.07,17.07,0,0,1,31,10.25Z" transform="translate(0)"/><polygon class="cls-10" points="20.83 40.7 18.73 44.9 22.93 44.9 20.83 40.7"/><path class="cls-14" d="M47.93,37.37c-.29-.9-1.47-1.23-2.35-1.35-1.14-.16-2.81.06-2.35,1.82.25.94,4.61,2.18,4.76.1A1.32,1.32,0,0,0,47.93,37.37Z" transform="translate(0)"/><path class="cls-14" d="M30.45,37.46a1.74,1.74,0,0,0-.32-.53c-.69-.77-2-.69-3-.52-1.23.21-2.83,1-1.58,2.5C26.25,39.74,31.21,39.5,30.45,37.46Z" transform="translate(0)"/><path class="cls-11" d="M29.09,35.21a3.23,3.23,0,0,0-2-.22c-1.37-1.1-.06-4.29,2-3.45A2.1,2.1,0,0,1,29.09,35.21Z" transform="translate(0)"/><path class="cls-15" d="M28.26,32.15a.68.68,0,0,1,.59,1.19C28,33.83,27.43,32.38,28.26,32.15Z" transform="translate(0)"/><path class="cls-11" d="M46.37,35.21a3.23,3.23,0,0,0-2-.21c-1.37-1.1-.06-4.3,2-3.45A2.09,2.09,0,0,1,46.37,35.21Z" transform="translate(0)"/><path class="cls-15" d="M45.5,32.19a.67.67,0,0,1,.59,1.18C45.28,33.87,44.67,32.41,45.5,32.19Z" transform="translate(0)"/><path class="cls-16" d="M29.61,30.16c.71,0,1.51-.08,1.6-.59.11-.69-.38-.94-1.16-.95-1.08,0-5.63.46-5.76.91C24.11,30.17,26.1,30.29,29.61,30.16Z" transform="translate(0)"/><path class="cls-16" d="M48.47,29.72c-.11-.45-3.77-.89-4.64-.87-.62,0-1,.27-.91.95.08.51.72.56,1.29.58C47,30.49,48.62,30.36,48.47,29.72Z" transform="translate(0)"/><path class="cls-17" d="M37.35,40.66c-3.17.14-7.27.79-9.79-.5,3.2,5.08,5.7,7.93,9.43,7.89a6,6,0,0,0,6.1-4.78,8.09,8.09,0,0,1,2.55-3.19C43.25,40.92,41.08,40.49,37.35,40.66Z" transform="translate(0)"/><path class="cls-18" d="M28.91,41.18a34.26,34.26,0,0,0,15.61-.42,4.23,4.23,0,0,0-2,2.21c-.58,1.48-2.7,2.53-6,2.52A9.49,9.49,0,0,1,28.91,41.18Z" transform="translate(0)"/><path class="cls-19" d="M30.8,41.54s.16,1,2,1.45a17.72,17.72,0,0,0,7.38.19,3.88,3.88,0,0,0,2.57-2A36.75,36.75,0,0,1,30.8,41.54Z" transform="translate(0)"/><path class="cls-19" d="M31.68,43.41c-.19-.34-.12-.89.72-.39a10.15,10.15,0,0,0,5.44.92c2.15-.11,3.2-.95,3.63-.59s-1.46,2.54-5.16,2.2C32.45,45.19,31.68,43.41,31.68,43.41Z" transform="translate(0)"/><path class="cls-20" d="M31.45,42.4s8.4-.88,10.49-.18a3.29,3.29,0,0,0,.78-1.06,42.23,42.23,0,0,1-11.92.38A1.32,1.32,0,0,0,31.45,42.4Z" transform="translate(0)"/><path class="cls-20" d="M33.19,43.4a12.89,12.89,0,0,0,6.84.18S36.32,45.14,33.19,43.4Z" transform="translate(0)"/><path class="cls-13" d="M39.58,37.48c-.37-.65-1-.06-2.15-.19s-1-.66-1.71-.28-.28,2,1.51,2.15S39.9,38,39.58,37.48Z" transform="translate(0)"/><path class="cls-21" d="M37.31,34.34c-.83,0-2.18,2.71-1.78,3.15,1,1.08,3.24.7,3.95,0C39.77,37.24,38.24,34.37,37.31,34.34Z" transform="translate(0)"/><path class="cls-22" d="M50.23,29.56s-.55,2.92-4.29,2.68a2.19,2.19,0,0,0-2.14,1.57,2.36,2.36,0,0,1,2-2.69C46.94,30.93,48.53,31.47,50.23,29.56Z" transform="translate(0)"/><path class="cls-22" d="M23.45,29.72s.73,2.88,4.45,2.41a2.18,2.18,0,0,1,2.22,1.44A2.37,2.37,0,0,0,28,31C26.81,30.88,25.26,31.52,23.45,29.72Z" transform="translate(0)"/></g></g></g></svg>