<svg xmlns="http://www.w3.org/2000/svg" xmlns:xlink="http://www.w3.org/1999/xlink" viewBox="0 0 96 96"><defs><style>.cls-1{fill:none;}.cls-2{clip-path:url(#clip-path);}.cls-3{fill:#fff;}.cls-4{fill:#ffb06b;}.cls-5{fill:#85b428;}.cls-6,.cls-9{fill:#acd14b;}.cls-7{fill:url(#linear-gradient);}.cls-8{opacity:0.1;}.cls-9{opacity:0.5;}.cls-10{fill:#261b18;}.cls-11{fill:#d47844;}.cls-12,.cls-13{fill:#661004;}.cls-12{opacity:0.2;}.cls-13{opacity:0.3;}.cls-14{fill:#45362e;}.cls-15{fill:#d4502c;}.cls-16{fill:#f0ded1;opacity:0.7;}.cls-17{fill:#121b21;}.cls-18{fill:#e82525;opacity:0.8;}.cls-19{fill:#8f2621;}.cls-20{fill:#fff9f0;}.cls-21{fill:#e8dac5;}</style><clipPath id="clip-path"><circle class="cls-1" cx="48" cy="48" r="48"/></clipPath><linearGradient id="linear-gradient" x1="48.96" y1="69.29" x2="48.96" y2="81.47" gradientUnits="userSpaceOnUse"><stop offset="0" stop-color="#c25421"/><stop offset="1" stop-color="#d47844"/></linearGradient></defs><g id="Layer_2" data-name="Layer 2"><g id="Layer_4" data-name="Layer 4"><g class="cls-2"><rect class="cls-3" width="96" height="96"/><path class="cls-4" d="M34.85,86.86c.22-.42.43-.84.63-1.24a2.42,2.42,0,0,0-4.34-2.16l-.6,1.18c-1.57,3-3.65,7.09-2.89,11.36h5l0-.06C31.65,93.07,33.35,89.77,34.85,86.86Z"/><path class="cls-4" d="M66.32,84.64l-.6-1.18a2.43,2.43,0,0,0-4.35,2.16L62,86.86c1.5,2.91,3.2,6.21,2.23,9.08l0,.06h5C70,91.73,67.89,87.68,66.32,84.64Z"/><path class="cls-5" d="M61,92.34c1.5-6.69,3.21-12.66-2.36-15.65-4.25-2.27-15.46-3.66-20.14,0-5.12,4-4,10.4-2.55,16.47a16.89,16.89,0,0,0,1,2.84H59.63A22,22,0,0,0,61,92.34Z"/><path class="cls-6" d="M40.5,76.66A3.1,3.1,0,0,0,41,79.1c3.58,5.72,13.35,5.52,16.07-.37A2.83,2.83,0,0,0,57,75.92C54.57,72,41.7,71.94,40.5,76.66Z"/><path class="cls-7" d="M49,69.29c-2.76,0-6.64,1.6-6.92,5.8-.13,2,.16,3.09,1.18,4.17,2.86,3,8.81,2.84,11.48,0,1-1.08,1.31-2.22,1.18-4.17C55.6,70.89,51.71,69.29,49,69.29Z"/><path class="cls-5" d="M58.12,76.51c-2-1,2.14,11.34,2.91,18.89,2.89.48,9.87-2.32,11.69-4.22C68.77,84.2,65.14,79.84,58.12,76.51Z"/><g class="cls-8"><path d="M61.58,91.53c.05-1.09,1.2-6.51-.75-6.57-.6,0,.05,9.34.05,9.34.88-1.1,3.74-4.56,3.16-5.33C63.64,88.45,61.61,91.06,61.58,91.53Z"/></g><path class="cls-5" d="M38.74,76.51c-7,3.33-10.65,7.69-14.6,14.67,1.82,1.9,8.8,4.7,11.68,4.22C36.6,87.85,40.76,75.55,38.74,76.51Z"/><g class="cls-8"><path d="M35.28,91.53c0-.47-2.06-3.08-2.46-2.56-.58.77,2.28,4.23,3.16,5.33,0,0,.65-9.36.05-9.34C34.08,85,35.23,90.44,35.28,91.53Z"/></g><path class="cls-9" d="M55.69,83.77c-2.77,2.67-11.83,2.62-15.13-1-1.87-2-3.87,2.06-3.11,4.92,1,3.79,6.4,4.94,11.12,5C57.89,92.81,61,88.63,59.51,84,59.11,82.69,57.54,82,55.69,83.77Z"/><path class="cls-10" d="M75.67,42.42c.14.11.62,3.49,3.84,2.94s1.82-31.48-26.34-32.72c1.92-1.52,3.31-4.93.43-6.12S47.7,9.07,48.11,12c-3.92-13.56-12.46-2.07-7.45.83C27.74,13.05,19.28,18,15.2,32.09c-1.41,4.91-.78,11.74-.07,16.76.43,3,2.21,6.22,1.4,9.3a7.27,7.27,0,0,0-3,.2c-6.7,2.48-.21,10.91,5.27,9.15-5,6.57,2.12,12.54,7.71,6.65,1.72,3.49,5.25,2.83,8.37,2,3.28-.85,6.54-1.1,9.87-1.8,5.89-1.23,10.19.93,15.62,2,3.5.69,7.51-.61,6.26-4.91a9.56,9.56,0,0,0-2.1-3.1c4.37-.11,3.63-6.62,5-9.87C70.42,56.53,77,55.41,75.67,42.42Z"/><path class="cls-11" d="M26.43,53.35c1.72,11.48,10.76,24,24.11,22.85C64.16,75.05,70.72,58,68.77,43.92c-2.12-15.35-9.58-28.07-25.48-24.75C31.93,21.54,24.13,38,26.43,53.35Z"/><path class="cls-12" d="M68.41,36.92c-2.72,5.53-14,7.14-17.71,2-2.57,2.59-8,4.93-10.66,1.31-3,1.86-5.54.93-6.49-2.45-2.75-.08-4,5.07-4.1,7.07a26,26,0,0,1-3.2-9.46c-.52-3-1.05-6.68-.1-9.62.77-2.37,3.36-3.72,5.48-4.72,3.85-1.8,8.37-1.63,12.53-1.61a51.36,51.36,0,0,1,13.83,2,32.63,32.63,0,0,1,7.8,2.88,8.11,8.11,0,0,1,2.85,2.61c1,1.52.71,3.19.85,4.89A9.89,9.89,0,0,1,68.41,36.92Z"/><path class="cls-11" d="M23.74,58.33a11.22,11.22,0,0,0,4.52.43l.09-.14c.66-1.07-.36-7-.72-8.12-.89-2.81-2.59-4.27-5.26-3.5C16.8,48.62,19.15,56.75,23.74,58.33Z"/><path class="cls-13" d="M25.88,56.29c2-1.32,0-5.62-1.51-6.31-1.26-.56-4.38.53-2.88,3,.75-2.29,2.16-.81,2,.81-.13,1.09-1.3,1.12-.12,2.5C24,57,25.24,56.7,25.88,56.29Z"/><path class="cls-10" d="M70.36,25.91a10.79,10.79,0,0,0-3.15-3.3C64.77,21,63.39,18.38,60.56,17a32.58,32.58,0,0,0-8.05-2.63,38.7,38.7,0,0,0-11.72-.2c-6.43.86-14.17,4-16.12,10.88-1.2,4.21-.48,9.07-.1,13.35.21,2.29-.58,9,1,10.86,2.25,2.56,3.72-.28,3.93-2.8.22-2.77-.31-5.57,1-8.12A7.09,7.09,0,0,1,34.8,35c.4,4.85,3.21,6.19,7.16,2.2-.52,5.41,9.1.55,11-.89.93,9.85,17.47-.13,18.39-5.94A6.86,6.86,0,0,0,70.36,25.91Z"/><path class="cls-14" d="M37.23,32c-3.72,1.39-14.35,6.73-15.16,2.48-4.14,3.37-5.88-.6-2.2-6.9,4.55-7.79,17.44-13.93,24.8-6.8,6.61-12,26.32-.89,29,4,1,1.85,2,5.86-1.84,6.11-1.1.07-3.51-1.4-4.06-2.2,5.46,8-14.28,8.76-11.34,3.8-1.73,1.14-15.31,6.77-10.9-.29-1.6,1.07-9.74,4.9-7.38-.54Z"/><path class="cls-15" d="M67.24,54.58a2.16,2.16,0,0,1,.25.74c.45,2.71-5.3,1.63-5.9.43-1.12-2.23.87-2.7,2.34-2.63C65.05,53.17,66.6,53.45,67.24,54.58Z"/><path class="cls-15" d="M39.9,55a2.55,2.55,0,0,1,.4.79c1,3-5.55,3.11-6.41,1.86-1.61-2.33.5-3.34,2.12-3.59C37.25,53.9,39,53.87,39.9,55Z"/><path class="cls-10" d="M69.78,42.83C68,40.22,61,40.23,58.62,42.76A91.09,91.09,0,0,0,69.78,42.83Z"/><path class="cls-13" d="M54,55.53c.41.45-.81,1.72-2.33,1.89-1.34.13-3-1.3-2.27-1.74s1.19,0,2.28,0S53.51,55,54,55.53Z"/><path class="cls-10" d="M30.92,42.85c2.58-2.37,9.91-2.73,12.16,0C38.92,43.07,36.9,42.85,30.92,42.85Z"/><path class="cls-10" d="M38.69,52.22a4.3,4.3,0,0,0-3.06,0c-2.24-1.67-.76-7.5,2.41-6.39C40.41,46.64,40.66,50.93,38.69,52.22Z"/><path class="cls-16" d="M38.31,48.7c1.15-.2,1.56,1.67.59,2.18C37.55,51.59,37,48.93,38.31,48.7Z"/><path class="cls-10" d="M65.51,45.55c1.69,1.09,1.55,4.43.34,6a3.78,3.78,0,0,0-2.77.44C59.56,50.93,62.34,43.53,65.51,45.55Z"/><path class="cls-16" d="M65.05,48.1c1.11,0,1.25,1.93.28,2.3C64,50.9,63.8,48.13,65.05,48.1Z"/><path class="cls-17" d="M72.49,46.55s-2.89,3-7.36.53a2.68,2.68,0,0,0-3.38.63s1-3.43,3.84-2.32C67.15,46,68.94,47.74,72.49,46.55Z"/><path class="cls-17" d="M28.55,47.51a6.59,6.59,0,0,0,7.73.1,3,3,0,0,1,3.51.19s-.87-3.38-3.85-1.78C34.79,46.64,32.15,48.46,28.55,47.51Z"/><path class="cls-18" d="M50.34,60.09c-4.28.29-10,1.39-13.48-.32,3.63,9,7.29,11.63,13.66,11.63,6.12,0,9.25-3.92,9.9-7.44.2-1.08,2.79-4.49,3.69-5.29C60.92,59.88,55.39,59.75,50.34,60.09Z"/><path class="cls-19" d="M38.19,60.9s10.48,2.38,24.7-1.61a6.24,6.24,0,0,0-3,3.86c-.51,2-1.69,5-9.91,5.51C40.88,69.26,38.19,60.9,38.19,60.9Z"/><path class="cls-20" d="M40.63,61.38s0,1.87,2.84,2.36a33.88,33.88,0,0,0,11.73-.16,6.58,6.58,0,0,0,4.2-3.22A86,86,0,0,1,40.63,61.38Z"/><path class="cls-20" d="M43.73,67.07c-.23-.4-.23-.87,1-.6a29.8,29.8,0,0,0,7.37.28c3.16-.19,3.88-1.07,4.45-.66s-1.6,2.66-6.64,2.65C44.15,68.74,43.73,67.07,43.73,67.07Z"/><path class="cls-21" d="M41.06,62.46s14.16-1.32,17.42-.82a8.71,8.71,0,0,0,.92-1.28,85.52,85.52,0,0,1-18.77,1A1.74,1.74,0,0,0,41.06,62.46Z"/><path class="cls-21" d="M45.25,66.81a32,32,0,0,0,10.48-.41S50.25,68.18,45.25,66.81Z"/></g></g></g></svg>