<svg xmlns="http://www.w3.org/2000/svg" xmlns:xlink="http://www.w3.org/1999/xlink" viewBox="0 0 96 96"><defs><style>.cls-1{fill:none;}.cls-2{clip-path:url(#clip-path);}.cls-3{fill:#f95049;}.cls-4{fill:#3a3a4a;}.cls-5{fill:#ff9819;}.cls-6{fill:#ffc566;}.cls-7{fill:#ed671a;}.cls-8{fill:#f1aa83;}.cls-9{fill:#fff;}.cls-10{fill:url(#linear-gradient);}.cls-11{fill:#d9c9b2;}.cls-12{fill:#261b18;}.cls-13{fill:#765aa3;}.cls-14{fill:#d47844;}.cls-15,.cls-16{fill:#661004;}.cls-15{opacity:0.2;}.cls-16{opacity:0.3;}.cls-17{fill:#d4502c;}.cls-18{fill:#611f16;opacity:0.8;}.cls-19{fill:#f0ded1;opacity:0.7;}.cls-20{fill:#121b21;}.cls-21{fill:#f2e4ce;}.cls-22{fill:#45362e;}</style><clipPath id="clip-path"><circle class="cls-1" cx="48" cy="48" r="48"/></clipPath><linearGradient id="linear-gradient" x1="-2164" y1="72.06" x2="-2163.87" y2="78.58" gradientTransform="matrix(-1, 0, 0, 1, -2115.23, 0)" gradientUnits="userSpaceOnUse"><stop offset="0" stop-color="#c25421"/><stop offset="1" stop-color="#d47844"/></linearGradient></defs><g id="Layer_2" data-name="Layer 2"><g id="Layer_4" data-name="Layer 4"><g class="cls-2"><rect class="cls-3" width="96" height="96"/><path class="cls-4" d="M35.22,77.27c-5.12,4.72-6.3,9.37-6.39,12.44a3.16,3.16,0,0,0,3.07,3.23H32a3.15,3.15,0,0,0,3.15-3.06c.08-2.66,1.58-5.42,4.36-8a3.15,3.15,0,1,0-4.27-4.63Z"/><path class="cls-4" d="M62.79,77.27a3.15,3.15,0,0,0-4.27,4.63c2.78,2.56,4.29,5.32,4.36,8A3.15,3.15,0,0,0,66,92.94h.09a3.14,3.14,0,0,0,3.06-3.23C69.09,86.64,67.92,82,62.79,77.27Z"/><path class="cls-5" d="M60.6,90.51c.07-6.56,4.85-11.72,1.76-14-7.66-5.55-20.36-4-26.75,0-2.92,1.82,1.48,7.61,1.61,14,0,2.12.15,3.9.27,5.49h23C60.53,94.39,60.58,92.6,60.6,90.51Z"/><path class="cls-6" d="M35.33,71.84c-2.6,3.94,3,8,13.54,8,11.46,0,16.18-3.79,13.67-8C54.35,58.2,43.32,59.73,35.33,71.84Z"/><path class="cls-7" d="M39.76,72.35c-3,3.91,3.13,6,9.09,6S59.58,76.55,58.43,73C57.06,68.81,42.49,68.82,39.76,72.35Z"/><path class="cls-8" d="M48.78,67.29c-2.64,0-6.37,1.4-6.63,5.1a4.06,4.06,0,0,0,1.13,3.67,8.64,8.64,0,0,0,5.5,2.8,8.66,8.66,0,0,0,5.5-2.8,4.09,4.09,0,0,0,1.13-3.67C55.14,68.69,51.42,67.29,48.78,67.29Z"/><path class="cls-5" d="M42.25,71.23c-2.34,1-4.32,8.08,7,7.9C51.42,79.09,42.26,78.56,42.25,71.23Z"/><path class="cls-5" d="M55.28,71.23c.88,6.93-9.17,7.86-7,7.9C59.6,79.31,57.62,72.21,55.28,71.23Z"/><path class="cls-6" d="M56.2,81.31c-3,3.37-11,3.15-13.31.51-1.56-1.76-3-1.14-3.35.05-1.45,4.44,1.18,8.53,9.35,8.7,4.15.08,8.92-.86,9.9-4.47C59.54,83.39,57.89,79.41,56.2,81.31Z"/><path class="cls-7" d="M39.25,90.62a9.82,9.82,0,0,0,4.29,2.78,24.42,24.42,0,0,1-4,.16c3.16,1.75,14.13,2.62,17.14.29-.51-.13-3.15-.09-3.51-.12,1.85-.69,4.16-1.5,5.68-3.09C52.72,93.24,44.49,92.47,39.25,90.62Z"/><path class="cls-9" d="M42.19,78.67a20,20,0,0,0-4.1,8.65.59.59,0,0,0,.44.72.36.36,0,0,0,.14,0,.58.58,0,0,0,.58-.46,18.84,18.84,0,0,1,3.83-8.14.6.6,0,1,0-.89-.79Z"/><path class="cls-9" d="M55.58,78.67a.6.6,0,1,0-.89.79,18.89,18.89,0,0,1,3.82,8.14.6.6,0,0,0,.58.46.34.34,0,0,0,.14,0,.59.59,0,0,0,.44-.72A19.94,19.94,0,0,0,55.58,78.67Z"/><path class="cls-4" d="M35.13,89.88a3.15,3.15,0,0,0-3.06-3.24H32a3.16,3.16,0,0,0-3.15,3.07A12.32,12.32,0,0,0,30.32,96h8.84C37.1,95,35,93.09,35.13,89.88Z"/><path class="cls-4" d="M66,86.64h-.09a3.16,3.16,0,0,0-3.06,3.24c.09,3.21-2,5.07-4,6.12h8.83a12.32,12.32,0,0,0,1.49-6.29A3.16,3.16,0,0,0,66,86.64Z"/><path class="cls-10" d="M42.19,72.34c.27-3.66,4-5,6.56-5s6.3,1.39,6.56,5A4.05,4.05,0,0,1,54.19,76c-1.55,1.5-3.46,2.73-5.44,2.76S44.86,77.47,43.31,76A4.05,4.05,0,0,1,42.19,72.34Z"/><path class="cls-11" d="M14.42,36.25C13.16,52.06,19.66,66.69,45.16,66,73.56,65.27,82,48,78.07,29,74.23,10.45,16.32,12.42,14.42,36.25Z"/><path class="cls-12" d="M77.7,36.12C75.08,30.58,72,25.66,64.19,22.28c-3.27-1.42-5.5-8.85-10.4-9.06-1-2.62-1.16-3.56-.71-5.28-2,.84-3.91,3-4.21,4.63A10.85,10.85,0,0,0,40.06,7.9a12.1,12.1,0,0,1,3.28,5.26c-2.15.31-3.67.35-5.84.63C26.33,15.27,19.78,22,16.87,32.14c-1.38,4.77-.76,11.42-.07,16.3.39,2.79,3.86,7.3,5.45,9.69-7,2.2-6.06,10.41-1.25,13.74s13.07,3.31,13.25-5.05c4.88,3.4,12.13,4.91,18.06,4.54,1.11-.07,11.38-2.86,11.1-4a6.11,6.11,0,0,0,3.2,4.19C77,76.78,85.32,57.41,72,55.51a12,12,0,0,0,2.24-12.6C79.78,46.93,84.24,37.88,77.7,36.12Z"/><path class="cls-13" d="M70.85,59a2,2,0,0,1-3.92,0,2,2,0,0,1,1.94-2A2,2,0,0,1,70.85,59Z"/><path class="cls-14" d="M27.78,52.81C29.46,64,38.25,76.14,51.23,75,64.48,73.92,70.86,57.38,69,43.65,66.9,28.71,59.65,16.34,44.18,19.57,33.14,21.88,25.54,37.9,27.78,52.81Z"/><path class="cls-15" d="M69.92,37.18a5.39,5.39,0,0,1-4,4c-1.83.52-3,.73-4.22-1-3.37,3.16-8.32,4.64-10.41-.53-3.1,2-8.49,4-9.19-1.44-2.25,1.18-5,1.57-6.88-.36.43,2.39-.73,4.93-3.4,4.7,1.5,2.13,1.36,5.22-2,3.92-2.32-.9-3.05-5.38-3.42-7.49-1.53-8.74,2.89-13.55,10.86-16.45,9.53-3.47,27.79-2.88,32,8.2A11.31,11.31,0,0,1,69.92,37.18Z"/><path class="cls-14" d="M25.17,57.66a10.79,10.79,0,0,0,4.4.42,1,1,0,0,1,.08-.14c.64-1-.35-6.81-.7-7.9-.87-2.73-2.52-4.15-5.12-3.4C18.42,48.22,20.7,56.12,25.17,57.66Z"/><path class="cls-16" d="M27.25,55.67c2-1.28,0-5.46-1.47-6.13-1.23-.54-4.27.51-2.8,2.88.73-2.22,2.1-.79,1.91.79-.12,1-1.26,1.08-.11,2.42C25.4,56.36,26.63,56.07,27.25,55.67Z"/><path class="cls-12" d="M70.51,26.13a10.13,10.13,0,0,0-3.07-3.21c-2.36-1.6-3.71-4.12-6.46-5.43a31.65,31.65,0,0,0-7.83-2.56,37.57,37.57,0,0,0-11.4-.19c-6.26.83-13.79,3.91-15.68,10.58-1.16,4.1-.46,8.82-.09,13,.19,2.12-.71,9.34,2.75,9.89,3.78.6,3-4.36,1.64-6.09,3.55-1.13,4.09-3.65,3.73-6.91,2.63,1.79,6.51,2.82,9,.18-1,5.75,5.33,4.34,8.13,2.52C52,43.49,59,41,60.94,37.8,61.46,42.93,77.32,37.76,70.51,26.13Z"/><path class="cls-13" d="M28.81,60.8a2,2,0,1,1-2-1.93A2,2,0,0,1,28.81,60.8Z"/><path class="cls-17" d="M67.47,54a1.93,1.93,0,0,1,.25.71c.44,2.63-5.16,1.58-5.74.42-1.09-2.17.85-2.63,2.27-2.56C65.35,52.64,66.86,52.92,67.47,54Z"/><path class="cls-17" d="M40.88,54.46a2.44,2.44,0,0,1,.4.77c.93,3-5.4,3-6.24,1.81-1.56-2.27.49-3.25,2.06-3.5C38.31,53.35,40,53.32,40.88,54.46Z"/><path class="cls-12" d="M70,42.58c-1.78-2.53-8.55-2.52-10.86-.07A86.28,86.28,0,0,0,70,42.58Z"/><path class="cls-16" d="M55.25,54.75c.52.53-1,2.06-2.92,2.26-1.68.17-3.79-1.56-2.86-2.08s1.5,0,2.87,0S54.65,54.13,55.25,54.75Z"/><path class="cls-12" d="M32.15,42.6c2.51-2.3,9.64-2.65,11.82,0C39.94,42.82,38,42.61,32.15,42.6Z"/><path class="cls-18" d="M64.38,59a2.34,2.34,0,0,1-3.24-1.23A2.36,2.36,0,0,0,61.33,60C59.52,62.62,56,64.32,52,64.51a13.15,13.15,0,0,1-10.63-4.15,2.37,2.37,0,0,0,.16-2.24,2.33,2.33,0,0,1-3.22,1.27,2.28,2.28,0,0,0,1.39,1.54.76.76,0,0,0,.11.22,14.54,14.54,0,0,0,11.45,5.06c.27,0,.55,0,.82,0C56.71,66,60.73,64,62.82,60.78a.77.77,0,0,0,.1-.25A2.22,2.22,0,0,0,64.38,59Z"/><path class="cls-12" d="M39.7,51.72a4.11,4.11,0,0,0-3,0c-2.18-1.62-.74-7.3,2.35-6.22C41.38,46.29,41.62,50.47,39.7,51.72Z"/><path class="cls-19" d="M39.33,48.29c1.13-.19,1.53,1.63.58,2.13C38.6,51.1,38.07,48.52,39.33,48.29Z"/><path class="cls-12" d="M65.79,45.23c1.65,1.06,1.52,4.3.34,5.83a3.74,3.74,0,0,0-2.7.43C60,50.46,62.72,43.27,65.79,45.23Z"/><path class="cls-19" d="M65.35,47.71c1.07,0,1.21,1.88.27,2.24C64.31,50.44,64.13,47.74,65.35,47.71Z"/><path class="cls-20" d="M72.58,46.2s-2.81,2.95-7.16.52a2.62,2.62,0,0,0-3.29.62s.93-3.35,3.75-2.26C67.39,45.66,69.13,47.36,72.58,46.2Z"/><path class="cls-20" d="M29.85,47.13a6.39,6.39,0,0,0,7.51.11,2.92,2.92,0,0,1,3.42.18s-.84-3.29-3.75-1.73C35.92,46.29,33.34,48.06,29.85,47.13Z"/><path class="cls-11" d="M22,46.6c-2.57,8-1,11-3.26,8.51C16.27,52.38,14.3,46.19,14,39.35c-.23-5.92,2.28-11.91,3.24-14-4.12-.78-2-13.55,14.91-19.71C50.72-1.11,74.71,9,78.07,29c.25,1.49.55,5.14,0,4.68a8,8,0,0,1-2.07-2C63.43,15.79,31.08,18.54,22,46.6Z"/><path class="cls-21" d="M43.59,9.21c8.83-.53,19.7,1.81,27,8.14,3.31,2.86,6.41,8.52,6.25,12,0,1.13-9.77-12.44-28.41-10-17.13,2.24-24.61,16.26-27.6,25.52-.71,2.2-2.94,4.34-4.29,1.16a21.34,21.34,0,0,1-1-6.61A25.46,25.46,0,0,1,17.77,28.3C22.19,18.32,31.94,9.91,43.59,9.21Z"/><path class="cls-21" d="M28.9,8.56a26.61,26.61,0,0,0-9.22,7.35c-.75,1-3.27,4.13-2.57,5.54,1.11,2.21,6.08-3.56,7-4.37,3.15-2.81,6.73-5.61,10.73-7.1,14.39-5.34,29.34,1.9,27.58.06C55.25,5.56,42.34,2.84,28.9,8.56Z"/><path class="cls-12" d="M73.23,32.68A3.64,3.64,0,1,0,76.86,29,3.63,3.63,0,0,0,73.23,32.68Z"/><path class="cls-12" d="M68.87,27.55a3.64,3.64,0,1,0,3.64-3.64A3.64,3.64,0,0,0,68.87,27.55Z"/><path class="cls-12" d="M63.58,24a3.64,3.64,0,1,0,3.64-3.64A3.64,3.64,0,0,0,63.58,24Z"/><circle class="cls-12" cx="60.84" cy="22.72" r="3.64"/><path class="cls-12" d="M50.2,22.88a3.64,3.64,0,1,0,3.63-3.64A3.64,3.64,0,0,0,50.2,22.88Z"/><path class="cls-12" d="M43.66,24a3.64,3.64,0,1,0,3.64-3.64A3.64,3.64,0,0,0,43.66,24Z"/><path class="cls-12" d="M38.37,26.15A3.64,3.64,0,1,0,42,22.51,3.64,3.64,0,0,0,38.37,26.15Z"/><path class="cls-22" d="M62.08,24.5c2.94-1.68,6.63-.21,6.12,1.84,2.71-1.43,6.31,1,4.43,4.05,3.06-.32,5.09,2.86,3,5.25-1.49,1.68-5.37,2.52-6.09-.32C68,38,63,38.09,62.2,34.18c-2.37,1.47-9.42,5.85-9.2-.11-3,3.62-8.58,3.92-8.79-1.78.08,2.18-8.17,2.8-9,0-1.1-3.53,4.41-5.9,7.74-4.76-.88-3.19,3.81-4,5.23-1.61-.5-3.67,6-3.34,7.28-.94C56.54,22.4,61.51,22.35,62.08,24.5Z"/></g></g></g></svg>