<svg xmlns="http://www.w3.org/2000/svg" xmlns:xlink="http://www.w3.org/1999/xlink" viewBox="0 0 66 66"><defs><style>.cls-1{fill:none;}.cls-2{clip-path:url(#clip-path);}.cls-21,.cls-22,.cls-3{fill:#fff;}.cls-4{fill:#9c552c;}.cls-5{fill:url(#linear-gradient);}.cls-6{fill:#ff392b;}.cls-7{fill:#854326;}.cls-8{fill:#261b18;}.cls-9{fill:#573d2f;}.cls-10,.cls-11{fill:#661004;}.cls-10,.cls-19,.cls-21{opacity:0.3;}.cls-11{opacity:0.4;}.cls-12{fill:#bf6c3c;}.cls-13{fill:#f0ded1;}.cls-13,.cls-22{opacity:0.7;}.cls-14{fill:#d47b48;}.cls-15{fill:#78231f;}.cls-16{fill:#fff7ea;}.cls-17{fill:#ecdcc4;}.cls-18{fill:#161110;}.cls-19{fill:#b54d26;}.cls-20{fill:#f06799;}.cls-23{fill:#ffd1e2;}</style><clipPath id="clip-path" transform="translate(0)"><circle class="cls-1" cx="33" cy="33" r="33"/></clipPath><linearGradient id="linear-gradient" x1="34.23" y1="51.31" x2="34.23" y2="55.72" gradientUnits="userSpaceOnUse"><stop offset="0" stop-color="#854326"/><stop offset="1" stop-color="#9c552c"/></linearGradient></defs><g id="Layer_2" data-name="Layer 2"><g id="avatars"><g class="cls-2"><rect class="cls-3" width="66" height="66"/><path class="cls-4" d="M29,58.29c1.2-1-.19-4.6-1.81-3.73-3,1.6-4.09,6.82-5.13,11.44H25.6C26.4,62.82,27.35,59.67,29,58.29Z" transform="translate(0)"/><path class="cls-4" d="M42,54.56c-1.62-.87-3,2.73-1.82,3.73,1.64,1.38,2.59,4.53,3.38,7.71h3.57C46.12,61.38,45,56.16,42,54.56Z" transform="translate(0)"/><path class="cls-5" d="M40.19,53.54A9.41,9.41,0,0,0,38,52.7c-1.12-.5-1.23-1.45-1.52-2.22-.58-1.54-3.46-1.83-3.72-.13-.46,3-3,2.63-4.58,3.55-3.23,1.88-1.29,3.56,1.14,6,2.7,2.69,7.44,3.09,11.13-.26C43.1,57.22,41.94,54.85,40.19,53.54Z" transform="translate(0)"/><path class="cls-6" d="M39.41,60.93c3,0,6.25-3.82,6.25-3.82S42.3,54,40.06,53.18C40.06,53.18,36.45,60.93,39.41,60.93Z" transform="translate(0)"/><path class="cls-4" d="M28.14,60.37A48.92,48.92,0,0,0,29.46,66H39.93c.18-1.56.29-3.61.58-5.47C40.73,59.09,27.89,58.19,28.14,60.37Z" transform="translate(0)"/><path class="cls-7" d="M28.33,61.52c.25,3.7,12.45,3.22,12.16-.83C40.33,58.52,28.17,59.09,28.33,61.52Z" transform="translate(0)"/><path class="cls-6" d="M26.72,54.85a6.2,6.2,0,0,0-2.94,2.73s2.85,5.51,11,5.44c6-.05,6.65-3.78,6.65-3.78s.67-4.22-1.37-6.06C40.06,53.18,36.57,58,26.72,54.85Z" transform="translate(0)"/><path class="cls-8" d="M15,12.83a8.34,8.34,0,0,0-.85,11.75c2.79,3.32,8.06,3.49,11.76.37S30.3,16.62,27.5,13.3,18.66,9.71,15,12.83Z" transform="translate(0)"/><path class="cls-9" d="M15.69,13.44c-1.79,1.5-2.91,4.22-1.67,6.2,1,1.66,1.71-.21,2-1.36.91,1.68,1.67-.46,1.68-1.53.76.75,2-.75,2.07-1.49,1.51-.34,2.66-2,4-2.58C22.2,10.44,17.53,11.89,15.69,13.44Z" transform="translate(0)"/><path class="cls-8" d="M43.83,13.29C33,5.77,18.51,12.18,16.52,21.88a18.75,18.75,0,0,0,4.56,16.71c1.91,2.12,3.28,4.65,5.13,6.76S30,43.87,31.52,43a10.59,10.59,0,0,1,6.66-1.43c2,.3,3.45,2.4,5.5,2.44,2.69.05,3.43-4.46,4-6.37s1-3.59,1.39-5.4C50.86,24.11,49.48,17.21,43.83,13.29Z" transform="translate(0)"/><path class="cls-4" d="M32,15.63c-7.38,1.47-12.54,12.09-11.15,22,1,7.45,8.76,15,15.48,15,7.16,0,13.19-11.64,12-20.81C47,21.88,42.28,13.58,32,15.63Z" transform="translate(0)"/><path class="cls-10" d="M41.46,17.17a33.54,33.54,0,0,0-9-1.38c-2.7,0-5.62-.18-8.13,1-1.38.63-3.07,1.49-3.58,3-.64,1.9-.32,4.29,0,6.24a16.93,16.93,0,0,0,2,6.15,25.15,25.15,0,0,1,1-3.87c.92-4.13,3.57-5.64,6.77-6.19A63.53,63.53,0,0,1,39,21.79c1.46,0,9.91,1.36,8.08-2C46.21,18.25,43,17.61,41.46,17.17Z" transform="translate(0)"/><path class="cls-4" d="M18.21,33.54c-3.62,1-1.94,6.69,1,7.74A3.1,3.1,0,0,0,22,41.2l.06-.09c.43-.69-.19-4.55-.41-5.27C21,34,20,33.05,18.21,33.54Z" transform="translate(0)"/><path class="cls-11" d="M19.49,35.48c-.82-.37-2.85.31-1.89,1.9.5-1.48,1.4-.51,1.27.54-.09.7-.85.71-.09,1.62.41.48,1.23.3,1.64,0C21.74,38.74,20.48,35.94,19.49,35.48Z" transform="translate(0)"/><path class="cls-8" d="M38,12.6a25.16,25.16,0,0,0-7.6-.2c-4.17.51-9.21,2.51-10.52,6.94-.8,2.73-.36,5.88-.15,8.66.14,1.68-.53,4.93.91,6.2,1.68,1.47,2.34-.76,2.49-2.36a29.91,29.91,0,0,1,.54-5.51c1.25-4.25,3.5-5.08,9.62-5.57,3.18-.26,11-.89,12.53,1.93.57,1,5.17-2.05,1-6.66C45,14,40.52,13.09,38,12.6Z" transform="translate(0)"/><path class="cls-9" d="M27.19,12.05a13.22,13.22,0,0,0-5.29,3,12.5,12.5,0,0,0-2.6,3.29,7.47,7.47,0,0,0-.91,4.33c.1,1,1,3.15,2.51,2.57a28.1,28.1,0,0,0-.37-3c.33.22,1.8,1.19,2.23.94s.17-1.66.24-2.09c1.77,1.88,2.66-.95,2.52-2.43.75.43,1.27,1.25,2.06,1.62,1.11.53,2.29-.08,3.54-.31A39,39,0,0,1,36,19.29c1.71-.08,2,.13,2.69-1.43a1.62,1.62,0,0,0,.67,1.2,1.75,1.75,0,0,0,.94-1.6c0,1.74,3.91,2.75,5.22,2.33,2-.64-.26-3.76-1.52-5C39.74,10.57,32.75,10.53,27.19,12.05Z" transform="translate(0)"/><path class="cls-12" d="M47.22,37.16a3.13,3.13,0,0,0-2.72-.72c-1.12.11-2.58.69-1.45,2.23.61.82,5.15,1,4.46-1A1.75,1.75,0,0,0,47.22,37.16Z" transform="translate(0)"/><path class="cls-12" d="M29.66,37.54A3.29,3.29,0,0,0,26.88,37c-1.11.17-3.05,1.23-1.43,2.36,1.16.82,5.37.55,4.54-1.31A1.62,1.62,0,0,0,29.66,37.54Z" transform="translate(0)"/><path class="cls-8" d="M29,32.27c-2.64-.7-4.29,2.25-2.49,3.2a5.87,5.87,0,0,1,2.61.14A1.7,1.7,0,0,0,29,32.27Z" transform="translate(0)"/><path class="cls-11" d="M36.75,37.05c-.66.06-1.27-.26-1.86.11s.21,1.37,2,1.19S39,37.2,38.63,36.86,37.48,37,36.75,37.05Z" transform="translate(0)"/><path class="cls-12" d="M36.47,33.94c-1.25,0-2,2.36-1.43,3.08.41.5,3.14.29,3.52-.36C38.69,36.42,37.66,34,36.47,33.94Z" transform="translate(0)"/><path class="cls-13" d="M28.76,33.83c-.8.23-.18,1.53.6,1.05C29.92,34.54,29.48,33.62,28.76,33.83Z" transform="translate(0)"/><path class="cls-8" d="M45.77,31.58c-2.71-.35-4,2.79-2,3.5a5.81,5.81,0,0,1,2.61-.22A1.69,1.69,0,0,0,45.77,31.58Z" transform="translate(0)"/><path class="cls-13" d="M45.7,33.19c-.75.34,0,1.55.72,1C46.92,33.75,46.36,32.9,45.7,33.19Z" transform="translate(0)"/><path class="cls-14" d="M44.63,41c-4.57-.77-11.72.28-15.9.4-.34,0-.61.11-.46.47.65,1.55,3.09,7.22,8.8,7.17,4.78,0,5.23-3.38,5.47-5.14C42.67,43.06,44,42,45,41.37,45.3,41.17,45.05,41.09,44.63,41Z" transform="translate(0)"/><path class="cls-15" d="M28.92,42a7.6,7.6,0,0,0,7.44,4.47c5-.21,5.68-1.83,6-3a3.29,3.29,0,0,1,1.74-2.12A36.73,36.73,0,0,1,28.92,42Z" transform="translate(0)"/><path class="cls-16" d="M30.73,42.45a2.33,2.33,0,0,0,1.71,2.09,13.32,13.32,0,0,0,7.19.15c1.71-.41,2.78-2.75,2.78-2.75A59.2,59.2,0,0,1,30.73,42.45Z" transform="translate(0)"/><path class="cls-16" d="M37.65,44.73a18.58,18.58,0,0,1-5.53-.53c-.93-.3-.95.14-.79.52,0,0,.24,1.57,4.59,1.79,3.8.18,5.53-1.84,5.12-2.24S40.05,44.66,37.65,44.73Z" transform="translate(0)"/><path class="cls-17" d="M30.72,42.43a2.19,2.19,0,0,0,.16.67s9.07-.87,11.05-.3a3.54,3.54,0,0,0,.48-.86A68.68,68.68,0,0,1,30.72,42.43Z" transform="translate(0)"/><path class="cls-17" d="M32.61,44.2c3.7,1.46,7.91,0,7.91,0A19.62,19.62,0,0,1,32.61,44.2Z" transform="translate(0)"/><path class="cls-18" d="M27.62,31.46c-1.42.33-3.22,1.83-5.55.19,0,0,.8,2.73,5.41,1C29.36,32,30.41,34,30.41,34S30.4,30.83,27.62,31.46Z" transform="translate(0)"/><path class="cls-18" d="M45.63,31.08c-2.61-.65-2.76,2.42-2.76,2.42a2.43,2.43,0,0,1,2.92-1.14c4.17,1.54,5.08-1,5.08-1C48.6,32.9,47,31.42,45.63,31.08Z" transform="translate(0)"/><path class="cls-8" d="M44.89,27.8c-1.82.14-3.6,1.24-3.39,2.14s1.57-.6,3.35-1c2.23-.54,3.62.42,3.55.19C48.21,28.41,46.55,27.66,44.89,27.8Z" transform="translate(0)"/><path class="cls-8" d="M28.16,28.23c-2.05-.19-4.25.44-4.33,1.12,0,.43,1.73-.58,4.46,0,2.18.48,3.71,2,4,1S30.39,28.43,28.16,28.23Z" transform="translate(0)"/><path class="cls-19" d="M47.14,29.09a21.59,21.59,0,0,0-4.37.67,18.14,18.14,0,0,0-3.77,1,4.44,4.44,0,0,1-2.71.83c-2.23-.1-4.11-1.5-6.34-1.74a18.62,18.62,0,0,0-7,.1c-.59.16-2.39.83-1.18,1.48s3,.43,4.26.49c.6,0,1.2,0,1.79.09,2.12.21,5.39-.08,5.21,2.57-.12,1.82-1.3,3.68-2.78,4a19.46,19.46,0,0,1-4.37.43,7.48,7.48,0,0,1-3.15-.69c-.28-.13-1.13-.67-1.41-.29-.47.65,1.25,1.74,1.7,1.94a10.6,10.6,0,0,0,3.25.74c2.76.3,5.61.16,7.18-2.37.91-1.47,1.37-3.21,2.22-4.72,1.38-2.47,2,.9,2.44,2.37a7.67,7.67,0,0,0,1.1,2.33,5.63,5.63,0,0,0,4.11,2A6.29,6.29,0,0,0,46,40c.51-.21.72-.8.11-1a5.14,5.14,0,0,0-1.36-.06,10.86,10.86,0,0,1-1.71-.14,5.07,5.07,0,0,1-2-.88A3.88,3.88,0,0,1,40,36.73a3.63,3.63,0,0,1-.21-3.12c.51-1.4,2.05-1.51,3.33-1.62,1.55-.12,3.11-.09,4.65-.23a17.72,17.72,0,0,1,2.06.06c.88,0,2.79-.24,1.74-1.53S48.56,29,47.14,29.09Z" transform="translate(0)"/><path class="cls-20" d="M20.78,29c-1.83.05-3.39-.46-3.82-.09s.42,2.1.42,2.1a3.08,3.08,0,0,0,1.43.49c.12,1.27,0,4.54,2.36,6.61,1.95,1.73,8.29,2.24,10.27,1.25a7.66,7.66,0,0,0,3.93-5.75C36.43,28.1,23.35,28.92,20.78,29Zm10.79,8.88c-2.42,1.55-8.58.81-10.18-1.18-1.24-1.53-1.45-4.73-.69-5.18,2.31-1.39,11-.84,13,.7C34.68,33,33.4,36.7,31.57,37.88Z" transform="translate(0)"/><path class="cls-20" d="M50.71,28.55c-2.32,0-14.16-.45-13,5,.45,2.24,1.46,4.49,3.7,5.64,1.82.93,7.53.24,9.23-1.55,2-2.14,1.89-5.41,2-6.68a2.7,2.7,0,0,0,1.28-.53s.83-1.65.31-2.12S52.36,28.55,50.71,28.55Zm-.33,7.72c-1.39,2-6.94,2.95-9.17,1.47-1.68-1.13-2.94-4.82-2.08-5.6,1.77-1.59,9.6-2.4,11.73-1.07C51.55,31.5,51.45,34.7,50.38,36.27Z" transform="translate(0)"/><path class="cls-21" d="M40.66,31.65c-1.29.55,1.05,1.24,1.55,1.31a17.34,17.34,0,0,0,5.59-.21c1-.18,3.07-1.07,2.47-1.61C49.42,30.39,42.08,31,40.66,31.65Z" transform="translate(0)"/><path class="cls-3" d="M46.41,31.33c-.7.11-1.15.31-1,.63.38.62,4.48.26,4.76-.21S47.9,31.09,46.41,31.33Z" transform="translate(0)"/><path class="cls-22" d="M42,36.44c-.44,0-.74.07-.67.35.15.55,2.7.9,2.94.57S42.9,36.48,42,36.44Z" transform="translate(0)"/><path class="cls-22" d="M22.8,36.25c-.45-.08-.79,0-.74.26.08.56,2.71,1.22,3,.92S23.78,36.4,22.8,36.25Z" transform="translate(0)"/><path class="cls-21" d="M32.74,31.89c-1.63-.58-9.72-1.2-10.56-.48-.6.51,1.8,1.36,2.89,1.53a22.34,22.34,0,0,0,6.13.2C31.74,33.07,34.21,32.42,32.74,31.89Z" transform="translate(0)"/><path class="cls-3" d="M29.22,31.42c-.74,0-1.25.17-1.09.5.32.67,4.66.83,5,.39S30.81,31.37,29.22,31.42Z" transform="translate(0)"/><path class="cls-20" d="M39.21,30.28a7,7,0,0,1-5.7,0c-1.78-.63.94,1.16,1.14,2.08s-.11,3.75.52,2.07,1.86-1.79,2.65-.24.74-2.58,1.06-3S40.9,29.51,39.21,30.28Z" transform="translate(0)"/><path class="cls-23" d="M21.63,29.54c4.93.25,8.87.4,11.84,1.56C31.53,29.5,28.19,29.14,21.63,29.54Z" transform="translate(0)"/><path class="cls-23" d="M50.29,29c-6,.21-8.81.25-10.44,1.78C42.46,29.51,45.83,29.61,50.29,29Z" transform="translate(0)"/></g></g></g></svg>