<svg xmlns="http://www.w3.org/2000/svg" xmlns:xlink="http://www.w3.org/1999/xlink" viewBox="0 0 96 96"><defs><style>.cls-1{fill:none;}.cls-2{clip-path:url(#clip-path);}.cls-3{fill:#fff;}.cls-4{fill:#e62628;}.cls-5{fill:#ff3b3b;}.cls-6{fill:#854422;}.cls-7{fill:#3a3a4a;}.cls-8{fill:#918fa0;}.cls-9{fill:#292936;}.cls-10{fill:#e6b97f;}.cls-11{fill:#9c552c;}.cls-12{fill:#66241b;}.cls-12,.cls-15{opacity:0.7;}.cls-13{fill:#261b18;}.cls-14{fill:#bf6c3c;}.cls-15{fill:#e6d2c3;}.cls-16{opacity:0.8;}.cls-17{fill:#611f16;}</style><clipPath id="clip-path"><circle class="cls-1" cx="48" cy="48" r="48"/></clipPath></defs><g id="Layer_2" data-name="Layer 2"><g id="Layer_4" data-name="Layer 4"><g class="cls-2"><rect class="cls-3" width="96" height="96"/><path class="cls-4" d="M35.46,84,31.63,77.9c-5.45,3.43-8.61,9.95-8.25,17,0,.36.06.71.09,1.07h7.27c-.07-.47-.14-1-.17-1.44C30.34,90.08,32.22,86,35.46,84Z"/><path class="cls-4" d="M60.87,84l3.84-6.09c5.45,3.43,8.61,9.95,8.25,17,0,.36-.06.71-.09,1.07H65.6c.07-.47.14-1,.17-1.44C66,90.08,64.12,86,60.87,84Z"/><path class="cls-4" d="M59.31,74.89c-7.11-3.82-17.49-2.5-22.22.57C30.91,79.48,31.91,86,33.51,96h29C64.23,86.36,65.37,78.14,59.31,74.89Z"/><path class="cls-5" d="M47.43,67.88c-11.22,0-11.62,16.73.54,16.73C59.33,84.61,63,67.88,47.43,67.88Z"/><path class="cls-6" d="M51.59,66.34c-2.48-.67-6.52-.34-8.59,1.71-7.21,7.12-.2,14.13,5.47,14.13s7.82-5.1,7.59-9C55.88,70.05,54.17,67,51.59,66.34Z"/><path class="cls-7" d="M65.91,78.14c-.6-1.56-6.88-3.89-6.88-3.89C55.08,81.16,53.52,89,53,96h9.92C64.18,85.32,66.43,79.48,65.91,78.14Z"/><path class="cls-8" d="M58.9,71.58S53.81,83.8,54,88.19c5.18-7.57,13.45-11.91,13.53-12.83S62.89,71.84,58.9,71.58Z"/><path class="cls-9" d="M59.87,82.07c1.77,1.51,4.81.26,4.81,0A21.56,21.56,0,0,0,59.87,82.07Z"/><path class="cls-9" d="M55.69,90.93C58.06,92.38,62,91,62,90.8A37.86,37.86,0,0,0,55.69,90.93Z"/><path class="cls-7" d="M30.18,78.14c-.52,1.34,1.73,7.18,3,17.86h9.92c-.49-7-2.06-14.84-6-21.75C37.07,74.25,30.78,76.58,30.18,78.14Z"/><path class="cls-8" d="M28.54,75.36c.08.92,8.36,5.26,13.53,12.83.22-4.39-4.88-16.61-4.88-16.61C33.2,71.84,28.46,74.45,28.54,75.36Z"/><path class="cls-9" d="M31.41,82.11c0,.22,3,1.47,4.74,0A20.93,20.93,0,0,0,31.41,82.11Z"/><path class="cls-9" d="M34.06,90.8c0,.22,4,1.58,6.34.13A37.86,37.86,0,0,0,34.06,90.8Z"/><path class="cls-6" d="M67.7,61.56a7,7,0,0,1-3.75.28,1.09,1.09,0,0,0-.08-.15c-.55-1.18.21-7.52.48-8.7.71-3,2.09-4.49,4.32-3.55C73.32,51.4,71.48,60.05,67.7,61.56Z"/><path class="cls-10" d="M33.81,53.7c3.64-.9,7.3-1.72,11-2.53,6-1.33,12.62,0,18.73.58,4.78.45,5.13,2.69,5.13-1.2,0-4.83,1.24-12.78,0-18.07-6-25.74-41.73-19-45.29-2.15-1.48,7-1.81,16.26,1.55,22.94C26.66,56.76,30.85,54.43,33.81,53.7Z"/><path class="cls-11" d="M26.11,55c1.25,11.46,9.71,24.21,23,23.63C62.65,78,69.84,61.41,68.47,47.33,67,32,63.69,19.11,44.2,21.76,27.15,24.08,24.45,39.68,26.11,55Z"/><path class="cls-11" d="M23.65,62.73A2.86,2.86,0,0,0,28,61.13c.94-1.45.39-5.45-.57-8.94-.78-2.82-2.39-4.33-5.08-3.67C16.75,49.9,19.45,60.38,23.65,62.73Z"/><path class="cls-12" d="M25.45,57.86c2.05-1.22.26-5.57-1.24-6.31-1.23-.6-4.37.35-3,2.82.84-2.23,2.17-.72,1.92.88-.17,1.08-1.33,1.06-.22,2.47C23.54,58.49,24.8,58.24,25.45,57.86Z"/><path class="cls-10" d="M45.87,18.77C32,18.66,22.2,28.59,23.12,48.39a3.47,3.47,0,0,1,2.62.83c1.14,1.13,1.1,2.36,1.42,3,.14.32.31.84,1.4.79C26.5,46.33,27.69,37,30,34c5.61-7.52,18.21,2.65,22.38,2.49,3.15-.11,10.74-9.59,13.75-2.47C68.12,38.83,68.07,19,45.87,18.77Z"/><path class="cls-3" d="M26.32,60.66a1.47,1.47,0,1,1-1.47-1.47A1.47,1.47,0,0,1,26.32,60.66Z"/><path class="cls-13" d="M38,51.77a4.61,4.61,0,0,0-3.17-.05c-2.31-1.68-.72-7.47,2.56-6.33C39.85,46.24,40.06,50.51,38,51.77Z"/><path class="cls-12" d="M55,56.16c-.78-.91-1.82.14-3.79.21-1.77.06-2.49-.74-3.72,0s.61,3.09,3.74,2.9S55.7,56.94,55,56.16Z"/><path class="cls-14" d="M50.11,48.5c-1.64.24-3.7,8-2.8,8.53,2.22,1.33,6.74.49,8-.78C55.74,55.75,52,48.23,50.11,48.5Z"/><path class="cls-13" d="M65.49,45.88c1.72,1.09,1.6,4.68.26,6.08a4.2,4.2,0,0,0-3.37-.09C59.75,50,62.31,43.84,65.49,45.88Z"/><path class="cls-15" d="M36.34,46.46c1.12-.48,2,1.24,1.1,2C36.25,49.43,35.08,47,36.34,46.46Z"/><path class="cls-15" d="M64.21,46.52c1.14-.19,1.54,1.59.58,2.07C63.47,49.27,62.93,46.74,64.21,46.52Z"/><path class="cls-13" d="M32.52,44.27c-.55.14-1.72.49-2.05-.16,1.41-1.29,4.34-3.23,6.29-3.22,1.19,0,7.43.77,6.32,3.11-.56,1.17-2.45.29-3.25-.09a7.64,7.64,0,0,0-5-.37C34.43,43.63,33.46,44,32.52,44.27Z"/><path class="cls-13" d="M67.4,44.16c.48.14,1.49.46,1.79-.18C68,42.7,65.45,40.8,63.75,40.84c-1,0-6.51.85-5.57,3.18.47,1.16,2.13.25,2.84-.13a5.88,5.88,0,0,1,4.39-.43C65.74,43.55,66.58,43.93,67.4,44.16Z"/><path class="cls-14" d="M67.09,55a2.71,2.71,0,0,1,.39.84c.84,3.1-6.22,2.13-7.07.78-1.59-2.53.76-3.17,2.54-3.15C64.3,53.47,66.2,53.72,67.09,55Z"/><path class="cls-14" d="M39.76,53.88a2.83,2.83,0,0,1,.58.77c1.56,3-5.9,3.57-7.07,2.39-2.2-2.23.07-3.42,1.89-3.8C36.55,52.94,38.56,52.77,39.76,53.88Z"/><g class="cls-16"><path class="cls-17" d="M64.88,60a3.32,3.32,0,0,1-4.22-1.25,2.43,2.43,0,0,0,.51,2.46C59.45,65.33,54.83,68,49.52,67.9s-9.3-2.82-11-6.39a2.24,2.24,0,0,0,0-2.56,2.94,2.94,0,0,1-3.91,1.49,2.88,2.88,0,0,0,2.2,1.69c2,4.06,6.55,7.15,12.28,7.41h.49c6.13.12,11.38-2.94,13.35-7.76A2.33,2.33,0,0,0,64.88,60Z"/></g></g></g></g></svg>