<svg xmlns="http://www.w3.org/2000/svg" xmlns:xlink="http://www.w3.org/1999/xlink" viewBox="0 0 66 66"><defs><style>.cls-1{fill:none;}.cls-2{isolation:isolate;}.cls-3{clip-path:url(#clip-path);}.cls-4{fill:#a55a86;}.cls-5{fill:#e8e8e8;}.cls-6{fill:#a09d98;mix-blend-mode:multiply;opacity:0.2;}.cls-7{fill:#5e4684;}.cls-8{fill:#1c1c26;}.cls-9{fill:#313142;}.cls-10{fill:#f5f5f5;}.cls-11{fill:#854422;}.cls-12{fill:#261b18;}.cls-13{fill:#9c552c;}.cls-14,.cls-15,.cls-17{fill:#66241b;}.cls-14{opacity:0.4;}.cls-15,.cls-19,.cls-27{opacity:0.7;}.cls-16{fill:#45362e;}.cls-17{opacity:0.5;}.cls-18{fill:#d17642;}.cls-19{fill:#f0ded1;}.cls-20{fill:#d47b48;}.cls-21{fill:#732e2b;}.cls-22{fill:#fff9f0;}.cls-23{fill:#e8dac5;}.cls-24{fill:#212126;}.cls-25,.cls-26,.cls-27{fill:#fff;}.cls-25{opacity:0.3;}.cls-28{fill:#1e1e29;}</style><clipPath id="clip-path" transform="translate(0.01 0)"><circle class="cls-1" cx="33" cy="33" r="33"/></clipPath></defs><g class="cls-2"><g id="Layer_2" data-name="Layer 2"><g id="avatars"><g class="cls-3"><rect class="cls-4" width="66" height="66"/><path class="cls-5" d="M41.81,54.43c-2.1-5.11-13.27-3.62-16.22-1.14s-3.77,5.46.66,9.8A26.44,26.44,0,0,0,29.75,66h6C38.45,63,43.05,57.44,41.81,54.43Z" transform="translate(0.01 0)"/><path class="cls-6" d="M26.57,55.88a9.7,9.7,0,0,0,3.78,5l3.12-3,3.31,2.81c3.17-2.8,3.79-4.56,4-5.56C41.66,52,25.19,51.51,26.57,55.88Z" transform="translate(0.01 0)"/><path class="cls-7" d="M35.88,58.25A2.55,2.55,0,0,0,33,57a2.68,2.68,0,0,0-2.23,2l1.61,1.63L30.74,66H37l-2.13-5.72Z" transform="translate(0.01 0)"/><path class="cls-8" d="M46.51,56.23a32.61,32.61,0,0,0-5.62-3.72c.14.32.61,1,.58,1.35-.36,3.89-3,8.81-5,12.14H44.7C45.45,62.22,47,56.71,46.51,56.23Z" transform="translate(0.01 0)"/><path class="cls-8" d="M25.5,53.8a5.14,5.14,0,0,1,.54-1c-2.35,1-6.67,3.07-7,3.83s1.76,4.92,2.76,9.38H31C28.11,62.23,24.42,56.58,25.5,53.8Z" transform="translate(0.01 0)"/><path class="cls-9" d="M43.15,61.83a26,26,0,0,0-1.84-3.23l3.22-2A14.66,14.66,0,0,0,40,51.49c.54,5.44-2.21,11.06-4.22,14.51h3.1A54.27,54.27,0,0,0,43.15,61.83Z" transform="translate(0.01 0)"/><path class="cls-9" d="M22.13,57.26,26,58.84a39.44,39.44,0,0,0-1.71,4A33.94,33.94,0,0,0,27.94,66h3.64c-2.1-3.1-4.94-8.15-4.94-13.88A10.3,10.3,0,0,0,22.13,57.26Z" transform="translate(0.01 0)"/><path class="cls-10" d="M26.05,52.84C24.5,56.78,30.12,60,30.12,60l3.35-2.09,3.12,2s6.18-3.21,3.84-7.81C38.33,47.93,27.84,48.26,26.05,52.84Z" transform="translate(0.01 0)"/><path class="cls-11" d="M31,47.32a4.69,4.69,0,0,0-3.46,4.29,3.66,3.66,0,0,0,1,3.23,6.9,6.9,0,0,0,2.64,1.52c.74.22,2,1.08,2.25,1.09s.52-.37,1.22-.73c1-.52,2.45-1.21,3-2.31.82-1.6,1.55-4.77,0-6S32.93,46.9,31,47.32Z" transform="translate(0.01 0)"/><path class="cls-12" d="M49.42,15.41c.66-1.08,1.36-1.64.14-2.61a3.92,3.92,0,0,0-3.72-.57c.67-2.76-3.15-3.42-4.64-1.86-.43-3.06-3.36-3.47-5.15-1.28-.87-2.3-4.18-2.76-4.77,0-2-2.57-5.66-1.22-6.31,1.73a2.79,2.79,0,0,0-5,2,3.53,3.53,0,0,0-4.31.83,3.63,3.63,0,0,0,0,3.88c-3.5-.23-2.94,2.88-1.2,4.61-2.72.17-3.91,4-.64,4.31-1.78.63-2,3,.16,3.34-2.19.79-1.26,2.72.65,3.14-.67,1.95-.24,2.71,1.27,3.91a19.91,19.91,0,0,1,2.37,2.56c2.11,2.35,3.61,5.16,5.66,7.5s4.23-1.62,5.89-2.57a11.67,11.67,0,0,1,7.39-1.56c2.23.33,3.8,2.67,6.08,2.72,1.38,0,2.26-1.14,2.83-2.25s.44-2.23.71-3.44,1.34-1.48,2.05-2.29c.3-.35,1.2-2.64,0-2.62,2,0,2-1.72,1.37-3a3.7,3.7,0,0,0-.5-.76c2.21-.33,1.37-2,.57-3.28.77-.51,1.32-.58,1.25-1.6a2.66,2.66,0,0,0-1.6-2c.78-.56,1.74-.58,1.84-1.67S51,20.59,50.3,20C53.6,19.25,52.11,15.75,49.42,15.41Z" transform="translate(0.01 0)"/><path class="cls-13" d="M30.44,14C22.26,15.59,16.5,27.34,18,38.38,19.13,46.64,25.5,55.7,35.1,55c9.79-.7,14.66-12.85,13.4-23C47.12,21,41.89,11.76,30.44,14Z" transform="translate(0.01 0)"/><path class="cls-14" d="M41,15.73a36.74,36.74,0,0,0-9.92-1.56c-3-.05-6.23-.22-9,1-1.53.69-3.41,1.64-4,3.34-.71,2.1-.37,4.75,0,6.91a18.85,18.85,0,0,0,2.21,6.82A28.24,28.24,0,0,1,21.33,28c.18-.83.38-1.65.57-2.48a2.52,2.52,0,0,0,2.55-2.81c1.06,0,2.41-.38,2.61-1.56a2.63,2.63,0,0,0,1.77.7H29c1.19,0,1.36-.75,2.16-1.06,1.09-.44,3,.8,3.69-.83,1.27.8,2.88,1.33,4,0,.82,1.25,3.17,2,4.38.87,1.27,1.24,5-.17,3.91-2.18C46.24,17,42.63,16.22,41,15.73Z" transform="translate(0.01 0)"/><path class="cls-13" d="M15.15,33.78c-4,1.11-2.41,7,.87,8.14a8,8,0,0,0,3.25.36l.06-.1c.48-.76-.19-5-.44-5.84C18.28,34.31,17.08,33.25,15.15,33.78Z" transform="translate(0.01 0)"/><path class="cls-15" d="M16.56,35.94c-.91-.42-3.16.33-2.1,2.1.56-1.64,1.56-.57,1.4.59-.1.79-.94.8-.1,1.8.45.54,1.36.34,1.82,0C19,39.55,17.66,36.45,16.56,35.94Z" transform="translate(0.01 0)"/><path class="cls-12" d="M37.11,10.66a27.92,27.92,0,0,0-8.41-.26C24.06,11,18.48,13.15,17,18.06c-.9,3-.43,6.51-.2,9.59.14,1.86-.61,5.46,1,6.87,1.85,1.64,2.59-.83,2.76-2.6.26-2.62.56-5.14.92-7.71,1.67.15,2.44-1.27,2.36-2.74,1.34.33,3,.06,3.47-1.41a3.37,3.37,0,0,0,2.19.53c.77-.13,1.05-1,1.48-1.16.61-.17,1.57.62,2.3.48s1.19-.72,1.62-1.41c1.11,1.75,3.66,1.36,5,.12a2.64,2.64,0,0,0,4,1.29c-.63.42.91,1.71,1.71,2.18a1.33,1.33,0,0,0,.38.17c1.09.13,1.68-.7,2.18-1.57,1.23-2.18.27-4.46-1.31-6.21C44.86,12.25,40,11.2,37.11,10.66Z" transform="translate(0.01 0)"/><path class="cls-16" d="M48.09,16.63c.46-.7.78-1.85,0-2.47a3.46,3.46,0,0,0-3.46.34c.26-1,.13-2.58-.89-3.13s-2.06,1-2.48,1.75a4.81,4.81,0,0,0-2-3.3c-1.47-.94-2.21.84-2.84,1.87a3.22,3.22,0,0,0-2.51-2.18C32.61,9.3,32,11,31.53,11.92c-1-.91-1.51-2.27-3.05-2.27a2.14,2.14,0,0,0-2.12,1c-.41.75-.12,1.58-.42,2.34-1.22-.59-2-1.62-3.45-1.51-1.78.12-1.79,1.45-1.86,2.89-3.91-1.61-5.16,1.83-3.47,4.1-1.84.28-2.13,4.12,0,4.24-1.46.74-1.85,2.17-.07,2.93,2,.86,2.54-1.66,2-3.09,1.37.12,1.58-1,1.56-2.11.72.22,1.07.58,1.83.25s.81-.87.89-1.69c.67.33,1.32,1,2.15.61a2.58,2.58,0,0,0,1-1.79,2.09,2.09,0,0,0,1.85,1c.92-.12,1.13-.66,1.48-1.38a2.6,2.6,0,0,0,2.41.71c1.08-.29,1.27-.88,1.65-1.83,1.46,1.12,4.23,2.23,5.39,0,1,1.46,3.65,3.25,5.24,1.35,1.1,1.27,2.11,2.95,4.1,2.28C50.94,19.21,50.31,16.68,48.09,16.63Z" transform="translate(0.01 0)"/><path class="cls-17" d="M21.77,34.24c.13.68,1.63.17,2.11.22-.36.47-1.56.61-2,.95s-.41.57.22.48a11.55,11.55,0,0,0,2.64-1C25.75,33.75,22.29,34,21.77,34.24Z" transform="translate(0.01 0)"/><path class="cls-17" d="M46.26,34.19c.41-.06,1.71.45,1.82-.22-.44-.2-3.44-.5-2.55.59a9.36,9.36,0,0,0,2.29,1.06c.54.08.61-.11.18-.48S46.57,34.65,46.26,34.19Z" transform="translate(0.01 0)"/><path class="cls-18" d="M47.17,36.72a3.45,3.45,0,0,0-2.92-1.07c-1.26,0-2.93.49-1.83,2.31.59,1,5.57,1.61,5-.63A2.24,2.24,0,0,0,47.17,36.72Z" transform="translate(0.01 0)"/><path class="cls-18" d="M28,36.67c-.81-.81-2.24-.76-3.25-.6-1.31.21-3.56,1.47-1.67,2.77,1.36.93,6.29.55,5.3-1.6A2,2,0,0,0,28,36.67Z" transform="translate(0.01 0)"/><path class="cls-12" d="M27.28,31.51c-2.92-.79-4.77,2.47-2.77,3.54a6.58,6.58,0,0,1,2.9.15A1.87,1.87,0,0,0,27.28,31.51Z" transform="translate(0.01 0)"/><path class="cls-15" d="M35.58,38.15c-1,0-1.93-.45-2.89,0s.14,1.79,2.86,1.73,3.46-1.31,3-1.77S36.71,38.14,35.58,38.15Z" transform="translate(0.01 0)"/><path class="cls-18" d="M35.51,32.28c-2.31-.21-4.13,4.28-3.15,5.76.69,1,5.79,1,6.59-.22C39.24,37.38,37.72,32.47,35.51,32.28Z" transform="translate(0.01 0)"/><path class="cls-19" d="M26.24,32.08c-1.19.25-.28,1.71.87,1.18C28,32.87,27.29,31.86,26.24,32.08Z" transform="translate(0.01 0)"/><path class="cls-12" d="M27.87,26.61c-2.58-.34-6.68.56-6.3,1.92s1.85.27,3.81.31,3.75.63,4.61,0C31.43,27.8,30,26.89,27.87,26.61Z" transform="translate(0.01 0)"/><path class="cls-12" d="M42.59,26.46c-2,.32-3.41,1.25-2.06,2.26.81.6,2.39,0,4.37-.1s3.23,1,3.62-.38S45,26.07,42.59,26.46Z" transform="translate(0.01 0)"/><path class="cls-12" d="M45.28,31.11c-3-.4-4.39,3.08-2.27,3.87a6.46,6.46,0,0,1,2.89-.23A1.87,1.87,0,0,0,45.28,31.11Z" transform="translate(0.01 0)"/><path class="cls-19" d="M44.32,31.81c-1.14.41,0,1.73,1,1.05C46.12,32.37,45.34,31.45,44.32,31.81Z" transform="translate(0.01 0)"/><path class="cls-20" d="M44.66,40.46c-3.77,1.19-13.46,1.26-17.65.69-.67-.09-2.16-.8-1.61.54.34.81.6,1.68,1,2.46,1.85,3.64,3.6,6.65,8.72,6.73,5.31.08,6.77-3.19,7-6a4.8,4.8,0,0,1,1.17-2.44c.19-.25,1.9-1.89,1.78-2S44.72,40.44,44.66,40.46Z" transform="translate(0.01 0)"/><path class="cls-17" d="M24.63,40.5c-.73.49-.71,2-.12,2.12s.6-1.06.74-1.38a1.44,1.44,0,0,1,.82-.63c.24-.09.48-.16.68-.22s1-.23.77-.35A6.77,6.77,0,0,0,24.63,40.5Z" transform="translate(0.01 0)"/><path class="cls-17" d="M43.43,39.82c-.37.1.32.23,1.23.45s0,1.56.61,1.63,1.16-.91.76-1.74S43.43,39.82,43.43,39.82Z" transform="translate(0.01 0)"/><path class="cls-21" d="M26.63,41.87s2.3,6.94,8.59,6.72c5.67-.2,6.33-2.57,6.58-4.23a4.33,4.33,0,0,1,1.86-3.09A32,32,0,0,1,26.63,41.87Z" transform="translate(0.01 0)"/><path class="cls-22" d="M28.7,42.59a3.7,3.7,0,0,0,2,3.1,11.66,11.66,0,0,0,8.11.37c1.92-.57,3-4,3-4A50.49,50.49,0,0,1,28.7,42.59Z" transform="translate(0.01 0)"/><path class="cls-22" d="M36.61,46.08a16.72,16.72,0,0,1-6.27-.9c-1.05-.46-1.06.19-.86.75,0,0,.35,2.32,5.25,2.73,4.29.35,6.16-2.59,5.68-3.19S39.3,46,36.61,46.08Z" transform="translate(0.01 0)"/><path class="cls-23" d="M28.69,42.55a3.82,3.82,0,0,0,.21,1s10.18-1.09,12.45-.2a5.43,5.43,0,0,0,.49-1.26A59.47,59.47,0,0,1,28.69,42.55Z" transform="translate(0.01 0)"/><path class="cls-23" d="M30.9,45.2c4.24,2.22,8.91.15,8.91.15A17.08,17.08,0,0,1,30.9,45.2Z" transform="translate(0.01 0)"/><path class="cls-24" d="M38.15,29.66c-1.25,1.46-.62,6.34.2,7.93s9.43,1.77,11.51,1,3.77-6.42,2.29-8.68S40,27.51,38.15,29.66Zm11.23,7.85c-1.56.55-9.25.4-10-.64s-1-5.43-.1-6.41c1.3-1.46,10.31-1.25,11.61.22S50.94,37,49.38,37.51Z" transform="translate(0.01 0)"/><path class="cls-24" d="M17.27,30.12c-1.58,1.53,0,6.53,1.37,8.06s11.31.9,13.31,0,2-6.33.31-8.49S19.59,27.88,17.27,30.12Zm13.85,7.13c-1.5.59-10.14,1-11.28.08S17.41,32,18.53,31c1.64-1.46,11.17-1.82,12.61-.47S32.62,36.66,31.12,37.25Z" transform="translate(0.01 0)"/><path class="cls-24" d="M33.37,32.59c-.21.11-1.11,1.38-.48,1.67a5.55,5.55,0,0,1,4.91-.39c.37.15.71.11.59-.39C37.93,31.61,34.69,32,33.37,32.59Z" transform="translate(0.01 0)"/><path class="cls-25" d="M44.68,29.85c-.59.15-4.56.91-3.82,2.78.49,1.23,9.73,2.08,10.36,0C52.49,28.48,45.82,29.55,44.68,29.85Z" transform="translate(0.01 0)"/><path class="cls-25" d="M30.48,29.84c-1.51-.47-4.71-.22-6.56.1-.66.11-3.71.61-2.66,2.59s8.72,2.34,10.12.65A2,2,0,0,0,30.48,29.84Z" transform="translate(0.01 0)"/><path class="cls-26" d="M45.32,30.16c-1,0-1.68.26-1.46.77.42,1,6.24,1.24,6.72.58S47.46,30.09,45.32,30.16Z" transform="translate(0.01 0)"/><path class="cls-27" d="M40.83,35.57c-.61-.08-1.06,0-1,.45.15.84,3.71,1.65,4.07,1.18S42.15,35.73,40.83,35.57Z" transform="translate(0.01 0)"/><path class="cls-26" d="M26.25,30c-1,.06-1.64.27-1.42.73.43.91,6.15,1,6.6.42S28.34,29.88,26.25,30Z" transform="translate(0.01 0)"/><path class="cls-27" d="M20.42,35.8c-.61-.06-1,0-1,.43.17.77,3.67,1.45,4,1S21.72,35.93,20.42,35.8Z" transform="translate(0.01 0)"/><path class="cls-28" d="M15.62,66H22.8l-3-10C17,57.7,15.56,58.79,15.62,66Z" transform="translate(0.01 0)"/><path class="cls-28" d="M46.2,56l-3,10h7.19C50.42,58.79,48.94,57.7,46.2,56Z" transform="translate(0.01 0)"/></g></g></g></g></svg>