<svg xmlns="http://www.w3.org/2000/svg" xmlns:xlink="http://www.w3.org/1999/xlink" viewBox="0 0 96 96"><defs><style>.cls-1{fill:none;}.cls-2{clip-path:url(#clip-path);}.cls-3{fill:#fff;}.cls-4{fill:#108d8e;}.cls-5{fill:#27b3b0;}.cls-6{fill:url(#linear-gradient);}.cls-7{fill:#8e9194;}.cls-8{fill:#261b18;}.cls-9{fill:#d47844;}.cls-10,.cls-14{fill:#661004;}.cls-10{opacity:0.2;}.cls-11{fill:#45362e;}.cls-12{fill:#abafb3;}.cls-13{fill:#6f6f78;}.cls-14{opacity:0.3;}.cls-15{fill:#f0ded1;}.cls-15,.cls-17{opacity:0.7;}.cls-16{fill:#121b21;}.cls-17{fill:#66241b;}.cls-18{fill:#611f16;}.cls-19{fill:#131413;}.cls-20{opacity:0.1;}.cls-21{fill:#23232d;}.cls-22{fill:#8b95a8;}</style><clipPath id="clip-path"><circle class="cls-1" cx="48" cy="48" r="48"/></clipPath><linearGradient id="linear-gradient" x1="-737.92" y1="76.7" x2="-737.67" y2="80.93" gradientTransform="matrix(-1, 0, 0, 1, -689.4, 0)" gradientUnits="userSpaceOnUse"><stop offset="0" stop-color="#c25421"/><stop offset="1" stop-color="#d47844"/></linearGradient></defs><g id="Layer_2" data-name="Layer 2"><g id="Layer_4" data-name="Layer 4"><g class="cls-2"><rect class="cls-3" width="96" height="96"/><path class="cls-4" d="M40,78.46C34,80.78,28.51,86.78,28.31,96h8C35.68,90.56,42.06,77.65,40,78.46Z"/><path class="cls-4" d="M57.17,78.46c6,2.32,11.48,8.32,11.68,17.53H60.9C61.49,90.56,55.1,77.65,57.17,78.46Z"/><path class="cls-4" d="M56.94,78c-3.78-3.66-12.83-2.27-16.25,0-4.5,3-3.91,11.66-1.91,15.65.41.81.8,1.58,1.13,2.37H58.12l.54-1.54C60.68,88.39,61.08,82,56.94,78Z"/><path class="cls-5" d="M41.45,80a3.25,3.25,0,0,1,.1-2.82c2.09-4,13.23-4,14.27.75a3.49,3.49,0,0,1-.45,2.43C52.27,86.11,43.8,85.91,41.45,80Z"/><path class="cls-5" d="M58.37,89.06c-.86,3.79-5.52,4.94-9.59,5-8,.13-10.71-4-9.42-8.73.35-1.26,1.7-2,3.29-.18,2.39,2.67,10.19,2.62,13-1C57.3,82.1,59,86.2,58.37,89.06Z"/><path class="cls-6" d="M54.49,76.38a6,6,0,0,0-12,0c-.11,2,.14,3.09,1,4.17a6.7,6.7,0,0,0,9.94,0C54.34,79.47,54.6,78.34,54.49,76.38Z"/><path class="cls-7" d="M48.9,18.55c-49-.17-51,57.44-1,53C97.53,67.18,91.31,18.7,48.9,18.55Z"/><path class="cls-8" d="M18.83,54.17a46.52,46.52,0,0,0,5,15.06c5.56,10.4,15.46,2.24,25.8,3.22,8.34.79,15.07,7.91,20.08-.56,7.11-12,7-23.86,4.54-36C69.2,11,39.57,5.32,27.71,20A43.75,43.75,0,0,0,18.83,54.17Z"/><path class="cls-9" d="M27.77,56.4c1.3,10.95,10.61,22.75,21.86,22,13.53-.85,20.37-16.8,19-29.8C67,33.87,60.27,21.46,44.94,24.17,34,26.1,26,41.65,27.77,56.4Z"/><path class="cls-10" d="M46.29,40.6a36.37,36.37,0,0,1-3.84,1.57c-2.07.72-11.3,1-11.32-2.4,0,2.42,1,5.2-1.18,7.22-2.91-2.44-6.69-6.17-6.1-10,.87-5.62,3.33-9.26,9-11.57,3.75-1.54,9.1-1.19,13.08-1A51.48,51.48,0,0,1,64,28.6c3.2,1.34,8.64,8.34,5.59,11.69C65.81,44.47,55.69,37.43,53.57,34,52.61,36.91,49.42,39.1,46.29,40.6Z"/><path class="cls-8" d="M39.61,17.26c-7.4,1.14-13.22,7.49-16,13.88C20.38,38.4,18,45.4,19.08,55.6c.75,6.82,2.66,14.75,10.11,21.29,4.25,3.72,10.43,7.93,12.06,13.84,1.14-2.18,1-7.76.27-10C39.36,74.21,33,71.12,31.05,64.39c-1.58-5.49-2.45-11.19,0-16.6,2-4.57,7.27-5.52,11.72-7.51,4.17-1.86,9-4.23,10.67-8.87a39.09,39.09,0,0,0,7.17,5.91c2.55,1.55,5,2.13,6.76,4.68,3.21,4.57,3.38,10.93,1.85,16.14C67.18,65,62.53,71.78,56,78c-3.18,3-3.46,9.36-1.22,14.87,1.93-12.63,12.15-12.3,17-24.82a41.61,41.61,0,0,0-2.32-35.68c-3-5.17-5.43-10.2-10.86-13.17C52.92,16.09,45.86,16.29,39.61,17.26Z"/><path class="cls-11" d="M69.37,34.42c-6.89,2.58-12.31-1.15-17-7,.91,1.13-4.77,6.88-5.6,7.57-5,4.14-11.67,6.71-17.87,8,.57-1.66,2-3.06,2.3-4.74C31,39.67,27,40.54,25.93,40.33c-1.65-.33-3.47-1-2.36-2.36C28.5,32.19,53,17.59,69.37,34.42Z"/><path class="cls-11" d="M21.69,54.05c1.46,3.43,4.7,4.49,6.58,7.45s1,4.75.51,7.73a10,10,0,0,0,.52,4.69C22,68,21.69,54.05,21.69,54.05Z"/><path class="cls-11" d="M62.65,77.64c1.93-2.68.68-4.22,1.35-6.53s2-2.7,3.72-3.78a7,7,0,0,0,2.17-2.41C70.23,75.38,62.65,77.64,62.65,77.64Z"/><path class="cls-12" d="M57.17,6.6c2.17,1.54,10.14,15.28,10.14,15.28L25,24.11s4.5-14.19,7.75-16.62C37.94,3.6,52.66,3.39,57.17,6.6Z"/><path class="cls-13" d="M64.31,16.85c2,3.22,3,5,3,5L25,24.11a47.82,47.82,0,0,1,1.63-4.7C29.35,12.34,60.74,11.06,64.31,16.85Z"/><path class="cls-7" d="M47.74,17.11C17.21,18.6,10,36.1,11.35,49.34c.53,5.26,5.58,2.09,7.28-4,6.24-22.34,49-28.85,56.79-2.15,2.78,9.48,6.73,10,7.49,2.43C84.2,32.72,76.45,15.72,47.74,17.11Z"/><path class="cls-14" d="M54.68,56.09c-.56-.68-1.45,0-3-.11s-1.38-.66-2.4-.21S49,57.93,51.5,58,55.16,56.68,54.68,56.09Z"/><path class="cls-8" d="M64.77,46.64c-3.65-1.56-7,3-4.36,5.29.53-.57,3.39-1.5,5.16-.16C67.07,50.69,66.73,47.48,64.77,46.64Z"/><path class="cls-15" d="M63.26,47.09c1.51-.47,2.1,1.83.84,2.65C62.36,50.89,61.56,47.62,63.26,47.09Z"/><path class="cls-8" d="M35.83,46.94c3.61-1.67,7.07,2.74,4.51,5.16-.54-.56-3.43-1.4-5.16,0C33.65,51.05,33.9,47.83,35.83,46.94Z"/><path class="cls-15" d="M38.86,47.38c-1.52-.42-2,1.89-.76,2.68C39.87,51.15,40.58,47.87,38.86,47.38Z"/><path class="cls-8" d="M41.11,42.1c1,0,1.63.62,1.1,1.58-.42.76-1.48.61-2.27.64-1.16,0-2.31,0-3.48,0a18.25,18.25,0,0,0-4.48.48c-.29.08-.53.28-.84.23,0-.38.37-.81.69-1.05a9.62,9.62,0,0,1,3.59-1.54A21.76,21.76,0,0,1,41.11,42.1Z"/><path class="cls-8" d="M58.66,42c-1,.08-1.58.66-1,1.56.42.72,1.45.53,2.21.53,1.14,0,2.26-.12,3.4-.14a17.76,17.76,0,0,1,4.37.28c.28.07.52.25.82.19,0-.37-.37-.76-.69-1a9.33,9.33,0,0,0-3.51-1.34A21.05,21.05,0,0,0,58.66,42Z"/><path class="cls-16" d="M71.13,46.15s-2.63,3.52-7.59,1.4c-2.19-.93-3.82,1.17-3.82,1.17A3.8,3.8,0,0,1,64,46C65.77,46.33,67.58,47.8,71.13,46.15Z"/><path class="cls-16" d="M29.6,46.59s2.66,3.49,7.6,1.32C39.38,47,41,49,41,49a3.79,3.79,0,0,0-4.35-2.66C35,46.71,33.16,48.21,29.6,46.59Z"/><path class="cls-17" d="M40.49,61.37c1.46,2.73-1.91,4.07-3.32,1.4A2.51,2.51,0,0,0,40.49,61.37Z"/><path class="cls-17" d="M59.49,60.69c-.71,2.86,3,3.81,3.65,1A2.81,2.81,0,0,1,59.49,60.69Z"/><path class="cls-18" d="M49.79,70.46A12,12,0,0,1,39,64a.67.67,0,0,1,.41-.94.9.9,0,0,1,1.06.43A10.42,10.42,0,0,0,50.11,69c4.68,0,8.68-2.59,10-6.44a.79.79,0,0,1,1-.44.77.77,0,0,1,.54.93c-1.5,4.45-6,7.38-11.42,7.4Z"/><path class="cls-19" d="M72.41,45.41l-.49,3a18.41,18.41,0,0,0,2.19-.5,8.28,8.28,0,0,0,.17-2.23C74.27,45.25,72.41,45.41,72.41,45.41Z"/><path class="cls-20" d="M56,45.34C44.92,45.6,25.69,46,20.57,48l.58,2.43s4.1.9,5.89.55c.51,3.64,1.62,7,5.2,8.31,3.34,1.28,9.82.7,13.06-2,2.55-2.13,1.88-4.12,4.19-6.11,2.59-2.24,4,.56,4.78,2.47,1.39,3.42,4.56,4.65,8,4.91s6.27-1.07,7.33-2.83c1.32-2.19,2.72-7.41.76-9.28S59.4,45.26,56,45.34Z"/><path class="cls-21" d="M74.16,45.44C73,44,28.2,45.28,26.9,46.82l-.12.14c0,.26.21,2,.21,2a11.65,11.65,0,0,1,1.33-.08c.46,2.26,1.34,6.07,3.11,7.61,2.83,2.45,11.24,2,15-.64,2.71-1.91,1.57-7.36,5-7.46,2.49-.06,2.52,5.08,4.9,6.74,3.43,2.39,12.6,1.92,14.63-.27,1.47-1.58,1.24-5.36,1.51-7.65.91,0,.86.14,1.77.07a9.32,9.32,0,0,0,0-1.74Z"/><path class="cls-21" d="M25.06,46.79l-5.52,1.43.16,1.83,1.45.34s4.43-.69,5.06-.84,1.14.17,1.38-.58a4.66,4.66,0,0,0-.24-2.45Z"/><path class="cls-22" d="M32.15,46.82l37.63-1C52.44,44.26,32.15,46.82,32.15,46.82Z"/><path class="cls-22" d="M56.33,47.62c-1.84.8-.11,3.11-.11,3.11s15-2.89,14.09-3.44S58.17,46.82,56.33,47.62Z"/><path class="cls-22" d="M31.12,48.82C29.29,49.62,32,54,32,54s7.71-1,12.34-2.06C48,51.09,49,48.15,48.57,47.9,47.66,47.34,33,48,31.12,48.82Z"/><polygon class="cls-22" points="20.41 48.28 25.41 48.62 26.46 47.28 25.19 47.27 20.41 48.28"/></g></g></g></svg>