<svg xmlns="http://www.w3.org/2000/svg" xmlns:xlink="http://www.w3.org/1999/xlink" viewBox="0 0 96 96"><defs><style>.cls-1{fill:none;}.cls-2{clip-path:url(#clip-path);}.cls-3{fill:#fff;}.cls-4{fill:#e83133;}.cls-5{fill:#c4bab1;}.cls-6{fill:#d9d9d9;}.cls-7{fill:#8f4721;}.cls-8{fill:#ff3b3b;}.cls-9{fill:#261b18;}.cls-10{fill:#9c552c;}.cls-11,.cls-12{fill:#66241b;}.cls-11{opacity:0.4;}.cls-12,.cls-28{opacity:0.7;}.cls-13{fill:#661004;opacity:0.3;}.cls-14,.cls-21{fill:#8e9194;}.cls-15{fill:#c1c5c9;}.cls-16{fill:#6e7073;}.cls-17{fill:#5d5f61;}.cls-18{fill:#262633;}.cls-19{fill:#9fa2a6;}.cls-20{fill:#3a3a4a;}.cls-21{opacity:0.5;}.cls-22{fill:#d47b48;}.cls-23{fill:#732e2b;}.cls-24{fill:#fff9f0;}.cls-25{fill:#c4b9a7;}.cls-26{fill:#d17642;}.cls-27{opacity:0.2;}.cls-28{fill:#f0ded1;}</style><clipPath id="clip-path"><circle class="cls-1" cx="48" cy="48" r="48"/></clipPath></defs><g id="Layer_2" data-name="Layer 2"><g id="Layer_4" data-name="Layer 4"><g class="cls-2"><rect class="cls-3" width="96" height="96"/><path class="cls-4" d="M39.75,83.18,38,78c-5.81,1.74-8.66,6.9-9.93,18h8.37C37.39,91,38.81,83.66,39.75,83.18Z"/><path class="cls-4" d="M58.67,78l-1.74,5.16c.94.48,2.36,7.8,3.3,12.82H68.6C67.32,84.92,64.48,79.76,58.67,78Z"/><path class="cls-5" d="M57.44,78.09c-4.59-1.61-13.36-2.22-18.79.21-2.8,1.26-2.4,9.91-1.88,17.7h23C60,88.05,60.26,79.07,57.44,78.09Z"/><path class="cls-6" d="M39.22,77.84c.42,5.93,8.91,8.46,8.91,8.46s9.61-3.78,8.17-9.52C54.74,70.57,38.75,71.28,39.22,77.84Z"/><path class="cls-7" d="M47.77,70.49c-2.79,0-6.69,1.68-6.9,5.82-.1,1.92.21,3,1.26,4.08,1.68,1.67,3.74,3,5.85,3s4.13-1.5,5.75-3.23c1-1.08,1.29-2.2,1.12-4.12C54.51,72,50.55,70.44,47.77,70.49Z"/><path class="cls-4" d="M56.72,77s-.1,5-3,7.77A109.62,109.62,0,0,1,54.42,96h6.94c-.41-6.71-1.15-14-2.6-17.94A19,19,0,0,0,56.72,77Z"/><path class="cls-8" d="M56.55,74.76c-2.84,1.31-.32,3.16-3.51,5.88a23.33,23.33,0,0,0,.79,5.08s4-3.2,4.37-8C58.34,75.85,57.17,74.48,56.55,74.76Z"/><path class="cls-4" d="M42.52,84.93c-3-2.65-3.29-7.67-3.29-7.67a19.53,19.53,0,0,0-2,1.17c-1.29,3.87-1.79,11-2,17.57h7.19C42.5,91.43,42.54,87.25,42.52,84.93Z"/><path class="cls-8" d="M39,75.28c-.67-.13-1,2.13-1,3,.1,4.28,4.6,7.53,4.6,7.53a27,27,0,0,0,.42-5C39.94,78.65,42.29,75.94,39,75.28Z"/><path class="cls-9" d="M72.4,45.5a6.06,6.06,0,0,0-.72-1.09c3.21-.48,2-2.92.82-4.78,1.12-.72,1.91-.83,1.82-2.31-.15-2.16-3.36-3.39-4.5-5.14-1.37-2.09-2-4.57-3.46-6.63-3.18-4.53-5.8-6.41-11.3-8-10.64-3.15-25.2-2.56-31,8.11a19.38,19.38,0,0,1-2.53,4C20.49,30.8,19,31.26,18,32.35c-2,2-1.6,5,1.55,5.27-2.58.91-2.89,4.38.23,4.86-3.18,1.14-1.82,4,.94,4.55-1,2.83-.35,3.95,1.85,5.69A28.94,28.94,0,0,1,26,56.42c3.05,3.42,5.24,7.5,8.21,10.91s6.15-2.37,8.55-3.74a17,17,0,0,1,10.73-2.27c3.25.48,5.53,3.88,8.83,3.95,2,0,3.29-1.66,4.12-3.26.93-1.81.64-3.23,1-5s2-2.15,3-3.32c.44-.51,1.74-3.84,0-3.82C73.37,49.84,73.36,47.39,72.4,45.5Z"/><path class="cls-10" d="M25.52,55c1.64,12,10.89,25.17,24.83,24.18,14.22-1,21.3-18.66,19.46-33.41-2-16-9.59-29.42-26.22-26.18C31.71,21.86,23.34,38.93,25.52,55Z"/><path class="cls-11" d="M41.24,31a3.81,3.81,0,0,1-2.56-1c-.28,1.71-2.25,2.31-3.79,2.26a3.68,3.68,0,0,1-3.7,4.09c-.28,1.2-.56,2.39-.84,3.6C29.89,42,28.93,44,28.79,46.1a27.21,27.21,0,0,1-3.2-9.91c-.5-3.13-1-7,0-10,.83-2.46,3.56-3.84,5.78-4.84,4-1.83,8.75-1.59,13.09-1.51a53.3,53.3,0,0,1,14.4,2.26c2.4.72,7.64,1.76,9,4.21,1.56,2.92-3.84,5-5.67,3.16C60.4,31.1,57,30,55.8,28.18c-1.68,2-4,1.19-5.87,0-1.06,2.37-3.77.57-5.35,1.2-1.16.46-1.41,1.57-3.14,1.55Z"/><path class="cls-10" d="M22.65,60.11a11.47,11.47,0,0,0,4.71.51l.1-.14c.69-1.11-.28-7.31-.64-8.48-.9-3-2.64-4.49-5.44-3.72C15.55,49.89,17.89,58.4,22.65,60.11Z"/><path class="cls-12" d="M24.91,58c2.12-1.34.12-5.86-1.49-6.59-1.3-.61-4.58.48-3,3,.81-2.37,2.26-.82,2,.87-.15,1.14-1.36,1.15-.16,2.6C22.92,58.72,24.24,58.43,24.91,58Z"/><path class="cls-9" d="M65.55,30.55a1.5,1.5,0,0,0,.83-.4,6,6,0,0,0,1.39-4.59,17.12,17.12,0,0,0-2.86-6.72c-2.18-3-8.3-3.5-11.64-4.14a40.33,40.33,0,0,0-12.21-.37c-6.73.8-14.85,4-17,11.12-1.31,4.38-.62,9.45-.29,13.92.2,2.71-.89,7.94,1.43,10,2.69,2.38,3.76-1.2,4-3.78.38-3.8.82-7.46,1.34-11.2,2.43.22,3.54-1.84,3.43-4,1.93.48,4.34.1,5-2a4.79,4.79,0,0,0,3.18.78c1.12-.2,1.52-1.51,2.14-1.68.88-.26,2.28.9,3.35.69s1.72-1.05,2.34-2.05c1.62,2.55,5.32,2,7.23.18a3.83,3.83,0,0,0,5.84,1.87C62.42,28.61,64,30.75,65.55,30.55Z"/><path class="cls-13" d="M28.79,31.32a5.22,5.22,0,0,0,.89,3c1.75,2.8,7.47,3,10.4,3.81,6.47,1.8,21.84,3.31,27.78-.16,6.59-3.84-6-10.7-16.19-11.39-5.33-.35-10.67-1.29-16-.94C32.54,25.8,28.88,28.1,28.79,31.32Z"/><path class="cls-14" d="M74.76,33.15c-10.62,6.56-44.48,3.11-54.15-2.34-2.61-1.48-2.25-6.16-.86-7.37C33.72,11.29,85.73,26.36,74.76,33.15Z"/><path class="cls-15" d="M23.31,21.47A5.38,5.38,0,0,0,21,27.1c1.47,4.59,17.47,10.54,46.79,7.47-28.26.32-46.86-4.52-42.27-14Z"/><path class="cls-16" d="M23.87,21c-1.27.55-3.56,3.58-2.35,5.64,1.63,2.77,14.49,8.1,36.84,7.85-22-2.21-36.9-4.9-32.31-14.41Z"/><path class="cls-16" d="M24.83,27.17c4.25,4.12,37.66,7.17,43.32-.27C67,19.25,63.9,9.48,62.17,8.33c-5.55-3.67-33.29-2.2-35.64,2.49C25.31,13.24,22.93,25.33,24.83,27.17Z"/><path class="cls-17" d="M48,31.14a92.05,92.05,0,0,1-24.63-3.81l-.81-.22L24,21.67l.83.23c4.83,1.32,14.88,4.07,26,3.53,9-.43,13.79-2.55,15.59-3.35.41-.17.7-.3.89-.36l1.82,5.34-.91-2.67.93,2.66-.45.2c-2.07.91-7.57,3.34-17.6,3.82C50.09,31.12,49,31.14,48,31.14Z"/><path class="cls-18" d="M47.94,30.09a92.1,92.1,0,0,1-24.61-3.8l-.82-.22L24,20.62l.84.23c4.83,1.32,14.89,4.07,26,3.54,9-.43,13.77-2.55,15.59-3.35.41-.18.71-.3.9-.37L69.15,26l-.45.2c-2.08.91-7.58,3.33-17.59,3.81C50.05,30.07,49,30.09,47.94,30.09Z"/><path class="cls-19" d="M60,8.83s0,0,0,.06c-.1.83-3,.71-3.51.69-3.35-.12-6.72-.38-10.08-.41a141.6,141.6,0,0,0-14.54,1.1,12,12,0,0,1-3.38.2C29.61,9.54,31.5,9.24,32.92,9c2.18-.41,4.37-.75,6.54-1.18a43.64,43.64,0,0,1,14.82-.26C54.9,7.64,60,7.68,60,8.83Z"/><path class="cls-20" d="M39.1,29.89a97.16,97.16,0,0,1-10-1.77L30.53,22a87.1,87.1,0,0,0,9.32,1.66Z"/><path class="cls-21" d="M60.92,20.53c-.51-2.26-.61-4.44-1.81-6.48-1-1.74-3-1.88-4.92-2.12-6.1-.77-12.56-1.06-18.56.29a11.37,11.37,0,0,0-5.47,2.34c-.51.47-3.51,4.13-2.52,4.54,4.91,2,10.59,2.55,15.81,3.26A37.53,37.53,0,0,0,60.92,20.53Z"/><path class="cls-13" d="M51.62,60.27c-3.41.15-7.9.73-11.65.37-1.75-.16-2.89,1.51-2.12,2.63,5.06,7.3,8.44,8,12.88,8.2,6.4.33,8.92-3.08,9.9-6.48a11,11,0,0,1,1.9-2.92c1.08-1.33-.06-2.46-1.72-2.29C58.2,60,55.3,60.1,51.62,60.27Z"/><path class="cls-22" d="M51.66,60.21c-3.52.14-8.16.66-12,.33-3.09-.27-4.15-.11-2.18,2.41,5.25,6.71,8.74,7.32,13.32,7.54,6.62.32,9.23-2.8,10.24-5.93a9.71,9.71,0,0,1,2-2.67c1.76-1.92,1.28-2.37-1.78-2.11C58.47,60,55.47,60.07,51.66,60.21Z"/><path class="cls-23" d="M37.32,61a70.49,70.49,0,0,0,25.77-.19,8.91,8.91,0,0,0-2.49,2.92c-1,2.09-4.7,3.55-10.28,3.49A16.66,16.66,0,0,1,37.32,61Z"/><path class="cls-24" d="M40.55,61.48s.27,1.86,3.36,2.56a36.33,36.33,0,0,0,12.66.37A6.38,6.38,0,0,0,61,61.11,75.86,75.86,0,0,1,40.55,61.48Z"/><path class="cls-24" d="M42,64.15c-.31-.48-.18-1.26,1.24-.54,2,1,5.3,1.2,9.28,1.07,3.69-.13,5.56-1,6.28-.47s-2.56,3.57-8.91,3C43.29,66.69,42,64.15,42,64.15Z"/><path class="cls-25" d="M41.34,62.78s14.89-1.07,18.45,0A6,6,0,0,0,61,61.11a87.73,87.73,0,0,1-20.46.37A2.72,2.72,0,0,0,41.34,62.78Z"/><path class="cls-25" d="M44.44,64a26.41,26.41,0,0,0,11.74.34S49.78,66.49,44.44,64Z"/><path class="cls-26" d="M67.88,52.55a2.79,2.79,0,0,1,.38.88c.82,3.26-6.42,2.32-7.28.92-1.59-2.64.83-3.35,2.66-3.36C65,51,67,51.22,67.88,52.55Z"/><path class="cls-26" d="M40.1,52.48a3,3,0,0,1,.56.82C42.09,56.43,34.93,57,33,55.62c-2.74-1.88.54-3.71,2.44-4C36.85,51.37,38.93,51.29,40.1,52.48Z"/><path class="cls-9" d="M39,45c-4.25-1.15-6.92,3.59-4,5.14a9.42,9.42,0,0,1,4.2.23C42,49.42,42.16,45.84,39,45Z"/><path class="cls-27" d="M55.57,54.41c-.85-.78-2.6.08-4.25.1-1.49,0-2.8-.66-4.19,0s.21,2.6,4.15,2.51S56.31,55.08,55.57,54.41Z"/><path class="cls-26" d="M51.23,46c-3.36-.29-6,6.23-4.58,8.36,1,1.5,8.41,1.45,9.57-.3C56.64,53.4,54.44,46.26,51.23,46Z"/><path class="cls-28" d="M37.49,45.81c-1.73.37-.41,2.48,1.27,1.71C40,47,39,45.49,37.49,45.81Z"/><path class="cls-9" d="M61.86,37c-2.56.1-4.56,1.15-3.36,2.74.73,1,2.86.37,5.26.58s3.46,1.86,4.47.08S65,36.85,61.86,37Z"/><path class="cls-9" d="M38.65,37.39c2.83,0,4.94,1.06,3.42,2.76-.9,1-3.21.47-5.9.77-2.53.27-4.05,2-5,.21S35.23,37.35,38.65,37.39Z"/><path class="cls-9" d="M65.14,44.4c-4.37-.58-6.38,4.48-3.3,5.62a9.54,9.54,0,0,1,4.2-.33C68.74,48.39,68.39,44.83,65.14,44.4Z"/><path class="cls-28" d="M63.75,45.42c-1.66.59-.08,2.51,1.49,1.52C66.36,46.23,65.23,44.89,63.75,45.42Z"/></g></g></g></svg>