<svg xmlns="http://www.w3.org/2000/svg" xmlns:xlink="http://www.w3.org/1999/xlink" viewBox="0 0 66 66"><defs><style>.cls-1{fill:none;}.cls-2{clip-path:url(#clip-path);}.cls-3{fill:#b6a8a9;}.cls-4{fill:#ffae6d;}.cls-5{fill:#ff392b;}.cls-6{fill:#ff6c52;}.cls-7{fill:#f58c5b;}.cls-8{fill:#301e18;}.cls-9{fill:#fff9f0;}.cls-10{fill:#bf3c1b;}.cls-10,.cls-21{opacity:0.3;}.cls-11{fill:#b54319;opacity:0.4;}.cls-12{fill:#472c23;}.cls-13{fill:#ff8f57;}.cls-14{fill:#1f1a17;}.cls-15{fill:#a89191;}.cls-16{fill:#de6049;}.cls-17{fill:#588a17;}.cls-18{fill:#85b428;}.cls-19{fill:#daef3f;}.cls-20{fill:#82c126;}.cls-21{fill:#004022;}.cls-22{fill:#579418;}.cls-23{fill:#bbe351;}.cls-24{fill:#8cce29;}</style><clipPath id="clip-path" transform="translate(0.01 0)"><circle class="cls-1" cx="33" cy="33" r="33"/></clipPath></defs><g id="Layer_2" data-name="Layer 2"><g id="avatars"><g class="cls-2"><rect class="cls-3" width="66" height="66"/><path class="cls-4" d="M40,54.57l.9,4.3c.33,1.09.35,4.34,1.3,7.13h3.45C44,63.12,44.74,56.35,40,54.57Z" transform="translate(0.01 0)"/><path class="cls-4" d="M30.18,54.57c-4.71,1.78-4,8.55-5.65,11.43H28c.94-2.79,1-6,1.3-7.13Z" transform="translate(0.01 0)"/><path class="cls-4" d="M41.38,64.33c.35-1.26-2.94-2-6.21-2.13-3.28.1-6.57.87-6.21,2.13A15.91,15.91,0,0,0,29.54,66H40.8C41,65.52,41.19,65,41.38,64.33Z" transform="translate(0.01 0)"/><path class="cls-4" d="M39.05,54.1c-2.39-.83-.9-4.3-4.17-4.3s-1.5,3.27-4,4.38-3.3,5.84-2.32,8c1.75,3.76,10,4.3,12.94.72C43.17,60.76,43,55.48,39.05,54.1Z" transform="translate(0.01 0)"/><path class="cls-5" d="M40,54.37a.83.83,0,0,0-.53-.2c.73,4.38.39,6.31-4.49,6.31S29.92,58.6,31,54a2.28,2.28,0,0,0-.64.32c-1,4.12-2.16,3.83-2.45,6.06a4.54,4.54,0,0,0,1,3.67c1.26,1.48,11.48,1.32,12.47,0a4.49,4.49,0,0,0,1-3.4C42.2,58.86,40.63,59.05,40,54.37Z" transform="translate(0.01 0)"/><path class="cls-6" d="M39.4,60.28c-1.1-.14-2.07.51-3.79.59-2.81.13-3.82-.72-4.83-.7-1.34,0-2.62,1.42-1.25,2.39,2.28,1.59,9.82,1.19,11.16,0C41.56,61.8,41.05,60.5,39.4,60.28Z" transform="translate(0.01 0)"/><path class="cls-7" d="M32.3,52.5c-.42,2.25,6.08,2.35,5.77.36S32.73,50.25,32.3,52.5Z" transform="translate(0.01 0)"/><path class="cls-8" d="M53,29a2.16,2.16,0,0,0,.27-.25c1.43-1.41.11-2.69-.55-4.11-.78-1.68-.7-4.17-1.18-6-.37-1.43-1.64-3.15-1.31-4.64s1.57-2.33,1.5-3.9c-.1-2.26-3.61-3.54-5.68-2.07,2.12-3.51-2.86-5.35-4.95-2.59.46-4.94-6.32-4.83-7-1C33.46.24,26.82.7,26.71,4.91c-3.2-3.59-9.33.31-7.72,3.9-3.65-1.41-7,2.73-3.32,5.9-5.42-.71-4.26,6.17-.53,5.36-.52,1-.51.59-.46,1.67s.8,4.38.51,5.53c-.25,1-1.25,2.68-.19,3.63C13.06,30,9.19,33,12.05,36.15c-2.71-.29-4.17,4.33-1,5.46-3.26,1.55-.71,6.49,2.42,5.35-.2,1.5-.64,3,.69,4.19a3.37,3.37,0,0,0,4.16.18c.07,2.07,4.51,2.55,5.19.81.64,1.87,4.46,2.57,5.54.77.52,0,.87.34,1.38.35a3.61,3.61,0,0,0,2.87-1.79c.43-.84.34-1.89,1-2.54,1.15-1.2,2.76-.66,4.14-1.13a3.52,3.52,0,0,0,2.29-3c.45-2.12,1.33-5.62,4.09-5.9,1.79-.18,2.52,1.82,4.16,2.06s3.55-1,3.36-2.51c1.82-.54,1.76-3.07,1.09-4.46C55.29,33,54.75,30.3,53,29Z" transform="translate(0.01 0)"/><path class="cls-9" d="M50.41,36.76A1.27,1.27,0,1,0,51.76,38,1.27,1.27,0,0,0,50.41,36.76Z" transform="translate(0.01 0)"/><path class="cls-4" d="M35.78,16.52c-8,.41-15.58,6.31-15.38,17.34s8.28,18.93,16.25,19.47c6.12.42,14.6-10,14.05-21S43.76,16.11,35.78,16.52Z" transform="translate(0.01 0)"/><path class="cls-4" d="M17.81,29.35c-3.45,1-2.38,6.28.33,7.33a6.29,6.29,0,0,0,2.72.31l.06-.09c.45-.69-.09-4.2-.25-4.92C20.25,30.15,19.46,28.86,17.81,29.35Z" transform="translate(0.01 0)"/><path class="cls-10" d="M50,18.27c-1.2-1.15-3.33-1.31-4.88-1.59a40.1,40.1,0,0,0-13-.33c-2.94.44-6.08,1.4-7.95,3.87s-4.43,4.7-4.11,7.93c.08.83.34,2.46,1,3,1.74,1.35,1.83-1.53,2-1.53a3.08,3.08,0,0,0,2.42-1.57c1.47,1.42,4.67.41,5.83-1a3.66,3.66,0,0,0,2.78,1.53c1.58.23.72-.16,1.76.89,1.32,1.34,3.77,2,5.06.17.56-.81-.38-2.14.49-2.56s1.48.71,2,1.07a2.58,2.58,0,0,0,3.09,0c1.16.56,4.83.5,2.68-3.8C48.55,23,51.28,19.51,50,18.27Z" transform="translate(0.01 0)"/><path class="cls-11" d="M19.54,31.33c-.86-.52-3.23-.2-2.41,1.57.79-1.4,1.65-.26,1.33.77-.21.69-1.05.56-.35,1.61a1.65,1.65,0,0,0,1.82.34C21.53,35,20.57,32,19.54,31.33Z" transform="translate(0.01 0)"/><path class="cls-8" d="M39.9,11.13a44.2,44.2,0,0,0-4.9-1,18.89,18.89,0,0,0-8.27,1.68c-3.88,1.65-6.61,5.84-8,9.65a15,15,0,0,0-1,7.11c.3,2.2,2.93,2.81,3.13,4.6.12,1-.84,2-1.78,1.28-1.2,2.8,5.86,3.26,4.66-.94-.08-.3-1.47-4.27-1.73-4.23,1.63-.24,2.23-1.29,2.64-2.74,2.67,2.45,4.84.62,6.41-1.91.44,1.59,3,3.19,4.51,2,.33,2,1.55,3.3,3.62,3.26a3.39,3.39,0,0,0,2.13-.66,7,7,0,0,0,.7-1.8c-.62.47-2.13,0-1.56-.92.4-.64,2.46-.54,3.2-.91,1,1.66,1.91,2.56,3.62,1.16a1.25,1.25,0,0,0,2,.55c2.44-1.49,1.6-6.37,1-8.59C48.9,14,44.62,11.91,39.9,11.13Z" transform="translate(0.01 0)"/><path class="cls-12" d="M46,20.27c-.92-.39-1.4.16-2.36.35a8,8,0,0,1-2.67,0,11.12,11.12,0,0,1-2-.71,3.16,3.16,0,0,0-2.32,0,44.29,44.29,0,0,0-5.15,1.57c-1.49.6-4,1.73-4.59,3.38-.4,1.18.58,1.41,1.47.85s1.2-1.64,2-2.27c2,1.67,3.78,2.13,5.93.35.13,1.17.82,3.13,2.34,2.88-.5-1.65,2.48-2.85,3.72-3s1.15,1,2.32,1.54a2.08,2.08,0,0,0,2.57-.63,2.48,2.48,0,0,0,.56-2.77A3.35,3.35,0,0,0,46,20.27Z" transform="translate(0.01 0)"/><path class="cls-8" d="M28.6,29c-1.93.27-3.83,1.28-3.74,1.87.05.39,1.44-.85,4.11-.92,2.13,0,3.93.91,4,0S30.72,28.65,28.6,29Z" transform="translate(0.01 0)"/><path class="cls-8" d="M47.11,28.69c-1.76-.11-3.6.58-3.52,1.36s1.51-.25,3.27-.37c2.2-.16,3.41.95,3.44.56C50.33,29.64,48.72,28.8,47.11,28.69Z" transform="translate(0.01 0)"/><path class="cls-13" d="M46.93,36c-1.35-.19-3.23.07-2.42,2.24.44,1.16,5.64,2.67,5.49.12a1.94,1.94,0,0,0-.16-.7C49.36,36.56,48,36.16,46.93,36Z" transform="translate(0.01 0)"/><path class="cls-13" d="M29.88,36.33c-1.05-.83-2.65-.52-3.76-.17-1.43.47-3.18,1.64-1.24,3.32,1,.9,7-.19,5.53-2.56A2.17,2.17,0,0,0,29.88,36.33Z" transform="translate(0.01 0)"/><path class="cls-14" d="M30,31.67C28.1,30.56,26.4,34,27.61,35.28a2.82,2.82,0,0,1,2,.42C31,35.17,31.39,32.5,30,31.67Z" transform="translate(0.01 0)"/><path class="cls-11" d="M38.63,38.15c-.83,0-1.19-.29-1.75,0s.3,1.38,1.77,1.34,2.1-1.06,1.76-1.36S39.56,38.15,38.63,38.15Z" transform="translate(0.01 0)"/><path class="cls-14" d="M48,31.46c-2.09-1.29-4.06,3.26-1.71,4A2.76,2.76,0,0,1,48.17,35C49,34.06,49.13,32.15,48,31.46Z" transform="translate(0.01 0)"/><path class="cls-15" d="M29.89,33c-.85.17-.43,1.83.43,1.35C30.94,34,30.64,32.8,29.89,33Z" transform="translate(0.01 0)"/><path class="cls-15" d="M47.72,32.51c-.84,0-.71,1.72.21,1.39C48.59,33.67,48.48,32.48,47.72,32.51Z" transform="translate(0.01 0)"/><path class="cls-14" d="M23.85,32.14a3.75,3.75,0,0,0,4.71.7l-.2-1.09A3.82,3.82,0,0,1,23.85,32.14Z" transform="translate(0.01 0)"/><path class="cls-14" d="M48.21,31.61l-.35,1a3.77,3.77,0,0,0,4.77-.07A3.81,3.81,0,0,1,48.21,31.61Z" transform="translate(0.01 0)"/><path class="cls-13" d="M38.67,38.74c1.34,0,2.86-.32,1.72-2C38.4,33.89,34.08,38.79,38.67,38.74Z" transform="translate(0.01 0)"/><path class="cls-16" d="M29,41.2c.9,1.94,3.18,1,2.26-.94A1.65,1.65,0,0,1,29,41.2Z" transform="translate(0.01 0)"/><path class="cls-16" d="M44.05,40.17c-.54,2,1.91,2.79,2.43.8A1.81,1.81,0,0,1,44.05,40.17Z" transform="translate(0.01 0)"/><path class="cls-16" d="M45.09,41.24a.51.51,0,0,0-.68.29,6.86,6.86,0,0,1-6.83,4.41,7,7,0,0,1-6.37-4.14.58.58,0,0,0-.71-.33.48.48,0,0,0-.29.66A8.09,8.09,0,0,0,37.34,47h.28a7.83,7.83,0,0,0,7.82-5.06A.55.55,0,0,0,45.09,41.24Z" transform="translate(0.01 0)"/><path class="cls-12" d="M15.31,34.85c-.5-1.16-.2-4.43-2.43-3.18C11,32.74,12,35.51,13,36.5c-3.34.7-3.69,3.29-.55,4.86-2.31.72-3.24,4,.1,4-.48-2.25,3.2-4.86,5.38-3.56,0-1.33.39-3.36,1.43-4.25C17.62,38.21,15.88,36.21,15.31,34.85Z" transform="translate(0.01 0)"/><path class="cls-17" d="M31.22,13C18,12.53,13.93,19.24,14,21c0,1.63.53,5.17.6,11,0,1.16.79,1.38,1.29.49A29,29,0,0,1,28,21.47c6.25-3.17,15.37-4.28,15.84-6.73S36,13.18,31.22,13Z" transform="translate(0.01 0)"/><path class="cls-18" d="M31.12,13.33a22,22,0,0,0-8.35,1.31,6.71,6.71,0,0,0-4,8c1.41,4.25,7.19-1.17,9.63-2.29,3-1.39,6.4-1.53,9.48-2.85l1.22-1.15a2,2,0,0,0,.37-.55C40.7,13.18,32.41,13.35,31.12,13.33Z" transform="translate(0.01 0)"/><path class="cls-19" d="M29.33,16a1.73,1.73,0,0,1,.79,1.09c.21.8,1.27.13.79-.64S29.33,16,29.33,16Z" transform="translate(0.01 0)"/><path class="cls-19" d="M32.15,15.89a7.23,7.23,0,0,0-8.65-.08c.92-.42,4.5-.43,5.08,2.3S35.64,18.48,32.15,15.89Zm.56,1.42c-.17.39-1.15-.43-1.09.29,0,.16.6.48.36.71s-.39-.27-.52-.34c-.83-.43-.44.54-.55,1-.7.05-.23-.71-.66-.91s-.5.59-.9.5c-.76-.17.42-.9.13-1.14a.55.55,0,0,0-.24-.06c-.18,0-.89.37-.66-.24.07-.19.81-.3.43-.62s-.67.34-1,0,.32-.3.13-.57-1.61.5-.81-.48c-.48-.3-.87.54-1.3.09.06,0,.11-.15.15-.19-.13,0-.27-.1-.39-.13a.45.45,0,0,1,.49-.29c.18,0,.32.31.45.29s0-.24.15-.31c.59-.39.19,0,.61.25.05-.3.16-.62.46-.43.1.06-.08.34.09.43s.22-.11.31-.17-.05-.32.25-.31.12.15.19.25-.19.35.11.38.14-.19.23-.25c.25-.17.33-.5.6-.07.16.27-.21.7.35.46.19-.08.26-.71.56-.11.13.25-.33.61.28.59.19,0,.25-.36.47-.32.42.08.13.7.1.91.15-.05.46-.28.62-.19,0,.1-.11.2-.12.31-.06.37-.39.25,0,.41C32.16,17.1,32.91,16.85,32.71,17.31Z" transform="translate(0.01 0)"/><path class="cls-17" d="M52.5,15.79c-.74-1.31-6.86-2.36-10.93-2.34s-7.73,3.19-1.77,3.7A20.14,20.14,0,0,1,52.16,23.4c.68.87,1.41.07,1.23-.63C53,21.12,53.24,17.1,52.5,15.79Z" transform="translate(0.01 0)"/><path class="cls-20" d="M52.47,21.33c0-.55-.6-.25-.84-.31s-.91-.53-.5-.84c.25-.19.83.34.9-.18.1-.71-1.77,0-1.28-.79.16-.24.74.1.78-.32s-.57-.12-.75-.13c-.34,0-1-.41-.62-.77s.69.34,1,.18-.56-.5-.65-.64c-.34-.59.26-.37.52-.28s.73.59.6,0c-.06-.29-.72-.32-.56-.71s.61.35.88.29c.46-.12-.29-.55-.31-.73,0-.44.41-.32.72-.32-.79-1.11-2.72,1.46-3.17,1.91A12.93,12.93,0,0,0,50.35,20c.44.57.33,1.26.67,1.82a1.68,1.68,0,0,0,.24.29,8.76,8.76,0,0,0,1.2.77c-.24-.16-1.21-1-.93-1.31S52.44,21.85,52.47,21.33Z" transform="translate(0.01 0)"/><path class="cls-21" d="M45.5,14.58c-1.8,0-3.09,1-1.81,2.7l1.19.39c1.34.5,3.42,2.59,4.79,2.51s-.77-1.14-.75-1.76c0-1.21,2.81-.61,3.08-2C52.38,14.55,46.6,14.56,45.5,14.58Z" transform="translate(0.01 0)"/><path class="cls-21" d="M32.83,13.76a28.8,28.8,0,0,0-5.09.39c-.53.09-4,.42-2.62,1.4a5.62,5.62,0,0,0,2.23.35c.2,0,3,.3,2.81.56-.4.72-2,1.34-.83,1.94.81.44,2.37-.08,3.18-.26a30.89,30.89,0,0,1,4.06-.64,13.5,13.5,0,0,0,1.62-.11A1.4,1.4,0,0,0,39,17C41.19,14.43,34,13.76,32.83,13.76Z" transform="translate(0.01 0)"/><path class="cls-18" d="M35.2,7.26c-3-.86-6.08.66-9.12.54,2.66,6.53,6.61,9.76,13.19,7.41.94-.34,1.85-.69,2.83-.94l-1.59-2.1C38.42,10.11,38.34,8.15,35.2,7.26Z" transform="translate(0.01 0)"/><path class="cls-22" d="M34.11,9.66c.66.82,2.07,1.78,2.25,2.83-.68.18-2.14-.76-2.84-1-1-.31-2-.67-2.93-1.07a7.53,7.53,0,0,0,8.07,4.9c.54-.09,1.34-.24,1.63-.73l-1.6-1.44C38.31,11.3,36,9.75,34.11,9.66Z" transform="translate(0.01 0)"/><path class="cls-18" d="M47.69,8.84a11,11,0,0,0-6.42,6.32c2.62.48,4.63,3.1,7.25,2.28,3.1-1,5.55-4.52,6.47-8C53.28,9.52,49.36,8.21,47.69,8.84Z" transform="translate(0.01 0)"/><path class="cls-22" d="M43.91,13.92c-1,3.25,4.22,2.09,5.58.84-.38-.21-.87-.13-1.29-.28.67-1.26,2.09-1.64,2.48-3.24-2,.44-3.36,2-5.27,2.5Z" transform="translate(0.01 0)"/><path class="cls-18" d="M44.05,11c-1.22-.29-4.14-1.21-5.06,0-.65.87-.83,4.08-.72,5.11.23,2.2,2.83,2.71,4.75,2.74,2.39,0,3.3-2.65,3.58-4.66C46.86,12.4,45.79,11.44,44.05,11Z" transform="translate(0.01 0)"/><path class="cls-23" d="M44.59,11.36l-1.12-.24c-1.17,0-2.39-.44-3.46.19s-.54,1.3-.93,2.24c.23-.34.32-.81.57-1.18.32,1.31,1,.57.66-.44a1.28,1.28,0,0,1,.28-.07c.08.34.12.69.22,1,.66,2.29.62-.58,1.12-.87,1-.55,0,2.41.33,2.68.9.7,1-2.26,1.14-2.63.9.45-.25,1.85.55,2.15s.47-1.53.76-1.9c.93.58,0,1.29.37,1.95s.62-1,.72-1.12c.75.44.22,1.57.2,2.29,0,0,.09,0,.09,0C46.85,14.18,46.18,11.71,44.59,11.36Z" transform="translate(0.01 0)"/><path class="cls-23" d="M34.81,7.42c-1.92-.37-3.76.22-5.68.46a7.31,7.31,0,0,0-2.39.4,7.36,7.36,0,0,0,1.5,2.51c.33-.73-.93-1.39-.89-1.53.21-.71.8-.13,1.28.05-.24-.27-.21-.52-.28-.84.47.16.76.48,1.24.47-.2-.45-.16-.69.27-.74s.55.62,1,.59c.15,0-.16-.65.31-.72s.25.76.84.56c.1,0,.17-.81.18-1,.68.28.15,1,1,1.1l0,0a1.11,1.11,0,0,1,.13-1c.47.25.25.85.43,1,.93.74.36-.22.63-.39s.16-.71.79-.07c.28.27-.56.9.34.93,0-.28.2-.61.22-.85.93.19.13.83.53,1.17s.52-.14.42-.52a18.13,18.13,0,0,1,1.85,2.1l-.36-.83C37.3,8.7,36.71,7.77,34.81,7.42Z" transform="translate(0.01 0)"/><path class="cls-23" d="M48.17,9.17c-1.44.08-2.1.91-3.2,1.79.26-.2,1-.17,1.32-.35.53-.26.86-.87,1.53-.9-.1.32-.09.6-.4.87.87.28,1.12-1.57,1.82-.94.2.19-.78.8,0,1,.47.15.82-.79,1.23-.8.56,0,.68.34.39.83.7.19,1.32-.73,2-.36.31.19-.84.64.12.84,0,0,.59-.55.79-.6s-.87,1.05-.86,1a4,4,0,0,0-.14,1.55c.63-1,1.61-2.08,1.64-3.32a10.81,10.81,0,0,0-1.88-.13A37.24,37.24,0,0,0,48.17,9.17Z" transform="translate(0.01 0)"/><path class="cls-22" d="M40,16.39a3,3,0,0,1-1.4-1.15c-.61,3.24,5,4.45,6.79,2.15a3.71,3.71,0,0,0,.72-1.68l-.29.45C45.24,18.39,41.46,17.1,40,16.39Z" transform="translate(0.01 0)"/><path class="cls-19" d="M19.29,15.87c.43-.1.06.71.06.74.19,1.61,1.07-.74,1.75,0-.25.34-.45,1.09.29,1s.37-1.28,1.28-.54a1,1,0,0,0-.29.55c.13,1.68.73-.19,1.22-.24.83-.08-.37,1.73.75,1.36.36-.12.11-.75.61-.7s.23.55.33.75c.57,1.12.48,0,1-.19,1-.36.71.87-.09,1.14-.23.08-.76-.13-.82.24s.44.15.6.25c.67.39.6.49-.15.68-.36.09-1.41.19-.71.74.16.12,1.44-.09.45.58-.2.13-.51-.08-.73,0s-.38.66-.49.89a3.78,3.78,0,0,0,2.39-2.34c.39-.74.82-1.55,1.2-2.25l-3.56-1.27C23.17,16.86,20.54,15.57,19.29,15.87Z" transform="translate(0.01 0)"/><path class="cls-19" d="M20.85,20.83c-1.12.33-.68,1.86.21,1.27a2.35,2.35,0,0,1,1.72-.39S22,20.5,20.85,20.83Z" transform="translate(0.01 0)"/><path class="cls-19" d="M40.74,15.22a2,2,0,0,1-1.28-1s-.53,1.24.37,1.83S41.71,15.5,40.74,15.22Z" transform="translate(0.01 0)"/><path class="cls-19" d="M44.63,15.17a1.66,1.66,0,0,1-.71,1.1s1.09.25,1.52-.51S44.8,14.39,44.63,15.17Z" transform="translate(0.01 0)"/><path class="cls-19" d="M31.37,9.38c-.87.19-.63,1.38.09,1a1.76,1.76,0,0,1,1.32-.2S32.25,9.19,31.37,9.38Z" transform="translate(0.01 0)"/><path class="cls-19" d="M50.58,13.64a1.33,1.33,0,0,1-.46.95s.9.1,1.16-.55S50.63,13,50.58,13.64Z" transform="translate(0.01 0)"/><path class="cls-24" d="M16.27,20.45A2.45,2.45,0,0,1,15.2,22s1.58.4,2.23-.71S16.53,19.31,16.27,20.45Z" transform="translate(0.01 0)"/><path class="cls-24" d="M16.93,25s-1,.9-.48,1.83,1.84.29,1.14-.39A2,2,0,0,1,16.93,25Z" transform="translate(0.01 0)"/><path class="cls-19" d="M32.05,14.08a2,2,0,0,0,1.58.12l-1.75-1.52S31.21,13.64,32.05,14.08Z" transform="translate(0.01 0)"/><path class="cls-19" d="M47.79,11.46a1.73,1.73,0,0,0-.6,1.33l1.9-1S48.44,10.86,47.79,11.46Z" transform="translate(0.01 0)"/><path class="cls-23" d="M15.59,18.67s.24,1,1.95-.56a22.61,22.61,0,0,1,9-4.48S19.07,14.15,15.59,18.67Z" transform="translate(0.01 0)"/><path class="cls-12" d="M40.9,6.51c-.27-4.64-5.18-5.93-6.67-1-.5-4.35-7.41-4.72-7.1.36-3.68-3.91-9.7.56-6.92,3.79-2.76-1.33-8.24,1.44-3.37,5.42-4-.92-6,3.79-2.74,4.35a11.36,11.36,0,0,1,9.47-6.79c1.72-.17,2.41-1.22,2.11-2.09a17.33,17.33,0,0,1-.42-3,23.15,23.15,0,0,1,8-1.59A7.91,7.91,0,0,1,40,9.86c4.17-.53,3.38,2.21,5.47-1.23S43.83,2.58,40.9,6.51Z" transform="translate(0.01 0)"/><path class="cls-9" d="M19.08,37.63a1.27,1.27,0,0,0,.16,2.54,1.27,1.27,0,0,0-.16-2.54Z" transform="translate(0.01 0)"/></g></g></g></svg>