<svg xmlns="http://www.w3.org/2000/svg" xmlns:xlink="http://www.w3.org/1999/xlink" viewBox="0 0 96 96"><defs><style>.cls-1{fill:none;}.cls-2{clip-path:url(#clip-path);}.cls-3{fill:#fea470;}.cls-4{fill:#1e1e29;}.cls-5{fill:#379bdb;}.cls-6{opacity:0.1;}.cls-7{fill:#313142;}.cls-8{fill:#43acf0;}.cls-9{fill:url(#linear-gradient);}.cls-10{fill:#54bcff;}.cls-11{fill:#261b18;}.cls-12{fill:#45362e;}.cls-13{fill:#9c552c;}.cls-14,.cls-15{fill:#66241b;}.cls-14{opacity:0.4;}.cls-15,.cls-17,.cls-27{opacity:0.7;}.cls-16{fill:#bf6c3c;}.cls-17{fill:#f0ded1;}.cls-18{fill:#d47b48;}.cls-19{fill:#78231f;}.cls-20{fill:#fff7ea;}.cls-21{fill:#ecdcc4;}.cls-22{fill:#161110;}.cls-23{fill:#b54d26;}.cls-23,.cls-25{opacity:0.3;}.cls-24{fill:#f06799;}.cls-25,.cls-26,.cls-27{fill:#fff;}.cls-28{fill:#ffd1e2;}</style><clipPath id="clip-path" transform="translate(0)"><circle class="cls-1" cx="48" cy="48" r="48"/></clipPath><linearGradient id="linear-gradient" x1="48.07" y1="76.64" x2="48.07" y2="83.5" gradientUnits="userSpaceOnUse"><stop offset="0" stop-color="#854326"/><stop offset="1" stop-color="#9c552c"/></linearGradient></defs><g id="Layer_2" data-name="Layer 2"><g id="Layer_4" data-name="Layer 4"><g class="cls-2"><rect class="cls-3" width="96" height="96"/><path class="cls-4" d="M38.33,79.05A27.35,27.35,0,0,0,34,80.59c-2.17,1.18-3.2,1.74-3.2,4.13A52.36,52.36,0,0,1,29.5,96H37c1.2-4.79,2-10.59,2-10.59Z" transform="translate(0)"/><path class="cls-4" d="M61.46,80.59a27.35,27.35,0,0,0-4.38-1.54l-.71,6.36s.81,5.8,2,10.59h7.53a52.36,52.36,0,0,1-1.25-11.28C64.66,82.33,63.63,81.77,61.46,80.59Z" transform="translate(0)"/><path class="cls-5" d="M56.86,78.38c-5.84-3.07-14.37-2-18.26.46-5.22,3.31-4.21,8.75-2.83,17.16H59.34C60.85,88,62,81.07,56.86,78.38Z" transform="translate(0)"/><path class="cls-6" d="M39.64,81.8a12.09,12.09,0,0,0,5,6.36l2.78-3.25,3.64,3.23C53.58,86.77,56,83.5,56,80.76,56.05,78.8,38.51,77.74,39.64,81.8Z" transform="translate(0)"/><path class="cls-4" d="M39.48,78.69s-6.09,1.57-6.58,2.87c-.4,1,1.12,8,2.21,14.44h6.13C41.33,90.55,41,83.84,39.48,78.69Z" transform="translate(0)"/><path class="cls-7" d="M40.67,81.75c-.32-.8-5.7,1.16-5.59,1.86.08.46,2.59,7.12,4.31,12.39h1.89C41.46,89.32,41.16,83,40.67,81.75Z" transform="translate(0)"/><path class="cls-7" d="M34.94,80.25c-.09.59,6,3.54,6,3s-.16-6.94-.16-6.94C38,77.79,35,79.67,34.94,80.25Z" transform="translate(0)"/><path class="cls-4" d="M62.51,81.56c-.5-1.3-6.58-2.87-6.58-2.87C54.4,83.84,54.08,90.55,54.17,96h6.12C61.38,89.56,62.9,82.6,62.51,81.56Z" transform="translate(0)"/><path class="cls-7" d="M54.73,81.75c-.48,1.21-.79,7.57-.6,14.25H56c1.72-5.27,4.23-11.93,4.31-12.39C60.43,82.91,55.06,81,54.73,81.75Z" transform="translate(0)"/><path class="cls-7" d="M54.68,76.26s-.14,6.35-.17,6.94,6.05-2.36,6-3S57.38,77.79,54.68,76.26Z" transform="translate(0)"/><path class="cls-8" d="M39.68,77c-3.1,4.46,4.74,10.11,4.74,10.11l3-2.57,3.46,2.69S58,83,55.51,77.43C53.25,72.39,42.81,72.48,39.68,77Z" transform="translate(0)"/><path class="cls-9" d="M45.6,71.65c-1.93.53-3.21,2.84-3.34,5.22-.16,3,3.27,7,5.66,7.12,1.8,0,9.44-5.57,4.07-11C50.45,71.39,47.44,71.13,45.6,71.65Z" transform="translate(0)"/><path class="cls-10" d="M47.8,88.55a.78.78,0,0,0-.8.75.8.8,0,1,0,.8-.75Z" transform="translate(0)"/><path class="cls-10" d="M47.8,92.77a.75.75,0,1,0,.79.74A.77.77,0,0,0,47.8,92.77Z" transform="translate(0)"/><path class="cls-11" d="M16,15.05a13.09,13.09,0,0,0-1.38,18.68c4.52,5.29,13,5.55,19,.6s7.17-13.25,2.65-18.53S22,10.1,16,15.05Z" transform="translate(0)"/><path class="cls-12" d="M17.2,16c-2.89,2.39-4.7,6.72-2.71,9.87,1.67,2.64,2.78-.33,3.2-2.17,1.46,2.67,2.7-.74,2.71-2.43,1.23,1.19,3.18-1.2,3.35-2.37,2.44-.54,4.3-3.13,6.5-4.11C27.72,11.25,20.17,13.56,17.2,16Z" transform="translate(0)"/><path class="cls-11" d="M62.72,15.79c-17.53-12-41-1.76-44.18,13.66A29.46,29.46,0,0,0,25.92,56c3.09,3.36,5.3,7.39,8.29,10.74S40.39,64.41,42.8,63a17.37,17.37,0,0,1,10.78-2.27c3.26.46,5.57,3.81,8.89,3.87,4.36.08,5.55-7.08,6.55-10.13.91-2.81,1.61-5.7,2.24-8.59C74.09,33,71.85,22,62.72,15.79Z" transform="translate(0)"/><path class="cls-13" d="M43.5,19.51c-11.93,2.33-20.29,19.23-18,35.06,1.83,12.87,12.86,23.78,25,23.8,11.59,0,21.35-18.51,19.45-33.08C67.89,29.44,60.21,16.25,43.5,19.51Z" transform="translate(0)"/><path class="cls-14" d="M58.89,22a54.6,54.6,0,0,0-14.48-2.19c-4.36-.06-9.1-.29-13.16,1.53-2.22,1-5,2.38-5.79,4.81-1,3-.51,6.82,0,9.91a26.72,26.72,0,0,0,3.26,9.79c.13-2.1,1.08-4.1,1.54-6.15,1.5-6.58,5.79-9,11-9.84,4.3-.72,9.2-.38,13.6-.52,2.36-.06,16,2.16,13.08-3.21C66.58,23.68,61.31,22.66,58.89,22Z" transform="translate(0)"/><path class="cls-13" d="M21.27,48c-5.85,1.6-3.12,10.63,1.67,12.3a5,5,0,0,0,4.39-.13l.09-.14c.7-1.1-.3-7.23-.67-8.38C25.84,48.74,24.08,47.21,21.27,48Z" transform="translate(0)"/><path class="cls-15" d="M23.34,51.08c-1.32-.6-4.6.49-3.05,3,.81-2.35,2.27-.82,2.05.85-.14,1.12-1.37,1.14-.15,2.58.66.77,2,.47,2.67.06C27,56.25,25,51.8,23.34,51.08Z" transform="translate(0)"/><path class="cls-11" d="M53.22,14.69a41.51,41.51,0,0,0-12.29-.32c-6.75.81-14.9,4-17,11-1.3,4.33-.6,9.35-.25,13.76.22,2.68-.86,7.86,1.47,9.87,2.72,2.34,3.78-1.2,4-3.75.28-2.86,0-6,.87-8.76,2-6.77,5.67-8.09,15.57-8.87,5.13-.4,17.82-1.41,20.27,3.08.91,1.67,8.35-3.27,1.6-10.6C64.54,17,57.37,15.47,53.22,14.69Z" transform="translate(0)"/><path class="cls-12" d="M63.06,18.18c-7-6.72-18.27-6.79-27.26-4.37a21.44,21.44,0,0,0-8.55,4.73A19.82,19.82,0,0,0,23,23.77a11.8,11.8,0,0,0-1.47,6.89c.15,1.61,1.56,5,4.07,4.08-.1-1.56-.36-3.23-.6-4.78.52.35,2.89,1.89,3.6,1.48s.28-2.63.39-3.31c2.87,3,4.29-1.52,4.07-3.87,1.21.68,2.06,2,3.33,2.57,1.8.84,3.71-.12,5.74-.49a66.35,66.35,0,0,1,8-1c2.75-.13,3.26.2,4.34-2.27A2.54,2.54,0,0,0,55.55,25a2.74,2.74,0,0,0,1.52-2.55c.06,2.78,6.32,4.37,8.46,3.72C68.83,25.11,65.1,20.14,63.06,18.18Z" transform="translate(0)"/><path class="cls-15" d="M29.92,49.54c.07,1,2.39.52,3.08.68-.61.62-2.41.62-3.15,1s-.71.75.23.73a17.86,17.86,0,0,0,4.11-1.07C35.9,49.5,30.71,49.33,29.92,49.54Z" transform="translate(0)"/><path class="cls-15" d="M69.19,50.49c-.55-.45-1.86-.51-2.33-1.15.5-.14,2.63.45,2.65-.55-.59-.23-4.78-.28-3.49,1.2a10.42,10.42,0,0,0,3,1.22C69.73,51.27,69.78,51,69.19,50.49Z" transform="translate(0)"/><path class="cls-16" d="M67.62,53.75c-1-1.23-3-1.29-4.39-1.15-1.82.17-4.19,1.09-2.34,3.54,1,1.31,8.32,1.57,7.2-1.56A2.9,2.9,0,0,0,67.62,53.75Z" transform="translate(0)"/><path class="cls-16" d="M39.21,54.35c-1.11-1.14-3.09-1.09-4.48-.89-1.81.26-4.94,1.95-2.33,3.76,1.88,1.3,8.7.87,7.34-2.09A2.29,2.29,0,0,0,39.21,54.35Z" transform="translate(0)"/><path class="cls-11" d="M38.08,46c-4.27-1.12-6.94,3.58-4,5.09a9.86,9.86,0,0,1,4.23.21C41.15,50.34,41.27,46.81,38.08,46Z" transform="translate(0)"/><path class="cls-15" d="M50.67,53.15c-1.07,0-2-.57-3-.07s.17,2.2,3,2.15,3.6-1.56,3.07-2.13S51.86,53.15,50.67,53.15Z" transform="translate(0)"/><path class="cls-16" d="M50.61,48.19c-2-.18-3.56,3.48-2.69,4.7.6.85,5,.86,5.72-.12C53.89,52.41,52.53,48.36,50.61,48.19Z" transform="translate(0)"/><path class="cls-17" d="M37.76,48.44c-1.29.37-.3,2.45,1,1.69C39.64,49.58,38.92,48.12,37.76,48.44Z" transform="translate(0)"/><path class="cls-11" d="M65.28,44.87c-4.39-.56-6.4,4.44-3.3,5.57a9.64,9.64,0,0,1,4.22-.35C68.91,48.8,68.54,45.28,65.28,44.87Z" transform="translate(0)"/><path class="cls-17" d="M65.16,47.44C64,48,65.2,49.9,66.32,49,67.13,48.32,66.24,47,65.16,47.44Z" transform="translate(0)"/><path class="cls-18" d="M63.44,59.89c-7.4-1.23-19,.45-25.73.64-.54,0-1,.17-.74.75C38,63.73,42,72.75,51.21,72.67c7.73-.06,8.46-5.37,8.85-8.17.2-1.37,2.3-3,3.93-4.06C64.52,60.12,64.12,60,63.44,59.89Z" transform="translate(0)"/><path class="cls-19" d="M38,61.43a12.28,12.28,0,0,0,12,7.1c8.15-.33,9.2-2.91,9.63-4.71a5.31,5.31,0,0,1,2.81-3.39C48.51,63.73,38,61.43,38,61.43Z" transform="translate(0)"/><path class="cls-20" d="M41,62.16a3.7,3.7,0,0,0,2.76,3.32,21.87,21.87,0,0,0,11.64.23c2.77-.65,4.49-4.36,4.49-4.36A97.34,97.34,0,0,1,41,62.16Z" transform="translate(0)"/><path class="cls-20" d="M52.15,65.78a30.6,30.6,0,0,1-9-.84c-1.49-.48-1.53.22-1.27.83,0,0,.39,2.5,7.42,2.84,6.15.3,8.95-2.92,8.28-3.57S56,65.68,52.15,65.78Z" transform="translate(0)"/><path class="cls-21" d="M40.94,62.13a3,3,0,0,0,.26,1.06s14.66-1.39,17.87-.47a5.74,5.74,0,0,0,.77-1.37A113.84,113.84,0,0,1,40.94,62.13Z" transform="translate(0)"/><path class="cls-21" d="M44,64.94c6,2.32,12.79,0,12.79,0A32.24,32.24,0,0,1,44,64.94Z" transform="translate(0)"/><path class="cls-22" d="M35.91,44.69c-2.3.52-5.21,2.91-9,.29,0,0,1.3,4.35,8.76,1.66,3-1.09,4.73,2.07,4.73,2.07S40.41,43.68,35.91,44.69Z" transform="translate(0)"/><path class="cls-22" d="M65,44.08c-4.21-1-4.45,3.84-4.45,3.84a3.93,3.93,0,0,1,4.72-1.81c6.75,2.46,8.22-1.63,8.22-1.63C69.85,47,67.2,44.62,65,44.08Z" transform="translate(0)"/><path class="cls-11" d="M57.91,40.7c4.2.19,6.24-.14,12.29-.25C67.5,37.36,60.09,37,57.91,40.7Z" transform="translate(0)"/><path class="cls-11" d="M28.67,40.45c6,.11,8.08.44,12.28.25C38.78,37,31.37,37.36,28.67,40.45Z" transform="translate(0)"/><path class="cls-23" d="M66.66,40.61a32.43,32.43,0,0,0-6.63,1c-1.85.48-4,.7-5.73,1.58s-2.24,1.35-4.14,1.27c-3.39-.16-6.24-2.29-9.63-2.65S33.4,41,29.92,42c-.91.25-3.65,1.28-1.8,2.26s4.49.67,6.47.75c.91,0,1.83.06,2.74.15,3.22.31,8.18-.12,7.91,3.92-.19,2.78-2,5.63-4.22,6.14a29.24,29.24,0,0,1-6.64.67,11.62,11.62,0,0,1-4.81-1.06c-.43-.2-1.71-1-2.14-.45-.71,1,1.91,2.66,2.59,3A15.79,15.79,0,0,0,35,58.45c4.21.46,8.54.25,10.93-3.63,1.38-2.25,2.08-4.89,3.36-7.2,2.1-3.78,3.07,1.36,3.72,3.61a11.85,11.85,0,0,0,1.67,3.56,8.48,8.48,0,0,0,6.26,3A9.42,9.42,0,0,0,65,57.28c.78-.32,1.1-1.23.17-1.58a7.1,7.1,0,0,0-2.06-.09,17.32,17.32,0,0,1-2.6-.22A7.62,7.62,0,0,1,57.37,54a6,6,0,0,1-1.61-1.76,5.63,5.63,0,0,1-.32-4.76c.78-2.14,3.12-2.31,5.07-2.47,2.35-.2,4.73-.15,7.08-.36a25.23,25.23,0,0,1,3.13.09c1.34,0,4.23-.37,2.65-2.33S68.83,40.5,66.66,40.61Z" transform="translate(0)"/><path class="cls-24" d="M26.57,40.47c-2.77.09-5.14-.69-5.8-.13-.85.72.64,3.22.64,3.22a4.89,4.89,0,0,0,2.18.74c.17,1.94.06,6.94,3.59,10.11,2.95,2.64,12.6,3.42,15.61,1.9,3.72-1.87,5.31-5.35,6-8.79C50.39,39.09,30.49,40.35,26.57,40.47ZM43,54c-3.67,2.38-13,1.24-15.49-1.79-1.87-2.34-2.2-7.23-1.05-7.92C30,42.21,43.19,43,46.24,45.39,47.72,46.53,45.78,52.24,43,54Z" transform="translate(0)"/><path class="cls-24" d="M72.1,39.78c-3.54,0-21.54-.67-19.84,7.7.7,3.41,2.23,6.85,5.64,8.61,2.76,1.42,11.45.36,14-2.36,3.1-3.27,2.86-8.28,3-10.22a4,4,0,0,0,1.94-.8s1.27-2.54.48-3.24C76.73,38.93,74.61,39.78,72.1,39.78Zm-.51,11.8c-2.11,3.1-10.55,4.51-13.93,2.25-2.57-1.72-4.48-7.37-3.17-8.55,2.69-2.44,14.59-3.67,17.83-1.65C73.38,44.29,73.22,49.18,71.59,51.58Z" transform="translate(0)"/><path class="cls-25" d="M56.82,44.52c-2,.85,1.59,1.89,2.36,2a26.53,26.53,0,0,0,8.49-.32c1.48-.28,4.68-1.64,3.75-2.46C70.14,42.6,59,43.59,56.82,44.52Z" transform="translate(0)"/><path class="cls-26" d="M65.56,44c-1.06.17-1.76.48-1.46,1,.57.95,6.82.41,7.24-.32S67.83,43.67,65.56,44Z" transform="translate(0)"/><path class="cls-27" d="M58.8,51.85c-.67,0-1.14.11-1,.53.23.83,4.11,1.37,4.46.87S60.23,51.91,58.8,51.85Z" transform="translate(0)"/><path class="cls-27" d="M29.66,51.55c-.7-.11-1.2,0-1.13.41.13.85,4.12,1.86,4.55,1.41S31.15,51.79,29.66,51.55Z" transform="translate(0)"/><path class="cls-25" d="M44.77,44.9C42.3,44,30,43.06,28.72,44.15c-.92.79,2.74,2.08,4.39,2.35a33.45,33.45,0,0,0,9.32.3C43.25,46.7,47,45.71,44.77,44.9Z" transform="translate(0)"/><path class="cls-26" d="M39.42,44.17c-1.13,0-1.9.26-1.66.77.49,1,7.09,1.26,7.62.59S41.84,44.1,39.42,44.17Z" transform="translate(0)"/><path class="cls-24" d="M54.6,42.43c-2.57,1.18-5.08,1.36-8.66.08-2.7-1,1.42,1.77,1.74,3.18s-.16,5.73.78,3.16,2.83-2.73,4-.37,1.12-3.94,1.61-4.52S57.18,41.25,54.6,42.43Z" transform="translate(0)"/><path class="cls-28" d="M27.87,41.3c7.5.39,13.49.62,18,2.38C42.93,41.24,37.85,40.69,27.87,41.3Z" transform="translate(0)"/><path class="cls-28" d="M71.47,40.43c-9.15.32-13.42.38-15.88,2.72C59.55,41.26,64.67,41.4,71.47,40.43Z" transform="translate(0)"/></g></g></g></svg>