<svg xmlns="http://www.w3.org/2000/svg" xmlns:xlink="http://www.w3.org/1999/xlink" viewBox="0 0 96 96"><defs><style>.cls-1{fill:none;}.cls-2{clip-path:url(#clip-path);}.cls-3{fill:#ffc36b;}.cls-4{fill:#e8e8e8;}.cls-5{fill:#ed671a;}.cls-6{opacity:0.1;}.cls-7{fill:#f5f5f5;}.cls-8{fill:#8e4a29;}.cls-9{fill:#261b18;}.cls-10{fill:#9c552c;}.cls-11,.cls-14{fill:#66241b;}.cls-11,.cls-12{opacity:0.4;}.cls-12{fill:#661004;}.cls-13{fill:#45362e;}.cls-14,.cls-16{opacity:0.7;}.cls-15{fill:#d17642;}.cls-16{fill:#f0ded1;}.cls-17{fill:#d47b48;}.cls-18{fill:#78231f;}.cls-19{fill:#fff7eb;}.cls-20{fill:#e8dac5;}</style><clipPath id="clip-path" transform="translate(0)"><circle class="cls-1" cx="48" cy="48" r="48"/></clipPath></defs><g id="Layer_2" data-name="Layer 2"><g id="Layer_4" data-name="Layer 4"><g class="cls-2"><rect class="cls-3" width="96" height="96"/><path class="cls-4" d="M62.36,78.45c-3.19-7.35-23.12-8.13-29-.21C30.55,81.93,31.48,89.58,33,96H62.4C63.56,90,64.27,82.84,62.36,78.45Z" transform="translate(0)"/><path class="cls-5" d="M49.9,86.12l1.39-2.93a3.64,3.64,0,0,0-4.19-1.87,3.82,3.82,0,0,0-3.18,2.93l2.29,2.34L43.73,95l.63,1h8.08l.62-1.37Z" transform="translate(0)"/><path class="cls-4" d="M34.47,85.13,35.62,76S24.68,81.21,25.23,96h6.49A25.1,25.1,0,0,1,34.47,85.13Z" transform="translate(0)"/><path class="cls-4" d="M60,76l1.15,9.11A25,25,0,0,1,63.87,96h6.5C70.92,81.21,60,76,60,76Z" transform="translate(0)"/><path class="cls-6" d="M37.36,78.62A14,14,0,0,0,43.47,87l4.33-4.55,4.61,4.3c4.41-4.29,5.37-5.16,5.71-8.89S36.15,73.43,37.36,78.62Z" transform="translate(0)"/><path class="cls-7" d="M37.48,74.67c-2.15,6,5.66,11,5.66,11l4.66-3.2,4.35,3s8.59-4.91,5.34-12C54.56,67.14,40,67.65,37.48,74.67Z" transform="translate(0)"/><path class="cls-8" d="M44.33,67.45a6.73,6.73,0,0,0-5,6.18c-.15,2.18.2,3.44,1.4,4.65a9.84,9.84,0,0,0,3.79,2.19c1,.32,2.9,1.57,3.23,1.57.13,0,.74-.53,1.73-1,1.45-.76,3.52-1.75,4.32-3.33,1.17-2.31,2.22-6.88,0-8.67S47.07,66.85,44.33,67.45Z" transform="translate(0)"/><path class="cls-9" d="M71.14,45.44c.42-7.37-.41-10.08-.06-13.06,2.11-18-5.93-24.07-26.53-22.34C21.1,12,17.79,23,20,42.92c.86,7.91,4.08,13.93,7.46,13.21C34,54.71,40.5,52.81,47,51.16c6.09-1.54,12.85-.4,19.09,0C71,51.46,70.92,49.4,71.14,45.44Z" transform="translate(0)"/><path class="cls-10" d="M28.15,55.62C29.78,67.24,38.8,80,52.31,79c13.78-1,20.57-18.17,18.74-32.46C69.05,31,61.63,18,45.53,21.23,34,23.52,26,40.1,28.15,55.62Z" transform="translate(0)"/><path class="cls-10" d="M25.38,60.63A11.13,11.13,0,0,0,30,61.1L30,61c.67-1.08-.56-6.57-.91-7.7-.88-2.85-2.31-4.86-5-4.1C18.46,50.75,20.76,59,25.38,60.63Z" transform="translate(0)"/><path class="cls-11" d="M69.83,39.87c-1.11-4.53-3.68-6.1-9.13-5.52-8.68.91-23,1.36-27,.26.13,4.46-3.46,7.06-4.93,11.31C28,48.26,27.92,37.44,28,36c.16-3.71.36-8.76,3.29-11.48,3.67-3.38,10.53-3.14,15.13-3.07a53.1,53.1,0,0,1,19.28,4C70,27.17,70.52,35.9,69.83,39.87Z" transform="translate(0)"/><path class="cls-12" d="M27.56,58.58c2.06-1.3.1-5.68-1.46-6.38-1.27-.58-4.44.48-2.93,3,.77-2.3,2.18-.8,2,.84-.14,1.09-1.32,1.11-.14,2.52C25.63,59.28,26.92,59,27.56,58.58Z" transform="translate(0)"/><path class="cls-9" d="M68.27,32.86c-14-1.59-29.72,1.52-35.68.61.34,3.67-1,5.59-1.91,8.32-1.64,4.9-.77,10.11,1.3,12a5.25,5.25,0,0,1-3.09,0,14.32,14.32,0,0,1-2.4-6.63c-.13-2.93-8.61-24.7,14.79-29.7C69.73,11.38,74.23,33.54,68.27,32.86Z" transform="translate(0)"/><path class="cls-13" d="M51.91,18.73C51.64,22.4,29.4,21.41,28,21.23c-4.91-.62-2.43-2.87,1.24-5.31,6-4,22.12-4.95,29.52-3.5,3.1.6,7.88,2.3,7.77,4.56-.11,2.51-4.83,2.2-7.59,1.09C59,20.62,54.35,21,51.91,18.73Z" transform="translate(0)"/><path class="cls-14" d="M40.27,50.89c1.55-1.33-3.19-1.45-3.92-1.24.08.93,2.19.46,2.83.6-.55.59-2.2.6-2.88,1s-.64.7.22.67A14.83,14.83,0,0,0,40.27,50.89Z" transform="translate(0)"/><path class="cls-14" d="M65.69,49.77c-1.19-1.32,2.8-1.42,3.39-1.22-.15.92-1.88.45-2.43.59.41.58,1.8.6,2.33,1s.48.7-.24.67A10.66,10.66,0,0,1,65.69,49.77Z" transform="translate(0)"/><path class="cls-9" d="M42.16,51.55a4.26,4.26,0,0,0-2.94-.24c-2-1.71-.18-7,2.79-5.71C44.22,46.54,44.15,50.52,42.16,51.55Z" transform="translate(0)"/><path class="cls-14" d="M57.31,54c.6.57-.57,2.65-3.19,2.81S50,54.81,51,54.24s1.64,0,3.13-.05C55.79,54.12,56.62,53.34,57.31,54Z" transform="translate(0)"/><path class="cls-15" d="M57.34,54.21c.39-.37-.58-2.06-1.35-3.75-.68-1.51-1.4-4.78-2.86-4.68-1.29.1-1.51,3.6-1.93,5.25s-.72,3.23,0,3.71C52.88,55.92,56.35,55.14,57.34,54.21Z" transform="translate(0)"/><path class="cls-9" d="M65.87,45.27c1.64.86,1.68,3.51.57,4.88a3.83,3.83,0,0,0-2.58.76C60.5,50.12,62.82,43.67,65.87,45.27Z" transform="translate(0)"/><path class="cls-16" d="M41.16,46.35c1.07-.36,1.74,1.28.89,1.9C40.88,49.1,40,46.77,41.16,46.35Z" transform="translate(0)"/><path class="cls-16" d="M65.11,46.1c1-.26,1.52,1.32.69,1.83C64.65,48.64,64,46.4,65.11,46.1Z" transform="translate(0)"/><path class="cls-9" d="M68.6,44.14c.73.32,1-.76.75-1.1A7.13,7.13,0,0,0,63.93,40c-2.2-.23-3.82-.6-3.84-.52-.12,1.25.15,3.86,1.83,3.85,1,0,2-.18,3-.1A10.75,10.75,0,0,1,68.6,44.14Z" transform="translate(0)"/><path class="cls-9" d="M37.08,44.94c-.74.41-1.23-.63-1-1a7.45,7.45,0,0,1,5.37-3.74c2.34-.51,4-1.08,4.07-1,.34,1.22.48,3.85-1.34,4-1.1.12-2.26.08-3.32.28A12.26,12.26,0,0,0,37.08,44.94Z" transform="translate(0)"/><path class="cls-15" d="M69.25,53.28a2.73,2.73,0,0,1,.5.79c1.27,3-6,3-7,1.76-1.95-2.33.34-3.31,2.13-3.54C66.22,52.12,68.17,52.11,69.25,53.28Z" transform="translate(0)"/><path class="cls-15" d="M42.67,53.81a2.88,2.88,0,0,1,.5.84c1.23,3.21-6.39,2.94-7.43,1.6-2-2.5.46-3.45,2.35-3.63C39.53,52.49,41.58,52.55,42.67,53.81Z" transform="translate(0)"/><path class="cls-17" d="M64.89,60.85c-.5-2.63-8.26-1.41-10.17-1.41a35.14,35.14,0,0,0-6.49.34,24.42,24.42,0,0,1-6.27.91c-.68,0-2.75-.47-3.2.17-.9,1.27,2.17,3.13,2.84,4a30.24,30.24,0,0,1,2.8,4.45c1.89,3.35,6.61,5.22,10.3,4.84a7.73,7.73,0,0,0,7.08-6.21,22.57,22.57,0,0,1,1.62-4.28c.37-.76,1.59-1.88,1.5-2.68C64.9,60.9,64.89,60.87,64.89,60.85Z" transform="translate(0)"/><path class="cls-18" d="M41.32,61.62s10.08,3,23.33-.55A5.5,5.5,0,0,0,62.07,65c-.36,2.1-1.29,5.1-9.06,5.28C44.39,70.46,41.32,61.62,41.32,61.62Z" transform="translate(0)"/><path class="cls-19" d="M44,62.19a3.86,3.86,0,0,0,2.87,3.24A23.57,23.57,0,0,0,58,65.78c2.6-.52,3.74-4,3.74-4A58.1,58.1,0,0,1,44,62.19Z" transform="translate(0)"/><path class="cls-19" d="M46.46,67.94c-.22-.46-.21-1,1-.55a26,26,0,0,0,7,1c3,.09,3.7-.8,4.23-.3s-1.55,2.73-6.34,2.25C46.83,69.79,46.46,67.94,46.46,67.94Z" transform="translate(0)"/><path class="cls-20" d="M44.51,63.64S57.83,62.57,61,63.38a11.32,11.32,0,0,0,.77-1.63s-7,1.62-17.72.44A3.1,3.1,0,0,0,44.51,63.64Z" transform="translate(0)"/><path class="cls-20" d="M47.9,67.81a26.86,26.86,0,0,0,9.94.54A17.37,17.37,0,0,1,47.9,67.81Z" transform="translate(0)"/></g></g></g></svg>