<svg xmlns="http://www.w3.org/2000/svg" xmlns:xlink="http://www.w3.org/1999/xlink" viewBox="0 0 66 66"><defs><style>.cls-1{fill:none;}.cls-2{clip-path:url(#clip-path);}.cls-3{fill:#fff;}.cls-4{fill:#62698a;}.cls-5{fill:#323240;}.cls-6{fill:#e62628;}.cls-7{fill:#870708;}.cls-14,.cls-25,.cls-7{opacity:0.3;}.cls-8{fill:#fff9f0;}.cls-9{fill:#ff9819;}.cls-10{fill:#ffb224;}.cls-11{fill:#ed671a;}.cls-12{fill:#3d2518;}.cls-13{fill:#ffb06b;}.cls-14{fill:#bf3c1b;}.cls-15{fill:#82572e;}.cls-16{fill:#f58a53;}.cls-17{fill:#202930;}.cls-18{fill:#c3cee6;opacity:0.7;}.cls-19{fill:#de6049;}.cls-20{fill:#8f2a25;}.cls-21{fill:#fff7ea;}.cls-22{fill:#ecdcc4;}.cls-23{fill:#2b221c;}.cls-24{fill:#121b21;}.cls-25{fill:#1f0300;}.cls-26{fill:#ff3b3b;}</style><clipPath id="clip-path" transform="translate(0.01)"><circle class="cls-1" cx="33" cy="33" r="33"/></clipPath></defs><g id="Layer_2" data-name="Layer 2"><g id="avatars"><g class="cls-2"><rect class="cls-3" width="66" height="66"/><path class="cls-4" d="M26.11,58.46c.31-1.18.94-5.81-.1-5.6-4.71.94-6.1,8-5.21,13.14h5.66C26.68,62.89,25.81,59.62,26.11,58.46Z" transform="translate(0.01)"/><path class="cls-4" d="M45.11,52.86c-1-.21-.41,4.42-.1,5.6s-.57,4.43-.35,7.54h5.66C51.21,60.82,49.82,53.8,45.11,52.86Z" transform="translate(0.01)"/><path class="cls-5" d="M27.59,51.75c-4.06-.13-5.31,9-2.35,11.19a2.59,2.59,0,0,0,2.55.24c0-2.29.58-4.61.81-6.91.09-.91.62-3.35-.08-4.09A1.25,1.25,0,0,0,27.59,51.75Z" transform="translate(0.01)"/><path class="cls-5" d="M42.83,53.61c1.57,2.69,1,6.21,1,9.23A2,2,0,0,0,46,62.6c2.17-1.83,1.9-7.38-.31-10C44.53,51.19,41.55,51.42,42.83,53.61Z" transform="translate(0.01)"/><path class="cls-6" d="M43,51.29c-3-1.84-13.15-1.31-15.74.89-1.59,1.35-1.69,5.91-1.6,10.17,0,1.27.07,2.5.13,3.65H45.29c0-1.32,0-2.72.1-4.08C45.61,57.61,45.76,53,43,51.29Z" transform="translate(0.01)"/><path class="cls-7" d="M37.16,54.89l-2.53-.24c.06,1.52.64,6.14.62,11.35h2.3A81.58,81.58,0,0,0,37.16,54.89Z" transform="translate(0.01)"/><path class="cls-8" d="M36.82,54.89l-1.52-.24c0,1.52.38,6.14.37,11.35h1.39C37.1,62.55,37.08,58.46,36.82,54.89Z" transform="translate(0.01)"/><path class="cls-7" d="M43.81,52.43c-1.44-.9-5.25.11-6.74.65s-6.58,3.53-2.85,4.61a7.87,7.87,0,0,0,3.7-.19c.3-.07,3-.61,3-1-.34,5-6.37,3.73-9,1.26-1.19-1.14-1.66-5-4.19-3.86l0,0a2.21,2.21,0,0,0-1.08,1.69,14.22,14.22,0,0,0,.78,5.74c.39,1.31,1.87,5.21,3,2.18a12.16,12.16,0,0,0,.42-1.76c1.35,2.26,4.1,2.7,6.56,2.52,4.34-.31,8.24-2.92,8.13-7.24C45.52,55.7,45.12,53.26,43.81,52.43Z" transform="translate(0.01)"/><path class="cls-9" d="M30.89,51.9l-2.63-2.76C26.72,49.47,26,58.51,25,66h5.61A63.39,63.39,0,0,0,30.89,51.9Z" transform="translate(0.01)"/><path class="cls-9" d="M38.21,46.65c-4-.51-11.23-.51-10.32,5.74.65,4.47,6.43,5,10.2,4.35C44.6,55.63,45.35,47.58,38.21,46.65Z" transform="translate(0.01)"/><path class="cls-9" d="M42.63,51.09c-1.53,0-.86,3.29-.85,4.13,0,1.92-.6,3.3-2.74,3.69a4.53,4.53,0,0,1-4.43-1.35c-1.73-2-2-5.5-4.34-7-.87-.57-1.5-.63-1.93-.36-1.25.75-1,4.1-.68,5.43a12,12,0,0,0,3.74,6c3.1,2.83,8.14,2.66,11.41.13A5.72,5.72,0,0,0,45,56.65C45,55.57,44.37,51.12,42.63,51.09Z" transform="translate(0.01)"/><path class="cls-10" d="M43.76,54.75c-.13-1-.71-1.65-1.12-.42-.55,1.67-.2,2.91-1.7,4.14s-3.55,2.19-5.44,1.09-2.81-2.92-4-4.62c-.36-.53-1.09-.81-1,.23h-.17c-.17.14-2.41-5-1.83-.32,0,.23.06.45.11.67A8.33,8.33,0,0,0,32.32,61a8.39,8.39,0,0,0,9.12.52,6.71,6.71,0,0,0,2.76-4.22,1.88,1.88,0,0,0-.87.43A7.91,7.91,0,0,0,43.76,54.75Z" transform="translate(0.01)"/><path class="cls-10" d="M34.52,54.57a.83.83,0,0,0-.13,0h-.12Z" transform="translate(0.01)"/><path class="cls-10" d="M40.63,54.48c.2-.24,1.17-1.19.87-1.55s-1.15.27-1.4.37a15.67,15.67,0,0,1-3.94,1.23,8.07,8.07,0,0,1-1.77,0,.83.83,0,0,1,.13,0l-.25,0h.12c-.75-.09-.26.59.22.78-.91.48.87,1,1.13,1a10.79,10.79,0,0,0,4.15-.61,3.82,3.82,0,0,0,2-1.42C41.66,54,41,54.42,40.63,54.48Z" transform="translate(0.01)"/><path class="cls-11" d="M28.86,50.77c1.68,3.8,11.5,3,13.6.31C46.71,45.63,26.69,45.83,28.86,50.77Z" transform="translate(0.01)"/><path class="cls-10" d="M29.8,59.41C29.16,60.54,29,61.8,28.5,63a27.36,27.36,0,0,0-.33-5.29,9.75,9.75,0,0,0-.81,3.59l-.27-2.17c-.24,2.22-.33,4.59-.61,6.91h3.1A16.85,16.85,0,0,0,29.8,59.41Z" transform="translate(0.01)"/><path class="cls-12" d="M51.15,17.68a6.43,6.43,0,0,0,2.07.47c-.26-.66-3-7.39-8.79-8.41a7.6,7.6,0,0,1,3.37-.88c-1.8-1-6.11-2.94-10.29-1.28-.25,0-2.64-1.85-4.73-1.9.27.42,1.55,1.36,1.59,1.86-2.83-1-5.35-.49-8.27.3-1.35.36-3.59,1.48-4.33,2.68a1.8,1.8,0,0,1,1.72.36c-2.7.91-5.86,3.33-6.79,6.16.7-.1,1.39-.45,2.12-.52-.62.06-1.51,1.77-1.76,2.25a10.38,10.38,0,0,0-.93,2.82,15.72,15.72,0,0,0-.39,5.79,15.09,15.09,0,0,1,1.41-1.48c-1.26,2.85-.25,5.52.86,8.14A34.72,34.72,0,0,0,20,37.59c.5.89.77,1.92,1.33,2.78,1.77,2.66,3.62,1.56,6.14,1a31.39,31.39,0,0,1,5.91-.89,25.19,25.19,0,0,1,6.72.26c2.1.48,4.41,1.43,6.53.53,4-1.68,3.92-7,4.05-10.54.36.27.72.59,1,.82.08-2.48.35-4.91.42-7.43a11.45,11.45,0,0,0,1.63,1.11C53.6,23.93,52.5,18.26,51.15,17.68Z" transform="translate(0.01)"/><path class="cls-13" d="M32.24,16.33c-7.38,1.44-12.8,12.09-11.23,22,1.06,6.73,9,15,15.43,15,7.5,0,13.24-11.59,12.09-20.76C47.29,22.63,42.57,14.32,32.24,16.33Z" transform="translate(0.01)"/><path class="cls-14" d="M44.41,18.83c-3.36-1.75-7.89-2.27-11.61-2.33-2.7-.05-5.63-.2-8.14.94-3.75,1.7-5.35,4.26-5.84,8.19-.18,1.46-.09,3.92,1.86,4.05,2.7.2,2.83-3.18,3.7-4.91A17.56,17.56,0,0,0,29,26.45a5.74,5.74,0,0,1-.41-3.28c1.42.57,11.44,2.37,11.44,2.37a8.42,8.42,0,0,1-.41-1.86c1.68,1.81,3.55,3.17,6.12,3.1C45.71,24,47.61,20.48,44.41,18.83Z" transform="translate(0.01)"/><path class="cls-13" d="M18.44,34.19c-3.63,1-2.17,6.29.79,7.35a7.1,7.1,0,0,0,2.92.32l.06-.09c.44-.69-.17-4.54-.39-5.27C21.26,34.67,20.18,33.71,18.44,34.19Z" transform="translate(0.01)"/><path class="cls-14" d="M19.71,36.14c-.82-.37-2.85.3-1.89,1.89.5-1.47,1.4-.5,1.26.54-.09.71-.85.72-.1,1.62.41.49,1.23.31,1.65.05C22,39.41,20.7,36.6,19.71,36.14Z" transform="translate(0.01)"/><path class="cls-12" d="M46.84,18.77A33.7,33.7,0,0,0,43,14.29c-4.08-3.46-9.4-3.43-14.42-2.56a18,18,0,0,0-5.68,1.77c-1.5.84-2.1,2.81-2.79,4.3-1.62,3.5-2.91,13.94-1.13,16.29a2.29,2.29,0,0,1,1.73.5,4.37,4.37,0,0,1,1,1.92,2.41,2.41,0,0,0,1.65.44c-.53-3.61-1.39-11.18,1.58-13.87.09,1.13,2.29,2.62,3.37,2.8-.48-1.2-.23-2.55-.46-3.79,3.14.48,8.13,1.58,11.21,2.3-.21-.5-.41-1.79-.63-2.46,2.26,1.55,3.7,3.06,6.48,3.82a12.42,12.42,0,0,0,.32-2.91c0,.4,4.33.94,4.75,1a5.6,5.6,0,0,0-1-2.54A27.77,27.77,0,0,0,46.84,18.77Z" transform="translate(0.01)"/><path class="cls-15" d="M30.44,17h0Z" transform="translate(0.01)"/><path class="cls-15" d="M44.09,13.17a7.38,7.38,0,0,1,3.16-.44C46,11,42.86,10,40.84,9.81A3.78,3.78,0,0,1,41.67,8c-.72.63-2.55.55-3.44,1.16a2.94,2.94,0,0,0-1.92-.94,8.94,8.94,0,0,1,.51,1.43,20.08,20.08,0,0,0-5.91-.86c-.5,0-3.35.24-3.64-.2.45.83,1.46,1.13,2.26,1.47-1.83-.09-3.43.88-5.18,1.2a3.32,3.32,0,0,0,2.09.39c-2.83,1.17-5.75,2.68-7.25,5.64,1.23-.23,2.49-.58,3.73-.82-.4,1.31-1.41,2.66-1.44,4.2,4.14-3.61,10.38-1.44,14.81.36-1.54-1.51-3.6-3.46-5.84-4.06h0a18.29,18.29,0,0,1,6.75,1.61c2.39,1,4.89,3.52,7.53,3.69a12.27,12.27,0,0,0-2.39-4.41c2.44.88,4.52,2.38,7,3-.36-.08-1.26-2.17-1.32-2.59a11.06,11.06,0,0,0,2.81.72C49.48,16.22,46.39,14.88,44.09,13.17Z" transform="translate(0.01)"/><path class="cls-16" d="M45.15,36.11c-1.14-.14-2.72,0-1.94,1.5.42.79,4.89,1.85,4.65.12a1.62,1.62,0,0,0-.17-.48A3.56,3.56,0,0,0,45.15,36.11Z" transform="translate(0.01)"/><path class="cls-16" d="M30,36.67a4.13,4.13,0,0,0-3-.24c-1.15.25-2.55.93-1,2.07.82.61,5.59.14,4.42-1.43A2,2,0,0,0,30,36.67Z" transform="translate(0.01)"/><path class="cls-17" d="M29.42,31.83c-1.9-.82-3.09,2.56-1.8,3.66a2.74,2.74,0,0,1,1.89.16C30.78,35,30.84,32.44,29.42,31.83Z" transform="translate(0.01)"/><path class="cls-17" d="M45.85,31.7c-1.94-1.16-3.36,2.81-1.76,3.87a2.51,2.51,0,0,1,2,0C46.88,34.7,46.89,32.32,45.85,31.7Z" transform="translate(0.01)"/><path class="cls-18" d="M28.75,32.5c-.77.26-.19,1.76.57,1.21C29.86,33.32,29.43,32.26,28.75,32.5Z" transform="translate(0.01)"/><path class="cls-18" d="M45,32.54c-.77.16-.4,1.65.38,1.23C46,33.46,45.69,32.41,45,32.54Z" transform="translate(0.01)"/><path class="cls-19" d="M27.09,39.61s2.41,8.19,8.74,8.61c4.55.3,6.06-2.5,7.66-4.83a29.2,29.2,0,0,1,2.71-4C43.59,41.11,35.52,42.83,27.09,39.61Z" transform="translate(0.01)"/><path class="cls-20" d="M28.46,40.66a8.29,8.29,0,0,0,7.75,5.46,8,8,0,0,0,6.54-3,12.53,12.53,0,0,1,2.34-2.59A17.72,17.72,0,0,1,28.46,40.66Z" transform="translate(0.01)"/><path class="cls-21" d="M28.46,40.66a9.76,9.76,0,0,0,3.74,3,14.52,14.52,0,0,0,8.15.46c2.06-.41,4.74-3.6,4.74-3.6S37.91,44.46,28.46,40.66Z" transform="translate(0.01)"/><path class="cls-21" d="M37.5,44.12a15.6,15.6,0,0,1-5.62-1c-1.09-.39-1,.53-.77,1,0,0,1,1.92,5.1,2,3.83.11,5.67-2,5.17-2.5S40.32,44.15,37.5,44.12Z" transform="translate(0.01)"/><path class="cls-22" d="M28.46,40.66a7.23,7.23,0,0,0,1.61,1.68A36,36,0,0,0,43.63,42s1.35-1.09,1.46-1.52A21,21,0,0,1,28.46,40.66Z" transform="translate(0.01)"/><path class="cls-22" d="M31.1,43.12c6,3,9.82.7,9.82.7A19.57,19.57,0,0,1,31.1,43.12Z" transform="translate(0.01)"/><path class="cls-23" d="M30.24,29a26.35,26.35,0,0,1-2.79-.52,3.19,3.19,0,0,0-3.11,1.31,4.57,4.57,0,0,0,.83-.05,8.21,8.21,0,0,1,1.21-.09,21.63,21.63,0,0,1,2.39.39c.59.09,3.44.75,3.45.09a1.63,1.63,0,0,0-.41-1C31.47,28.86,30.62,29,30.24,29Z" transform="translate(0.01)"/><path class="cls-23" d="M46,28.19a22.19,22.19,0,0,1-2.55.66c-.36,0-1.16,0-1.46.2a1.64,1.64,0,0,0-.33,1c0,.66,2.65-.15,3.2-.26a18.46,18.46,0,0,1,2.2-.51,7,7,0,0,1,1.12,0,4.07,4.07,0,0,0,.78,0A2.9,2.9,0,0,0,46,28.19Z" transform="translate(0.01)"/><path class="cls-14" d="M37.43,37.89c-.85,0-1.21-.3-1.79.06s.76,1.46,1.82,1.33,2.14-1.17,1.8-1.52S38.39,37.84,37.43,37.89Z" transform="translate(0.01)"/><path class="cls-24" d="M27.65,31.2c-1.08.27-2.15,1.31-4.55.35a4.06,4.06,0,0,0,5,.85,1.77,1.77,0,0,1,2.25.65S29.78,30.67,27.65,31.2Z" transform="translate(0.01)"/><path class="cls-24" d="M46.28,31.33c-2.13-.53-2.74,1.85-2.74,1.85a1.77,1.77,0,0,1,2.25-.65,4.06,4.06,0,0,0,5-.85C48.43,32.64,47.36,31.6,46.28,31.33Z" transform="translate(0.01)"/><path class="cls-25" d="M17,18.42c2.2,6.38,28.76,3.16,30.9-3.1C52.18,2.9,14.61,11.44,17,18.42Z" transform="translate(0.01)"/><path class="cls-6" d="M36.6,3.61c-7.6.7-13.86,2.94-19,8.63-1.66,1.85-4.51,6.07-.38,7.34a33.18,33.18,0,0,0,18.71.28c3.33-.88,10.49-2.54,12-6.31C50.81,6.18,45,2.83,36.6,3.61Z" transform="translate(0.01)"/><path class="cls-26" d="M39.1,4.28c-1.2,0-3.56-.3-4.55.69a1.18,1.18,0,0,0,.94,2c-2.25.13-4.59,1-6.71,1.14.45-.4,1.87-1.15,2-1.63.85-2.32-4.15,0-4.74.27-2.87,1.35-7.4,4.24-8,7.61,1.71,1.26,2.43-.38,4-.45,1.14,0,1.26.91,2.63,1.08,1,.13,1.75-.46,2.71-.54,3.77-.32,7.27.82,10.83-1.11,1.14-.62,1.73-1.9,2.93-2.39.93-.38,2.15.24,3-.54s.07-1.54.61-2.25,1.61-.28,1.7-1.14C46.7,4.78,40.52,4.3,39.1,4.28Z" transform="translate(0.01)"/><path class="cls-26" d="M32.53,2.19a5.68,5.68,0,0,0-.72,4.38l1,0a7.31,7.31,0,0,1,2.15-4C34.86,1.91,32.93,1.73,32.53,2.19Z" transform="translate(0.01)"/></g></g></g></svg>