<svg xmlns="http://www.w3.org/2000/svg" xmlns:xlink="http://www.w3.org/1999/xlink" viewBox="0 0 96 96"><defs><style>.cls-1{fill:url(#linear-gradient);}.cls-2{fill:url(#linear-gradient-2);}.cls-3{fill:none;}.cls-4{clip-path:url(#clip-path);}.cls-30,.cls-5,.cls-8{fill:#fff;}.cls-6{fill:#d47844;}.cls-7{fill:#ff9819;}.cls-11,.cls-8{opacity:0.3;}.cls-9{fill:#bf6430;}.cls-10{fill:#231e1a;}.cls-11,.cls-12{fill:#661004;}.cls-12{opacity:0.2;}.cls-13{fill:#423631;}.cls-14{fill:#1a1614;}.cls-15{fill:#2b241e;}.cls-16{fill:#a88686;}.cls-17{fill:#d4502c;}.cls-18{opacity:0.7;}.cls-19{fill:#c72415;}.cls-20{fill:#78231f;}.cls-21{fill:#fff9f0;}.cls-22{fill:#e8dac5;}.cls-23{fill:url(#linear-gradient-3);}.cls-24{fill:url(#linear-gradient-4);}.cls-25{opacity:0.6;fill:url(#linear-gradient-5);}.cls-26{fill:url(#linear-gradient-6);}.cls-27{fill:url(#linear-gradient-7);}.cls-28,.cls-33{opacity:0.45;}.cls-28{fill:url(#linear-gradient-8);}.cls-29{mask:url(#mask);}.cls-30{opacity:0.9;}.cls-31{fill:url(#linear-gradient-9);}.cls-32{fill:url(#linear-gradient-10);}.cls-33{fill:url(#linear-gradient-11);}.cls-34{mask:url(#mask-2);}.cls-35{fill:url(#linear-gradient-12);}</style><linearGradient id="linear-gradient" x1="-2366.96" y1="-296.94" x2="-2366.96" y2="-308.46" gradientTransform="matrix(0.97, -0.12, 0.12, 0.96, 2361.74, 46.06)" gradientUnits="userSpaceOnUse"><stop offset="0"/><stop offset="0.28" stop-color="#565656"/><stop offset="0.54" stop-color="#9e9e9e"/><stop offset="0.75" stop-color="#d3d3d3"/><stop offset="0.91" stop-color="#f3f3f3"/><stop offset="1" stop-color="#fff"/></linearGradient><linearGradient id="linear-gradient-2" x1="911.66" y1="204.73" x2="911.66" y2="193.45" gradientTransform="matrix(-0.97, -0.12, -0.12, 0.96, 970.1, -35.31)" xlink:href="#linear-gradient"/><clipPath id="clip-path"><circle class="cls-3" cx="48" cy="48" r="48"/></clipPath><linearGradient id="linear-gradient-3" x1="954.38" y1="-38.41" x2="958.76" y2="-38.41" gradientTransform="matrix(-1, -0.01, -0.01, 1, 1007.86, 98.44)" gradientUnits="userSpaceOnUse"><stop offset="0" stop-color="#b89377"/><stop offset="0.14" stop-color="#c59e83"/><stop offset="0.44" stop-color="#dab297"/><stop offset="0.73" stop-color="#e7bda3"/><stop offset="1" stop-color="#ebc1a7"/></linearGradient><linearGradient id="linear-gradient-4" x1="-2206.72" y1="-247.67" x2="-2206.72" y2="-254.69" gradientTransform="matrix(1.08, -0.11, 0.14, 0.94, 2434.19, 34.29)" xlink:href="#linear-gradient-3"/><linearGradient id="linear-gradient-5" x1="-2309.5" y1="-164.1" x2="-2309.5" y2="-171.1" gradientTransform="matrix(1, -0.08, 0.16, 0.84, 2353.07, 7.12)" gradientUnits="userSpaceOnUse"><stop offset="0" stop-color="#f2ebe6"/><stop offset="0.2" stop-color="#f9f5f3"/><stop offset="0.48" stop-color="#fdfdfc"/><stop offset="0.85" stop-color="#fff"/></linearGradient><linearGradient id="linear-gradient-6" x1="873.2" y1="251.36" x2="873.2" y2="229.58" gradientTransform="matrix(-0.99, -0.16, -0.16, 0.99, 936.63, -50.85)" xlink:href="#linear-gradient-3"/><linearGradient id="linear-gradient-7" x1="873.5" y1="251.07" x2="873.5" y2="229.15" gradientTransform="matrix(-0.99, -0.16, -0.16, 0.99, 936.63, -50.85)" gradientUnits="userSpaceOnUse"><stop offset="0" stop-color="#f2ebe6"/><stop offset="0.38" stop-color="#f9f5f3"/><stop offset="0.8" stop-color="#fffdfd"/></linearGradient><linearGradient id="linear-gradient-8" x1="-2346.65" y1="-266.23" x2="-2346.65" y2="-284.04" gradientTransform="matrix(0.99, -0.1, 0.21, 0.98, 2429.64, 74.96)" gradientUnits="userSpaceOnUse"><stop offset="0" stop-color="#d63600"/><stop offset="0.14" stop-color="#d53000"/><stop offset="0.61" stop-color="#d22100"/><stop offset="1" stop-color="#d11c00"/></linearGradient><mask id="mask" x="26.5" y="38.07" width="21.48" height="13.26" maskUnits="userSpaceOnUse"><polygon class="cls-1" points="47.98 48.93 27.96 51.33 26.5 40.46 46.51 38.06 47.98 48.93"/></mask><linearGradient id="linear-gradient-9" x1="838.19" y1="148.61" x2="838.19" y2="127.53" gradientTransform="matrix(-0.99, -0.1, -0.17, 0.99, 922.55, -2.97)" xlink:href="#linear-gradient-3"/><linearGradient id="linear-gradient-10" x1="844.66" y1="245.89" x2="844.66" y2="224.39" xlink:href="#linear-gradient-7"/><linearGradient id="linear-gradient-11" x1="812.92" y1="146.65" x2="812.92" y2="129.87" gradientTransform="matrix(-0.99, -0.1, -0.21, 0.98, 901.85, -5.02)" xlink:href="#linear-gradient-8"/><mask id="mask-2" x="55.66" y="38.1" width="19.49" height="12.73" maskUnits="userSpaceOnUse"><polygon class="cls-2" points="55.66 48.74 73.74 50.83 75.14 40.19 57.06 38.1 55.66 48.74"/></mask><linearGradient id="linear-gradient-12" x1="956.65" y1="-30.5" x2="956.65" y2="-51.72" gradientTransform="matrix(-1, -0.01, -0.01, 1, 1007.86, 98.44)" xlink:href="#linear-gradient-7"/></defs><g id="Layer_2" data-name="Layer 2"><g id="Layer_4" data-name="Layer 4"><g class="cls-4"><rect class="cls-5" width="96" height="96"/><path class="cls-6" d="M55.38,79.37l1.32,6.26c.48,1.59.51,6.32,1.89,10.37h5C61.21,91.82,62.24,82,55.38,79.37Z"/><path class="cls-6" d="M41.06,79.37C34.21,82,35.24,91.82,32.84,96h5c1.38-4,1.41-8.78,1.89-10.37Z"/><path class="cls-6" d="M57.35,93.58c.52-1.84-4.27-3-9-3.11-4.77.15-9.56,1.27-9,3.11.27.94.56,1.72.83,2.42H56.5A24.56,24.56,0,0,0,57.35,93.58Z"/><path class="cls-6" d="M54,78.7c-3.48-1.21-1.3-6.26-6.06-6.26S45.71,77.2,42,78.81s-4.79,8.5-3.36,11.57c2.54,5.47,14.57,6.25,18.81,1C60,88.38,59.75,80.71,54,78.7Z"/><path class="cls-7" d="M55.34,79.09a1.14,1.14,0,0,0-.77-.29C55.63,85.17,55.14,88,48,88s-7.36-2.73-5.74-9.4a3.24,3.24,0,0,0-.93.46c-1.52,6-3.15,5.57-3.57,8.81a6.59,6.59,0,0,0,1.42,5.34c1.83,2.15,16.69,1.93,18.14,0a6.56,6.56,0,0,0,1.5-4.94C58.54,85.62,56.26,85.9,55.34,79.09Z"/><path class="cls-8" d="M54.47,87.69c-1.6-.22-3,.74-5.51.85-4.08.19-5.56-1-7-1-1.94,0-3.81,2.06-1.81,3.47,3.31,2.31,14.28,1.73,16.23,0C57.61,89.9,56.87,88,54.47,87.69Z"/><path class="cls-9" d="M44.15,76.37c-.62,3.27,8.84,3.42,8.38.52S44.77,73.1,44.15,76.37Z"/><path class="cls-10" d="M24.06,24.21c-2.71-4.08,1.2-8.16,5.72-6.3.59-6.45,8-7.14,10.2-2.87.52-5,7.2-5.69,9.28-1.44A4.63,4.63,0,0,1,58,15.19c2.06-3.39,7-2.82,7.58,1.52,5.33-2.05,10.3,3.77,7.64,8,4.36-.61,6.43,3.93,3.48,7.36,4.58.08,4.73,5.43,1.22,7.68,4.72.57,3.17,6.15-1.17,7,3.73,1.32,2.89,7-2,6.69,3,2.44,2.91,7.21-2.12,7.25,1.66,3.5-.89,6.8-4.23,5.79,1.76,4.41-2.39,6.26-5.75,4.8-.58,6.28-9,3.18-12.83,3.18s-12.19,3.22-14.18-1.18c-4.08,3.49-9.13.37-7.69-3.8-3.63,1-7.52-.8-4.81-5.62-4.35,1.08-6.51-3-4.08-6.52a4,4,0,0,1-2.71-6.92c-4.21-.55-3.94-5.44-.54-6.93-4.21-1.9-4.35-6,.4-7.33-4-2.22-2.18-6.42,2.18-6.93C15.48,25.9,19.57,22.07,24.06,24.21Z"/><path class="cls-6" d="M27.55,51C28.43,67,38.69,76.82,50.23,77.18c8.86.27,19.58-14.33,18.19-30.21C67.05,31.3,58.5,23.07,47,24.08S26.67,35.11,27.55,51Z"/><path class="cls-6" d="M25.25,59.34a8.54,8.54,0,0,0,4.23.06s.05-.11.07-.17c.57-1.25-.81-7.18-1.19-8.39-.94-3.05-2.35-5.12-4.8-4C18.43,49.16,20.93,58,25.25,59.34Z"/><path class="cls-11" d="M27.83,57.21c2.35-1.3.39-6.36-1.3-7.27-1.39-.75-5,.2-3.43,3.1,1-2.53,2.47-.73,2.16,1.09-.21,1.22-1.53,1.15-.29,2.82C25.64,57.85,27.09,57.63,27.83,57.21Z"/><path class="cls-12" d="M42.07,26.58a58.38,58.38,0,0,1,18.86-1.47,6.54,6.54,0,0,1,6.38,6.15c.27,2,3.19,7.35-.41,7.76a3.54,3.54,0,0,1-2.81-1.16c-1.48,2.26-6,1-6.83-1.32-2.27,2.66-5.84,1-7.39-1.46-1.32,2.16-5.89,4.51-7.38,1.44-.69,3-6,6.27-7.58,3.1.1,2.28-1.21,7-3.59,5.8.56,3.63-.67,7.72-2.52,8.21C22.65,55.27,29.35,29.83,42.07,26.58Z"/><path class="cls-10" d="M27.17,52.37c4.11,2,3.38-8.92,3.5-10.32.22,1.36.67,3.08,2.12,2.65s1.4-5.17,1.69-8.07c2.17,4.88,7.32.17,7.85-2.86,1.91,3.76,6.75,3,7.48-1a4.88,4.88,0,0,0,8.52.8c.72,2.68,4.36,5.22,6.41,2.2,1.06,1.15,3.78,2.14,4.89.73.93-1.2-.94-5.43-1.36-6.66C67.3,27,65.7,24.39,63,23.14c-11.11-5-22.4-2-32.83,3.07a12.42,12.42,0,0,0-5.42,5.05c-2.11,3.76-.85,9.43-.19,13.41.28,1.72.31,5.88,1.63,7A5.7,5.7,0,0,0,27.17,52.37Z"/><path class="cls-13" d="M20.89,29.43c-.24,2,.81,4.42,2.14,4.17C19,34.36,20,39.16,24,37.92c-.25,7.44,7.6,1.24,7.79-3.52,1.86,1.56,3.83.3,4.53-1.89,1.86,3.14,3.91.72,4.83-1.46,2.39,2.59,5.1.89,5.93-2,2.86,3.13,10.46,5.35,12.23-.2.16,2.74,2.91,4.58,5,2.09,6,9.42,15-2.81,6.35-4.33,2.85-4.65-.92-10.51-6.68-6.12.41-4.7-4.65-4-7.24-2.2-.25-6-7.93-4.41-8.13-1.25-2.13-4.19-7.35-1.33-8,2.05-2.76-6-10.51-3.19-9,3.23-3.59-3.75-7.36,1.43-5.45,4.86C22.58,25.79,21.13,27.45,20.89,29.43Z"/><path class="cls-14" d="M42.6,54a4.16,4.16,0,0,0-2.91,0C37.56,52.39,39,47.07,42,48.11,44.29,48.89,44.49,52.82,42.6,54Z"/><path class="cls-14" d="M63.9,47.93c1.6.89,1.49,3.67.36,5a3.92,3.92,0,0,0-2.61.4C58.35,52.48,60.92,46.28,63.9,47.93Z"/><path class="cls-15" d="M68.62,45.83c-.64-2-3.17-2.92-4.63-3.13-1.72-.25-5.3-.09-7-.53.35,2.48,1.71,2.75,3.87,2.69C63.56,44.79,67.7,45.33,68.62,45.83Z"/><path class="cls-15" d="M34.09,46.43c.67-2,3.44-3,5-3.19C41,43,45,43.08,46.82,42.62c-.35,2.48-1.84,2.77-4.21,2.74C39.64,45.33,35.09,45.92,34.09,46.43Z"/><path class="cls-11" d="M55.05,57.74c.44.42-.68,1.74-2.17,2-1.32.22-3.09-1.11-2.38-1.58s1.19-.06,2.26-.15S54.54,57.25,55.05,57.74Z"/><path class="cls-14" d="M33.69,49.5a5.45,5.45,0,0,0,6.88.41l-.43-1.55S37.23,51.44,33.69,49.5Z"/><path class="cls-14" d="M69.71,49.53s-2.48,2.5-6.19-.14L64,48S66.88,50.74,69.71,49.53Z"/><path class="cls-16" d="M40.68,49c1-.43,1.8,1.14,1,1.81C40.6,51.74,39.53,49.49,40.68,49Z"/><path class="cls-16" d="M62.42,48.55c1-.24,1.48,1.33.64,1.82C61.91,51.05,61.28,48.81,62.42,48.55Z"/><path class="cls-17" d="M63.14,55.59c1.65-.13,3.07.66,3.16,1.76s-1.16,2.12-2.81,2.26-3.06-.65-3.16-1.76S61.5,55.73,63.14,55.59Z"/><path class="cls-17" d="M39.27,56.19c-1.81-.15-3.37.72-3.48,1.94s1.28,2.33,3.1,2.48,3.37-.72,3.47-1.94S41.08,56.34,39.27,56.19Z"/><g class="cls-18"><path class="cls-19" d="M63.74,61.5c-3.44.65-6.27-.07-11.43,0-4.27,0-11.07,1.24-14.36-.56,4.65,9,8.09,11.67,13,11.67,6.41,0,8-4,8.91-6.48A14.39,14.39,0,0,1,63.74,61.5Z"/></g><path class="cls-20" d="M40.47,62.4a48.11,48.11,0,0,0,21,.32,5.63,5.63,0,0,0-2.86,2.74c-.88,1.86-3.8,3.09-8.17,2.9A12.62,12.62,0,0,1,40.47,62.4Z"/><path class="cls-21" d="M43,63s.14,1.69,2.55,2.41a24.79,24.79,0,0,0,9.89.65c2.35-.27,3.6-2.88,3.6-2.88A51.6,51.6,0,0,1,43,63Z"/><path class="cls-21" d="M44,65.42c-.22-.44-.09-1.15,1-.46,1.52,1,4.1,1.22,7.22,1.2,2.89,0,4.39-.77,4.94-.27s-2.14,3.17-7.09,2.53C45,67.76,44,65.42,44,65.42Z"/><path class="cls-22" d="M43.55,64.16s11.7-.59,14.45.42a5.65,5.65,0,0,0,1-1.44A59.6,59.6,0,0,1,43,63,2.66,2.66,0,0,0,43.55,64.16Z"/><path class="cls-22" d="M45.94,65.32a18,18,0,0,0,9.18.61S50,67.73,45.94,65.32Z"/><path class="cls-12" d="M68.3,58.63a20.28,20.28,0,0,1-1,2.1,9,9,0,0,1-1,1.86c-.54-1.37-2.31-1.76-3.56-2.13-6.14-1.82-8.73-3.55-9.92-7.53-.34-1.12-.2-2.21-1.19-2.19-1.44,0-1.26,2-2.12,4C48,57.84,45.07,59.5,40.62,60a12.24,12.24,0,0,0-3.92,1,9.14,9.14,0,0,1-7.4-.64c-2.42-1.19-3.19-3-4.13-5.31s-2.61-5.92-1.7-8.63c.4-1.2,1.55-2.4,2.59-1.09.85,1.09.89,2.7,1.19,4,.46,2,.69,4.37,2.13,6a10.18,10.18,0,0,0,8.42,3.47A15.31,15.31,0,0,0,44.6,57a6.93,6.93,0,0,0,4.08-4.88,4.12,4.12,0,0,1,3.55-3.06c2.09-.17,1.93,1.5,2.3,3,.3,1.18.59,2.73,1.55,3.58,2.16,1.91,6.45,2.28,9.15,2.44a6.17,6.17,0,0,0,3.46-.66A7,7,0,0,1,68.3,58.63Z"/><path class="cls-23" d="M50.08,48.52a4.56,4.56,0,0,1,3.33.09c.3.22,1,2.22-.21,2.94a1.61,1.61,0,0,0-3.08-.07C49,50.71,49.76,48.73,50.08,48.52Z"/><path class="cls-24" d="M23.9,46.74c-.13,0-1.11.09-1.28.12a.8.8,0,0,0-.69,1c.21.57,1,2.58,1.17,3s1.17.47,1.9.41Z"/><path class="cls-25" d="M23.64,46.89c-.12,0-1,.06-1.19.09a.68.68,0,0,0-.61.89c.23.52,1,2.34,1.19,2.76s1.11.45,1.78.41Z"/><path class="cls-26" d="M46.71,42.33c-4-3.57-14.11-6.83-20.62-3.33s-.95,17.59,4.6,19.92S45.88,58.53,48.77,55C51.31,52,50.61,45.76,46.71,42.33Zm-.25,12.13c-2.33,2.47-9.73,3.81-13.66,1.74S25.45,43.26,30.46,41s13.34,1.55,15.48,3.78S48.5,52.31,46.46,54.46Z"/><path class="cls-27" d="M37.21,59.46a14.35,14.35,0,0,1-6.82-.74c-3.25-1.38-6.72-7.25-7.41-12.55-.27-2.15-.3-6,2.68-7.63a11.93,11.93,0,0,1,4.94-1.3c6.31-.4,12.67,1.92,15.92,4.81,3.75,3.33,4.67,9.6,2.1,12.71C46.79,57,42,59,37.22,59.46Zm-4.1-19.58a8.75,8.75,0,0,0-3,.69c-1.94.87-2.92,3-2.76,5.9.22,4.08,2.57,8.66,5.11,10a12.53,12.53,0,0,0,6.84,1c3.2-.31,6.12-1.42,7.46-2.83,2.23-2.34,1.6-8-.54-10.18C44.29,42.42,38.05,39.54,33.11,39.88Z"/><path class="cls-28" d="M46.77,54.67c-2.42,2.56-10.08,3.95-14.16,1.81S25,43.06,30.19,40.71s13.83,1.62,16,3.92S48.88,52.44,46.77,54.67Z"/><g class="cls-29"><path class="cls-30" d="M28.42,48c-.52-2.93,0-5.77,2.28-6.79,4.88-2.14,13,1.45,15,3.56A6,6,0,0,1,47,47.12C47.79,49.48,29,51.28,28.42,48Z"/></g><path class="cls-5" d="M31.87,42.75c4.89-2.21,11.92.13,14,2.33a5.87,5.87,0,0,1,1,1.65,5.71,5.71,0,0,0-1.12-1.85c-2.08-2.21-10.18-6-15.07-3.75-3.17,1.45-2.89,6.52-1.22,10.45C27.9,47.68,28.75,44.18,31.87,42.75Z"/><path class="cls-31" d="M56.48,42.45c3.82-3.31,13.12-5.86,18.94-2.15s.35,16.24-4.81,18.35-14-.32-16.51-3.76C51.89,51.87,52.77,45.73,56.48,42.45Zm0,11.95c2.05,2.41,8.81,3.68,12.5,1.75S76.13,44.32,71.63,42s-12.25.87-14.28,3S54.71,52.28,56.51,54.4Z"/><path class="cls-32" d="M64.52,59.15a13.19,13.19,0,0,0,6.27-.71c3-1.26,6.35-6.59,7.12-11.42.32-2,.45-5.48-2.21-7.18a11,11,0,0,0-4.44-1.52c-5.72-.76-11.57,1.14-14.63,3.84-3.55,3.17-4.63,9.39-2.4,12.48,1.59,2.2,5.92,4.09,10.29,4.51Zm4.77-18.39a8.18,8.18,0,0,1,2.67.82c1.72.91,2.55,2.9,2.31,5.61-.33,3.75-2.6,7.93-5,9.15a11.38,11.38,0,0,1-6.27.92c-2.9-.28-5.54-1.35-6.7-2.72-2-2.3-1.16-7.81.87-9.93C59.07,42.69,64.83,40.19,69.29,40.76Z"/><path class="cls-33" d="M56.22,54.61c2.12,2.49,9.13,3.8,13,1.8s7.38-12.25,2.71-14.7-12.68.89-14.79,3.07S54.35,52.41,56.22,54.61Z"/><g class="cls-34"><path class="cls-30" d="M73.63,48.5c.57-2.65.2-5.26-1.83-6.31-4.33-2.25-11.71.77-13.65,2.73a5.72,5.72,0,0,0-1.27,2.21C56.1,49.39,73,51.46,73.63,48.5Z"/></g><path class="cls-5" d="M70.72,43.23C66.4,40.92,60,43.15,58,45.2a5.63,5.63,0,0,0-1,1.57A5.89,5.89,0,0,1,58.09,45c1.95-2,9.38-5.21,13.7-2.9,2.81,1.49,2.4,6.09.78,9.63C74.12,48.21,73.48,44.7,70.72,43.23Z"/><path class="cls-35" d="M50.07,48.53a4.34,4.34,0,0,1,1.61-.21,4.26,4.26,0,0,1,1.59.27c.29.16,1,1.69-.2,2.23a1.37,1.37,0,0,0-1.45-.89,1.44,1.44,0,0,0-1.51.85C49,50.19,49.76,48.68,50.07,48.53Z"/></g></g></g></svg>