<svg xmlns="http://www.w3.org/2000/svg" xmlns:xlink="http://www.w3.org/1999/xlink" viewBox="0 0 66 66"><defs><style>.cls-1{fill:none;}.cls-2{clip-path:url(#clip-path);}.cls-3{fill:#5f5d7f;}.cls-4{fill:url(#linear-gradient);}.cls-5{fill:#ffcb9e;}.cls-6{fill:#e62628;}.cls-7{fill:#e0e0e0;}.cls-8{fill:#dbb05e;}.cls-9{fill:#c59248;}.cls-10,.cls-11{fill:#bf3c1b;}.cls-10{opacity:0.3;}.cls-11{opacity:0.15;}.cls-12{fill:#ffe1a8;}.cls-13{fill:#ffa073;}.cls-14{fill:#305d80;}.cls-15{fill:#86bae3;}.cls-16{fill:#a16b43;}.cls-17{fill:#e64e4e;opacity:0.6;}.cls-18{fill:#8f3935;}.cls-19{fill:#fff9f0;}.cls-20{fill:#e8dac5;}.cls-21{fill:#121b21;}</style><clipPath id="clip-path" transform="translate(0.01)"><circle class="cls-1" cx="33" cy="33" r="33"/></clipPath><linearGradient id="linear-gradient" x1="30.66" y1="51.64" x2="31.04" y2="58.02" gradientTransform="matrix(-1, 0, 0, 1, 65.34, 0)" gradientUnits="userSpaceOnUse"><stop offset="0" stop-color="#eea17a"/><stop offset="0" stop-color="#eea17a"/><stop offset="0.36" stop-color="#f7b88e"/><stop offset="0.7" stop-color="#fdc69a"/><stop offset="1" stop-color="#ffcb9e"/></linearGradient></defs><g id="Layer_2" data-name="Layer 2"><g id="avatars"><g class="cls-2"><rect class="cls-3" width="66" height="66"/><path class="cls-4" d="M34.19,50.35c2.76,0,1.34,2.53,3.45,3.45s6.21,3.63,2.48,7-8.53,3-11.25.26-2.76-5.39,1.84-7.13C32.69,53.2,31.46,50.35,34.19,50.35Z" transform="translate(0.01)"/><path class="cls-5" d="M26.35,66c.29-2.39,0-6.38,2.53-7.2.83-.27,2.13-2.52,1.69-3.27s-.86-1.11-1.68-.8C24.4,56.46,23.37,60,23.08,66Z" transform="translate(0.01)"/><path class="cls-5" d="M42.27,66c-.28-2.39,0-6.38-2.53-7.2-.82-.27-2.12-2.52-1.69-3.27s.87-1.11,1.68-.8C44.23,56.46,45.25,60,45.54,66Z" transform="translate(0.01)"/><path class="cls-6" d="M29.42,66a16.31,16.31,0,0,0-1-2.67c-1.85-4.42.16-5.45,1.37-9.11a1.47,1.47,0,0,1,.93-.43c-.31,2.3-.73,5.73,3.58,5.73s3.69-4.15,3.3-5.85a4.66,4.66,0,0,1,1.25.57c1,2.32,3,4.63,1.11,9A17.27,17.27,0,0,0,38.81,66Z" transform="translate(0.01)"/><path class="cls-7" d="M34.31,60a3.71,3.71,0,0,0,3.08-1.23c1.26-1.57.67-4.2.44-5.18a.46.46,0,1,0-.9.2c.19.87.71,3.18-.27,4.4a2.83,2.83,0,0,1-2.35.88,3.23,3.23,0,0,1-2.52-.83c-.83-.95-.59-2.66-.41-4l0-.29a.45.45,0,0,0-.39-.52.48.48,0,0,0-.53.4l0,.29c-.22,1.56-.49,3.51.62,4.77A4.08,4.08,0,0,0,34.31,60Z" transform="translate(0.01)"/><path class="cls-7" d="M27.69,60.39a.46.46,0,0,0,.46-.44A8,8,0,0,1,29,57c.28-.65.59-1.37.9-2.31a.46.46,0,0,0-.3-.59.46.46,0,0,0-.58.3c-.3.9-.6,1.61-.87,2.23a8.84,8.84,0,0,0-.94,3.33.47.47,0,0,0,.44.48Z" transform="translate(0.01)"/><path class="cls-7" d="M40.78,60.39h0a.47.47,0,0,0,.45-.48,8.84,8.84,0,0,0-.94-3.33c-.27-.62-.57-1.33-.87-2.23a.46.46,0,0,0-.58-.3.46.46,0,0,0-.3.59c.31.94.62,1.66.9,2.31a8.17,8.17,0,0,1,.86,3A.46.46,0,0,0,40.78,60.39Z" transform="translate(0.01)"/><path class="cls-8" d="M37.36,7.44c-10-1.09-18.47,2.77-21.82,10.39-3.06,7-1.59,14.52-1.12,21.69.33,5-.51,9.44-3.44,13.6,2.93,2.31,7.34,2.92,10.1.07-.07.56.17,1.32.13,1.78,2.49-1.31,8.21-2.31,11.26-3.14,4.36-1.18,8.21-2.69,11-6.29,3.12-4.1,5.49-7.75,6.29-12.79A48.41,48.41,0,0,0,49.8,21a5.06,5.06,0,0,0,1.54-3.62C51.28,11.54,43.67,8.13,37.36,7.44Z" transform="translate(0.01)"/><path class="cls-9" d="M16.25,34.16C15,38.33,16.13,40,17.58,43.79c1.32,3.53.24,7.83-.53,9.83,1.24-.06,3.86-1.93,4.71-2.81a6.93,6.93,0,0,1,.34,2.41c2.08-1.21,9.82-1,9.06-4.94-.37-1.87-2.31-2.46-3.56-3.73a26.2,26.2,0,0,1-3.93-5.21c-1.22-2.08-2.16-4.23-3.17-6.41-.76-1.66-1.07-3.4-1.76-5.07C18.74,27.86,17.07,31.54,16.25,34.16Z" transform="translate(0.01)"/><path class="cls-5" d="M19.82,37.12c.7,8,9.52,16.92,16.72,16.43,5.49-.38,13.84-10,12.76-21.14-1-10.62-5.41-19.69-16.47-18.07C24.93,15.5,18.88,26.49,19.82,37.12Z" transform="translate(0.01)"/><path class="cls-5" d="M18,40.41a6.92,6.92,0,0,0,2.89.5l.07-.09c.46-.71,0-4.83-.18-5.61-.47-2-1.51-3.05-3.26-2.64C13.87,33.43,15.1,39.12,18,40.41Z" transform="translate(0.01)"/><path class="cls-10" d="M19.44,39.1c1.34-.81.22-3.85-.75-4.39-.79-.45-2.83.16-2,1.9.56-1.54,1.41-.46,1.23.64-.12.74-.87.71-.16,1.71C18.19,39.5,19,39.35,19.44,39.1Z" transform="translate(0.01)"/><path class="cls-11" d="M30.11,22.73c.2-.13.45-.35.77-.58a27.59,27.59,0,0,1-4.95.7c-1.86.06-1.87,6.21-1.82,7.56.19,5.13-1.67,10.44.22,15.42.35.91.7,1.83,1.11,2.71-1.45-.15-4-.5-5-1.68-1.31-1.56-.7-4.52-1-6.4-.41-2.62-.31-7.35-2.68-9.08a20,20,0,0,1,2.3-6.77,15,15,0,0,0,1.27-3c.23-1.16,0-2.31.46-3.46.63-1.6,2.47-2.42,4-3,2.72-1.08,5.82-.77,8.67-.59a35.41,35.41,0,0,1,9.43,1.94c2,.71,5.81,1.43,6.4,3.83.75,3-3.64,3.88-5.81,4.31-3,.58-8.07.67-10.73-.94.26-.16,1-.43,1.34-.6A8.91,8.91,0,0,1,30.11,22.73Z" transform="translate(0.01)"/><path class="cls-8" d="M44.3,12.71c-3.17-3-7.08-3.59-11.28-2.83-2.56.47-5.47.68-7.67,2.21a20.63,20.63,0,0,0-5,4.37c-2.17,3-2.69,9.79-1.5,15.46.84,4-.25,13-1.59,19.89C21.36,47.18,22.54,37.62,23,33c.48-5.41.46-8.82,2.28-11.4,5.63.22,7.37-.27,8.4-.56-.1.37-.81.92-1,1.21a10,10,0,0,0,4.14,0,3.8,3.8,0,0,1-1.42.75c3.64,2,8.66.58,12.16-.68,1.91-.69,3.06-2.56,2.24-4.07C48.73,16.3,45.83,14.14,44.3,12.71Z" transform="translate(0.01)"/><path class="cls-12" d="M43.94,10.53c3.8,1.75,7.69,5.43,4.87,8.56C47.7,20.33,41,22.32,38.25,22.2a15.19,15.19,0,0,0,2.13-2.33c-1.52.29-3.06.83-4.57,1.19a8.07,8.07,0,0,0,.87-1.89c-5.49,2.58-15.16,1-19.28-.56.86,1,3.2,2,5.54,2.86-.77,7.69-.44,17.65-4.5,26.21a48.73,48.73,0,0,0,1.67-13.8C20,31,18.7,28.65,21.73,23.9c-2.58,1.61-7.58,7.66-7,11.12-1-6.65.55-15.09,2.36-18a15.24,15.24,0,0,1,7.15-5.51,12.45,12.45,0,0,0-2.44-.09C28.11,8.08,37.28,7.46,43.94,10.53Z" transform="translate(0.01)"/><path class="cls-12" d="M14.91,40.85s.71,9.24-3.13,12.11a6.57,6.57,0,0,0,5.48,1.42s-1.83-.47-1.3-3.22A17.79,17.79,0,0,0,14.91,40.85Z" transform="translate(0.01)"/><path class="cls-13" d="M48.44,37.58a2,2,0,0,1,0,.61c-.24,2.25-4,1.33-4.23.34-.32-1.86,1.17-2.25,2.18-2.18C47.2,36.4,48.23,36.64,48.44,37.58Z" transform="translate(0.01)"/><path class="cls-13" d="M29.07,36.54a2,2,0,0,1,.21.56c.44,2.12-3.39,2.35-3.85,1.49-.85-1.61.43-2.38,1.39-2.61C27.56,35.81,28.59,35.74,29.07,36.54Z" transform="translate(0.01)"/><path class="cls-14" d="M28.59,35a2.69,2.69,0,0,0-1.91-.21c-1.3-1.19,0-4.67,1.91-3.77C30,31.72,29.91,34.37,28.59,35Z" transform="translate(0.01)"/><path class="cls-10" d="M39.84,38.09c-.32-.44-.8,0-1.67,0s-1.09-.4-1.65-.08.22,1.44,1.61,1.44S40.13,38.47,39.84,38.09Z" transform="translate(0.01)"/><path class="cls-14" d="M47.21,31.15c1,.67,1,2.9.19,3.77a2.48,2.48,0,0,0-2,0C43.75,33.74,45.27,29.89,47.21,31.15Z" transform="translate(0.01)"/><path class="cls-15" d="M28.36,32c.7-.23,1.11.88.55,1.28C28.13,33.83,27.57,32.25,28.36,32Z" transform="translate(0.01)"/><path class="cls-15" d="M46.91,32c.69-.13.94,1,.36,1.28C46.47,33.74,46.13,32.18,46.91,32Z" transform="translate(0.01)"/><path class="cls-16" d="M31.39,29c-2.56.05-3.79-.14-7.47-.26C25.69,27.22,30.22,27.12,31.39,29Z" transform="translate(0.01)"/><path class="cls-16" d="M49.86,29.11c-3.18.09-4.26.26-6.45.19C44.67,27.48,48.54,27.61,49.86,29.11Z" transform="translate(0.01)"/><path class="cls-17" d="M37.39,41.69c-1.53,0-3.06.05-4.58,0a33.41,33.41,0,0,1-5.47-.4A28.86,28.86,0,0,0,32,46.37a7.7,7.7,0,0,0,8,1.29c2.51-1.19,5.83-6.3,6-6.3C43.1,41.22,40.19,41.69,37.39,41.69Z" transform="translate(0.01)"/><path class="cls-18" d="M28.87,41.75A41.19,41.19,0,0,0,45,42a4.14,4.14,0,0,0-2.16,1.88c-.65,1.29-2.89,2.14-6.25,2A10,10,0,0,1,28.87,41.75Z" transform="translate(0.01)"/><path class="cls-19" d="M30.81,42.14s.14,1.17,2,1.66a21.2,21.2,0,0,0,7.63.45,3.87,3.87,0,0,0,2.73-2A44.28,44.28,0,0,1,30.81,42.14Z" transform="translate(0.01)"/><path class="cls-19" d="M31.65,43.84c-.17-.31-.08-.79.76-.32,1.19.66,3.18.84,5.58.83,2.23,0,3.37-.53,3.8-.19s-1.6,2.2-5.42,1.75C32.39,45.45,31.65,43.84,31.65,43.84Z" transform="translate(0.01)"/><path class="cls-20" d="M31.27,43s9-.41,11.13.29a3.82,3.82,0,0,0,.76-1,51,51,0,0,1-12.35-.13A1.74,1.74,0,0,0,31.27,43Z" transform="translate(0.01)"/><path class="cls-20" d="M33.12,43.77a15.44,15.44,0,0,0,7.07.42S36.3,45.44,33.12,43.77Z" transform="translate(0.01)"/><path class="cls-21" d="M22.31,31.73s1.94,2,5.07.34a1.55,1.55,0,0,1,2.22.64s-.13-2.75-2.55-1.89C26,31.2,24.76,32.54,22.31,31.73Z" transform="translate(0.01)"/><path class="cls-21" d="M52.09,31.7s-1.93,2-5.06.37a1.57,1.57,0,0,0-2.23.65s.12-2.75,2.55-1.9C48.43,31.19,49.65,32.52,52.09,31.7Z" transform="translate(0.01)"/></g></g></g></svg>