<svg xmlns="http://www.w3.org/2000/svg" xmlns:xlink="http://www.w3.org/1999/xlink" viewBox="0 0 66 66"><defs><style>.cls-1{fill:none;}.cls-2{clip-path:url(#clip-path);}.cls-3{fill:#a55a86;}.cls-4{fill:#d47844;}.cls-5{fill:url(#linear-gradient);}.cls-6{fill:#765aa3;}.cls-7{opacity:0.1;}.cls-8{fill:#bba7db;}.cls-22,.cls-23,.cls-24,.cls-9{fill:#fff;}.cls-9{opacity:0.07;}.cls-10{fill:#231e1a;}.cls-11{fill:#f06799;}.cls-12,.cls-13{fill:#661004;}.cls-12,.cls-22{opacity:0.3;}.cls-13{opacity:0.2;}.cls-14{fill:#423631;}.cls-15{fill:#1a1614;}.cls-16{fill:#2b241e;}.cls-17{fill:#a88686;}.cls-18{fill:#d4502c;}.cls-19{fill:#66241b;}.cls-19,.cls-24{opacity:0.7;}.cls-20{fill:#611f16;}.cls-21{fill:#3a3a4a;}</style><clipPath id="clip-path" transform="translate(0.01)"><circle class="cls-1" cx="33" cy="33" r="33"/></clipPath><linearGradient id="linear-gradient" x1="33.8" y1="49.37" x2="33.8" y2="54.56" gradientUnits="userSpaceOnUse"><stop offset="0" stop-color="#c25421"/><stop offset="1" stop-color="#d47844"/></linearGradient></defs><g id="Layer_2" data-name="Layer 2"><g id="avatars"><g class="cls-2"><rect class="cls-3" width="66" height="66"/><path class="cls-4" d="M29.09,55.89a1.57,1.57,0,0,0,1.35-1.75,1.55,1.55,0,0,0-1.71-1.38c-3.54.43-4.2,3.65-4.72,6.23-.31,1.54-1.3,5.19-1.91,7h3.33c.6-1.77,1.38-5.24,1.61-6.37C27.6,56.86,27.94,56,29.09,55.89Z" transform="translate(0.01)"/><path class="cls-4" d="M38.87,52.76a1.56,1.56,0,0,0-1.72,1.38,1.57,1.57,0,0,0,1.36,1.75c1.15.14,1.48,1,2.05,3.74.23,1.13,1,4.6,1.61,6.37H45.5c-.62-1.82-1.6-5.47-1.91-7C43.06,56.41,42.41,53.19,38.87,52.76Z" transform="translate(0.01)"/><path class="cls-5" d="M37.21,51.79c-2.16-.95-.71-3.53-3.54-3.53s-1.54,2.91-3.56,3.68c-4.72,1.78-4.69,4.52-1.89,7.31s7.7,3.2,11.53-.27S39.37,52.73,37.21,51.79Z" transform="translate(0.01)"/><path class="cls-6" d="M39.6,61.44c2-4.46-.1-6.81-1.14-9.2a5.44,5.44,0,0,0-1.28-.59c.39,1.75,1,6-3.38,6s-4-3.51-3.67-5.87a1.51,1.51,0,0,0-1,.44c-1.23,3.75-3.3,4.81-1.4,9.34A12.31,12.31,0,0,1,28.89,66h9.38A12.7,12.7,0,0,1,39.6,61.44Z" transform="translate(0.01)"/><path class="cls-7" d="M29.69,62.17c.44.75,1.78.74,2.84.94-.19,0-.37.09-.56.12a8.71,8.71,0,0,0,4.29-.29c.4-.11,1.49-.79,1.7-.81a32.09,32.09,0,0,1-4.38.26C32.25,62.37,31,62.2,29.69,62.17Z" transform="translate(0.01)"/><path class="cls-8" d="M36.84,51.19a.47.47,0,0,0-.36.57c.2.89.73,3.26-.27,4.51a2.92,2.92,0,0,1-2.41.9,3.29,3.29,0,0,1-2.59-.85c-.85-1-.61-2.73-.41-4.14l0-.3a.49.49,0,0,0-.41-.54.47.47,0,0,0-.53.41l0,.3c-.23,1.6-.5,3.6.63,4.89a4.17,4.17,0,0,0,3.31,1.19A3.83,3.83,0,0,0,37,56.87c1.29-1.61.68-4.31.46-5.32A.47.47,0,0,0,36.84,51.19Z" transform="translate(0.01)"/><path class="cls-8" d="M29,52.05a.47.47,0,0,0-.6.3,24.16,24.16,0,0,1-.89,2.29,9,9,0,0,0-1,3.41.48.48,0,0,0,.45.5h0a.47.47,0,0,0,.47-.45A8.4,8.4,0,0,1,28.36,55a23.52,23.52,0,0,0,.92-2.36A.47.47,0,0,0,29,52.05Z" transform="translate(0.01)"/><path class="cls-8" d="M39.06,52.35a.48.48,0,0,0-.91.3c.32,1,.64,1.7.92,2.36A8.21,8.21,0,0,1,40,58.1a.49.49,0,0,0,.48.45h0a.47.47,0,0,0,.45-.5A9,9,0,0,0,40,54.64,24.16,24.16,0,0,1,39.06,52.35Z" transform="translate(0.01)"/><path class="cls-9" d="M36.85,57.84a13.06,13.06,0,0,1-7-.08c-1.26-.3-2,1.08-1.6,2.25.51,1.56,3.14,2,5.43,1.92,4.51-.09,6.21-1.7,5.45-3.61C39,57.8,38,57.45,36.85,57.84Z" transform="translate(0.01)"/><path class="cls-10" d="M33.51,10.24C28,3.81,16.19,11.31,11.64,15.08,5.83,19.89-1.85,30.23,6.15,30c-1.75,2.07-2.5,6.28.73,7-1.3,2.2-.5,4.85,2.32,5-.37,2.63,1.7,4.27,4.26,3.43.82,2.54,3.42,3,5.25,1.39,1.68,6.5,10.35-3.66,16.23-3.78,5.3-.1,14.43,9.59,14.47,2.11,1.78,1.35,4.47,1,4.22-2.22,2.44,1.81,5.48-.53,4.14-3,2.9.82,3.12-2.43,2-4.62,3.06.77,3.11-3.19.82-4.47,4.85,0,2-4.92.74-7.6C57.86,16,41.84.7,33.51,10.24Z" transform="translate(0.01)"/><path class="cls-11" d="M46.73,37A1.34,1.34,0,1,0,48,38.16,1.22,1.22,0,0,0,46.73,37Z" transform="translate(0.01)"/><path class="cls-4" d="M32.16,14.91c-7.93.85-13.9,7.89-13.08,18.87s8,17.66,16,17.76c6.12.07,13.33-10.15,12.16-21.11C46.11,19.63,40.09,14.05,32.16,14.91Z" transform="translate(0.01)"/><path class="cls-4" d="M16.27,30.93c-3.51,1.68-1.67,7.76,1.34,8.62a5.74,5.74,0,0,0,2.91,0,.37.37,0,0,0,.05-.11c.38-.88-.65-5-.93-5.78C19,31.54,18,30.13,16.27,30.93Z" transform="translate(0.01)"/><path class="cls-12" d="M18.36,33c-1-.5-3.43.21-2.32,2.19.64-1.76,1.7-.54,1.5.72-.13.85-1,.82-.16,1.95a1.63,1.63,0,0,0,2,.15C21,37.11,19.54,33.65,18.36,33Z" transform="translate(0.01)"/><path class="cls-11" d="M19,38.59a1.34,1.34,0,0,0,.12,2.64A1.34,1.34,0,0,0,19,38.59Z" transform="translate(0.01)"/><path class="cls-13" d="M41.79,15.43a40.12,40.12,0,0,0-13,1.27c-6.56,1.81-11.51,9.15-10.79,16,.24,2.24,1.15,8.56,3.7,5.42,1.51-1.86.62-6.19-.09-8.23,1.66.79,2.51-2.49,2.4-4.06,3.82,3.43,7.27-9.38,13.33-4.34,1.45,1.21,3.2,4.24,4.8,3.84s1.12-1.56,1.19-2.48c.51,1.31,2.11,2.57,3.07,2.11,1.68-.83.87-4.95.66-6.3C46.65,15.91,44.1,15.57,41.79,15.43Z" transform="translate(0.01)"/><path class="cls-10" d="M43.16,14C35.42,10.71,27.67,13,20.53,16.6a8.58,8.58,0,0,0-3.67,3.56c-1.51,2.8,0,9.9,1.48,15.62.76,2.86,1.91,3.51,2.8.88.62-1.8-.24-5.86,0-9.12.17.93.5,2.11,1.5,1.8s.9-3.59,1.06-5.6c1.08,4.27,6.6-2.67,7.83-3.65,3.42-2.73,4.71-1.19,7.19,1.24,1.14,1.11,2.4,3.31,3.67,2.74,1-.44.69-2.21.73-3.17a6.63,6.63,0,0,0,2.84,3.31c1.18.69,2.32-2,1-5.63A7.41,7.41,0,0,0,43.16,14Z" transform="translate(0.01)"/><path class="cls-14" d="M35.85,14.24l-.05-.06s0,0,0,0S35.85,14.26,35.85,14.24Z" transform="translate(0.01)"/><path class="cls-14" d="M49.84,12.8a19.73,19.73,0,0,0-8.2-3.55,5.41,5.41,0,0,0-4.15.93c-.78.62-2.27,2.88-1.69,4l.05.06s0,0,0,0,0,0,0,0C28.77,2.71,15,14.18,9,20.59c-1.38,1.48-5,4.67-3.11,6s9-6.55,12-8.66c-1.45,1.23-7,6.8-5.82,8.94,1.35,2.38,5.33-2.83,6.65-4.23-.89,1.45-1.74,4.88-.47,5.2s2.61-3.17,3.36-5c-.22.93-.78,3.55.32,3.55s1.38-4.74,2.19-6.79c.21,5.28,5-1.11,6.32-2.1,2.75-2.11,3.82-2.25,6.7-.31,1.51,1,2.66,3.75,4.09,3.7s1.32-2.51.95-4c.84,1.86,3.82,7.24,4.58,2.46.78,3.13,6.86,11.89,5.26,4,.58,1.44,3.28,5.59,5.14,4.16s-3.31-6.68-2.48-7.3c.72,1,2.34,2.85,3.63,1.47C59.74,20.18,50.74,13.42,49.84,12.8Z" transform="translate(0.01)"/><path class="cls-15" d="M29.06,31.57c-2.1-.68-3,3-1.56,4.06a2.87,2.87,0,0,1,2,0C30.81,34.79,30.62,32.08,29.06,31.57Z" transform="translate(0.01)"/><path class="cls-15" d="M44.15,31.16c-2.08-1.1-3.78,3.21-1.48,3.75a2.75,2.75,0,0,1,1.79-.31C45.23,33.67,45.27,31.75,44.15,31.16Z" transform="translate(0.01)"/><path class="cls-16" d="M44,28.17c-1.2-.07-3.66.27-4.85.08.41,1.68,1.36,1.78,2.84,1.6A17.69,17.69,0,0,1,47.4,30C46.83,28.66,45,28.22,44,28.17Z" transform="translate(0.01)"/><path class="cls-16" d="M27.15,28.67c-1.12.08-3.07.57-3.62,1.95a21.45,21.45,0,0,1,5.92-.33c1.63.13,2.67,0,3-1.69C31.18,28.83,28.46,28.56,27.15,28.67Z" transform="translate(0.01)"/><path class="cls-12" d="M36.59,38.25c-.74.08-1.07-.2-1.56.13s.76,1.23,1.67,1.07,1.78-1.12,1.47-1.4S37.41,38.16,36.59,38.25Z" transform="translate(0.01)"/><path class="cls-15" d="M23.3,32.64a3.77,3.77,0,0,0,4.76.19l-.32-1.06A3.82,3.82,0,0,1,23.3,32.64Z" transform="translate(0.01)"/><path class="cls-15" d="M44.21,31.22l-.31,1c2.61,1.77,4.29,0,4.29,0C46.25,33.06,44.21,31.22,44.21,31.22Z" transform="translate(0.01)"/><path class="cls-17" d="M28.13,32.21c-.8.35,0,1.88.72,1.23C29.39,33,28.83,31.89,28.13,32.21Z" transform="translate(0.01)"/><path class="cls-17" d="M43.14,31.6c-.79.2-.32,1.73.47,1.25C44.18,32.5,43.84,31.43,43.14,31.6Z" transform="translate(0.01)"/><path class="cls-18" d="M43.73,36.46c-1.14.12-2,.83-1.91,1.59s1.07,1.29,2.21,1.18,2-.83,1.91-1.6S44.87,36.34,43.73,36.46Z" transform="translate(0.01)"/><path class="cls-18" d="M27.25,37.19c-1.26-.08-2.32.54-2.38,1.38s.92,1.6,2.17,1.68,2.32-.55,2.38-1.39S28.5,37.26,27.25,37.19Z" transform="translate(0.01)"/><path class="cls-19" d="M26.69,41.4c1,1.83,3.32.86,2.28-1A1.73,1.73,0,0,1,26.69,41.4Z" transform="translate(0.01)"/><path class="cls-19" d="M42.09,39.67a1.32,1.32,0,1,0,2.53.65A1.93,1.93,0,0,1,42.09,39.67Z" transform="translate(0.01)"/><path class="cls-20" d="M43.21,40.65a.53.53,0,0,0-.69.31,7,7,0,0,1-6.8,4.58A7.22,7.22,0,0,1,29,41.87a.59.59,0,0,0-.73-.28.47.47,0,0,0-.28.65,8.36,8.36,0,0,0,7.55,4.31h.29c3.73-.09,6.82-2.17,7.79-5.26A.52.52,0,0,0,43.21,40.65Z" transform="translate(0.01)"/><path class="cls-21" d="M38.2,30.4c-1.05,1.13-.43,4.82.29,6s8.07,1.19,9.84.57,3.12-4.94,1.82-6.63S39.73,28.74,38.2,30.4Zm9.7,5.78c-1.32.43-7.89.45-8.53-.33s-.92-4.1-.18-4.86c1.09-1.13,8.79-1.12,9.92,0S49.23,35.74,47.9,36.18Z" transform="translate(0.01)"/><path class="cls-21" d="M20.38,31.09c-1.33,1.19.13,5,1.29,6.1S31.33,37.68,33,37s1.62-4.83.14-6.44S22.32,29.36,20.38,31.09ZM32.3,36.28c-1.27.47-8.63,1-9.62.24s-2.15-4-1.21-4.81c1.37-1.13,9.51-1.56,10.76-.56S33.58,35.8,32.3,36.28Z" transform="translate(0.01)"/><path class="cls-21" d="M34.16,32.71c-.18.08-.93,1.06-.38,1.27A5.21,5.21,0,0,1,38,33.6c.32.11.61.07.5-.3C38,31.88,35.28,32.19,34.16,32.71Z" transform="translate(0.01)"/><path class="cls-22" d="M43.78,30.44c-.5.13-3.89.76-3.22,2.17.43.93,8.34,1.42,8.84-.15C50.43,29.27,44.75,30.19,43.78,30.44Z" transform="translate(0.01)"/><path class="cls-22" d="M31.65,30.67a17.44,17.44,0,0,0-5.59.18c-.57.09-3.16.52-2.24,2s7.48,1.63,8.65.33A1.48,1.48,0,0,0,31.65,30.67Z" transform="translate(0.01)"/><path class="cls-23" d="M44.33,30.67c-.85,0-1.43.22-1.24.6.38.75,5.35.84,5.75.33S46.15,30.58,44.33,30.67Z" transform="translate(0.01)"/><path class="cls-24" d="M40.57,34.84c-.52-.05-.9,0-.83.36.15.63,3.19,1.19,3.5.83S41.71,35,40.57,34.84Z" transform="translate(0.01)"/><path class="cls-23" d="M28.05,30.85c-.84,0-1.4.22-1.21.57.39.68,5.27.68,5.65.21S29.83,30.73,28.05,30.85Z" transform="translate(0.01)"/><path class="cls-24" d="M23.15,35.35c-.52,0-.88,0-.81.34.15.58,3.16,1,3.45.7S24.26,35.43,23.15,35.35Z" transform="translate(0.01)"/></g></g></g></svg>