<svg xmlns="http://www.w3.org/2000/svg" xmlns:xlink="http://www.w3.org/1999/xlink" viewBox="0 0 66 66"><defs><style>.cls-1{fill:none;}.cls-2{clip-path:url(#clip-path);}.cls-3{fill:#825f5d;}.cls-4{fill:#ffb224;}.cls-5{fill:#1e1e29;}.cls-6{fill:#e62628;}.cls-7{fill:#ebebeb;}.cls-8{fill:#d4a070;}.cls-9{fill:#f2d89b;}.cls-10{fill:#cf854d;opacity:0.5;}.cls-11,.cls-20{opacity:0.7;}.cls-12{fill:#ab6a3f;}.cls-13{fill:#f29f63;}.cls-14{fill:#e89361;}.cls-15{fill:#ffbc82;}.cls-16{fill:#bf3c1b;opacity:0.3;}.cls-17{fill:#694330;}.cls-18{fill:#fae7bb;}.cls-19{fill:#261b18;}.cls-20{fill:#e6d2c3;}.cls-21{fill:#fa9769;}.cls-22{fill:#1f1a17;}.cls-23{opacity:0.8;}.cls-24{fill:#de6049;}.cls-25{fill:#80221d;}.cls-26{fill:#fff9f0;}.cls-27{fill:#e8dac5;}</style><clipPath id="clip-path" transform="translate(0.01)"><circle class="cls-1" cx="33" cy="33" r="33"/></clipPath></defs><g id="Layer_2" data-name="Layer 2"><g id="avatars"><g class="cls-2"><rect class="cls-3" width="66" height="66"/><path class="cls-4" d="M31.78,59.45,28.89,56c-4.18,1.22-5.86,4.61-6.41,10H28C28.24,63.22,30.89,60.15,31.78,59.45Z" transform="translate(0.01)"/><polygon class="cls-5" points="23.25 61.65 22.64 63.99 27.65 64.26 27.57 61.92 23.25 61.65"/><polygon class="cls-6" points="22.64 63.99 22.48 66 27.85 66 27.65 64.26 22.64 63.99"/><path class="cls-4" d="M42.12,56l-2.9,3.44c.9.7,3.55,3.77,3.77,6.55h5.54C48,60.62,46.29,57.23,42.12,56Z" transform="translate(0.01)"/><polygon class="cls-5" points="43.45 61.92 43.38 64.26 48.39 63.99 47.78 61.65 43.45 61.92"/><polygon class="cls-6" points="43.38 64.26 43.18 66 48.54 66 48.39 63.99 43.38 64.26"/><path class="cls-5" d="M43.76,64.42c0-.6-16.85-.5-16.83.13,0,.44,0,.93.07,1.45H43.69C43.71,65.43,43.74,64.9,43.76,64.42Z" transform="translate(0.01)"/><path class="cls-6" d="M35.22,54.63c-8.37,0-9.39,2.62-9.27,2.92a15.32,15.32,0,0,1,.94,4.68c0,.57,0,1.1,0,1.62,0,1.12,16.8,1.08,16.84-.05,0-.51,0-1,0-1.6a10.29,10.29,0,0,1,1.06-4.81C45,57.1,43.84,54.59,35.22,54.63Z" transform="translate(0.01)"/><path class="cls-4" d="M38.54,54.6c-.25-.17-.39,0-.63-.16s0-3.39,0-3.39h-5.1s.28,3.23,0,3.39-.39,0-.64.16c-1.49,1-4.69,5.95-5.3,7a7.66,7.66,0,0,0,0,2.79c1.58.68,15.26.68,16.85,0a7.9,7.9,0,0,0,0-2.79C43.23,60.55,40,55.57,38.54,54.6Z" transform="translate(0.01)"/><polygon class="cls-7" points="35.23 51.04 34.96 66 35.86 66 36.14 51.06 35.23 51.04"/><path class="cls-7" d="M35.66,55.09c-.73,0-2.07,3.38-1.93,3.59.3.43,2.8.51,3.1.18S36.18,55.11,35.66,55.09Z" transform="translate(0.01)"/><path class="cls-8" d="M27.85,34.33a5.5,5.5,0,0,0-3-1.48,7,7,0,0,0-4.68.8,13,13,0,0,0-4,3.66c-.86,1.22-2.31,2.42-2.61,3.93-.21,1.08.22,2.26,1.32,1.17a11.84,11.84,0,0,0-.29,3.51c0,1.33.78,2.35,1.87.88-.05,1.11-.15,5.87,1.67,3.3.25.88.15,2.31.8,3,.81.89,1.6-.34,1.89-1,.12.76.27,1.95,1.29,2.07s1.69-1.16,1.95-1.9c.37,1.92,1.52.52,2.2-.25.63,1.44,2.27,1,3.24,0,2.63-2.56,2-7.08,1.68-10.34A12,12,0,0,0,27.85,34.33Z" transform="translate(0.01)"/><path class="cls-9" d="M28.21,32.67c-14.8.11-17,8-17.87,11.36l-.05.22a1.15,1.15,0,0,0,.8,1.41,1.1,1.1,0,0,0,.31,0,1.15,1.15,0,0,0,1.11-.84l.06-.22c.91-3.35,2.6-9.57,15.66-9.67a1.15,1.15,0,0,0,0-2.3Z" transform="translate(0.01)"/><path class="cls-9" d="M28,34.38c-11.77-.3-16.17,9.81-16.85,15.21a1.14,1.14,0,0,0,1,1.28h.14a1.14,1.14,0,0,0,1.14-1c.07-.56,1.85-13.53,14.51-13.2a1.15,1.15,0,0,0,.06-2.3Z" transform="translate(0.01)"/><path class="cls-9" d="M27.71,33.27C19.82,37.44,15.2,43.2,13.17,51.4A1.15,1.15,0,0,0,14,52.8l.28,0A1.15,1.15,0,0,0,15.4,52c1.18-4.73,3.84-11.61,13.39-16.66a1.15,1.15,0,1,0-1.08-2Z" transform="translate(0.01)"/><path class="cls-9" d="M29.36,35.16c-10.1,3.53-12.75,13.49-13.44,19.11a1.15,1.15,0,0,0,1,1.29h.14a1.15,1.15,0,0,0,1.14-1C19,48.33,21.65,40.3,30.12,37.33a1.15,1.15,0,1,0-.76-2.17Z" transform="translate(0.01)"/><path class="cls-9" d="M31.39,36.55c-10.2,3.69-12,12.94-12.55,19.58a1.15,1.15,0,0,0,1.06,1.24H20a1.15,1.15,0,0,0,1.15-1.06c.49-6.51,2.19-14.39,11-17.6a1.15,1.15,0,1,0-.78-2.16Z" transform="translate(0.01)"/><path class="cls-9" d="M31.4,38.62c-7.65,3.25-9.07,11.75-9.23,16.52a1.15,1.15,0,0,0,1.12,1.19h0a1.16,1.16,0,0,0,1.15-1.11c.14-4.23,1.35-11.73,7.82-14.48a1.15,1.15,0,1,0-.9-2.12Z" transform="translate(0.01)"/><path class="cls-9" d="M32.2,39.85c-5.74,3.27-6.92,9-6.9,13.33a1.15,1.15,0,0,0,1.15,1.14h0a1.14,1.14,0,0,0,1.14-1.15c0-3.67,1-8.6,5.74-11.32a1.14,1.14,0,0,0,.43-1.57A1.15,1.15,0,0,0,32.2,39.85Z" transform="translate(0.01)"/><path class="cls-9" d="M32.63,41.63c-3.69,2.7-4.24,7.57-4.24,10.24a1.15,1.15,0,0,0,2.3,0c0-1.8.32-6.2,3.3-8.38a1.15,1.15,0,1,0-1.36-1.86Z" transform="translate(0.01)"/><path class="cls-10" d="M27.21,37.08c-2-1.66-5.91-2.84-8.54-2.19l-.45.13c-2.58.9-2.82,4.73-1.71,7.57,1.51,3.87,4.33,4.64,5.63,3.12.61,2.32,4.57,6.84,7.44,6.32,2.23-.4,2-2.81,2.41-4.54C33.08,43.4,30.2,39.55,27.21,37.08Z" transform="translate(0.01)"/><g class="cls-11"><path class="cls-12" d="M19.43,35.5c-2.43.62-4.75,3.13-5.78,5.28a.38.38,0,0,0,.18.51.33.33,0,0,0,.17,0,.38.38,0,0,0,.34-.22c1-2,3.08-4.3,5.28-4.87a.38.38,0,0,0,.28-.46A.38.38,0,0,0,19.43,35.5Z" transform="translate(0.01)"/></g><g class="cls-11"><path class="cls-12" d="M19.24,39.09a11.25,11.25,0,0,0-3.76,5,.38.38,0,0,0,.22.49.35.35,0,0,0,.14,0,.39.39,0,0,0,.36-.25,10.67,10.67,0,0,1,3.46-4.66.38.38,0,1,0-.42-.64Z" transform="translate(0.01)"/></g><g class="cls-11"><path class="cls-12" d="M19.35,42.93a.39.39,0,0,0-.53.12,15.84,15.84,0,0,0-2.2,4.72.39.39,0,0,0,.28.47H17a.38.38,0,0,0,.38-.29,15.24,15.24,0,0,1,2.1-4.5A.39.39,0,0,0,19.35,42.93Z" transform="translate(0.01)"/></g><g class="cls-11"><path class="cls-12" d="M21.52,43.73a19.49,19.49,0,0,0-2.14,4.59l-.21.57a.38.38,0,0,0,.23.49.3.3,0,0,0,.13,0,.38.38,0,0,0,.36-.25l.21-.57a18.74,18.74,0,0,1,2-4.42.38.38,0,1,0-.63-.43Z" transform="translate(0.01)"/></g><g class="cls-11"><path class="cls-12" d="M23.68,46a11.42,11.42,0,0,0-1.91,5,.39.39,0,0,0,.31.44h.07a.38.38,0,0,0,.37-.32,10.76,10.76,0,0,1,1.77-4.67.39.39,0,1,0-.61-.47Z" transform="translate(0.01)"/></g><g class="cls-11"><path class="cls-12" d="M25.74,48a.4.4,0,0,0-.44.33c0,.28-.09.56-.14.84a10.79,10.79,0,0,0-.25,2.14.4.4,0,0,0,.39.38h0a.39.39,0,0,0,.38-.39,10.57,10.57,0,0,1,.23-2q.09-.44.15-.87A.39.39,0,0,0,25.74,48Z" transform="translate(0.01)"/></g><g class="cls-11"><path class="cls-12" d="M28.25,49.8a.39.39,0,0,0-.48.27,7.55,7.55,0,0,0-.24,2.19.37.37,0,0,0,.38.37h0a.37.37,0,0,0,.37-.39,7.12,7.12,0,0,1,.22-2A.38.38,0,0,0,28.25,49.8Z" transform="translate(0.01)"/></g><path class="cls-13" d="M46.57,36.42c-.36,1-1.84,6.53-1.65,7.66l0,.15a3.61,3.61,0,0,0,2.52.34c2.73-.76,5.27-8.16,2.51-10.63C48.64,32.76,47.5,33.88,46.57,36.42Z" transform="translate(0.01)"/><path class="cls-14" d="M18.48,20.7c-1,4.93-1.27,11.46,1.1,16.17,1.24,2.45,4.19.81,6.27.3,2.57-.64,5.14-1.22,7.73-1.78,4.23-.94,9.65-1.82,12.41,1.5s4.39.79,4.39-2c0-3.39.87-9,0-12.72C46.19,4.08,21.19,7.76,18.48,20.7Z" transform="translate(0.01)"/><path class="cls-15" d="M33.17,15.68C21.65,17.25,19.83,27.79,21,38.12c.84,7.74,7.77,16.38,15.53,16S50.49,42.47,49.56,33C48.56,22.62,46.33,13.89,33.17,15.68Z" transform="translate(0.01)"/><path class="cls-15" d="M18.4,33.76c-3.77.93-1.56,9.7,1.28,11.29,1.13.63,2.4.21,2.95-1.72.64-1-.15-4.73-.8-7.08C21.31,34.34,20.21,33.32,18.4,33.76Z" transform="translate(0.01)"/><path class="cls-16" d="M19.66,35.81c-.83-.41-2.95.23-2,1.91.56-1.52,1.47-.49,1.3.59-.12.73-.9.71-.15,1.67.41.52,1.26.35,1.7.09C21.89,39.25,20.68,36.31,19.66,35.81Z" transform="translate(0.01)"/><path class="cls-14" d="M40.85,22h0S40.86,22,40.85,22Z" transform="translate(0.01)"/><path class="cls-14" d="M34.29,13.66c-9.34-.07-16,6.64-15.37,20a2.37,2.37,0,0,1,1.77.56,4.48,4.48,0,0,1,1,2c.1.21.21.56,1,.53a18.34,18.34,0,0,1-.74-5.61,21.49,21.49,0,0,1,.19-2.66c.09-.63.58-1.79.08-2.32.89-.47.45-1.73.29-2.45a2,2,0,0,0,2-2,1.86,1.86,0,0,0,1.87-.54,2.44,2.44,0,0,0,4.66,0,1,1,0,0,0,1.09.33c0,2.1,4.71,2.12,4.45.11.83.15.86,1.36,1.84,1.62A2,2,0,0,0,40.86,22h0s0,0,0,0h0c.28.89,1.76.84,2.45.66a4,4,0,0,0,1.85-1.34A1.12,1.12,0,0,0,47,22c-.77.72,1,2.16,1.17,2.67C49.56,28,49.29,13.79,34.29,13.66Z" transform="translate(0.01)"/><path class="cls-17" d="M20,41a1.86,1.86,0,0,0,.7,3.59A1.85,1.85,0,0,0,20,41Z" transform="translate(0.01)"/><path class="cls-9" d="M33.05,8.7c-5,.41-9,2.32-11.73,5.67-5.08,6.18-4.5,15.32-4.2,18a1.18,1.18,0,0,0,1.26,1.06,1.11,1.11,0,0,0,1-1.18v-.14c-.27-2.43-.82-10.78,3.69-16.26C25.44,13,28.85,11.35,33.24,11c4.74-.4,8.54.82,11.27,3.6,4.84,4.92,5.4,13.69,5,18.1a1.15,1.15,0,0,0,1,1.26h.11a1.15,1.15,0,0,0,1.15-1C51.9,31.6,52.85,19.78,46.15,13,42.92,9.69,38.51,8.26,33.05,8.7Z" transform="translate(0.01)"/><path class="cls-9" d="M37.71,8.8a1.15,1.15,0,0,0-.58,1.52c1.77,4,1.79,8.39.91,10.53a1.15,1.15,0,0,0,.62,1.51,1.11,1.11,0,0,0,.44.08,1.13,1.13,0,0,0,1.06-.71c1.28-3.09.89-8.28-.93-12.35A1.15,1.15,0,0,0,37.71,8.8Z" transform="translate(0.01)"/><path class="cls-9" d="M45.64,12.07a1.17,1.17,0,0,0-1,1.27,8.62,8.62,0,0,1-2.31,6.8A1.15,1.15,0,0,0,44,21.7a11,11,0,0,0,2.91-8.6A1.17,1.17,0,0,0,45.64,12.07Z" transform="translate(0.01)"/><path class="cls-9" d="M23.39,20.66a7,7,0,0,1-2.84-3.83,1.15,1.15,0,1,0-2.25.48,9.18,9.18,0,0,0,3.82,5.28,1.16,1.16,0,1,0,1.27-1.93Z" transform="translate(0.01)"/><path class="cls-9" d="M33.88,8.44A1.16,1.16,0,0,0,33.47,10a19.46,19.46,0,0,1,2.26,9.25,1.15,1.15,0,0,0,1.11,1.18h0A1.15,1.15,0,0,0,38,19.34a21.64,21.64,0,0,0-2.57-10.5A1.17,1.17,0,0,0,33.88,8.44Z" transform="translate(0.01)"/><path class="cls-9" d="M29,10.17a1.15,1.15,0,1,0-2.12.9c1.67,3.93,3,8.28,3,8.32a1.15,1.15,0,0,0,1.1.82,1.26,1.26,0,0,0,.33-.05,1.14,1.14,0,0,0,.77-1.43C32.07,18.54,30.75,14.22,29,10.17Z" transform="translate(0.01)"/><path class="cls-9" d="M41.49,9.86a1.16,1.16,0,0,0-.66,1.49,10.07,10.07,0,0,1,.5,5.53,1.15,1.15,0,0,0,.84,1.39,1.35,1.35,0,0,0,.28,0,1.15,1.15,0,0,0,1.12-.88A12.46,12.46,0,0,0,43,10.52,1.15,1.15,0,0,0,41.49,9.86Z" transform="translate(0.01)"/><path class="cls-9" d="M23.05,14a1.15,1.15,0,0,0-2.28.35A10.42,10.42,0,0,0,24,20.41a1.16,1.16,0,0,0,.73.26,1.15,1.15,0,0,0,.89-.42,1.16,1.16,0,0,0-.15-1.62A8.14,8.14,0,0,1,23.05,14Z" transform="translate(0.01)"/><path class="cls-9" d="M35.12,19.36A22,22,0,0,0,32,9.31a1.15,1.15,0,1,0-2,1.19,19.84,19.84,0,0,1,2.8,9.09c.07.7.13,1.3.24,1.84a1.15,1.15,0,0,0,1.13.91.9.9,0,0,0,.23,0,1.15,1.15,0,0,0,.9-1.36A14.73,14.73,0,0,1,35.12,19.36Z" transform="translate(0.01)"/><path class="cls-9" d="M25.76,11.71a1.15,1.15,0,0,0-2.21.67,25.43,25.43,0,0,0,4.62,9.22,1.15,1.15,0,0,0,.89.42,1.16,1.16,0,0,0,.73-.26,1.15,1.15,0,0,0,.15-1.62A22.82,22.82,0,0,1,25.76,11.71Z" transform="translate(0.01)"/><path class="cls-9" d="M48.94,15.77a1.14,1.14,0,0,0-1.32.94,6.76,6.76,0,0,1-1.42,2.56,1.14,1.14,0,0,0,.86,1.91,1.18,1.18,0,0,0,.86-.38,8.89,8.89,0,0,0,2-3.71A1.15,1.15,0,0,0,48.94,15.77Z" transform="translate(0.01)"/><path class="cls-9" d="M50,19.72l-1.84,1.34a1.15,1.15,0,0,0-.25,1.61,1.15,1.15,0,0,0,1.6.25l1.85-1.33A1.16,1.16,0,0,0,50,19.72Z" transform="translate(0.01)"/><path class="cls-9" d="M21.62,23.42A7.92,7.92,0,0,1,19,20.7a1.15,1.15,0,1,0-2.12.9,10.09,10.09,0,0,0,3.52,3.76,1.15,1.15,0,0,0,1.24-1.94Z" transform="translate(0.01)"/><path class="cls-9" d="M50.76,23l-1.11.31A1.15,1.15,0,0,0,50,25.55a1.54,1.54,0,0,0,.3,0l1.11-.31A1.15,1.15,0,0,0,50.76,23Z" transform="translate(0.01)"/><path class="cls-9" d="M51,25.91l-.79.19a1.15,1.15,0,0,0,.26,2.27,1.24,1.24,0,0,0,.27,0l.78-.19a1.14,1.14,0,0,0,.86-1.38A1.15,1.15,0,0,0,51,25.91Z" transform="translate(0.01)"/><path class="cls-9" d="M50.81,29l-.33.07a1.15,1.15,0,0,0,.22,2.28.83.83,0,0,0,.22,0l.34-.06A1.15,1.15,0,0,0,50.81,29Z" transform="translate(0.01)"/><path class="cls-9" d="M51.06,31.69l-.36,0a1.15,1.15,0,0,0-.16,2.3l.37,0H51a1.16,1.16,0,0,0,1.15-1.08A1.15,1.15,0,0,0,51.06,31.69Z" transform="translate(0.01)"/><path class="cls-9" d="M21.14,26.24,17.5,24.35a1.15,1.15,0,0,0-1.55.49,1.17,1.17,0,0,0,.49,1.56l3.64,1.88a1.12,1.12,0,0,0,.53.13,1.15,1.15,0,0,0,.53-2.17Z" transform="translate(0.01)"/><path class="cls-9" d="M20.67,29l-3.15-1.39a1.15,1.15,0,1,0-.93,2.1l3.15,1.4a1.25,1.25,0,0,0,.46.09,1.15,1.15,0,0,0,1.06-.68A1.16,1.16,0,0,0,20.67,29Z" transform="translate(0.01)"/><path class="cls-9" d="M20.87,32l-2.93-1a1.16,1.16,0,0,0-1.46.72,1.14,1.14,0,0,0,.72,1.46l2.93,1a1,1,0,0,0,.37.07A1.16,1.16,0,0,0,20.87,32Z" transform="translate(0.01)"/><g class="cls-11"><path class="cls-12" d="M40.31,11.57a.38.38,0,0,0-.18.51,11.24,11.24,0,0,1,.63,5.83.39.39,0,0,0,.31.44h.07a.39.39,0,0,0,.38-.31,12.15,12.15,0,0,0-.7-6.31A.38.38,0,0,0,40.31,11.57Z" transform="translate(0.01)"/></g><g class="cls-11"><path class="cls-12" d="M44.38,14.66a.37.37,0,0,0-.49.23l-.21.56c-.24.67-.55,1.53-.76,2.19a.39.39,0,0,0,.25.48l.12,0a.37.37,0,0,0,.36-.27c.21-.65.52-1.49.75-2.15l.21-.57A.38.38,0,0,0,44.38,14.66Z" transform="translate(0.01)"/></g><g class="cls-11"><path class="cls-12" d="M47,16.88a.37.37,0,0,0-.49.22c-.11.29-.25.57-.38.84s-.26.52-.36.78a.39.39,0,0,0,.21.5.4.4,0,0,0,.15,0,.38.38,0,0,0,.35-.24c.1-.24.22-.49.34-.73s.29-.6.41-.91A.38.38,0,0,0,47,16.88Z" transform="translate(0.01)"/></g><g class="cls-11"><path class="cls-12" d="M48.84,20a2.9,2.9,0,0,0-1,.68.38.38,0,0,0,0,.54.43.43,0,0,0,.27.11.43.43,0,0,0,.28-.11,2.13,2.13,0,0,1,.75-.51.38.38,0,1,0-.28-.71Z" transform="translate(0.01)"/></g><g class="cls-11"><path class="cls-12" d="M36.6,10.83a.38.38,0,0,0-.16.52,8.69,8.69,0,0,1,1.14,5.39.39.39,0,0,0,.33.44H38a.39.39,0,0,0,.38-.33A9.5,9.5,0,0,0,37.12,11,.38.38,0,0,0,36.6,10.83Z" transform="translate(0.01)"/></g><g class="cls-11"><path class="cls-12" d="M35.31,15.33A8.55,8.55,0,0,0,34,11a.38.38,0,1,0-.61.46,7.9,7.9,0,0,1,1.18,3.95,12.15,12.15,0,0,0,.61,3,.4.4,0,0,0,.36.25.35.35,0,0,0,.14,0,.38.38,0,0,0,.22-.5A11.58,11.58,0,0,1,35.31,15.33Z" transform="translate(0.01)"/></g><g class="cls-11"><path class="cls-12" d="M30.63,12.23a.39.39,0,0,0-.49-.24.38.38,0,0,0-.23.49c.16.48.36,1,.57,1.45a13.07,13.07,0,0,1,1,3.35.38.38,0,0,0,.38.34h0a.38.38,0,0,0,.34-.42,13.43,13.43,0,0,0-1.09-3.56C31,13.16,30.79,12.69,30.63,12.23Z" transform="translate(0.01)"/></g><g class="cls-11"><path class="cls-12" d="M27.25,13.15a.39.39,0,0,0-.4-.36.37.37,0,0,0-.36.4,8.67,8.67,0,0,0,1.87,5.19.38.38,0,0,0,.54,0,.38.38,0,0,0,0-.54A8,8,0,0,1,27.25,13.15Z" transform="translate(0.01)"/></g><g class="cls-11"><path class="cls-12" d="M23.68,15a.38.38,0,0,0-.49-.22.38.38,0,0,0-.23.49,8.92,8.92,0,0,0,2.11,3.63.35.35,0,0,0,.25.1.4.4,0,0,0,.29-.14.37.37,0,0,0-.05-.54A8.6,8.6,0,0,1,23.68,15Z" transform="translate(0.01)"/></g><g class="cls-11"><path class="cls-12" d="M23.06,19.34a4.06,4.06,0,0,1-1.18-1.25q-.24-.35-.48-.66a.39.39,0,0,0-.6.5,5.52,5.52,0,0,1,.45.6A4.62,4.62,0,0,0,22.69,20a.31.31,0,0,0,.18,0,.38.38,0,0,0,.19-.72Z" transform="translate(0.01)"/></g><g class="cls-11"><path class="cls-12" d="M20.27,21.09a.38.38,0,1,0-.71.28,4.43,4.43,0,0,0,1.53,1.8.4.4,0,0,0,.54-.08.39.39,0,0,0-.08-.54A3.7,3.7,0,0,1,20.27,21.09Z" transform="translate(0.01)"/></g><g class="cls-11"><path class="cls-12" d="M20.62,24.78A4.83,4.83,0,0,1,19.18,24a.37.37,0,0,0-.53.07.39.39,0,0,0,.07.54,5.55,5.55,0,0,0,1.68.95h.11a.38.38,0,0,0,.37-.27A.39.39,0,0,0,20.62,24.78Z" transform="translate(0.01)"/></g><g class="cls-11"><path class="cls-12" d="M18.48,27.41a.37.37,0,0,0-.52.14.38.38,0,0,0,.13.52,4.92,4.92,0,0,1,.83.61.36.36,0,0,0,.26.11.39.39,0,0,0,.28-.12.38.38,0,0,0,0-.54A4.72,4.72,0,0,0,18.48,27.41Z" transform="translate(0.01)"/></g><g class="cls-11"><path class="cls-12" d="M20.05,30.89a3.28,3.28,0,0,0-1.42-.5.39.39,0,0,0-.43.34.38.38,0,0,0,.35.42,2.66,2.66,0,0,1,1.09.39.36.36,0,0,0,.2.06.38.38,0,0,0,.21-.71Z" transform="translate(0.01)"/></g><path class="cls-18" d="M35.56,9.08a1.15,1.15,0,1,0-2.19.7c.25.79.57,1.6.92,2.47A17.73,17.73,0,0,1,35.73,17a1.15,1.15,0,0,0,1.14,1.07H37A1.15,1.15,0,0,0,38,16.82a18.75,18.75,0,0,0-1.59-5.42C36.1,10.57,35.79,9.79,35.56,9.08Z" transform="translate(0.01)"/><path class="cls-18" d="M37.67,9a1,1,0,0,0-.33,1.35,18,18,0,0,1,1.38,8.22,1,1,0,0,0,.88,1.08h.1a1,1,0,0,0,1-.89A19.21,19.21,0,0,0,39,9.34,1,1,0,0,0,37.67,9Z" transform="translate(0.01)"/><path class="cls-18" d="M41.64,10.11a1,1,0,0,0-.11,1.33,16.44,16.44,0,0,1,.09,4.69,1,1,0,0,0,.88,1.08h.1a1,1,0,0,0,1-.89c.08-.84.43-5.07-.54-6.15A1,1,0,0,0,41.64,10.11Z" transform="translate(0.01)"/><path class="cls-18" d="M45.79,12.54h0a1,1,0,0,0-1,1A11,11,0,0,1,43.37,19a1,1,0,0,0,.28,1.37A1,1,0,0,0,45,20.12a12.72,12.72,0,0,0,1.76-6.62A1,1,0,0,0,45.79,12.54Z" transform="translate(0.01)"/><path class="cls-18" d="M48.13,16.44a3.83,3.83,0,0,0-.41.81,3.37,3.37,0,0,1-.58,1.06,1,1,0,0,0,.68,1.7,1,1,0,0,0,.68-.27,4.86,4.86,0,0,0,1-1.75,3.08,3.08,0,0,1,.16-.35,1,1,0,0,0-.17-1.37A1,1,0,0,0,48.13,16.44Z" transform="translate(0.01)"/><path class="cls-18" d="M49.77,20.08l-.54.36-.39.26A1,1,0,1,0,50,22.28l.29-.19a5.86,5.86,0,0,0,.78-.54,1,1,0,0,0-1.31-1.47Z" transform="translate(0.01)"/><path class="cls-18" d="M30.57,9a1,1,0,0,0-.44,1.33,39,39,0,0,1,2.73,8,1,1,0,0,0,1,.85H34A1,1,0,0,0,34.81,18a39.74,39.74,0,0,0-2.92-8.57A1,1,0,0,0,30.57,9Z" transform="translate(0.01)"/><path class="cls-18" d="M30.39,14.15a22.76,22.76,0,0,0-1.6-4.07,1,1,0,1,0-1.64,1.09,26,26,0,0,1,1.37,3.61c.33,1,.62,1.83.83,2.29a1,1,0,0,0,1.79-.81C31,15.89,30.69,15.05,30.39,14.15Z" transform="translate(0.01)"/><path class="cls-18" d="M26.59,14.18a15.18,15.18,0,0,0-1.11-2.68,1,1,0,0,0-1.65,1.08,17.24,17.24,0,0,1,.91,2.27c.7,1.92,1.48,4.09,2.42,5.11a1,1,0,0,0,.73.32,1,1,0,0,0,.72-1.66A17.76,17.76,0,0,1,26.59,14.18Z" transform="translate(0.01)"/><path class="cls-18" d="M22.89,14.09a1,1,0,0,0-1-.93,1,1,0,0,0-.92,1A12.43,12.43,0,0,0,23,19.39a1,1,0,0,0,.71.3.94.94,0,0,0,.68-.28,1,1,0,0,0,0-1.39A11.77,11.77,0,0,1,22.89,14.09Z" transform="translate(0.01)"/><path class="cls-18" d="M20.42,17a1,1,0,1,0-1.86.65,21.69,21.69,0,0,0,2.63,4,1,1,0,0,0,.7.28,1,1,0,0,0,.7-.29,1,1,0,0,0,0-1.39A22.84,22.84,0,0,1,20.42,17Z" transform="translate(0.01)"/><path class="cls-18" d="M18.86,20.86a1,1,0,1,0-1.65,1.07,13,13,0,0,0,1.46,1.63,1,1,0,0,0,.65.25,1,1,0,0,0,.74-.34A1,1,0,0,0,20,22.08,11.92,11.92,0,0,1,18.86,20.86Z" transform="translate(0.01)"/><path class="cls-18" d="M18.1,24.67a1,1,0,1,0-.94,1.73c.23.13.47.28.7.43a.94.94,0,0,0,.55.17,1,1,0,0,0,.82-.42A1,1,0,0,0,19,25.21,8.91,8.91,0,0,0,18.1,24.67Z" transform="translate(0.01)"/><path class="cls-18" d="M50.25,23.48a1,1,0,0,0-1.09.84A1,1,0,0,0,50,25.43h.26A1.83,1.83,0,0,0,51,25.3a1,1,0,0,0-.76-1.82Z" transform="translate(0.01)"/><path class="cls-18" d="M51.29,26.51a1.37,1.37,0,0,0-1.46.5,1,1,0,0,0,.22,1.38,1,1,0,0,0,.58.18,1,1,0,0,0,.48-.12,1,1,0,0,0,.18-1.94Z" transform="translate(0.01)"/><path class="cls-19" d="M28.71,31.43c-2.21-.77-3.29,3.14-1.73,4.28a3.09,3.09,0,0,1,2.14,0C30.51,34.88,30.36,32,28.71,31.43Z" transform="translate(0.01)"/><path class="cls-19" d="M47.66,31.62c-2.16-1.38-3.88,2.81-2.11,4.05a2.83,2.83,0,0,1,2.28.06C48.74,34.78,48.81,32.35,47.66,31.62Z" transform="translate(0.01)"/><path class="cls-20" d="M28,32.8c-.85.36-.06,2,.74,1.33C29.31,33.64,28.74,32.48,28,32.8Z" transform="translate(0.01)"/><path class="cls-20" d="M46.69,32.52c-.87.15-.5,1.86.39,1.4C47.73,33.59,47.46,32.39,46.69,32.52Z" transform="translate(0.01)"/><path class="cls-21" d="M48.77,37.9a3.18,3.18,0,0,0-2.78-1c-1.19,0-2.79.52-1.77,2.28.55.94,5.3,1.51,4.8-.68A2.1,2.1,0,0,0,48.77,37.9Z" transform="translate(0.01)"/><path class="cls-21" d="M30.11,37.68c-.87-.81-2.34-.68-3.36-.46-1.33.28-3,1.16-1.38,2.8.85.87,6.3.43,5.17-1.77A2.25,2.25,0,0,0,30.11,37.68Z" transform="translate(0.01)"/><path class="cls-22" d="M47,31.31c-1.42-.24-1.84,1.4-1.84,1.4s.58-.54,2.3,0A3.71,3.71,0,0,0,51.74,31C49.88,33,47.92,31.47,47,31.31Z" transform="translate(0.01)"/><path class="cls-22" d="M28,31.31c-1,.16-2.93,1.64-4.8-.35a3.71,3.71,0,0,0,4.34,1.71c1.72-.5,2.3,0,2.3,0S29.45,31.07,28,31.31Z" transform="translate(0.01)"/><path class="cls-16" d="M37.84,39.15c-.88,0-1.23-.38-1.85,0s.7,1.56,1.8,1.48,2.28-1.09,2-1.46S38.83,39.15,37.84,39.15Z" transform="translate(0.01)"/><path class="cls-17" d="M28.32,27.68a4.72,4.72,0,0,0-4.57,1.7c.45-.14.9-.22,1.32-.36,2.23-.72,4.74,1.35,6.14.75.48-.2,1-.56,1.12-1.07C30.77,29.18,29.71,27.93,28.32,27.68Z" transform="translate(0.01)"/><path class="cls-17" d="M46.48,27.81c-1.39.21-2.48,1.43-4,.92.08.51.63.88,1.1,1.1,1.39.62,3.1-1.31,5.15-.73a1.48,1.48,0,0,1,.8.53C49.46,29.39,49.57,27.34,46.48,27.81Z" transform="translate(0.01)"/><g class="cls-23"><path class="cls-24" d="M27.6,42.06c4.16,6.21,6.65,7.3,9.77,7.4,3.91.13,5.17-2.5,5.71-4.46A11.11,11.11,0,0,1,46,41.5c-2.42.63-4.82.4-8.49.61C34.46,42.29,30,43.29,27.6,42.06Z" transform="translate(0.01)"/></g><path class="cls-25" d="M29.47,43.1a9.07,9.07,0,0,0,7.36,4.15c3.12,0,5.14-1.08,5.68-2.53a4.06,4.06,0,0,1,1.9-2.2A31.92,31.92,0,0,1,29.47,43.1Z" transform="translate(0.01)"/><path class="cls-26" d="M31.28,43.43a2.35,2.35,0,0,0,1.92,1.74,16.47,16.47,0,0,0,7.07.1c1.66-.29,2.42-2.34,2.42-2.34A34,34,0,0,1,31.28,43.43Z" transform="translate(0.01)"/><path class="cls-26" d="M38,45.5c-2.22.15-4.07,0-5.2-.63-.81-.47-.87.07-.69.4,0,0,.77,1.74,4.46,2s5.33-1.86,4.92-2.22S40.08,45.37,38,45.5Z" transform="translate(0.01)"/><path class="cls-27" d="M31.28,43.43a2.11,2.11,0,0,0,.46.9S40,43.41,42,44.08a4.31,4.31,0,0,0,.65-1.15A39.59,39.59,0,0,1,31.28,43.43Z" transform="translate(0.01)"/><path class="cls-27" d="M33.5,45.12c3,1.68,6.55.1,6.55.1A12,12,0,0,1,33.5,45.12Z" transform="translate(0.01)"/></g></g></g></svg>