<svg xmlns="http://www.w3.org/2000/svg" xmlns:xlink="http://www.w3.org/1999/xlink" viewBox="0 0 66 66"><defs><style>.cls-1{fill:none;}.cls-2{clip-path:url(#clip-path);}.cls-3{fill:#f1c4b5;}.cls-4{fill:#ff9819;}.cls-5{opacity:0.15;}.cls-6{fill:#108d8e;}.cls-7{fill:#27b3b0;}.cls-8{fill:#0a6f72;}.cls-9{fill:#323240;}.cls-10{fill:#c93712;}.cls-11{fill:#ffbc82;}.cls-12,.cls-17{fill:#b54319;}.cls-12{opacity:0.2;}.cls-13{fill:#e85216;}.cls-14{fill:#535363;}.cls-15{fill:#747482;}.cls-16{fill:#ff7752;opacity:0.4;}.cls-17{opacity:0.3;}.cls-18{fill:#261b18;}.cls-19{fill:#947463;}.cls-20{fill:#121b21;}.cls-21{fill:#ff3b3b;}.cls-22{fill:#8f2621;}.cls-23{fill:#fff9f0;}.cls-24{fill:#e8dac5;}</style><clipPath id="clip-path" transform="translate(0.01)"><circle class="cls-1" cx="33" cy="33" r="33"/></clipPath></defs><g id="Layer_2" data-name="Layer 2"><g id="avatars"><g class="cls-2"><rect class="cls-3" width="66" height="66"/><path class="cls-4" d="M39.42,61.26c.07-1.6-.33-5-2.14-5.73a14.21,14.21,0,0,0-9.46,0c-2.12.91-2.85,2.2-1.41,6.68.52,1.59,1.1,1.44,1.21,3.12a4.26,4.26,0,0,1,0,.62H38.27C38.59,64.07,39.33,63.48,39.42,61.26Z" transform="translate(0.01)"/><path class="cls-4" d="M27.84,58.14l-1.63-3.21c-2.21,1.12-2.78,3.68-3.38,6.39A23,23,0,0,1,21.42,66h3.89a35.43,35.43,0,0,0,1-3.9C26.74,60.33,27.15,58.49,27.84,58.14Z" transform="translate(0.01)"/><path class="cls-4" d="M40,54.93,38.4,58.14c.7.35,1.11,2.19,1.5,4a35.43,35.43,0,0,0,1,3.9h3.89a23.65,23.65,0,0,1-1.4-4.68C42.81,58.61,42.24,56.05,40,54.93Z" transform="translate(0.01)"/><path class="cls-5" d="M40.34,55.75A3.91,3.91,0,0,0,37,53.62a8.38,8.38,0,0,0-4.44,1c1.86.92,2.33,6.4,2.49,9.85,0,.5,0,1,0,1.56h5.09C40.91,62.05,41.26,57.45,40.34,55.75Z" transform="translate(0.01)"/><path class="cls-6" d="M37.15,53.45a9.26,9.26,0,0,0-4.66,1.1c2,.86,3,5.17,3.3,10.09,0,.36,0,.83,0,1.36h6.82c-.18-4.07-.92-8.93-1.88-10.54A4.11,4.11,0,0,0,37.15,53.45Z" transform="translate(0.01)"/><path class="cls-7" d="M40.91,60.2c-.88-.05-.59,2.69-.64,3.28a4.54,4.54,0,0,0-1-1.53,5.68,5.68,0,0,0-.91,2.59c-.3,1.32-1.15-.28-1.47-.59,0,0,0,1.26-.07,2H42C42,64.05,41.89,60.25,40.91,60.2Z" transform="translate(0.01)"/><path class="cls-5" d="M24.45,58.61C26.81,62.35,33,63.12,36,62.2a9.11,9.11,0,0,0,6.42-6.38C44.87,45.55,17.78,48.06,24.45,58.61Z" transform="translate(0.01)"/><path class="cls-6" d="M24,57.79c2.49,3.7,9.06,4.45,12.23,3.53,2.43-.7,5.85-2.54,6.82-6.36C45.67,44.76,17,47.32,24,57.79Z" transform="translate(0.01)"/><path class="cls-8" d="M26.33,52.71c1.74,1.76,6.29,2.76,9.32,2,1.71-.42,4.54-.93,5.3-2.68C43,47.37,21.42,47.72,26.33,52.71Z" transform="translate(0.01)"/><path class="cls-7" d="M36.06,55.59c-.31-.36-1.64.14-3.07.11-2.63,0-2.67-.68-4.09-.72-.31,1.39,2.74,2.17,3.42,2.39-.72,0-2.24-.21-2.84.4-.87.87,0,2,.72,2.31a7,7,0,0,0,3.9.35c.4-.09,1.39-.22,1.53-.81.1-.44-.3-.42-.26-.87s.54-.55.51-1-.4-.49-.86-.51C35.37,57,36.52,56.12,36.06,55.59Z" transform="translate(0.01)"/><path class="cls-9" d="M34.14,12.4c-34-.12-35.49,39.93-.7,36.85C67.94,46.2,63.62,12.5,34.14,12.4Z" transform="translate(0.01)"/><path class="cls-10" d="M19.41,13.43a30.37,30.37,0,0,0-6.17,23.73,32.23,32.23,0,0,0,3.48,10.47c3.87,7.23,10.74,1.56,17.93,2.24,5.8.54,10.48,5.49,14-.39,4.94-8.36,4.88-16.59,3.16-25C48.25,7.16,27.65,3.2,19.41,13.43Z" transform="translate(0.01)"/><path class="cls-11" d="M31.39,16.3c-7.61,1.35-13.15,12.16-11.93,22.41.89,7.61,7.37,15.81,15.19,15.32,9.4-.6,14.15-11.68,13.19-20.72C46.74,23,42,14.42,31.39,16.3Z" transform="translate(0.01)"/><path class="cls-12" d="M44.66,19.39A35.75,35.75,0,0,0,32,16.46c-2.76-.11-6.48-.35-9.09.72-3.91,1.6-5.62,4.13-6.23,8-.41,2.66,2.23,5.25,4.25,7,1.48-1.4.83-3.34.82-5,0,2.34,6.43,2.17,7.86,1.67a27.58,27.58,0,0,0,2.68-1.09c2.17-1.05,4.39-2.57,5.05-4.58,1.48,2.37,8.51,7.26,11.16,4.36C50.66,25.18,46.88,20.31,44.66,19.39Z" transform="translate(0.01)"/><path class="cls-10" d="M40.88,12.85c-4-2.16-8.85-2-13.2-1.35-5.14.8-9.19,5.21-11.14,9.65-2.23,5.05-3.92,9.91-3.13,17,.52,4.75,1.85,10.25,7,14.8,2.95,2.59,7.25,5.51,8.38,9.62.79-1.51.7-5.39.19-6.94-1.5-4.54-5.93-6.69-7.28-11.37-1.1-3.82-1.7-7.78,0-11.54,1.43-3.17,5.06-3.83,8.16-5.22,2.89-1.29,6.25-2.94,7.41-6.17a27.23,27.23,0,0,0,5,4.11C44,26.52,45.72,26.93,47,28.7c2.24,3.18,2.35,7.6,1.29,11.22-1.4,4.79-4.64,9.48-9.17,13.8-2.21,2.11-2.41,6.51-.85,10.34,1.35-8.78,8.45-8.55,11.8-17.25A28.89,28.89,0,0,0,48.42,22C46.35,18.41,44.65,14.91,40.88,12.85Z" transform="translate(0.01)"/><path class="cls-13" d="M16.53,25.9c-.77.91.5,1.41,1.64,1.64.75.14,3.5-.46,3.68-1.44-.21,1.17-1.2,2.14-1.6,3.3a29.21,29.21,0,0,0,12.42-5.58c.58-.48,4.53-4.47,3.9-5.26,3.24,4.07,7,6.67,11.8,4.87C37,11.73,20,21.88,16.53,25.9Z" transform="translate(0.01)"/><path class="cls-13" d="M19.8,42.26c-1.31-2.07-3.56-2.8-4.57-5.19,0,0,.23,9.72,5.28,13.81a6.93,6.93,0,0,1-.36-3.26C20.52,45.56,21,44.24,19.8,42.26Z" transform="translate(0.01)"/><path class="cls-13" d="M47.22,46.3c-1.22.76-2.14,1.09-2.59,2.64s.41,2.67-.93,4.53c0,0,5.26-1.57,5-8.84A4.66,4.66,0,0,1,47.22,46.3Z" transform="translate(0.01)"/><path class="cls-14" d="M39.89,4.09c-3.14-2.23-13.37-2.08-17,.62-2.26,1.69-5.38,11.56-5.38,11.56l29.4-1.56S41.39,5.16,39.89,4.09Z" transform="translate(0.01)"/><path class="cls-15" d="M18.66,13a29,29,0,0,0-1.12,3.27l29.4-1.56s-.71-1.25-2.09-3.49C42.37,7.19,20.55,8.08,18.66,13Z" transform="translate(0.01)"/><path class="cls-9" d="M33.33,11.4C12.11,12.43,7.11,24.6,8,33.8c.37,3.66,3.88,1.45,5.06-2.78C17.43,15.48,47.15,11,52.58,29.52c1.92,6.59,4.67,7,5.2,1.69C58.68,22.25,53.29,10.43,33.33,11.4Z" transform="translate(0.01)"/><path class="cls-16" d="M46.58,37.09A3.41,3.41,0,0,0,43.8,36c-1.19,0-2.77.41-1.71,2.11.57.91,5.3,1.58,4.75-.5A1.92,1.92,0,0,0,46.58,37.09Z" transform="translate(0.01)"/><path class="cls-16" d="M28.46,36.71a3.6,3.6,0,0,0-3.1-.33c-1.21.3-2.7,1.15-1.18,2.59.81.78,5.8.22,4.69-1.75A1.88,1.88,0,0,0,28.46,36.71Z" transform="translate(0.01)"/><path class="cls-17" d="M36.06,38.42c-1-.05-1-.46-1.66-.15s-.19,1.5,1.55,1.56,2.54-.93,2.2-1.34S37.15,38.48,36.06,38.42Z" transform="translate(0.01)"/><path class="cls-18" d="M45.17,31.92c-2.54-1.08-4.86,2-3,3.68a3.35,3.35,0,0,1,3.59-.11A2.26,2.26,0,0,0,45.17,31.92Z" transform="translate(0.01)"/><path class="cls-19" d="M44.12,32.24c-1.18.37-.63,2.64.58,1.84C45.58,33.51,45.17,31.91,44.12,32.24Z" transform="translate(0.01)"/><path class="cls-18" d="M25.06,32.13a2.26,2.26,0,0,0-.46,3.58,3.35,3.35,0,0,1,3.59,0C30,34,27.56,31,25.06,32.13Z" transform="translate(0.01)"/><path class="cls-19" d="M27.16,32.44c-1.06-.29-1.42,1.31-.53,1.86C27.86,35.06,28.35,32.78,27.16,32.44Z" transform="translate(0.01)"/><path class="cls-18" d="M28.72,28.77a14.56,14.56,0,0,0-3.95.23,6.66,6.66,0,0,0-2.5,1.07,1.1,1.1,0,0,0-.48.73c.22,0,.39-.1.59-.16a12.51,12.51,0,0,1,3.11-.33c.81,0,1.62,0,2.42,0,.55,0,1.28.09,1.58-.44S29.45,28.8,28.72,28.77Z" transform="translate(0.01)"/><path class="cls-18" d="M47.22,29.69a6.39,6.39,0,0,0-2.44-.93,14.26,14.26,0,0,0-3.86-.07c-.7.06-1.1.46-.73,1.09s1,.36,1.54.36c.79,0,1.57-.08,2.36-.09a11.91,11.91,0,0,1,3,.19c.2.05.36.18.57.14C47.71,30.12,47.44,29.84,47.22,29.69Z" transform="translate(0.01)"/><path class="cls-20" d="M44.66,31.49a2.63,2.63,0,0,0-3,1.88,2.39,2.39,0,0,1,2.66-.81,4.29,4.29,0,0,0,5.27-1C47.13,32.73,45.86,31.71,44.66,31.49Z" transform="translate(0.01)"/><path class="cls-20" d="M25.65,31.75c-1.2.23-2.45,1.27-4.93.14a4.28,4.28,0,0,0,5.28.92,2.38,2.38,0,0,1,2.67.78A2.63,2.63,0,0,0,25.65,31.75Z" transform="translate(0.01)"/><path class="cls-21" d="M24.89,41.63C29.13,47.87,31.71,49,35,49.14c4.08.17,5.43-2.43,6-4.37a11.53,11.53,0,0,1,3.07-3.45c-2.53.6-5,.33-8.85.5C32,42,27.4,42.9,24.89,41.63Z" transform="translate(0.01)"/><path class="cls-22" d="M26.82,42.7a9.5,9.5,0,0,0,7.62,4.23c3.25,0,5.37-1,6-2.45a4.15,4.15,0,0,1,2-2.16A35,35,0,0,1,26.82,42.7Z" transform="translate(0.01)"/><path class="cls-23" d="M28.7,43.05s.17,1.28,2,1.75a18,18,0,0,0,7.37.21,4,4,0,0,0,2.56-2.3A37.5,37.5,0,0,1,28.7,43.05Z" transform="translate(0.01)"/><path class="cls-23" d="M35.71,45.2c-2.32.12-4.25,0-5.41-.69-.84-.49-.91.05-.72.38,0,0,.77,1.75,4.62,2.1,3.7.34,5.58-1.78,5.16-2.14S37.85,45.1,35.71,45.2Z" transform="translate(0.01)"/><path class="cls-24" d="M28.7,43.05a2.06,2.06,0,0,0,.47.9s8.66-.8,10.74-.11a4.3,4.3,0,0,0,.7-1.13A43,43,0,0,1,28.7,43.05Z" transform="translate(0.01)"/><path class="cls-24" d="M31,44.76c3.13,1.71,6.83.19,6.83.19A13.17,13.17,0,0,1,31,44.76Z" transform="translate(0.01)"/></g></g></g></svg>