<svg xmlns="http://www.w3.org/2000/svg" xmlns:xlink="http://www.w3.org/1999/xlink" viewBox="0 0 66 66"><defs><style>.cls-1{fill:none;}.cls-2{clip-path:url(#clip-path);}.cls-3{fill:#a55a86;}.cls-4{fill:#94abd4;}.cls-5{fill:#7e92a8;}.cls-6{fill:#fff;}.cls-7{fill:#bacbe3;}.cls-8{fill:#c9beb7;}.cls-9{fill:#ffc38f;}.cls-10{fill:#bf3c1b;opacity:0.2;}.cls-11{fill:#d14f2e;opacity:0.4;}.cls-12{fill:#f0eae6;opacity:0.7;}.cls-13{fill:#ff7752;}.cls-14{fill:#614d45;}.cls-15{fill:#425361;}.cls-16{fill:#c3d5e3;}.cls-17{fill:#121b21;}.cls-18{fill:#ff3b3b;}.cls-19{fill:#7884ab;opacity:0.5;}.cls-20{fill:#f06799;}.cls-21{fill:#de3e78;}.cls-22{fill:#ff87b3;}</style><clipPath id="clip-path" transform="translate(0.01)"><circle class="cls-1" cx="33" cy="33" r="33"/></clipPath></defs><g id="Layer_2" data-name="Layer 2"><g id="avatars"><g class="cls-2"><rect class="cls-3" width="66" height="66"/><path class="cls-4" d="M41.73,64.84c0-6.66,4.52-8.58.4-11.27-2.34-1.52-14.08-2-17,.13-4.22,3.06.82,4.7.67,11.34,0,.33,0,.65,0,1h16C41.74,65.62,41.73,65.23,41.73,64.84Z" transform="translate(0.01)"/><path class="cls-5" d="M46.67,13.46A53.41,53.41,0,0,0,20.77,16C17,17.48,11.1,21.51,6.33,26.28c-1.07.92-.18,1.81,1.77,2.79,5.76,2.89,18.83,2.07,24.23,1.52,7.06-.72,19.23-3.87,23.8-6.63,2.16-1.3,3.31-2.55,2.66-3.55C55.17,18.76,48.06,13.7,46.67,13.46Z" transform="translate(0.01)"/><path class="cls-6" d="M32.79,57.34a.91.91,0,1,0,.91-.91A.9.9,0,0,0,32.79,57.34Z" transform="translate(0.01)"/><path class="cls-6" d="M32.9,62.65a.91.91,0,1,0,.91-.9A.9.9,0,0,0,32.9,62.65Z" transform="translate(0.01)"/><path class="cls-7" d="M29.78,50.88a1.55,1.55,0,0,1,.67-.71c.8-.32,2.22.79,3.13.81s2.39-1,3.25-.88,1.15,2,1.08,2.95c-.19,2.32-5,2-6.42,1.62-.66-.18-1.92-.79-2.14-1.66A3.48,3.48,0,0,1,29.78,50.88Z" transform="translate(0.01)"/><path class="cls-8" d="M53.39,32.33c2.94,0,1.51-6.93,1.27-8.48a16.22,16.22,0,0,0-6-10.57c-6.51-5-13.3-1.5-21-.48s-14.19,5-16.28,9.77c-.83,1.91-3.79,10.27-.09,10.62-1.49,1.61-2.2,6,.91,6.28-.86,2.18-.26,5.09,2.56,4.85.11,2.41,1.3,4.13,3.88,4,0,2.86,2.59,4.42,4.58,2.29,1.45,2.1,3.49.8,5.21-.12s3.86-1.73,5.8-.68c.61.33.87,1,1.59,1.17.29.08,2.55-.35,2.33-.65,1,1.4,3.94,3,4.58.16C44.59,52.2,47,50.15,46.77,48c2.85.43,3.48-2.12,3.21-4.42,2.88-.24,2.88-2.94,2.28-5.24C55.06,38,54.09,34,53.39,32.33Z" transform="translate(0.01)"/><path class="cls-6" d="M48.72,41.13a1.36,1.36,0,1,1-1.37-1.34A1.35,1.35,0,0,1,48.72,41.13Z" transform="translate(0.01)"/><path class="cls-9" d="M18.91,36.89C20.07,44.61,26.16,53,35.14,52.27c9.17-.78,13.59-12.22,12.27-21.73C46,20.2,41,11.63,30.26,13.87,22.61,15.47,17.36,26.56,18.91,36.89Z" transform="translate(0.01)"/><path class="cls-10" d="M47.13,25.21c-1.79,2.62-6.17,3.44-9.39,2.59a4.46,4.46,0,0,0-3.59.23,11.64,11.64,0,0,1-4.62,1.24,8.52,8.52,0,0,1-5.36-1.87,3.4,3.4,0,0,1-3,3.07c.69.9,1.69,3.67-.45,3.27s-2.84-5-2.92-6.63c-.22-4.76-.57-9.81,4.58-12.08C25,13.89,28,14,30.84,14a36.14,36.14,0,0,1,9.32,1.3,23,23,0,0,1,5.26,1.85,5.56,5.56,0,0,1,1.92,1.68c.65,1,.49,2,.59,3.12A4.71,4.71,0,0,1,47.13,25.21Z" transform="translate(0.01)"/><path class="cls-9" d="M17.1,40.24a7.53,7.53,0,0,0,3,.29l.05-.1c.44-.72-.24-4.72-.48-5.47-.6-1.89-1.74-2.87-3.54-2.35C12.43,33.7,14,39.17,17.1,40.24Z" transform="translate(0.01)"/><path class="cls-11" d="M18.54,38.86c1.36-.88,0-3.78-1-4.24-.85-.38-2.95.35-1.93,2,.5-1.54,1.45-.54,1.32.54-.09.74-.87.76-.08,1.68C17.26,39.34,18.11,39.14,18.54,38.86Z" transform="translate(0.01)"/><path class="cls-8" d="M48.59,18a6.28,6.28,0,0,0-1.27-1.89,20,20,0,0,0-10.85-5.45,27.81,27.81,0,0,0-7.89-.12c-4.33.55-9.54,2.58-10.86,7-.8,2.71-.33,5.82-.07,8.56.19,2,0,4.22.73,6.18.34.92,2.94,4.57,3.17,1.58.09-1.31-.9-2.64-1.17-3.89,2.17.79,3.23-2.43,3.67-3.82a10.45,10.45,0,0,0,9.4.9,6.28,6.28,0,0,1,3.36-.72C38,26.48,39,27,40.32,27,45.1,26.93,50.4,22.35,48.59,18Z" transform="translate(0.01)"/><path class="cls-12" d="M27.07,25c-1.65.95-3.54,1.66-5.4.7-.22,1.3-1,3.78-2.31,4.59-1.93,1.19-3-.46-3.6-1.86-1.69,1.84-3.65-.14-3.84-1.8-.4-3.43,4-4.48,6.92-5.05a121.09,121.09,0,0,1,16.25-1.92c2.86-.17,5.69-.23,8.56-.16,2.51.06,6.68-.54,8.73,1.18.73.61,1.62,2.54,1.11,3.44-.37.67-1.89,1.09-1.65-.16-.28,1.5-2,2.53-3,.83-.63-1.06-.36-2.42-1.18-3.5a10.41,10.41,0,0,1-3.39,3.27,7.1,7.1,0,0,1-4.67.45c-2-.44-1.87-.49-3.83.33S28.13,27.52,27.07,25Z" transform="translate(0.01)"/><path class="cls-6" d="M19.63,42.41a1.36,1.36,0,1,1-2.72,0,1.36,1.36,0,0,1,2.72,0Z" transform="translate(0.01)"/><path class="cls-11" d="M25.09,35.42c1.05-.89-2.14-1-2.63-.87.05.63,1.47.33,1.9.43-.37.39-1.49.39-1.94.65s-.44.47.14.46A10.47,10.47,0,0,0,25.09,35.42Z" transform="translate(0.01)"/><path class="cls-11" d="M44.71,34.87c-1.05-.89,2.14-1,2.63-.86-.05.63-1.47.33-1.9.43.38.38,1.49.38,1.94.65s.44.47-.14.45A10.59,10.59,0,0,1,44.71,34.87Z" transform="translate(0.01)"/><path class="cls-13" d="M46.38,37.24a1.47,1.47,0,0,1,.17.5c.31,1.82-3.57,1.09-4,.29-.75-1.5.59-1.82,1.57-1.78A2.65,2.65,0,0,1,46.38,37.24Z" transform="translate(0.01)"/><path class="cls-13" d="M27.38,37.23a1.62,1.62,0,0,1,.28.54c.64,2-3.74,2.08-4.32,1.25-1.08-1.57.34-2.25,1.43-2.43A2.72,2.72,0,0,1,27.38,37.23Z" transform="translate(0.01)"/><path class="cls-14" d="M48.13,29.8c-1.11-1.83-5.79-2.14-7.5-.55A60.8,60.8,0,0,0,48.13,29.8Z" transform="translate(0.01)"/><path class="cls-11" d="M37.46,37.88c.28.3-.54,1.16-1.56,1.26s-2-.87-1.54-1.16.81,0,1.54,0S37.14,37.53,37.46,37.88Z" transform="translate(0.01)"/><path class="cls-14" d="M21.57,29.9c1.61-1.72,6.51-2.35,8.16-.62C27,29.64,25.58,29.59,21.57,29.9Z" transform="translate(0.01)"/><path class="cls-15" d="M26.69,35.65a2.87,2.87,0,0,0-2.06,0c-1.51-1.12-.51-5.06,1.62-4.31C27.84,31.89,28,34.79,26.69,35.65Z" transform="translate(0.01)"/><path class="cls-16" d="M25.89,32.76c.78-.13,1.05,1.13.4,1.47C25.38,34.71,25,32.92,25.89,32.76Z" transform="translate(0.01)"/><path class="cls-15" d="M45.22,31.16c1.14.73,1.05,3,.23,4a2.48,2.48,0,0,0-1.87.3C41.22,34.78,43.09,29.8,45.22,31.16Z" transform="translate(0.01)"/><path class="cls-16" d="M44.37,32.36c.75,0,.84,1.3.19,1.55C43.65,34.25,43.53,32.38,44.37,32.36Z" transform="translate(0.01)"/><path class="cls-17" d="M49.92,31.83a4,4,0,0,1-5,.36,1.8,1.8,0,0,0-2.27.43s.64-2.32,2.59-1.57C46.32,31.46,47.53,32.63,49.92,31.83Z" transform="translate(0.01)"/><path class="cls-17" d="M19.86,32.48a4.44,4.44,0,0,0,5.2.07,2,2,0,0,1,2.37.12s-.58-2.27-2.59-1.19A6.35,6.35,0,0,1,19.86,32.48Z" transform="translate(0.01)"/><path class="cls-18" d="M27.63,39.5c1.11,2.09-1.52,3.08-2.6,1A2,2,0,0,0,27.63,39.5Z" transform="translate(0.01)"/><path class="cls-18" d="M42.41,39.14a1.48,1.48,0,1,0,2.82.8A2.19,2.19,0,0,1,42.41,39.14Z" transform="translate(0.01)"/><path class="cls-18" d="M34.78,46.48a9.39,9.39,0,0,1-8.34-5,.51.51,0,0,1,.32-.71.68.68,0,0,1,.82.34A8.18,8.18,0,0,0,35,45.39c3.64,0,6.77-1.9,7.82-4.82a.61.61,0,0,1,.78-.31.57.57,0,0,1,.41.7c-1.2,3.37-4.75,5.56-8.94,5.53Z" transform="translate(0.01)"/><path class="cls-4" d="M39.36,2.75c8.55.07,8.25,8.18,10.76,13.13-11-3.38-26-2.66-36.85,4.67.31-4.2.25-10.1,2.39-12.39C18.77,4.83,28.93,2.66,39.36,2.75Z" transform="translate(0.01)"/><path class="cls-7" d="M14.3,10.87s-.59-4.94,10.35-6.82c9.55-1.63,16.2-1.69,18.45-.83,2.82,1.07,4,4.5,4,4.5S40.89,3.51,25.54,6.17C17.18,7.62,14.3,10.87,14.3,10.87Z" transform="translate(0.01)"/><path class="cls-7" d="M58,19.23a35.71,35.71,0,0,1-9-5.6c-11.12-3.13-25.8-.46-35.44,4.91a65.64,65.64,0,0,1-6.88,6.69C4.91,26.77,5,28,8.1,29.07c-4-1.73-.67-3.94,1.45-5.09,9.57-5.2,34.07-7.29,46.6-4.42,1.81.41,3.39,1,2.4,2.46C59.83,20.62,59.08,19.71,58,19.23Z" transform="translate(0.01)"/><path class="cls-19" d="M37.31,7.69a3.51,3.51,0,0,0-1.76,4.07,4.31,4.31,0,0,0,2.91,3.13c.59,1.35,1.1,2.47,2.56,3a8.08,8.08,0,0,0,3.45.36c1.62-.19,2.92-1,4.56-.7.72.12,2.33.66,2.9-.05.83-1-1.49-3-2.08-3.55a37.3,37.3,0,0,0-5.34-4.45c-1.86-1.22-4.3-2.35-6.6-1.94A2.43,2.43,0,0,0,37.31,7.69Z" transform="translate(0.01)"/><path class="cls-20" d="M44.9,3.56a2.18,2.18,0,0,1,2,1.27c2-2.26,6.51-1.2,4.75,2.13,5.52-1.22,7.07,6.74,2.17,6.67.92,3.33-3.43,4.24-5,2.63-2.31,2.09-9.08,2.48-8.94-1.8-5.39-1.06-5.06-9,.18-9.78a6.74,6.74,0,0,1,2.53.15A2.28,2.28,0,0,1,44.9,3.56Z" transform="translate(0.01)"/><path class="cls-21" d="M42.34,7c-4.66.75-2.88,7.4,1.22,6.39-.19,2.44,3.71,2.2,4.88,1.05-2,0-2.9-.66-3.27-2.61-2.85,1.08-4.55-1.84-2.68-4a4.29,4.29,0,0,1,1.22-.94Z" transform="translate(0.01)"/><path class="cls-22" d="M49.82,11.35c1.49.93,3,.48,3.37-.84C53.64,9,51,7.62,49.78,7.78c.83-1.87-4.27-2.84-2.37.41-1-.25-3.54-.55-4,.79-.32.94,1.18,1.87,1.95,1.95-.43-1.22,1.21-1.88,2.14-1.39a1.56,1.56,0,0,1,0,2.68,2.29,2.29,0,0,1-1.37.24C49,14.69,50.53,12.38,49.82,11.35Z" transform="translate(0.01)"/><path class="cls-4" d="M27.32,57.81l-2.85-3.43C22.74,55.64,21.88,60.9,21.36,66h4.87A73.59,73.59,0,0,0,27.32,57.81Z" transform="translate(0.01)"/><path class="cls-4" d="M42.92,54.38l-2.84,3.43A71.2,71.2,0,0,0,41.17,66H46C45.51,60.9,44.66,55.64,42.92,54.38Z" transform="translate(0.01)"/></g></g></g></svg>