<svg xmlns="http://www.w3.org/2000/svg" xmlns:xlink="http://www.w3.org/1999/xlink" viewBox="0 0 66 66"><defs><style>.cls-1{fill:none;}.cls-2{clip-path:url(#clip-path);}.cls-3{fill:#507d52;}.cls-4{fill:#d49d6a;}.cls-5{fill:#c21f23;}.cls-6{fill:#870708;}.cls-17,.cls-6{opacity:0.5;}.cls-7{fill:#e8dac5;}.cls-25,.cls-8{fill:#330500;}.cls-20,.cls-8{opacity:0.2;}.cls-9{fill:#fff9f0;}.cls-10{fill:#f29966;}.cls-11{fill:#d45d08;}.cls-12{fill:#fab078;}.cls-13,.cls-17{fill:#b54319;}.cls-13{opacity:0.35;}.cls-14{fill:#e3730e;}.cls-15{fill:#fc8758;}.cls-16{fill:#402118;}.cls-18{fill:#8a2f19;}.cls-19{fill:#a89792;}.cls-20{fill:#bf3c1b;}.cls-21{fill:#b53f0d;}.cls-22{fill:#d1540d;}.cls-23{fill:#ffc494;}.cls-24{fill:#de6b0d;}.cls-25{opacity:0.1;}.cls-26{fill:#ad652b;}.cls-27{fill:#8f4e20;}.cls-28{fill:#4f3023;}.cls-29{fill:#e8bf8e;}</style><clipPath id="clip-path" transform="translate(0.01)"><circle class="cls-1" cx="33" cy="33" r="33"/></clipPath></defs><g id="Layer_2" data-name="Layer 2"><g id="avatars"><g class="cls-2"><rect class="cls-3" width="66" height="66"/><path class="cls-4" d="M45.64,52.18c-2.09-.61-3.41,2.2-2.91,4.94A34,34,0,0,1,42.65,66h7.79C50.8,55.83,48.89,53.13,45.64,52.18Z" transform="translate(0.01)"/><path class="cls-5" d="M45.2,50.83c-1.73-4-20.94-4.8-23.87-1.17-2.43,3-.93,11,.86,16.34H44.66C45.63,60.35,45.52,51.59,45.2,50.83Z" transform="translate(0.01)"/><path class="cls-6" d="M41.84,65.62c.7-.53.44-1.76.59-2.5.31-1.46.86-3.64,2.08-4.62.72-.59.66-1.15.8-2.16.29-2-.05-2.81-1.62-3.72-8.28-4.74-20.85-2-22.77.22-1.19,1.38-1,9.28-.32,8.47a8,8,0,0,1,2.26-1.42c.87-.53,1.13-1.72,1.41-2.64A7.69,7.69,0,0,0,28.35,60a14.15,14.15,0,0,1,5.52,2.22A3.73,3.73,0,0,1,35.41,64c.26.64.42,1.58,1.07,2H39.9l.9-.18A3.69,3.69,0,0,0,41.84,65.62Z" transform="translate(0.01)"/><path class="cls-7" d="M39.36,45.8A23.25,23.25,0,0,0,23,45.67c-4.56,1.71-7.62,5.79-6.77,11.13.81,5,4.41,8.8,5.14,6.57-.29-1.85-.48-6.56-.73-7.47-.3-1.09-1.18-2.71.29-3.38,1.92-.88,3.32,2.6,4,3.76a5.29,5.29,0,0,0,3.52,2.31c1.95.52,6.65,1.95,8.56,6.83A9.06,9.06,0,0,0,41.33,65c.55-5.82,2.45-6.82,4-8.67C49.39,51.41,43.57,47.31,39.36,45.8Z" transform="translate(0.01)"/><path class="cls-8" d="M40,56.84l-3.71.5A37,37,0,0,1,37.92,66h2.83A47.5,47.5,0,0,0,40,56.84Z" transform="translate(0.01)"/><path class="cls-9" d="M39.23,57.06l-2,.23A44.94,44.94,0,0,1,38.53,66h1.61A36.33,36.33,0,0,0,39.23,57.06Z" transform="translate(0.01)"/><path class="cls-10" d="M28.88,51.37c0,1.89,1.81,5,6.32,6.84,0,0,6.6-2.46,6-7.83S28.75,45.51,28.88,51.37Z" transform="translate(0.01)"/><path class="cls-8" d="M39.06,47.24a28.66,28.66,0,0,0-3.55-.62,36.3,36.3,0,0,0-5.81.13c-2,.11-4.06-.23-6.07.07-1,.15-5.73,1.85-5.17,3.41.15.42,1.17.3,1.91.13a5.12,5.12,0,0,0,.68-.2,4.14,4.14,0,0,1-.38,1.42c2.75-.21,2.32,3.25,3.74,4.36.41.32,1.31.46,1.44-.19a3.14,3.14,0,0,0,1.84,1.71,2.38,2.38,0,0,0,1.89-.21c.46.57,3.13,3,3.55,1.29a1.91,1.91,0,0,0,1.77,1.18c.63-.08.74-.56.93-1.11.73,1.32,1.92,1.07,2.71.06a2.21,2.21,0,0,0,2.09.69c.75-.32.53-1.19.94-1.73-.11.15.63.42.75.41a1,1,0,0,0,.65-.45c.44-.51.35-1.23.82-1.69.88,1.53,1.85-.44,1.93-1.4.71,0,.89-.69,1-1.61a6,6,0,0,0-1.27-2.67A14.43,14.43,0,0,0,39.06,47.24Z" transform="translate(0.01)"/><path class="cls-11" d="M48.43,20.88c-.52-.63-.08-1.16-.37-2a8.6,8.6,0,0,0-1.53-2.53,16.76,16.76,0,0,0-4.86-4A17.27,17.27,0,0,0,29.36,10.8a19.1,19.1,0,0,0-9.62,5.39,14.26,14.26,0,0,0-2.59,3.73c-.84,2-.07,1.9-.39,3.9-.18,1.13-1,2.83-1.09,5.27s1.53,8.27,4.74,7.55c3.45-.78,6.85-1.75,10.25-2.68s7.24-1.34,10.59-.28c1,.32,1.84.94,2.88,1.18,3.59.82,6.14-1.43,7.1-4.42a9.13,9.13,0,0,0-.37-5.78A9.21,9.21,0,0,0,48.43,20.88Z" transform="translate(0.01)"/><path class="cls-12" d="M32.49,15C24.07,15.71,16,25,18.87,34.85c1.46,5.1,1.43,6.35,3.58,11.44s7.46,8.33,14.64,7.91c6.54-.38,8.9-3.64,10.58-9.12a33.4,33.4,0,0,0,1.68-12.89C48.45,22,40.9,14.24,32.49,15Z" transform="translate(0.01)"/><path class="cls-13" d="M25.61,34.09c.05.58,1.39.28,1.79.36-.34.38-1.39.39-1.81.65s-.4.45.14.43a9.92,9.92,0,0,0,2.36-.68C29.06,34,26.07,34,25.61,34.09Z" transform="translate(0.01)"/><path class="cls-13" d="M46.89,33.88c.35-.06,1.42.33,1.56-.24-.36-.16-2.87-.32-2.2.58a6.93,6.93,0,0,0,1.86.82c.45.06.52-.11.19-.41S47.12,34.27,46.89,33.88Z" transform="translate(0.01)"/><path class="cls-14" d="M41.54,28.91c.51,1.42,2.31.73,3.37.6.69-.1,2.39.24,3.16-.1a.77.77,0,0,0,.27-.19C50.35,26.79,40.49,26,41.54,28.91Z" transform="translate(0.01)"/><path class="cls-14" d="M25.3,30.13a1,1,0,0,0,.32.17c.9.27,2.71-.23,3.48-.21,1.18,0,3.26.57,3.58-.93C33.31,26.12,22.67,27.83,25.3,30.13Z" transform="translate(0.01)"/><path class="cls-15" d="M45.61,35c-1.06-.12-2.54.14-1.84,1.83.37.9,4.51,1.95,4.32-.05a1.65,1.65,0,0,0-.15-.56A2.83,2.83,0,0,0,45.61,35Z" transform="translate(0.01)"/><path class="cls-15" d="M29,36a3.15,3.15,0,0,0-2.82,0c-1.06.38-2.34,1.3-.85,2.51.8.64,5.24-.32,4.08-2.06A1.87,1.87,0,0,0,29,36Z" transform="translate(0.01)"/><path class="cls-16" d="M29.58,31.7c-1.8-1-3.29,2.24-2.1,3.45a2.69,2.69,0,0,1,1.84.33C30.64,34.94,30.93,32.43,29.58,31.7Z" transform="translate(0.01)"/><path class="cls-17" d="M43.75,38.54c-.32.09.27.22,1,.45a.43.43,0,0,1,.29.25c-4.18,1.14-11.37,2.13-16.61.23l.14-.13c.75-.55,1.79-.57,1.51-.76a4.91,4.91,0,0,0-2.46.44c-.64.48-.67,2-.18,2.11s.44-.78.79-1.38c.31,1.7,1.94,8.87,7.92,9,4.5.13,5.94-2.22,6.2-5,.15-1.55,1.75-3.45,2.74-4.36.07.48-.23,1.15.12,1.21s1-.9.71-1.73S43.75,38.54,43.75,38.54Z" transform="translate(0.01)"/><path class="cls-18" d="M29.36,40.63s1.73,7,7.08,6.79c4.81-.16,5.45-2.52,5.71-4.17a4.53,4.53,0,0,1,1.68-3.08A16.11,16.11,0,0,1,29.36,40.63Z" transform="translate(0.01)"/><path class="cls-9" d="M31.09,41.37s0,2.24,1.62,3.11a8.51,8.51,0,0,0,6.87.44c1.64-.55,2.68-4,2.68-4A18.72,18.72,0,0,1,31.09,41.37Z" transform="translate(0.01)"/><path class="cls-9" d="M37.69,44.92a12.11,12.11,0,0,1-5.29-1c-.87-.46-.9.18-.75.74,0,0,.22,2.33,4.37,2.77,3.63.39,5.3-2.53,4.91-3.14S40,44.9,37.69,44.92Z" transform="translate(0.01)"/><path class="cls-7" d="M31.09,41.33a4.62,4.62,0,0,0,.37,1.78s8.19-1.27,10.08-.36A12.17,12.17,0,0,0,42.26,41S36.42,43,31.09,41.33Z" transform="translate(0.01)"/><path class="cls-7" d="M32.88,44c3.52,2.26,7.55.23,7.55.23A12.37,12.37,0,0,1,32.88,44Z" transform="translate(0.01)"/><path class="cls-16" d="M44.71,34.58a2.56,2.56,0,0,1,1.79-.22c.89-.78,1.18-2.55.21-3.31C44.89,29.63,42.59,33.67,44.71,34.58Z" transform="translate(0.01)"/><path class="cls-19" d="M28.61,32.65c-.79.19-.34,1.73.45,1.25C29.63,33.56,29.31,32.48,28.61,32.65Z" transform="translate(0.01)"/><path class="cls-19" d="M45.59,32c-.79.07-.61,1.64.23,1.3C46.43,33,46.29,31.91,45.59,32Z" transform="translate(0.01)"/><path class="cls-12" d="M16.4,33c-4.16,1.13-2.53,6.34.86,7.28a9.22,9.22,0,0,0,3.35.22.61.61,0,0,1,.07-.1c.5-.69-.37-4.17-.62-4.89C19.44,33.7,18.39,32.45,16.4,33Z" transform="translate(0.01)"/><path class="cls-20" d="M43,19.81A37.65,37.65,0,0,0,30.87,20c-2.74.53-5.64,1.57-7.29,4s-3.95,4.57-3.52,7.59c.09.64.9,3.86,2.15,2.88.57-.46,0-2.74.42-5a4.43,4.43,0,0,0,1.95,2.68c.16.11,3.74-5,4.63-5.5a4.44,4.44,0,0,0,2,4.33,8.17,8.17,0,0,1,2.73-3.26c.28.23,1.72,3.6,1.76,3.55.61-.66,1-1.55,1.57-2.25a12.31,12.31,0,0,1,6-4c1.39-.39,3.67-.79,4.35-2.28C48.73,20.3,44.46,20,43,19.81Z" transform="translate(0.01)"/><path class="cls-13" d="M18.64,34.91c-1.08-.5-4-.1-2.85,1.64.88-1.42,2-.32,1.68.72-.22.7-1.26.6-.34,1.61a2.42,2.42,0,0,0,2.26.28C21.31,38.5,20,35.5,18.64,34.91Z" transform="translate(0.01)"/><path class="cls-21" d="M46.67,37.44c-2.16-1.72-5.5-.33-7.82.07-2.56.43-5.19-.18-7.75-.32s-6.51.75-6.74,3.9c-.3,4.14,3.27.45,4.16-.94,0,.7,1.45.48,2.42,0-1,1.2,1.74.9,2.28.35-.52,1,1.5.75,2.48.12-.7.82.71,1.53,1.2.13-.33.95,1.34,1.08,1.41,0,1.32,1,2.27.35,1.64-.5,1.34,1.12,2.54.34,2.2-.28.77.39,2.24.88,2.3-.48C45,40.63,45.83,42,46.4,42.23,47.34,42.57,50.11,40.19,46.67,37.44Z" transform="translate(0.01)"/><path class="cls-21" d="M49.37,32.42C49.09,33.82,49.14,38,48,39c-.88.76-2.29-.65-3.45-.12-.73.34,2.69,11-2.39,11.15-1.85,0-2-1.86-5.28-1.32-1.71.28-3.52,2.88-5.74,1.87-4.25-1.93-4-8.07-3-10.26.77-1.72-3.35.12-4.71-1.62-.85-1.1-.61-2.87-1.4-3.95-1-1.33-2.22-.65-2.29.87a20,20,0,0,1-.16,4.17c-1,3.67-.24,5.12.43,3.76-.07.53-.43,3.7.78,2.38-.52.87-.12,4.1,1.16,3.17-.16.85.41,3.38,1.31,3.24.17.83,1.57,3.36,2.39,1.86-.13.23,1,1.67,1.2,1.9.48.57,1.23,1.32,2,1.28.44,0,.61-.39,1.05-.33s1,.82,1.5,1,1,.42,1.4-.07a1.83,1.83,0,0,0,3,.29,1.61,1.61,0,0,0,2.73-.14c.9,1.37,2.12-.37,2.58-1.17-.46.81,1.83,1.65,2.54-2.29.08,1,.94.79,1.41.22a3.77,3.77,0,0,0,.59-2c1.38,1,1.77-1.79,1.65-2.58,1.37.34,1-2.62.82-3.27,1.67.78.91-2.49.68-3.08.72,1.85,1.65-.63.53-3.27C51,42,50,33.75,49.37,32.42Z" transform="translate(0.01)"/><path class="cls-22" d="M23.66,40.44c-.41-.53-1.64-2.3-1.58-3-.09.91-1.25.23-1.5-.19a4.25,4.25,0,0,0,0,1.55c0,.06.68,1.18.72.85-.07.59-1,4.82.62,3.76C21.7,44.16,22,48,23,46.17c0,.68-.07,3.5,1.13,3.28s1.38-6.51,1-7.4C24.8,41.41,24.09,41,23.66,40.44Z" transform="translate(0.01)"/><path class="cls-11" d="M45.86,17.76a20.52,20.52,0,0,0-7.94-2.93,44.55,44.55,0,0,0-4.63-.7,17.69,17.69,0,0,0-7.67,1.92c-3.56,1.7-5.95,5.73-7.09,9.35a14.28,14.28,0,0,0-.64,6.7c.26,1.43,1.49,4.49,3.61,4.91.48.1,1.13-.17,1-1.85-.2-2.44-1.18-5.81.71-8.1a3.68,3.68,0,0,0,1.1,3.54c1.06-2,3.13-4.42,5.49-4.91A7.1,7.1,0,0,0,31,29.8a4.94,4.94,0,0,1,2.66-3.27,9.86,9.86,0,0,0,1.92,3.37c1.54-1.7,2.69-3.86,4.64-5.16s4.81-1,6.83-2.44C49,21,47.31,18.64,45.86,17.76Z" transform="translate(0.01)"/><path class="cls-23" d="M37.13,30.88c-2.32.15-3,5.93-1.75,6.67a5.36,5.36,0,0,0,5.07-.31C41.08,36.69,39.89,30.69,37.13,30.88Z" transform="translate(0.01)"/><path class="cls-24" d="M35.66,29c-.09-.38,1.57-2.35,1.82-2.77a11.27,11.27,0,0,0,1.33-2.75,13,13,0,0,0-3.17,2.26C34.58,27,35.37,27.75,35.66,29Z" transform="translate(0.01)"/><path class="cls-22" d="M39.59,50c-2.11-1-4.21.19-5.92,1.77-1.46,1.35-1.92,4.24,0,5.63.6.44,1.35.55,1.3-1.09.75,1.36,2.64,2.51,2.89.65,1.21,1,2.2.34,2.66-1,1.24,1.78,2.73-1,2.71-2.24C43.15,51.64,41.13,50.7,39.59,50Z" transform="translate(0.01)"/><path class="cls-22" d="M43.07,37.13c-1.75.15-2.56,1.14-4,1.8S36.21,39,35,38.32c-4.39-2.39-12,.41-10.12,6.4.25.78.43,1.69,1.33,1.92,1.07-2.53-.28-6.43,2.79-7.78-1.29,2.13,2.4.1,3-.11-1.62,2.44,1.28,1.36,2.45.56a2.07,2.07,0,0,0-.51,1.26c.84.34,1.55-.38,2.1-1-.36,1.16.87,1.31,1.5.62.35.6.68.49.92-.16.35.32.63.21,1,.37,0-.23.15-.48.08-.76.74.46,2.48.79,1.88-.71.62,1.06,3,1.07,2.48-.54,1.4,1,1.75,2.86,1.88,4.46.09,1-.45,5.79,1.6,4.13.87-.71.91-2.59.5-3.54,2,1.45-.22-3.24-.5-3.72C46.3,38.05,45.14,36.94,43.07,37.13Z" transform="translate(0.01)"/><path class="cls-22" d="M29.07,50.77c-.65-.54-1.47-2.94-2.46-2.69s-.59,2.49-.55,3.19.86,3.59,1.48,1.79a2.94,2.94,0,0,0,1,2.72c.76.47,1.74-.49,1.44-.67.6.36,1.1,1.19,1.74,1.43,2,.73,2.12-3.64,2.17-4.94a11.76,11.76,0,0,1-1.5.46A4.19,4.19,0,0,1,29.07,50.77Z" transform="translate(0.01)"/><path class="cls-22" d="M44.84,51.91Z" transform="translate(0.01)"/><path class="cls-22" d="M45.5,48.54c-.56-.07-.62.86-.86,1.24a2.86,2.86,0,0,1-1.84,1.38c-.39.09-1.36-.18-1.64,0-.73.45-.29,1.79.22,2.31,1.56,1.56,3.4.69,3.46-1.52v0h0c.57,1,1.22,0,1.4-.66C46.37,50.76,46.26,48.64,45.5,48.54Z" transform="translate(0.01)"/><path class="cls-24" d="M30.91,28.73a5.59,5.59,0,0,1,.79-1.35c.84-1.35,2.15-2.07,3.09-3.35C32.32,24.85,29.67,25.64,30.91,28.73Z" transform="translate(0.01)"/><path class="cls-24" d="M24.38,29.38c-.21-.23.95-2,2.69-3.13,1-.66,2.4-1,3-2.23-1.05.51-2.42.25-3.53.63C24.82,25.23,22.73,27.66,24.38,29.38Z" transform="translate(0.01)"/><path class="cls-25" d="M38.36,20.34c-3.72-.23-7.45-.84-11.19-.61-2.85.18-6.58.48-8.87,2.31a4,4,0,0,0-1.09,1.45c-.26.62-.66,1.65-.07,2.09.84.62,2.92,0,3.91.1,1.74.25,6.38,1.41,9.21,2.14C34.78,29,45.52,30,49.68,27.72,54.28,25.23,45.5,20.78,38.36,20.34Z" transform="translate(0.01)"/><path class="cls-26" d="M16.08,18.25c-.95.83-1.19,4.05.58,5.06,6.54,3.75,29.43,6.11,36.61,1.61C60.7,20.26,25.52,9.91,16.08,18.25Z" transform="translate(0.01)"/><path class="cls-4" d="M20,16.26l-1.48.64a3.73,3.73,0,0,0-1.58,3.87c1,3.15,11.81,7.23,31.64,5.13C29.43,26.12,16.86,22.79,20,16.26Z" transform="translate(0.01)"/><path class="cls-27" d="M20.34,15.94l-1.48.64C18,17,16.46,19,17.28,20.45c1.09,1.89,9.79,5.56,24.9,5.38C27.34,24.32,17.23,22.47,20.34,15.94Z" transform="translate(0.01)"/><path class="cls-27" d="M44.76,7.88C41,5.37,22.25,6.37,20.66,9.59c-.83,1.67-2.43,10-1.15,11.22,2.87,2.83,25.47,4.93,29.29-.18C48.06,15.38,45.94,8.67,44.76,7.88Z" transform="translate(0.01)"/><path class="cls-28" d="M47.57,17.15a27.35,27.35,0,0,1-10.45,2.28A55.78,55.78,0,0,1,19.6,17L19,16.85,17.9,21l.56.16a61.72,61.72,0,0,0,16.72,2.62c.7,0,1.42,0,2.14,0a31.2,31.2,0,0,0,12-2.65l.29-.12-1.41-4C48.06,16.94,47.85,17,47.57,17.15Z" transform="translate(0.01)"/><path class="cls-4" d="M47.54,16.43a27.35,27.35,0,0,1-10.45,2.28,55.17,55.17,0,0,1-17.51-2.42L19,16.13l-1.13,4.12.56.15A61.7,61.7,0,0,0,35.15,23c.71,0,1.42,0,2.15-.05a31.39,31.39,0,0,0,12-2.64l.29-.13-1.41-4Z" transform="translate(0.01)"/><path class="cls-26" d="M39.43,7.35a28.82,28.82,0,0,0-10,.17c-1.47.29-2.95.53-4.43.81a7.14,7.14,0,0,0-3,1,8,8,0,0,0,2.29-.13,92.31,92.31,0,0,1,9.83-.76c2.27,0,4.54.2,6.82.28.35,0,2.3.1,2.37-.47v0C43.27,7.44,39.85,7.41,39.43,7.35Z" transform="translate(0.01)"/><path class="cls-29" d="M22.34,21.68a63.71,63.71,0,0,0,6.79,1.22l.57-4.73A59.48,59.48,0,0,1,23.43,17Z" transform="translate(0.01)"/><path class="cls-26" d="M39.37,10.35a36.52,36.52,0,0,0-12.56.2,7.59,7.59,0,0,0-3.69,1.61c-.35.32-2.37,2.84-1.71,3.12,3.32,1.4,7.17,1.74,10.69,2.24a25.06,25.06,0,0,0,11.81-1.26,14.41,14.41,0,0,0-1.22-4.45C42,10.62,40.63,10.52,39.37,10.35Z" transform="translate(0.01)"/><path class="cls-4" d="M23.3,57.12c.49-2.74-.83-5.55-2.92-4.94-3.25,1-5.16,3.65-4.79,13.82h7.78A33.66,33.66,0,0,1,23.3,57.12Z" transform="translate(0.01)"/></g></g></g></svg>