<svg xmlns="http://www.w3.org/2000/svg" xmlns:xlink="http://www.w3.org/1999/xlink" viewBox="0 0 66 66"><defs><style>.cls-1{fill:none;}.cls-2{clip-path:url(#clip-path);}.cls-3{fill:#f1c4b5;}.cls-4{fill:#ff9819;}.cls-5{fill:#fff7eb;}.cls-6{opacity:0.1;}.cls-7{fill:#854422;}.cls-8{fill:#e6ded4;}.cls-9{fill:#ffc566;}.cls-10{fill:#c9beb7;}.cls-11{fill:#9c552c;}.cls-12,.cls-13,.cls-20{fill:#66241b;}.cls-12{opacity:0.4;}.cls-13,.cls-14,.cls-17,.cls-24{opacity:0.7;}.cls-14{fill:#f0eae6;}.cls-15{fill:#d17642;}.cls-16{fill:#261b18;}.cls-17{fill:#f0ded1;}.cls-18{fill:#121b21;}.cls-19{fill:#611f16;}.cls-20,.cls-22{opacity:0.3;}.cls-21{fill:#ff6daa;}.cls-22,.cls-23,.cls-24{fill:#fff;}.cls-25{fill:#ffd1e2;}</style><clipPath id="clip-path" transform="translate(0 0)"><circle class="cls-1" cx="33" cy="33" r="33"/></clipPath></defs><g id="Layer_2" data-name="Layer 2"><g id="avatars"><g class="cls-2"><rect class="cls-3" width="66" height="66"/><path class="cls-4" d="M46.14,50.87l-3.76,3c1,1.26,2.46,7.31,2.88,12.17h5.57C50.46,61.68,49.23,53.32,46.14,50.87Z" transform="translate(0 0)"/><path class="cls-4" d="M24.28,50.87C21.19,53.32,20,61.68,19.59,66h5.57c.42-4.86,1.89-10.91,2.88-12.17Z" transform="translate(0 0)"/><path class="cls-5" d="M42.31,48.4a16.28,16.28,0,0,0-14.47.37c-5.52,3.4-2.67,7-1.46,17.23H44.05C45.33,57.42,47.79,51.18,42.31,48.4Z" transform="translate(0 0)"/><path class="cls-4" d="M46.52,51.25c-.41-1-4.47-3.29-4.47-3.29-2.17,6.68-1.52,14.39-1.1,18h5.5C46.68,57.63,46.87,52.11,46.52,51.25Z" transform="translate(0 0)"/><path class="cls-4" d="M28.4,48s-4.06,2.29-4.47,3.29S23.77,57.63,24,66h5.93C30.28,62.05,30.46,54.3,28.4,48Z" transform="translate(0 0)"/><path class="cls-6" d="M28.7,51a9.62,9.62,0,0,0,4.18,4.94l2.31-2.52,3,2.5c2.07-1.06,4.07-3.6,4.1-5.72C42.35,48.67,27.76,47.85,28.7,51Z" transform="translate(0 0)"/><path class="cls-5" d="M28.74,47.26c-2.58,3.47,3.94,7.85,3.94,7.85l2.53-2,2.88,2.08S44,52,41.9,47.61C40,43.7,31.34,43.77,28.74,47.26Z" transform="translate(0 0)"/><path class="cls-7" d="M33.79,43.12c-1.5.42-2.5,2.21-2.6,4.06-.13,2.33,2.55,5.46,4.4,5.52,1.41,0,7.35-4.32,3.17-8.56C37.56,42.92,35.22,42.73,33.79,43.12Z" transform="translate(0 0)"/><path class="cls-8" d="M35.23,56.22a.61.61,0,1,0,.64.61A.63.63,0,0,0,35.23,56.22Z" transform="translate(0 0)"/><path class="cls-8" d="M35.23,59.75a.61.61,0,1,0,.64.61A.63.63,0,0,0,35.23,59.75Z" transform="translate(0 0)"/><path class="cls-8" d="M35.23,63.27a.63.63,0,0,0-.65.61.65.65,0,1,0,.65-.61Z" transform="translate(0 0)"/><path class="cls-9" d="M28.32,55.38a1,1,0,1,0,1,1A1,1,0,0,0,28.32,55.38Z" transform="translate(0 0)"/><circle class="cls-9" cx="28.33" cy="60.28" r="0.98"/><path class="cls-9" d="M28.32,63.21a1,1,0,1,0,1,1A1,1,0,0,0,28.32,63.21Z" transform="translate(0 0)"/><rect class="cls-9" x="41.97" y="56.33" width="3.64" height="1.74"/><path class="cls-10" d="M56.75,24.43a2.62,2.62,0,0,0,1-1C58.55,22,57.38,20,55.88,19c2.95-1,.4-5.28-2.76-4.45,2.7-2.59-1.47-5.73-4.09-3.06.13-3-3.58-5.08-5.67-2.39-.39-4.54-5.09-3.92-6.48-.68-1.11-4.27-6.62-2.91-7.3.77-1.42-2.62-6.64-2.46-6.06,1.64-2.78-2.14-7.77-.07-6.08,3.92-2.83-.81-7,2.33-3.8,4.94-3.69.13-4.28,5.23-1.34,6.45-3.2,1.27-2.41,7,1.53,6.35-2.58,2.77-1.22,6.63,2.67,6.42-.87,1.74-.69,5.5,2.16,4.83C16.48,47.47,23,49.06,24.13,45c.09,3.4,3.73,2.77,4.37,2.78,2.06,0,3.9-1.08,6-1.09,3.69,0,9.18,3.3,11.51-1.15,1.9,1.35,5.8-.36,4.41-2.92,3.3,1.59,5-2.58,4.35-5.07,2.42,1.3,3.86-2.39,1.33-4.7,2.3,0,3.48-2.67,1.27-4C59.86,27.53,59.18,25.5,56.75,24.43Z" transform="translate(0 0)"/><path class="cls-5" d="M49.84,39.05a1.35,1.35,0,1,0,1.37,1.33A1.34,1.34,0,0,0,49.84,39.05Z" transform="translate(0 0)"/><path class="cls-11" d="M32.79,13.18c-7.63,1.59-12.88,12.67-11.33,23,1.16,7.71,7.23,16.11,16.2,15.36,9.15-.78,13.56-12.21,12.25-21.7C48.48,19.5,43.47,11,32.79,13.18Z" transform="translate(0 0)"/><path class="cls-12" d="M47.91,16.48a23.81,23.81,0,0,0-5.24-1.85,36.48,36.48,0,0,0-9.3-1.29c-2.79,0-5.83-.15-8.41,1-5.14,2.26-4.79,7.3-4.56,12.05.07,1.59,0,5.92,1.18,6.42,2,.82,2.86-2.16,2.17-3.06.37.48,2.72-1.06,2.17-2a2.48,2.48,0,0,0,2.5-.82c.21,1,1.82,1.69,2.74,1.83a2.85,2.85,0,0,0,2.72-1.5c1.33,1.09,3.72,2,4.33-.25,1.15,1.78,3.25.13,4.15-.82.1,1,2.22,1.35,3,1.18a3.14,3.14,0,0,0,2.08-2.16,2.87,2.87,0,0,0,3.11,0c1-.79.66-2.53.57-3.6A7.12,7.12,0,0,0,47.91,16.48Z" transform="translate(0 0)"/><path class="cls-11" d="M18.73,31.88c-3.74,1.09-2.16,6.55.92,7.61a7.33,7.33,0,0,0,3,.29l.06-.09c.44-.72-.24-4.71-.48-5.46C21.66,32.34,20.53,31.37,18.73,31.88Z" transform="translate(0 0)"/><path class="cls-13" d="M20.08,33.89c-.85-.38-2.95.35-1.94,2,.5-1.53,1.45-.54,1.32.55-.08.73-.87.75-.08,1.67.43.51,1.28.3,1.71,0C22.44,37.24,21.11,34.34,20.08,33.89Z" transform="translate(0 0)"/><path class="cls-10" d="M49.81,15.39A20,20,0,0,0,39,10a27.67,27.67,0,0,0-7.87-.12c-4.32.56-9.53,2.58-10.84,7-.8,2.7-.32,5.81-.07,8.54.19,2-.06,5.15.67,7.1.35.92,2.33-.26,1.44-3.71,1.27.61,2.5,0,2.46-2.33,1.14.49,3.49.45,3.65-1.24.78,2.11,4.61,2.53,5.87.66.63,1.32,3.63.9,3.67-.85.9,1.59,4.32,1.22,5.18-.42.57,1.84,4,1.6,4.43-.53,3.34,1.06,5.31-3.63,3.51-6.74A8.82,8.82,0,0,0,49.81,15.39Z" transform="translate(0 0)"/><path class="cls-14" d="M24.27,24.34h0Z" transform="translate(0 0)"/><path class="cls-14" d="M53.81,19.08c3.58-1-.26-5-2.93-3.37,1.08-3.19-.83-3.42-3.26-2.5-.36-2.19-3-4.25-4.54-1.53A3,3,0,0,0,37.31,11C35.23,9,31.94,8,31,11.77c-2.16-1.81-6.24-2.53-6.21,1.59-1.74-1.08-4.22-2.09-5.41,0-.79,1.4-.46,2.61.25,4-3.36-2.12-5.15,1-2.43,3.29-1.27.27-3.11.7-3.16,2.28,0,1.4,1.24,1.8,2.5,1.74-.88.76-1.69,2.42-.47,3.23,1.72,1.14,3.08-1,3.91-2.1-.22,2.46,4.36,1.35,4.29-1.45h0c1.75,1.64,4.2.53,5.26-1.25a3.5,3.5,0,0,0,.33-.71c-.51,1.46,2.41,1.7,3.13.77a2.25,2.25,0,0,0,3.94-.45c.91,2.74,4.25.45,4.86-1.15a3.38,3.38,0,0,0,2.69,1.81c1.44.06,1.85-1,2.14-2.25,1.11,1,3.38,1.29,4-.39a1.68,1.68,0,0,0,2.07-.13c-.24,1.16-1.27,3.95.07,4.78,2.1,1.3,2.45-2.44,1.84-3.55C56.44,23.19,55.9,19.71,53.81,19.08Z" transform="translate(0 0)"/><path class="cls-5" d="M20.8,40.33a1.36,1.36,0,1,0,1.37,1.33A1.36,1.36,0,0,0,20.8,40.33Z" transform="translate(0 0)"/><path class="cls-13" d="M24.61,33.82c.05.63,1.47.33,1.9.43-.38.38-1.49.38-1.94.65s-.43.47.14.45a10.47,10.47,0,0,0,2.53-.67C28.29,33.8,25.1,33.69,24.61,33.82Z" transform="translate(0 0)"/><path class="cls-13" d="M49.49,34.36c-.46-.27-1.57-.27-1.94-.65.43-.11,1.85.19,1.89-.43-.48-.13-3.67,0-2.62.86a10.51,10.51,0,0,0,2.52.67C49.92,34.82,50,34.63,49.49,34.36Z" transform="translate(0 0)"/><path class="cls-15" d="M45.94,35.55c-1.31,0-3.12.53-2.21,2.62.49,1.12,5.63,1.93,5.33-.65a1.85,1.85,0,0,0-.19-.7C48.34,35.76,47,35.56,45.94,35.55Z" transform="translate(0 0)"/><path class="cls-15" d="M30,36.73c-.79-1-2.33-1-3.43-.83-1.42.23-3.27,1.12-1.86,3.17.76,1.09,6.48,1,5.64-1.63A2.48,2.48,0,0,0,30,36.73Z" transform="translate(0 0)"/><path class="cls-16" d="M28.4,30.61c-2.14-.74-3.13,3.18-1.63,4.3a2.87,2.87,0,0,1,2.06,0C30.15,34.05,30,31.17,28.4,30.61Z" transform="translate(0 0)"/><path class="cls-17" d="M28,32c-.87.15-.5,1.94.4,1.46C29.08,33.16,28.81,31.9,28,32Z" transform="translate(0 0)"/><path class="cls-16" d="M47.33,30.43c-2.13-1.35-4,3.62-1.64,4.33a2.53,2.53,0,0,1,1.87-.29C48.37,33.41,48.46,31.16,47.33,30.43Z" transform="translate(0 0)"/><path class="cls-17" d="M46.48,31.64c-.84,0-.72,1.88.18,1.54C47.32,32.93,47.22,31.62,46.48,31.64Z" transform="translate(0 0)"/><path class="cls-18" d="M47.38,30.33c-1.94-.75-2.58,1.56-2.58,1.56a1.79,1.79,0,0,1,2.27-.42,4,4,0,0,0,5-.37C49.63,31.9,48.43,30.73,47.38,30.33Z" transform="translate(0 0)"/><path class="cls-18" d="M27,30.75a6.34,6.34,0,0,1-5,1,4.42,4.42,0,0,0,5.19.07,2,2,0,0,1,2.36.12S29,29.67,27,30.75Z" transform="translate(0 0)"/><path class="cls-13" d="M26.94,40.83c1.07,2,3.7,1.05,2.59-1A2,2,0,0,1,26.94,40.83Z" transform="translate(0 0)"/><path class="cls-13" d="M44.28,39.44a1.48,1.48,0,1,0,2.82.8A2.2,2.2,0,0,1,44.28,39.44Z" transform="translate(0 0)"/><path class="cls-19" d="M45.51,40.55a.62.62,0,0,0-.78.32c-1,2.92-4.16,4.83-7.8,4.8a8.11,8.11,0,0,1-7.44-4.25.68.68,0,0,0-.82-.33.5.5,0,0,0-.33.7,9.39,9.39,0,0,0,8.33,5H37c4.19,0,7.73-2.15,8.93-5.51A.58.58,0,0,0,45.51,40.55Z" transform="translate(0 0)"/><path class="cls-13" d="M37.57,37c-.84,0-1.59-.42-2.37,0s.16,1.7,2.4,1.61,2.8-1.27,2.37-1.71S38.5,37,37.57,37Z" transform="translate(0 0)"/><path class="cls-15" d="M37.44,33.13c-1.58-.11-2.74,2.76-2,3.68.49.65,4,.58,4.5-.19C40.09,36.34,39,33.23,37.44,33.13Z" transform="translate(0 0)"/><path class="cls-10" d="M26.86,27.19c-2,.28-3.46,1-3.37,1.6.06.38.94-.26,3.65-.36,2.17-.08,4.07.9,4.15-.35C31.34,27.32,29,26.88,26.86,27.19Z" transform="translate(0 0)"/><path class="cls-10" d="M47.36,26.88c-2.15-.31-4.48.14-4.43.9.08,1.25,2,.27,4.15.35,2.71.1,2.76.8,2.82.42C50,28,49.32,27.17,47.36,26.88Z" transform="translate(0 0)"/><path class="cls-20" d="M48.41,28.26a22.74,22.74,0,0,0-4.58.7,18.85,18.85,0,0,0-4,1.09,4.72,4.72,0,0,1-2.86.87c-2.34-.11-4.31-1.57-6.65-1.83A19.69,19.69,0,0,0,23,29.2c-.62.16-2.52.87-1.24,1.55s3.11.46,4.47.51c.63,0,1.26,0,1.89.11,2.23.21,5.66-.09,5.47,2.69-.13,1.91-1.36,3.87-2.92,4.22a20.32,20.32,0,0,1-4.59.46A8,8,0,0,1,22.79,38c-.3-.14-1.19-.72-1.48-.31-.5.68,1.31,1.82,1.78,2a11.11,11.11,0,0,0,3.42.77c2.9.32,5.9.18,7.55-2.49.95-1.55,1.44-3.37,2.32-5,1.45-2.6,2.12.93,2.57,2.48A8.28,8.28,0,0,0,40.1,38a5.91,5.91,0,0,0,4.33,2.09,6.61,6.61,0,0,0,2.82-.37c.54-.22.76-.84.11-1.09a5.17,5.17,0,0,0-1.42-.06,10.84,10.84,0,0,1-1.8-.15A5.34,5.34,0,0,1,42,37.49a4.14,4.14,0,0,1-1.11-1.21A3.83,3.83,0,0,1,40.66,33c.53-1.47,2.15-1.59,3.5-1.7,1.62-.13,3.27-.1,4.89-.24a15.59,15.59,0,0,1,2.16.06c.93,0,2.93-.26,1.83-1.61S49.91,28.19,48.41,28.26Z" transform="translate(0 0)"/><path class="cls-21" d="M20.71,28.16c-1.92.06-3.55-.47-4-.09s.43,2.21.43,2.21a3.23,3.23,0,0,0,1.51.51c.12,1.34,0,4.78,2.48,7,2,1.82,8.71,2.36,10.79,1.32A8,8,0,0,0,36,33C37.16,27.21,23.42,28.08,20.71,28.16ZM32.05,37.5c-2.53,1.63-9,.85-10.7-1.24-1.29-1.61-1.52-5-.72-5.45,2.43-1.45,11.56-.88,13.67.74C35.32,32.33,34,36.25,32.05,37.5Z" transform="translate(0 0)"/><path class="cls-21" d="M52.17,27.69c-2.45,0-14.88-.47-13.71,5.29.48,2.35,1.54,4.71,3.9,5.92,1.9,1,7.91.25,9.7-1.62,2.14-2.25,2-5.69,2-7a2.83,2.83,0,0,0,1.35-.55s.88-1.74.33-2.22S53.9,27.69,52.17,27.69Zm-.35,8.11c-1.47,2.13-7.29,3.1-9.63,1.55-1.78-1.19-3.1-5.07-2.19-5.88,1.86-1.68,10.08-2.52,12.32-1.14C53.05,30.79,52.94,34.15,51.82,35.8Z" transform="translate(0 0)"/><path class="cls-22" d="M41.61,31c-1.36.58,1.1,1.3,1.63,1.38a18.45,18.45,0,0,0,5.86-.22c1-.19,3.23-1.13,2.6-1.69C50.81,29.62,43.1,30.31,41.61,31Z" transform="translate(0 0)"/><path class="cls-23" d="M47.65,30.61c-.73.12-1.21.33-1,.66.4.65,4.71.28,5-.22S49.22,30.36,47.65,30.61Z" transform="translate(0 0)"/><path class="cls-24" d="M43,36c-.47,0-.79.07-.71.36.16.57,2.84.94,3.08.6S44,36,43,36Z" transform="translate(0 0)"/><path class="cls-24" d="M22.85,35.78c-.49-.07-.84,0-.79.28.09.59,2.85,1.28,3.15,1S23.87,36,22.85,35.78Z" transform="translate(0 0)"/><path class="cls-22" d="M33.29,31.21c-1.71-.61-10.22-1.27-11.1-.51-.63.53,1.89,1.42,3,1.61a23.76,23.76,0,0,0,6.43.21C32.23,32.44,34.83,31.76,33.29,31.21Z" transform="translate(0 0)"/><path class="cls-23" d="M29.59,30.71c-.79,0-1.31.18-1.15.53.34.69,4.9.86,5.27.4S31.26,30.66,29.59,30.71Z" transform="translate(0 0)"/><path class="cls-21" d="M40.08,29.51a7.32,7.32,0,0,1-6,.06c-1.86-.67,1,1.21,1.2,2.18s-.11,3.94.54,2.17,2-1.87,2.79-.25.78-2.71,1.12-3.11S41.86,28.7,40.08,29.51Z" transform="translate(0 0)"/><path class="cls-25" d="M21.61,28.73c5.18.27,9.32.43,12.44,1.64C32,28.69,28.5,28.31,21.61,28.73Z" transform="translate(0 0)"/><path class="cls-25" d="M51.73,28.14c-6.32.22-9.27.26-11,1.86C43.5,28.71,47,28.8,51.73,28.14Z" transform="translate(0 0)"/></g></g></g></svg>