<svg xmlns="http://www.w3.org/2000/svg" xmlns:xlink="http://www.w3.org/1999/xlink" viewBox="0 0 96 96"><defs><style>.cls-1{fill:none;}.cls-2{clip-path:url(#clip-path);}.cls-3{fill:#ffb571;}.cls-4{fill:#1e1e29;}.cls-5{fill:#e8e8e8;}.cls-6{opacity:0.1;}.cls-7{fill:#5e4684;}.cls-8{fill:#1c1c26;}.cls-9{fill:#313142;}.cls-10{fill:#f5f5f5;}.cls-11{fill:#854422;}.cls-12{fill:#261b18;}.cls-13{fill:#9c552c;}.cls-14,.cls-15,.cls-17{fill:#66241b;}.cls-14{opacity:0.4;}.cls-15,.cls-19,.cls-27{opacity:0.7;}.cls-16{fill:#45362e;}.cls-17{opacity:0.5;}.cls-18{fill:#d17642;}.cls-19{fill:#f0ded1;}.cls-20{fill:#d47b48;}.cls-21{fill:#732e2b;}.cls-22{fill:#fff9f0;}.cls-23{fill:#e8dac5;}.cls-24{fill:#212126;}.cls-25,.cls-26,.cls-27{fill:#fff;}.cls-25{opacity:0.3;}</style><clipPath id="clip-path" transform="translate(0)"><circle class="cls-1" cx="48" cy="48" r="48"/></clipPath></defs><g id="Layer_2" data-name="Layer 2"><g id="Layer_4" data-name="Layer 4"><g class="cls-2"><rect class="cls-3" width="96" height="96"/><path class="cls-4" d="M22.69,96H33.1L28.71,81.43C24.75,83.93,22.61,85.51,22.69,96Z" transform="translate(0)"/><path class="cls-4" d="M67,81.43,62.58,96H73C73.07,85.51,70.93,83.93,67,81.43Z" transform="translate(0)"/><path class="cls-5" d="M37.13,77.52c-4.27,3.61-5.46,7.94,1,14.25A36.65,36.65,0,0,0,43.16,96h8.62c4-4.31,10.62-12.45,8.83-16.83C57.57,71.75,41.4,73.92,37.13,77.52Z" transform="translate(0)"/><path class="cls-6" d="M38.55,81.29A14.07,14.07,0,0,0,44,88.54l4.51-4.31,4.8,4.08c4.58-4.07,5.48-6.64,5.86-8.09C60.38,75.66,36.55,74.93,38.55,81.29Z" transform="translate(0)"/><path class="cls-7" d="M52,84.73a3.68,3.68,0,0,0-4.22-1.9,3.88,3.88,0,0,0-3.22,3l2.32,2.36L44.59,96h9.12l-3.09-8.32Z" transform="translate(0)"/><path class="cls-8" d="M59.28,76.38c.2.47.87,1.48.83,2C59.59,84,55.79,91.16,52.83,96h12C65.87,90.51,68,82.49,67.4,81.79A47.53,47.53,0,0,0,59.28,76.38Z" transform="translate(0)"/><path class="cls-8" d="M37,78.26a7.36,7.36,0,0,1,.78-1.47c-3.4,1.46-9.65,4.47-10.2,5.57-.45.92,2.54,7.15,4,13.64H44.89C40.77,90.52,35.44,82.3,37,78.26Z" transform="translate(0)"/><path class="cls-9" d="M58,74.9c.79,7.91-3.19,16.09-6.1,21.1h4.49a84.1,84.1,0,0,0,6.14-6.06,39.16,39.16,0,0,0-2.67-4.69l4.66-2.89A21.12,21.12,0,0,0,58,74.9Z" transform="translate(0)"/><path class="cls-9" d="M32.12,83.29l5.56,2.3a55.26,55.26,0,0,0-2.47,5.85A47.15,47.15,0,0,0,40.54,96h5.27c-3.05-4.5-7.17-11.85-7.17-20.18A14.89,14.89,0,0,0,32.12,83.29Z" transform="translate(0)"/><path class="cls-10" d="M37.79,76.86c-2.23,5.74,5.9,10.41,5.9,10.41l4.84-3,4.52,2.85s9-4.66,5.56-11.35C55.56,69.72,40.39,70.2,37.79,76.86Z" transform="translate(0)"/><path class="cls-11" d="M45,68.83a6.77,6.77,0,0,0-5,6.24c-.16,2.2.19,3.47,1.42,4.7A9.73,9.73,0,0,0,45.23,82c1.06.33,2.93,1.58,3.25,1.59.14,0,.75-.54,1.76-1.06,1.47-.76,3.55-1.77,4.36-3.36,1.18-2.33,2.24-6.94,0-8.75S47.76,68.22,45,68.83Z" transform="translate(0)"/><path class="cls-12" d="M71.62,22.42c1-1.57,2-2.39.21-3.8a5.7,5.7,0,0,0-5.4-.82c1-4-4.55-5-6.71-2.71-.62-4.45-4.86-5.05-7.45-1.86-1.26-3.36-6.05-4-6.91,0-2.88-3.74-8.18-1.77-9.13,2.53A4,4,0,0,0,29,18.63a5.12,5.12,0,0,0-6.24,1.22c-1.25,1.49-.88,4.18,0,5.64-5.07-.33-4.26,4.18-1.75,6.71-3.94.25-5.65,5.83-.92,6.26-2.57.92-2.88,4.38.23,4.87-3.17,1.13-1.82,4,.94,4.56-1,2.83-.35,4,1.85,5.69a29.57,29.57,0,0,1,3.43,3.71c3,3.42,5.22,7.51,8.18,10.92s6.13-2.36,8.53-3.74A16.92,16.92,0,0,1,54,62.2c3.24.48,5.51,3.88,8.8,4,2,0,3.28-1.66,4.1-3.27.94-1.81.64-3.23,1-5s1.95-2.15,3-3.32c.44-.51,1.74-3.85,0-3.83,2.94,0,2.94-2.49,2-4.38a5.57,5.57,0,0,0-.72-1.09c3.21-.48,2-2.92.82-4.78,1.12-.73,1.91-.83,1.81-2.32a3.83,3.83,0,0,0-2.31-2.85c1.13-.83,2.52-.85,2.66-2.44S73.9,30,72.9,29.11C77.67,28,75.51,22.91,71.62,22.42Z" transform="translate(0)"/><path class="cls-13" d="M44.15,20.36C32.31,22.67,24,39.78,26.14,55.83,27.77,67.84,37,81,50.89,80c14.17-1,21.23-18.68,19.4-33.46C68.3,30.5,60.72,17.11,44.15,20.36Z" transform="translate(0)"/><path class="cls-14" d="M59.4,22.88a53.39,53.39,0,0,0-14.35-2.26c-4.33-.08-9-.32-13,1.51-2.21,1-4.93,2.39-5.76,4.85-1,3.06-.53,6.92,0,10.05A27.49,27.49,0,0,0,29.4,47c.14-2.13,1.09-4.15,1.56-6.23.27-1.2.55-2.4.83-3.6A3.67,3.67,0,0,0,35.48,33c1.54,0,3.49-.56,3.78-2.27a3.85,3.85,0,0,0,2.55,1H42c1.72,0,2-1.09,3.12-1.55,1.59-.63,4.28,1.17,5.34-1.2,1.85,1.16,4.17,1.93,5.85,0,1.18,1.82,4.59,2.93,6.34,1.26,1.84,1.8,7.22-.24,5.66-3.17C67,24.66,61.79,23.6,59.4,22.88Z" transform="translate(0)"/><path class="cls-13" d="M22,49.14C16.2,50.75,18.53,59.28,23.28,61A11.37,11.37,0,0,0,28,61.5a.78.78,0,0,0,.1-.15c.7-1.1-.28-7.32-.63-8.49C26.54,49.91,24.8,48.37,22,49.14Z" transform="translate(0)"/><path class="cls-15" d="M24.05,52.28c-1.3-.61-4.56.49-3,3,.81-2.38,2.25-.82,2,.87-.15,1.14-1.36,1.15-.15,2.61.65.79,2,.49,2.63.07C27.65,57.54,25.65,53,24.05,52.28Z" transform="translate(0)"/><path class="cls-12" d="M53.8,15.5a40.13,40.13,0,0,0-12.18-.37c-6.7.81-14.79,4-16.91,11.14-1.3,4.39-.62,9.47-.28,14,.2,2.71-.89,8,1.42,10,2.69,2.38,3.75-1.21,4-3.78.38-3.81.82-7.48,1.33-11.23,2.42.22,3.53-1.84,3.42-4,1.93.48,4.33.1,5-2.05A4.91,4.91,0,0,0,42.8,30c1.11-.2,1.51-1.51,2.13-1.69.88-.25,2.27.9,3.33.7S50,27.91,50.6,26.91c1.61,2.55,5.31,2,7.2.18A3.82,3.82,0,0,0,63.63,29c-.91.6,1.32,2.48,2.48,3.16a1.59,1.59,0,0,0,.55.25c1.58.19,2.43-1,3.15-2.29,1.78-3.17.39-6.48-1.89-9C65,17.83,57.91,16.3,53.8,15.5Z" transform="translate(0)"/><path class="cls-16" d="M69.7,24.19c.66-1,1.12-2.69,0-3.59s-4.19-.51-5,.49c.38-1.43.2-3.74-1.29-4.55-1.28-.71-3,1.52-3.58,2.54a7,7,0,0,0-2.89-4.79c-2.11-1.37-3.19,1.21-4.09,2.72a4.73,4.73,0,0,0-3.65-3.18c-1.89-.31-2.73,2.09-3.45,3.52C44.31,16,43.54,14,41.31,14a3.11,3.11,0,0,0-3.07,1.48c-.59,1.1-.18,2.3-.61,3.41-1.77-.87-2.82-2.35-5-2.2-2.57.18-2.59,2.1-2.7,4.21-5.65-2.35-7.45,2.66-5,6-2.67.41-3.09,6,0,6.17-2.11,1.08-2.68,3.16-.1,4.26,2.93,1.24,3.67-2.42,2.91-4.5,2,.17,2.29-1.52,2.26-3.07,1,.32,1.54.85,2.64.37s1.17-1.27,1.28-2.46c1,.49,1.92,1.44,3.12.89.89-.4,1.34-1.71,1.51-2.6a3.07,3.07,0,0,0,2.69,1.4c1.33-.16,1.64-1,2.14-2a3.73,3.73,0,0,0,3.49,1c1.57-.42,1.84-1.28,2.39-2.66,2.12,1.62,6.12,3.24,7.79,0,1.52,2.12,5.29,4.74,7.59,2,1.59,1.84,3,4.28,5.94,3.31C73.82,27.94,72.91,24.26,69.7,24.19Z" transform="translate(0)"/><path class="cls-17" d="M31.61,49.81c.18,1,2.36.25,3,.32-.51.68-2.25.89-2.92,1.39s-.59.81.31.69a16.31,16.31,0,0,0,3.83-1.53C37.35,49.09,32.35,49.52,31.61,49.81Z" transform="translate(0)"/><path class="cls-17" d="M67,49.73c.6-.08,2.48.66,2.64-.31-.64-.3-5-.73-3.69.86a13,13,0,0,0,3.32,1.53c.78.13.88-.16.26-.69S67.49,50.41,67,49.73Z" transform="translate(0)"/><path class="cls-18" d="M68.36,53.42c-.9-1.34-2.84-1.58-4.23-1.57-1.82,0-4.23.72-2.64,3.36.85,1.41,8.06,2.35,7.25-.91A2.61,2.61,0,0,0,68.36,53.42Z" transform="translate(0)"/><path class="cls-18" d="M40.67,53.35c-1.17-1.19-3.24-1.12-4.69-.88-1.9.3-5.17,2.14-2.43,4,2,1.36,9.11.81,7.68-2.32A2.59,2.59,0,0,0,40.67,53.35Z" transform="translate(0)"/><path class="cls-12" d="M39.57,45.84c-4.23-1.16-6.89,3.59-4,5.14a9.38,9.38,0,0,1,4.19.23C42.6,50.28,42.73,46.7,39.57,45.84Z" transform="translate(0)"/><path class="cls-15" d="M51.58,55.5c-1.48,0-2.78-.66-4.17,0s.2,2.6,4.14,2.51,5-1.9,4.27-2.57S53.23,55.48,51.58,55.5Z" transform="translate(0)"/><path class="cls-18" d="M51.49,47c-3.35-.29-6,6.24-4.56,8.38,1,1.5,8.38,1.45,9.53-.31C56.89,54.38,54.69,47.23,51.49,47Z" transform="translate(0)"/><path class="cls-19" d="M38.07,46.67c-1.72.37-.41,2.48,1.26,1.71C40.54,47.82,39.6,46.34,38.07,46.67Z" transform="translate(0)"/><path class="cls-12" d="M40.42,38.71c-3.73-.5-9.66.81-9.1,2.79s2.66.39,5.51.45c3,.06,5.42.92,6.67,0C45.59,40.45,43.53,39.12,40.42,38.71Z" transform="translate(0)"/><path class="cls-12" d="M61.73,38.49c-2.95.47-4.93,1.82-3,3.29,1.17.88,3.46,0,6.33-.15,2.71-.11,4.67,1.42,5.24-.55S65.29,37.93,61.73,38.49Z" transform="translate(0)"/><path class="cls-12" d="M65.63,45.25c-4.35-.58-6.36,4.49-3.29,5.64a9.31,9.31,0,0,1,4.18-.34C69.21,49.25,68.86,45.68,65.63,45.25Z" transform="translate(0)"/><path class="cls-19" d="M64.25,46.27c-1.66.6-.08,2.51,1.47,1.53C66.85,47.09,65.71,45.74,64.25,46.27Z" transform="translate(0)"/><path class="cls-20" d="M64.74,58.86c-5.47,1.73-19.49,1.83-25.56,1-1-.14-3.12-1.16-2.32.78.48,1.18.87,2.44,1.44,3.59C41,69.52,43.52,73.89,50.93,74c7.68.12,9.79-4.63,10.09-8.7a6.93,6.93,0,0,1,1.68-3.56c.29-.37,2.76-2.75,2.58-3S64.82,58.83,64.74,58.86Z" transform="translate(0)"/><path class="cls-17" d="M35.74,58.92c-1.06.71-1,3-.18,3.08s.87-1.54,1.08-2a2,2,0,0,1,1.18-.91c.35-.14.7-.24,1-.33.11,0,1.42-.34,1.11-.51C39.92,58.24,36.93,58.13,35.74,58.92Z" transform="translate(0)"/><path class="cls-17" d="M63,57.93c-.55.14.45.32,1.77.65s0,2.26.88,2.38,1.68-1.34,1.11-2.54S63,57.93,63,57.93Z" transform="translate(0)"/><path class="cls-21" d="M38.64,60.9S42,71,51.07,70.68c8.2-.29,9.17-3.73,9.53-6.15A6.28,6.28,0,0,1,63.29,60C49.32,64.2,38.64,60.9,38.64,60.9Z" transform="translate(0)"/><path class="cls-22" d="M41.63,62a5.38,5.38,0,0,0,2.92,4.51A16.87,16.87,0,0,0,56.3,67c2.77-.82,4.36-5.78,4.36-5.78A73.32,73.32,0,0,1,41.63,62Z" transform="translate(0)"/><path class="cls-22" d="M53.08,67A23.92,23.92,0,0,1,44,65.72c-1.52-.66-1.53.27-1.25,1.09,0,0,.51,3.38,7.61,4,6.21.52,8.91-3.76,8.21-4.64S57,67,53.08,67Z" transform="translate(0)"/><path class="cls-23" d="M41.62,61.9a5.38,5.38,0,0,0,.3,1.43s14.74-1.58,18-.29a8.44,8.44,0,0,0,.72-1.82S50.24,62.85,41.62,61.9Z" transform="translate(0)"/><path class="cls-23" d="M44.81,65.75C51,69,57.72,66,57.72,66A24.79,24.79,0,0,1,44.81,65.75Z" transform="translate(0)"/><path class="cls-24" d="M55.3,43.14c-1.8,2.13-.88,9.22.3,11.54s13.64,2.58,16.66,1.45,5.45-9.35,3.31-12.64S58,40,55.3,43.14ZM71.57,54.57c-2.27.79-13.39.57-14.45-.94S55.69,45.74,57,44.3c1.89-2.11,14.92-1.81,16.81.33S73.82,53.77,71.57,54.57Z" transform="translate(0)"/><path class="cls-24" d="M25.08,43.82c-2.29,2.22.07,9.49,2,11.72s16.36,1.3,19.26,0,2.91-9.2.45-12.35S28.44,40.55,25.08,43.82ZM45.13,54.19c-2.17.86-14.67,1.52-16.32.12s-3.52-7.82-1.9-9.27c2.37-2.13,16.17-2.65,18.26-.68S47.3,53.33,45.13,54.19Z" transform="translate(0)"/><path class="cls-24" d="M48.39,47.42c-.31.15-1.61,2-.69,2.42.23.12,2.93-2.28,7.1-.57.53.22,1,.16.86-.57C55,46,50.29,46.47,48.39,47.42Z" transform="translate(0)"/><path class="cls-25" d="M64.76,43.42c-.85.22-6.61,1.32-5.53,4,.71,1.79,14.09,3,15,0C76.07,41.43,66.41,43,64.76,43.42Z" transform="translate(0)"/><path class="cls-25" d="M44.2,43.41c-2.18-.69-6.81-.32-9.49.14-1,.16-5.37.89-3.85,3.78s12.62,3.39,14.65.94A3,3,0,0,0,44.2,43.41Z" transform="translate(0)"/><path class="cls-26" d="M65.69,43.88c-1.44,0-2.43.37-2.12,1.11.61,1.46,9,1.8,9.73.85S68.78,43.77,65.69,43.88Z" transform="translate(0)"/><path class="cls-27" d="M59.19,51.74c-.89-.11-1.53,0-1.42.66.22,1.22,5.37,2.4,5.89,1.71S61.1,52,59.19,51.74Z" transform="translate(0)"/><path class="cls-26" d="M38.09,43.62c-1.42.07-2.38.38-2.06,1.05.63,1.33,8.9,1.51,9.56.62S41.12,43.47,38.09,43.62Z" transform="translate(0)"/><path class="cls-27" d="M29.64,52.08c-.88-.1-1.5.05-1.38.62.24,1.12,5.31,2.11,5.82,1.47S31.52,52.26,29.64,52.08Z" transform="translate(0)"/></g></g></g></svg>