<svg xmlns="http://www.w3.org/2000/svg" xmlns:xlink="http://www.w3.org/1999/xlink" viewBox="0 0 96 96"><defs><style>.cls-1{fill:none;}.cls-2{clip-path:url(#clip-path);}.cls-3{fill:#ff8967;}.cls-4{fill:#e0e0e0;}.cls-5{opacity:0.1;}.cls-6{fill:#f2f2f2;}.cls-7{fill:#8f4721;}.cls-8{fill:#535363;}.cls-9{fill:#261b18;}.cls-10{fill:#9c552c;}.cls-11,.cls-12{fill:#661004;}.cls-11{opacity:0.3;}.cls-12{opacity:0.4;}.cls-13{fill:#bf6c3c;}.cls-14{fill:#f0ded1;opacity:0.7;}.cls-15{fill:#d47b48;}.cls-16{fill:#78231f;}.cls-17{fill:#fff7ea;}.cls-18{fill:#ecdcc4;}.cls-19{fill:#45362e;}</style><clipPath id="clip-path" transform="translate(0)"><circle class="cls-1" cx="48" cy="48" r="48"/></clipPath></defs><g id="Layer_2" data-name="Layer 2"><g id="Layer_4" data-name="Layer 4"><g class="cls-2"><rect class="cls-3" width="96" height="96"/><path class="cls-4" d="M37.81,76.36S26.74,78.8,27.67,96H35.1a73.83,73.83,0,0,1,1.4-11Z" transform="translate(0)"/><path class="cls-4" d="M57.44,76.36,58.74,85a74.55,74.55,0,0,1,1.41,11h7.43C68.51,78.8,57.44,76.36,57.44,76.36Z" transform="translate(0)"/><path class="cls-4" d="M58.15,76.45c-5.21-1.82-15.15-2.51-21.32.25-3.32,1.49-2.65,11-2,19.3H60.29C60.78,87.45,61.46,77.61,58.15,76.45Z" transform="translate(0)"/><path class="cls-5" d="M36.77,82.08c.57,5.82,5.77,9.2,5.77,9.2l5.09-5L53.05,91c5.19-4.69,5.41-6.5,5.59-10S36.28,77.13,36.77,82.08Z" transform="translate(0)"/><path class="cls-6" d="M36.38,77.83c-2.34,6.61,6.17,12,6.17,12l5.07-3.5,4.73,3.29s9.36-5.37,5.81-13.07C55,69.6,39.09,70.16,36.38,77.83Z" transform="translate(0)"/><path class="cls-7" d="M47.41,67.4c-3.65.06-8.76,2.32-9,8-.13,2.65.28,4.18,1.65,5.62a21,21,0,0,0,7.67,4.43c.58-.1,5.4-2.32,7.52-4.71,1.33-1.5,1.69-3,1.48-5.68C56.24,69.4,51.06,67.33,47.41,67.4Z" transform="translate(0)"/><path class="cls-8" d="M41.39,91.59l6.29-3.88L41,84.78C39.71,86.11,40.24,90.39,41.39,91.59Z" transform="translate(0)"/><path class="cls-8" d="M47.68,87.71,54,91.59c1.16-1.2,1.69-5.48.37-6.81Z" transform="translate(0)"/><path class="cls-8" d="M47.74,86h-.43c-1,0-1.85,0-1.81,1.24s.32,2.09,1.6,2.06c.87,0,1.84.34,2.22-.58.25-.6.76-1.91.2-2.44A2.76,2.76,0,0,0,47.74,86Z" transform="translate(0)"/><path class="cls-6" d="M47.62,92.51a.89.89,0,1,0,.89.89A.89.89,0,0,0,47.62,92.51Z" transform="translate(0)"/><path class="cls-9" d="M73.79,23c1.13-1.42-.6-3.72-2.37-3.57C71.79,18,70.59,17,69,17.69c-.13-2.53-2.35-3-4.33-2.23a2,2,0,0,0-3.46-1c-.45-2.17-2.93-2-4.54-1a3.67,3.67,0,0,0-5.27-.75c-1.49-1.53-4.22-1-5.6.56-1.7-1.46-3.59-.7-4.62,1.09-1.64-1.71-3.8-.08-5,1.4-1.59-1.45-4-.13-4.54,1.74-1.67-.82-4.29.35-4.5,2.35-2.43-.21-5,2-3.49,4.4-1.81.28-3.75,2.46-1.8,3.94-1.95.21-2.08,2.33-1,3.6-2.17,1-2.33,5.64-.36,4.51-1.52.87-1.66,2.88.32,3.12-1.43.94-2.88,2.93-.14,3.26-.92.88-1.61,2.89.07,3.34-1,1.77-1,2.46.76,3.73-.47-.34-.37,2.09-.28,2.31.41,1,1.46,1.53,2.23,2.14A29.69,29.69,0,0,1,27,57.94c3.13,3.5,5.37,7.69,8.42,11.18s6.3-2.42,8.77-3.83a17.47,17.47,0,0,1,11-2.33c3.33.5,5.67,4,9,4.05s5-5,5.71-7.55c.44-1.67.55-4,1.41-5.35.75-1.17,2.51-1.86,1.26-3.79,1.08.09,1.66-2.34.35-2.75,1.31-.21,1.42-2.26.42-2.91,1.64-.6,2.22-1.72.35-2.6,2.77-.62,1.47-3.65-.63-4.18,2.14-1,2.35-3.12.73-3.76,1.87-.6,2.18-3.1.63-3.61,1.59-.6,1.24-2.59-.11-3.9C76.29,26.34,76.4,22.31,73.79,23Z" transform="translate(0)"/><path class="cls-10" d="M45,20.13C32.85,22.5,24.27,40,26.5,56.44,28.18,68.74,37.67,82.23,52,81.22c14.58-1,21.83-19.13,19.95-34.26C69.86,30.52,62.07,16.81,45,20.13Z" transform="translate(0)"/><path class="cls-9" d="M40.71,42c-3.85-.5-8.18.57-9.37,2.86,5.67-.76,10.52,1.92,12.53.48S43.9,42.43,40.71,42Z" transform="translate(0)"/><path class="cls-9" d="M64.26,41.38c-3,.56-5,2-3.08,3.53s6.44-1.54,11.68-1C71.85,41.62,67.86,40.7,64.26,41.38Z" transform="translate(0)"/><path class="cls-11" d="M60.71,22.72A54.78,54.78,0,0,0,46,20.4c-4.45-.08-9.28-.33-13.42,1.55-2.28,1-5.07,2.44-5.93,5-1.06,3.13-.55,7.08,0,10.29a27.94,27.94,0,0,0,3.28,10.16C30,45.18,31,43.11,31.45,41,33,34.17,37.39,31.7,42.66,30.81c4.39-.73,9.38-.36,13.88-.48,2.4-.06,16.34,2.29,13.35-3.29C68.54,24.53,63.17,23.46,60.71,22.72Z" transform="translate(0)"/><path class="cls-10" d="M22.25,49.59c-6,1.65-3.58,10.38,1.31,12.13a11.87,11.87,0,0,0,4.83.53l.09-.15c.72-1.14-.28-7.5-.65-8.7C26.91,50.38,25.12,48.8,22.25,49.59Z" transform="translate(0)"/><path class="cls-12" d="M24.35,52.81c-1.34-.62-4.69.49-3.12,3.12.83-2.44,2.32-.84,2.09.89-.15,1.16-1.4,1.18-.16,2.67.67.8,2,.51,2.71.07C28.05,58.19,26,53.56,24.35,52.81Z" transform="translate(0)"/><path class="cls-9" d="M55,15.16a41.41,41.41,0,0,0-12.52-.37c-6.9.82-15.22,4.09-17.4,11.4-1.34,4.48-.64,9.69-.3,14.27.21,2.78-.91,8.14,1.47,10.24,2.76,2.44,3.85-1.24,4.12-3.87.29-3,.06-6.21.92-9.1,2.08-7,5.81-8.36,15.9-9.14,5.24-.4,18.18-1.39,20.67,3.27.92,1.73,8.53-3.37,1.67-11C66.49,17.54,59.18,16,55,15.16Z" transform="translate(0)"/><path class="cls-13" d="M70.48,52.48c-1.19-1.14-3.2-.94-4.59-.62-1.82.41-4.1,1.66-1.91,4,1.17,1.21,8.62.54,7.08-2.53A2.84,2.84,0,0,0,70.48,52.48Z" transform="translate(0)"/><path class="cls-13" d="M41,53.84c-.95-1.33-3-1.59-4.39-1.59-1.87,0-5.28,1.25-2.92,3.5,1.69,1.62,8.64,2.21,7.73-1A2.87,2.87,0,0,0,41,53.84Z" transform="translate(0)"/><path class="cls-9" d="M39.5,46.06c-4.35-1.18-7.09,3.68-4.12,5.27a9.62,9.62,0,0,1,4.31.23C42.61,50.61,42.74,46.94,39.5,46.06Z" transform="translate(0)"/><path class="cls-12" d="M53.55,56.1c-1.84,0-3.45-.81-5.17-.05s.26,3.21,5.12,3.09S59.69,56.8,58.79,56,55.58,56.08,53.55,56.1Z" transform="translate(0)"/><path class="cls-13" d="M53.44,47.23c-3.45-.3-6.16,6.39-4.69,8.58,1,1.53,8.62,1.48,9.81-.32C59,54.84,56.73,47.52,53.44,47.23Z" transform="translate(0)"/><path class="cls-14" d="M38,46.91c-1.77.38-.42,2.54,1.3,1.75C40.5,48.09,39.52,46.58,38,46.91Z" transform="translate(0)"/><path class="cls-9" d="M67.7,45.31c-4.47-.58-6.54,4.6-3.39,5.78a9.61,9.61,0,0,1,4.31-.35C71.39,49.41,71,45.76,67.7,45.31Z" transform="translate(0)"/><path class="cls-14" d="M66.28,46.36c-1.7.61-.08,2.57,1.52,1.57C69,47.2,67.79,45.82,66.28,46.36Z" transform="translate(0)"/><path class="cls-15" d="M65.73,59.65c-7.82-1.55-20.54,1.06-27.58,1.46-.57,0-1,0-.75.87.88,3.17,4.36,14.7,16.7,14.56,9.06-.1,8.34-6.49,8.51-10.39.08-1.92,2.13-4.28,3.75-5.72C66.88,60,66.45,59.8,65.73,59.65Z" transform="translate(0)"/><path class="cls-16" d="M39.32,62.69s3.78,9.55,13.19,8.94c8.47-.56,9.34-3.89,9.63-6.21A6,6,0,0,1,64.77,61C50.47,65.48,39.32,62.69,39.32,62.69Z" transform="translate(0)"/><path class="cls-17" d="M42.44,63.59a5.1,5.1,0,0,0,3.18,4.21,18.75,18.75,0,0,0,12.17.13c2.83-.89,4.3-5.68,4.3-5.68A81.78,81.78,0,0,1,42.44,63.59Z" transform="translate(0)"/><path class="cls-17" d="M54.46,68.06A26.36,26.36,0,0,1,45,67.12c-1.6-.58-1.58.31-1.25,1.09,0,0,.63,3.21,8,3.53,6.44.29,9.08-3.89,8.33-4.71S58.49,67.87,54.46,68.06Z" transform="translate(0)"/><path class="cls-18" d="M42.43,63.54a5,5,0,0,0,.36,1.37S58,62.89,61.41,64a7.44,7.44,0,0,0,.68-1.77S51.38,64.16,42.43,63.54Z" transform="translate(0)"/><path class="cls-18" d="M45.87,67.11c6.45,2.89,13.35-.22,13.35-.22A27.58,27.58,0,0,1,45.87,67.11Z" transform="translate(0)"/><path class="cls-12" d="M67.32,58.93c-1.6-1.06-3.78-.75-5.57-.59l-1.41.28a11.47,11.47,0,0,1,4.16,1,5,5,0,0,1,2.91,2.87c.25.81.32,3.43,1.3,1.6A4.33,4.33,0,0,0,67.32,58.93Z" transform="translate(0)"/><path class="cls-12" d="M36.76,60a4.31,4.31,0,0,0-1.24,5.22c1,1.8,1-.82,1.25-1.63a4.94,4.94,0,0,1,2.82-2.95,11.69,11.69,0,0,1,4.14-1.16l-1.42-.24C40.52,59.09,38.32,58.84,36.76,60Z" transform="translate(0)"/><path class="cls-19" d="M25.47,32.68h0C25.53,32.69,25.53,32.69,25.47,32.68Z" transform="translate(0)"/><path class="cls-19" d="M70.43,22.86c.46-1.28-.63-3.1-2.09-2.23,1-1.33-.77-3.84-2.19-1.79-.35-.77,0-1.47-1.14-1.41s-1.32.91-1.76,1.7c-.49-1.52-.56-3.51-2.45-4.11-2.16-.7-2.55,1.27-3.58,2.57-.53-.91-.66-2.09-1.61-2.75-1.32-.91-2,.4-2.62,1.38-.74-.48-1-1.46-2-1.09s-1.54,2.17-2.1,3.13c-1-1.14-1.84-3-3.45-3.37-2.06-.49-2.91,1.09-3.65,2.6-.82-.45-1.32-1.28-2.38-.85s-1.36,1.6-1.69,2.52a1.32,1.32,0,0,0-2.12,1.29,3.78,3.78,0,0,0-4.06-1.54,1.91,1.91,0,0,0-1.48,1.7,3.22,3.22,0,0,0,.54,1.79c-1.83-.93-2.48.59-1.55,2.17-.73-.68-2.59-1.89-3.6-1.24s-.82,3.56-.16,4.34c0,0,0,0,0,0-1.9.25-.47,1.28.61,1.6-2.79-.85-2.28,3.44-.41,3.44h0c.06,0,.06,0,0,0h0a1.35,1.35,0,0,0-.51,2.66c-2.1-.44-1.09,1.68.3,2,1.85.45,2.29-1.43.8-2.29,2,1.15,2.43-.88,1-2.1,2.52,1,1.17-2.72.73-3.71.72.32,1.4,1.25,2.25,1S31,28.78,31,28c.35,1,2.16,1.87,3,1.1.71-.63.4-2.54.63-3.38.62.82,2.11,2.94,3.42,2.32,1-.47.65-2.38.93-3.28a3.79,3.79,0,0,0,3.51,2.5c1.94-.17,2-1.44,2.57-3.15.29,1.08,1.65,2.68,3,2.57,1.68-.13,2-1.78,2.59-3.28,1.71,3.22,5.38,3.85,6.69,0,1,5,5,3.14,7.76.86-.46,2.84,1.62,3.7,3.22,1.52-1.36,1.85.72,3.24,2.5,2.75a2.57,2.57,0,0,0,1.86-2.23,3,3,0,0,0-.51-2C72,24.1,70.49,22.68,70.43,22.86Z" transform="translate(0)"/></g></g></g></svg>