<svg xmlns="http://www.w3.org/2000/svg" xmlns:xlink="http://www.w3.org/1999/xlink" viewBox="0 0 66 66"><defs><style>.cls-1{fill:none;}.cls-2{clip-path:url(#clip-path);}.cls-3{fill:#fff;}.cls-4{fill:#e83133;}.cls-5{fill:#4986c2;}.cls-6{fill:#5e0900;}.cls-19,.cls-6{opacity:0.2;}.cls-7{fill:#f29966;}.cls-8{fill:#d45800;}.cls-9{fill:#fab37c;}.cls-10{fill:#d14f2e;}.cls-10,.cls-14{opacity:0.4;}.cls-11{fill:#e36e05;}.cls-12{fill:#f59d67;}.cls-13{fill:#401e15;}.cls-14{fill:#bc551e;}.cls-15{fill:#8f322e;}.cls-16{fill:#fff4e3;}.cls-17{fill:#e8d5b9;}.cls-18{fill:#a89089;}.cls-19{fill:#bf3c1b;}.cls-20,.cls-24{fill:#b53f0d;}.cls-21{fill:#cf550f;}.cls-22{fill:#ffc18f;}.cls-23{fill:#de6604;}.cls-24{opacity:0.6;}.cls-25{fill:#b6773e;}.cls-26{fill:#9c6430;}.cls-27{fill:#e6b242;}.cls-28{fill:#d18c4d;}</style><clipPath id="clip-path"><circle class="cls-1" cx="33" cy="33" r="33"/></clipPath></defs><g id="Layer_2" data-name="Layer 2"><g id="avatars"><g class="cls-2"><rect class="cls-3" width="66" height="66"/><path class="cls-4" d="M26.48,54.77A13.42,13.42,0,0,0,19,66h4.83a14.38,14.38,0,0,1,1.8-5.29Z"/><path class="cls-4" d="M42.89,54.77l.82,5.94A14.6,14.6,0,0,1,45.51,66h4.83A13.42,13.42,0,0,0,42.89,54.77Z"/><path class="cls-4" d="M42.37,53.63c-1.84-1.42-11.58-2.29-14.82,0C23.77,56.29,23,61.24,23.8,66H45.58C46.27,61.65,46,56.44,42.37,53.63Z"/><path class="cls-5" d="M45.17,55.16l-3.72-2.27c.79,3.77-.47,11.45-.47,11.45a39.58,39.58,0,0,1-12.45-.11,95.55,95.55,0,0,0-.85-10.69l-3.14,1.55c1.34,5.86.92,9.13.26,10.91H44.59C43.6,62,45.17,55.16,45.17,55.16Z"/><path class="cls-6" d="M38.63,53.91C36.33,52.7,27.39,52.25,27,55.74c-.37,3.69,2.63,7.08,2.63,7.08l5.38-6,5.18,6.39C42.89,59.79,42.34,55,42.34,55A7.63,7.63,0,0,1,38.63,53.91Z"/><path class="cls-4" d="M27.37,51.8c-2.19,3.64,1.95,9.51,1.95,9.51l5.62-3.53,5.64,3.61s4.05-6.57,1.72-10.6S29.56,48.16,27.37,51.8Z"/><path class="cls-7" d="M28.09,52.56C28.14,54.6,30,58,34.92,60c0,0,7.14-2.66,6.53-8.46S28,46.22,28.09,52.56Z"/><path class="cls-8" d="M28,9.25C7.5,15.08,13.33,38.65,19.32,37.1c3.64-1,7.24-2.1,10.83-3.21s7.67-1.67,11.28-.65c1.08.3,2,.94,3.11,1.15,3.65.71,6.57-.78,6.71-4.55,0-.2,0-.4,0-.6a32.07,32.07,0,0,0-1.83-9.41C46.47,11.16,36.65,6.79,28,9.25Z"/><path class="cls-9" d="M31.45,13.6C22.5,14.67,14.24,24.81,17.61,35.25c1.74,5.38,1.74,6.72,4.21,12.07s8.23,8.62,15.88,7.93c6.95-.63,9.36-4.18,11-10.08A35.63,35.63,0,0,0,50,31.36C48.71,20.48,40.4,12.52,31.45,13.6Z"/><path class="cls-10" d="M24.77,34.2c.08.63,1.49.25,1.92.33-.35.41-1.46.46-1.91.75s-.41.49.17.45a10.29,10.29,0,0,0,2.5-.8C28.45,34,25.26,34,24.77,34.2Z"/><path class="cls-10" d="M47.45,33.26c.38-.08,1.52.3,1.65-.31-.39-.16-3.07-.25-2.32.69a7.12,7.12,0,0,0,2,.81c.48,0,.55-.14.19-.44S47.71,33.66,47.45,33.26Z"/><path class="cls-11" d="M41.58,28.14c.59,1.49,2.48.7,3.61.52.73-.12,2.56.17,3.36-.21a.89.89,0,0,0,.28-.21C50.89,25.58,40.36,25.12,41.58,28.14Z"/><path class="cls-11" d="M24.3,30a1,1,0,0,0,.36.18c1,.25,2.87-.35,3.7-.34,1.26,0,3.49.49,3.78-1.12C32.71,25.44,21.42,27.63,24.3,30Z"/><path class="cls-12" d="M46.12,34.51c-1.13-.09-2.7.24-1.9,2,.43.95,4.88,1.93,4.61-.2a1.72,1.72,0,0,0-.18-.58A3,3,0,0,0,46.12,34.51Z"/><path class="cls-12" d="M28.41,36.14a3.36,3.36,0,0,0-3,.07c-1.12.44-2.44,1.47-.81,2.71.86.65,5.57-.53,4.27-2.34A1.87,1.87,0,0,0,28.41,36.14Z"/><path class="cls-13" d="M28.93,31.52c-2-1-3.43,2.5-2.13,3.75a2.89,2.89,0,0,1,2,.28C30.17,34.94,30.38,32.25,28.93,31.52Z"/><path class="cls-14" d="M44.26,38.33c-.34.11.29.23,1.11.45a.46.46,0,0,1,.32.24c-4.41,1.36-12,2.67-17.69.82a.93.93,0,0,1,.14-.14c.78-.61,1.89-.67,1.58-.87a5.28,5.28,0,0,0-2.61.56c-.66.53-.64,2.19-.11,2.26s.44-.85.79-1.51c.39,1.8,2.37,9.4,8.75,9.38C41.34,49.5,42.79,47,43,44c.1-1.66,1.75-3.74,2.77-4.74.09.5-.2,1.24.17,1.29.53.07,1-1,.7-1.87S44.26,38.33,44.26,38.33Z"/><path class="cls-15" d="M29,41.05s2.08,7.36,7.77,7c5.12-.33,5.73-2.87,5.95-4.64a4.85,4.85,0,0,1,1.67-3.34A17.14,17.14,0,0,1,29,41.05Z"/><path class="cls-16" d="M30.87,41.77s.07,2.4,1.82,3.27a9.07,9.07,0,0,0,7.34.23c1.73-.64,2.72-4.3,2.72-4.3A19.93,19.93,0,0,1,30.87,41.77Z"/><path class="cls-16" d="M38,45.33a12.76,12.76,0,0,1-5.67-.82c-1-.47-1,.21-.78.81,0,0,.32,2.47,4.76,2.8,3.88.29,5.56-2.88,5.12-3.51S40.46,45.23,38,45.33Z"/><path class="cls-17" d="M30.86,41.74a5.07,5.07,0,0,0,.45,1.88S40,42,42.05,42.89a12.06,12.06,0,0,0,.7-1.92S36.59,43.3,30.86,41.74Z"/><path class="cls-17" d="M32.86,44.51c3.83,2.28,8.06,0,8.06,0A13.21,13.21,0,0,1,32.86,44.51Z"/><path class="cls-13" d="M45.15,34.07a2.72,2.72,0,0,1,1.9-.29c.92-.86,1.17-2.76.11-3.54C45.18,28.79,42.86,33.17,45.15,34.07Z"/><path class="cls-18" d="M28.32,32c-.83.23-.31,1.85.52,1.32C29.44,32.93,29.06,31.79,28.32,32Z"/><path class="cls-18" d="M46.41,30.55c-.84.1-.59,1.77.3,1.38C47.35,31.65,47.16,30.47,46.41,30.55Z"/><path class="cls-9" d="M14.91,33.35c-4.39,1.34-2.47,6.84,1.17,7.73a9.8,9.8,0,0,0,3.58.11.86.86,0,0,0,.07-.1c.51-.76-.53-4.43-.82-5.19C18.18,34,17,32.7,14.91,33.35Z"/><path class="cls-19" d="M42.86,18.38a40.29,40.29,0,0,0-13,.66c-2.9.66-6,1.86-7.63,4.46s-4.06,5-3.5,8.21c.12.69,1.09,4.09,2.39,3,.59-.5-.08-2.91.28-5.32a4.73,4.73,0,0,0,2.17,2.8c.17.11,3.81-5.5,4.75-6a4.73,4.73,0,0,0,2.27,4.54,8.66,8.66,0,0,1,2.81-3.57c.3.24,2,3.78,2,3.73.63-.73,1-1.69,1.6-2.46A13.23,13.23,0,0,1,43.27,24c1.47-.46,3.89-1,4.56-2.57C49,18.72,44.38,18.55,42.86,18.38Z"/><path class="cls-10" d="M17.37,35.31c-1.16-.48-4.22,0-3,1.85.89-1.54,2.12-.4,1.81.71-.21.75-1.32.69-.31,1.74a2.59,2.59,0,0,0,2.42.21C20.34,39.06,18.78,35.91,17.37,35.31Z"/><path class="cls-20" d="M47.33,37.05c-2.35-1.76-5.87-.16-8.33.34-2.71.56-5.54,0-8.27-.07s-6.92,1-7,4.39c-.18,4.42,3.5.37,4.4-1.14,0,.74,1.56.46,2.58-.09-1.05,1.31,1.88.9,2.44.28-.52,1.11,1.63.75,2.65.05-.72.9.81,1.6,1.28.1-.32,1,1.47,1.11,1.51,0,1.44,1,2.43.3,1.73-.59,1.47,1.15,2.72.28,2.33-.38.84.4,2.42.87,2.44-.58.62,1.2,1.56,2.67,2.17,2.86C48.22,42.5,51.09,39.87,47.33,37.05Z"/><path class="cls-20" d="M50,31.61c-.24,1.51-.06,5.91-1.25,7-.91.84-2.47-.61-3.69,0-.77.39,3.24,11.65-2.17,12-2,.12-2.14-1.92-5.67-1.23-1.81.36-3.65,3.19-6,2.19-4.6-1.91-4.5-8.46-3.53-10.83.76-1.86-3.57.24-5.07-1.56-.95-1.15-.75-3-1.63-4.17-1.08-1.39-2.39-.62-2.42,1s.32,3,0,4.45c-.92,4-.07,5.47.6,4-.06.57-.34,4,.91,2.51-.53.95,0,4.37,1.34,3.33-.14.91.55,3.6,1.51,3.42.2.88,1.79,3.53,2.61,1.9-.13.25,1.13,1.74,1.35,2a3.08,3.08,0,0,0,2.22,1.3c.47,0,.63-.44,1.1-.39s1.14.84,1.63,1.06,1.07.41,1.5-.13a2,2,0,0,0,3.17.21,1.72,1.72,0,0,0,2.91-.24c1,1.43,2.25-.47,2.7-1.34-.46.88,2,1.7,2.63-2.52.13,1.06,1,.81,1.52.18a4.17,4.17,0,0,0,.56-2.14c1.51,1,1.82-2,1.67-2.81,1.47.32,1-2.83.77-3.51,1.8.78.88-2.68.61-3.31.83,2,1.74-.72.45-3.5C52.15,41.82,50.78,33,50,31.61Z"/><path class="cls-21" d="M22.91,41c-.45-.56-1.83-2.39-1.79-3.1-.06,1-1.32.29-1.61-.15a4.82,4.82,0,0,0,.07,1.65c0,.06.77,1.23.8.88-.05.63-.92,5.17.79,4-.23.77.23,4.83,1.25,2.87,0,.72,0,3.74,1.31,3.46s1.25-7,.78-7.92C24.16,42,23.38,41.63,22.91,41Z"/><path class="cls-8" d="M45.8,16.11a21.85,21.85,0,0,0-8.56-2.85,43.3,43.3,0,0,0-5-.59A18.88,18.88,0,0,0,24.16,15C20.43,16.9,18,21.29,16.93,25.19a15.25,15.25,0,0,0-.46,7.16c.34,1.51,1.75,4.73,4,5.11.51.09,1.2-.23,1-2-.3-2.59-1.46-6.16.47-8.66a3.92,3.92,0,0,0,1.3,3.74c1.06-2.21,3.19-4.82,5.68-5.42a7.52,7.52,0,0,0,1.48,4.33,5.25,5.25,0,0,1,2.72-3.57,10.65,10.65,0,0,0,2.15,3.53c1.6-1.87,2.75-4.21,4.78-5.66s5.09-1.27,7.2-2.83C49.22,19.46,47.38,17,45.8,16.11Z"/><path class="cls-22" d="M36.94,30.39c-2.47.28-3.09,6.8-1.71,7.57a5.49,5.49,0,0,0,5.39-.57C41.28,36.75,39.89,30.06,36.94,30.39Z"/><path class="cls-23" d="M35.18,25c-1.09,1.37-.22,2.16.13,3.47-.11-.39,1.59-2.55,1.85-3a12.42,12.42,0,0,0,1.32-3A14.36,14.36,0,0,0,35.18,25Z"/><path class="cls-21" d="M40.21,50.64c-2.28-1-4.47.34-6.24,2.08-1.51,1.5-1.91,4.59.16,6,.65.45,1.45.54,1.35-1.2.84,1.42,2.89,2.59,3.1.6,1.32,1.05,2.35.28,2.79-1.19,1.39,1.86,2.88-1.21,2.81-2.48C44.07,52.31,41.88,51.38,40.21,50.64Z"/><path class="cls-21" d="M43.49,36.85c-1.86.22-2.69,1.31-4.22,2s-3,.16-4.38-.51c-4.76-2.39-12.81.85-10.56,7.17.29.83.51,1.79,1.48,2,1.06-2.73-.52-6.84,2.71-8.38-1.31,2.3,2.56,0,3.14-.22-1.64,2.65,1.41,1.4,2.63.51a2.15,2.15,0,0,0-.5,1.36c.91.33,1.63-.46,2.2-1.09-.34,1.25,1,1.37,1.62.61.39.63.75.5,1-.2.38.34.68.21,1.09.36,0-.24.15-.51,0-.81.82.46,2.68.75,2-.82.71,1.11,3.29,1,2.63-.66,1.53,1,2,3,2.16,4.69.13,1.09-.28,6.18,1.84,4.34.91-.79.89-2.78.42-3.78,2.19,1.47-.34-3.45-.66-3.95C47,37.72,45.69,36.58,43.49,36.85Z"/><path class="cls-21" d="M29,51.86c-.71-.54-1.66-3.07-2.72-2.77s-.53,2.66-.47,3.42c0,.59,1,3.79,1.64,1.84a3.11,3.11,0,0,0,1.18,2.88c.83.47,1.83-.59,1.51-.77.66.37,1.22,1.23,1.9,1.46,2.12.72,2.14-4,2.14-5.33a12.74,12.74,0,0,1-1.58.53A4.43,4.43,0,0,1,29,51.86Z"/><path class="cls-21" d="M45.88,52.54Z"/><path class="cls-21" d="M46.46,48.93c-.6-.06-.62.94-.86,1.35a3.11,3.11,0,0,1-1.92,1.54c-.41.1-1.45-.15-1.74,0-.77.52-.26,1.93.31,2.46,1.71,1.62,3.64.62,3.63-1.74v0h0c.64,1.06,1.3,0,1.47-.74C47.47,51.27,47.28,49,46.46,48.93Z"/><path class="cls-23" d="M30.23,28.3a6.18,6.18,0,0,1,.8-1.45c.85-1.47,2.23-2.28,3.18-3.68C31.61,24.13,28.81,25.06,30.23,28.3Z"/><path class="cls-23" d="M23.3,29.22c-.23-.23.94-2.13,2.76-3.43,1-.73,2.52-1.14,3.1-2.47-1.1.58-2.57.35-3.74.79C23.63,24.79,21.48,27.45,23.3,29.22Z"/><path class="cls-24" d="M44.61,14.71c-3.71-1-7.82-.76-11.6-.47a36.62,36.62,0,0,0-16,5c-4.31,2.58-3.3,5.91,1.2,5.51s9.3-2,13.25-2.62c4.49-.71,8.79-1,13.27-1.78C49.55,19.51,49,15.94,44.61,14.71Z"/><path class="cls-25" d="M45.19,10.94c-8.08-1.49-17.11-1.28-24.66,2.43C19.19,14,6.37,21,11.38,23.09c3.56,1.5,14.36-2.48,18.22-3.13,6.77-1.16,14.15-1.19,20.7-3C59.07,14.46,49.18,11.69,45.19,10.94Z"/><path class="cls-26" d="M28.47,6a8.14,8.14,0,0,1-2.58-.25,7.9,7.9,0,0,0-3.39-.27C20.32,6,20,8.14,19.53,10A42.16,42.16,0,0,1,17,17.28c3.87,1,12.73.49,15.4-.07,3.69-.78,9.56-1.74,11.91-5.09-1.92-1.86-3.44-5.11-5.28-7C35,.84,33,5.44,28.47,6Z"/><path class="cls-27" d="M42.24,9a15.74,15.74,0,0,1-2.66,1.87A23.28,23.28,0,0,1,29.71,14a26.09,26.09,0,0,1-11.31-.87,7.38,7.38,0,0,1-1,2.81c1.24.16,2.49.67,3.76.83,4.67.62,9.3-.13,14-.92,3.29-.56,6.15-2.47,8.91-4.47A5.08,5.08,0,0,1,42.24,9Z"/><path class="cls-25" d="M35.33,3.89A10.59,10.59,0,0,0,32.9,5.42a7.82,7.82,0,0,0,2.19.49,41.2,41.2,0,0,1-9.35.16c-2.09-.24-3.92-.46-4.62,2-.48,1.66.54,1.52,1.63,1.1.67-.25,1.37-.6,1.77-.72A36.8,36.8,0,0,1,36.11,7C37.5,7,38.93,6.65,38,5A2.25,2.25,0,0,0,35.33,3.89Z"/><path class="cls-28" d="M48.33,16.85c-3.45.5-11.28.75-18.29,2.1-5.78,1.12-9.39,2.8-13.89,3.52-4.28.69-5.34-.34-5.34-.34s.27,1.39,4.68.84c6.64-.81,11.32-3.26,17.19-3.89,7.75-.83,14.54-1.46,17.35-2.3s3.14-2.1,3.14-2.1S51.79,16.34,48.33,16.85Z"/></g></g></g></svg>