<svg xmlns="http://www.w3.org/2000/svg" xmlns:xlink="http://www.w3.org/1999/xlink" viewBox="0 0 66 66"><defs><style>.cls-1{fill:none;}.cls-2{clip-path:url(#clip-path);}.cls-3{fill:#ef5649;}.cls-4{fill:#261b18;}.cls-5{fill:#6f6e82;}.cls-6{fill:#ff87b3;}.cls-7{fill:url(#linear-gradient);}.cls-8{fill:#fffcfc;opacity:0.3;}.cls-9{fill:#ffbc82;}.cls-10,.cls-13{fill:#b54319;}.cls-10{opacity:0.2;}.cls-11{fill:#57443a;}.cls-12{fill:#ff7752;opacity:0.4;}.cls-13{opacity:0.5;}.cls-14{fill:#ffd4ad;}.cls-15{fill:#425361;}.cls-16{fill:#c3d5e3;}.cls-17{fill:#121b21;}.cls-18{opacity:0.35;}.cls-19{fill:#c4170e;}.cls-20{fill:#8f2621;}.cls-21{fill:#fff9f0;}.cls-22{fill:#e8dac5;}</style><clipPath id="clip-path" transform="translate(0.01)"><circle class="cls-1" cx="33" cy="33" r="33"/></clipPath><linearGradient id="linear-gradient" x1="32.81" y1="51.65" x2="32.81" y2="53.98" gradientUnits="userSpaceOnUse"><stop offset="0" stop-color="#ee996d"/><stop offset="0.02" stop-color="#ee9a6e"/><stop offset="0.37" stop-color="#f8b181"/><stop offset="0.71" stop-color="#fdbf8d"/><stop offset="1" stop-color="#ffc491"/></linearGradient></defs><g id="Layer_2" data-name="Layer 2"><g id="avatars"><g class="cls-2"><rect class="cls-3" width="66" height="66"/><path class="cls-4" d="M48.39,53.37c1.16-3.39,3.85-16.48,3.34-28.94C51,6.8,28.4,3,20,13.2c-9.91,12.11-4.69,20.69-5.2,23.56-.76,4.33-3.2,7.73-2.56,11.27,1,5.44,6.14,6,2.39,13.27,2.19.69,5-1.24,6.31-3.12A13.5,13.5,0,0,0,29.67,66H36.4C41.28,64.7,45.94,60.58,48.39,53.37Z" transform="translate(0.01)"/><path class="cls-5" d="M40.66,57c-2.15-2.65-8.4-3.4-11.78-2-2.56,1-2.63,5.81-2,11H40C40.29,62.43,41.39,57.88,40.66,57Z" transform="translate(0.01)"/><path class="cls-6" d="M39.16,62.41c.61-2.28.16-6.54-1.35-7.11a14.19,14.19,0,0,0-9.45.05c-2.12.91-2.85,2.2-1.41,6.68A28.71,28.71,0,0,1,28,66H38.36A35,35,0,0,1,39.16,62.41Z" transform="translate(0.01)"/><path class="cls-7" d="M35.9,50.93c.21-3.57-6-3.7-5.95.2a12.27,12.27,0,0,1-.22,3.6c-.73,1.59,7,1.88,6.14.18C35.41,54,35.81,52.51,35.9,50.93Z" transform="translate(0.01)"/><path class="cls-8" d="M35.67,58.88a10.32,10.32,0,0,1-5.67-.1c-1-.25-1.61.91-1.3,1.91.42,1.33,2.56,1.67,4.43,1.64,3.68-.06,5-1.42,4.43-3C37.39,58.84,36.61,58.54,35.67,58.88Z" transform="translate(0.01)"/><path class="cls-9" d="M31.93,16.07C24.32,17.42,18.78,28.23,20,38.48c.9,7.61,7.37,15.81,15.2,15.32,9.4-.6,14.15-11.68,13.19-20.72C47.28,22.82,42.58,14.19,31.93,16.07Z" transform="translate(0.01)"/><path class="cls-10" d="M45.2,19.16a35.53,35.53,0,0,0-12.62-2.92c-2.76-.12-6.48-.36-9.09.71-3.91,1.6-5.62,4.13-6.23,8-.41,2.66,2.22,5.25,4.25,7,1.48-1.4.83-3.34.81-5,0,2.34,6.43,2.17,7.87,1.67a26.49,26.49,0,0,0,2.67-1.09c2.18-1.05,4.39-2.57,5.06-4.57,1.48,2.36,8.51,7.25,11.16,4.35C51.2,25,47.42,20.09,45.2,19.16Z" transform="translate(0.01)"/><path class="cls-4" d="M43,14.17c-4.13-3.63-9.59-3.7-14.76-2.9-3.41.53-6.37,2.94-8.4,5.62-2.25,3-2.84,5.77-3.21,9.47a44.41,44.41,0,0,0,.31,7.88c.12,1.27.16,5.32,1.82,5.77,2,.52,3.74-5.42,4.59-6.62a16.54,16.54,0,0,1,7.07-6.11c2.9-1.3,6.26-3,7.42-6.17,2.27,2.29,6.64,6,10.15,5.84,2.82-.15,1.44-3.55.76-5.28A21.06,21.06,0,0,0,43,14.17Z" transform="translate(0.01)"/><path class="cls-11" d="M31.64,9.14a16,16,0,0,0-12.89,8.72c-.84,1.73-2.38,5.31-2.09,7.28a2.47,2.47,0,0,0,2.08,2.17c.77.14,3.56-.46,3.74-1.44-.22,1.17-1.23,2.14-1.63,3.3a29.84,29.84,0,0,0,12.61-5.58c.59-.48,4.6-4.48,4-5.27,3.3,4.08,8.17,5.62,13,3.82C49,12.13,38.63,8.79,31.64,9.14Z" transform="translate(0.01)"/><path class="cls-12" d="M47.12,36.86a3.41,3.41,0,0,0-2.78-1c-1.19,0-2.77.41-1.71,2.11.56.91,5.3,1.58,4.75-.5A1.92,1.92,0,0,0,47.12,36.86Z" transform="translate(0.01)"/><path class="cls-12" d="M29,36.48a3.64,3.64,0,0,0-3.1-.33c-1.21.3-2.7,1.15-1.18,2.59.81.78,5.8.22,4.69-1.75A1.88,1.88,0,0,0,29,36.48Z" transform="translate(0.01)"/><path class="cls-13" d="M36.6,37.77c-1-.06-1-.59-1.66-.19s-.19,2,1.55,2,2.54-1.2,2.2-1.73S37.69,37.85,36.6,37.77Z" transform="translate(0.01)"/><path class="cls-14" d="M36.42,33.38c-.8,0-2,3.85-1.56,4.44,1,1.45,3.17.79,3.83-.18C39,37.25,37.33,33.36,36.42,33.38Z" transform="translate(0.01)"/><path class="cls-15" d="M45.6,31.59c-2.7-1.15-5.16,2.18-3.22,3.91a3.58,3.58,0,0,1,3.81-.12C47.3,34.59,47.05,32.21,45.6,31.59Z" transform="translate(0.01)"/><path class="cls-16" d="M45.9,33.46c-.74.23-.39,1.65.37,1.15C46.82,34.26,46.56,33.26,45.9,33.46Z" transform="translate(0.01)"/><path class="cls-16" d="M43.37,32c-1.25.39-.66,2.8.62,2C44.93,33.34,44.49,31.64,43.37,32Z" transform="translate(0.01)"/><path class="cls-15" d="M25.49,31.81c-1.42.66-1.61,3-.47,3.8a3.54,3.54,0,0,1,3.81,0C30.72,33.84,28.16,30.58,25.49,31.81Z" transform="translate(0.01)"/><path class="cls-16" d="M25.25,33.69c-.66-.19-.89.82-.33,1.16C25.69,35.33,26,33.9,25.25,33.69Z" transform="translate(0.01)"/><path class="cls-16" d="M27.73,32.14c-1.12-.31-1.51,1.39-.56,2C28.48,34.93,29,32.5,27.73,32.14Z" transform="translate(0.01)"/><path class="cls-4" d="M29.26,28.54a14.66,14.66,0,0,0-4,.23,6.68,6.68,0,0,0-2.49,1.07,1.1,1.1,0,0,0-.48.73c.22,0,.38-.1.59-.16A12.51,12.51,0,0,1,26,30.08c.81,0,1.61,0,2.42,0,.54,0,1.28.09,1.58-.44S30,28.57,29.26,28.54Z" transform="translate(0.01)"/><path class="cls-4" d="M47.76,29.46a6.39,6.39,0,0,0-2.44-.93,14.68,14.68,0,0,0-3.86-.07c-.71.06-1.1.46-.73,1.09s1,.36,1.54.36c.79,0,1.57-.08,2.36-.09a11.91,11.91,0,0,1,3,.2c.2,0,.36.17.57.13C48.25,29.89,48,29.62,47.76,29.46Z" transform="translate(0.01)"/><path class="cls-17" d="M45.06,31.13a2.81,2.81,0,0,0-3.19,2,2.53,2.53,0,0,1,2.82-.87c3.67,1.57,5.61-1,5.61-1C47.68,32.45,46.34,31.36,45.06,31.13Z" transform="translate(0.01)"/><path class="cls-17" d="M26.12,31.4c-1.27.25-2.6,1.35-5.23.16,0,0,2,2.58,5.61,1a2.52,2.52,0,0,1,2.83.83A2.79,2.79,0,0,0,26.12,31.4Z" transform="translate(0.01)"/><g class="cls-18"><path class="cls-19" d="M25.42,41.4c4.25,6.24,6.83,7.37,10.08,7.51,4.08.17,5.43-2.43,6-4.37a11.53,11.53,0,0,1,3.07-3.45c-2.53.6-5,.34-8.86.5C32.57,41.73,27.94,42.67,25.42,41.4Z" transform="translate(0.01)"/></g><path class="cls-20" d="M27.36,42.47A9.5,9.5,0,0,0,35,46.7c3.25,0,5.37-1,6-2.45a4.15,4.15,0,0,1,2-2.16A34.78,34.78,0,0,1,27.36,42.47Z" transform="translate(0.01)"/><path class="cls-21" d="M29.24,42.82s.17,1.28,2,1.75a18,18,0,0,0,7.37.21,3.92,3.92,0,0,0,2.55-2.3A37.42,37.42,0,0,1,29.24,42.82Z" transform="translate(0.01)"/><path class="cls-21" d="M36.24,45c-2.31.11-4.24,0-5.4-.7-.84-.49-.91,0-.72.38,0,0,.77,1.75,4.62,2.1,3.7.34,5.58-1.78,5.15-2.14S38.39,44.87,36.24,45Z" transform="translate(0.01)"/><path class="cls-22" d="M29.24,42.82a2.06,2.06,0,0,0,.47.9s8.66-.8,10.74-.11a4.08,4.08,0,0,0,.69-1.13A42.93,42.93,0,0,1,29.24,42.82Z" transform="translate(0.01)"/><path class="cls-22" d="M31.53,44.53c3.13,1.71,6.83.19,6.83.19A13.17,13.17,0,0,1,31.53,44.53Z" transform="translate(0.01)"/><path class="cls-5" d="M28.88,55a12.75,12.75,0,0,0-2.53,1.31h0C25,57.11,23.27,59.2,23.8,66h4.61C28,61.56,27.78,57.46,28.88,55Z" transform="translate(0.01)"/><path class="cls-5" d="M40.29,56.63A10.49,10.49,0,0,0,37.41,55c1.09,2.49.86,6.57.47,11h4.46C42.81,60,41.54,57.68,40.29,56.63Z" transform="translate(0.01)"/></g></g></g></svg>