<svg xmlns="http://www.w3.org/2000/svg" xmlns:xlink="http://www.w3.org/1999/xlink" viewBox="0 0 66 66"><defs><style>.cls-1{fill:none;}.cls-2{clip-path:url(#clip-path);}.cls-3{fill:#ef5649;}.cls-4{fill:#62698a;}.cls-5{fill:#d9c9b2;}.cls-6{opacity:0.2;}.cls-7{fill:#8690b3;}.cls-8{fill:#495070;}.cls-9{fill:#f2e4ce;}.cls-10{fill:#231e1a;}.cls-11{fill:#ffc999;}.cls-12{fill:#1a1614;}.cls-13{fill:#2b241e;}.cls-14{fill:#d14f2e;opacity:0.3;}.cls-15{fill:#a88686;}.cls-16{fill:#ff946e;}.cls-17{fill:#423631;}.cls-18{fill:#c84f36;opacity:0.5;}.cls-19{fill:#7e2420;}.cls-20{fill:#fff7eb;}.cls-21{fill:#e8dac5;}</style><clipPath id="clip-path" transform="translate(0.01)"><circle class="cls-1" cx="33" cy="33" r="33"/></clipPath></defs><g id="Layer_2" data-name="Layer 2"><g id="avatars"><g class="cls-2"><rect class="cls-3" width="66" height="66"/><path class="cls-4" d="M28.6,50.77c-3.32,1.38-5.16,5.67-7.2,15.23h5.32c.43-2.25,1.53-7.13,3.15-8.79C32,55,31.11,49.73,28.6,50.77Z" transform="translate(0.01)"/><path class="cls-4" d="M40.69,50.77c-2.51-1-3.4,4.27-1.27,6.44C41,58.87,42.14,63.75,42.57,66h5.32C45.84,56.44,44,52.15,40.69,50.77Z" transform="translate(0.01)"/><path class="cls-5" d="M12.1,28.62c.68,9.94,6.64,18.64,22.09,15.73C51.39,41.12,55,29.57,50.81,18.13,46.78,7,11.07,13.63,12.1,28.62Z" transform="translate(0.01)"/><path class="cls-4" d="M41.06,59.08c1.16-3.08,1.94-6.65-.83-8.34-3.13-1.9-8.51-1.63-11.27.44-2.12,1.6-1.23,5.43-.54,7.73s.57,2.8.2,4.19c-.16.62-.53,1.66-1,2.9h14.1c-.19-.72-.35-1.37-.48-1.89C41,63,40.48,60.61,41.06,59.08Z" transform="translate(0.01)"/><path class="cls-6" d="M38.59,59.08c.36,2.44.66,4.73.87,6.92h.48a68.22,68.22,0,0,0-.88-7S38.55,59,38.59,59.08Z" transform="translate(0.01)"/><path class="cls-6" d="M41.1,51.55c-1.38-.36-2.8,1.87-4.12,2a10.46,10.46,0,0,1-4.21-.15l.14.73c.58,2.18,5.27.69,6.53.05a10.25,10.25,0,0,1-.33,1.48c.57-.32,1,.09,1.37.55a6.25,6.25,0,0,1-4.27.93,6,6,0,0,1-4-1.91,17.69,17.69,0,0,1-1.78-2.82c-.24-.36-.84-.95-.81-1.36l-1.08.47c-.74,1.37-.37,1.91-.4,2.81a10.78,10.78,0,0,1-.71,3.23c-.42,1.59.43,1.29.6,2.87.09.84.57,1.69.67,2.5A6.66,6.66,0,0,0,31,60.09a8.42,8.42,0,0,0,.33-1.47c1.09,1.89,3.3,2.25,5.28,2.1,3.93-.29,6.72-2.67,6.4-5.77C42.76,52.55,42.3,51.85,41.1,51.55Z" transform="translate(0.01)"/><path class="cls-5" d="M37.25,46c-3.22-.44-9-.43-8.29,4.79.52,3.74,5.17,4.17,8.19,3.64C42.38,53.47,43,46.74,37.25,46Z" transform="translate(0.01)"/><path class="cls-5" d="M40.79,49.67c-1.22,0-.68,2.76-.67,3.46,0,1.61-.49,2.76-2.2,3.08a3.54,3.54,0,0,1-3.56-1.12c-1.39-1.69-1.65-4.6-3.49-5.86-.7-.48-1.2-.53-1.55-.31-1,.63-.79,3.43-.54,4.55a10.06,10.06,0,0,0,3,5,7.07,7.07,0,0,0,9.16.11,4.9,4.9,0,0,0,1.79-4.24C42.69,53.42,42.2,49.7,40.79,49.67Z" transform="translate(0.01)"/><path class="cls-5" d="M31.18,49.41l-2,.32c-.32,9-2.72,11.54-8.3,14.39-.44.23-.4,1-.1,1.88H26C30.26,62.55,32.11,56.32,31.18,49.41Z" transform="translate(0.01)"/><path class="cls-7" d="M37.37,64.1a.62.62,0,1,0,.84.25A.63.63,0,0,0,37.37,64.1Z" transform="translate(0.01)"/><path class="cls-7" d="M37.35,61.6a.62.62,0,1,0,.84.25A.63.63,0,0,0,37.35,61.6Z" transform="translate(0.01)"/><path class="cls-7" d="M33.66,64.17a.63.63,0,0,0-.24.84.62.62,0,0,0,.84.25.61.61,0,0,0,.24-.84A.62.62,0,0,0,33.66,64.17Z" transform="translate(0.01)"/><path class="cls-7" d="M33.76,61.56a.62.62,0,1,0,.84.24A.62.62,0,0,0,33.76,61.56Z" transform="translate(0.01)"/><path class="cls-8" d="M37,46.23c-3-.27-8.37-.27-7.69,3.07.48,2.38,4.93,3.15,7.72,2.51C41.85,50.72,42.38,46.73,37,46.23Z" transform="translate(0.01)"/><path class="cls-9" d="M41.7,52.73c-.1-.81-.57-1.37-.89-.35-.45,1.4-.16,2.44-1.37,3.47s-2.85,1.83-4.37.9-2.25-2.43-3.19-3.86c-.3-.44-.88-.67-.82.2h-.13c-.13.11-1.93-4.18-1.47-.27,0,.19.05.38.08.56a7,7,0,0,0,3,4.61,6.53,6.53,0,0,0,7.32.43,5.63,5.63,0,0,0,2.22-3.53,1.62,1.62,0,0,0-.7.36A6.74,6.74,0,0,0,41.7,52.73Z" transform="translate(0.01)"/><path class="cls-9" d="M26.13,64.66a9,9,0,0,0,2.54-4.86c-.38.3-.61.71-1.06.91.14-.47.76-1.29.56-1.74-.39.42-.77.88-1.13,1.33a12.73,12.73,0,0,1-2.14,2.2,13.18,13.18,0,0,1-2.44,1.35c-.27.12-1,.31-1.13.55s-.1.72.19.51c-.39.29.16.74.51.61a.48.48,0,0,0-.12.48h2.81A9.2,9.2,0,0,0,26.13,64.66Z" transform="translate(0.01)"/><path class="cls-9" d="M34.28,52.58h0Z" transform="translate(0.01)"/><path class="cls-9" d="M39.19,52.51c.16-.2.94-1,.7-1.29s-.93.22-1.13.3a11.82,11.82,0,0,1-3.16,1,6.22,6.22,0,0,1-1.43,0h0c-.59-.07-.2.5.19.66-.73.4.69.8.91.81a8.39,8.39,0,0,0,3.33-.51,3,3,0,0,0,1.6-1.19C40,52.1,39.45,52.46,39.19,52.51Z" transform="translate(0.01)"/><path class="cls-10" d="M47.27,14.73c-2-2.51-1.49-5.44-5-6.77-.8-.3-7.42-1.43-7.73-.49.17-.52,0-.9.52-1.33-2.53.4-5.57.52-8.76,2.56-1.47.93-2.08,2.3-3.78,2.83a16.26,16.26,0,0,0-4.19,1.81c-3.38,2-5.14,6.23-5.5,7.5A3.68,3.68,0,0,1,15.64,20a6.37,6.37,0,0,0-.48,6c.84,2.12-1.59,4.13-.07,7.92,1.47,3.63,6,6.8,6,10.84A37.36,37.36,0,0,0,25,41.87c.73-1.08.87-2.39,1.67-3.45,2-2.64,5.65-3.88,8.84-3.88,2.33,0,3.2,1,4.62,2.49.94,1,4.39,2.22,6.59,6.42a8.48,8.48,0,0,0,1.95-4.72c.37.62,1.79.59,3.17-.08-1.68-1.27-3.09-5.51-3-7.52.1-1.45,2.6-2.64,1.26-6.29-.35-1-.58-.76-.65-1.8,1.25-.22,2-1,3.07-1.73C49,21.22,49.4,17.35,47.27,14.73Z" transform="translate(0.01)"/><path class="cls-11" d="M32.82,15.49c-7.68.86-13.44,7.71-12.6,18.35S28.1,50.93,35.83,51c5.93,0,12.88-9.9,11.7-20.51S40.5,14.62,32.82,15.49Z" transform="translate(0.01)"/><path class="cls-12" d="M29.88,31.66c-2-.66-2.93,2.93-1.48,3.94a2.84,2.84,0,0,1,2,0C31.59,34.77,31.4,32.14,29.88,31.66Z" transform="translate(0.01)"/><path class="cls-12" d="M44.51,31.19c-2-1.06-3.64,3.13-1.42,3.65a2.61,2.61,0,0,1,1.74-.31C45.57,33.62,45.6,31.75,44.51,31.19Z" transform="translate(0.01)"/><path class="cls-13" d="M24.43,30.5a11,11,0,0,1,4.68-.85c1.69,0,2.53.65,2.81-1.25a35.19,35.19,0,0,1-3.83.5A6.1,6.1,0,0,0,24.43,30.5Z" transform="translate(0.01)"/><path class="cls-13" d="M40.78,28.08c.38,1.85,1,1.14,2.48.92a8,8,0,0,1,4,.33,4.55,4.55,0,0,0-3.21-1.19A25.78,25.78,0,0,1,40.78,28.08Z" transform="translate(0.01)"/><path class="cls-14" d="M37.21,38.1c-.71.08-1-.19-1.5.13s.74,1.19,1.61,1,1.73-1.1,1.42-1.37S38,38,37.21,38.1Z" transform="translate(0.01)"/><path class="cls-12" d="M24.31,32.72a3.64,3.64,0,0,0,4.61.16l-.31-1A3.7,3.7,0,0,1,24.31,32.72Z" transform="translate(0.01)"/><path class="cls-12" d="M44.57,31.25l-.29.92c2.53,1.71,4.15,0,4.15,0C46.55,33,44.57,31.25,44.57,31.25Z" transform="translate(0.01)"/><path class="cls-15" d="M29,32.27c-.76.35,0,1.84.71,1.2C30.21,33,29.67,32,29,32.27Z" transform="translate(0.01)"/><path class="cls-15" d="M43.53,31.62c-.76.2-.3,1.68.46,1.21C44.54,32.49,44.21,31.45,43.53,31.62Z" transform="translate(0.01)"/><path class="cls-16" d="M44.11,36.18c-1.22.13-2.14.9-2,1.72s1.15,1.39,2.37,1.26,2.14-.91,2.05-1.73S45.33,36.05,44.11,36.18Z" transform="translate(0.01)"/><path class="cls-16" d="M28.7,36.92c-1.36-.08-2.51.6-2.57,1.51s1,1.73,2.37,1.81,2.51-.6,2.56-1.52S30.06,37,28.7,36.92Z" transform="translate(0.01)"/><path class="cls-14" d="M42.16,16a39.06,39.06,0,0,0-12.6,1.29C23.21,19,18.44,26.17,19.17,32.77c.42,3.81,1.84,8.85,6.5,8.45-.38-.54-.75-1-1.12-1.61a15.18,15.18,0,0,1-1.4-12.92,3.63,3.63,0,0,0,1.43,1.2c.19-2.81,1.33-3.94,3.85-5a21.68,21.68,0,0,1,6.21-1.81c1.53-.09,3,1.26,4.34,1.9a8.18,8.18,0,0,0,4.81.85,3.43,3.43,0,0,1-.49-1.62c0-.36,2.13,1.7,2.23,1.83C46.28,25,44.39,16.08,42.16,16Z" transform="translate(0.01)"/><path class="cls-10" d="M46.83,18.18a6,6,0,0,0-3.35-3.58c-7.52-3.19-15-1-21.93,2.58A8.37,8.37,0,0,0,18,20.65c-1.44,2.72,0,9.6,1.52,15.13,1.17,4.37,4.76,4.64,4.76,4.64C20.73,36,21,26.18,23.87,22.54a3.59,3.59,0,0,0,.43,3.58,7.27,7.27,0,0,1,3.92-4.4,20.15,20.15,0,0,1,7.55-2.31c.95,1.67,4.66,3.63,6.62,3.35a1.53,1.53,0,0,1-.63-1.93c1.05.42,1.87.39,2.8,1.1.24.18,2.27,1.89,2.28,2C46.74,22,47.49,20,46.83,18.18Z" transform="translate(0.01)"/><path class="cls-17" d="M47.24,16.42c-1.12-1.29-2.84-3.9-6.07-4.52,1-1.2,2.3-2.17.2-3.08a8.2,8.2,0,0,0-3.56-.16c-1,.07-2,.66-2.92.33-.31-.11-1.63-1-1-2.13a29.4,29.4,0,0,0-5.56,2c-1.54.8-2.74,2.06-4.25,2.9-2,1.11-3.91.84-6.4,2.57-1.53,1.06-2.46,3.29-3,4,1-.52,4-2,5.11-1.79-1.36,3.33-1.09,5.1-4.16,8.22,6.22.73,7.38-4.06,9.56-4.84-.1,1.05-.52,2-.55,3.07,2.76-3.76,7.14-4.6,11.43-5.25a8.46,8.46,0,0,0,4.14,2.85,7.64,7.64,0,0,1,.21-2.78c1.82.17,9.14,4.94,10.65,3.68C48.9,21.46,48.77,18.18,47.24,16.42Z" transform="translate(0.01)"/><path class="cls-17" d="M22.09,24.1c-2.27,1.72-2.54,3.62-2.8,6.37a10.33,10.33,0,0,0,.3,4,6.67,6.67,0,0,0,2.35,3.6,24.75,24.75,0,0,1-1-8.51C21.32,27.31,21.75,26.15,22.09,24.1Z" transform="translate(0.01)"/><path class="cls-18" d="M29.37,41.85c2.38,4.62,5,5.82,7.75,5.41a5,5,0,0,0,4.54-4.08c.17-.78.9-2.14,1.54-2.29a63.92,63.92,0,0,0-6.37.63A36.49,36.49,0,0,1,29.37,41.85Z" transform="translate(0.01)"/><path class="cls-19" d="M29.9,42.26s2.34,3.78,6.56,3.53c2.7-.17,4.41-1.24,4.82-2.62A3.79,3.79,0,0,1,42.85,41,26.05,26.05,0,0,1,29.9,42.26Z" transform="translate(0.01)"/><path class="cls-20" d="M31.49,42.48s.17.79,1.7,1.07a14.93,14.93,0,0,0,6.14-.26,3.25,3.25,0,0,0,2-1.78A31.23,31.23,0,0,1,31.49,42.48Z" transform="translate(0.01)"/><path class="cls-20" d="M37.66,44.81a8,8,0,0,1-3.91-.15c-.62-.25-.64.11-.49.31,0,0,.65,1.07,3.4,1s3.86-1.62,3.54-1.82S39.18,44.56,37.66,44.81Z" transform="translate(0.01)"/><path class="cls-21" d="M31.49,42.48a1.06,1.06,0,0,0,.57.67S39,42,40.77,42.41a2.6,2.6,0,0,0,.6-.9A36.26,36.26,0,0,1,31.49,42.48Z" transform="translate(0.01)"/><path class="cls-21" d="M34.26,44.87a5.14,5.14,0,0,0,4.86-.46A10.16,10.16,0,0,1,34.26,44.87Z" transform="translate(0.01)"/><path class="cls-5" d="M46.19,10.4c-5.86-6.11-17.86-7.52-26-2.94-9.46,5.33-12.32,14.3-7.66,14.44a26.07,26.07,0,0,0-.08,9.56c1.56,8.35,7.84,11.14,7.36,9.3-.15-.56-1.64-1.83-1.78-7.09C17.47,13,40.7,11.38,49.78,20a4.77,4.77,0,0,0,1.44,1c.4.22-.12-2-.41-2.91A19.84,19.84,0,0,0,46.19,10.4Z" transform="translate(0.01)"/><path class="cls-9" d="M45.14,11C40,7.66,33.1,7.26,27.71,8.48c-7.13,1.61-12.37,8-14.17,14.78a17.17,17.17,0,0,0-.35,7.31,13.8,13.8,0,0,0,1.25,4.11c1.13,1.9,2.31.3,2.54-1.17a34.64,34.64,0,0,0,.12-3.81c.38-7.42,6.28-13.45,13.12-15.45,3.07-.9,9.62-1,12.64.05,5.33,1.9,7.5,6.21,7.25,3.69C49.88,15.77,47.45,12.47,45.14,11Z" transform="translate(0.01)"/><path class="cls-9" d="M39.56,7.16C34.61,5,26.19,4.54,18.23,9.6a17.48,17.48,0,0,0-5.14,5.68c-.37.73-1.67,3-1.09,3.84.91,1.31,3.5-2.91,4-3.53a23.2,23.2,0,0,1,6.11-5.67C30.71,5,40.85,8.16,39.56,7.16Z" transform="translate(0.01)"/></g></g></g></svg>