<svg xmlns="http://www.w3.org/2000/svg" xmlns:xlink="http://www.w3.org/1999/xlink" viewBox="0 0 96 96"><defs><style>.cls-1{fill:none;}.cls-2{clip-path:url(#clip-path);}.cls-3{fill:#f6e0b9;}.cls-4{fill:#261b18;}.cls-5{fill:url(#linear-gradient);}.cls-6{fill:#d47844;}.cls-7{fill:#66241b;opacity:0.5;}.cls-8{fill:#57443a;}.cls-9{fill:#f0a46e;}.cls-10{fill:#1a1614;}.cls-11{fill:#f0ded1;opacity:0.7;}.cls-12{fill:#121b21;}.cls-13{fill:#e64343;}.cls-14{fill:#732e2b;}.cls-15{fill:#fff9f0;}.cls-16{fill:#e8dac5;}.cls-17{fill:#108d8e;}.cls-18{fill:#27b3b0;}</style><clipPath id="clip-path"><circle class="cls-1" cx="48" cy="48" r="48"/></clipPath><linearGradient id="linear-gradient" x1="47.88" y1="74.94" x2="47.88" y2="82.84" gradientUnits="userSpaceOnUse"><stop offset="0" stop-color="#c25421"/><stop offset="1" stop-color="#d47844"/></linearGradient></defs><g id="Layer_2" data-name="Layer 2"><g id="Layer_4" data-name="Layer 4"><g class="cls-2"><rect class="cls-3" width="96" height="96"/><path class="cls-4" d="M32.77,75.13c2.76,11.06,11,.53,14.74.39,3.13-.12,9.38,10.36,12.52,3.25,5.81,2.15,14.11.17,13.62-7.28-.16-2.45-1.1-3.38.7-5.34s5.37-2,5.54-5.15c.16-2.91-3.39-3.54-4-5.91s1.49-3.53,2.81-5.31c3.37-4.55,2.79-8.11-1.23-11.61-1.87-1.63-3-2.63-3.22-5.1s.31-5.52-.88-7.94c-1.08-2.18-3.58-2.65-5.62-3.62-2.29-1.1-3.29-2.78-4.62-4.85-2.55-3.93-7.84-4.9-12.06-2.93-.41-2.16-3.22-3.07-6.18-3.16s-6.6,1.43-9.08,3.25c-2.92,2.15-5,5.12-7.7,7.54C22.9,26,11.88,31.3,15,40.21c1.15,3.25,3.2,4.17,1.32,7.7-1.74,3.28-2.65,5.1.08,8.09,1.07,1.17,2.21,1.73,2.26,3.45,0,1.56-1.1,2.94-1.29,4.56C16.75,69.4,23.59,76.74,32.77,75.13Z"/><path class="cls-5" d="M53.32,78.7c-3.48-1.21-1.31-6.26-6.06-6.26s-2.19,4.76-5.87,6.37S36.6,87.31,38,90.38c2.54,5.47,14.56,6.25,18.81,1C59.31,88.38,59.1,80.71,53.32,78.7Z"/><path class="cls-6" d="M56.7,93.58c.53-1.84-4.26-3-9-3.11-4.76.15-9.55,1.27-9,3.11.27.94.57,1.72.84,2.42H55.86A22.34,22.34,0,0,0,56.7,93.58Z"/><path class="cls-6" d="M26.67,55.35C28,66.3,37.88,78.1,49.77,77.39c14.31-.85,21.52-16.79,20-29.79C68.15,32.83,61,20.43,44.8,23.13,33.23,25.06,24.82,40.6,26.67,55.35Z"/><path class="cls-7" d="M47,40.35a6.6,6.6,0,0,0-.42,4.79c-2.52-.54-4.82-1-6-3.67-3.79,3.33-9.16,6.19-11,11.07-.51,1.35-.6,3.05-1.42,4.18-3.8-6.45-.2-18.4,4.71-23.53,3.86-4,8.87-7.73,14.22-9.48,4.52-1.47,11.55,2.09,15.75,3.84,3.16,1.32,5.46,4.85,6.11,8a36.15,36.15,0,0,1,.54,7c0,1.26-1.22,5.35-.77,6.26-2-4.06-3-7.11-7.22-9.09-3.31-1.54-7.12-3.54-9.13-6.75.65,1-3.39,4.33-4,5.09A10.64,10.64,0,0,0,47,40.35Z"/><path class="cls-4" d="M38.48,16.21c-7.39,1.15-13.21,7.5-16,13.88-3.19,7.26-3.5,14.25-2.52,24.47.95,10,11.87,14.33,10.48,11.17C27.7,59.57,28,52.87,31.45,48c3.21-4.54,5.62-8.21,10.88-10.7-1.54,3.27,1.43,8.67,5.47,7-3.38-1.23-2.36-4.22-.74-6.52.57-.82,6.13-6.59,5.23-7.49a39.5,39.5,0,0,0,7.18,5.91c2.54,1.55,5,2.13,6.76,4.68a15,15,0,0,1,2,4.3c.34,1.14.1,3.11.71,4.07,1.67,2.61,5.19.15,5.59-2.13.53-3.08-1.52-4.66-2.8-7.2-1.18-2.33,0-3.76-.43-6-.57-2.78-4.62-5.65-6.21-8.12a21.81,21.81,0,0,0-7.66-7.7C51.8,15,44.74,15.25,38.48,16.21Z"/><path class="cls-8" d="M50.09,16.92c2-2.29,6-3.11,8.52-1.08,2.83,2.3,3.59,6.21,7.29,7.72C69.36,25,72.31,25.09,72,29.67c-.17,2.26-.6,6.64-3.49,5A10.5,10.5,0,0,0,65.13,33c-1.46-.28-3,0-4.44-.28-4.34-.79-6.8-4.65-8.8-8.21A13.9,13.9,0,0,0,50,28.33a17.14,17.14,0,0,1-1.22,4.1c-1,1.92-2.61,3.44-3.6,5.33h0A49.16,49.16,0,0,1,46,29.19c-4.92,6.26-12.11,10.6-17.36,12-1.85.48-4.17,1.11-5.94,0-1.54-.92-2.56-5.24-2.49-6.89.18-4.25,4.73-7.68,8.09-9.66a33.68,33.68,0,0,0,9.57-7.83c1.42-1.67,3.33-3.43,5.49-3.66S49,13.61,50.09,16.92Z"/><path class="cls-8" d="M21.44,60.91a2.65,2.65,0,0,1,1.6-.47c2.66,0,2.77,3.86,2.89,5.5a6.4,6.4,0,0,0,1.23,3C18.76,69.44,19.83,62.16,21.44,60.91Z"/><path class="cls-8" d="M73.46,39.65a2.62,2.62,0,0,0-1.37.93c-1.72,2,1.22,4.6,2.4,5.74a6.32,6.32,0,0,1,1.57,2.88C81.75,43,75.46,39.2,73.46,39.65Z"/><path class="cls-8" d="M67.14,76.66c1.22-2-.07-3.46.14-5.32s3.47-3.36,4.24-.09C72.16,74,69.37,76.38,67.14,76.66Z"/><path class="cls-8" d="M21.29,57.05c-.64-2.66,1.36-3.85,1.8-6s-2.66-5-4.71-1.65C16.64,52.25,18.91,55.93,21.29,57.05Z"/><path class="cls-8" d="M71,64.08c1.92-1.3,1.35-3.19,2.3-4.8s4.54-1.65,3.9,1.65C76.71,63.71,73.19,64.74,71,64.08Z"/><path class="cls-9" d="M67.84,52.83a2.5,2.5,0,0,1,.43.79c1,2.93-5.85,2.46-6.76,1.22-1.7-2.32.52-3.1,2.23-3.21C65.05,51.55,66.9,51.66,67.84,52.83Z"/><path class="cls-9" d="M41.05,52.91a2.62,2.62,0,0,1,.64.68c1.75,2.74-5.36,4-6.59,2.93-2.31-1.94-.24-3.29,1.47-3.82C37.89,52.29,39.8,52,41.05,52.91Z"/><path class="cls-7" d="M54.88,53.87c-.55-.88-1.45,0-3-.14-1.4-.1-1.37-.86-2.39-.28s-.27,2.8,2.23,2.9S55.36,54.62,54.88,53.87Z"/><path class="cls-9" d="M51.52,49.64c-1.15,0-2.86,3.9-2.28,4.49,1.41,1.45,4.55.76,5.51-.22C55.12,53.52,52.83,49.62,51.52,49.64Z"/><path class="cls-10" d="M65.65,45.15c-3.88-1.65-7.43,3.14-4.63,5.63.56-.61,3.6-1.59,5.48-.17C68.09,49.47,67.73,46,65.65,45.15Z"/><path class="cls-11" d="M66.08,47.85c.94-.3,1.31,1.14.52,1.66C65.52,50.22,65,48.18,66.08,47.85Z"/><path class="cls-11" d="M62.44,45.73c1.61-.5,2.23,1.94.9,2.81C61.49,49.76,60.63,46.29,62.44,45.73Z"/><path class="cls-10" d="M36.72,45.47c3.83-1.77,7.52,2.92,4.8,5.49-.58-.59-3.66-1.49-5.49,0C34.4,49.85,34.67,46.42,36.72,45.47Z"/><path class="cls-11" d="M36.37,48.18c-1-.27-1.28,1.18-.48,1.67C37,50.53,37.44,48.48,36.37,48.18Z"/><path class="cls-11" d="M39.94,46c-1.62-.45-2.17,2-.81,2.84C41,50,41.77,46.46,39.94,46Z"/><path class="cls-4" d="M42.87,40.18c1,.12,1.59.74,1,1.66-.48.72-1.53.49-2.31.46-1.16,0-2.31-.2-3.47-.27a18.42,18.42,0,0,0-4.51.14c-.29.06-.54.24-.85.16,0-.38.43-.77.77-1a10.1,10.1,0,0,1,3.69-1.26A21.74,21.74,0,0,1,42.87,40.18Z"/><path class="cls-4" d="M59.07,40c-1,.14-1.55.75-1,1.62.45.7,1.48.45,2.23.42,1.14-.05,2.26-.23,3.38-.31a17.9,17.9,0,0,1,4.39.07c.28,0,.53.22.83.14,0-.36-.42-.74-.74-1a9.43,9.43,0,0,0-3.58-1.16A21.41,21.41,0,0,0,59.07,40Z"/><path class="cls-12" d="M72.41,44.63s-2.79,3.75-8.07,1.49c-2.32-1-4.06,1.24-4.06,1.24a4,4,0,0,1,4.59-2.87C66.71,44.82,68.64,46.4,72.41,44.63Z"/><path class="cls-12" d="M30.09,45.11s2.83,3.71,8.09,1.4c2.31-1,4.07,1.2,4.07,1.2a4,4,0,0,0-4.63-2.83C35.8,45.23,33.88,46.83,30.09,45.11Z"/><path class="cls-13" d="M51.45,58.78c-4.55.19-11.56,1.35-14.83,0,5.09,10.26,9.69,11.94,14.37,12,6.89.06,7.94-4.67,8.78-7.46.36-1.19,3.28-4.26,4.42-5C60.55,59.23,57,58.54,51.45,58.78Z"/><path class="cls-14" d="M39.4,60.35a50.13,50.13,0,0,0,22.42-.55,6,6,0,0,0-2.89,3.11C58.09,65,55,66.46,50.37,66.44,43.09,66.4,39.4,60.35,39.4,60.35Z"/><path class="cls-15" d="M42.11,60.86s.25,1.84,2.85,2.52a25.78,25.78,0,0,0,10.6.29c2.49-.39,3.67-3.31,3.67-3.31A53.75,53.75,0,0,1,42.11,60.86Z"/><path class="cls-15" d="M43.37,63.5c-.26-.47-.16-1.25,1-.55,1.68,1,4.45,1.16,7.79,1,3.08-.14,4.63-1,5.25-.5S55.34,67,50,66.52C44.48,66,43.37,63.5,43.37,63.5Z"/><path class="cls-16" d="M42.79,62.15S55.24,61,58.23,62a5.74,5.74,0,0,0,1-1.63,61.78,61.78,0,0,1-17.12.5A3,3,0,0,0,42.79,62.15Z"/><path class="cls-16" d="M45.4,63.31a18.79,18.79,0,0,0,9.83.27S49.9,65.78,45.4,63.31Z"/><path class="cls-6" d="M40.42,79.37C33.56,82,34.6,91.82,32.2,96h5c1.38-4,1.42-8.78,1.89-10.37Z"/><path class="cls-6" d="M54.74,79.37l1.32,6.26C56.54,87.22,56.57,92,58,96h5C60.56,91.82,61.6,82,54.74,79.37Z"/><path class="cls-17" d="M54.7,79.09a1.16,1.16,0,0,0-.77-.29C55,85.17,54.5,88,47.4,88s-7.36-2.73-5.74-9.4a3.24,3.24,0,0,0-.93.46c-1.52,6-3.15,5.57-3.57,8.81a6.59,6.59,0,0,0,1.42,5.34c1.83,2.15,16.69,1.93,18.13,0a6.53,6.53,0,0,0,1.51-4.94C57.9,85.62,55.61,85.9,54.7,79.09Z"/><path class="cls-18" d="M53.83,87.69c-1.6-.22-3,.74-5.51.85-4.09.19-5.56-1-7-1-1.94,0-3.81,2.06-1.81,3.47,3.3,2.31,14.28,1.73,16.22,0C57,89.9,56.23,88,53.83,87.69Z"/></g></g></g></svg>