<svg xmlns="http://www.w3.org/2000/svg" xmlns:xlink="http://www.w3.org/1999/xlink" viewBox="0 0 96 96"><defs><style>.cls-1{fill:none;}.cls-2{clip-path:url(#clip-path);}.cls-3{fill:#ffb571;}.cls-4{fill:#e8e8e8;}.cls-5{fill:#313142;}.cls-6{fill:url(#linear-gradient);}.cls-22,.cls-23,.cls-24,.cls-7{fill:#fff;}.cls-7{opacity:0.1;}.cls-8{fill:#261b18;}.cls-9{fill:#d47844;}.cls-10,.cls-20{fill:#66241b;}.cls-10{opacity:0.5;}.cls-11{fill:#57443a;}.cls-12{fill:#f0a46e;}.cls-13{fill:#1a1614;}.cls-14{fill:#f0ded1;}.cls-14,.cls-24{opacity:0.7;}.cls-15{fill:#121b21;}.cls-16{fill:#ff293e;}.cls-17{fill:#732e2b;}.cls-18{fill:#fff9f0;}.cls-19{fill:#e8dac5;}.cls-20,.cls-22{opacity:0.3;}.cls-21{fill:#ff6daa;}.cls-25{fill:#ffd1e2;}</style><clipPath id="clip-path" transform="translate(0)"><circle class="cls-1" cx="48" cy="48" r="48"/></clipPath><linearGradient id="linear-gradient" x1="47.16" y1="76.34" x2="47.16" y2="81.18" gradientUnits="userSpaceOnUse"><stop offset="0" stop-color="#c25421"/><stop offset="1" stop-color="#d47844"/></linearGradient></defs><g id="Layer_2" data-name="Layer 2"><g id="Layer_4" data-name="Layer 4"><g class="cls-2"><rect class="cls-3" width="96" height="96"/><path class="cls-4" d="M55.9,79.89l-2.37,4.67c.74.38,1.43,3.78,1.8,5.61A40.87,40.87,0,0,0,56.84,96h5.69a24.53,24.53,0,0,1-2.07-6.87C59.66,85.16,58.89,81.42,55.9,79.89Z" transform="translate(0)"/><path class="cls-4" d="M42.11,84.56l-2.37-4.67c-3.22,1.64-4.05,5.36-4.93,9.3a34,34,0,0,1-2,6.81h5.65a50.46,50.46,0,0,0,1.5-5.67C40.5,87.75,41.09,85.08,42.11,84.56Z" transform="translate(0)"/><path class="cls-5" d="M56.46,89.85C58,84,58.2,80.41,54.57,79.22s-10-1.55-13.9.11c-3.08,1.32-4.07,3.45-2,10A39.73,39.73,0,0,1,40.38,96H55.17A44.08,44.08,0,0,1,56.46,89.85Z" transform="translate(0)"/><path class="cls-6" d="M51.72,73.15c.3-5.19-8.67-5.38-8.66.28,0,2.52.2,4.43-.33,5.24-1.79,2.81,5,6.83,5,6.83s5.26-4.23,4-6.56C50.92,77.59,51.59,75.45,51.72,73.15Z" transform="translate(0)"/><path class="cls-7" d="M51.37,86c-2.54.9-5.63.52-8.24-.13-1.5-.37-2.34,1.32-1.88,2.78.61,1.92,3.72,2.43,6.43,2.38C53,91,55,89,54.13,86.62,53.89,86,52.74,85.54,51.37,86Z" transform="translate(0)"/><path class="cls-8" d="M32.89,75.84c2.76,11,11,.53,14.74.39,3.13-.12,9.38,10.36,12.52,3.25,5.81,2.15,14.11.17,13.62-7.29-.16-2.44-1.1-3.37.7-5.34S79.84,64.91,80,61.7c.16-2.9-3.39-3.53-4-5.91s1.49-3.52,2.81-5.3c3.37-4.55,2.79-8.11-1.23-11.62-1.87-1.62-3-2.62-3.22-5.1s.31-5.51-.88-7.94c-1.08-2.18-3.58-2.64-5.62-3.62-2.29-1.09-3.29-2.77-4.62-4.84-2.55-3.94-7.84-4.9-12.06-2.94-.41-2.15-3.22-3.06-6.18-3.15s-6.6,1.43-9.08,3.25c-2.92,2.15-5,5.11-7.7,7.53C23,26.74,12,32,15.14,40.91c1.15,3.26,3.2,4.17,1.32,7.71-1.74,3.27-2.65,5.1.08,8.09,1.07,1.17,2.21,1.72,2.26,3.44s-1.1,2.94-1.29,4.56C16.87,70.1,23.71,77.44,32.89,75.84Z" transform="translate(0)"/><path class="cls-9" d="M26.79,56.06C28.16,67,38,78.81,49.89,78.1c14.31-.85,21.52-16.79,20-29.79-1.67-14.77-8.82-27.18-25-24.48C33.35,25.76,24.94,41.31,26.79,56.06Z" transform="translate(0)"/><path class="cls-10" d="M47.13,41.06a6.6,6.6,0,0,0-.42,4.79c-2.52-.55-4.82-1-6-3.67-3.79,3.32-9.16,6.19-11,11.07-.51,1.34-.6,3-1.42,4.17C24.55,51,28.15,39,33.06,33.89c3.86-4,8.87-7.72,14.22-9.47C51.8,22.94,58.83,26.51,63,28.26c3.16,1.32,5.46,4.85,6.11,8a36,36,0,0,1,.54,7c0,1.27-1.22,5.36-.77,6.26-2-4.05-3-7.1-7.22-9.08-3.31-1.54-7.12-3.55-9.12-6.76.64,1-3.4,4.34-4,5.1A10.64,10.64,0,0,0,47.13,41.06Z" transform="translate(0)"/><path class="cls-8" d="M38.6,16.92c-7.39,1.14-13.22,7.49-16,13.88-3.2,7.26-3.5,14.25-2.53,24.46C21,65.32,31.92,69.6,30.53,66.43c-2.71-6.15-2.38-12.85,1-17.69,3.21-4.55,5.62-8.21,10.88-10.7-1.53,3.26,1.43,8.66,5.47,7-3.38-1.23-2.36-4.23-.74-6.52.57-.82,6.13-6.59,5.23-7.49A39.16,39.16,0,0,0,59.59,37c2.54,1.55,5,2.13,6.76,4.68a14.78,14.78,0,0,1,2,4.3c.34,1.13.1,3.11.71,4.07,1.68,2.61,5.19.15,5.59-2.13.53-3.08-1.52-4.67-2.8-7.21-1.18-2.32,0-3.75-.43-6-.57-2.78-4.62-5.65-6.21-8.11a21.65,21.65,0,0,0-7.66-7.7C51.92,15.75,44.86,16,38.6,16.92Z" transform="translate(0)"/><path class="cls-11" d="M50.21,17.62c2-2.29,6-3.1,8.52-1.07,2.83,2.3,3.59,6.2,7.29,7.72,3.46,1.41,6.41,1.52,6.06,6.11-.17,2.25-.6,6.63-3.49,5a10.3,10.3,0,0,0-3.34-1.68c-1.46-.28-3,0-4.45-.28-4.33-.8-6.79-4.65-8.79-8.22A13.83,13.83,0,0,0,50.16,29a17.14,17.14,0,0,1-1.22,4.1c-1,1.91-2.61,3.44-3.6,5.33h0a49,49,0,0,1,.82-8.57c-4.92,6.25-12.11,10.6-17.36,12-1.85.49-4.17,1.11-5.94,0-1.54-.92-2.56-5.23-2.49-6.88.18-4.26,4.73-7.68,8.09-9.66A34,34,0,0,0,38,17.56c1.42-1.67,3.33-3.44,5.49-3.67S49.13,14.32,50.21,17.62Z" transform="translate(0)"/><path class="cls-11" d="M21.57,61.62a2.53,2.53,0,0,1,1.59-.47c2.66,0,2.77,3.86,2.89,5.5a6.4,6.4,0,0,0,1.23,3C18.88,70.14,20,62.87,21.57,61.62Z" transform="translate(0)"/><path class="cls-11" d="M73.58,40.36a2.62,2.62,0,0,0-1.37.93c-1.72,2,1.22,4.6,2.4,5.73a6.4,6.4,0,0,1,1.57,2.89C81.87,43.71,75.58,39.91,73.58,40.36Z" transform="translate(0)"/><path class="cls-11" d="M67.26,77.37c1.22-2-.07-3.47.14-5.32s3.47-3.36,4.24-.09C72.29,74.72,69.49,77.09,67.26,77.37Z" transform="translate(0)"/><path class="cls-11" d="M21.41,57.76c-.64-2.66,1.36-3.85,1.8-6s-2.66-5-4.71-1.65C16.76,53,19,56.63,21.41,57.76Z" transform="translate(0)"/><path class="cls-11" d="M71.16,64.79c1.92-1.31,1.35-3.2,2.3-4.8s4.54-1.65,3.91,1.65C76.83,64.42,73.31,65.44,71.16,64.79Z" transform="translate(0)"/><path class="cls-12" d="M68,53.54a2.45,2.45,0,0,1,.43.78c1,2.93-5.85,2.47-6.76,1.23-1.7-2.33.53-3.1,2.23-3.21C65.17,52.25,67,52.37,68,53.54Z" transform="translate(0)"/><path class="cls-12" d="M41.17,53.61a2.84,2.84,0,0,1,.64.69c1.76,2.73-5.36,4-6.59,2.93-2.31-1.95-.24-3.29,1.47-3.83C38,53,39.92,52.65,41.17,53.61Z" transform="translate(0)"/><path class="cls-10" d="M55,54.57c-.55-.88-1.45,0-3-.14-1.4-.09-1.37-.85-2.39-.27s-.27,2.8,2.23,2.9S55.48,55.33,55,54.57Z" transform="translate(0)"/><path class="cls-12" d="M51.64,50.34c-1.15,0-2.86,3.91-2.28,4.5,1.41,1.44,4.55.76,5.51-.23C55.24,54.23,53,50.32,51.64,50.34Z" transform="translate(0)"/><path class="cls-13" d="M65.77,45.86c-3.88-1.66-7.43,3.14-4.64,5.63.57-.61,3.61-1.59,5.49-.18C68.21,50.17,67.85,46.75,65.77,45.86Z" transform="translate(0)"/><path class="cls-14" d="M66.2,48.56c1-.3,1.31,1.14.53,1.65C65.64,50.93,65.13,48.89,66.2,48.56Z" transform="translate(0)"/><path class="cls-14" d="M62.56,46.43c1.61-.5,2.23,2,.9,2.82C61.61,50.47,60.75,47,62.56,46.43Z" transform="translate(0)"/><path class="cls-13" d="M36.84,46.18c3.83-1.77,7.52,2.91,4.79,5.49-.58-.6-3.65-1.49-5.48,0C34.52,50.56,34.79,47.13,36.84,46.18Z" transform="translate(0)"/><path class="cls-14" d="M36.49,48.88c-1-.27-1.28,1.18-.48,1.67C37.12,51.24,37.56,49.18,36.49,48.88Z" transform="translate(0)"/><path class="cls-14" d="M40.07,46.65c-1.63-.45-2.18,2-.82,2.85C41.13,50.66,41.89,47.17,40.07,46.65Z" transform="translate(0)"/><path class="cls-8" d="M43,40.88c1,.13,1.59.75,1,1.66-.48.73-1.53.5-2.31.47-1.16,0-2.31-.2-3.47-.27a17.94,17.94,0,0,0-4.51.14c-.29.06-.54.23-.85.16,0-.38.43-.78.77-1a9.74,9.74,0,0,1,3.69-1.26A21.74,21.74,0,0,1,43,40.88Z" transform="translate(0)"/><path class="cls-8" d="M59.19,40.66c-1,.13-1.55.74-1,1.61.46.7,1.49.46,2.24.43,1.14-.06,2.26-.24,3.38-.31a17,17,0,0,1,4.39.07c.28,0,.53.21.83.14,0-.37-.42-.74-.74-1a9.26,9.26,0,0,0-3.58-1.16A21.41,21.41,0,0,0,59.19,40.66Z" transform="translate(0)"/><path class="cls-15" d="M72.53,45.34s-2.79,3.74-8.07,1.49c-2.32-1-4.06,1.24-4.06,1.24A4,4,0,0,1,65,45.2C66.83,45.53,68.76,47.1,72.53,45.34Z" transform="translate(0)"/><path class="cls-15" d="M30.21,45.81s2.83,3.71,8.08,1.41c2.32-1,4.08,1.19,4.08,1.19a4,4,0,0,0-4.63-2.82C35.92,45.94,34,47.53,30.21,45.81Z" transform="translate(0)"/><path class="cls-16" d="M51.57,59.48c-4.55.2-11.56,1.35-14.83,0,5.09,10.26,9.69,11.94,14.37,12C58,71.55,59,66.83,59.89,64c.36-1.18,3.28-4.25,4.42-5C60.67,59.93,57.07,59.24,51.57,59.48Z" transform="translate(0)"/><path class="cls-17" d="M39.52,61.06a50.06,50.06,0,0,0,22.42-.56A6,6,0,0,0,59,63.62c-.83,2.08-3.88,3.55-8.55,3.53C43.21,67.1,39.52,61.06,39.52,61.06Z" transform="translate(0)"/><path class="cls-18" d="M42.23,61.57s.25,1.84,2.85,2.51a25.78,25.78,0,0,0,10.6.29c2.49-.39,3.67-3.3,3.67-3.3A53.75,53.75,0,0,1,42.23,61.57Z" transform="translate(0)"/><path class="cls-18" d="M43.49,64.21c-.26-.48-.16-1.25,1-.55,1.68,1,4.45,1.16,7.79,1,3.08-.15,4.63-1,5.25-.51s-2.1,3.57-7.43,3.08C44.6,66.72,43.49,64.21,43.49,64.21Z" transform="translate(0)"/><path class="cls-19" d="M42.91,62.86s12.45-1.16,15.44-.17a5.8,5.8,0,0,0,1-1.62,62.23,62.23,0,0,1-17.12.5A3,3,0,0,0,42.91,62.86Z" transform="translate(0)"/><path class="cls-19" d="M45.52,64a18.81,18.81,0,0,0,9.83.27S50,66.48,45.52,64Z" transform="translate(0)"/><path class="cls-20" d="M58.39,55a5.59,5.59,0,0,1-1.51-1.63A5.23,5.23,0,0,1,56.56,49c.72-2,2.91-2.16,4.73-2.32,2.21-.19,4.44-.15,6.63-.36a23.73,23.73,0,0,1,2.92.07c1.26,0,4-.36,2.48-2.18s-4.25-1.8-6.28-1.69a31,31,0,0,0-6.21,1c-1.73.46-3.77.67-5.36,1.5s-2.09,1.26-3.86,1.19c-3.18-.13-5.86-2.1-9-2.43s-6.68-.72-9.94.18c-.84.23-3.4,1.2-1.67,2.11s4.21.6,6.06.67c.85,0,1.71,0,2.56.13,3,.27,7.66-.14,7.43,3.62-.17,2.59-1.83,5.25-3.93,5.74a27.79,27.79,0,0,1-6.22.65,10.78,10.78,0,0,1-4.5-1c-.4-.19-1.61-1-2-.41-.67.93,1.79,2.47,2.44,2.76a14.9,14.9,0,0,0,4.62,1c3.94.41,8,.2,10.22-3.42,1.28-2.1,1.92-4.57,3.12-6.73,1.95-3.52,2.87,1.26,3.49,3.35a10.86,10.86,0,0,0,1.58,3.31,8,8,0,0,0,5.87,2.79A8.86,8.86,0,0,0,65.53,58c.73-.3,1-1.15.15-1.48a6.92,6.92,0,0,0-1.93-.07,16.6,16.6,0,0,1-2.44-.19A7.34,7.34,0,0,1,58.39,55Z" transform="translate(0)"/><path class="cls-21" d="M24.08,42.41c.61-.52,2.83.19,5.43.1,3.66-.12,22.29-1.37,20.8,6.48-.61,3.21-2.08,6.46-5.56,8.22-2.81,1.42-11.84.73-14.62-1.72-3.32-2.93-3.23-7.6-3.4-9.4a4.54,4.54,0,0,1-2.05-.68S23.28,43.09,24.08,42.41Zm6.34,11.07c2.29,2.82,11.08,3.84,14.51,1.61,2.6-1.69,4.4-7,3-8.07-2.87-2.18-15.25-2.9-18.53-.92C28.33,46.76,28.66,51.31,30.42,53.48Z" transform="translate(0)"/><path class="cls-21" d="M76.59,44.4a3.93,3.93,0,0,1-1.83.76c-.09,1.8.16,6.46-2.73,9.52-2.41,2.55-10.55,3.57-13.13,2.26-3.2-1.63-4.65-4.82-5.32-8C52,41.15,68.81,41.69,72.13,41.68c2.35,0,4.32-.8,4.89-.3C77.77,42,76.59,44.4,76.59,44.4Zm-4.25.87c-3-1.87-14.18-.67-16.68,1.61-1.22,1.11.59,6.36,3,7.95,3.18,2.1,11.07.75,13-2.15C73.21,50.44,73.34,45.88,72.34,45.27Z" transform="translate(0)"/><path class="cls-22" d="M57.83,46.17c2-.88,12.47-1.85,13.68-.78.86.76-2.12,2-3.51,2.31a24.88,24.88,0,0,1-8,.32C59.34,47.92,56,47,57.83,46.17Z" transform="translate(0)"/><path class="cls-23" d="M66,45.67c2.12-.34,5.8-.09,5.42.58s-6.24,1.21-6.79.33C64.38,46.13,65,45.83,66,45.67Z" transform="translate(0)"/><path class="cls-24" d="M59.72,53c1.34.06,3.55.82,3.22,1.29s-4,0-4.17-.79C58.66,53.09,59.09,53,59.72,53Z" transform="translate(0)"/><path class="cls-24" d="M32.44,52.83c1.39.21,3.61,1.25,3.21,1.67s-4.14-.5-4.27-1.29C31.32,52.8,31.79,52.72,32.44,52.83Z" transform="translate(0)"/><path class="cls-22" d="M31.53,45.94c1.18-1,12.71-.19,15,.62,2.1.75-1.42,1.68-2.19,1.79a31.39,31.39,0,0,1-8.72-.25C34.1,47.86,30.68,46.67,31.53,45.94Z" transform="translate(0)"/><path class="cls-23" d="M41.55,45.91c2.26-.08,6.08.63,5.59,1.24s-6.69.43-7.14-.51C39.77,46.16,40.49,46,41.55,45.91Z" transform="translate(0)"/><path class="cls-21" d="M47.65,44.34c3.35,1.18,5.7,1,8.1-.11s0,.89-.45,1.42-.36,6.42-1.5,4.22-2.9-2-3.77.36-.45-1.62-.75-2.94S45.11,43.44,47.65,44.34Z" transform="translate(0)"/><path class="cls-25" d="M47.6,45.43c-2.77-2.27-7.53-2.76-16.87-2.15C37.74,43.61,43.35,43.8,47.6,45.43Z" transform="translate(0)"/><path class="cls-25" d="M56.68,44.89C59,42.7,63,42.63,71.53,42.3,65.17,43.23,60.38,43.12,56.68,44.89Z" transform="translate(0)"/></g></g></g></svg>