<svg xmlns="http://www.w3.org/2000/svg" xmlns:xlink="http://www.w3.org/1999/xlink" viewBox="0 0 66 66"><defs><style>.cls-1{fill:none;}.cls-2{clip-path:url(#clip-path);}.cls-26,.cls-27,.cls-3{fill:#fff;}.cls-4{fill:#93aebf;}.cls-5{fill:#ff697c;}.cls-13,.cls-6{fill:#5b6172;}.cls-14,.cls-6{opacity:0.4;}.cls-7{fill:#ffbc82;}.cls-8{fill:#313142;}.cls-9{fill:url(#linear-gradient);}.cls-10{fill:#535361;opacity:0.5;}.cls-11,.cls-15,.cls-26{opacity:0.3;}.cls-12{fill:#fff9f0;}.cls-13{opacity:0.2;}.cls-14{fill:#d14f2e;}.cls-15{fill:#b54d26;}.cls-16{fill:#4cb5cf;}.cls-17{fill:#9ddded;}.cls-18{fill:#fa9769;}.cls-19{fill:#121b21;}.cls-20{fill:#4a271b;}.cls-21{fill:#c7a295;}.cls-22{fill:#f73434;}.cls-22,.cls-27{opacity:0.7;}.cls-23{fill:#c22c25;}.cls-24{fill:#e8dac5;}.cls-25{fill:#e62628;}.cls-28{fill:#ff7373;}</style><clipPath id="clip-path" transform="translate(0)"><circle class="cls-1" cx="33" cy="33" r="33"/></clipPath><linearGradient id="linear-gradient" x1="2800.52" y1="51.83" x2="2800.52" y2="55.37" gradientTransform="translate(-2767.63)" gradientUnits="userSpaceOnUse"><stop offset="0" stop-color="#ee996d"/><stop offset="0.3" stop-color="#f6a977"/><stop offset="0.67" stop-color="#fdb77f"/><stop offset="1" stop-color="#ffbc82"/></linearGradient></defs><g id="Layer_2" data-name="Layer 2"><g id="avatars"><g class="cls-2"><rect class="cls-3" width="66" height="66"/><path class="cls-4" d="M52.22,23.88c-.27-.34-1.29-.9-1.54-1.26C45.6,15.21,34.6,11.49,26,11.49a16.52,16.52,0,0,0-11.76,5.38c-2.9,3.25-3.89,7.61-4.12,12.78-.1,2.25-.36,8.59-3.68,8.49,1.62,1.24,3.74,1.65,4.36,0,0,8.41,10.09,22.05,13.82,24.29A13.79,13.79,0,0,0,33,64.25,16.34,16.34,0,0,0,46.3,54.71c1.08-2.38,2.1-4.78,3-7.23.8-2.19.95-4.88,2.24-6.83,1.28,1.38,4.19,1.36,5.11.43A3.92,3.92,0,0,1,54,37.27C54.91,32,55.33,27.67,52.22,23.88Z" transform="translate(0)"/><path class="cls-5" d="M11.5,35.24C9.59,38.54,10,43.06,11,44.77a21.52,21.52,0,0,1,2.44,5.68c.83,3.56-2.49,9.48,2.75,10.68-1-1.39.06-2.57-.15-3.91,2.26,2,1.32,5.13,2.34,8.78H44.54a18.48,18.48,0,0,0,1.32-3.9c.28-1.23,1-2.28,1.14-3.56a4.39,4.39,0,0,0,3.86-2c-2.53-.22-2.5-2.34-1.46-4.06,1.29-2.14,3.22-4.25,3.72-6.76a7,7,0,0,0-.4-4c-.74-1.91-.44-3.85-.46-5.85-.23.56-1.51,4.27-1.26,4.73a23.33,23.33,0,0,1-.9-2.36c.42,2.58-.22,8.21-3.76,10.26-1.37.79-.1,3.06-1.24,4.13-.46.45-1.1.6-1.5,1.14a3.83,3.83,0,0,0-.52,3.45c-2,0-2.84-.3-3.39,0-1.07.68-2.76.16-3.88,0-3.33-.56-5.92-.07-9.13.13A5.49,5.49,0,0,1,22.32,55,9.57,9.57,0,0,1,22,57.33c-4.57-2.25-1.46-7.44-4-10.49a3.21,3.21,0,0,1-2.07,2.35c-.88-1.38-1.48-4.6-2.45-7.14C12.63,46,10.79,38.94,11.5,35.24Z" transform="translate(0)"/><path class="cls-6" d="M24.29,53.24A3.31,3.31,0,0,0,24,51.09a15.94,15.94,0,0,1-1.47,1.61,4.31,4.31,0,0,1-1.59.42c.46-.12.34-2.31.3-2.64a9.33,9.33,0,0,0-1-2.61c-.31-.73-.42-1.22-1.16-1.67s-1.69-.51-2.37-1.1-.54-1.46-.9-2.3a10.93,10.93,0,0,0-1.73-2.07,7.07,7.07,0,0,1-2-5.06c.24-2.78,2.55-4.46,3.08-7.16.25-1.29-.14-5.24,1.55-8.15C20,14.7,27.58,18.21,31,20.62c2.68,1.89,5,4.49,7.87,6a14.33,14.33,0,0,0,5.33,1.61c1.55.1,3.15-.48,4.46.76,2,1.88.31,6.91-.17,9.2-.41,2,.69,4.15-.18,6-.7,1.47-2.17,2.4-3.13,3.68s-1,2.58-1.47,3.91-1,2.62-.54,4.19c.25.88.56,1.65.78,2.55.81,3.4-.79,4.47-.13,7.46H22.41c.28-4.14-1.62-4.07-.67-7.57C22.25,56.57,24,55,24.29,53.24Z" transform="translate(0)"/><path class="cls-7" d="M43.13,66c-.12-.75-.62-5.28-.8-6.12l-3.13.67c.18.8.49,4.6.59,5.45Z" transform="translate(0)"/><path class="cls-8" d="M37.68,61.73c-.4-1.82-1-2.46-1.1-2.47l.52-5.79c1.81.17,5,1.3,6.26,7Z" transform="translate(0)"/><path class="cls-7" d="M23.32,66c.13-.75.62-5.28.81-6.12l3.12.67c-.17.8-.48,4.6-.58,5.45Z" transform="translate(0)"/><path class="cls-8" d="M28.58,61.73,22.89,60.5c1.24-5.73,4.46-6.86,6.26-7l.53,5.79C29.53,59.27,29,59.91,28.58,61.73Z" transform="translate(0)"/><path class="cls-8" d="M38.39,66a26.27,26.27,0,0,1,1-5.1c1.09-4.1,1.22-6.58-1.32-7.41s-7-1.08-9.7.07c-2.16.92-2.84,2.41-1.38,7A23.41,23.41,0,0,1,28.23,66Z" transform="translate(0)"/><path class="cls-9" d="M36,53.29c-.53-.94-.06-2.44,0-4,.21-3.62-6.05-3.76-6,.2,0,1.75.13,3.09-.23,3.66C27.28,57,38.37,57.49,36,53.29Z" transform="translate(0)"/><path class="cls-10" d="M27.84,60.06c.51,1.35,3.13,1.71,5.41,1.69,4.49,0,6.17-1.42,5.4-3.08-.21-.44-1.17-.75-2.32-.42a15,15,0,0,1-6.93-.12A1.37,1.37,0,0,0,27.84,60.06Z" transform="translate(0)"/><path class="cls-11" d="M41.49,46.39c0,3.16,2.32,5.65,5.1,5.56s5-2.72,5-5.88-2.31-5.65-5.1-5.56S41.46,43.23,41.49,46.39Zm1.37-.58a4,4,0,0,1,3.56-4.21,3.77,3.77,0,0,1,3.65,4,4,4,0,0,1-3.57,4.21A3.77,3.77,0,0,1,42.86,45.81Z" transform="translate(0)"/><path class="cls-12" d="M42.05,45.64c0,3.13,2.29,5.58,5,5.49s5-2.68,4.92-5.8-2.28-5.57-5-5.49S42,42.53,42.05,45.64Zm1.24-.5a4,4,0,0,1,3.56-4.21,3.77,3.77,0,0,1,3.65,4,4,4,0,0,1-3.57,4.21A3.77,3.77,0,0,1,43.29,45.14Z" transform="translate(0)"/><path class="cls-7" d="M47.77,30.24C46.5,18.91,40.61,13.66,32,13.72,19.05,13.81,13.44,22,17.27,33.36c.52,11.55,8.91,20.76,18,19.75C42.79,52.27,49.2,42.89,47.77,30.24Z" transform="translate(0)"/><path class="cls-13" d="M16.53,31.3c.68-.1,1,.84,2.39.26-.49-7,2.6-9,4.91-9.83,1.68-.59,0-1.17-1.22-2.49-1-1-2.07-2.1-3.32-1.07S14.56,22.8,16.53,31.3Z" transform="translate(0)"/><path class="cls-7" d="M16.18,40.6a6.26,6.26,0,0,0,3.07,0,.61.61,0,0,1,.05-.12c.42-.91-.53-5.21-.79-6.08-.66-2.21-1.66-3.71-3.46-2.89C11.32,33.23,13.06,39.65,16.18,40.6Z" transform="translate(0)"/><path class="cls-14" d="M17.81,38.82c1.62-.9.32-4.35-.83-5-.95-.51-3.4.15-2.37,2.13.69-1.73,1.7-.51,1.47.73-.15.84-1,.8-.22,1.94C16.31,39.27,17.3,39.11,17.81,38.82Z" transform="translate(0)"/><path class="cls-15" d="M29.15,16.29c.85.15,1.62.32,2.26.44,7.3,1.44,15.63,2.9,17.53,11.38,1,4.52-4.8,2.93-7,1.95-3.7-1.63-7.31-5.81-11.48-5.27-2.28.29-3.69.62-5.9-.31S16.4,18,19.28,14.57C21,12.58,26.21,15.77,29.15,16.29Z" transform="translate(0)"/><path class="cls-16" d="M24.66,23c2.38,1.47,4.26.77,6.83.54a8.85,8.85,0,0,1,6,2A45,45,0,0,0,48,31.33c2.65.93,7.86,1,10.59.37-1.55-2.3-2.23-5.76-3.27-8.43-.28-.74-2.81-6-3.26-6.05a4.08,4.08,0,0,1,1.28.28,12.89,12.89,0,0,0-2-3.14C48,10.3,42,8.87,37,8.71c.33,0,1.09-.25,1.61-.33a13.76,13.76,0,0,0-6.93-1.14c-4.76.46-16.51,4.3-12.07,11.19A22.69,22.69,0,0,0,24.66,23Z" transform="translate(0)"/><path class="cls-11" d="M13.64,46.16c-.15,3.22,2,5.88,4.87,6s5.26-2.49,5.41-5.71-2-5.87-4.88-5.94S13.78,43,13.64,46.16Zm1.63-.75a3.79,3.79,0,0,1,3.62-3.83,3.6,3.6,0,0,1,3.28,4,3.8,3.8,0,0,1-3.63,3.83A3.6,3.6,0,0,1,15.27,45.41Z" transform="translate(0)"/><path class="cls-12" d="M14,45.64c0,3.13,2.29,5.58,5,5.49s4.95-2.68,4.93-5.8-2.29-5.57-5-5.49S13.92,42.53,14,45.64Zm1.24-.5a4,4,0,0,1,3.56-4.21,3.77,3.77,0,0,1,3.65,4,4,4,0,0,1-3.56,4.21A3.78,3.78,0,0,1,15.19,45.14Z" transform="translate(0)"/><path class="cls-17" d="M34.47,9.55c-1.65.74-3.48.69-5.06,1.65,0,0-.06.17-.07.18A23.76,23.76,0,0,1,49.88,15c-3.56-1.12-8-2.13-11.67-.95,6.63.31,12.35,5.28,15.5,10.72A16.53,16.53,0,0,1,55,27.24c-6.93.24-12.53-3-17.86-7.14a7.74,7.74,0,0,1,.37,1.37c-2.7-.95-5.62-1.5-7.41-4,.47.65-2,.87-2.09.87a8.82,8.82,0,0,1-4.07-1.26c-3-1.66-2.89-4.3,0-6S31.15,9.18,34.47,9.55Z" transform="translate(0)"/><path class="cls-18" d="M46.68,37.81a1.65,1.65,0,0,1,.17.53c.28,2-3.84,1.08-4.25.22-.77-1.62.67-1.93,1.72-1.86A2.84,2.84,0,0,1,46.68,37.81Z" transform="translate(0)"/><path class="cls-18" d="M26.52,37.67a1.83,1.83,0,0,1,.27.58c.64,2.2-4,2.14-4.63,1.23-1.12-1.7.41-2.39,1.58-2.55A2.94,2.94,0,0,1,26.52,37.67Z" transform="translate(0)"/><path class="cls-19" d="M48.39,29.14c-1.27-1.58-5.94-1.62-7.66.17C43,29.53,44.94,28.85,48.39,29.14Z" transform="translate(0)"/><path class="cls-14" d="M37.31,38.5c.28.32-.61,1.22-1.71,1.31s-2.15-1-1.6-1.28.85,0,1.63,0S37,38.12,37.31,38.5Z" transform="translate(0)"/><path class="cls-19" d="M20.27,28.82c1.9-1.66,7.17-1.8,8.74.22C26,29.12,24.57,28.92,20.27,28.82Z" transform="translate(0)"/><path class="cls-20" d="M25.69,35.63a3.09,3.09,0,0,0-2.2-.06c-1.58-1.23-.42-5.41,1.85-4.55C27,31.65,27.13,34.74,25.69,35.63Z" transform="translate(0)"/><path class="cls-21" d="M24.21,32c.83-.13,1.09,1.22.39,1.57C23.62,34.08,23.27,32.16,24.21,32Z" transform="translate(0)"/><path class="cls-20" d="M45.27,31.06c1.22.78,1.12,3.18.25,4.31a2.7,2.7,0,0,0-2,.32C41,34.93,43,29.61,45.27,31.06Z" transform="translate(0)"/><path class="cls-21" d="M43.65,31.81c.8,0,.91,1.39.21,1.65C42.89,33.83,42.76,31.84,43.65,31.81Z" transform="translate(0)"/><path class="cls-19" d="M50.29,31.77a4.31,4.31,0,0,1-5.3.39,1.93,1.93,0,0,0-2.43.46s.69-2.47,2.77-1.68C46.45,31.38,47.74,32.63,50.29,31.77Z" transform="translate(0)"/><path class="cls-19" d="M18.48,32.07a4.73,4.73,0,0,0,5.55.21,2.16,2.16,0,0,1,2.53.19S26,30,23.82,31.13A6.75,6.75,0,0,1,18.48,32.07Z" transform="translate(0)"/><path class="cls-22" d="M35.14,41.39c3.71-.07,6.11.28,8.57-.28a11.71,11.71,0,0,0-3.06,3.57c-.63,2-2,4.78-5.94,4.48-3.14-.24-5.6-1.51-9.53-8.25C27.58,42.32,32.08,41.45,35.14,41.39Z" transform="translate(0)"/><path class="cls-23" d="M27,42.1a30.75,30.75,0,0,0,15.07,0,4.2,4.2,0,0,0-2,2.24c-.61,1.52-2.69,2.55-5.82,2.44C29.37,46.63,27,42.1,27,42.1Z" transform="translate(0)"/><path class="cls-12" d="M28.83,42.52a2.45,2.45,0,0,0,1.86,1.92,16,16,0,0,0,7.12.42c1.68-.25,2.54-2.38,2.54-2.38A32.76,32.76,0,0,1,28.83,42.52Z" transform="translate(0)"/><path class="cls-12" d="M29.62,44.5c-.16-.36-.08-.93.71-.39,1.11.76,3,1,5.21.89,2.08,0,3.13-.66,3.54-.27s-1.48,2.59-5,2.13S29.62,44.5,29.62,44.5Z" transform="translate(0)"/><path class="cls-24" d="M29.26,43.49s8.39-.62,10.38.17a4.53,4.53,0,0,0,.71-1.18,37.8,37.8,0,0,1-11.52,0A2.31,2.31,0,0,0,29.26,43.49Z" transform="translate(0)"/><path class="cls-24" d="M31,44.4a11.58,11.58,0,0,0,6.6.38S34,46.3,31,44.4Z" transform="translate(0)"/><path class="cls-15" d="M40.08,38.12a4,4,0,0,1-1-1.2,3.73,3.73,0,0,1-.15-3.18c.55-1.43,2.13-1.5,3.44-1.58,1.58-.1,3.18,0,4.76-.14a18.47,18.47,0,0,1,2.1.11c.9,0,2.85-.19,1.81-1.52s-3-1.37-4.47-1.33a22.53,22.53,0,0,0-4.48.58,19.6,19.6,0,0,0-3.87,1,4.48,4.48,0,0,1-2.79.78C33.1,31.47,31.22,30,29,29.71a19.43,19.43,0,0,0-7.13-.06c-.61.16-2.47.8-1.24,1.49s3,.51,4.33.59c.61,0,1.23.07,1.84.14,2.16.25,5.5,0,5.26,2.74-.17,1.85-1.41,3.73-2.93,4a19.74,19.74,0,0,1-4.47.35,7.78,7.78,0,0,1-3.21-.78c-.28-.14-1.14-.72-1.43-.33-.49.65,1.24,1.8,1.7,2a10.4,10.4,0,0,0,3.3.83c2.82.37,5.73.29,7.39-2.26,1-1.49,1.47-3.25,2.36-4.77,1.47-2.49,2,.95,2.45,2.47a7.74,7.74,0,0,0,1.07,2.4,5.69,5.69,0,0,0,4.15,2.11,6.38,6.38,0,0,0,2.75-.29c.53-.21.76-.81.14-1.06a5.37,5.37,0,0,0-1.39-.09,12.83,12.83,0,0,1-1.74-.18A5.27,5.27,0,0,1,40.08,38.12Z" transform="translate(0)"/><path class="cls-25" d="M16.08,30.59a3.27,3.27,0,0,0,1.45.53c.1,1.29-.06,4.64,2.27,6.8,1.95,1.81,8.42,2.47,10.45,1.51a7.84,7.84,0,0,0,4.15-5.79c1.21-5.61-12.17-5.06-14.8-5-1.87,0-3.45-.54-3.9-.17S16.08,30.59,16.08,30.59Zm3.38.59c2.39-1.37,11.26-.62,13.27,1,1,.78-.41,4.57-2.31,5.73-2.5,1.54-8.78.64-10.37-1.42C18.82,34.89,18.68,31.62,19.46,31.18Z" transform="translate(0)"/><path class="cls-25" d="M53.7,28.68c-.4-.37-1.83.16-3.52.12-2.37-.05-14.45-.76-13.43,4.86.41,2.29,1.39,4.61,3.66,5.84,1.83,1,7.68.41,9.46-1.38C52,36,51.91,32.64,52,31.34a2.71,2.71,0,0,0,1.32-.51S54.22,29.16,53.7,28.68Zm-4,8c-1.47,2-7.15,2.87-9.39,1.3-1.7-1.18-2.9-5-2-5.76,1.84-1.59,9.86-2.23,12-.84C51,31.84,50.8,35.11,49.67,36.68Z" transform="translate(0)"/><path class="cls-26" d="M39.85,31.75c1.46-.59,9-1.09,9.82-.3.6.56-1.56,1.42-2.56,1.59a18,18,0,0,1-5.71.09C40.89,33,38.52,32.29,39.85,31.75Z" transform="translate(0)"/><path class="cls-3" d="M45.73,31.55c1.53-.21,4.16.05,3.87.51s-4.5.75-4.87.11C44.54,31.85,45,31.65,45.73,31.55Z" transform="translate(0)"/><path class="cls-27" d="M41.07,36.68c1,.06,2.53.65,2.29,1s-2.84-.08-3-.64C40.31,36.73,40.62,36.65,41.07,36.68Z" transform="translate(0)"/><path class="cls-27" d="M21.51,36.05c1,.19,2.56,1,2.27,1.26s-3-.43-3-1C20.7,36,21,36,21.51,36.05Z" transform="translate(0)"/><path class="cls-26" d="M21,31.1c.87-.72,9.12.09,10.77.73S30.7,33,30.15,33.06a23,23,0,0,1-6.25-.33C22.79,32.52,20.36,31.61,21,31.1Z" transform="translate(0)"/><path class="cls-3" d="M28.17,31.26c1.62,0,4.35.57,4,1s-4.8.18-5.1-.5C26.89,31.41,27.41,31.27,28.17,31.26Z" transform="translate(0)"/><path class="cls-25" d="M32.57,30.25a7.1,7.1,0,0,0,5.82.07c1.75-.75,0,.64-.35,1s-.38,4.59-1.15,3-2-1.51-2.72.19-.29-1.17-.48-2.12S30.77,29.56,32.57,30.25Z" transform="translate(0)"/><path class="cls-28" d="M32.52,31c-2-1.68-5.35-2.12-12.06-1.85C25.49,29.55,29.5,29.78,32.52,31Z" transform="translate(0)"/><path class="cls-28" d="M39,30.81c1.69-1.52,4.56-1.5,10.7-1.58C45.17,29.78,41.73,29.61,39,30.81Z" transform="translate(0)"/></g></g></g></svg>