<svg xmlns="http://www.w3.org/2000/svg" xmlns:xlink="http://www.w3.org/1999/xlink" viewBox="0 0 96 96"><defs><style>.cls-1{fill:none;}.cls-2{clip-path:url(#clip-path);}.cls-3{fill:#f6e0b9;}.cls-4{fill:#765aa3;}.cls-5{fill:#d47844;}.cls-6{fill:url(#linear-gradient);}.cls-7{fill:#fff;opacity:0.15;}.cls-8{fill:#261b18;}.cls-9{fill:#66241b;opacity:0.5;}.cls-10{fill:#57443a;}.cls-11{fill:#f0a46e;}.cls-12{fill:#1a1614;}.cls-13{fill:#f0ded1;opacity:0.7;}.cls-14{fill:#121b21;}.cls-15{fill:#ff293e;}.cls-16{fill:#732e2b;}.cls-17{fill:#fff9f0;}.cls-18{fill:#e8dac5;}</style><clipPath id="clip-path"><circle class="cls-1" cx="48" cy="48" r="48"/></clipPath><linearGradient id="linear-gradient" x1="47.68" y1="75.51" x2="47.68" y2="80.58" gradientUnits="userSpaceOnUse"><stop offset="0" stop-color="#c25421"/><stop offset="1" stop-color="#d47844"/></linearGradient></defs><g id="Layer_2" data-name="Layer 2"><g id="Layer_4" data-name="Layer 4"><g class="cls-2"><rect class="cls-3" width="96" height="96"/><path class="cls-4" d="M56.41,78.56,54,83.23c.21.1.77.71,1.5,4.1l5.11-1.11C60,83.09,59.09,79.93,56.41,78.56Z"/><path class="cls-5" d="M60.2,86.32,56,87.23c.23,1.07.4,2.07.57,3A29,29,0,0,0,57.93,96H62.7a18.81,18.81,0,0,1-1.9-6.47C60.62,88.52,60.44,87.46,60.2,86.32Z"/><path class="cls-4" d="M36,86.22l5.12,1.11c.73-3.39,1.29-4,1.49-4.1l-2.37-4.67C37.53,79.93,36.65,83.09,36,86.22Z"/><path class="cls-5" d="M40.64,87.23l-4.22-.91c-.25,1.14-.43,2.2-.6,3.21A19,19,0,0,1,33.92,96h4.76a29,29,0,0,0,1.4-5.75C40.24,89.3,40.41,88.3,40.64,87.23Z"/><path class="cls-4" d="M57,88.51c1.57-5.87,1.75-9.43-1.88-10.62s-10-1.55-13.9.1c-3.09,1.32-4.07,3.46-2,10A33.06,33.06,0,0,1,41,96H55.55A38.73,38.73,0,0,1,57,88.51Z"/><path class="cls-6" d="M52.23,71.82c.3-5.19-8.67-5.38-8.66.28,0,2.51.19,4.43-.33,5.24-3.59,5.62,12.29,6.29,8.94.27C51.43,76.26,52.1,74.11,52.23,71.82Z"/><path class="cls-7" d="M51.88,84.69c-2.54.9-5.64.52-8.24-.13-1.51-.37-2.35,1.32-1.88,2.77.6,1.93,3.72,2.43,6.43,2.39,5.35-.09,7.36-2.07,6.45-4.44C54.39,84.64,53.25,84.21,51.88,84.69Z"/><path class="cls-8" d="M33,75.21c3,11,11,.28,14.74.05,3.13-.19,9.62,10.14,12.58,3,5.87,2,14.12-.16,13.46-7.6-.22-2.44-1.18-3.35.57-5.36S79.7,63.2,79.8,60c.1-2.91-3.47-3.46-4.17-5.81s1.41-3.57,2.69-5.37c3.27-4.63,2.61-8.18-1.5-11.59-1.91-1.58-3.1-2.55-3.34-5s.19-5.52-1.06-7.92c-1.12-2.15-3.63-2.56-5.69-3.49-2.32-1-3.36-2.7-4.74-4.73-2.63-3.88-8-4.72-12.12-2.66-.46-2.15-3.29-3-6.25-3s-6.57,1.58-9,3.46c-2.86,2.22-4.9,5.23-7.52,7.71-5.07,4.8-16,10.31-12.62,19.14,1.22,3.23,3.29,4.1,1.5,7.67-1.67,3.32-2.53,5.16.26,8.09,1.1,1.15,2.26,1.67,2.34,3.39s-1,3-1.19,4.59C16.87,69.85,23.88,77,33,75.21Z"/><path class="cls-5" d="M26.47,55.58c1.62,10.91,11.73,22.48,23.61,21.5C64.35,75.89,71.2,59.79,69.43,46.83c-2-14.72-9.45-27-25.58-23.89C32.33,25.14,24.28,40.87,26.47,55.58Z"/><path class="cls-9" d="M46.45,40.11a6.67,6.67,0,0,0-.31,4.8c-2.52-.49-4.84-.89-6-3.53-3.71,3.41-9,6.39-10.73,11.32-.48,1.35-.53,3.06-1.32,4.2-3.95-6.35-.63-18.38,4.17-23.63,3.76-4.12,8.68-7.93,14-9.8,4.49-1.58,11.6,1.82,15.84,3.48,3.18,1.24,5.57,4.72,6.28,7.89a35.34,35.34,0,0,1,.7,7c0,1.26-1.09,5.37-.62,6.27-2.1-4-3.12-7-7.43-8.92-3.34-1.46-7.2-3.38-9.27-6.54.66,1-3.29,4.41-3.89,5.19A10.62,10.62,0,0,0,46.45,40.11Z"/><path class="cls-8" d="M37.37,16.17c-7.36,1.32-13,7.8-15.7,14.25-3,7.33-3.17,14.32-2,24.52,1.19,10,12.21,14,10.74,10.92-2.85-6.09-2.67-12.8.63-17.71,3.11-4.62,5.43-8.34,10.63-10.95-1.45,3.3,1.64,8.63,5.63,6.91-3.4-1.15-2.45-4.17-.89-6.5.56-.83,6-6.73,5.06-7.61a39.36,39.36,0,0,0,7.31,5.74c2.58,1.49,5,2,6.87,4.53a14.65,14.65,0,0,1,2.14,4.25c.37,1.12.17,3.1.81,4,1.73,2.57,5.19,0,5.53-2.26.47-3.09-1.62-4.63-3-7.14-1.23-2.29,0-3.75-.57-6-.64-2.76-4.75-5.54-6.39-8a21.84,21.84,0,0,0-7.84-7.53C50.66,14.7,43.6,15.06,37.37,16.17Z"/><path class="cls-10" d="M49,16.61c2-2.34,6-3.25,8.49-1.27,2.88,2.23,3.72,6.12,7.46,7.55,3.49,1.33,6.44,1.37,6.2,6C71,31.12,70.7,35.5,67.78,34a10.53,10.53,0,0,0-3.38-1.61c-1.47-.25-3,.06-4.45-.17-4.36-.7-6.9-4.5-9-8A13.82,13.82,0,0,0,49.2,28a17.83,17.83,0,0,1-1.12,4.12c-.94,1.94-2.53,3.5-3.48,5.41,0,0,0,0,0,0A47.34,47.34,0,0,1,45.23,29c-4.78,6.37-11.87,10.88-17.08,12.39-1.84.53-4.15,1.2-5.94.18-1.56-.88-2.68-5.17-2.65-6.82.09-4.26,4.55-7.79,7.86-9.84a34,34,0,0,0,9.4-8c1.38-1.71,3.24-3.51,5.39-3.8S47.84,13.33,49,16.61Z"/><path class="cls-10" d="M21.37,61.25a2.56,2.56,0,0,1,1.58-.5c2.66-.1,2.86,3.79,3,5.43a6.31,6.31,0,0,0,1.3,3C18.88,69.84,19.78,62.54,21.37,61.25Z"/><path class="cls-10" d="M72.88,38.8a2.62,2.62,0,0,0-1.35,1c-1.67,2.07,1.32,4.57,2.54,5.68a6.36,6.36,0,0,1,1.63,2.85C81.25,42,74.87,38.3,72.88,38.8Z"/><path class="cls-10" d="M67.42,75.94c1.17-2-.15-3.46,0-5.32s3.4-3.44,4.24-.18C72.38,73.18,69.64,75.62,67.42,75.94Z"/><path class="cls-10" d="M21.13,57.4c-.71-2.64,1.26-3.88,1.66-6S20,46.39,18,49.81C16.37,52.71,18.72,56.33,21.13,57.4Z"/><path class="cls-10" d="M71,63.28c1.89-1.35,1.27-3.23,2.18-4.86s4.5-1.75,4,1.56C76.68,62.78,73.19,63.88,71,63.28Z"/><path class="cls-11" d="M67.57,52.11a2.5,2.5,0,0,1,.44.77c1.09,2.91-5.79,2.6-6.72,1.38-1.76-2.28.45-3.11,2.15-3.26C64.75,50.89,66.6,51,67.57,52.11Z"/><path class="cls-11" d="M40.79,52.8a2.77,2.77,0,0,1,.65.67c1.82,2.69-5.27,4.09-6.52,3.08-2.36-1.89-.32-3.28,1.38-3.86C37.61,52.26,39.51,51.87,40.79,52.8Z"/><path class="cls-9" d="M54.64,53.44c-.58-.87-1.45,0-3-.07-1.41-.07-1.39-.82-2.39-.22S49,56,51.52,56,55.13,54.19,54.64,53.44Z"/><path class="cls-11" d="M51.18,49.29c-1.16.05-2.77,4-2.18,4.54,1.45,1.41,4.57.66,5.5-.35C54.87,53.09,52.48,49.24,51.18,49.29Z"/><path class="cls-12" d="M65.2,44.48c-3.92-1.57-7.36,3.31-4.5,5.73.54-.62,3.56-1.67,5.47-.3C67.74,48.73,67.3,45.32,65.2,44.48Z"/><path class="cls-13" d="M65.69,47.16c.94-.31,1.34,1.11.56,1.65C65.19,49.55,64.63,47.52,65.69,47.16Z"/><path class="cls-13" d="M62,45.13c1.6-.54,2.28,1.89,1,2.79C61.14,49.18,60.21,45.73,62,45.13Z"/><path class="cls-12" d="M36.29,45.46c3.79-1.85,7.58,2.75,4.91,5.38-.59-.58-3.68-1.4-5.48.11C34.07,49.9,34.25,46.46,36.29,45.46Z"/><path class="cls-13" d="M36,48.18c-1-.25-1.26,1.21-.44,1.68C36.68,50.52,37.07,48.45,36,48.18Z"/><path class="cls-13" d="M39.52,45.87c-1.63-.42-2.13,2.05-.75,2.86C40.68,49.85,41.35,46.34,39.52,45.87Z"/><path class="cls-8" d="M42.31,40c1,.1,1.6.71,1,1.64-.46.74-1.52.53-2.3.52-1.16,0-2.31-.15-3.47-.19a17.94,17.94,0,0,0-4.51.24c-.29.06-.54.25-.85.18,0-.38.42-.78.75-1a9.67,9.67,0,0,1,3.66-1.35A21.76,21.76,0,0,1,42.31,40Z"/><path class="cls-8" d="M58.5,39.43c-1,.16-1.53.78-.94,1.64.48.69,1.49.42,2.25.37,1.13-.08,2.25-.28,3.37-.39a17.43,17.43,0,0,1,4.39,0c.28,0,.53.21.83.12,0-.36-.43-.73-.76-.93A9.32,9.32,0,0,0,64,39.13,21.4,21.4,0,0,0,58.5,39.43Z"/><path class="cls-14" d="M71.94,43.8s-2.7,3.81-8,1.68c-2.34-.94-4,1.33-4,1.33a4,4,0,0,1,4.53-3C66.25,44.13,68.22,45.65,71.94,43.8Z"/><path class="cls-14" d="M29.65,45.25s2.92,3.65,8.11,1.22c2.29-1.07,4.1,1.1,4.1,1.1a4,4,0,0,0-4.69-2.72C35.35,45.25,33.47,46.89,29.65,45.25Z"/><path class="cls-15" d="M51.32,58.42c-4.55.31-11.53,1.62-14.83.39,5.33,10.14,10,11.71,14.64,11.64C58,70.34,59,65.6,59.74,62.78c.33-1.19,3.18-4.33,4.3-5.06C60.43,58.67,56.81,58.06,51.32,58.42Z"/><path class="cls-16" d="M39.31,60.28a50.19,50.19,0,0,0,22.4-1.07,6,6,0,0,0-2.82,3.18c-.79,2.09-3.81,3.64-8.48,3.72C43.13,66.24,39.31,60.28,39.31,60.28Z"/><path class="cls-17" d="M42,60.73s.29,1.83,2.91,2.45a25.89,25.89,0,0,0,10.6,0c2.48-.45,3.6-3.39,3.6-3.39A53.66,53.66,0,0,1,42,60.73Z"/><path class="cls-17" d="M43.35,63.34c-.27-.47-.19-1.25,1-.57,1.7.94,4.48,1,7.8.82,3.09-.22,4.62-1.13,5.24-.63s-2,3.61-7.35,3.25C44.52,65.83,43.35,63.34,43.35,63.34Z"/><path class="cls-18" d="M42.74,62s12.42-1.44,15.43-.52a6.07,6.07,0,0,0,1-1.65,62,62,0,0,1-17.11.9A3,3,0,0,0,42.74,62Z"/><path class="cls-18" d="M45.38,63.1a18.76,18.76,0,0,0,9.82,0S49.93,65.46,45.38,63.1Z"/></g></g></g></svg>