<svg xmlns="http://www.w3.org/2000/svg" xmlns:xlink="http://www.w3.org/1999/xlink" viewBox="0 0 66 66"><defs><style>.cls-1{fill:none;}.cls-2{clip-path:url(#clip-path);}.cls-3{fill:#5f5d7f;}.cls-4{fill:#ff9819;}.cls-5{fill:#ffc566;}.cls-6{fill:#f7ac77;}.cls-7{fill:#e8dac5;}.cls-8{fill:#f2f2f2;}.cls-9{fill:#1f1a17;}.cls-10{fill:#ffc490;}.cls-11{fill:#d14f2e;}.cls-11,.cls-14,.cls-17{opacity:0.3;}.cls-12{fill:#ffd1a7;}.cls-13{fill:#a88888;}.cls-14{fill:#bf3c1b;}.cls-15{fill:#fab27b;}.cls-16{fill:#f5ae79;}.cls-17{fill:#bc551e;}.cls-18{fill:#8f322d;}.cls-19{fill:#fff3e2;}.cls-20{fill:#332823;}</style><clipPath id="clip-path" transform="translate(0.01)"><circle class="cls-1" cx="33" cy="33" r="33"/></clipPath></defs><g id="Layer_2" data-name="Layer 2"><g id="avatars"><g class="cls-2"><rect class="cls-3" width="66" height="66"/><path class="cls-4" d="M27.17,54.91c-4.12,1.62-6.8,5-9,9.52a9.33,9.33,0,0,0,3,1.57h5.38C28.17,61,28.5,54.38,27.17,54.91Z" transform="translate(0.01)"/><path class="cls-4" d="M41.5,54.91c-1.33-.53-1,6.06.69,11.09h5.38a9.33,9.33,0,0,0,3-1.57C48.3,59.94,45.62,56.53,41.5,54.91Z" transform="translate(0.01)"/><path class="cls-4" d="M34.07,53.84c-8.1,0-9.08,2.65-9,2.94.29.8-.22,4.94.13,9.22H42.91c.42-4.39.05-8.54.48-9.37C43.54,56.33,42.41,53.8,34.07,53.84Z" transform="translate(0.01)"/><path class="cls-5" d="M28.58,54.63c-1.84,2.71,5.52,5.74,5.52,5.74s6.51-2.83,5.81-5.28C39.08,52.19,30.24,52.2,28.58,54.63Z" transform="translate(0.01)"/><path class="cls-6" d="M34.12,49.13a4.46,4.46,0,0,0-4.7,4.09,3.52,3.52,0,0,0,.8,2.94,5.87,5.87,0,0,0,3.9,2.25A5.86,5.86,0,0,0,38,56.16a3.52,3.52,0,0,0,.8-2.94A4.47,4.47,0,0,0,34.12,49.13Z" transform="translate(0.01)"/><path class="cls-7" d="M40.81,61.73a48.11,48.11,0,0,0,.09-7.1.73.73,0,0,0-.82-.61.71.71,0,0,0-.61.82,48,48,0,0,1-.11,6.82c-.07,1.38-.14,2.84-.19,4.34h1.44C40.67,64.53,40.74,63.09,40.81,61.73Z" transform="translate(0.01)"/><rect class="cls-8" x="39.24" y="60.32" width="1.77" height="0.75" transform="translate(-1.47 1.01) rotate(-1.41)"/><path class="cls-7" d="M28.62,54.84a.73.73,0,0,0-1.44-.21,48.11,48.11,0,0,0,.09,7.1c.07,1.36.15,2.8.2,4.27h1.45c-.06-1.5-.13-3-.2-4.34A47.56,47.56,0,0,1,28.62,54.84Z" transform="translate(0.01)"/><rect class="cls-8" x="27.58" y="59.81" width="0.75" height="1.77" transform="translate(-33.39 87.17) rotate(-88.61)"/><path class="cls-9" d="M51.65,18.87a3,3,0,0,1-2.08.59,3.56,3.56,0,0,0,1.75-3.55C48,13.27,40.17,8,31.37,7.51c-5.4-.27-11,1.12-14,6A10.83,10.83,0,0,0,15.9,16.9,5,5,0,0,1,15,14.21a3.57,3.57,0,0,0,0,4.41,4.1,4.1,0,0,0-2.79,1.19,5.54,5.54,0,0,1,2.25.33,6.43,6.43,0,0,0-.88,3.71A31.94,31.94,0,0,0,14.34,31c.59,2.25,1.41,7.77,4.82,7.07,4.69-1,9.8-3.53,14.63-1.71,3.36,1.27,6.41,3.36,9.83,4.62,3,1.12,6,4.05,6.86-.11A27.82,27.82,0,0,0,50.75,31c-.43-2.64-.89-5.88-2.3-8.19A4.71,4.71,0,0,0,51.65,18.87Z" transform="translate(0.01)"/><path class="cls-10" d="M32.34,15.49c-8.89.59-16.53,10.36-15.8,21.17s8.09,18.08,18.44,18c11.46-.11,15.86-9.54,15.13-20.35S41.23,14.89,32.34,15.49Z" transform="translate(0.01)"/><path class="cls-11" d="M48.39,33.23c-.38-.19-3.1-.53-2.43.49a7.17,7.17,0,0,0,2,1c.49.1.57-.08.23-.42s-1.26-.48-1.48-.91C47.07,33.35,48.2,33.84,48.39,33.23Z" transform="translate(0.01)"/><path class="cls-11" d="M25,35.16c.23.59,1.32,0,1.71,0-.19.45-1.11.67-1.41,1s-.21.53.27.4a7.19,7.19,0,0,0,1.88-1.15C28.06,34.4,25.38,34.94,25,35.16Z" transform="translate(0.01)"/><path class="cls-9" d="M29,32c-2-.87-3.25,2.66-1.9,3.82a2.85,2.85,0,0,1,2,.18C30.42,35.28,30.49,32.62,29,32Z" transform="translate(0.01)"/><path class="cls-11" d="M37.46,36.88c-1.11,0-1.57-.4-2.33,0s.31,2.14,2.27,2,2.87-1.77,2.43-2.22S38.7,36.82,37.46,36.88Z" transform="translate(0.01)"/><path class="cls-12" d="M36.47,30.92c-1,.08-1.67,1.51-1.8,3.35s-.07,2.7.41,3.06A4,4,0,0,0,39.73,37C41.11,35.54,38.88,30.74,36.47,30.92Z" transform="translate(0.01)"/><path class="cls-9" d="M45.67,30.78c-2.12-.93-3.37,3.5-1.08,3.87A2.6,2.6,0,0,1,46.28,34C47,33.05,46.8,31.28,45.67,30.78Z" transform="translate(0.01)"/><path class="cls-13" d="M28,32.7c-.81.27-.2,1.84.59,1.27C29.15,33.57,28.71,32.46,28,32.7Z" transform="translate(0.01)"/><path class="cls-13" d="M44.7,31.59c-.75.25-.19,1.72.55,1.19C45.78,32.4,45.37,31.37,44.7,31.59Z" transform="translate(0.01)"/><path class="cls-10" d="M15,34.13c-4.4,1.1-2.79,6.63.76,7.7a9.75,9.75,0,0,0,3.53.29l.07-.1c.54-.72-.3-4.4-.55-5.16C18.19,35,17.12,33.6,15,34.13Z" transform="translate(0.01)"/><path class="cls-14" d="M28.55,20.64c-3.43.34-7.81,1.82-8.61,5.66a30.64,30.64,0,0,0-.75,4.55,9.69,9.69,0,0,0,0,1.43c.06.57,1.29,6.13,1.32,5.55.51-8.65,2.58-11.51,3-12.77,10.36,1.52,15.7,1.06,19.48.63,1.46-.17,5-.52,3.23-2.77C45.1,21.43,33.42,20.15,28.55,20.64Z" transform="translate(0.01)"/><path class="cls-11" d="M17.33,36.2c-1.13-.54-4.17-.18-3,1.67,1-1.47,2.11-.29,1.75.79-.24.73-1.34.61-.39,1.7a2.51,2.51,0,0,0,2.37.33C20.06,40,18.69,36.85,17.33,36.2Z" transform="translate(0.01)"/><path class="cls-9" d="M42,14.87c-4.92-2.29-12.51-2.95-17.82-.28A11.06,11.06,0,0,0,20,18.11c-2.3,3.33-5.22,8.81-4,12.86.27.9.12,2.19.45,3.1.79,2.24,2,11,3.93,11,.72,0,2.78.49,2.43-.16-3.09-5.76-2.31-15.89.26-20.66C39,26.19,48,24,47.41,20.42,47,18,44.07,15.85,42,14.87Z" transform="translate(0.01)"/><path class="cls-15" d="M29.92,37.46c-1.08-.84-2.72-.53-3.85-.15-1.47.48-3.25,1.69-1.26,3.4,1.06.91,7.17-.23,5.65-2.64A2.48,2.48,0,0,0,29.92,37.46Z" transform="translate(0.01)"/><path class="cls-15" d="M45.57,35.58a3.11,3.11,0,0,0-1.66,1c-.62.78-.6,1.79.73,2.43s4.06.74,4.72-.94C50.28,35.78,47,35.22,45.57,35.58Z" transform="translate(0.01)"/><path class="cls-16" d="M36.42,49.46A2.53,2.53,0,0,0,34.6,52c0-.19.69-1.28,2.65-1.58a4.49,4.49,0,0,1,3.51,1C40.9,49.57,38,49,36.42,49.46Z" transform="translate(0.01)"/><path class="cls-9" d="M44,26.21c-1.23.14-2.65,1.13-3.88.82a2.36,2.36,0,0,0,2.16,2.17,4.17,4.17,0,0,0,2.5-.55,7.58,7.58,0,0,1,1-.37,5,5,0,0,1,1.72,0,2.1,2.1,0,0,0-.21-.61A3.09,3.09,0,0,0,44,26.21Z" transform="translate(0.01)"/><path class="cls-9" d="M30.36,27.65c-.77-.14-1.57-.54-2.32-.62-1.9-.19-3.84,2.35-2.62,4a8.06,8.06,0,0,0,.68-.74C27.29,29,29,30,30.44,30.24c1.91.33,2.82-.87,2.74-2.69A5.5,5.5,0,0,1,30.36,27.65Z" transform="translate(0.01)"/><path class="cls-17" d="M44.22,39.39c.2-.08.78.53.8.73,0,.39-.43.64-.72.8a10.23,10.23,0,0,1-3.29.79,30.79,30.79,0,0,1-8.19.38,17.71,17.71,0,0,1-4.54-1l.14-.11c.76-.47,1.89-.53,1.56-.68-1.71-.74-3.64.14-5,1.12,1.57-.34,3.21-.21,4.1,1.3,2.23,3.84,4.52,6.4,8.26,6.34,4.88-.08,5.91-3.32,6.5-5.48a4.34,4.34,0,0,1,1.17-2,6.27,6.27,0,0,1,2.07-1.64,4.27,4.27,0,0,1,1.73-.36C47.74,38.52,45.43,38.9,44.22,39.39Z" transform="translate(0.01)"/><path class="cls-18" d="M29.36,42s2.47,5.63,8.23,5.18c3.91-.3,5.47-2.23,5.91-3.89A3.46,3.46,0,0,1,45,41,22.78,22.78,0,0,1,29.36,42Z" transform="translate(0.01)"/><path class="cls-19" d="M31.29,42.47a3.07,3.07,0,0,0,2,2.45,12.12,12.12,0,0,0,7.47.07c1.73-.51,2.56-3.29,2.56-3.29A26.47,26.47,0,0,1,31.29,42.47Z" transform="translate(0.01)"/><path class="cls-19" d="M38.74,45.07a17.47,17.47,0,0,1-5.81-.55c-1-.34-1,.18-.75.63,0,0,.44,1.86,5,2.05,4,.17,5.51-2.26,5-2.73S41.21,45,38.74,45.07Z" transform="translate(0.01)"/><path class="cls-7" d="M31.28,42.45A2.49,2.49,0,0,0,32,44.07s8.28-1.14,10.41-.48a6.06,6.06,0,0,0,.9-1.89A29.43,29.43,0,0,1,31.28,42.45Z" transform="translate(0.01)"/><path class="cls-7" d="M33.45,44.52a11.61,11.61,0,0,0,8.19-.13A18,18,0,0,1,33.45,44.52Z" transform="translate(0.01)"/><path class="cls-17" d="M46,36.93a2.25,2.25,0,0,0-1,.34c-.55.43.19.29.51.47.72.42.12,1.35-.51,1.39-1.1.06-2.19.14-3.29.24-3.33.29-6.67.75-10,.71-.74,0-2.17.24-2.8-.24-.94-.72,1.3-1.39.12-1.58-.78-.13-1.83.88-2.12,1.53a2.07,2.07,0,0,0-.1.33c-.26,1.41.93,2.2,2,2.8a5.3,5.3,0,0,0,3.07.42,22.36,22.36,0,0,1,3.17,0,25.67,25.67,0,0,0,3.16,0c1.05-.08,2.06-.3,3.1-.44,1.85-.26,3.44-.15,4.93-1.49a2.94,2.94,0,0,0,1.28-2.7C47.4,37.9,47.06,36.91,46,36.93Z" transform="translate(0.01)"/><path class="cls-9" d="M44.66,37.44c.71-.44,1.38,0,1.34.5,0,.76-1,.69-1.53.64-1.69-.17-3.48-.78-5.21-.23-2.25.7-3.79-.1-6.12.26a31.46,31.46,0,0,0-3.44.87c-.57.16-1.31.26-1.46-.37a.68.68,0,0,1,1.1-.58c-.26-.54-1.3-.67-1.8-.49a1.35,1.35,0,0,0-.87,1.7c.22,1.13,1.84,1.88,2.82,2.25a19.55,19.55,0,0,0,4.68,1,21.65,21.65,0,0,0,3.32.15A18.71,18.71,0,0,0,41,42.73a12.49,12.49,0,0,0,4.11-1.67c1-.64,2.45-1.49,2.31-3A1.48,1.48,0,0,0,44.66,37.44Z" transform="translate(0.01)"/><path class="cls-20" d="M15.2,23.43c-.06,1.32,2.7,2.47,3.69,2.65a6,6,0,0,1-2,.12c-.73-.09-1.49-.6-2.21-.55.2,1.59,2.65,1.93,3.84,2.44a4.77,4.77,0,0,1-1.35.14c-.34,0-1-.23-1.28-.1-1,.39-.63,2.64-.53,3.43.17,1.33,1,2.82,2,.57-.34,3.28,3,8.43,2.76,6.27a28.18,28.18,0,0,1,.17-7.11,26.42,26.42,0,0,1,.53-3.42c.07-.27.74-3.25.72-3.25-.66,0-1.31-.08-2-.13C18.1,24.35,16.75,23.53,15.2,23.43Z" transform="translate(0.01)"/><path class="cls-20" d="M37.73,22.6a60.42,60.42,0,0,1-17.44,0s10.07,2.7,19.35,1.43,8-4.13,8-4.13S47.64,21.18,37.73,22.6Z" transform="translate(0.01)"/><path class="cls-20" d="M42.6,39a6.18,6.18,0,0,0-3.65.16,4.2,4.2,0,0,1-3.59.07c-1.72-.71-5.58.57-5.05,1.21s2.33.31,2.33.31a1.2,1.2,0,0,0,.8,1.06c.74.21,2.12-.79,2.12-.79a1,1,0,0,0,.95,1.06c1,0,1.86-1.11,1.86-1.11s.64,1.07,1.64.9a1,1,0,0,0,.9-1.06,3.46,3.46,0,0,0,2,.37c.75-.23.32-1.27.32-1.27a2.36,2.36,0,0,0,2-.11C46.26,39.29,44,39.29,42.6,39Z" transform="translate(0.01)"/><path class="cls-20" d="M19.63,17.41c2.84,2.54,6.87,2.1,10.3,1.6-2.24,1.58-9.53,1.31-12.78.38,2.52,1.34,5.73,2.5,13.2,2.82a32.6,32.6,0,0,0,14.8-2.7,13.8,13.8,0,0,0,5.09-3.77c-1.88-.69-10-5.76-16-6.8C23.37,7,15.74,13.92,19.63,17.41Z" transform="translate(0.01)"/></g></g></g></svg>