<svg xmlns="http://www.w3.org/2000/svg" xmlns:xlink="http://www.w3.org/1999/xlink" viewBox="0 0 96 96"><defs><style>.cls-1{fill:none;}.cls-2{clip-path:url(#clip-path);}.cls-3,.cls-9{fill:#fff;}.cls-4{fill:#ed904e;}.cls-5{fill:url(#linear-gradient);}.cls-6{fill:#3a3a4a;}.cls-7,.cls-9{opacity:0.1;}.cls-8{fill:#de3e78;}.cls-10{fill:#f06799;}.cls-11{fill:#331f1b;}.cls-12{fill:#593c2d;}.cls-13{fill:#85260f;opacity:0.3;}.cls-14{fill:#fca760;}.cls-15{fill:#e6d2c3;opacity:0.7;}.cls-16{fill:#2b221c;}.cls-17{fill:#960800;opacity:0.4;}.cls-18{fill:#8f2621;}.cls-19{fill:#fff9f0;}.cls-20{fill:#e8dac5;}.cls-21{fill:#f7a25b;}.cls-22{fill:#121b21;}</style><clipPath id="clip-path"><circle class="cls-1" cx="48" cy="48" r="48"/></clipPath><linearGradient id="linear-gradient" x1="48.85" y1="75.45" x2="48.72" y2="80.88" gradientUnits="userSpaceOnUse"><stop offset="0" stop-color="#e37c32"/><stop offset="1" stop-color="#ed904e"/></linearGradient></defs><g id="Layer_2" data-name="Layer 2"><g id="Layer_4" data-name="Layer 4"><g class="cls-2"><rect class="cls-3" width="96" height="96"/><path class="cls-4" d="M42.53,82.88,40.45,79c-3.18,1.52-3.83,4.74-4.52,8.14-.58,2.88-1.23,6.08-3.48,8.82h5.4a27,27,0,0,0,2.58-8C41,85.17,41.41,83.42,42.53,82.88Z"/><path class="cls-4" d="M54.35,82.88,56.42,79c3.18,1.52,3.83,4.74,4.52,8.14.58,2.88,1.23,6.08,3.48,8.82H59a27.33,27.33,0,0,1-2.58-8C55.87,85.17,55.47,83.42,54.35,82.88Z"/><path class="cls-5" d="M48.48,72.33c4,0,1.93,3.62,5,4.94s8.9,5.2,3.55,10-12.21,4.29-16.12.38-4-7.72,2.64-10.21C46.34,76.41,44.58,72.33,48.48,72.33Z"/><path class="cls-6" d="M55.18,77.9a7.73,7.73,0,0,0-1.79-.82c.55,2.44,1.38,8.38-4.73,8.38s-5.57-4.91-5.13-8.2a2.1,2.1,0,0,0-1.34.61c-1.72,5.25-4.6,6.72-1.95,13,.64,1.54,1.55,3.37,1.58,5.08H54.93c.1-1.92,1-3.36,1.84-5.25C59.55,84.53,56.63,81.23,55.18,77.9Z"/><path class="cls-7" d="M46.11,93.26c.27,0,.52-.14.78-.18-1.47-.27-3.35-.26-4-1.3,1.8,0,3.58.27,5.43.31a44.74,44.74,0,0,0,6.13-.37c-.3,0-1.81,1-2.37,1.14A12.26,12.26,0,0,1,46.11,93.26Z"/><path class="cls-8" d="M48.66,86.13A5.88,5.88,0,0,1,44,84.48c-1.58-1.82-1.2-4.6-.89-6.84l.06-.42a.67.67,0,0,1,1.32.17l-.06.43c-.27,2-.61,4.43.57,5.78a4.66,4.66,0,0,0,3.62,1.2A4.08,4.08,0,0,0,52,83.53c1.41-1.75.66-5.06.38-6.3a.67.67,0,1,1,1.3-.3c.32,1.42,1.16,5.18-.64,7.43A5.33,5.33,0,0,1,48.66,86.13Z"/><path class="cls-8" d="M39.17,86.71h0a.65.65,0,0,1-.63-.69,12.51,12.51,0,0,1,1.34-4.77c.38-.89.82-1.91,1.24-3.2a.66.66,0,0,1,.84-.42.67.67,0,0,1,.43.84c-.45,1.34-.9,2.39-1.29,3.31a11.32,11.32,0,0,0-1.23,4.3A.66.66,0,0,1,39.17,86.71Z"/><path class="cls-8" d="M57.93,86.71a.65.65,0,0,1-.66-.63A11.69,11.69,0,0,0,56,81.78c-.4-.92-.85-2-1.29-3.31A.66.66,0,0,1,56,78.05a33.24,33.24,0,0,0,1.25,3.2A12.69,12.69,0,0,1,58.59,86a.65.65,0,0,1-.63.69Z"/><path class="cls-9" d="M40.7,88.51c.72,2.17,4.39,2.73,7.59,2.67,6.31-.11,8.68-2.37,7.62-5.05-.28-.71-1.63-1.2-3.25-.65-3,1-6.65.61-9.72-.12C41.17,85,40.17,86.87,40.7,88.51Z"/><polygon class="cls-10" points="66.7 58.14 63.86 64.25 69.55 64.25 66.7 58.14"/><path class="cls-11" d="M33.09,45.7c-10.2-4-17.49,2.71-16.16,15.89.76,7.52-1.45,11-5.34,9.63.94,4.35,14.41,10.94,25.55.61C52,58.05,38,47.63,33.09,45.7Z"/><path class="cls-12" d="M31.07,47c-2.46-1.95-9.52-.83-12.26,6.39-2.36,6.2,1.59,12.69-.48,17.18,6.2.08,4.49-10.24,9-13.32C33.8,52.82,31.07,47,31.07,47Z"/><path class="cls-10" d="M25.65,34.1c-12.85,3.25-10.43,28.66,6.28,27C44.49,59.78,34.61,31.83,25.65,34.1Z"/><path class="cls-8" d="M32,49.15a9.07,9.07,0,0,1-4.21.58c-1.55-.23-4.74-2.21-5.89-.72-.4.53-.13,1.8-.52,2.45-1.23,2-2.49,2.17-.91,4.57a13.84,13.84,0,0,0,3.34,3.49c2.54,1.79,5.41,1.85,8.49,1.54,3.24-.33,5.32-2.16,5.85-5.22.46-2.6.73-7.37-2.94-7.34A10.59,10.59,0,0,0,32,49.15Z"/><path class="cls-11" d="M69.5,25.5c-.1-.24-.2-.47-.32-.7,1.89-.57,4.12-2.25,5.73-3.4a67.53,67.53,0,0,1-9.06-2.88,13.43,13.43,0,0,0,3.63-2.09c-6.06-.3-14.85-3.52-19.7-3.86-8-.58-16.67,1.78-22.42,7.92C17,31.57,18.54,52.17,31.12,62.85c4.46,3.77,9.7,5,15.3,6.09,6.95,1.41,12.75.23,17.23-5.7C69.9,55,72.51,42,70.11,32.08,69.61,30,70.29,27.55,69.5,25.5Z"/><path class="cls-4" d="M29.51,55.17c1.2,10.5,9.94,21.57,21.2,21.57,10.95,0,18.94-15.87,17.62-28.78-1.44-14-7.81-25.84-22.38-23.33C35.54,26.42,27.92,41.16,29.51,55.17Z"/><path class="cls-13" d="M68.05,31.16c-3.51-1.32-6.11-2.8-9.63-4a40.22,40.22,0,0,0-11.69-2.24c-3.78-.15-7.89-.46-11.44,1.06-2.81,1.2-4.68,2.39-5.35,5.3-1.09,4.75-.76,12.22,1.77,16.43a30.72,30.72,0,0,1,2.48-10.13c4.12,1.53,13.12,1.79,19,.5A9.86,9.86,0,0,1,51,36.47,61.58,61.58,0,0,0,65,35C67.81,34.4,71.9,32.61,68.05,31.16Z"/><path class="cls-4" d="M26.91,59.62a10.07,10.07,0,0,0,4.1.53l.08-.12c.63-1-.1-6.38-.39-7.41C30,50,28.48,48.65,26,49.27,20.91,50.56,22.78,58,26.91,59.62Z"/><path class="cls-13" d="M28.92,57.83c1.87-1.13.21-5.11-1.17-5.78-1.13-.56-4,.33-2.71,2.6.75-2.06,2-.67,1.76.79-.15,1-1.21,1-.19,2.27C27.17,58.41,28.33,58.18,28.92,57.83Z"/><path class="cls-11" d="M78.75,28.28a24.19,24.19,0,0,1-5.41,0c1.52-.51,3.77-1.72,4.48-3.09-3.5.42-8.62-.58-9.62-.75A22.14,22.14,0,0,1,59.64,21C53.93,17.29,47.48,17.06,40.91,18a25.29,25.29,0,0,0-8,2.33c-2.13,1.13-3,3.87-4,5.95-2.39,4.86-.48,22.8.31,23.58a6.13,6.13,0,0,1,1.32,2.72,3.26,3.26,0,0,0,2.29.67,28.74,28.74,0,0,1-1.11-9.06,39.9,39.9,0,0,1,2-9.86c3.67,3.48,12.17,3.2,16.31,2.64-.59-.52-1.57-1.35-2.08-1.91C54.68,35.27,73.6,34,78.75,28.28Z"/><path class="cls-12" d="M43.16,14.9c13.76-1,24.54,7,25.93,7.34-1,1.85-3.41,2.34-4.85,3.75a16.83,16.83,0,0,0,7.47.47c-.5,1.1-2.52,1.85-3.59,2.33-6.64,3-12.85,2.79-19.71,1.31A25.55,25.55,0,0,0,51.5,32c-4.48.73-10.29.22-14-2.8.91,2.26,3,3.5,4.08,5.63-3.57.2-7.73-1.57-10.55-3.6-1.1,4.41-2.36,8.82-2,14.59-3.67,0-6-4.17-6-4.19-1.89-8.26,1.36-16.5,5.88-20.75A24.94,24.94,0,0,1,43.16,14.9Z"/><polygon class="cls-10" points="28.39 59.19 25.34 65.31 31.45 65.31 28.39 59.19"/><path class="cls-14" d="M67.81,54.36c-.42-1.32-2.13-1.79-3.41-2-1.67-.24-4.1.08-3.42,2.65.36,1.36,6.7,3.16,6.92.14A2,2,0,0,0,67.81,54.36Z"/><path class="cls-14" d="M42.38,54.5a2.3,2.3,0,0,0-.46-.78c-1-1.12-3-1-4.32-.77-1.79.32-4.11,1.41-2.29,3.65C36.28,57.8,43.49,57.46,42.38,54.5Z"/><path class="cls-11" d="M40.41,51.21a4.68,4.68,0,0,0-2.93-.31c-2-1.6-.08-6.25,2.86-5C42.53,46.8,42.4,50.35,40.41,51.21Z"/><path class="cls-15" d="M39.2,46.77c1.07-.29,1.71,1.2.86,1.72C38.88,49.22,38,47.09,39.2,46.77Z"/><path class="cls-11" d="M65.54,51.22a4.66,4.66,0,0,0-2.92-.32c-2-1.6-.08-6.24,2.86-5C67.67,46.81,67.53,50.36,65.54,51.22Z"/><path class="cls-15" d="M64.28,46.82c1.07-.29,1.71,1.2.86,1.72C64,49.27,63.08,47.15,64.28,46.82Z"/><path class="cls-16" d="M41.17,43.87c1,0,2.19-.12,2.32-.86.17-1-.55-1.37-1.69-1.38-1.57,0-8.19.66-8.37,1.32C33.16,43.88,36.06,44.05,41.17,43.87Z"/><path class="cls-16" d="M68.59,43.23c-.16-.66-5.48-1.29-6.74-1.27-.91,0-1.48.4-1.32,1.39.11.74,1,.81,1.87.84C66.5,44.34,68.82,44.16,68.59,43.23Z"/><path class="cls-17" d="M52.42,59.14c-4.61.21-10.57,1.15-14.24-.72C42.83,65.8,46.47,70,51.9,69.9c5.94-.06,8-4.08,8.88-7,.33-1.13,2.49-4,3.71-4.62C61,59.52,57.85,58.89,52.42,59.14Z"/><path class="cls-18" d="M40.15,59.91a50,50,0,0,0,22.7-.62,6.13,6.13,0,0,0-2.93,3.22c-.85,2.14-3.93,3.67-8.66,3.65C43.88,66.13,40.15,59.91,40.15,59.91Z"/><path class="cls-19" d="M42.89,60.42s.24,1.42,2.88,2.11a25.72,25.72,0,0,0,10.73.28,5.61,5.61,0,0,0,3.73-2.93A53.6,53.6,0,0,1,42.89,60.42Z"/><path class="cls-19" d="M44.17,63.15c-.27-.5-.17-1.29,1-.57,1.7,1,4.54,1.51,7.92,1.34,3.12-.16,4.65-1.39,5.27-.86s-2.12,3.69-7.51,3.19C45.3,65.74,44.17,63.15,44.17,63.15Z"/><path class="cls-20" d="M43.84,61.67s12.22-1.27,15.25-.25a4.69,4.69,0,0,0,1.14-1.54,61.66,61.66,0,0,1-17.34.54A1.94,1.94,0,0,0,43.84,61.67Z"/><path class="cls-20" d="M46.37,63.13a18.77,18.77,0,0,0,10,.25S50.93,65.66,46.37,63.13Z"/><path class="cls-13" d="M55.67,54.52c-.54-.94-1.51-.1-3.13-.28s-1.4-1-2.49-.4-.4,2.91,2.19,3.13S56.14,55.33,55.67,54.52Z"/><path class="cls-21" d="M52.36,50c-1.21,0-3.16,3.95-2.59,4.59,1.41,1.57,4.72,1,5.76,0C55.94,54.17,53.72,50,52.36,50Z"/><path class="cls-22" d="M71.15,43s-.8,4.25-6.24,3.9a3.18,3.18,0,0,0-3.11,2.28,3.45,3.45,0,0,1,2.88-3.91C66.38,45,68.69,45.78,71.15,43Z"/><path class="cls-22" d="M32.21,43.23s1,4.18,6.46,3.51a3.18,3.18,0,0,1,3.24,2.09,3.43,3.43,0,0,0-3.1-3.73C37.09,44.92,34.84,45.85,32.21,43.23Z"/></g></g></g></svg>