<svg xmlns="http://www.w3.org/2000/svg" xmlns:xlink="http://www.w3.org/1999/xlink" viewBox="0 0 66 66"><defs><style>.cls-1{fill:none;}.cls-2{clip-path:url(#clip-path);}.cls-3{fill:#fff;}.cls-4{fill:#ffcb9e;}.cls-5{fill:#f1aa83;opacity:0.5;}.cls-6{fill:#e0e0e0;}.cls-7{fill:#c4bab1;}.cls-8{fill:#c93712;}.cls-9{fill:#bf3c1b;}.cls-12,.cls-9{opacity:0.3;}.cls-10{fill:#ffa073;}.cls-11{fill:#224245;}.cls-12{fill:#b54d26;}.cls-13{fill:#ffdfc2;}.cls-14{fill:#d4e6dd;opacity:0.7;}.cls-15{fill:#d94d15;}.cls-16{fill:#f7a286;}.cls-17{fill:#8f3935;}.cls-18{fill:#fff9f0;}.cls-19{fill:#e8dac5;}.cls-20{fill:#e85216;}</style><clipPath id="clip-path" transform="translate(0)"><circle class="cls-1" cx="33" cy="33" r="33"/></clipPath></defs><g id="Layer_2" data-name="Layer 2"><g id="avatars"><g class="cls-2"><rect class="cls-3" width="66" height="66"/><path class="cls-4" d="M26.94,59A2.35,2.35,0,0,0,27.47,56c-.56-.81-.53-1.7-1.38-1.2-3.23,1.91-5.21,6.63-4.72,11.17h3.4C24.21,63.8,24.45,60.67,26.94,59Z" transform="translate(0)"/><path class="cls-4" d="M42.55,54.83c-.85-.5-.82.39-1.38,1.2A2.37,2.37,0,0,0,41.7,59c2.49,1.72,2.73,4.85,2.17,7h3.4C47.76,61.46,45.78,56.74,42.55,54.83Z" transform="translate(0)"/><path class="cls-4" d="M39,52.15a4.43,4.43,0,0,0-4.65-4,4.44,4.44,0,0,0-4.66,4c-.08,1.36-5,2.89-4.85,3.9.81,4.91,2.94,6.74,9.51,6.77s8.28-.88,9.08-7.09C43.54,54.72,39.05,53.51,39,52.15Z" transform="translate(0)"/><path class="cls-5" d="M34.45,49.23c-2,0-4.77.83-4.94,2.82-.08.92,1,3.4,5.05,3.38s5-2.63,4.92-3.55C39.25,49.9,36.44,49.2,34.45,49.23Z" transform="translate(0)"/><path class="cls-6" d="M40.82,53.53a2.48,2.48,0,0,0-1.06-.28c-.62,0,.18,6.12-5.5,6.13-5.43,0-4.6-6.23-5.26-6.08a4.86,4.86,0,0,0-1.09.32c-.33.19,1.9,5.86-1.69,6.73.5,1.81,1,3.8,1.4,5.65H41.08c.4-1.9.89-3.92,1.31-5.69C39.3,59.58,41.19,53.73,40.82,53.53Z" transform="translate(0)"/><path class="cls-7" d="M42.5,59.85a1.63,1.63,0,0,1-1.08-.79c-.58-1-.55-2.83.08-5.08l0-.09a.45.45,0,0,0-.35-.54.52.52,0,0,0-.59.37c-.41,1.48-.95,4.19,0,5.83a2.54,2.54,0,0,0,1.68,1.22l.11,0a.48.48,0,0,0,.46-.37A.47.47,0,0,0,42.5,59.85Z" transform="translate(0)"/><path class="cls-7" d="M27.6,53.77l-.44.21c.62,2.25.65,4.11.08,5.08a1.65,1.65,0,0,1-1.08.79.47.47,0,0,0-.36.57.49.49,0,0,0,.47.37l.11,0a2.56,2.56,0,0,0,1.68-1.22c1-1.64.42-4.35,0-5.83Z" transform="translate(0)"/><path class="cls-7" d="M39.77,52.77h0a.47.47,0,0,0-.47.48c0,.22-.11,5.64-5,5.65h0c-4.41,0-4.74-4.67-4.77-5.61a.44.44,0,0,0-.48-.46.47.47,0,0,0-.47.48c0,.67.31,6.54,5.72,6.54h0c5.85,0,6-6.33,6-6.6A.48.48,0,0,0,39.77,52.77Z" transform="translate(0)"/><path class="cls-8" d="M52.07,15.11a4.32,4.32,0,0,1,.53-.72c.56-.64,1.1-1.16.33-2.14s-2.61-1.57-3.6-.92c.39-.94.85-2.45-.17-3.17a3.8,3.8,0,0,0-3.71.45c1.36-3.38-4.64-5.41-6.13-2.4-.59-1.73-1.64-3.14-3.7-3-1.28.07-3.46,1.23-3.67,2.63C31,4.73,30.5,3.64,28.84,3.57,27,3.5,25.13,4.89,25.4,6.88,24,6,22.29,5.27,20.76,6.19a3,3,0,0,0-1.51,3.69c-1-.42-2.46-1.12-3.47-.29s-.18,3,.61,3.85a2.24,2.24,0,0,0-2.54,1.72c-.52,2.17,1.09,4.3,1.72,6.25A72.93,72.93,0,0,1,17.52,31c.63,3.47,1.2,7.38,2.82,10.54,1.17,2.29,2.34,1.33,4.06.42,2.22-1.17,5.51-1.37,8-1.49s6.25-.33,8.62.78c1.54.73,2.36,1.32,3.94.1a9.52,9.52,0,0,0,2.6-3.6c1-2.1,1-4.2,1.17-6.46.37-4.54,1.08-9.12,4.52-12.39a4.44,4.44,0,0,0,1.19-1.44A2.08,2.08,0,0,0,52.07,15.11Z" transform="translate(0)"/><path class="cls-4" d="M31.22,14.94C23.4,16.46,17.9,27.7,19.33,38.24c1.08,7.9,7.17,16.56,16.34,15.91,9.36-.67,14-12.27,12.81-22C47.17,21.61,42.16,12.81,31.22,14.94Z" transform="translate(0)"/><path class="cls-9" d="M41.29,16.6a35.39,35.39,0,0,0-9.48-1.49c-2.85,0-5.95-.21-8.61,1-1.46.66-3.26,1.56-3.8,3.18a11.63,11.63,0,0,0-.26,4.24,22.74,22.74,0,0,0,.36,3.87,6.07,6.07,0,0,0,1.64,2.76c1-2.08,1.39-5.05,3.61-6.24,1.38-.73,5.38-1.67,7.71-.92A2.4,2.4,0,0,1,34,24.27c.63,1.44-.93,2.5-2.05,3,1.82,1.1,5,1.16,6.09-1a13.72,13.72,0,0,0,.44,1.37,16.35,16.35,0,0,0,2.43-2.42,3.61,3.61,0,0,1,2.7-1.3c2.06-.32,5.08-.95,4.21-3.86C47.14,17.75,43.32,17.21,41.29,16.6Z" transform="translate(0)"/><path class="cls-4" d="M16.6,33.85c-3.83,1.06-2.29,6.66.84,7.79a7.45,7.45,0,0,0,3.1.33l.06-.09c.46-.73-.18-4.81-.42-5.58C19.6,34.36,18.45,33.35,16.6,33.85Z" transform="translate(0)"/><path class="cls-9" d="M18,35.91c-.86-.39-3,.32-2,2,.53-1.56,1.48-.54,1.34.57-.1.75-.9.76-.1,1.71.43.52,1.3.33,1.74,0C20.32,39.37,19,36.4,18,35.91Z" transform="translate(0)"/><path class="cls-8" d="M42.58,12.77c-4.33-3.66-10-3.63-15.27-2.71a19.19,19.19,0,0,0-6,1.88c-1.59.89-2.22,3-2.95,4.56-.87,1.86,0,17.2.63,17.77a4.63,4.63,0,0,1,1,2,2.55,2.55,0,0,0,1.74.46,36.9,36.9,0,0,1-.21-7.93c.3-4.19.79-6.46,5.59-6.64,2.19-.08,8.05-.92,8.6,2.31.24,1.45-1,2.26-2.16,2.79,1.76.55,4,.45,4.55-1.72a2.42,2.42,0,0,1,.77,1.69c2.22-1.48.89-3.86,3.83-4.1,1.93-.17,4.25-.08,4.88-2.3a1.6,1.6,0,0,0,0-.21C48.38,17.38,44.72,14.59,42.58,12.77Z" transform="translate(0)"/><path class="cls-10" d="M47.93,36.62a3.54,3.54,0,0,0-2.86-1.1c-1.23,0-2.86.4-1.78,2.16.57.94,5.45,1.68,4.9-.47A2,2,0,0,0,47.93,36.62Z" transform="translate(0)"/><path class="cls-10" d="M27.73,36.27a3.67,3.67,0,0,0-3.19-.37c-1.25.29-2.8,1.15-1.25,2.65.83.81,6,.29,4.85-1.76A1.78,1.78,0,0,0,27.73,36.27Z" transform="translate(0)"/><path class="cls-11" d="M26.87,31.35c-2-.87-3.28,2.71-1.91,3.87a3,3,0,0,1,2,.17C28.31,34.69,28.37,32,26.87,31.35Z" transform="translate(0)"/><path class="cls-12" d="M36.69,38c-1.18,0-1.64-.52-2.47,0s.36,2.06,2.44,2,3-1.5,2.55-2S38,38,36.69,38Z" transform="translate(0)"/><path class="cls-13" d="M36.38,33.61c-2.21-.19-2.37,4.48-1.87,4.88,1.24,1,3.83.29,4.59-.5C39.39,37.68,38.49,33.79,36.38,33.61Z" transform="translate(0)"/><path class="cls-11" d="M46.26,31.21c-2-1.22-3.55,2.73-1.87,3.84a2.7,2.7,0,0,1,2.14,0C47.35,34.14,47.36,31.87,46.26,31.21Z" transform="translate(0)"/><path class="cls-14" d="M26.15,32c-.82.28-.2,1.87.6,1.29C27.33,32.84,26.88,31.73,26.15,32Z" transform="translate(0)"/><path class="cls-14" d="M45.46,31.64c-.81.17-.42,1.75.41,1.3C46.46,32.62,46.18,31.5,45.46,31.64Z" transform="translate(0)"/><path class="cls-15" d="M47.88,28.68c.86-.71-.1-.93-.72-.68.72-1.3-1.28-.6-1.77-.25.22-.47.46-.7-.14-.8s-1.13.38-1.5.66c.27-1-1.55.39-1.71.57a7.12,7.12,0,0,0-.49.58c-1.44,1.88,2.67,1.07,3.38,1a10.72,10.72,0,0,1,2.55.26c.62.13,1.34-.11,1.38-.83S48.42,28.46,47.88,28.68Z" transform="translate(0)"/><path class="cls-15" d="M29.28,28.18c-.16-.18-2-1.53-1.71-.57-.37-.28-1-.74-1.5-.66s-.36.33-.14.8c-.49-.35-2.49-1.05-1.77.25-.62-.25-1.58,0-.71.68-.55-.22-1-.09-1,.56s.76,1,1.38.83a10.72,10.72,0,0,1,2.55-.26c.71,0,4.83.83,3.38-1A7.12,7.12,0,0,0,29.28,28.18Z" transform="translate(0)"/><path class="cls-16" d="M42.6,40.15a1.34,1.34,0,0,0,.25.84c-2.28.08-4.56.23-6.84.27-1.51,0-3,.11-4.52.09-1.11,0-3.21.17-4-.64a2.51,2.51,0,0,0,.81-.56,6.82,6.82,0,0,0-4.06,1.91c.85-.42,2-1,2.72-.06a33.51,33.51,0,0,0,4,4.59C34,49.42,40.23,49.33,42,44.21c.15-.45.93-1.94,1.46-2.08a3.66,3.66,0,0,1,1.69.66,3.23,3.23,0,0,0-.91-1.3C43.74,41,43.11,40.59,42.6,40.15Z" transform="translate(0)"/><path class="cls-17" d="M27.6,41.47s2.5,4.8,7.67,5c3.32.11,5.52-1,6.16-2.58a4.48,4.48,0,0,1,2.13-2.38A32.57,32.57,0,0,1,27.6,41.47Z" transform="translate(0)"/><path class="cls-18" d="M29.52,41.92a2.61,2.61,0,0,0,2,2,16.82,16.82,0,0,0,7.54.44c1.77-.26,2.68-2.51,2.68-2.51A35.08,35.08,0,0,1,29.52,41.92Z" transform="translate(0)"/><path class="cls-18" d="M36.62,44.54c-2.37.06-4.34-.13-5.51-.94-.84-.57-.93,0-.75.41,0,0,.74,2,4.66,2.5s5.77-1.84,5.34-2.26S38.82,44.49,36.62,44.54Z" transform="translate(0)"/><path class="cls-19" d="M29.52,41.92a2.38,2.38,0,0,0,.45,1s8.88-.65,11,.19a4.74,4.74,0,0,0,.75-1.25A40.33,40.33,0,0,1,29.52,41.92Z" transform="translate(0)"/><path class="cls-19" d="M31.81,43.9c3.15,2,7,.41,7,.41A12.18,12.18,0,0,1,31.81,43.9Z" transform="translate(0)"/><path class="cls-20" d="M49.15,14c2.31-1.86-1.46-2.14-2.67-2,1.2-2.7-2.28-2.58-3.79-1.85.56-1.94-3.38-2.76-4.28-1.63a1.74,1.74,0,0,0-.71-2.85C35.93,5,33.88,7,32.55,7.84a6.72,6.72,0,0,0-1.78-1.3,3.2,3.2,0,0,0-2.24-.45c-1.32.44-1.34,2-1.83,3-1.26-.86-3.63-2.09-5-.65-.84.91-.7,3-.17,4-.8-.47-3.7-1.49-2.89.62-2,.3-.49,2.05.2,2.73a23.38,23.38,0,0,1,2.87,4.07c-.51-.77,1.1-4.05,1.9-4.34a2.4,2.4,0,0,0,2,2.44c1.45.11,2.22-1.24,2.83-2.27.55,2.41,3,1.24,3.68-.36a24.58,24.58,0,0,1,2.26,3.41c.34-1.18,1.46-2,1.71-3.19.88.77,3,3.13,3.7.46.82,2.62,1.25,3.87-1.14,5.49,2.8.32,4.22-1.39,4.34-3.93.13-2.72,2.05-2.28,3,0-.21-2.14,3.54-2.2,3.26.48.54-.58,2-1.7,1.94-2.6C51.21,15,49.62,13.58,49.15,14Z" transform="translate(0)"/></g></g></g></svg>