<svg xmlns="http://www.w3.org/2000/svg" xmlns:xlink="http://www.w3.org/1999/xlink" viewBox="0 0 96 96"><defs><style>.cls-1{fill:none;}.cls-2{clip-path:url(#clip-path);}.cls-3{fill:#f6e0b9;}.cls-4{fill:#9fa2a6;}.cls-5{opacity:0.1;}.cls-6{fill:#108d8e;}.cls-7{fill:#1c1c26;}.cls-8{fill:#313142;}.cls-9{fill:#854422;}.cls-10{fill:#1e1e29;}.cls-11{fill:#1f1a17;}.cls-12{fill:#9c552c;}.cls-13,.cls-14{fill:#661004;}.cls-13{opacity:0.3;}.cls-14{opacity:0.4;}.cls-15{fill:#bf6c3c;}.cls-16{fill:#e6d2c3;opacity:0.7;}.cls-17{fill:#d47b48;}.cls-18{fill:#78231f;}.cls-19{fill:#fff3e2;}.cls-20{fill:#e8dac5;}.cls-21{fill:#330500;opacity:0.2;}.cls-22{fill:#332823;}</style><clipPath id="clip-path"><circle class="cls-1" cx="48" cy="48" r="48"/></clipPath></defs><g id="Layer_2" data-name="Layer 2"><g id="Layer_4" data-name="Layer 4"><g class="cls-2"><rect class="cls-3" width="96" height="96"/><path class="cls-4" d="M60.17,79.17c-3.05-7.42-19.3-5.25-23.59-1.65s-5.48,7.94,1,14.25A37.28,37.28,0,0,0,42.64,96h8.67C55.29,91.69,62,83.55,60.17,79.17Z"/><path class="cls-5" d="M38,81.29a14.1,14.1,0,0,0,5.5,7.25L48,84.23l4.82,4.08c4.61-4.07,5.51-6.64,5.89-8.09C60,75.66,36,74.93,38,81.29Z"/><path class="cls-6" d="M51.55,84.73a3.71,3.71,0,0,0-4.25-1.9,3.9,3.9,0,0,0-3.24,3l2.34,2.36L44.07,96h9.17l-3.1-8.32Z"/><path class="cls-7" d="M67,81.79a47.55,47.55,0,0,0-8.16-5.41c.2.47.88,1.48.83,2C59.15,84,55.33,91.16,52.36,96h12C65.47,90.51,67.64,82.49,67,81.79Z"/><path class="cls-7" d="M36.46,78.26a6.46,6.46,0,0,1,.78-1.47c-3.42,1.46-9.7,4.47-10.25,5.57-.46.92,2.54,7.15,4,13.64H44.38C40.24,90.52,34.89,82.3,36.46,78.26Z"/><path class="cls-8" d="M62.12,89.94a37.72,37.72,0,0,0-2.68-4.69l4.69-2.89a21.26,21.26,0,0,0-6.55-7.46C58.37,82.81,54.37,91,51.45,96H56A82,82,0,0,0,62.12,89.94Z"/><path class="cls-8" d="M31.54,83.29l5.6,2.3a54.89,54.89,0,0,0-2.49,5.85A48.45,48.45,0,0,0,40,96h5.3c-3.06-4.5-7.2-11.85-7.2-20.18A14.93,14.93,0,0,0,31.54,83.29Z"/><path class="cls-4" d="M37.25,76.86C35,82.6,43.17,87.27,43.17,87.27l4.87-3,4.54,2.85s9-4.66,5.59-11.35C55.11,69.72,39.85,70.2,37.25,76.86Z"/><path class="cls-9" d="M44.48,68.83a6.8,6.8,0,0,0-5,6.24c-.15,2.2.2,3.47,1.43,4.7A9.89,9.89,0,0,0,44.72,82c1.07.33,2.94,1.58,3.27,1.59.13,0,.75-.54,1.76-1.06,1.48-.76,3.57-1.77,4.38-3.36,1.19-2.33,2.26-6.94,0-8.75S47.26,68.22,44.48,68.83Z"/><path class="cls-10" d="M22.07,96H32.53L28.12,81.43C24.14,83.93,22,85.51,22.07,96Z"/><path class="cls-10" d="M66.56,81.43,62.16,96H72.62C72.7,85.51,70.55,83.93,66.56,81.43Z"/><path class="cls-11" d="M76.25,27.24c4.76-3.54,1.24-10.47-5.42-8.85,2.4-4.27-2.71-9.28-7.37-4.26.39-7-7.32-7.93-10.66-3.14.93-5.76-9.06-6.34-10-.07-2.48-4-11.35-4.3-10.65,1.81-3.68-5.15-9.11-.69-7,4.9-5.89-2.81-9.75,3.76-4.66,7.43-5.42-1.5-8.67,5.75-2.05,8.32-6.21-.65-6.63,7.33-1.14,7.09-4,1.64-1.89,6.88,2.19,6.35-2.42,2.51.28,11,5.79,9.94,7.36-1.49,15.4-5.49,23-2.65,4.2,1.57,7.7,4.78,12.06,6,3.48,1,10,.11,13.06-2,2.69-1.9,4.25-7.65-.7-7.43,4.88-.45,5.6-6.65,1.13-7.57,6.39-1,7.1-6.59,2.67-8.54C81.94,34.28,81.43,25.81,76.25,27.24Z"/><path class="cls-12" d="M45.92,22.48c-12.85.87-23.9,15-22.85,30.61s11.69,26.14,26.66,26c16.56-.16,22.93-13.79,21.88-29.42S58.77,21.62,45.92,22.48Z"/><path class="cls-13" d="M69.11,48.14c-.55-.29-4.47-.77-3.5.7a10.21,10.21,0,0,0,2.85,1.45c.69.14.82-.12.33-.61S67,49,66.65,48.37C67.21,48.31,68.84,49,69.11,48.14Z"/><path class="cls-13" d="M35.33,50.93c.34.86,1.91,0,2.47,0-.27.64-1.6,1-2,1.47s-.31.77.38.59a10.36,10.36,0,0,0,2.73-1.67C39.73,49.82,35.86,50.6,35.33,50.93Z"/><path class="cls-11" d="M41.11,46.32c-2.87-1.26-4.71,3.83-2.76,5.51a4.18,4.18,0,0,1,2.85.26C43.13,51.1,43.24,47.25,41.11,46.32Z"/><path class="cls-14" d="M53.32,53.41c-1.6.07-2.28-.57-3.37.08s.44,3.09,3.28,2.89,4.15-2.55,3.52-3.19S55.1,53.33,53.32,53.41Z"/><path class="cls-15" d="M51.89,44.8c-1.46.12-2.43,2.18-2.61,4.84s-.1,3.9.6,4.42a5.69,5.69,0,0,0,6.72-.55C58.59,51.47,55.37,44.54,51.89,44.8Z"/><path class="cls-11" d="M65.18,44.59c-3.06-1.34-4.86,5.07-1.56,5.59a3.74,3.74,0,0,1,2.44-.91C67,47.87,66.82,45.31,65.18,44.59Z"/><path class="cls-16" d="M39.63,47.37c-1.17.38-.3,2.66.85,1.84C41.3,48.62,40.67,47,39.63,47.37Z"/><path class="cls-16" d="M63.79,45.77c-1.09.36-.28,2.48.79,1.72C65.35,46.94,64.76,45.45,63.79,45.77Z"/><path class="cls-12" d="M20.85,49.44c-6.37,1.59-4,9.58,1.09,11.12a14,14,0,0,0,5.11.43l.1-.14c.78-1.05-.43-6.37-.79-7.47C25.46,50.62,23.91,48.68,20.85,49.44Z"/><path class="cls-13" d="M59,30.79a70.21,70.21,0,0,0-18.58-1.14c-5,.49-11.29,2.64-12.46,8.18-.31,1.5-1.07,3.84-1.73,6.4C25,49.09,24.07,54.75,27.14,57c2.69,2,5.52-1.32,3.8-3.88,2.25-1,3.13-4.44.52-5.52a3.2,3.2,0,0,0,1-4.93,3.2,3.2,0,0,0,2.43-4,6,6,0,0,0,7.51-.82c1.51,2.62,5.06,1.59,7.18.08,1.32,3.17,5.85.77,7.66-.84,1.27,2.2,4.34,1.11,6-.3,2.76,1,3.58-1.09,2.51-3.24S61.16,31.15,59,30.79Z"/><path class="cls-13" d="M24.21,52.43c-1.63-.78-6-.26-4.39,2.42,1.39-2.14,3.06-.43,2.53,1.14-.35,1.06-1.93.88-.56,2.45.74.85,2.5.78,3.43.49C28.16,58,26.18,53.37,24.21,52.43Z"/><path class="cls-11" d="M52.42,19.3c-6.06-1.11-12.77-.92-18.36,1.9a15.76,15.76,0,0,0-6,5.08C24.76,31.1,20.54,39,22.26,44.86c.39,1.31.18,3.17.65,4.49.94,2.67.42,8.67,4.42,9.12,3.69.42,3.83-3.19,1.81-5.36,3.87.21,2.63-4.41,0-5.4,3.35-.75,2.94-4.82,1.06-6.88,2.83-.38,2.18-3.77,1.22-5.62,2.75,2.14,6.54,3.58,9.15.34,1.33,3.38,6.81,2.13,8.83-.1.88,3,5.39,2.61,6.39-.19,1.65,2.36,6.49,2.37,7.09-.77a3,3,0,0,0,4.66-3.27c3.8.38,2.15-4.09.7-5.79C65.1,21.76,57,20.15,52.42,19.3Z"/><path class="cls-15" d="M42.41,54.25c-1.56-1.22-3.93-.76-5.56-.22-2.13.7-4.69,2.45-1.82,4.92,1.53,1.32,10.36-.33,8.17-3.83A3.7,3.7,0,0,0,42.41,54.25Z"/><path class="cls-15" d="M65,51.54A4.5,4.5,0,0,0,62.64,53c-.9,1.12-.87,2.59,1.06,3.51s5.86,1.08,6.83-1.36C71.85,51.82,67.17,51,65,51.54Z"/><path class="cls-14" d="M51.87,72.62c-1.89.45-2.57,1.43-2.69,2.58,0-.2,1-1.33,3.86-1.67,1.68-.2,4.21.24,5.05,1C58.32,72.64,54.17,72.06,51.87,72.62Z"/><path class="cls-11" d="M63.43,38c-1.79.21-3.83,1.63-5.62,1.18a3.43,3.43,0,0,0,3.13,3.14,6.05,6.05,0,0,0,3.61-.79A10.39,10.39,0,0,1,66,41a7.44,7.44,0,0,1,2.49,0,2.7,2.7,0,0,0-.3-.88A4.45,4.45,0,0,0,63.43,38Z"/><path class="cls-11" d="M43.06,40.07c-1.12-.2-2.27-.78-3.36-.89C37,38.9,34.15,42.57,35.91,45c.35-.32.66-.72,1-1.07,1.72-1.82,4.21-.44,6.27-.08,2.76.48,4.08-1.25,4-3.88A8,8,0,0,1,43.06,40.07Z"/><path class="cls-17" d="M63.28,58.51c-1.41-.18-3,.84-4.33,1.07a48.35,48.35,0,0,1-12.77.59c-1.9-.18-7.51-3.27-5.83.91C43.52,69,46.49,72.15,53.1,71.88c9-.36,9.33-6.13,10.27-9.48C63.88,60.58,66.16,58.87,63.28,58.51Z"/><path class="cls-18" d="M41.6,60.74s3.58,8.15,11.91,7.49c5.65-.44,7.91-3.22,8.54-5.62a5,5,0,0,1,2.11-3.26A33,33,0,0,1,41.6,60.74Z"/><path class="cls-19" d="M44.4,61.5A4.42,4.42,0,0,0,47.31,65a17.56,17.56,0,0,0,10.81.1c2.49-.73,3.69-4.76,3.69-4.76S54.75,63,44.4,61.5Z"/><path class="cls-19" d="M55.16,65.25a25.3,25.3,0,0,1-8.39-.79c-1.43-.5-1.39.25-1.09.91,0,0,.64,2.69,7.19,3,5.72.24,8-3.26,7.28-4S58.73,65.08,55.16,65.25Z"/><path class="cls-20" d="M44.39,61.46a3.59,3.59,0,0,0,1.08,2.35s12-1.65,15.05-.7a8.54,8.54,0,0,0,1.29-2.74S52.92,63.05,44.39,61.46Z"/><path class="cls-20" d="M47.51,64.45c5.8,2.42,11.85-.18,11.85-.18A25.94,25.94,0,0,1,47.51,64.45Z"/><path class="cls-21" d="M59.75,56.27C54.4,56.94,49,57.91,43.64,58c-1.37,0-4.06-.11-4.94,1.32l0,.06c-1.77,3.43,3.45,3.35,5.16,2.23,1.49,2.76,8,2,10.45,1.77,2.94-.33,5.54-1.43,8.25-2.16,1.62-.43,5.28.42,5.24-2.18C67.7,55.07,62,56,59.75,56.27Z"/><path class="cls-11" d="M64.28,54.69c-2.63-.62-6.35-.92-9.09.06-3.56,1.27-6.67-.5-10.36.17-11.72,2.13-4.13,8.42-.76,5.71,0,3.22,16.49,2.43,18.88-1.22C67.63,62,70.59,56.18,64.28,54.69Z"/><path class="cls-22" d="M60.86,55.88a9,9,0,0,0-5.83.35,6.36,6.36,0,0,1-5.73.2c-2.75-1.18-9.8,1.12-8.95,2.19s4.64.46,4.64.46a2.06,2.06,0,0,0,1.28,1.8c1.19.35,3.37-1.41,3.37-1.41s-.07,1.73,1.54,1.8,2.94-2,2.94-2,1,1.82,2.64,1.51A1.69,1.69,0,0,0,58.18,59s1.94,1,3.13.59.49-2.18.49-2.18a3.52,3.52,0,0,0,3.13-.22C66.7,56.25,63.06,56.3,60.86,55.88Z"/><path class="cls-22" d="M68.51,22.84c4-5.16-2.93-9.18-5.72-3.08,2.14-5.17-3.71-8.32-6.92-3.43-2.25-4.81-7.95-5.21-9.84-.47-2.78-3.69-9.76-5.06-8.4,1.13-3.87-4.48-13.67-.7-8.47,3.22-5.26-2.86-10.16,3-3.44,3.94-6.57-.13-6.53,9.6,2.11,4.91-3.69,4.35,3.24,6.06,8.4,2.9-1.88,4.89,5.09,1.78,6.69.31a3.61,3.61,0,0,0,.56,1.52c1.26,1.78,4.07.79,5.16-1.38,2.34,3,6.49,2.34,6.32-1.83,1.69,1.83,5.67,4.22,6.57.51,2.48,2.33,6.35,1.72,6.35-1.86C73.63,30.89,76.6,23.16,68.51,22.84Z"/></g></g></g></svg>