<svg xmlns="http://www.w3.org/2000/svg" xmlns:xlink="http://www.w3.org/1999/xlink" viewBox="0 0 96 96"><defs><style>.cls-1{fill:none;}.cls-2{clip-path:url(#clip-path);}.cls-3{fill:#fe6152;}.cls-4{fill:#d9d9d9;}.cls-5{fill:#85b428;}.cls-6{fill:#45362e;}.cls-7{fill:#f2f2f2;}.cls-8{fill:#c9beb7;}.cls-9{fill:#9c552c;}.cls-10,.cls-13{fill:#66241b;}.cls-10,.cls-12,.cls-16,.cls-22{opacity:0.7;}.cls-11{fill:#66261e;}.cls-11,.cls-13{opacity:0.4;}.cls-12{fill:#f0eae6;}.cls-14{fill:#d17642;}.cls-15{fill:#261b18;}.cls-16{fill:#f0ded1;}.cls-17{opacity:0.8;}.cls-18{fill:#541d15;}.cls-19{fill:#212126;}.cls-20,.cls-21,.cls-22{fill:#fff;}.cls-20{opacity:0.3;}</style><clipPath id="clip-path" transform="translate(0)"><circle class="cls-1" cx="48" cy="48" r="48"/></clipPath></defs><g id="Layer_2" data-name="Layer 2"><g id="Layer_4" data-name="Layer 4"><g class="cls-2"><rect class="cls-3" width="96" height="96"/><path class="cls-4" d="M62.14,77.25l-6.6,5.2C56.69,83.9,59.27,88,61.21,96H70C68.55,86.88,66.31,79.87,62.14,77.25Z" transform="translate(0)"/><path class="cls-4" d="M34.55,77.25c-4.17,2.62-6.41,9.63-7.8,18.75h8.74c1.93-8,4.51-12.1,5.66-13.55Z" transform="translate(0)"/><path class="cls-5" d="M62.26,86a14.11,14.11,0,0,1,1.85-7.21c.26-.45-1.66-4.21-15.77-4.15C34.64,74.72,33,78.6,33.16,79a21.15,21.15,0,0,1,1.42,7c0,4.08-.09,7.18,0,9.92H62.2C62.32,93.29,62.25,90,62.26,86Z" transform="translate(0)"/><path class="cls-6" d="M59.67,85.94c.27-4.26.49-7.63.14-9.7a1.14,1.14,0,1,0-2.24.38c.3,1.81.08,5.22-.17,9.18-.2,3-.42,6.53-.48,10.2H59.2C59.25,92.46,59.46,89.05,59.67,85.94Z" transform="translate(0)"/><polygon class="cls-7" points="56.74 90.14 56.77 91.28 59.64 91.22 59.62 90.08 56.74 90.14"/><path class="cls-6" d="M39,76.62a1.14,1.14,0,1,0-2.25-.38c-.35,2.07-.13,5.43.15,9.69.2,3.11.41,6.52.46,10.07h2.28c-.05-3.67-.28-7.21-.47-10.21C38.94,81.84,38.72,78.43,39,76.62Z" transform="translate(0)"/><polygon class="cls-7" points="36.95 91.22 39.83 91.28 39.85 90.14 36.97 90.08 36.95 91.22"/><path class="cls-8" d="M71.05,22.19c1-1.61,2-2.43.21-3.87a5.84,5.84,0,0,0-5.51-.84c1-4.08-4.66-5.06-6.86-2.76-.64-4.52-5-5.13-7.62-1.88-1.29-3.42-6.19-4.09-7.06,0-3-3.81-8.37-1.81-9.34,2.57-2.4-3.1-8.12-1.79-7.78,2.54a4.29,4.29,0,0,0-5.18,1.3c-1.36,1.45-1,4.47-.1,6-5.18-.34-5,4.33-2.44,6.9-4,.25-5.78,5.93-.94,6.37-2.63.93-2.95,4.46.24,5-3.24,1.16-1.86,4,1,4.64-1,2.88-.36,4,1.88,5.79A29.32,29.32,0,0,1,25,57.66c3.12,3.48,5.34,7.64,8.37,11.11s6.27-2.41,8.72-3.81A17.36,17.36,0,0,1,53,62.65c3.3.49,5.63,3.95,9,4,2,0,3.34-1.68,4.19-3.32,1-1.85.65-3.29,1-5.1s2-2.18,3-3.37c.45-.52,1.77-3.91,0-3.89,3,0,3-2.54,2-4.46a5.5,5.5,0,0,0-.74-1.11c3.28-.49,2-3,.84-4.86,1.14-.75,2-.85,1.85-2.36a3.9,3.9,0,0,0-2.36-2.9c1.15-.84,2.58-.87,2.72-2.48s-1.25-3-2.28-3.83C77.24,27.86,75,22.68,71.05,22.19Z" transform="translate(0)"/><path class="cls-9" d="M44.39,20.06C32.29,22.43,23.76,39.82,26,56.15c1.67,12.22,11.1,25.64,25.3,24.62,14.49-1,21.7-19,19.83-34C69.07,30.38,61.33,16.76,44.39,20.06Z" transform="translate(0)"/><path class="cls-9" d="M21.76,49.35c-5.94,1.63-3.56,10.31,1.29,12a11.73,11.73,0,0,0,4.8.52l.1-.15c.71-1.13-.28-7.45-.65-8.64C26.39,50.13,24.61,48.56,21.76,49.35Z" transform="translate(0)"/><path class="cls-10" d="M23.84,52.54c-1.33-.62-4.66.49-3.1,3.1.83-2.42,2.3-.83,2.08.89-.15,1.15-1.39,1.17-.16,2.65.67.8,2,.5,2.7.07C27.52,57.89,25.47,53.29,23.84,52.54Z" transform="translate(0)"/><path class="cls-11" d="M36.81,38.36c9.49-.08,17-.45,28.17-1.2C55.64,35.67,42.42,37.08,36.81,38.36Z" transform="translate(0)"/><path class="cls-11" d="M38,35.4c8.33-.06,14.9-.39,24.74-1C54.54,33.05,42.93,34.28,38,35.4Z" transform="translate(0)"/><path class="cls-8" d="M71.2,62.35c1.69-.71,1-3.77-.41-4-9.34,18.91-27.15,16.4-34.39,8.31-4-4.52-2.36-8.13-5.28-7.16-5.88,2-8.8,6-3.9,7.15-2,1.52-1.06,4.07,1.54,3.66-1.06,2.24-.54,5.49,2.8,4.84-1.31,2.75.85,4.82,3.79,3.32-.14,2.83,3.08,2.49,4.61.94.54,2.7,3.37,3,5.68,1.91.18,2.88,4.71,2.6,6.06.74,1.83,2.18,7.42,2.08,7.4-1.38,2.08,1.41,8.1-.23,6-3.33,2.74,2.07,6.1-4.1,3.05-5.85,2.87.48,4.13-2.56,1.75-4.38C72.49,67.24,73.89,63.17,71.2,62.35Z" transform="translate(0)"/><path class="cls-12" d="M37,69.15A31.43,31.43,0,0,1,32.12,63c-1.46,1.36-5.13,6.19-.67,6.11-.86,1.9-1.07,5,2,3.87-.33.92-.77,2.49-.2,3.35,1,1.48,2.65.09,3.8-.46.4,3.37,2.55,1.85,4.93,1-.79,3.27,3.06,3,4.91,1.49,0,2.79,5.53,2.9,6.42.86,1.29,2.8,5,.38,5.85-1.32,2.51,1.87,6.34.17,4.76-2.83,3.67,1.32,4.06-2,2.84-4.34,3.79-1,2.5-4.89,1.49-6C61.89,76.36,45.26,77.18,37,69.15Z" transform="translate(0)"/><path class="cls-13" d="M58.55,22.66a54.39,54.39,0,0,0-14.67-2.31c-4.42-.07-9.22-.32-13.33,1.54-2.27,1-5.05,2.43-5.89,4.93-1,3.09-.62,6.58-.13,9.73.25,1.59,1.47,5.93,4,5.29,1.42-.37,1.32-4.67,1.84-4.69A3.75,3.75,0,0,0,34.11,33c1.56.05,3.56-.56,3.85-2.3a4,4,0,0,0,2.62,1h.19c1.77,0,2-1.12,3.2-1.58,1.62-.64,4.37,1.19,5.46-1.23,1.88,1.19,4.26,2,6,0,1.21,1.85,4.69,3,6.48,1.29,1.88,1.83,7.38-.24,5.78-3.22C66.34,24.46,61,23.39,58.55,22.66Z" transform="translate(0)"/><path class="cls-8" d="M52.83,15.15a41.27,41.27,0,0,0-12.45-.38c-6.85.82-15.12,4.07-17.28,11.33-1.34,4.46-.64,9.63-.3,14.19.17,2.3-.59,5,0,7.21.48,1.88,2.35,2.57,3.7.88.89-1.13,4.1-13.1,3.22-13.18,2.47.22,3.6-1.88,3.49-4.05,2,.48,4.43.09,5.14-2.09a5,5,0,0,0,3.24.8c1.14-.21,1.55-1.54,2.18-1.72.9-.26,2.32.91,3.41.71s1.76-1.08,2.39-2.1c1.65,2.6,5.42,2,7.36.19a3.91,3.91,0,0,0,6,1.91c-.93.61,1.35,2.52,2.53,3.21a2.21,2.21,0,0,0,.56.26c1.62.19,2.49-1,3.23-2.33,1.82-3.23.39-6.59-1.93-9.18C64.3,17.51,57,16,52.83,15.15Z" transform="translate(0)"/><path class="cls-12" d="M69.12,24c.67-1,1.13-2.73,0-3.64s-4.22-.53-5,.49c.38-1.45.2-3.8-1.3-4.63-1.3-.72-3,1.55-3.62,2.59a7.12,7.12,0,0,0-2.91-4.88C54.1,12.52,53,15.15,52.1,16.68a4.78,4.78,0,0,0-3.68-3.23c-1.92-.32-2.76,2.13-3.49,3.58-1.43-1.36-2.21-3.37-4.46-3.37a3.13,3.13,0,0,0-3.09,1.5c-.6,1.12-.18,2.34-.62,3.47-1.78-.88-2.84-2.39-5-2.24-2.6.19-2.62,2.15-2.73,4.28-5.71-2.38-7.53,2.72-5.05,6.07-2.7.41-3.12,6.1,0,6.28-2.13,1.1-2.7,3.21-.09,4.33,2.94,1.27,3.69-2.46,2.93-4.57,2,.17,2.3-1.55,2.27-3.13,1.05.32,1.56.86,2.67.38s1.18-1.3,1.3-2.5c1,.49,1.93,1.46,3.15.9.89-.41,1.35-1.74,1.52-2.65a3.05,3.05,0,0,0,2.71,1.43c1.35-.17,1.66-1,2.16-2a3.76,3.76,0,0,0,3.53,1c1.57-.43,1.86-1.3,2.41-2.7,2.13,1.65,6.17,3.3,7.86,0,1.54,2.16,5.34,4.83,7.66,2,1.61,1.87,3.08,4.36,6,3.37C73.28,27.8,72.37,24.06,69.12,24Z" transform="translate(0)"/><path class="cls-10" d="M31.7,50.1c.19,1,2.41.24,3.12.32-.53.69-2.31.9-3,1.41s-.6.83.32.7A17,17,0,0,0,36.07,51C37.58,49.36,32.46,49.8,31.7,50.1Z" transform="translate(0)"/><path class="cls-10" d="M66.46,50A14.07,14.07,0,0,0,70,51.51c.83.12.94-.17.29-.71s-2.22-.71-2.69-1.4c.63-.08,3.15.67,3.32-.33C70.22,48.77,65.1,48.35,66.46,50Z" transform="translate(0)"/><path class="cls-14" d="M69.66,53.19c-1.11-1.39-3.28-1.48-4.82-1.34-2,.18-4.63,1.19-2.62,4,1.07,1.47,9.15,1.83,8-1.69A3,3,0,0,0,69.66,53.19Z" transform="translate(0)"/><path class="cls-14" d="M40.85,53.63c-1.2-1.21-3.32-1.14-4.81-.9-1.93.31-5.28,2.18-2.48,4.1,2,1.38,9.32.82,7.86-2.37A3,3,0,0,0,40.85,53.63Z" transform="translate(0)"/><path class="cls-15" d="M39.72,46c-4.32-1.17-7,3.66-4.1,5.24a9.52,9.52,0,0,1,4.29.23C42.81,50.5,42.94,46.86,39.72,46Z" transform="translate(0)"/><path class="cls-10" d="M52.29,55.81c-1.82,0-3.42-.8-5.13-.05s.25,3.19,5.09,3.07,6.15-2.32,5.25-3.14S54.31,55.79,52.29,55.81Z" transform="translate(0)"/><path class="cls-14" d="M52.18,47c-3.42-.3-6.12,6.35-4.66,8.52,1,1.53,8.56,1.48,9.75-.31C57.7,54.56,55.45,47.28,52.18,47Z" transform="translate(0)"/><path class="cls-16" d="M38.18,46.83c-1.75.37-.42,2.52,1.29,1.74C40.71,48,39.74,46.5,38.18,46.83Z" transform="translate(0)"/><path class="cls-15" d="M66.36,45.09c-4.45-.58-6.5,4.57-3.37,5.74a9.62,9.62,0,0,1,4.28-.35C70,49.16,69.66,45.53,66.36,45.09Z" transform="translate(0)"/><path class="cls-16" d="M64.94,46.13c-1.69.61-.08,2.56,1.52,1.56C67.61,47,66.45,45.6,64.94,46.13Z" transform="translate(0)"/><g class="cls-17"><path class="cls-18" d="M68.08,59.65a3.31,3.31,0,0,1-4.46-1.52A2.52,2.52,0,0,0,63.76,61c-1.78,4.08-6.29,7.31-12.1,7.63-6,.34-11.27-2.47-13.37-7.08a2.73,2.73,0,0,0,.47-2.78c-1.09,1.72-3.3,2.37-4.69,1.57a2.59,2.59,0,0,0,2.25,2c2.42,5.34,8.44,8.56,15.31,8.17l.56,0c6.42-.52,11.43-4.18,13.48-8.82A3.24,3.24,0,0,0,68.08,59.65Z" transform="translate(0)"/></g><path class="cls-8" d="M40.45,39.4c-3.82-.5-9.89.83-9.31,2.84s2.72.39,5.63.46c3.09.06,5.54.93,6.82,0C45.72,41.17,43.62,39.82,40.45,39.4Z" transform="translate(0)"/><path class="cls-8" d="M62.7,39.37c-2.83.4-4.81,1.71-3.1,3.23,1,.9,3.27,0,6,0s4.29,1.53,5-.43S66.11,38.89,62.7,39.37Z" transform="translate(0)"/><path class="cls-19" d="M56.05,44.24c-1.82,2.13-.9,9.22.29,11.54s13.71,2.57,16.74,1.45,5.48-9.35,3.33-12.64S58.71,41.12,56.05,44.24ZM72.39,55.67c-2.28.79-13.46.57-14.52-.94s-1.44-7.89-.15-9.33c1.9-2.11,15-1.81,16.89.33S74.65,54.87,72.39,55.67Z" transform="translate(0)"/><path class="cls-19" d="M25.67,44.91c-2.3,2.22.07,9.5,2,11.73s16.44,1.3,19.35,0,2.92-9.2.45-12.35S29.05,41.65,25.67,44.91ZM45.82,55.29c-2.18.86-14.74,1.51-16.4.12s-3.53-7.82-1.91-9.27c2.38-2.13,16.25-2.65,18.35-.68S48,54.42,45.82,55.29Z" transform="translate(0)"/><path class="cls-19" d="M49.1,48.51c-.31.16-1.62,2-.69,2.43.22.12,2.94-2.28,7.13-.57.53.21,1,.16.86-.57C55.73,47.07,51,47.57,49.1,48.51Z" transform="translate(0)"/><path class="cls-20" d="M65.54,44.52c-.84.22-6.63,1.32-5.54,4,.71,1.79,14.15,3,15.06,0C76.91,42.53,67.2,44.08,65.54,44.52Z" transform="translate(0)"/><path class="cls-20" d="M44.89,44.51c-2.2-.69-6.85-.32-9.54.14-1,.16-5.39.89-3.88,3.78s12.69,3.39,14.74.94A3,3,0,0,0,44.89,44.51Z" transform="translate(0)"/><path class="cls-21" d="M66.48,45C65,45,64,45.35,64.35,46.09c.61,1.46,9.08,1.8,9.77.85S69.58,44.87,66.48,45Z" transform="translate(0)"/><path class="cls-22" d="M60,52.84c-.89-.12-1.54,0-1.43.66.22,1.22,5.4,2.39,5.93,1.71S61.87,53.08,60,52.84Z" transform="translate(0)"/><path class="cls-21" d="M38.74,44.72c-1.42.07-2.39.38-2.07,1.06.63,1.32,8.95,1.5,9.61.61S41.79,44.57,38.74,44.72Z" transform="translate(0)"/><path class="cls-22" d="M30.26,53.18c-.89-.1-1.51,0-1.39.62.24,1.12,5.34,2.11,5.84,1.47S32.15,53.36,30.26,53.18Z" transform="translate(0)"/></g></g></g></svg>