<svg xmlns="http://www.w3.org/2000/svg" xmlns:xlink="http://www.w3.org/1999/xlink" viewBox="0 0 96 96"><defs><style>.cls-1{fill:none;}.cls-2{clip-path:url(#clip-path);}.cls-3{fill:#ffe477;}.cls-4{fill:#1e1e29;}.cls-5{fill:#e8e8e8;}.cls-6{fill:#ed671a;}.cls-7{fill:#313142;}.cls-8{opacity:0.1;}.cls-9{fill:#f5f5f5;}.cls-10{fill:#854422;}.cls-11{fill:#261b18;}.cls-12{fill:#9c552c;}.cls-13,.cls-14{fill:#66241b;}.cls-13{opacity:0.4;}.cls-14,.cls-18{opacity:0.7;}.cls-15{fill:#45362e;}.cls-16{fill:#1f1a17;}.cls-17{fill:#bf6c3c;}.cls-18{fill:#e6d2c3;}.cls-19{fill:#d47b48;}.cls-20{fill:#78231f;}.cls-21{fill:#fff9f0;}.cls-22{fill:#e8dac5;}</style><clipPath id="clip-path"><circle class="cls-1" cx="48" cy="48" r="48"/></clipPath></defs><g id="Layer_2" data-name="Layer 2"><g id="Layer_4" data-name="Layer 4"><g class="cls-2"><rect class="cls-3" width="96" height="96"/><path class="cls-4" d="M22.63,96h11.2l1.48-18.63C25.49,80.27,23.46,81.38,22.63,96Z"/><path class="cls-4" d="M61.45,77.37,62.92,96h11.2C73.29,81.38,71.26,80.27,61.45,77.37Z"/><path class="cls-5" d="M60.67,78.77c-3.1-7.57-19.58-5.36-23.94-1.68s-5.56,8.08,1,14.53A37.47,37.47,0,0,0,43,96h8.63C55.64,91.62,62.5,83.26,60.67,78.77Z"/><path class="cls-6" d="M51.92,84.43a3.75,3.75,0,0,0-4.31-1.92,4,4,0,0,0-3.29,3l2.37,2.41L44.31,96h9.35l-3.17-8.55Z"/><path class="cls-4" d="M36.61,77.84a6.43,6.43,0,0,1,.79-1.49c-3.47,1.48-6.79,3.77-7.67,7-.78,2.8.58,8.06,1.51,12.69H47.6C43.88,92.5,34.58,83.07,36.61,77.84Z"/><path class="cls-4" d="M63.61,79.05a12.42,12.42,0,0,0-3.67-2.59,3,3,0,0,1,.22,1.47c-.69,7.48-7,15.07-9.77,18.07H63.94c0-.19.06-.4.09-.58C65.14,89.43,68.26,84,63.61,79.05Z"/><path class="cls-7" d="M63.53,90.13a37.66,37.66,0,0,0-2.89-4.63l5-2.86a21.83,21.83,0,0,0-7.06-7.38c1,9.72-5.57,17.67-8.28,20.74h2.57c.83-.6,1.73-1.22,2.7-1.79C59.31,92.05,63.61,90.53,63.53,90.13Z"/><path class="cls-7" d="M37.65,76.17s-5.11,2.41-7.06,7.4l6,2.26a53,53,0,0,0-2.68,5.79c0,.5,4.51.33,10.16,3.26A15.86,15.86,0,0,1,45.92,96h1.93C44.88,93.39,37.65,86.64,37.65,76.17Z"/><path class="cls-8" d="M53.78,78.22c-3.39-1.79-17.15-2.24-15.6,2.7a14.36,14.36,0,0,0,5.58,7.41l4.59-4.4,4.89,4.16a20.85,20.85,0,0,0,6-8.25S57.16,80,53.78,78.22Z"/><path class="cls-9" d="M37.41,76.41c-2.28,5.85,6,10.62,6,10.62l4.93-3.1L53,86.84s9.12-4.76,5.67-11.58C55.53,69.13,40.05,69.62,37.41,76.41Z"/><path class="cls-10" d="M44.75,68.23a6.92,6.92,0,0,0-5.11,6.36c-.15,2.24.2,3.54,1.45,4.79A9.93,9.93,0,0,0,45,81.63c1.08.33,3,1.61,3.32,1.62.13,0,.76-.55,1.78-1.08,1.5-.77,3.62-1.8,4.45-3.42,1.21-2.37,2.28-7.08,0-8.92S47.57,67.61,44.75,68.23Z"/><path class="cls-11" d="M68.71,45.63c.15-7.16-.75-9.75-.52-12.65C69.6,15.42,61.6,9.87,41.7,12.26,19.06,15,16.24,25.72,19,45c1.11,7.64,4.44,13.36,7.69,12.54,6.34-1.6,12.55-3.68,18.82-5.51C51.4,50.3,58,51.17,64,51.34,68.79,51.47,68.63,49.47,68.71,45.63Z"/><path class="cls-12" d="M27.42,57c2,11.2,11.17,23.21,24.22,21.75,13.32-1.48,19.3-18.31,17-32.1C66.17,31.67,58.53,19.4,43,23.07,32,25.69,24.77,42,27.42,57Z"/><path class="cls-12" d="M24.91,61.94a10.84,10.84,0,0,0,4.45.31,1,1,0,0,1,.08-.14c.61-1.06-.77-6.34-1.15-7.42-.95-2.73-2.42-4.63-5-3.8C17.86,52.62,20.38,60.52,24.91,61.94Z"/><path class="cls-13" d="M67.24,40.28c-1.24-4.35-3.78-5.78-9-5-8.37,1.19-22.26,2.13-26.11,1.2.28,4.31-3.11,7-4.39,11.13-.7,2.3-1.14-8.18-1.14-9.55,0-3.61,0-8.5,2.79-11.24,3.43-3.4,10.09-3.41,14.55-3.51a51.5,51.5,0,0,1,18.81,3.17C67,28,67.77,36.41,67.24,40.28Z"/><path class="cls-14" d="M27,59.89c1.94-1.34-.12-5.5-1.64-6.14-1.26-.51-4.29.63-2.75,3,.67-2.26,2.09-.85,1.95.74-.1,1.07-1.24,1.13-.05,2.44C25.11,60.63,26.34,60.31,27,59.89Z"/><path class="cls-11" d="M65.48,33.54c-13.6-1-28.73,2.52-34.54,1.84.46,3.55-.77,5.46-1.56,8.13C28,48.31,29,53.33,31.06,55.1a5.14,5.14,0,0,1-3,.1,14,14,0,0,1-2.56-6.34C25.28,46,16.3,25.24,38.79,19.57,66.14,12.67,71.28,34,65.48,33.54Z"/><path class="cls-15" d="M49.14,20.42c-.14,3.57-21.71,3.39-23,3.27-4.78-.43-2.46-2.7,1-5.19,5.67-4.07,21.25-5.58,28.47-4.43,3,.48,7.71,1.95,7.69,4.15,0,2.43-4.6,2.3-7.31,1.32C56.08,22,51.58,22.51,49.14,20.42Z"/><path class="cls-14" d="M38.35,49.59c1.52-1.28-3.08-1.44-3.79-1.26.07.91,2.12.48,2.74.63-.54.56-2.14.55-2.8.92s-.63.68.2.67A15.08,15.08,0,0,0,38.35,49.59Z"/><path class="cls-14" d="M63.31,47.85C62.1,46.62,66,46.33,66.53,46.5c-.09.9-1.79.53-2.31.69.42.54,1.77.49,2.3.84s.49.66-.21.66A10.44,10.44,0,0,1,63.31,47.85Z"/><path class="cls-16" d="M41.3,50.44A10.34,10.34,0,0,0,37.64,50C35,48.76,37,45.57,40.71,46.64,43.51,47.44,43.69,50,41.3,50.44Z"/><path class="cls-14" d="M55.77,52.26c.7.51-.55,2.6-3.52,2.92s-4.76-1.67-3.65-2.28,1.87-.11,3.56-.25C54,52.47,55,51.67,55.77,52.26Z"/><path class="cls-17" d="M55.8,52.46c.44-.39-.27-1.37-.53-1.69-.66-.83-1.48-.8-2.57-1.12.37.11,2-1,2-1.35.1-.68-2.11-.54-2.69-.49a.46.46,0,0,0,0-.83c-.44-.33-1.46-.08-1.94.06-1.38.42-1.15,1-.12,1.49-.52.07-2,0-2.17.57s1.26.9,1.74,1.12c-.41.54-1.05.63-1.25,1.36-.15.54-.1,1.48.5,1.79C50.8,54.41,54.71,53.42,55.8,52.46Z"/><path class="cls-16" d="M62.9,44.66c2,.46,2.31,2.37,1.1,3.46a6.73,6.73,0,0,0-3,.8C56.92,48.68,59.12,43.81,62.9,44.66Z"/><path class="cls-18" d="M40.71,47.3c1-.17,1.68.9.9,1.24C40.53,49,39.58,47.5,40.71,47.3Z"/><path class="cls-18" d="M62.8,45.25c1-.21,1.53.81.75,1.17C62.47,46.93,61.7,45.48,62.8,45.25Z"/><path class="cls-19" d="M63.59,56.88a6.21,6.21,0,0,0-2.31-1.27c-3.81-.94-10-.8-15.38.55C37.22,58.36,35,67.38,40.69,72.38c4.75,4.18,16.83,6.35,20.17-2.4,1.38-3.62.87-12.12.71-12.08C62,57.79,63.71,57,63.59,56.88Z"/><path class="cls-11" d="M64.34,41.43c.67-.26,1.37-.94,1.11-1.07-1-.5-2.51-1.23-5.38.84a19.74,19.74,0,0,0-3.16,2.62c-.32,1.59,1.2,4.35,2.21,2.64C60.7,43.77,62.52,42.12,64.34,41.43Z"/><path class="cls-11" d="M36.57,45.29a6.2,6.2,0,0,1-2.5-4c1.9.79,1.9,2.08,5.54,3.06,2.49.67,5.08,0,5.09.18a2.77,2.77,0,0,1-2.86,2.66A9.28,9.28,0,0,1,36.57,45.29Z"/><path class="cls-20" d="M40.73,60.19C45.88,57,57,55.72,61.88,57.11a2.25,2.25,0,0,1-1.16.32,29.59,29.59,0,0,1,.35,7.74c-.23,5.09-2.75,7.64-7.23,8.2C49.12,74,43.24,73.14,40,69,38.19,66.72,38.66,61.49,40.73,60.19Z"/><path class="cls-21" d="M40.73,60.19a3.32,3.32,0,0,0,3.67,2.25,64.32,64.32,0,0,1,12.29-1.3c2.66,0,1.94-4.54,1.94-4.54S48,55.57,40.73,60.19Z"/><path class="cls-21" d="M43,71.15c-.31-.6.2-1.34,1.63-.92a26.89,26.89,0,0,0,8.36.56c3.55-.21,4.61-1.23,5.29-.61s-1.86,3.6-7.56,3.5C44.24,73.56,43,71.15,43,71.15Z"/><path class="cls-17" d="M66.8,50.92a2.63,2.63,0,0,1,.52.75c1.37,2.85-5.66,3.19-6.72,2-2-2.16.16-3.21,1.89-3.52C63.81,49.94,65.7,49.84,66.8,50.92Z"/><path class="cls-17" d="M41,52.43a2.88,2.88,0,0,1,.58.77c1.54,2.94-5.82,3.53-7,2.37-2.18-2.2.06-3.38,1.85-3.77C37.84,51.51,39.82,51.34,41,52.43Z"/><path class="cls-22" d="M41.56,61.53S53.1,55,58.71,58.37a7.49,7.49,0,0,0-.08-1.77s-10.92-1.13-17.9,3.59A3,3,0,0,0,41.56,61.53Z"/><path class="cls-22" d="M44.67,70.59a28.15,28.15,0,0,0,12.65-.3S51,74.11,44.67,70.59Z"/></g></g></g></svg>