<svg xmlns="http://www.w3.org/2000/svg" xmlns:xlink="http://www.w3.org/1999/xlink" viewBox="0 0 96 96"><defs><style>.cls-1{fill:none;}.cls-2{clip-path:url(#clip-path);}.cls-3{fill:#fff;}.cls-4{fill:#85b428;}.cls-5{fill:#bbe351;}.cls-6{fill:#8f4721;}.cls-7{fill:#261b18;}.cls-8{fill:#9c552c;}.cls-9{fill:#661004;opacity:0.4;}.cls-10{fill:#bf6c3c;}.cls-11{fill:#f0ded1;opacity:0.7;}.cls-12{fill:#541d15;opacity:0.8;}.cls-13{fill:#45362e;}</style><clipPath id="clip-path"><circle class="cls-1" cx="48" cy="48" r="48"/></clipPath></defs><g id="Layer_2" data-name="Layer 2"><g id="Layer_4" data-name="Layer 4"><g class="cls-2"><rect class="cls-3" width="96" height="96"/><path class="cls-4" d="M38.23,81.3C32.24,83.66,26.44,88.85,25,96H35.61C38.39,88.93,40,80.59,38.23,81.3Z"/><path class="cls-4" d="M58.39,81.3c-1.81-.71-.16,7.63,2.62,14.7H71.63C70.18,88.85,64.38,83.66,58.39,81.3Z"/><path class="cls-4" d="M48.26,79.74c-11.77.06-13.2,3.86-13,4.29.39,1.07-.21,6.29.09,12h26c.42-5.76,0-10.92.59-12C62.08,83.52,60.39,79.68,48.26,79.74Z"/><path class="cls-5" d="M40.28,80.9c-2.68,3.95,8,8.35,8,8.35s9.47-4.12,8.45-7.68C55.56,77.35,42.69,77.36,40.28,80.9Z"/><path class="cls-6" d="M48.35,72.9c-2.73,0-6.58,1.63-6.85,5.95-.13,2,.16,3.16,1.17,4.28,1.61,1.78,3.61,3.22,5.68,3.26s4.06-1.48,5.67-3.26c1-1.12,1.3-2.28,1.17-4.28C54.92,74.53,51.08,72.89,48.35,72.9Z"/><path class="cls-7" d="M74,23c1.13-1.42-.6-3.72-2.36-3.57.36-1.35-.84-2.39-2.43-1.7-.13-2.53-2.34-3-4.32-2.23a2,2,0,0,0-3.46-1c-.46-2.17-2.94-2-4.55-1a3.66,3.66,0,0,0-5.27-.76c-1.49-1.53-4.22-1-5.6.56-1.69-1.46-3.58-.7-4.62,1.09-1.63-1.71-3.8-.08-5,1.4-1.59-1.45-4-.13-4.54,1.74-1.67-.81-4.29.34-4.5,2.35-2.43-.21-5,2-3.49,4.4-1.81.28-3.75,2.46-1.8,3.94-1.95.21-2.07,2.33-1,3.6-2.17,1-2.32,5.63-.35,4.51-1.53.87-1.67,2.88.31,3.12-1.43.94-2.87,2.94-.14,3.26-.92.88-1.6,2.88.08,3.34-1,1.77-1,2.46.75,3.73-.47-.34-.37,2.09-.27,2.31.41.95,1.45,1.53,2.22,2.14A29.69,29.69,0,0,1,27.21,58c3.14,3.5,5.38,7.69,8.42,11.18s6.31-2.42,8.77-3.83A17.53,17.53,0,0,1,55.4,63c3.33.5,5.67,4,9.06,4.05s5-5,5.7-7.55c.44-1.67.55-4,1.41-5.35.75-1.17,2.52-1.86,1.26-3.79,1.09.09,1.66-2.34.35-2.75,1.32-.21,1.43-2.26.43-2.91,1.63-.6,2.21-1.72.34-2.6,2.78-.62,1.48-3.65-.62-4.19,2.13-.94,2.34-3.11.73-3.75,1.87-.6,2.18-3.1.63-3.61,1.58-.6,1.23-2.59-.12-3.9C76.53,26.36,76.64,22.33,74,23Z"/><path class="cls-8" d="M45.27,20.15C33.09,22.52,24.51,40,26.75,56.46c1.67,12.3,11.16,25.79,25.45,24.78C66.78,80.2,74,62.11,72.15,47,70.11,30.54,62.32,16.83,45.27,20.15Z"/><path class="cls-7" d="M41,42c-3.84-.5-8.18.57-9.37,2.86,5.67-.76,10.52,1.93,12.53.47S44.14,42.45,41,42Z"/><path class="cls-7" d="M64.51,41.4c-3,.56-5,2-3.08,3.53s6.43-1.54,11.67-1C72.09,41.64,68.1,40.72,64.51,41.4Z"/><path class="cls-9" d="M61,22.74a54.66,54.66,0,0,0-14.76-2.32c-4.45-.08-9.28-.33-13.42,1.55-2.28,1-5.07,2.44-5.92,5-1.06,3.14-.55,7.08,0,10.29A28,28,0,0,0,30.1,47.38c.14-2.18,1.12-4.25,1.6-6.37,1.54-6.82,5.93-9.3,11.21-10.18,4.38-.73,9.38-.36,13.87-.48,2.4-.06,16.34,2.29,13.35-3.29C68.79,24.55,63.41,23.47,61,22.74Z"/><path class="cls-8" d="M22.5,49.61c-6,1.65-3.58,10.38,1.3,12.13a11.88,11.88,0,0,0,4.83.53l.1-.15c.71-1.14-.29-7.5-.65-8.7C27.15,50.41,25.37,48.82,22.5,49.61Z"/><path class="cls-9" d="M24.6,52.83c-1.35-.62-4.7.49-3.12,3.12.83-2.43,2.31-.84,2.08.89-.15,1.16-1.4,1.18-.16,2.67.67.81,2,.51,2.72.07C28.29,58.21,26.24,53.58,24.6,52.83Z"/><path class="cls-7" d="M55.19,15.18a41.4,41.4,0,0,0-12.52-.37c-6.9.82-15.22,4.09-17.4,11.39-1.34,4.49-.64,9.69-.29,14.28.21,2.78-.91,8.14,1.46,10.24,2.76,2.44,3.86-1.24,4.12-3.87.3-3,.06-6.21.92-9.1,2.09-7,5.81-8.36,15.91-9.14,5.23-.4,18.17-1.39,20.66,3.27.92,1.73,8.53-3.37,1.67-11C66.73,17.56,59.42,16,55.19,15.18Z"/><path class="cls-10" d="M70.72,52.5c-1.19-1.14-3.19-.94-4.59-.62-1.82.41-4.09,1.66-1.91,3.95,1.17,1.21,8.63.54,7.09-2.54A2.81,2.81,0,0,0,70.72,52.5Z"/><path class="cls-10" d="M41.21,53.86c-1-1.34-3-1.59-4.38-1.59-1.87,0-5.28,1.25-2.93,3.5,1.7,1.62,8.65,2.21,7.73-1A2.66,2.66,0,0,0,41.21,53.86Z"/><path class="cls-7" d="M39.75,46.08c-4.36-1.18-7.1,3.68-4.13,5.27a9.62,9.62,0,0,1,4.31.23C42.86,50.63,43,47,39.75,46.08Z"/><path class="cls-9" d="M53.79,56.12c-1.83,0-3.44-.81-5.17,0s.26,3.21,5.12,3.09S59.93,56.82,59,56C58,55,55.82,56.1,53.79,56.12Z"/><path class="cls-10" d="M53.68,47.25c-3.45-.3-6.15,6.39-4.69,8.58,1,1.53,8.62,1.48,9.81-.32C59.23,54.86,57,47.54,53.68,47.25Z"/><path class="cls-11" d="M38.19,46.93c-1.76.38-.42,2.54,1.31,1.75C40.74,48.11,39.77,46.6,38.19,46.93Z"/><path class="cls-7" d="M67.94,45.33c-4.47-.58-6.54,4.6-3.38,5.78a9.55,9.55,0,0,1,4.3-.35C71.63,49.43,71.27,45.77,67.94,45.33Z"/><path class="cls-11" d="M66.52,46.38C64.82,47,66.44,49,68,48,69.2,47.22,68,45.84,66.52,46.38Z"/><path class="cls-12" d="M69.67,60a3.32,3.32,0,0,1-4.48-1.53,2.55,2.55,0,0,0,.14,2.9C63.54,65.46,59,68.71,53.15,69c-6,.34-11.33-2.49-13.45-7.13a2.72,2.72,0,0,0,.47-2.8c-1.09,1.74-3.31,2.39-4.71,1.59a2.59,2.59,0,0,0,2.26,2c2.44,5.37,8.49,8.61,15.41,8.22l.56,0c6.46-.53,11.5-4.21,13.57-8.88A3.25,3.25,0,0,0,69.67,60Z"/><path class="cls-13" d="M25.71,32.7h0C25.78,32.71,25.77,32.7,25.71,32.7Z"/><path class="cls-13" d="M70.67,22.88c.46-1.28-.62-3.1-2.08-2.23,1-1.33-.78-3.84-2.19-1.79-.35-.77,0-1.47-1.15-1.42s-1.32.92-1.76,1.71c-.49-1.53-.56-3.51-2.44-4.11-2.17-.7-2.56,1.27-3.58,2.57-.54-.91-.67-2.09-1.62-2.75-1.31-.91-2,.4-2.62,1.38-.73-.48-1-1.46-2-1.09s-1.54,2.17-2.09,3.13c-1-1.14-1.84-3-3.45-3.37-2.07-.49-2.92,1.09-3.65,2.6-.82-.45-1.33-1.28-2.39-.85s-1.36,1.6-1.68,2.52a1.32,1.32,0,0,0-2.13,1.29,3.77,3.77,0,0,0-4.06-1.54,1.9,1.9,0,0,0-1.47,1.7,3.12,3.12,0,0,0,.53,1.79c-1.83-.93-2.48.59-1.55,2.17-.73-.68-2.59-1.89-3.6-1.24s-.81,3.56-.16,4.34c0,0,0,0,0,0-1.9.25-.47,1.28.61,1.6-2.79-.85-2.27,3.43-.41,3.44h0c.06,0,.07,0,0,0h0a1.35,1.35,0,0,0-.5,2.66c-2.1-.44-1.09,1.68.29,2,1.85.45,2.29-1.43.8-2.29,2,1.15,2.44-.88,1-2.09,2.51,1,1.16-2.73.72-3.72.72.32,1.4,1.25,2.25,1s1-1.51.93-2.33c.35,1,2.16,1.87,3,1.1.71-.63.4-2.54.63-3.38.62.82,2.12,2.94,3.42,2.32,1-.47.66-2.38.93-3.28a3.8,3.8,0,0,0,3.51,2.5c2-.17,2-1.44,2.58-3.15.28,1.08,1.64,2.68,3,2.57,1.68-.13,2-1.79,2.59-3.29,1.71,3.23,5.38,3.86,6.7,0,1,5,5,3.15,7.75.87-.46,2.84,1.62,3.7,3.22,1.52-1.36,1.85.72,3.24,2.5,2.75a2.55,2.55,0,0,0,1.86-2.23,3,3,0,0,0-.51-2C72.28,24.12,70.74,22.7,70.67,22.88Z"/></g></g></g></svg>