<svg xmlns="http://www.w3.org/2000/svg" xmlns:xlink="http://www.w3.org/1999/xlink" viewBox="0 0 66 66"><defs><style>.cls-1{fill:none;}.cls-2{clip-path:url(#clip-path);}.cls-3{fill:#fff;}.cls-4{fill:#e62628;}.cls-5{fill:url(#linear-gradient);}.cls-6{fill:#ff3b3b;}.cls-7{fill:#ffb06b;}.cls-8{fill:#fdd281;}.cls-9{fill:#ffa763;}.cls-10,.cls-19{fill:#c4170e;}.cls-10{opacity:0.2;}.cls-11{fill:#b54319;opacity:0.5;}.cls-12{fill:#ffebbd;}.cls-13{fill:#ffc48f;}.cls-14{fill:#305d80;}.cls-15{fill:#86bae3;}.cls-16{fill:#6e4c3c;}.cls-17{fill:#121b21;}.cls-18{opacity:0.35;}.cls-20{fill:#8f2621;}.cls-21{fill:#fff9f0;}.cls-22{fill:#e8dac5;}</style><clipPath id="clip-path"><circle class="cls-1" cx="33" cy="33" r="33"/></clipPath><linearGradient id="linear-gradient" x1="34.03" y1="51.93" x2="33.36" y2="55.72" gradientUnits="userSpaceOnUse"><stop offset="0" stop-color="#e88958"/><stop offset="0.34" stop-color="#f49d62"/><stop offset="0.69" stop-color="#fcab69"/><stop offset="1" stop-color="#ffb06b"/></linearGradient></defs><g id="Layer_2" data-name="Layer 2"><g id="avatars"><g class="cls-2"><rect class="cls-3" width="66" height="66"/><path class="cls-4" d="M40.11,61.83c1.08-4,1.2-6.48-1.3-7.3s-6.9-1.07-9.56.07c-2.12.91-2.8,2.38-1.35,6.85A27.58,27.58,0,0,1,29.05,66H39.23A30.65,30.65,0,0,1,40.11,61.83Z"/><path class="cls-5" d="M36.85,50.35c.21-3.57-6-3.7-6,.2a11.76,11.76,0,0,1-.23,3.6c-.33.73.16,3.16,3.39,3.16,2.93,0,3-2.48,2.76-3C36.35,53.38,36.76,51.93,36.85,50.35Z"/><path class="cls-6" d="M36.61,59.2a10.23,10.23,0,0,1-5.67-.09c-1-.26-1.61.91-1.29,1.91.42,1.32,2.56,1.67,4.43,1.64,3.67-.06,5.05-1.42,4.43-3C38.34,59.17,37.55,58.87,36.61,59.2Z"/><path class="cls-4" d="M29.56,58,28,55.36c-2.6,1.51-3.52,6.16-3.67,10.64h3.12C27.72,63.18,27.74,59.09,29.56,58Z"/><path class="cls-7" d="M25.71,58.26c2.78.66,3.89-.69,3.39-3.59A5.64,5.64,0,0,0,25.71,58.26Z"/><path class="cls-4" d="M40.28,55.36,38.73,58c1.81,1.06,1.83,5.15,2.1,8H44C43.81,61.52,42.89,56.87,40.28,55.36Z"/><path class="cls-7" d="M39.19,54.67c-.51,2.9.61,4.25,3.38,3.59A5.65,5.65,0,0,0,39.19,54.67Z"/><path class="cls-8" d="M17.42,18.06c-2.71,7.08-3,12.57-4.81,23.77-.47,2.84-2.26,7.21-1.49,8.93,1.08,2.43,3.83,1,6.1,1.78,2.45.79,5.16,1.94,5.75-1.51a5.52,5.52,0,0,1,.26,2.1c1.9,0,8.42-2,12.82-1.84,3.91.16,12,3.71,13.68-.79,1.23-3.36,2.45-18.21,1.92-23.06,0-.3,1.17-.71,1.2-1,.12-.86.2-1.47.21-1.72C54.13,5.43,24.18.4,17.42,18.06Z"/><path class="cls-9" d="M32.87,15.5c-7.61,1.34-13.14,12.15-11.93,22.4.9,7.61,7.81,15.2,15.19,15.32C44,53.35,50.29,41.54,49.32,32.5,48.23,22.24,43.53,13.62,32.87,15.5Z"/><path class="cls-10" d="M46.15,18.58a35.79,35.79,0,0,0-12.62-2.92c-2.77-.12-6.48-.36-9.09.71-3.91,1.61-5.62,4.13-6.23,8-.41,2.66,2.22,5.25,4.25,7,1.48-1.4.82-3.34.81-5,.32,1.92,1.89,1.39,3.55,1.5,1.47.09,4,.78,5.34.07.61-.32.73-.75,1-1.39a2.35,2.35,0,0,0,.81.67,9,9,0,0,0,3.38.42,13.33,13.33,0,0,0,4.88-.22c.69-.22,1.1-.41,1.31-1.18.24,1.63,2.7,1.39,4,1.37C53.38,27.48,49.34,19.91,46.15,18.58Z"/><path class="cls-9" d="M18.37,33.6c-3.74,1-2.34,6.42.68,7.56a7.16,7.16,0,0,0,3,.38l.06-.09c.46-.7-.09-4.67-.31-5.42C21.26,34.14,20.17,33.14,18.37,33.6Z"/><path class="cls-11" d="M19.64,35.62c-.83-.4-2.93.26-2,1.91.55-1.51,1.45-.49,1.29.58-.1.72-.88.72-.12,1.66.4.51,1.25.34,1.68.08C21.88,39,20.65,36.11,19.64,35.62Z"/><path class="cls-8" d="M43.93,13.59c-4.13-3.63-9.59-3.7-14.77-2.9a23,23,0,0,0-6.59,1.72c-1.55.83-2.2,2.85-2.94,4.37a27.46,27.46,0,0,0-2.07,9c-.16,1.6.44,3.25.58,4.86s.8,2.92,1.07,4.46a13.87,13.87,0,0,1-.57,7c-.33.95-1.1,1.73-.41,2.59a1.84,1.84,0,0,0,2.45.41c.5-.5,1.51-4.69,1.74-5.76A38.53,38.53,0,0,0,22.89,31a20.54,20.54,0,0,1,.95-7.48,27.41,27.41,0,0,0,.33,3.43c2.57-.26,5.3,0,7.88-.06a10.38,10.38,0,0,0,.89-2.6.11.11,0,0,1,0-.06s0,0,0,0a0,0,0,0,0,0,0c.16.47.32,1.49.65,1.76.61.51,2.41.24,3.16.3,1.4.12,3.78.65,5.14.09.88-.36,1-1.18,1.25-2.07h0c0-.05,0-.05,0,0h0c.27.46.38,1.28.81,1.5a9.24,9.24,0,0,0,2.55.51,20.7,20.7,0,0,0,3,0c2-.34.64-3.94.13-5.24A21.23,21.23,0,0,0,43.93,13.59Z"/><path class="cls-8" d="M32.92,24.19a.11.11,0,0,0,0,.06,0,0,0,0,1,0,0S32.92,24.16,32.92,24.19Z"/><path class="cls-8" d="M43.14,24.32h0C43.14,24.27,43.14,24.27,43.14,24.32Z"/><path class="cls-12" d="M31.72,8.85c-3.91.34-9.51,3.38-11.3,6.87-4.05,7.87-5.7,16.66-6.18,25.42-.12,2.21-1.45,5.58-1.36,7.61s1,1.93,2.5.89c2-1.35-.06-8.63.37-13.13C16.1,33,19,32.85,20.07,28.19c1,6.3-.12,14.52-2.62,21.37,8.49-13.79,2.12-21.12,6.6-30.37a7.2,7.2,0,0,0,8,1.7,12.44,12.44,0,0,1,8.55-.1c3.37,1.35,6.53,2,10.8.3C49.47,11.14,38.82,8.22,31.72,8.85Z"/><path class="cls-13" d="M45.52,35.49c-1.17-.19-2.8,0-2,1.83.42,1,5,2.37,4.77.23a1.9,1.9,0,0,0-.17-.6A3.43,3.43,0,0,0,45.52,35.49Z"/><path class="cls-13" d="M29.88,36.1A3.58,3.58,0,0,0,26.77,36c-1.19.37-2.63,1.31-1,2.66.86.72,5.81-.13,4.58-2A1.65,1.65,0,0,0,29.88,36.1Z"/><path class="cls-11" d="M37.64,37.23c-1-.07-1-.6-1.66-.19s-.18,1.94,1.55,2,2.54-1.2,2.21-1.73S38.73,37.3,37.64,37.23Z"/><path class="cls-13" d="M37.4,34.38c-.8,0-2,2.72-1.59,3.13,1,1,3.17.53,3.83-.16C39.9,37.08,38.31,34.37,37.4,34.38Z"/><path class="cls-14" d="M46.55,31.33c-2.7-1.15-5.16,2.18-3.22,3.91a3.57,3.57,0,0,1,3.81-.12C48.25,34.33,48,32,46.55,31.33Z"/><path class="cls-15" d="M46.85,33.2c-.74.24-.39,1.65.37,1.15C47.76,34,47.51,33,46.85,33.2Z"/><path class="cls-15" d="M44.32,31.73c-1.26.39-.66,2.8.62,2C45.87,33.08,45.44,31.38,44.32,31.73Z"/><path class="cls-14" d="M26.44,31.55c-1.43.66-1.61,3-.48,3.8a3.54,3.54,0,0,1,3.81,0C31.66,33.58,29.11,30.32,26.44,31.55Z"/><path class="cls-15" d="M26.2,33.43c-.67-.19-.9.82-.34,1.16C26.63,35.07,26.94,33.64,26.2,33.43Z"/><path class="cls-15" d="M28.68,31.88c-1.12-.31-1.51,1.39-.56,2C29.43,34.67,30,32.24,28.68,31.88Z"/><path class="cls-16" d="M30.1,27.69a14.89,14.89,0,0,0-3.92.6,6.78,6.78,0,0,0-2.38,1.29,1.07,1.07,0,0,0-.41.78c.22,0,.37-.14.56-.22A12.87,12.87,0,0,1,27,29.52c.81-.09,1.61-.11,2.41-.22.54-.07,1.29,0,1.53-.59S30.82,27.65,30.1,27.69Z"/><path class="cls-16" d="M46.36,28.07a14.21,14.21,0,0,0-3.83-.52c-.7,0-1.14.32-.85,1s1,.48,1.49.55c.78.09,1.57.1,2.35.18a11.76,11.76,0,0,1,3,.55c.19.07.33.21.55.2,0-.25-.2-.56-.4-.74A6.46,6.46,0,0,0,46.36,28.07Z"/><path class="cls-17" d="M46,30.87a2.8,2.8,0,0,0-3.19,2A2.52,2.52,0,0,1,45.64,32c3.67,1.57,5.61-1,5.61-1C48.63,32.19,47.29,31.1,46,30.87Z"/><path class="cls-17" d="M27.07,31.14c-1.27.25-2.61,1.35-5.24.16,0,0,2,2.58,5.62,1a2.52,2.52,0,0,1,2.83.83A2.79,2.79,0,0,0,27.07,31.14Z"/><g class="cls-18"><path class="cls-19" d="M26.37,40.82c4.25,6.25,6.83,7.37,10.08,7.51,4.07.18,5.43-2.42,6-4.37a11.12,11.12,0,0,1,3.07-3.44c-2.53.59-5,.33-8.86.5C33.52,41.15,28.89,42.09,26.37,40.82Z"/></g><path class="cls-20" d="M28.3,41.9a9.51,9.51,0,0,0,7.63,4.23c3.24,0,5.36-1,6-2.46a4.16,4.16,0,0,1,2-2.16A34.91,34.91,0,0,1,28.3,41.9Z"/><path class="cls-21" d="M30.19,42.25s.17,1.28,2,1.75a18,18,0,0,0,7.37.2c1.73-.27,2.55-2.3,2.55-2.3A37.22,37.22,0,0,1,30.19,42.25Z"/><path class="cls-21" d="M37.19,44.4c-2.31.11-4.24,0-5.41-.7-.83-.48-.9,0-.72.39,0,0,.78,1.74,4.62,2.1s5.59-1.79,5.16-2.14S39.34,44.3,37.19,44.4Z"/><path class="cls-22" d="M30.19,42.25a2,2,0,0,0,.47.89s8.65-.8,10.74-.11a4.08,4.08,0,0,0,.69-1.13A43.16,43.16,0,0,1,30.19,42.25Z"/><path class="cls-22" d="M32.48,44c3.12,1.71,6.82.19,6.82.19A13,13,0,0,1,32.48,44Z"/></g></g></g></svg>