<svg xmlns="http://www.w3.org/2000/svg" xmlns:xlink="http://www.w3.org/1999/xlink" viewBox="0 0 66 66"><defs><style>.cls-1{fill:none;}.cls-2{clip-path:url(#clip-path);}.cls-3{fill:#983c48;}.cls-4{fill:#ffc38f;}.cls-5{fill:url(#linear-gradient);}.cls-6{fill:#ad9162;}.cls-7{opacity:0.1;}.cls-8{fill:#d4c1a1;}.cls-9{fill:#fff;opacity:0.07;}.cls-10{fill:#1c9e8f;}.cls-11{fill:#261b18;}.cls-12{fill:#bc551e;}.cls-12,.cls-13{opacity:0.4;}.cls-13{fill:#d14f2e;}.cls-14{fill:#45362e;}.cls-15{fill:#ff7752;}.cls-16{fill:#1c5c57;}.cls-17{fill:#6cd9d2;opacity:0.7;}.cls-18{fill:#121b21;}.cls-19{fill:#ff3b3b;}</style><clipPath id="clip-path" transform="translate(0.01)"><circle class="cls-1" cx="33" cy="33" r="33"/></clipPath><linearGradient id="linear-gradient" x1="33.69" y1="50.6" x2="33.69" y2="55.74" gradientUnits="userSpaceOnUse"><stop offset="0" stop-color="#ee996d"/><stop offset="0.02" stop-color="#ee9a6e"/><stop offset="0.37" stop-color="#f8b181"/><stop offset="0.71" stop-color="#fdbf8d"/><stop offset="1" stop-color="#ffc491"/></linearGradient></defs><g id="Layer_2" data-name="Layer 2"><g id="avatars"><g class="cls-2"><rect class="cls-3" width="66" height="66"/><path class="cls-4" d="M29.33,57.56c1.23-1,1.05-4.45-.74-3.82C25,55,24.76,59.21,23.28,66H26.6C27.24,63,27.78,58.86,29.33,57.56Z" transform="translate(0.01)"/><path class="cls-4" d="M38.78,53.74c-1.78-.63-2,2.79-.74,3.82,1.55,1.3,2.09,5.45,2.73,8.44h3.32C42.61,59.21,42.36,55,38.78,53.74Z" transform="translate(0.01)"/><path class="cls-5" d="M37,52.92c-2.08-.91-.67-3.39-3.4-3.39s-1.47,2.8-3.42,3.53c-4.54,1.72-4.5,4.35-1.82,7s7.4,3.07,11.08-.26S39,53.83,37,52.92Z" transform="translate(0.01)"/><path class="cls-6" d="M39.26,62.19c1.91-4.28-.1-6.54-1.1-8.84a5.32,5.32,0,0,0-1.22-.56c.37,1.68,1,5.77-3.25,5.77s-3.83-3.38-3.53-5.65a1.45,1.45,0,0,0-.92.43c-1.19,3.6-3.17,4.62-1.35,9A9.19,9.19,0,0,1,29,66h9A9.39,9.39,0,0,1,39.26,62.19Z" transform="translate(0.01)"/><path class="cls-7" d="M29.74,62.9c.42.72,1.71.71,2.72.89-.17,0-.34.1-.53.13a8.37,8.37,0,0,0,4.12-.28c.39-.11,1.42-.76,1.63-.78a31.1,31.1,0,0,1-4.21.25C32.2,63.09,31,62.92,29.74,62.9Z" transform="translate(0.01)"/><path class="cls-8" d="M36.6,52.35a.45.45,0,0,0-.34.54c.19.86.71,3.13-.26,4.34a2.79,2.79,0,0,1-2.31.87,3.2,3.2,0,0,1-2.49-.82c-.82-.94-.58-2.62-.4-4l0-.29a.45.45,0,0,0-.39-.51.46.46,0,0,0-.52.39l0,.29c-.22,1.54-.48,3.45.61,4.7A4,4,0,0,0,33.69,59a3.66,3.66,0,0,0,3-1.21c1.24-1.55.66-4.13.44-5.11A.45.45,0,0,0,36.6,52.35Z" transform="translate(0.01)"/><path class="cls-8" d="M29.05,53.17a.45.45,0,0,0-.57.29,22.18,22.18,0,0,1-.86,2.2,9,9,0,0,0-.92,3.28.46.46,0,0,0,.44.48h0a.47.47,0,0,0,.46-.44A7.71,7.71,0,0,1,28.46,56c.27-.64.58-1.36.89-2.28A.46.46,0,0,0,29.05,53.17Z" transform="translate(0.01)"/><path class="cls-8" d="M38.73,53.46a.45.45,0,0,0-.57-.29.46.46,0,0,0-.29.58c.3.92.61,1.64.88,2.27a8,8,0,0,1,.85,3,.45.45,0,0,0,.46.44h0a.46.46,0,0,0,.43-.48,8.57,8.57,0,0,0-.92-3.28C39.33,55,39,54.35,38.73,53.46Z" transform="translate(0.01)"/><path class="cls-9" d="M36.62,58.74a12.56,12.56,0,0,1-6.69-.08c-1.22-.28-1.91,1-1.53,2.17.48,1.49,3,1.87,5.21,1.83,4.34-.08,6-1.63,5.24-3.47C38.65,58.7,37.72,58.36,36.62,58.74Z" transform="translate(0.01)"/><path class="cls-10" d="M33.67,54.23a.88.88,0,1,0,.88.88A.88.88,0,0,0,33.67,54.23Z" transform="translate(0.01)"/><path class="cls-10" d="M35.66,53.78a.77.77,0,1,0,.77.77A.76.76,0,0,0,35.66,53.78Z" transform="translate(0.01)"/><path class="cls-10" d="M36.71,52.66a.63.63,0,0,0-.63.63.63.63,0,0,0,1.26,0A.63.63,0,0,0,36.71,52.66Z" transform="translate(0.01)"/><path class="cls-10" d="M36.81,51.81a.45.45,0,1,0,0,.89.45.45,0,1,0,0-.89Z" transform="translate(0.01)"/><path class="cls-10" d="M31.68,53.78a.77.77,0,1,0,.77.77A.77.77,0,0,0,31.68,53.78Z" transform="translate(0.01)"/><path class="cls-10" d="M30.63,52.66a.63.63,0,0,0-.63.63.63.63,0,0,0,1.26,0A.63.63,0,0,0,30.63,52.66Z" transform="translate(0.01)"/><path class="cls-10" d="M30.54,51.81a.45.45,0,1,0,0,.89.45.45,0,0,0,0-.89Z" transform="translate(0.01)"/><path class="cls-11" d="M37.07,9.31c-.7-1.82-.81-2.48-.5-3.67a5.27,5.27,0,0,0-2.93,3.22,7.57,7.57,0,0,0-6.12-3.25,8.6,8.6,0,0,1,2.29,3.66c-1.5.22-2.56.24-4.07.44-7.76,1-12.31,5.72-14.34,12.75-1,3.32-.53,7.94-.05,11.33.24,1.72,2,6.09.05,7.42a1.53,1.53,0,0,1-2.46-1.42,3.16,3.16,0,0,0-.53,5.06c1.62,1.41,4.53,1.55,6.46.87a10.19,10.19,0,0,0,2,7.7,5.14,5.14,0,0,1,1.68-2.76c-.51.39,1.65,1.48,1.87,1.52A5.2,5.2,0,0,0,23,51.7c2.22-.75,3.93-2,6.31-2.51,1.91-.4,18.79,2.73,18.27-.61.14.87.22,1.77.34,2.65,1.79-1.39,3.34-3.62,3.12-6,2.64-.38,4.39-1.16,3.57-4.12-.42,1.17-1.86,1.11-2.84.66-3.23-1.49-.95-7.06.47-10.84A17.57,17.57,0,0,0,53,28.33a33.68,33.68,0,0,1,1.84,3.1C55.82,26.48,56.1,10.15,37.07,9.31Z" transform="translate(0.01)"/><path class="cls-10" d="M47.55,39.75a1.36,1.36,0,1,0,1.38,1.35A1.36,1.36,0,0,0,47.55,39.75Z" transform="translate(0.01)"/><path class="cls-4" d="M30.39,13.73c-7.68,1.6-13,12.74-11.4,23.1,1.16,7.77,7.27,16.22,16.3,15.46C44.5,51.5,48.93,40,47.61,30.46,46.18,20.08,41.14,11.48,30.39,13.73Z" transform="translate(0.01)"/><path class="cls-12" d="M45.6,17.17a21.94,21.94,0,0,0-5.27-1.94A34.48,34.48,0,0,0,31,13.89c-2.81,0-5.86-.13-8.47,1.09-1.43.67-3.18,1.59-3.7,3.19-.64,2-.29,4.48.06,6.5A17.67,17.67,0,0,0,21,31.07a8,8,0,0,1,1.67-4.3c.76-1,1.83-2.71,3.14-2.94,0,0-.87,2.52-1,2.78a5.5,5.5,0,0,1-2.16,1.82c.8.68,3.19.54,4.16.35a5,5,0,0,0,2-.77,3,3,0,0,0-.11.79c1.27-.17,2.56-.13,3.86-.4a18.14,18.14,0,0,0,2.78-.93,1.92,1.92,0,0,0-.28.62,4,4,0,0,0,.77-.3,2.14,2.14,0,0,0-.19.92c2.48-.07,5.07-.11,7.53-.35,4-.39,5.23-8,4.34-9.43A5.62,5.62,0,0,0,45.6,17.17Z" transform="translate(0.01)"/><path class="cls-4" d="M16.24,32.55c-3.76,1.09-2.17,6.59.93,7.65a7.4,7.4,0,0,0,3.06.29l.06-.09c.44-.72-.25-4.74-.49-5.49C19.19,33,18.05,32,16.24,32.55Z" transform="translate(0.01)"/><path class="cls-13" d="M17.6,34.56c-.86-.38-3,.35-2,2,.51-1.55,1.46-.55,1.33.55-.09.73-.88.75-.08,1.68.43.51,1.28.31,1.72,0C20,37.93,18.64,35,17.6,34.56Z" transform="translate(0.01)"/><path class="cls-11" d="M46.56,16.05c-1.65-1.11-2.58-2.86-4.49-3.77a21.88,21.88,0,0,0-5.45-1.78,26,26,0,0,0-7.92-.13c-4.35.58-9.59,2.72-10.9,7.35-.81,2.85-.33,6.13-.07,9,.3,3.33-.19,7.3,3,9.51.19-.8.14-1.69.26-2.51a15.72,15.72,0,0,0,.39-3.28,10.48,10.48,0,0,1,.05-3.11,8.52,8.52,0,0,1,3.19-4.56c1.23-1,2-.51,1.61,1a7.28,7.28,0,0,1-2.56,3.3,36.39,36.39,0,0,0,3.91,0,5.79,5.79,0,0,0,3.29-2.49c-.62,1.11-.41,1.81-1.42,2.81,3,.86,4.7-.13,7.2-2a6.18,6.18,0,0,1-.76,1.52c.38-.2,1-.59,1.35-.75-.18.52-.39,1-.59,1.49,2-.33,4,.44,6,0,2.46-.62,6.33-3.66,6.75-6.29a4.55,4.55,0,0,0-.64-3A7.13,7.13,0,0,0,46.56,16.05Z" transform="translate(0.01)"/><path class="cls-14" d="M43.61,13.3c-5.71.55-9.75,6.58-15.82,5.29-2.55-.55-4.91-1.28-7.55-1.23s-6,1.06-7.12,3.56c-.24.53-1.94,6.67-.64,6.84,1.59.2,3-.55,4.43-1s1.83.43,2.83,1.07c-.76-.49,2.46-4.26,3-4.65a3.74,3.74,0,0,1,3.54-.92,1.85,1.85,0,0,1,.37.19c1.24.8,0,2.58-.25,3.62A25.82,25.82,0,0,0,32.3,22.5c-.18,1.28-.46,2.45-.75,3.67a6.54,6.54,0,0,0,4-2.1c.61-.58,1.1-1.46,1.87-1.86.39-.2.64-.43.79.1a10.36,10.36,0,0,1-.65,1.82c.57-.38,1.92-2.3,2.69-2.09s-1.78,4.45-2.13,4.37a9,9,0,0,0,6.64-1.36,9.62,9.62,0,0,0,2.47-2.2c.83-1.06.14-1.93.47-3.11a7.79,7.79,0,0,1,1.05,1.68c.65,1.88.17,3.57-.29,5.48,2.62,1,3.15-.95,3.61-3.23.54.71.85,1.57,1.4,2.28C54.59,20.36,49.77,12.72,43.61,13.3Z" transform="translate(0.01)"/><path class="cls-10" d="M18.33,41a1.37,1.37,0,1,0,1.37,1.35A1.36,1.36,0,0,0,18.33,41Z" transform="translate(0.01)"/><path class="cls-15" d="M46.58,37.2a2.65,2.65,0,0,0-2.24-1c-1-.05-2.34.28-1.58,1.79.4.8,4.3,1.53,4-.3A1.42,1.42,0,0,0,46.58,37.2Z" transform="translate(0.01)"/><path class="cls-15" d="M27.5,37.18a2.78,2.78,0,0,0-2.63-.64c-1.1.17-2.52.86-1.43,2.44.58.84,5,.79,4.33-1.26A2,2,0,0,0,27.5,37.18Z" transform="translate(0.01)"/><path class="cls-11" d="M40.8,29.17a59.66,59.66,0,0,0,7.53.54C47.21,27.88,42.52,27.57,40.8,29.17Z" transform="translate(0.01)"/><path class="cls-13" d="M36.05,37.92c-.73,0-1-.28-1.54,0s.63,1.26,1.54,1.17,1.85-1,1.57-1.28S36.87,37.89,36.05,37.92Z" transform="translate(0.01)"/><path class="cls-11" d="M21.66,29.82c4-.31,5.4-.27,8.19-.62C28.2,27.46,23.28,28.09,21.66,29.82Z" transform="translate(0.01)"/><path class="cls-16" d="M26.36,31.27c-2.14-.76-3.14,3.19-1.63,4.32a2.9,2.9,0,0,1,2.07,0C28.13,34.73,28,31.82,26.36,31.27Z" transform="translate(0.01)"/><path class="cls-17" d="M26,32.7c-.88.15-.51,1.95.4,1.47C27.05,33.83,26.78,32.56,26,32.7Z" transform="translate(0.01)"/><path class="cls-16" d="M45.41,31.09c-2.14-1.37-4,3.63-1.64,4.35a2.53,2.53,0,0,1,1.87-.3C46.46,34.08,46.55,31.82,45.41,31.09Z" transform="translate(0.01)"/><path class="cls-17" d="M44.56,32.29c-.85,0-.73,1.9.18,1.56C45.41,33.6,45.31,32.28,44.56,32.29Z" transform="translate(0.01)"/><path class="cls-18" d="M45.47,31c-2-.76-2.6,1.57-2.6,1.57a1.82,1.82,0,0,1,2.28-.43,4,4,0,0,0,5-.36C47.73,32.57,46.52,31.39,45.47,31Z" transform="translate(0.01)"/><path class="cls-18" d="M24.94,31.41a6.34,6.34,0,0,1-5,1,4.45,4.45,0,0,0,5.22.07,2,2,0,0,1,2.38.13S27,30.32,24.94,31.41Z" transform="translate(0.01)"/><path class="cls-19" d="M25.13,40.5c1.09,2,3.73,1.06,2.61-1A2,2,0,0,1,25.13,40.5Z" transform="translate(0.01)"/><path class="cls-19" d="M42.59,39.11a1.49,1.49,0,1,0,2.84.79A2.22,2.22,0,0,1,42.59,39.11Z" transform="translate(0.01)"/><path class="cls-19" d="M43.82,40.22a.6.6,0,0,0-.78.32c-1,2.93-4.19,4.86-7.85,4.83a8.17,8.17,0,0,1-7.49-4.28.7.7,0,0,0-.83-.33.51.51,0,0,0-.32.71,9.42,9.42,0,0,0,8.37,5h.33c4.21,0,7.78-2.17,9-5.55A.56.56,0,0,0,43.82,40.22Z" transform="translate(0.01)"/></g></g></g></svg>