<svg xmlns="http://www.w3.org/2000/svg" xmlns:xlink="http://www.w3.org/1999/xlink" viewBox="0 0 96 96"><defs><style>.cls-1{fill:none;}.cls-2{clip-path:url(#clip-path);}.cls-3{fill:#fff;}.cls-4{fill:#8e9194;}.cls-5{fill:#ff9819;}.cls-6{fill:#c93712;}.cls-12,.cls-6{opacity:0.5;}.cls-7{fill:#261b18;}.cls-8{fill:#9c552c;}.cls-10,.cls-12,.cls-9{fill:#66241b;}.cls-9{opacity:0.4;}.cls-10,.cls-14{opacity:0.7;}.cls-11{fill:#45362e;}.cls-13{fill:#d17642;}.cls-14{fill:#f0ded1;}.cls-15{fill:#d47b48;}.cls-16{fill:#732e2b;}.cls-17{fill:#fff9f0;}.cls-18{fill:#e8dac5;}</style><clipPath id="clip-path" transform="translate(0)"><circle class="cls-1" cx="48" cy="48" r="48"/></clipPath></defs><g id="Layer_2" data-name="Layer 2"><g id="Layer_4" data-name="Layer 4"><g class="cls-2"><rect class="cls-3" width="96" height="96"/><path class="cls-4" d="M26,96a90.3,90.3,0,0,1-.12-9c.36-3.64,2.69-7.58,9.09-9.68l2.81,6.26C34.5,85.26,34,96,34,96Z" transform="translate(0)"/><path class="cls-4" d="M71.11,96a90.3,90.3,0,0,0,.12-9c-.36-3.64-2.69-7.58-9.09-9.68l-2.82,6.26C62.63,85.26,63.08,96,63.08,96Z" transform="translate(0)"/><path class="cls-5" d="M37.45,76.8c-5.94,3.86-5.36,10-3.9,19.2h30c1.59-9.07,2.29-16.67-3.51-19.79C52.78,72.34,42.25,73.67,37.45,76.8Z" transform="translate(0)"/><path class="cls-4" d="M59.72,75.56s6.38,2.37,7,4c.46,1.19-1.11,9-2.4,16.49H54.66C56.25,88.44,58.17,80.6,59.72,75.56Z" transform="translate(0)"/><path class="cls-4" d="M37.28,75.56s-6.39,2.37-7,4c-.45,1.19,1.12,9,2.41,16.49h9.64C40.74,88.44,38.83,80.6,37.28,75.56Z" transform="translate(0)"/><path class="cls-6" d="M48.51,86C62.08,86,66,66.67,47.37,66.67,34,66.67,34,86,48.51,86Z" transform="translate(0)"/><path class="cls-5" d="M48.5,84.36C63,84.36,67.17,66,47.27,66,33,66,33,84.36,48.5,84.36Z" transform="translate(0)"/><path class="cls-7" d="M73.83,46A5.53,5.53,0,0,0,73.12,45c3.2-.48,2-2.91.82-4.76,1.11-.73,1.9-.83,1.81-2.31A3.87,3.87,0,0,0,73.43,35c1.13-.81,2.52-.84,2.66-2.42s-1.22-2.9-2.22-3.74c4.78-1.11,2.62-6.17-1.28-6.66,1-1.57,2-2.37.21-3.78a5.72,5.72,0,0,0-5.4-.82c1-4-4.55-5-6.7-2.7-.62-4.42-4.87-5-7.46-1.84-1.26-3.34-6.05-4-6.91,0-2.88-3.71-8.18-1.76-9.13,2.52A4,4,0,0,0,30,18.45a5.13,5.13,0,0,0-6.24,1.21c-1.25,1.48-.88,4.16,0,5.62C18.72,25,19.53,29.44,22,32c-3.94.25-5.65,5.8-.92,6.23-2.57.91-2.88,4.36.23,4.84-3.17,1.14-1.82,3.94.94,4.54-1,2.82-.35,3.93,1.84,5.67a28.73,28.73,0,0,1,3.44,3.69c3,3.41,5.22,7.47,8.18,10.87s6.13-2.36,8.53-3.73A17,17,0,0,1,55,61.81c3.24.48,5.51,3.85,8.8,3.93,2,0,3.28-1.65,4.1-3.25.94-1.81.64-3.23,1-5s1.95-2.13,3-3.3c.43-.51,1.73-3.82,0-3.81C74.8,50.36,74.8,47.92,73.83,46Z" transform="translate(0)"/><path class="cls-8" d="M27.11,55.46c1.63,12,10.86,25.08,24.75,24.09C66,78.54,73.09,61,71.26,46.25c-2-16-9.57-29.31-26.14-26.08C33.28,22.47,24.94,39.49,27.11,55.46Z" transform="translate(0)"/><path class="cls-9" d="M42.78,31.54a3.87,3.87,0,0,1-2.55-1c-.29,1.71-2.24,2.3-3.78,2.26a3.67,3.67,0,0,1-3.69,4.08c-.28,1.19-.56,2.38-.83,3.58-.47,2.07-1.42,4.08-1.56,6.19a27.19,27.19,0,0,1-3.19-9.87c-.5-3.12-1-6.95,0-10,.83-2.45,3.55-3.83,5.76-4.83,4-1.82,8.73-1.58,13.05-1.5a52.93,52.93,0,0,1,14.35,2.25c2.39.72,7.61,1.76,8.92,4.2,1.56,2.91-3.82,4.94-5.66,3.15-1.75,1.66-5.15.55-6.34-1.26-1.67,2-4,1.19-5.85,0-1.06,2.36-3.75.57-5.34,1.2-1.15.46-1.4,1.56-3.12,1.54Z" transform="translate(0)"/><path class="cls-8" d="M24.25,60.6a11.57,11.57,0,0,0,4.7.51L29,61c.7-1.1-.28-7.28-.63-8.45-.9-2.93-2.64-4.47-5.42-3.7C17.17,50.41,19.5,58.89,24.25,60.6Z" transform="translate(0)"/><path class="cls-10" d="M26.5,58.5c2.12-1.33.12-5.84-1.48-6.57-1.3-.6-4.56.49-3,3,.81-2.37,2.25-.82,2,.86-.15,1.13-1.36,1.15-.15,2.6C24.52,59.21,25.84,58.92,26.5,58.5Z" transform="translate(0)"/><path class="cls-7" d="M67.08,31.88a1.59,1.59,0,0,0,.55.25c1.58.19,2.43-1,3.15-2.28,1.79-3.15.39-6.44-1.89-9-2.9-3.23-10-4.75-14.12-5.54A40.13,40.13,0,0,0,42.59,15c-6.7.8-14.79,4-16.91,11.08-1.3,4.36-.62,9.42-.28,13.88.2,2.7-.89,7.91,1.42,10,2.69,2.37,3.75-1.2,4-3.76.37-3.79.81-7.44,1.32-11.17,2.42.22,3.53-1.83,3.42-4,1.93.47,4.33.09,5-2a4.9,4.9,0,0,0,3.18.77c1.11-.19,1.51-1.5,2.13-1.68.88-.25,2.27.9,3.34.7s1.71-1.06,2.33-2c1.61,2.54,5.31,2,7.2.18a3.82,3.82,0,0,0,5.83,1.86C63.69,29.34,65.92,31.21,67.08,31.88Z" transform="translate(0)"/><path class="cls-11" d="M30.91,20.74c.11-2.09.13-4,2.7-4.18,2.18-.16,3.22,1.32,5,2.19.43-1.11,0-2.31.61-3.4a3.12,3.12,0,0,1,3.07-1.47c2.23,0,3,2,4.42,3.29.72-1.42,1.56-3.8,3.45-3.49a4.69,4.69,0,0,1,3.65,3.16c.9-1.5,2-4.07,4.09-2.71a7,7,0,0,1,2.89,4.77c.61-1,2.3-3.24,3.58-2.54,1.49.81,1.67,3.12,1.29,4.54.82-1,4-1.29,5-.49s.68,2.56,0,3.57c3.21.07,4.12,3.73.88,4.81-2.88,1-4.34-1.46-5.94-3.3-2.3,2.76-6.06.15-7.59-2-1.67,3.22-5.67,1.61-7.79,0-.54,1.37-.82,2.22-2.39,2.64a3.73,3.73,0,0,1-3.49-1c-.5,1-.81,1.83-2.14,2a3,3,0,0,1-2.68-1.4c-.18.88-.63,2.19-1.51,2.59-1.21.55-2.15-.4-3.12-.89-.12,1.19-.1,1.95-1.29,2.45S32,29.84,31,29.53c0,1.54-.27,3.22-2.25,3,.76,2.07,0,5.71-2.91,4.47-2.58-1.09-2-3.16.1-4.23-3.09-.18-2.66-5.74,0-6.14C23.46,23.4,25.26,18.41,30.91,20.74Z" transform="translate(0)"/><path class="cls-12" d="M36.84,50.34c1.48-1.58-3.52-1.15-4.26-.86.18,1,2.36.24,3,.32-.51.67-2.25.87-2.92,1.37s-.59.81.31.69A16.28,16.28,0,0,0,36.84,50.34Z" transform="translate(0)"/><path class="cls-12" d="M67,49.94c-1.29-1.58,3.05-1.15,3.69-.86-.16,1-2,.24-2.64.31.45.68,2,.89,2.53,1.39s.52.81-.26.68A13,13,0,0,1,67,49.94Z" transform="translate(0)"/><path class="cls-13" d="M69.33,53.06a2.79,2.79,0,0,1,.38.88c.82,3.25-6.4,2.31-7.25.91-1.59-2.63.82-3.33,2.64-3.34C66.49,51.5,68.43,51.74,69.33,53.06Z" transform="translate(0)"/><path class="cls-13" d="M41.64,53a2.49,2.49,0,0,1,.56.81c1.43,3.12-5.71,3.67-7.68,2.32-2.73-1.88.53-3.71,2.43-4C38.4,51.89,40.47,51.81,41.64,53Z" transform="translate(0)"/><path class="cls-7" d="M40.55,45.52c-4.24-1.14-6.9,3.58-4,5.12a9.38,9.38,0,0,1,4.19.22C43.57,49.94,43.7,46.38,40.55,45.52Z" transform="translate(0)"/><path class="cls-10" d="M56.79,55c-.84-.77-2.59.09-4.24.1-1.48,0-2.78-.65-4.17,0s.2,2.6,4.14,2.5S57.52,55.7,56.79,55Z" transform="translate(0)"/><path class="cls-13" d="M52.46,46.63c-3.35-.29-6,6.21-4.56,8.34,1,1.49,8.38,1.44,9.54-.31C57.86,54,55.66,46.91,52.46,46.63Z" transform="translate(0)"/><path class="cls-14" d="M39,46.35c-1.72.36-.41,2.46,1.26,1.7C41.52,47.5,40.57,46,39,46.35Z" transform="translate(0)"/><path class="cls-7" d="M41.4,38.43c3.1.41,5.16,1.73,3.07,3.24-1.25.9-3.65,0-6.67,0-2.85-.06-4.95,1.52-5.51-.45S37.66,37.94,41.4,38.43Z" transform="translate(0)"/><path class="cls-7" d="M62.7,38.21c-3,.47-4.93,1.82-3,3.27,1.17.87,3.46,0,6.33-.14,2.71-.12,4.68,1.41,5.24-.55S66.26,37.65,62.7,38.21Z" transform="translate(0)"/><path class="cls-7" d="M66.6,44.94c-4.35-.58-6.36,4.46-3.29,5.61a9.32,9.32,0,0,1,4.18-.34C70.18,48.91,69.83,45.36,66.6,44.94Z" transform="translate(0)"/><path class="cls-14" d="M65.22,46c-1.66.59-.08,2.5,1.48,1.52C67.82,46.77,66.69,45.43,65.22,46Z" transform="translate(0)"/><path class="cls-15" d="M51.9,73.55c-7.41-.11-10-4.46-12.63-9.73-.57-1.13-1-2.39-1.44-3.57-.8-1.94,1.35-.91,2.32-.78,6.08.83,20.09.74,25.56-1,.09,0,.46-.18.54-.08S64,61,63.67,61.36A6.84,6.84,0,0,0,62,64.89C61.69,68.94,59.58,73.68,51.9,73.55Z" transform="translate(0)"/><path class="cls-12" d="M38.8,58.7c.34-.14.69-.24,1-.33.12,0,1.42-.33,1.11-.5,0,0-3-.12-4.18.67s-1,3-.18,3.06.87-1.53,1.09-2A2,2,0,0,1,38.8,58.7Z" transform="translate(0)"/><path class="cls-12" d="M67.69,58c-.57-1.19-3.77-.49-3.77-.49-.54.14.47.33,1.78.65s0,2.25.88,2.37S68.26,59.24,67.69,58Z" transform="translate(0)"/><path class="cls-16" d="M39.61,60.51s10.68,3.28,24.65-.86a6.25,6.25,0,0,0-2.69,4.48c-.36,2.4-1.32,5.83-9.53,6.12C42.93,70.57,39.61,60.51,39.61,60.51Z" transform="translate(0)"/><path class="cls-17" d="M42.6,61.55A5.35,5.35,0,0,0,45.52,66a16.93,16.93,0,0,0,11.75.54c2.77-.82,4.36-5.76,4.36-5.76A73.32,73.32,0,0,1,42.6,61.55Z" transform="translate(0)"/><path class="cls-17" d="M43.72,66.4c-.28-.82-.27-1.75,1.25-1.09a24.15,24.15,0,0,0,9.08,1.3c3.9-.07,4.8-1.76,5.49-.89s-2,5.14-8.21,4.62C44.23,69.75,43.72,66.4,43.72,66.4Z" transform="translate(0)"/><path class="cls-18" d="M42.9,62.93s14.73-1.57,18-.29a8.2,8.2,0,0,0,.72-1.82s-10.42,1.63-19,.69A5.49,5.49,0,0,0,42.9,62.93Z" transform="translate(0)"/><path class="cls-18" d="M45.78,65.33a24.84,24.84,0,0,0,12.91.23S51.92,68.55,45.78,65.33Z" transform="translate(0)"/></g></g></g></svg>