<svg xmlns="http://www.w3.org/2000/svg" xmlns:xlink="http://www.w3.org/1999/xlink" viewBox="0 0 66 66"><defs><style>.cls-1{fill:none;}.cls-2{clip-path:url(#clip-path);}.cls-3{fill:#a6c4dd;}.cls-4{fill:#381d18;}.cls-5{fill:#ffc38f;}.cls-6{fill:#ebebeb;}.cls-7{fill:url(#linear-gradient);}.cls-8{fill:#fbfbfb;}.cls-14,.cls-19,.cls-8{opacity:0.7;}.cls-9{fill:#bc551e;opacity:0.3;}.cls-10{fill:#d14f2e;opacity:0.4;}.cls-11{fill:#593a2f;}.cls-12{fill:#ff7752;}.cls-13{fill:#261b18;}.cls-15{fill:#f04d4d;}.cls-16{fill:#8f3935;}.cls-17{fill:#fff9f0;}.cls-18{fill:#e8dac5;}.cls-19{fill:#f0ded1;}.cls-20{fill:#121b21;}</style><clipPath id="clip-path" transform="translate(0.01)"><circle class="cls-1" cx="33" cy="33" r="33"/></clipPath><linearGradient id="linear-gradient" x1="2801.97" y1="51.8" x2="2801.97" y2="55.34" gradientTransform="translate(-2767.63)" gradientUnits="userSpaceOnUse"><stop offset="0" stop-color="#eea17a"/><stop offset="0" stop-color="#eea17a"/><stop offset="0.36" stop-color="#f7b88e"/><stop offset="0.7" stop-color="#fdc69a"/><stop offset="1" stop-color="#ffcb9e"/></linearGradient></defs><g id="Layer_2" data-name="Layer 2"><g id="avatars"><g class="cls-2"><rect class="cls-3" width="66" height="66"/><path class="cls-4" d="M13.19,49.3C7.84,59.1,23.08,61.52,30.62,55c3.23-2.78,5.82,4.55,9.72,4.9,5.28.47,8.06-3.31,7-6.7.9,2.83,4,3,6.41,2a6.07,6.07,0,0,0,3.54-6,3.84,3.84,0,0,1-4.33.87,2.92,2.92,0,0,1-1.38-4.54c1.46-2.08,5.61-4.72,1.56-6.92a3,3,0,0,0,2.72.05c3.33-1.52,1.92-8.62-1.84-6.33,2.55-.09.09,4-1.34.91-.9-1.93,1.18-2.86,2.11-4.15a7.37,7.37,0,0,0,1.32-5.36c-.45-5.24-5.27-8.54-8-12.57C45,6.8,40.76,4,35.26,6A9,9,0,0,0,31.82,8.5a5.4,5.4,0,0,0-1.71-2.4C30,6.88,30,7.67,30,8.47c-3-1.83-7.68-1.09-10.28.6-3.53,2.29-3.2,5.81-4.63,9.25-1.3,3.15-5.44,6.81-5.17,10.46.16,2.28,1.79,3.47,1.69,5.82-.1,2-2.23,3-1.25,4.94s5,1.27,2.93,4.56c-1.87,3-5.53-.55-3.24-1-2.53-1.23-3.58,2-3.21,4C7.32,49.8,11.14,49.86,13.19,49.3Z" transform="translate(0.01)"/><path class="cls-5" d="M44.58,66c-.12-.75-.62-5.28-.8-6.12l-3.13.67c.18.8.49,4.6.59,5.45Z" transform="translate(0.01)"/><path class="cls-6" d="M39.13,61.7c-.4-1.82-1-2.46-1.1-2.47l.52-5.79c1.81.17,5,1.3,6.26,7Z" transform="translate(0.01)"/><path class="cls-5" d="M24.77,66c.13-.75.63-5.28.81-6.12l3.12.67c-.17.8-.48,4.6-.58,5.45Z" transform="translate(0.01)"/><path class="cls-6" d="M30,61.7l-5.69-1.23c1.24-5.73,4.45-6.86,6.26-7l.53,5.79C31,59.24,30.42,59.88,30,61.7Z" transform="translate(0.01)"/><path class="cls-6" d="M39.83,66a27.83,27.83,0,0,1,1-5.09c1.09-4.1,1.22-6.59-1.32-7.42s-7-1.08-9.7.07c-2.16.92-2.84,2.42-1.38,7A23.53,23.53,0,0,1,29.68,66Z" transform="translate(0.01)"/><path class="cls-7" d="M37.48,53.26c-.53-.94-.06-2.44,0-4,.21-3.62-6-3.76-6,.2,0,1.75.13,3.09-.23,3.66C28.73,57,39.82,57.46,37.48,53.26Z" transform="translate(0.01)"/><path class="cls-8" d="M29.29,60c.51,1.35,3.13,1.71,5.41,1.69,4.49,0,6.17-1.42,5.4-3.08-.21-.44-1.17-.75-2.32-.42a15,15,0,0,1-6.92-.12A1.38,1.38,0,0,0,29.29,60Z" transform="translate(0.01)"/><path class="cls-5" d="M50.29,30.26C49.87,18.78,41.35,13.88,33,15s-15,7.8-13.9,19.4S28,52.93,36.44,52.86C42.91,52.81,50.72,42.23,50.29,30.26Z" transform="translate(0.01)"/><path class="cls-5" d="M16.51,37.72a7.75,7.75,0,0,0,3.25.11.86.86,0,0,0,.07-.1c.46-.81-.49-4.68-.75-5.47-.67-2-1.72-3.37-3.64-2.69C11.45,31,13.19,36.77,16.51,37.72Z" transform="translate(0.01)"/><path class="cls-9" d="M22.08,28.12c0,.32,0,.64,0,1,0,1.4,1.23,3.6,1,5-.44,2.56-2.31,4.29.06,6.58-2.72,0-4.83-1.71-5-3.26-.4-3.86,1.67-2.83-.27-4.65-4-3.72-.69-4.16-.42-6.42s2.42-4.56,3.68-6.51c1.77-2.75,5-4,8.06-4.71a42.46,42.46,0,0,1,13.68-.7c2.12.23,4.4.24,5.56,2.36,1,1.73,2,4.92,1.34,6.81-.45,1.27-2.1,1.06-3.17,1.2a5.7,5.7,0,0,0-3.9,2.47c-1.74,2.36-2.79,4.09-6.94,4.09-2.55,0-5.62-3.75-3.53-5.9a3.16,3.16,0,0,0-1.8.33c-1.74.69-7.93,3-7.45-1.25A20.92,20.92,0,0,0,22.08,28.12Z" transform="translate(0.01)"/><path class="cls-10" d="M18.8,36.48c1.84-.81.43-4.13-.86-4.75-1.06-.51-3.84,0-2.7,1.95.81-1.62,1.92-.43,1.64.75-.19.78-1.2.72-.28,1.82A2.07,2.07,0,0,0,18.8,36.48Z" transform="translate(0.01)"/><path class="cls-4" d="M43.26,24.73a7.39,7.39,0,0,1,3.35-.6c2.6-.05,3.5-1.94,3.38-4.43C49.67,13,43.24,9.5,37.27,9a43,43,0,0,0-5.08-.61,19.08,19.08,0,0,0-8.33,2.44c-3.84,2-6.31,6.68-7.43,10.79A16.41,16.41,0,0,0,16,29.15c.47,2.2,3.31,3,3.48,5.29.08,1-.82,1.78-.79,2.75a3.15,3.15,0,0,0,1,2.18,5.37,5.37,0,0,0,2.4.73c-1.59-1.74-.05-2.75.09-4.46a13.21,13.21,0,0,0-.59-4.53A6.94,6.94,0,0,1,23.6,23c.25,3.12,3.44,3,5.72,2.54,1-.2,4-1.41,4.54.15.32,1-1.23,1.81-1.58.7,0,1.65,0,3,2,3.43a6.12,6.12,0,0,0,6.95-3A5.35,5.35,0,0,1,43.26,24.73Z" transform="translate(0.01)"/><path class="cls-11" d="M46.44,21.13a12,12,0,0,1-4.94,3.56,16.31,16.31,0,0,0-2.37,1.5c-1.09.7-3.11,1.49-4.42.87,1.51-1,.56-3.11-.88-3.44-1.83-.41-3.74.78-5.58.14-6-2.08,2.68-3.61,4.2-4.63a4.63,4.63,0,0,0,1.87-4.51A14.22,14.22,0,0,0,32,10.43a7,7,0,0,1,3.26-2c3.44-.92,8.41.75,10.49,3.67C48.29,15.7,48.24,18.75,46.44,21.13Z" transform="translate(0.01)"/><path class="cls-11" d="M19.61,26.46a6.16,6.16,0,0,0,.52,4c-1.71-.2-4.11-2.41-4.87-3.94-.93-1.86.12-3.24,1.22-4.84C19.71,17,18.18,10.46,25.78,10c3.91-.27,5.37,3,3.33,6.25C26.64,20.12,21,21.6,19.61,26.46Z" transform="translate(0.01)"/><path class="cls-12" d="M47.76,37.2a1.39,1.39,0,0,1,.16.51c.27,1.87-3.68,1-4.07.2-.73-1.55.65-1.84,1.65-1.77A2.69,2.69,0,0,1,47.76,37.2Z" transform="translate(0.01)"/><path class="cls-12" d="M28.46,37.07a1.88,1.88,0,0,1,.27.55c.61,2.11-3.88,2.05-4.44,1.18-1.08-1.63.39-2.29,1.51-2.44A2.77,2.77,0,0,1,28.46,37.07Z" transform="translate(0.01)"/><path class="cls-13" d="M49.39,28.9c-1.21-1.51-5.68-1.55-7.32.17C44.26,29.28,46.1,28.63,49.39,28.9Z" transform="translate(0.01)"/><path class="cls-10" d="M38.79,37.86c.27.31-.59,1.17-1.63,1.26s-2.06-.94-1.54-1.23.82,0,1.57,0S38.46,37.5,38.79,37.86Z" transform="translate(0.01)"/><path class="cls-13" d="M22.48,28.6c1.82-1.59,6.87-1.72,8.37.21C28,28.88,26.6,28.69,22.48,28.6Z" transform="translate(0.01)"/><g class="cls-14"><path class="cls-15" d="M44.85,40.22c-2.37.54-4.69.2-8.25.27-2.94.06-7.27.9-9.58-.46,3.78,6.49,6.15,7.7,9.17,7.93,3.78.29,5.11-2.33,5.71-4.3A11.38,11.38,0,0,1,44.85,40.22Z" transform="translate(0.01)"/></g><path class="cls-16" d="M28.79,41.17a29.61,29.61,0,0,0,14.5,0,4,4,0,0,0-1.93,2.16c-.58,1.46-2.58,2.45-5.6,2.35C31.05,45.53,28.79,41.17,28.79,41.17Z" transform="translate(0.01)"/><path class="cls-17" d="M30.53,41.58a2.36,2.36,0,0,0,1.79,1.84,15.24,15.24,0,0,0,6.85.4c1.61-.23,2.44-2.28,2.44-2.28A31.72,31.72,0,0,1,30.53,41.58Z" transform="translate(0.01)"/><path class="cls-17" d="M31.29,43.48c-.15-.34-.08-.89.68-.37,1.07.73,2.86.91,5,.85s3-.64,3.4-.26-1.42,2.5-4.85,2S31.29,43.48,31.29,43.48Z" transform="translate(0.01)"/><path class="cls-18" d="M31,42.51s8.06-.59,10,.17a4.32,4.32,0,0,0,.68-1.14,36.38,36.38,0,0,1-11.08,0A2.12,2.12,0,0,0,31,42.51Z" transform="translate(0.01)"/><path class="cls-18" d="M32.61,43.38a11.14,11.14,0,0,0,6.35.38S35.47,45.22,32.61,43.38Z" transform="translate(0.01)"/><path class="cls-13" d="M27.67,35.11a3,3,0,0,0-2.11,0c-1.51-1.19-.4-5.18,1.77-4.37C28.94,31.3,29,34.26,27.67,35.11Z" transform="translate(0.01)"/><path class="cls-19" d="M27.67,32c.79-.12,1,1.17.37,1.51C27.11,34,26.77,32.15,27.67,32Z" transform="translate(0.01)"/><path class="cls-13" d="M46.4,30.74c1.17.74,1.08,3,.25,4.12a2.63,2.63,0,0,0-1.91.31C42.32,34.44,44.23,29.35,46.4,30.74Z" transform="translate(0.01)"/><path class="cls-19" d="M46.28,31.82c.76,0,.86,1.33.19,1.58C45.54,33.75,45.42,31.84,46.28,31.82Z" transform="translate(0.01)"/><path class="cls-20" d="M51.21,31.42a4.12,4.12,0,0,1-5.07.37,1.85,1.85,0,0,0-2.32.44s.65-2.37,2.65-1.6C47.54,31,48.77,32.24,51.21,31.42Z" transform="translate(0.01)"/><path class="cls-20" d="M20.77,31.71a4.52,4.52,0,0,0,5.31.19,2.09,2.09,0,0,1,2.42.19S28,29.75,25.88,30.8A6.45,6.45,0,0,1,20.77,31.71Z" transform="translate(0.01)"/></g></g></g></svg>