<svg xmlns="http://www.w3.org/2000/svg" xmlns:xlink="http://www.w3.org/1999/xlink" viewBox="0 0 66 66"><defs><style>.cls-1{fill:none;}.cls-2{clip-path:url(#clip-path);}.cls-3{fill:#fff;}.cls-4{fill:#912907;}.cls-5{fill:#801a00;}.cls-6{fill:#d4557d;}.cls-7{fill:#53525c;}.cls-8{fill:#41404a;}.cls-9{fill:#8a8899;}.cls-10{fill:#d7dcde;}.cls-11{fill:#f29661;}.cls-12{fill:#f5aec4;}.cls-13{fill:#fab077;}.cls-14{fill:#591702;}.cls-15{fill:#f59a62;}.cls-16{fill:#283b21;}.cls-17{fill:#c90b00;}.cls-17,.cls-21,.cls-29{opacity:0.3;}.cls-18{fill:#8f2f2b;}.cls-19{fill:#fff2de;}.cls-20{fill:#e8d3b5;}.cls-21{fill:#bf3c1b;}.cls-22{fill:#82a375;}.cls-23{fill:#a61900;opacity:0.2;}.cls-24{fill:#ffbe8a;}.cls-25{fill:#1f1a17;}.cls-26{fill:#f7985c;}.cls-27{fill:#e6864a;}.cls-28{fill:#9c340b;}.cls-29{fill:#5e0900;}.cls-30{fill:#c21f22;}.cls-31{fill:#d62325;}.cls-32{fill:#ff4044;}.cls-33{fill:#ea3336;}.cls-34{fill:#b01518;}.cls-35{fill:#f73e40;}.cls-36{fill:#f3373b;}.cls-37{fill:#f0383a;}</style><clipPath id="clip-path" transform="translate(0)"><circle class="cls-1" cx="33" cy="33" r="33"/></clipPath></defs><g id="Layer_2" data-name="Layer 2"><g id="avatars"><g class="cls-2"><rect class="cls-3" width="66" height="66"/><path class="cls-4" d="M52.82,34.15c2.47-.09.09,3.83-1.29.88s2.22-3.3,1.46-6.38c-.48-2-1.36-2.07-2-4.09C49.37,19.63,47.82,13.73,44,10,38.61,4.69,15,3.94,11.77,23.55c-.26,1.6,1.41,12,1.3,14.31-.08,1.89-1.24,1.79-.29,3.64s2.7.79.72,4c-1.8,2.91-5.34-.53-3.12-1-2.44-1.19-3.46,2-3.1,3.87.5,2.63,4.18,2.68,6.16,2.14-5.16,9.46,12.43,6.75,16.47,8.42,3.8,1.58,5.78,3.7,9.73,1.84,2-1,7.77-3.2,6.73-6.46,1.17,3.68,6.16,3.1,5.9-.48-1.72.58-1.94-1-.66-3.55a4.4,4.4,0,0,0,.26-3.34c-.41-1.31-.8-1.41.38-2.41,1.55-1.32,2-3.06-.27-4.29a2.85,2.85,0,0,0,2.62,0C57.81,38.79,56.45,31.94,52.82,34.15Z" transform="translate(0)"/><path class="cls-5" d="M49.63,34.24c-1-2.77-5.24-2.58-7.56-2.56a47.48,47.48,0,0,0-9.89.76A10.17,10.17,0,0,0,28.24,34c-.88.61-2.14,1.89-3.31,1.77-.58-.06-.32-.38-.76-.57A13.3,13.3,0,0,0,21.63,34a4.8,4.8,0,0,0-4.89,3.15c-.46,1.9.56,3.72,1.3,5.36a8.25,8.25,0,0,1-2.18,9.67c-1.41,1.31-1.84,2.38.18,3.7,3.27,2.12,9.53,1.47,13.23,1.46s10.11.51,13.87-.29c2.41-.52,3.24-1.24,2.87-4.74.71.88,1.66,2.32,3,2.31-1.22-2.3,0-4.94.34-7.31.35-2.58-.12-5.18,0-7.78C49.37,37.88,50.18,35.83,49.63,34.24Z" transform="translate(0)"/><path class="cls-6" d="M26.84,57.9l-1.2-3.54c-2.77,1.19-4,4-4.62,6.93-.31,1.37-.64,2.82-1.24,4.71H24.6C25.24,63.16,26.2,58.23,26.84,57.9Z" transform="translate(0)"/><path class="cls-6" d="M43,54.36l-1.2,3.54c.64.33,1.6,5.26,2.25,8.1h4.81c-.59-1.89-.93-3.34-1.23-4.71C47,58.41,45.74,55.55,43,54.36Z" transform="translate(0)"/><path class="cls-6" d="M43,54.36c-.86-.43-2.77-1-3.43-1.45-2-1.43-6.25-1.45-11.2.4l-2.44.93c-2.17.86-.24,3.12-.73,5.24-.14.62-.43,1.45-.52,2.08A5.32,5.32,0,0,0,25.8,66H42.69a5,5,0,0,0,1.19-2.54C44.09,62.2,44,54.87,43,54.36Z" transform="translate(0)"/><path class="cls-7" d="M44,63.31c-2.52,0-2.06-9.44-2.06-9.44l-2.29-.94a25,25,0,0,1,0,8.09A29.41,29.41,0,0,1,28.8,60.9a32,32,0,0,1,.58-8L27,53.64c.58,10.76-2.51,9.53-2.51,9.53A21,21,0,0,0,25.25,66H43.11A19.54,19.54,0,0,0,44,63.31Z" transform="translate(0)"/><path class="cls-8" d="M29.39,63.53a24.78,24.78,0,0,0,9.36-.28S31.48,63.65,29.39,63.53Z" transform="translate(0)"/><path class="cls-9" d="M29.25,63.47s-.16,1.26-.19,1.34c.59.07,1.15.21,1.75.27a28.28,28.28,0,0,0,5.36.11,5,5,0,0,0,2.33-.58c.32-.25.18-1.38.43-1.44A26.45,26.45,0,0,1,29.25,63.47Z" transform="translate(0)"/><path class="cls-10" d="M27.28,61.46a.86.86,0,1,0,.72.85A.79.79,0,0,0,27.28,61.46Z" transform="translate(0)"/><path class="cls-10" d="M41.05,61.68a.85.85,0,0,0,0,1.69.86.86,0,0,0,0-1.69Z" transform="translate(0)"/><polygon class="cls-8" points="28.58 63.31 26.92 64.53 25.76 62.97 25.73 63.09 26.87 65.07 28.85 63.59 28.84 60.94 28.58 63.31"/><polygon class="cls-8" points="39.76 63.76 39.67 61.04 39.49 63.97 41.41 65.37 42.94 63.01 41.32 64.75 39.76 63.76"/><path class="cls-11" d="M34.23,47a3.24,3.24,0,0,0-3.89,1.72,11.67,11.67,0,0,0-.41,3.61C29.79,57.12,36.27,58.12,38,54A5.17,5.17,0,0,0,34.23,47Z" transform="translate(0)"/><path class="cls-12" d="M37.72,53.45c-.68,2.07-2.78,3-5.17,2.27-1.22-.38-1.9-2-2-3.15-.06-.8-.34-2.21-.85-.48a4.09,4.09,0,0,0,1.39,4.23c2.57,1.92,6.87.8,7.43-1.91a6.21,6.21,0,0,0-.12-2.87C37.9,50.91,37.83,53.11,37.72,53.45Z" transform="translate(0)"/><path class="cls-13" d="M32.54,17.35c-8.06,1-14.46,7.53-13.4,18.71S27.74,54,35.87,53.92c6.25-.05,13.78-10.26,13.36-21.8C48.83,21,40.61,16.32,32.54,17.35Z" transform="translate(0)"/><path class="cls-14" d="M46.07,27.46c-1.24-.21-3.81.3-3.35,2.17.14.58.45.62.86.34s.42-.85.72-1.14c1.48-1.39,4,0,4.69,1.47A3.55,3.55,0,0,0,46.07,27.46Z" transform="translate(0)"/><path class="cls-14" d="M25.31,28.43a3.54,3.54,0,0,0-2.71,3.25c.53-1.57,3-3.31,5-2.15.4.24.65.85,1.05,1s.86.13.9-.46C29.7,28.17,26.68,28,25.31,28.43Z" transform="translate(0)"/><path class="cls-15" d="M47.66,37.31a3.07,3.07,0,0,0-2.59-1.22c-1.16-.08-2.75.27-1.91,2.06.44,1,5,1.91,4.68-.25A1.77,1.77,0,0,0,47.66,37.31Z" transform="translate(0)"/><path class="cls-15" d="M27.61,37.09a3.43,3.43,0,0,0-3.06.1c-1.13.47-2.47,1.52-.8,2.77.89.66,5.66-.59,4.33-2.42A2.21,2.21,0,0,0,27.61,37.09Z" transform="translate(0)"/><path class="cls-16" d="M27.23,31.63c-2.09-.77-3.29,3-1.56,4.32a1.84,1.84,0,0,1,1.87-.21C28.87,35,28.79,32.21,27.23,31.63Z" transform="translate(0)"/><path class="cls-17" d="M36.22,41.94a27.29,27.29,0,0,1-4.52,0,10.2,10.2,0,0,1-4.09-1.41,15.57,15.57,0,0,0,1.29,3.07,11.82,11.82,0,0,0,1.64,2.27,8,8,0,0,0,5.94,2.76c4.25,0,4.81-2.69,5-4.69.09-1.22,1.32-2.05,1.9-3.15a2.4,2.4,0,0,0,.28-.83,9,9,0,0,1-3.18,1.47A37.25,37.25,0,0,1,36.22,41.94Z" transform="translate(0)"/><path class="cls-18" d="M29.05,42.07S31,47,36,46.69c4.53-.25,5-1.95,5.22-3.14a3.14,3.14,0,0,1,1.46-2.24A19.55,19.55,0,0,1,29.05,42.07Z" transform="translate(0)"/><path class="cls-19" d="M30.71,42.54a2.56,2.56,0,0,0,1.64,2.17,10.4,10.4,0,0,0,6.49.11c1.52-.44,2.36-2.9,2.36-2.9A22.75,22.75,0,0,1,30.71,42.54Z" transform="translate(0)"/><path class="cls-19" d="M37.06,44.88a14.74,14.74,0,0,1-5-.52c-.85-.31-.85.15-.68.55,0,0,.3,1.65,4.22,1.84,3.44.17,4.89-2,4.5-2.38S39.21,44.79,37.06,44.88Z" transform="translate(0)"/><path class="cls-20" d="M30.7,42.52a2.72,2.72,0,0,0,.41,1.25s7.67-1.15,9.49-.56a7.05,7.05,0,0,0,.6-1.29A25.27,25.27,0,0,1,30.7,42.52Z" transform="translate(0)"/><path class="cls-20" d="M32.49,44.36a10,10,0,0,0,7.12-.07A15.24,15.24,0,0,1,32.49,44.36Z" transform="translate(0)"/><path class="cls-21" d="M36.67,38.17c-1.11,0-1.62-.32-2.34.07s.47,1.82,2.43,1.69,2.76-1.54,2.29-1.92S37.91,38.11,36.67,38.17Z" transform="translate(0)"/><path class="cls-16" d="M46.74,31.06c-2.16-1.31-3.79,3-1.67,3.92a2.31,2.31,0,0,1,1.93.29C48,34.43,47.9,31.77,46.74,31.06Z" transform="translate(0)"/><path class="cls-22" d="M26.88,32.54c-.88,0-.76,1.76.19,1.44C27.76,33.75,27.66,32.53,26.88,32.54Z" transform="translate(0)"/><path class="cls-22" d="M45.94,32c-.86,0-.85,1.7.1,1.43C46.73,33.26,46.71,32.05,45.94,32Z" transform="translate(0)"/><path class="cls-13" d="M15.62,31.45c-3.86,1.36-2.18,7,1,7.86a7.57,7.57,0,0,0,3.14.11l.06-.1c.45-.78-.46-4.51-.72-5.28C18.48,32.12,17.47,30.79,15.62,31.45Z" transform="translate(0)"/><path class="cls-23" d="M42,16.79a40.86,40.86,0,0,0-13.19.67c-3,.67-6.07,1.89-7.78,4.54-1.21,1.89-3.27,4-3.55,6.29s1.21,3.84,2.12,5.66c1.15,2.3.1,4.06.17,6.37.05,1.5.79,1.79,2.21,1.84-2.29-2.22-.16-4.87.26-7.33.23-1.32-.32-2.5-.3-3.86,0-.3,0-.61.05-.91a21.19,21.19,0,0,1,.83-3.52c-.47,4.13,5.5,1.87,7.18,1.2a3.12,3.12,0,0,1,1.74-.32c-2,2.08.94,5.69,3.41,5.69,4,0,5-1.66,6.69-3.94a5.54,5.54,0,0,1,3.77-2.38c1-.13,3.18.58,3.62-.64.64-1.83-.16-5.31-1.07-7C47.06,17.13,44.08,17,42,16.79Z" transform="translate(0)"/><path class="cls-21" d="M18,33.53c-1-.49-3.71,0-2.61,1.88.78-1.56,1.85-.41,1.58.72-.18.77-1.16.7-.26,1.76a2,2,0,0,0,2.12.22C20.63,37.34,19.27,34.13,18,33.53Z" transform="translate(0)"/><path class="cls-4" d="M36.67,11.58a40,40,0,0,0-4.9-.59,18.26,18.26,0,0,0-8,2.35c-3.7,2-6.09,6.44-7.17,10.41a15.84,15.84,0,0,0-.46,7.3c.45,2.11,3.19,2.91,3.35,5.1.08,1-.79,1.71-.76,2.65a3.05,3.05,0,0,0,.93,2.11A5.17,5.17,0,0,0,22,41.6c-1.53-1.67-.05-2.65.09-4.29a13,13,0,0,0-.57-4.37,6.71,6.71,0,0,1,2-7.87c.25,3,3.32,2.89,5.53,2.46,1-.2,3.86-1.36,4.37.13.31.94-1.18,1.75-1.52.68,0,1.59.05,2.9,2,3.31a5.9,5.9,0,0,0,6.71-2.88,5.13,5.13,0,0,1,1.93-2,7.18,7.18,0,0,1,3.23-.58c2.51-.05,3.38-1.87,3.27-4.27C48.64,15.43,42.43,12.09,36.67,11.58Z" transform="translate(0)"/><path class="cls-24" d="M36.65,39c1.62-.09,3.45-.53,2-2.47C36.07,33.13,31.08,39.3,36.65,39Z" transform="translate(0)"/><path class="cls-25" d="M25.78,31.68a5.36,5.36,0,0,1-4.08,1.43,3.78,3.78,0,0,0,4.4-.55,1.74,1.74,0,0,1,2-.18A1.47,1.47,0,0,0,25.78,31.68Z" transform="translate(0)"/><path class="cls-25" d="M47,31.17c-1.57-1.15-2.51.71-2.51.71a1.73,1.73,0,0,1,2,.17,3.77,3.77,0,0,0,4.4.56A4.88,4.88,0,0,1,47,31.17Z" transform="translate(0)"/><path class="cls-26" d="M35.83,34.53c-.46.08-.8.4-.76.72s.45.5.91.41.8-.4.76-.71S36.29,34.45,35.83,34.53Z" transform="translate(0)"/><path class="cls-26" d="M34.55,35.9c-.31.19-.48.53-.37.74s.46.24.78,0,.48-.53.37-.75S34.87,35.7,34.55,35.9Z" transform="translate(0)"/><path class="cls-26" d="M40.15,35.33c-.34-.14-.68-.06-.76.18s.15.53.49.66.68.06.76-.18S40.5,35.46,40.15,35.33Z" transform="translate(0)"/><path class="cls-26" d="M31.59,34.49c-.35.09-.58.35-.51.59a.64.64,0,0,0,.78.26c.36-.09.59-.35.52-.59S32,34.4,31.59,34.49Z" transform="translate(0)"/><path class="cls-27" d="M27.59,36.66c-.36,0-.66.2-.66.45s.29.45.66.45.66-.2.66-.45S28,36.66,27.59,36.66Z" transform="translate(0)"/><path class="cls-27" d="M43.52,36.72c-.36,0-.66.2-.66.44s.29.46.66.46.66-.2.66-.45S43.88,36.72,43.52,36.72Z" transform="translate(0)"/><path class="cls-27" d="M24.63,36.56c-.45.15-.74.52-.64.82s.55.42,1,.27.74-.52.64-.82S25.09,36.41,24.63,36.56Z" transform="translate(0)"/><path class="cls-27" d="M28.86,35.84c-.37,0-.63.27-.57.51s.39.4.75.36.63-.27.58-.51S29.23,35.8,28.86,35.84Z" transform="translate(0)"/><path class="cls-27" d="M47.47,36.57c-.33-.18-.67-.13-.76.1s.1.55.43.72.67.13.76-.1S47.8,36.74,47.47,36.57Z" transform="translate(0)"/><path class="cls-26" d="M34.3,34.2c-.26,0-.44.23-.41.41s.25.29.5.24.44-.23.41-.41S34.55,34.16,34.3,34.2Z" transform="translate(0)"/><path class="cls-27" d="M26.05,37.65c-.25.05-.43.23-.41.4s.26.29.51.24.43-.22.41-.4S26.3,37.6,26.05,37.65Z" transform="translate(0)"/><path class="cls-26" d="M41.08,34.68c-.24-.08-.48,0-.53.16s.1.38.35.47.48,0,.53-.16S41.32,34.77,41.08,34.68Z" transform="translate(0)"/><path class="cls-27" d="M45.88,37.08c-.25-.08-.49,0-.54.16s.11.38.35.47.49,0,.54-.16S46.12,37.17,45.88,37.08Z" transform="translate(0)"/><path class="cls-26" d="M39.67,33.87c-.31,0-.58.09-.6.31s.21.43.52.48.57-.09.6-.31S40,33.91,39.67,33.87Z" transform="translate(0)"/><path class="cls-26" d="M32.55,37c-.36.1-.59.38-.53.62s.39.35.74.25.59-.39.53-.63S32.9,36.87,32.55,37Z" transform="translate(0)"/><path class="cls-26" d="M37.73,33.94c-.43-.07-.81.12-.85.42s.27.6.7.67.82-.11.86-.41S38.16,34,37.73,33.94Z" transform="translate(0)"/><path class="cls-27" d="M42.55,35.43c-.43-.07-.81.11-.85.41s.27.61.71.68.81-.12.85-.42S43,35.5,42.55,35.43Z" transform="translate(0)"/><path class="cls-26" d="M29.56,37.07c-.44,0-.78.25-.76.55s.38.55.82.54.78-.25.76-.55S30,37.06,29.56,37.07Z" transform="translate(0)"/><path class="cls-27" d="M44.82,35.52c-.43,0-.78.25-.76.56s.38.54.82.54.78-.25.77-.56S45.26,35.52,44.82,35.52Z" transform="translate(0)"/><path class="cls-26" d="M38.56,35.35c-.41-.18-.83-.11-.92.16s.17.62.58.8.83.11.93-.15S39,35.53,38.56,35.35Z" transform="translate(0)"/><path class="cls-26" d="M31.16,35.8c-.49.08-.85.41-.8.74s.47.54.95.47.85-.4.81-.74S31.65,35.73,31.16,35.8Z" transform="translate(0)"/><path class="cls-26" d="M33.12,35.17c-.47.17-.77.57-.67.88s.55.45,1,.28.76-.57.67-.88S33.59,35,33.12,35.17Z" transform="translate(0)"/><path class="cls-26" d="M41.28,36.52c-.49-.07-.92.15-1,.48s.33.66.81.73.92-.15,1-.48S41.76,36.59,41.28,36.52Z" transform="translate(0)"/><path class="cls-28" d="M43.85,22.4h0c-1.12-.41-1.59.34-2.64.6-1.57.38-2.77-.27-4.14-.83-2.42-1-5.6,1.07-7.92,2.32-.91.49-2.3,1-2.73,2,2.27.82,4.58-1.3,7-.71,1.36.32,2.23,2.32.81,3.24,1.22.6,3.13-.13,4.16-.78a16,16,0,0,1,2.26-1.39c1.25-.53,3.7-1.16,4.38-2.48C45.38,23.66,44.53,22.68,43.85,22.4Z" transform="translate(0)"/><path class="cls-29" d="M43.06,14c-3.75-1.23-7.51-.62-11.23-1.83a17.27,17.27,0,0,0-5-.53c-1.89,0-3.67-.46-5.58-.37.77,1.53.25,2.72,1.7,4,0,0,0,0,0,0C19,15.74,14.37,17.78,12.66,22c-1.17,2.87.29,8,2.67,9.77s3.37-1,4.94-2.31a38.82,38.82,0,0,1,6.86-4.88,44.44,44.44,0,0,1,8.08-3.28,3.22,3.22,0,0,0,.73-.44c1.65,1.65,4.23,1.07,6.11.42,1.44-.51,1.19-.49,2.64.42.91.56,2.67,2,3.75,2,1.82,0,1.61-5,1-6C48.39,15.71,45.06,14.63,43.06,14Z" transform="translate(0)"/><path class="cls-30" d="M27.94,15.69C14,16.24,10.3,23.61,10.5,25.49c.18,1.71,1,5.39,1.51,11.49.11,1.22.94,1.4,1.39.41,1.74-3.85,5.72-8.82,11.87-12.57,6.3-3.83,15.79-5.71,16.08-8.32S33,15.49,27.94,15.69Z" transform="translate(0)"/><path class="cls-31" d="M27.85,16a23.35,23.35,0,0,0-8.65,2c-3,1.35-4.95,5.43-3.57,8.7,1.82,4.35,7.46-1.8,9.92-3.17,3-1.7,6.59-2.12,9.72-3.75l1.2-1.3a3.05,3.05,0,0,0,.34-.61C37.9,15.11,29.21,16,27.85,16Z" transform="translate(0)"/><path class="cls-32" d="M26.19,19a1.81,1.81,0,0,1,.92,1.08c.29.82,1.35,0,.78-.73S26.19,19,26.19,19Z" transform="translate(0)"/><path class="cls-32" d="M29.14,18.64a7.61,7.61,0,0,0-9.08.6c.94-.51,4.69-.8,5.52,2S33,21.08,29.14,18.64Zm.71,1.44c-.15.42-1.25-.36-1.12.39,0,.17.66.46.43.72s-.43-.25-.57-.31c-.91-.39-.42.6-.5,1.08-.73.1-.3-.73-.76-.91s-.48.66-.91.6c-.82-.12.37-1,0-1.2a.51.51,0,0,0-.26-.05c-.19,0-.9.46-.7-.2.05-.2.82-.37.39-.68s-.67.41-1,.1.31-.34.09-.61-1.64.65-.89-.44c-.52-.28-.87.63-1.35.2.05-.05.1-.17.14-.21-.13,0-.29-.09-.42-.11a.47.47,0,0,1,.49-.34c.19,0,.36.3.49.27.28-.07,0-.25.14-.34.59-.46.2,0,.66.21,0-.32.12-.66.45-.48.11.05-.06.36.13.44s.21-.13.31-.2-.08-.34.24-.35.14.15.22.24-.17.38.14.4.13-.21.23-.29.3-.54.61-.11c.19.27-.16.75.41.45.2-.1.22-.77.58-.16.16.25-.3.67.34.6.2,0,.23-.4.47-.38.44.05.18.72.17.95.16-.07.46-.33.64-.26,0,.12-.1.23-.1.35,0,.39-.39.29.08.42C29.25,19.9,30,19.58,29.85,20.08Z" transform="translate(0)"/><path class="cls-30" d="M50.49,16.91c-.88-1.32-7.39-1.93-11.65-1.59s-7.86,4-1.56,4a21.24,21.24,0,0,1,13.46,5.56c.78.86,1.49,0,1.25-.75C51.42,22.47,51.37,18.22,50.49,16.91Z" transform="translate(0)"/><path class="cls-33" d="M49.93,23c.23-.27,1,.27,1-.28s-.64-.23-.91-.27-1-.48-.59-.84.9.29.94-.27c0-.74-1.86.13-1.41-.71.14-.27.78,0,.79-.4s-.6-.08-.8-.08c-.35,0-1.07-.35-.71-.75s.75.29,1.08.1-.64-.48-.73-.62c-.41-.59.24-.41.52-.34s.8.56.62-.08c-.08-.3-.78-.28-.64-.71s.66.32.94.23c.48-.15-.35-.54-.38-.74-.09-.46.41-.36.73-.39-.91-1.09-2.73,1.76-3.17,2.26a13.71,13.71,0,0,0,1.39,2.34c.51.56.45,1.29.85,1.85a1.44,1.44,0,0,0,.27.28A7.64,7.64,0,0,0,51,24.3C50.75,24.16,49.66,23.32,49.93,23Z" transform="translate(0)"/><path class="cls-29" d="M43.05,16.2c-1.88.17-3.17,1.3-1.68,3l1.28.32c1.44.42,3.79,2.44,5.22,2.25S47,20.6,46.94,20c-.06-1.27,2.9-.86,3.08-2.29C50.26,15.61,44.2,16.09,43.05,16.2Z" transform="translate(0)"/><path class="cls-29" d="M29.69,16.34a31.83,31.83,0,0,0-5.32.83c-.54.14-4.12.75-2.63,1.67a6.21,6.21,0,0,0,2.37.2c.21,0,3.13.07,3,.35-.36.79-1.95,1.56-.72,2.11.88.39,2.48-.28,3.31-.53a33.89,33.89,0,0,1,4.21-1,14.28,14.28,0,0,0,1.69-.24,1.47,1.47,0,0,0,.8-.5C38.51,16.38,30.87,16.26,29.69,16.34Z" transform="translate(0)"/><path class="cls-31" d="M31.65,9.33c-3.22-.65-6.32,1.18-9.52,1.3,3.32,6.64,7.72,9.72,14.43,6.72a30.33,30.33,0,0,1,2.89-1.2l-1.83-2.09C35.27,12.07,35,10,31.65,9.33Z" transform="translate(0)"/><path class="cls-34" d="M30.71,11.94c.75.81,2.31,1.71,2.58,2.79-.7.24-2.31-.62-3.06-.8-1.07-.25-2.11-.54-3.15-.88a7.92,7.92,0,0,0,8.85,4.49c.56-.14,1.39-.36,1.65-.9l-1.79-1.38C35.25,13.33,32.68,11.89,30.71,11.94Z" transform="translate(0)"/><path class="cls-31" d="M44.89,10a11.57,11.57,0,0,0-6.24,7.14c2.79.3,5.11,2.89,7.79,1.82,3.18-1.27,5.47-5.19,6.16-8.93C50.81,10.27,46.59,9.2,44.89,10Z" transform="translate(0)"/><path class="cls-34" d="M42.89,15.32l-1.56.31c-.82,3.49,4.59,1.86,5.92.43-.42-.19-.92-.06-1.38-.19.61-1.37,2.07-1.88,2.35-3.59C46.21,12.89,44.86,14.68,42.89,15.32Z" transform="translate(0)"/><path class="cls-31" d="M41.25,12.59c-1.31-.2-4.45-.93-5.31.44-.61,1-.55,4.35-.36,5.43.43,2.28,3.2,2.62,5.21,2.49,2.51-.15,3.25-3.05,3.39-5.18C44.3,13.8,43.11,12.88,41.25,12.59Z" transform="translate(0)"/><path class="cls-35" d="M41.83,12.89l-1.19-.17c-1.22.06-2.53-.26-3.61.48s-.46,1.41-.81,2.43c.23-.38.28-.88.51-1.29.44,1.35,1,.53.67-.51-.06,0,.32-.12.28-.1.11.35.19.72.32,1.07.87,2.34.59-.66,1.1-1,1-.66.19,2.52.56,2.78,1,.67.87-2.45,1-2.85,1,.4-.11,2,.75,2.21s.37-1.64.64-2c1,.53.11,1.35.56,2s.57-1.1.65-1.23c.83.4.36,1.64.41,2.39l.08,0C44.43,15.67,43.53,13.13,41.83,12.89Z" transform="translate(0)"/><path class="cls-35" d="M31.26,9.53c-2.05-.22-3.93.54-5.93,1a8,8,0,0,0-2.48.6,8.06,8.06,0,0,0,1.78,2.52c.29-.8-1.09-1.39-1.06-1.54.17-.76.84-.19,1.35-.05-.27-.26-.25-.53-.35-.86.5.13.83.45,1.34.4-.26-.45-.23-.72.22-.8s.62.61,1.1.54c.16,0-.22-.67.28-.78s.31.78.91.52c.11,0,.12-.86.12-1,.73.23.24,1,1.18,1.06l0,0a1.2,1.2,0,0,1,0-1c.52.22.33.87.54,1,1,.71.36-.26.63-.46s.11-.76.82-.14c.32.27-.51,1,.43,1,0-.3.16-.66.17-.92,1,.13.19.86.64,1.19s.54-.19.4-.58a18.45,18.45,0,0,1,2.11,2l-.44-.83C34,10.68,33.28,9.75,31.26,9.53Z" transform="translate(0)"/><path class="cls-35" d="M50,10.53c-1.52,0-3.05-.42-4.57-.22s-2.14,1.12-3.21,2.13c.25-.23,1-.26,1.35-.47.54-.32.84-1,1.53-1.07a1.55,1.55,0,0,1-.34.94c.93.23,1-1.74,1.83-1.12.22.17-.75.89.08,1.09.51.12.8-.89,1.22-.93.6-.07.75.3.48.84.75.14,1.34-.88,2-.54.35.17-.83.74.19.87,0,0,.58-.62.79-.69s-.83,1.17-.82,1.14a3.93,3.93,0,0,0,0,1.64c.58-1.09,1.52-2.31,1.45-3.62A12,12,0,0,0,50,10.53Z" transform="translate(0)"/><path class="cls-34" d="M37.46,18.53a3.29,3.29,0,0,1-1.56-1.1c-.38,3.46,5.55,4.28,7.3,1.72a4,4,0,0,0,.63-1.82l-.28.5C43.09,20.22,39,19.16,37.46,18.53Z" transform="translate(0)"/><path class="cls-32" d="M15.65,19.65c.44-.15.12.74.12.76.32,1.69,1.06-.86,1.84-.11-.24.37-.39,1.18.38,1s.29-1.37,1.3-.67a1.05,1.05,0,0,0-.26.6c.27,1.76.75-.26,1.26-.35.87-.15-.25,1.85.9,1.37.36-.15.06-.79.59-.78s.28.56.4.76c.69,1.13.5,0,1-.28,1-.46.82.85,0,1.2-.23.1-.81-.08-.85.32s.49.12.66.21c.72.36.67.47-.11.73-.37.12-1.46.31-.68.83.18.11,1.5-.21.52.58-.2.15-.55-.05-.77.09s-.34.72-.44,1a4,4,0,0,0,2.32-2.65c.35-.8.74-1.69,1.07-2.46l-3.83-1.05C19.8,20.37,16.93,19.23,15.65,19.65Z" transform="translate(0)"/><path class="cls-32" d="M17.69,24.72c-1.16.44-.58,2,.32,1.32a2.42,2.42,0,0,1,1.76-.54S18.85,24.28,17.69,24.72Z" transform="translate(0)"/><path class="cls-32" d="M38.1,17.25a2.1,2.1,0,0,1-1.42-.91s-.45,1.34.54,1.89S39.15,17.46,38.1,17.25Z" transform="translate(0)"/><path class="cls-32" d="M42.19,16.89a1.76,1.76,0,0,1-.66,1.2s1.16.18,1.55-.65S42.3,16.05,42.19,16.89Z" transform="translate(0)"/><path class="cls-32" d="M27.81,11.87c-.9.26-.55,1.49.17,1a1.85,1.85,0,0,1,1.37-.32S28.71,11.6,27.81,11.87Z" transform="translate(0)"/><path class="cls-32" d="M48.31,14.81a1.44,1.44,0,0,1-.41,1s1,0,1.17-.68S48.31,14.13,48.31,14.81Z" transform="translate(0)"/><path class="cls-36" d="M12.85,24.69a2.59,2.59,0,0,1-1,1.75s1.69.28,2.28-.92S13,23.47,12.85,24.69Z" transform="translate(0)"/><path class="cls-36" d="M13.9,29.39s-1,1-.36,2,2,.16,1.16-.51A2.09,2.09,0,0,1,13.9,29.39Z" transform="translate(0)"/><path class="cls-32" d="M28.89,16.75a2.08,2.08,0,0,0,1.67,0l-1.95-1.46S28,16.35,28.89,16.75Z" transform="translate(0)"/><path class="cls-32" d="M45.2,12.74a1.83,1.83,0,0,0-.52,1.44l1.91-1.25S45.83,12.06,45.2,12.74Z" transform="translate(0)"/><path class="cls-37" d="M12,22.88s.33,1,2-.75a23.77,23.77,0,0,1,9.08-5.41S15.28,17.86,12,22.88Z" transform="translate(0)"/></g></g></g></svg>