<svg xmlns="http://www.w3.org/2000/svg" xmlns:xlink="http://www.w3.org/1999/xlink" viewBox="0 0 66 66"><defs><style>.cls-1{fill:none;}.cls-2{clip-path:url(#clip-path);}.cls-3{fill:#ed9335;}.cls-4{fill:#ffcb9e;}.cls-5{fill:#6c98cc;}.cls-6{fill:#d9d9d9;}.cls-7{fill:#fbfbfb;}.cls-8{fill:#f5b28c;}.cls-9{fill:#255794;}.cls-10{fill:#ba9552;}.cls-11,.cls-12{fill:#bf3c1b;}.cls-11{opacity:0.15;}.cls-12,.cls-15{opacity:0.3;}.cls-13{fill:#ffa073;}.cls-14{fill:#305d80;}.cls-15{fill:#b54d26;}.cls-16{fill:#ffdfc2;}.cls-17{fill:#86bae3;}.cls-18{fill:#f7a286;}.cls-19{fill:#8f3935;}.cls-20{fill:#fff9f0;}.cls-21{fill:#e8dac5;}.cls-22{fill:#a16b43;}.cls-23{fill:#f0d197;}</style><clipPath id="clip-path" transform="translate(0.01)"><circle class="cls-1" cx="33" cy="33" r="33"/></clipPath></defs><g id="Layer_2" data-name="Layer 2"><g id="avatars"><g class="cls-2"><rect class="cls-3" width="66" height="66"/><path class="cls-4" d="M25,56.72a1.89,1.89,0,1,0-2.11-3.13c-6.23,4.21-7.48,8.22-7.42,10.85A7.42,7.42,0,0,0,15.68,66h4a3.87,3.87,0,0,1-.43-1.64C19.2,62,21.24,59.26,25,56.72Z" transform="translate(0.01)"/><path class="cls-5" d="M25.05,52c-3.64,1-8.48,3.94-10.38,9.2a16.5,16.5,0,0,0,5.87,2.85,7.9,7.9,0,0,1,3.07-4.77C24.67,58.63,26.1,51.72,25.05,52Z" transform="translate(0.01)"/><path class="cls-4" d="M42.51,53.59a1.89,1.89,0,0,0-2.62.51,1.87,1.87,0,0,0,.51,2.62c3.76,2.54,5.8,5.25,5.75,7.64A3.72,3.72,0,0,1,45.73,66h4a7.43,7.43,0,0,0,.22-1.56C50,61.81,48.74,57.8,42.51,53.59Z" transform="translate(0.01)"/><path class="cls-5" d="M40.35,52c-1.06-.3.37,6.61,1.44,7.28a8,8,0,0,1,3.07,4.77,16.5,16.5,0,0,0,5.87-2.85C48.83,56,44,53.06,40.35,52Z" transform="translate(0.01)"/><path class="cls-6" d="M40.62,51.6c-4.9-2.63-12-1.72-15.28.39-4.23,2.75-3.57,7.2-2.48,14h20C44,59.44,44.7,53.79,40.62,51.6Z" transform="translate(0.01)"/><path class="cls-7" d="M37.42,48.27c-1.79-1.38-5.28-1.6-7.42-1.15a5,5,0,0,0-3.87,4.58c-.2,2.64,5.3,7.52,6.57,7.6C33.65,59.33,43.66,53.06,37.42,48.27Z" transform="translate(0.01)"/><path class="cls-8" d="M36.71,46.88c-1.51-1.3-4.47-1.5-6.29-1.08a4.64,4.64,0,0,0-3.27,4.31c-.16,2.49,4.49,7.08,5.56,7.15C33.52,57.3,42,51.39,36.71,46.88Z" transform="translate(0.01)"/><path class="cls-9" d="M25.86,51.08S21,52.76,20.62,53.83c-.27.7.55,5.32,1.06,12.17h5.85C27.59,61.39,27.27,55.64,25.86,51.08Z" transform="translate(0.01)"/><path class="cls-9" d="M44.91,53.83c-.41-1.07-5.27-2.69-5.27-2.69C38.3,55.5,38,61.25,38.12,66H44C44.37,59.48,45.17,54.51,44.91,53.83Z" transform="translate(0.01)"/><path class="cls-10" d="M47.1,15.14c1.5-.38,1.16-4.15,1-5.14a13.46,13.46,0,0,0-.64-2.87,6.79,6.79,0,0,0-1.81-2.82c-1.44,2.92-5.41,4.5-8.49,4a2,2,0,0,0,.74-1.49c-1.22.26-2.35.84-3.59,1.07-4.91.92-9.81,1-13.92,4.37-5.8,4.67-4.94,12.25-3.77,18.65.63,3.46,1.19,7.36,2.81,10.51,1.17,2.29,2.34,1.33,4.05.42,2.22-1.17,5.5-1.37,8-1.48s6.25-.33,8.61.78c1.54.72,2.36,1.31,3.94.1a9.61,9.61,0,0,0,2.59-3.6c1-2.09,1-4.19,1.17-6.44.23-2.91,1-5.31.75-8.23-.08-1-1.32-4.93,1-8.24A16.21,16.21,0,0,0,47.1,15.14Z" transform="translate(0.01)"/><path class="cls-4" d="M30.33,14.86C22.53,16.38,17,27.59,18.46,38.12,19.54,46,25.62,54.64,34.77,54c9.34-.66,14-12.25,12.78-21.94C46.24,21.51,41.25,12.73,30.33,14.86Z" transform="translate(0.01)"/><path class="cls-11" d="M40.38,16.52A35.25,35.25,0,0,0,30.92,15c-2.85,0-5.94-.21-8.59,1-1.46.66-3.25,1.57-3.8,3.18a11.56,11.56,0,0,0-.26,4.23,22.73,22.73,0,0,0,.37,3.86A5.88,5.88,0,0,0,20.27,30c1.18-2.33,1.63-6.09,4.39-7.1,1.95-.71,4.76-.22,6.8.36l.41.12c3.52,1.07,5.69,2.09,9.49,1.16,2.13-.53,6.46-1.58,5.57-4.56C46.22,17.66,42.41,17.12,40.38,16.52Z" transform="translate(0.01)"/><path class="cls-4" d="M15.74,33.73c-3.83,1.06-2.29,6.65.84,7.77a7.58,7.58,0,0,0,3.09.34l.06-.1c.46-.72-.18-4.8-.41-5.57C18.73,34.24,17.58,33.23,15.74,33.73Z" transform="translate(0.01)"/><path class="cls-12" d="M17.09,35.79c-.86-.39-3,.32-2,2,.53-1.56,1.48-.53,1.34.57-.1.75-.9.76-.11,1.71.43.52,1.3.33,1.74,0C19.46,39.24,18.14,36.28,17.09,35.79Z" transform="translate(0.01)"/><path class="cls-10" d="M41.66,12.7c-3.29-2.8-7.21-3.24-11.35-2.29-2.53.59-5.41.94-7.52,2.57A20.22,20.22,0,0,0,18,17.55c-2,3.06-1,15.18.33,17,.14.2,1.75,2.19,2.5,2.13a36.7,36.7,0,0,1-.21-7.91c.25-3.53,1.06-7.33,5.08-8C28,20.4,35.3,23.53,37,23.88c2.23.47,7.44-2,8.2-2.33,1.86-.78,1.75-2.91.88-4.38A19.11,19.11,0,0,0,41.66,12.7Z" transform="translate(0.01)"/><path class="cls-13" d="M44.39,35.57c-1.32,0-3.26.53-2.75,2.88.27,1.26,5.28,2.24,5.49-.64a2.1,2.1,0,0,0-.06-.77C46.75,35.84,45.4,35.59,44.39,35.57Z" transform="translate(0.01)"/><path class="cls-13" d="M27.09,36.64C26.4,35.58,25,35.73,24,36c-1.33.35-3.07,1.47-1.82,3.61.67,1.13,6,.63,5.28-2.23A2.4,2.4,0,0,0,27.09,36.64Z" transform="translate(0.01)"/><path class="cls-14" d="M26,31.23c-2-.86-3.28,2.71-1.91,3.87a2.85,2.85,0,0,1,2,.17C27.42,34.57,27.48,31.88,26,31.23Z" transform="translate(0.01)"/><path class="cls-15" d="M35.79,37.9c-1.17,0-1.64-.52-2.46,0s.35,2.05,2.43,2,3-1.5,2.54-2S37.09,37.89,35.79,37.9Z" transform="translate(0.01)"/><path class="cls-16" d="M35.41,32.07c-1.23.17-2.3,5.89-1.8,6.29,1.24,1,3.83.29,4.58-.5C38.49,37.55,37.5,31.77,35.41,32.07Z" transform="translate(0.01)"/><path class="cls-14" d="M45.34,31.1c-2-1.23-3.55,2.72-1.86,3.83a2.67,2.67,0,0,1,2.13,0C46.43,34,46.44,31.76,45.34,31.1Z" transform="translate(0.01)"/><path class="cls-17" d="M25.27,31.86c-.82.28-.2,1.86.6,1.29C26.45,32.73,26,31.61,25.27,31.86Z" transform="translate(0.01)"/><path class="cls-17" d="M44.54,31.53c-.8.16-.42,1.75.41,1.3C45.54,32.5,45.26,31.39,44.54,31.53Z" transform="translate(0.01)"/><path class="cls-18" d="M44.29,41c-.57-.39-1.24-.7-1.79-1a.94.94,0,0,0,.28.67c-2.39.14-4.78.33-7.18.44-1.59.07-3.17.18-4.76.21-1.16,0-3.37.25-4.28-.4a2.4,2.4,0,0,0,.84-.48,8.3,8.3,0,0,0-4.22,1.69c.88-.36,2.06-.89,2.86-.13a31.32,31.32,0,0,0,4.32,3.63c3.35,2.22,9.9,2,11.65-2.3.15-.37.93-1.61,1.47-1.74a4.46,4.46,0,0,1,1.8.48A2.86,2.86,0,0,0,44.29,41Z" transform="translate(0.01)"/><path class="cls-19" d="M26.75,41.48A10.44,10.44,0,0,0,35,45.32c3.5,0,5.78-1,6.41-2.31a4.29,4.29,0,0,1,2.17-2A43.77,43.77,0,0,1,26.75,41.48Z" transform="translate(0.01)"/><path class="cls-20" d="M28.78,41.79S29,43,30.91,43.39a22.67,22.67,0,0,0,7.94.13,4,4,0,0,0,2.75-2.14A47,47,0,0,1,28.78,41.79Z" transform="translate(0.01)"/><path class="cls-20" d="M36.32,43.72c-2.49.12-4.56,0-5.82-.6-.9-.44-1,.05-.78.36,0,0,.83,1.6,5,1.9,4,.28,6-1.69,5.55-2S38.63,43.61,36.32,43.72Z" transform="translate(0.01)"/><path class="cls-21" d="M28.78,41.79a1.74,1.74,0,0,0,.51.82s9.32-.8,11.57-.18a3.85,3.85,0,0,0,.74-1A54,54,0,0,1,28.78,41.79Z" transform="translate(0.01)"/><path class="cls-21" d="M31.25,43.35c3.36,1.55,7.35.11,7.35.11A16.38,16.38,0,0,1,31.25,43.35Z" transform="translate(0.01)"/><path class="cls-22" d="M21.54,29.74c3.84.07,5.13.28,7.79.15C28,27.43,23.26,27.67,21.54,29.74Z" transform="translate(0.01)"/><path class="cls-22" d="M41.11,30c2.3.12,3.41-.1,6.72-.19C46.36,27.78,42.31,27.56,41.11,30Z" transform="translate(0.01)"/><path class="cls-23" d="M45.15,16.76l0,0h0S45.13,16.78,45.15,16.76Z" transform="translate(0.01)"/><path class="cls-23" d="M45.17,16.74l0,0s0,0,0,0h0c2.48-2.52,2.68-7.53.41-10.15-2.31,3-6.88,2.73-10.25,2.68a22.34,22.34,0,0,0-5.22.54,35.21,35.21,0,0,0-6.59,2.3,8.07,8.07,0,0,0-4,3.06,10.37,10.37,0,0,0-1.1,2.67c-.15.54.06,2.55-.16,2.83a11.64,11.64,0,0,1,9-4.56,4.5,4.5,0,0,0-.11,2c-.07-.35,6.11-2.92,6.3-2.93-.48.73-3.26,3-3,3.87,0-.06,7.73-4.83,8.1-4.93-.32,1.08-4.57,6.2-3.84,7.08.4-.46,8.07-7.61,8.47-7.81C43,14,36.63,21.59,37,22c.33-.57,5.33-4.21,5.83-4.57A33.14,33.14,0,0,1,41,21.59c2.64-1.64,7.2-3.28,6.76-5.38A7.79,7.79,0,0,0,45.17,16.74Z" transform="translate(0.01)"/></g></g></g></svg>