<svg xmlns="http://www.w3.org/2000/svg" xmlns:xlink="http://www.w3.org/1999/xlink" viewBox="0 0 96 96"><defs><style>.cls-1{fill:none;}.cls-2{clip-path:url(#clip-path);}.cls-21,.cls-22,.cls-3{fill:#fff;}.cls-4{fill:#313142;}.cls-5{fill:#e8e8e8;}.cls-6{opacity:0.1;}.cls-7{fill:#f5f5f5;}.cls-8{fill:#854422;}.cls-9{fill:#70442d;}.cls-10{fill:#9c552c;}.cls-11{fill:#66241b;}.cls-11,.cls-14,.cls-22{opacity:0.7;}.cls-12{fill:#261b18;}.cls-13{fill:#bf6c3c;}.cls-14{fill:#e6d2c3;}.cls-15{fill:#d47b48;}.cls-16{fill:#78231f;}.cls-17{fill:#fff7ea;}.cls-18{fill:#ecdcc4;}.cls-19{opacity:0.2;}.cls-20{fill:#d9c9b2;}.cls-21{opacity:0.3;}</style><clipPath id="clip-path"><circle class="cls-1" cx="48" cy="48" r="48"/></clipPath></defs><g id="Layer_2" data-name="Layer 2"><g id="Layer_4" data-name="Layer 4"><g class="cls-2"><rect class="cls-3" width="96" height="96"/><path class="cls-4" d="M23.4,96h7.12s0-.06,0-.08c-.22-4.38,1.61-8.34,4.78-10.35l-3.79-6C26.22,82.86,23.14,89.16,23.4,96Z"/><path class="cls-4" d="M63.66,79.52l-3.79,6c3.17,2,5,6,4.78,10.35,0,0,0,0,0,.08h7.12C72,89.16,68.94,82.86,63.66,79.52Z"/><path class="cls-5" d="M58.92,77.37c-7-3.79-17.3-2.49-22,.57C31.32,81.62,31.7,87.38,33,96H62.46C63.92,87.45,64.41,80.34,58.92,77.37Z"/><path class="cls-4" d="M30.15,80.6c-.43,1.12,1,8.27,2.21,15.4H40.1c-.05-6.24-.6-13.49-2.41-19.38C37.69,76.62,30.74,79.05,30.15,80.6Z"/><path class="cls-4" d="M57.47,76.62c-1.81,5.89-2.36,13.14-2.4,19.38H62.8C64,88.87,65.44,81.72,65,80.6,64.42,79.05,57.47,76.62,57.47,76.62Z"/><path class="cls-6" d="M38.19,81.38C39.55,86.22,44.24,89,44.24,89l3.34-3.88L52,88.94c3-1.63,5.89-5.54,5.93-8.8C57.93,77.79,36.83,76.53,38.19,81.38Z"/><path class="cls-7" d="M38.24,75.62c-3.74,5.33,5.7,12.07,5.7,12.07l3.67-3.07,4.17,3.21s8.54-5,5.51-11.68C54.56,70.13,42,70.24,38.24,75.62Z"/><path class="cls-8" d="M54.35,70.82c-2.37-1.88-7-2.18-9.81-1.57a6.82,6.82,0,0,0-5.11,6.24c-.26,3.6,5,8.4,8.68,8.5C50.87,84,62.58,77.34,54.35,70.82Z"/><path class="cls-7" d="M47.78,88.17a.94.94,0,1,0,.94.94A.94.94,0,0,0,47.78,88.17Z"/><path class="cls-7" d="M47.8,92.41a.94.94,0,0,0,0,1.87.94.94,0,0,0,0-1.87Z"/><path class="cls-8" d="M69.64,50.07c-2.23-1-3.61.56-4.32,3.56-.28,1.19-1,7.57-.48,8.75a.8.8,0,0,1,.08.16,7.06,7.06,0,0,0,3.75-.29C72.45,60.73,74.29,52,69.64,50.07Z"/><path class="cls-9" d="M24.32,30.87c-1.48,7-1.81,16.34,1.55,23.05,1.76,3.51,5.95,1.17,8.92.43,3.63-.9,7.29-1.73,11-2.54,6-1.33,12.61,0,18.72.58,4.78.46,5.13,2.7,5.13-1.21,0-4.84,1.24-12.83,0-18.15C63.65,7.16,27.89,14,24.32,30.87Z"/><path class="cls-10" d="M45.17,22.26c-17,2.33-19.75,18-18.09,33.37,1.25,11.51,9.71,24.33,23,23.75C63.62,78.77,70.81,62.1,69.44,48,68,32.57,64.66,19.59,45.17,22.26Z"/><path class="cls-10" d="M23.32,49.1c-5.56,1.11-2.72,10.2,1.51,12.28,1.68.84,3.56.47,4.31-1.31.92-1.24.31-4.7-.7-7.72C27.62,49.9,26,48.57,23.32,49.1Z"/><path class="cls-11" d="M25.18,52.19c-1.23-.61-4.37.35-3,2.84.83-2.25,2.16-.72,1.91.88C24,57,22.79,57,23.9,58.4c.61.76,1.87.52,2.52.13C28.48,57.31,26.68,52.94,25.18,52.19Z"/><path class="cls-9" d="M46.84,19.25C33,19.14,23.17,29.12,24.09,49a3.52,3.52,0,0,1,2.62.84c1.14,1.13,1.1,2.37,1.42,3,.14.31.31.84,1.4.78-2.06-6.68-.87-16.07,1.39-19.11C36.53,27,49.13,37.18,53.3,37c3.15-.11,10.74-9.64,13.75-2.48C69.09,39.41,69,19.44,46.84,19.25Z"/><path class="cls-12" d="M38.34,44.81c-3.3-1.09-4.79,4.76-2.46,6.41a4.49,4.49,0,0,1,3.17,0C41.08,49.9,40.79,45.62,38.34,44.81Z"/><path class="cls-11" d="M52.07,55.62c-2.12,0-2.92-.89-4.43-.2s.49,3.14,4.24,3.15,5.46-2.1,4.72-2.92S54.42,55.67,52.07,55.62Z"/><path class="cls-13" d="M51.3,47.66c-2,.14-5,7.77-4,8.38,2.55,1.47,8,.91,9.53-.29C57.48,55.28,53.53,47.51,51.3,47.66Z"/><path class="cls-12" d="M66.44,44.82c-3.23-2-5.68,4.27-3,6.08a4.19,4.19,0,0,1,3.38,0C68.11,49.49,68.16,45.88,66.44,44.82Z"/><path class="cls-14" d="M37.3,45.9c-1.25.56,0,3,1.13,2C39.28,47.11,38.41,45.4,37.3,45.9Z"/><path class="cls-14" d="M65.16,45.49c-1.28.24-.7,2.77.62,2.07C66.73,47.05,66.3,45.27,65.16,45.49Z"/><path class="cls-12" d="M57.6,42.25c.55,1.3,3.09.5,3.87,0a4.92,4.92,0,0,1,4.23-.44c.37.1,3.94.87,4.27.13-1.38-1.42-4.27-3.52-6.17-3.44C62.62,38.59,56.51,39.64,57.6,42.25Z"/><path class="cls-12" d="M36.42,39.18c-2,0-5.13,2.06-6.62,3.48.34.73,4.11.12,4.5,0,1.73-.44,3.74-.88,5.3,0,.83.44,2.8,1.47,3.39.17C44.19,40.2,37.67,39.21,36.42,39.18Z"/><path class="cls-13" d="M68.19,54c-.91-1.27-2.82-1.49-4.18-1.47-1.77,0-4.11.7-2.48,3.21.87,1.33,8,2.2,7.06-.9A2.62,2.62,0,0,0,68.19,54Z"/><path class="cls-13" d="M40.84,53.3c-1.22-1.09-3.22-.89-4.61-.57-1.81.42-4.06,1.65-1.82,3.85,1.18,1.17,8.63.46,7-2.52A2.88,2.88,0,0,0,40.84,53.3Z"/><path class="cls-15" d="M37.3,58.88S40,74.06,50.72,73.9c6-.09,8-3.49,10.11-8.61,1-2.41,1.29-5,2.8-6.87C60.51,61.09,46.44,63.87,37.3,58.88Z"/><path class="cls-11" d="M61.48,58.73c-.32.25.4.08,1.38-.09s.65,1.47,1.25,1.3.77-1.35,0-2S61.48,58.73,61.48,58.73Z"/><path class="cls-11" d="M37.06,58.38c-.87.24-1.31,1.74-.75,2s.84-1.1,1.79-1.35,2.24.09,2-.2A7.13,7.13,0,0,0,37.06,58.38Z"/><path class="cls-16" d="M39.29,60.61S42.6,69.43,51,69.73c4.15.15,6.8-3,7.95-5.26a17.86,17.86,0,0,1,3-4.27A20.6,20.6,0,0,1,39.29,60.61Z"/><path class="cls-17" d="M39.29,60.61s2.45,3.66,5.32,4.87a16.57,16.57,0,0,0,11.12.67c2.76-.68,6.15-6,6.15-6S52.44,66.79,39.29,60.61Z"/><path class="cls-17" d="M51.85,66.27a17.72,17.72,0,0,1-7.71-1.62c-1.52-.64-1.28.91-1,1.67,0,0,1.56,2.75,7.1,3.36,5.22.58,7.54-3.49,6.83-4.3S55.68,66.3,51.85,66.27Z"/><path class="cls-18" d="M39.29,60.61a11.77,11.77,0,0,0,2.33,2.75s9.58,2.12,18.4-.65a9.8,9.8,0,0,0,1.86-2.51S52.11,66.68,39.29,60.61Z"/><path class="cls-18" d="M43.08,64.64c8.34,5,13.4,1.07,13.4,1.07A22.57,22.57,0,0,1,43.08,64.64Z"/><path class="cls-19" d="M64.83,55.88A6.36,6.36,0,0,0,63,55.81a15,15,0,0,1-2.33-.18,6.79,6.79,0,0,1-2.81-1.26,5.32,5.32,0,0,1-1.78-6.19c.68-2,2.78-2.23,4.53-2.4a62.51,62.51,0,0,0,6.59-.55c.27-.06-.09-1.9-.17-2.1a2.08,2.08,0,0,0-1.29-1.27c-1.72-.57-3.93.2-5.59.67s-3.61.7-5.13,1.55-2,1.3-3.7,1.24c-3-.12-6-2.13-9.23-2.45s-6.8-.71-10.1.23c-.86.24-3.46,1.24-1.7,2.16s4.29.6,6.17.66c.87,0,1.74,0,2.6.12,3.08.27,7.8-.18,7.57,3.67-.15,2.65-1.83,5.37-4,5.88a27.57,27.57,0,0,1-6.32.69,10.83,10.83,0,0,1-4.58-1c-.41-.18-1.64-1-2-.4-.67,1,1.84,2.51,2.49,2.8a14.89,14.89,0,0,0,4.72,1c4,.41,8.12.18,10.36-3.54,1.3-2.15,1.95-4.67,3.15-6.88,2-3.61,2.85,1.27,3.45,3.41a11.54,11.54,0,0,0,1.52,3.37A7.5,7.5,0,0,0,61,57.93c1.23.06,5.36.92,6.6-1.6C68,55.62,65.67,56.21,64.83,55.88Z"/><path class="cls-20" d="M28.5,42.77c-2.64.26-4.94-.34-5.52.24-.77.75.8,3,.8,3a4.55,4.55,0,0,0,2.12.56c.29,1.83.49,6.6,4.05,9.38,3,2.33,12.18,2.46,14.94.83,3.42-2,4.71-5.42,5.13-8.73C51,40,32.21,42.41,28.5,42.77ZM44.59,54c-3.14,2.34-11.6,1.88-14-.69-1.81-2-2.39-6.33-1.4-7,3-2.11,14.89-2.14,17.76-.22C48.38,47,47,52.23,44.59,54Z"/><path class="cls-20" d="M71.14,41.4c-3.18-.11-19.31-1.28-18,6.74.53,3.27,1.81,6.58,4.82,8.36,2.44,1.44,10.27.69,12.67-1.83,2.87-3,2.79-7.79,2.94-9.63a3.55,3.55,0,0,0,1.77-.71s1.21-2.37.52-3.06C75.31,40.73,73.39,41.48,71.14,41.4ZM70,52c-1.87,2.72-9,3.75-11.81,1.63-2.12-1.61-3.58-6.72-2.45-7.74,2.33-2.1,12.4-2.87,15.08-1C71.72,45.56,71.46,49.93,70,52Z"/><path class="cls-21" d="M57.29,45.46c-1.78.75,1.38,1.85,2.06,2a22.24,22.24,0,0,0,7.63,0c1.34-.22,4.24-1.42,3.44-2.23C69.3,44,59.26,44.64,57.29,45.46Z"/><path class="cls-3" d="M65.16,45.26c-1,.13-1.6.4-1.35.87.49.92,6.11.58,6.51-.09S67.2,45,65.16,45.26Z"/><path class="cls-22" d="M59.11,52.27c-.61,0-1,.11-.91.51.2.8,3.69,1.27,4,.79S60.39,52.32,59.11,52.27Z"/><path class="cls-22" d="M32.71,52.88c-.67-.07-1.14,0-1.05.45.17.8,4,1.51,4.41,1.05S34.13,53,32.71,52.88Z"/><path class="cls-21" d="M46.06,45.83c-2.41-.69-14.16-.81-15.3.31-.81.8,2.73,1.8,4.32,1.94A32.12,32.12,0,0,0,44,47.79C44.72,47.63,48.24,46.46,46.06,45.83Z"/><path class="cls-3" d="M40.93,45.48c-1.07.1-1.79.36-1.53.84.52.93,6.81.74,7.28.07S43.22,45.25,40.93,45.48Z"/><path class="cls-20" d="M55.45,43.35a13.24,13.24,0,0,1-8.25.22c-2.64-.72,1.39,1.59,1.7,2.93s0,5.7.83,3.24,2.54-2.56,3.64-.32,1.17-3.67,1.6-4.22S57.88,42.54,55.45,43.35Z"/><path class="cls-3" d="M29.78,43.48c7.15-.1,12.85-.27,17.26,1.12C44.09,42.47,39.22,42.27,29.78,43.48Z"/><path class="cls-3" d="M70.55,42c-8.22,0-12,0-14.33,2.11C59.83,42.44,64.43,42.73,70.55,42Z"/></g></g></g></svg>