<svg xmlns="http://www.w3.org/2000/svg" xmlns:xlink="http://www.w3.org/1999/xlink" viewBox="0 0 66 66"><defs><style>.cls-1{fill:none;}.cls-2{isolation:isolate;}.cls-3{clip-path:url(#clip-path);}.cls-4{fill:#cd9e3e;}.cls-5{fill:#918fa0;}.cls-6{fill:#66667d;}.cls-7{fill:#ebebeb;}.cls-8{fill:#ed9d6c;}.cls-9{fill:#a09583;mix-blend-mode:multiply;}.cls-15,.cls-16,.cls-9{opacity:0.4;}.cls-10{fill:#1e1e29;}.cls-11{fill:#1c1c26;}.cls-12{fill:#3a3a4a;}.cls-13{fill:#261b18;}.cls-14{fill:#ffb67d;}.cls-15{fill:#d14f2e;}.cls-16{fill:#661004;}.cls-17{fill:#45362e;}.cls-18{fill:#f59d66;}.cls-19{fill:#b54319;opacity:0.5;}.cls-20{fill:#ffcb96;}.cls-21{fill:#f0ded1;opacity:0.7;}.cls-22{opacity:0.8;}.cls-23{fill:#a63432;}.cls-24{fill:#131413;}.cls-25{opacity:0.1;}.cls-26{fill:#23232d;}.cls-27{fill:#8b95a8;}</style><clipPath id="clip-path" transform="translate(0.01)"><circle class="cls-1" cx="33" cy="33" r="33"/></clipPath></defs><g class="cls-2"><g id="Layer_2" data-name="Layer 2"><g id="avatars"><g class="cls-3"><rect class="cls-4" width="66" height="66"/><path class="cls-5" d="M40.72,55.43c-5-2.67-12.21-1.75-15.51.4S21.52,61.31,22.09,66H43.62C44.27,61.14,44.05,57.21,40.72,55.43Z" transform="translate(0.01)"/><path class="cls-6" d="M32.83,62.21c8.9,0,11.81-11.67-.43-11.67C23.61,50.54,23.3,62.21,32.83,62.21Z" transform="translate(0.01)"/><path class="cls-7" d="M32.83,61c8.9,0,11.81-11.12-.43-11.12C23.61,49.9,23.3,61,32.83,61Z" transform="translate(0.01)"/><path class="cls-8" d="M32.86,59.6c-2.38-1-10.22-4.82-4.41-9.13,1.67-1.25,4.93-1.45,6.92-1A4.58,4.58,0,0,1,39,53.56C39.16,55.94,35.79,58.39,32.86,59.6Z" transform="translate(0.01)"/><polygon class="cls-9" points="32.87 59.8 33.97 60.83 31.71 60.87 32.87 59.8"/><path class="cls-10" d="M18.14,66c0-.2.3-4,.57-5.57.41-2.41,1.51-4.14,5.51-5.36l2,3.88c-2.28,1-2.59,7-2.59,7Z" transform="translate(0.01)"/><path class="cls-11" d="M25.29,55s-4.39,1.62-4.81,2.71c-.29.75.65,3.48,1.48,8.31h7A32.81,32.81,0,0,0,25.29,55Z" transform="translate(0.01)"/><path class="cls-12" d="M25.37,51.58c-2.78.18-6.09,2-6,2.64s5.49,3.67,9.1,9C28.59,60.12,25.37,51.58,25.37,51.58Z" transform="translate(0.01)"/><path class="cls-12" d="M27.69,63.94a42.24,42.24,0,0,0-5,.14c-.22.1-.17,1.49-.08,1.92H28.2A6.2,6.2,0,0,0,27.69,63.94Z" transform="translate(0.01)"/><path class="cls-10" d="M47.59,66c0-.2-.31-4-.57-5.57-.42-2.41-1.51-4.14-5.52-5.36l-2,3.88c2.27,1,2.58,7,2.58,7Z" transform="translate(0.01)"/><path class="cls-11" d="M40.44,55s4.39,1.62,4.81,2.71c.28.75-.65,3.48-1.48,8.31H36.72A32.61,32.61,0,0,1,40.44,55Z" transform="translate(0.01)"/><path class="cls-12" d="M40.35,51.58c2.79.18,6.09,2,6,2.64s-5.5,3.67-9.11,9C37.13,60.12,40.35,51.58,40.35,51.58Z" transform="translate(0.01)"/><path class="cls-12" d="M38,63.94a42.18,42.18,0,0,1,5,.14c.22.1.18,1.49.09,1.92H37.53A6,6,0,0,1,38,63.94Z" transform="translate(0.01)"/><path class="cls-13" d="M49.42,32.9c.92-.15,1-1.59.3-2,1.14-.42,1.55-1.21.24-1.82,1.94-.43,1-2.55-.43-2.92C51,25.47,51.16,24,50,23.51c1.3-.42,1.52-2.16.44-2.53,1.1-.41.86-1.8-.09-2.71,1.37-.2,1.45-3-.37-2.55.79-1-.42-2.6-1.65-2.49.25-1-.58-1.67-1.69-1.19-.1-1.77-1.64-2.12-3-1.56a1.39,1.39,0,0,0-2.42-.72c-.32-1.52-2.05-1.38-3.17-.71a2.56,2.56,0,0,0-3.68-.53c-1-1.07-2.95-.68-3.91.39-1.18-1-2.5-.49-3.22.76-1.14-1.19-2.66-.05-3.47,1-1.12-1-2.81-.09-3.17,1.21a2.31,2.31,0,0,0-3.15,1.65C15.78,13.36,14,14.88,15,16.57c-1.27.2-2.62,1.72-1.26,2.76-1.36.14-1.45,1.62-.72,2.51-1.52.7-1.63,3.93-.25,3.15-1.07.61-1.16,2,.22,2.18-1,.65-2,2-.1,2.27-.64.61-1.12,2,.05,2.33-.69,1.24-.7,1.72.53,2.6-.33-.23-.26,1.47-.19,1.62a4.51,4.51,0,0,0,1.55,1.49,22.35,22.35,0,0,1,2.47,2.66c2.18,2.44,3.75,5.36,5.87,7.8s4.41-1.69,6.13-2.68A12.21,12.21,0,0,1,37,43.64c2.33.35,4,2.77,6.33,2.83s3.5-3.46,4-5.27c.3-1.17.38-2.81,1-3.74s1.76-1.3.88-2.64C49.94,34.88,50.34,33.18,49.42,32.9Z" transform="translate(0.01)"/><path class="cls-14" d="M17,39.09c1.17,8.58,7.79,18,17.77,17.29C45,55.66,50,43,48.71,32.47c-1.43-11.48-6.87-21-18.77-18.73C21.44,15.4,15.45,27.62,17,39.09Z" transform="translate(0.01)"/><path class="cls-15" d="M28.29,21.2c-3.68.61-6.74,2.34-7.82,7.1a29,29,0,0,0-1.12,4.45,19.49,19.49,0,0,1-2.29-7.09c-.36-2.24-.72-5,0-7.19.6-1.76,2.55-2.74,4.14-3.46,2.89-1.31,6.26-1.14,9.36-1.08a37.93,37.93,0,0,1,10.31,1.62c1.72.51,5.47,1.26,6.4,3,2.09,3.9-7.63,2.26-9.31,2.3C34.84,20.94,31.35,20.69,28.29,21.2Z" transform="translate(0.01)"/><path class="cls-14" d="M15,42.77a8.13,8.13,0,0,0,3.38.37l.06-.1c.5-.79-.2-5.24-.45-6.07-.64-2.11-1.89-3.21-3.9-2.66C9.87,35.46,11.55,41.55,15,42.77Z" transform="translate(0.01)"/><path class="cls-16" d="M16.57,41.27c1.52-1,.08-4.19-1.06-4.72-.94-.43-3.28.35-2.18,2.18.58-1.7,1.62-.58,1.46.62-.11.82-1,.83-.11,1.87C15.15,41.78,16.09,41.57,16.57,41.27Z" transform="translate(0.01)"/><path class="cls-13" d="M45.84,21.93c.65,1.21,6-2.35,1.17-7.68-2.08-2.31-7.19-3.41-10.14-4A28.8,28.8,0,0,0,28.13,10c-4.82.57-10.63,2.86-12.15,8-.93,3.13-.44,6.76-.2,10,.14,1.94-.64,5.69,1,7.15,1.93,1.7,2.69-.86,2.87-2.7.21-2.07,0-4.33.65-6.35,1.45-4.9,4.05-5.84,11.1-6.38C35.08,19.37,44.11,18.67,45.84,21.93Z" transform="translate(0.01)"/><path class="cls-17" d="M19.5,14.08a1.33,1.33,0,0,1,1-1.19A2.64,2.64,0,0,1,23.36,14a.92.92,0,0,1,1.48-.89c.23-.65.48-1.49,1.18-1.77s1.09.28,1.66.6c.52-1.06,1.11-2.16,2.55-1.82,1.13.27,1.71,1.56,2.41,2.36.39-.67.66-1.9,1.46-2.19s.89.43,1.4.76c.44-.69.91-1.6,1.83-1,.66.46.75,1.28,1.13,1.92.71-.91,1-2.28,2.49-1.8,1.32.42,1.37,1.81,1.71,2.87.31-.55.5-1.15,1.23-1.19s.55.45.8,1c1-1.43,2.21.32,1.53,1.25,1-.61,1.77.66,1.45,1.56,0-.13,1.13.86,1.2,1a2.09,2.09,0,0,1,.35,1.4,1.75,1.75,0,0,1-1.3,1.55c-1.24.35-2.69-.62-1.74-1.91-1.11,1.52-2.57.92-2.25-1.06C42,18.19,39.24,19.51,38.52,16c-.92,2.69-3.48,2.26-4.68,0-.43,1-.63,2.21-1.8,2.3-.93.07-1.88-1.05-2.08-1.8-.38,1.19-.44,2.08-1.8,2.2a2.64,2.64,0,0,1-2.45-1.75c-.19.63,0,2-.64,2.29-.92.44-2-1-2.39-1.62-.16.59.05,1.93-.44,2.36s-1.87-.08-2.12-.76c0,.57,0,1.45-.65,1.62s-1.07-.5-1.57-.72c.31.7,1.25,3.32-.5,2.6,1,.84.68,2.26-.72,1.46,1.05.6.74,1.92-.55,1.6-1-.24-1.67-1.72-.21-1.41a1,1,0,0,1,.37-1.86s0,0,0,0c-1.32,0-1.7-3,.26-2.41-.75-.22-1.75-.94-.42-1.12,0,0,0,0,0,0-.46-.54-.58-2.58.12-3s2,.4,2.51.87c-.65-1.1-.2-2.16,1.08-1.51A2.16,2.16,0,0,1,19.5,14.08Z" transform="translate(0.01)"/><path class="cls-13" d="M26.72,28.1c2,.29,3.3,1.24,2,2.32s-4.25-.86-7.78-.33C21.64,28.49,24.33,27.74,26.72,28.1Z" transform="translate(0.01)"/><path class="cls-13" d="M43.52,27.65c-1.9.39-3.19,1.42-2,2.47S45.65,29,49,29.42C48.34,27.82,45.8,27.18,43.52,27.65Z" transform="translate(0.01)"/><path class="cls-18" d="M47.71,36.32a2,2,0,0,1,.41.56C49.19,39,44,39.49,43.17,38.65c-1.52-1.6.06-2.47,1.34-2.76C45.48,35.67,46.88,35.53,47.71,36.32Z" transform="translate(0.01)"/><path class="cls-18" d="M27.11,37.27a1.77,1.77,0,0,1,.29.62c.64,2.26-4.21,1.85-5.39.72-1.65-1.57.73-2.45,2-2.45C25.05,36.17,26.45,36.34,27.11,37.27Z" transform="translate(0.01)"/><path class="cls-13" d="M26,31.84c-2.7-.82-4.4,2.57-2.56,3.68a5.39,5.39,0,0,1,2.68.16A2,2,0,0,0,26,31.84Z" transform="translate(0.01)"/><path class="cls-19" d="M38.4,39.18c-.51-.54-1.56.06-2.54.07s-1.67-.46-2.5,0S33.48,41,35.84,41,38.83,39.65,38.4,39.18Z" transform="translate(0.01)"/><path class="cls-20" d="M35.81,34.23c-1.67-.17-3,3.62-2.27,4.86.5.87,4.17.84,4.75-.18C38.49,38.54,37.4,34.39,35.81,34.23Z" transform="translate(0.01)"/><path class="cls-21" d="M25,32.44c-1.1.26-.26,1.77.81,1.22C26.59,33.26,26,32.2,25,32.44Z" transform="translate(0.01)"/><path class="cls-13" d="M45.7,31.32c-2.84-.41-4.15,3.21-2.15,4a5.59,5.59,0,0,1,2.74-.24A2,2,0,0,0,45.7,31.32Z" transform="translate(0.01)"/><path class="cls-21" d="M44.8,32.05c-1.08.43,0,1.8,1,1.09C46.5,32.64,45.76,31.68,44.8,32.05Z" transform="translate(0.01)"/><g class="cls-22"><path class="cls-23" d="M43.85,40.48C42.66,43,45.82,44,47,41.55A2.32,2.32,0,0,1,43.85,40.48Z" transform="translate(0.01)"/><path class="cls-23" d="M26.38,40.93A1.75,1.75,0,1,1,23.09,42,2.61,2.61,0,0,0,26.38,40.93Z" transform="translate(0.01)"/><path class="cls-23" d="M35.82,49.14a11.1,11.1,0,0,0,9.55-6.37.59.59,0,0,0-.43-.81.79.79,0,0,0-.94.44,9.63,9.63,0,0,1-8.56,5.46c-4.3.25-8.1-1.83-9.5-5.22a.73.73,0,0,0-.94-.33.68.68,0,0,0-.45.86c1.62,3.91,5.94,6.28,10.88,6Z" transform="translate(0.01)"/></g><path class="cls-24" d="M52.13,29.56s1.44-.12,1.45.18a7.29,7.29,0,0,1-.13,1.72,14.44,14.44,0,0,1-1.69.38Z" transform="translate(0.01)"/><path class="cls-25" d="M39.52,29.5c2.6-.06,9.48-.71,11.07.82s-.9,5.48-1.92,7.17c-.82,1.35-1.57,2.35-4.3,2.15s-5.13-1.15-6.2-3.78c-.59-1.47-1.68-3.62-3.68-1.9-1.77,1.54-1.26,3.07-3.22,4.7-2.5,2.09-7.48,2.54-10.06,1.56-2.75-1.06-3.6-3.6-4-6.41a16.63,16.63,0,0,1-4.53-.42l-.45-1.87C16.17,30,31,29.7,39.52,29.5Z" transform="translate(0.01)"/><path class="cls-26" d="M53.57,29.69l-.09-.11c-.92-1.14-35.38-.12-36.38,1.06l-.09.11c0,.2.16,1.57.16,1.57a8.27,8.27,0,0,1,1-.06c.35,1.74,1,4.67,2.39,5.85,2.18,1.89,8.65,1.52,11.51-.49C34.2,36.16,33.32,32,36,31.89c1.92-.06,1.94,3.9,3.78,5.18,2.63,1.84,9.69,1.48,11.26-.21,1.12-1.21,1-4.13,1.16-5.88.7,0,.66.1,1.36.05A7.62,7.62,0,0,0,53.57,29.69Z" transform="translate(0.01)"/><path class="cls-26" d="M11.43,31.72l4.26-1.1,1.76-.21a3.58,3.58,0,0,1,.18,1.89c-.18.58-.56.32-1.06.44s-3.89.65-3.89.65l-1.12-.26Z" transform="translate(0.01)"/><path class="cls-27" d="M21.14,30.64s15.63-2,29-.77Z" transform="translate(0.01)"/><path class="cls-27" d="M39.76,31.26c1.41-.62,10.06-.69,10.76-.26s-10.84,2.66-10.84,2.66S38.34,31.88,39.76,31.26Z" transform="translate(0.01)"/><path class="cls-27" d="M20.35,32.18c1.42-.62,12.73-1.13,13.43-.7.31.18-.45,2.45-3.27,3.13C27,35.45,21,36.19,21,36.19S18.94,32.8,20.35,32.18Z" transform="translate(0.01)"/><polygon class="cls-27" points="16.77 31 15.8 30.99 12.12 31.76 15.97 32.03 16.77 31"/></g></g></g></g></svg>