<svg xmlns="http://www.w3.org/2000/svg" xmlns:xlink="http://www.w3.org/1999/xlink" viewBox="0 0 66 66"><defs><style>.cls-1{fill:none;}.cls-2{clip-path:url(#clip-path);}.cls-3{fill:#fff;}.cls-4{fill:#e62628;}.cls-5{fill:#3a3a4a;}.cls-6{fill:#ebebeb;}.cls-7{fill:#3d2518;}.cls-8{fill:#977053;}.cls-9{fill:#ffbc82;}.cls-10{fill:#bf541b;opacity:0.3;}.cls-11,.cls-18{fill:#b54319;}.cls-11,.cls-17{opacity:0.5;}.cls-12{fill:#82572e;}.cls-13{fill:#202930;}.cls-14{fill:#ffd4ad;}.cls-15{fill:#c3cee6;opacity:0.7;}.cls-16{fill:#2b221c;}</style><clipPath id="clip-path"><circle class="cls-1" cx="33" cy="33" r="33"/></clipPath></defs><g id="Layer_2" data-name="Layer 2"><g id="avatars"><g class="cls-2"><rect class="cls-3" width="66" height="66"/><path class="cls-4" d="M40.75,54.81l-2.68,3.85c.83.79,3.28,4.23,3.48,7.34h5.13C46.17,60,44.61,56.18,40.75,54.81Z"/><polygon class="cls-5" points="41.98 61.43 45.97 61.12 46.54 63.75 41.9 64.05 41.98 61.43"/><polygon class="cls-6" points="41.9 64.05 46.54 63.75 46.68 66 41.72 66 41.9 64.05"/><path class="cls-4" d="M26.32,54.81,29,58.66c-.83.79-3.28,4.23-3.48,7.34H20.39C20.9,60,22.45,56.18,26.32,54.81Z"/><polygon class="cls-5" points="25.09 61.43 21.09 61.12 20.53 63.75 25.16 64.05 25.09 61.43"/><polygon class="cls-6" points="25.16 64.05 20.53 63.75 20.39 66 25.34 66 25.16 64.05"/><path class="cls-4" d="M41.83,63.56c0-.6-16.85-.5-16.82.13s.07,1.47.11,2.31h16.6C41.77,65.11,41.81,64.27,41.83,63.56Z"/><path class="cls-4" d="M42.93,56.65a11,11,0,0,0-1.06,5c0,.59,0,1.14,0,1.68,0,1.18-16.8,1.22-16.84,0,0-.54.07-1.13.06-1.72a16,16,0,0,0-1-4.86c-.11-.3.91-3,9.27-3C41.91,53.73,43.09,56.34,42.93,56.65Z"/><path class="cls-5" d="M25,61.15c.61-1.07,3.81-6.25,5.3-7.27.25-.17.39,0,.63-.16s0-3.53,0-3.53H36s-.28,3.36-.05,3.53.39,0,.64.16c1.49,1,4.69,6.2,5.3,7.27a8.27,8.27,0,0,1,0,2.9c-1.58.71-15.26.71-16.85,0A8.53,8.53,0,0,1,25,61.15Z"/><path class="cls-6" d="M33.74,54.22c-.74,0-2.07,3.39-1.93,3.59.3.44,2.8.52,3.1.19S34.25,54.25,33.74,54.22Z"/><polygon class="cls-6" points="34.2 50.2 33.3 50.18 33.01 66 33.91 66 34.2 50.2"/><path class="cls-7" d="M25,37c2.38-.55,4.78-1.05,7.18-1.54,3.94-.8,8.24.13,12.22.57,3.12.34,2.05-2.6,1.84-5.14-.3-3.78.84-4.83,1-6.75.61-9.24-4-14.26-15.54-13.84-4.95.18-10.17,2.46-12.54,7a14.14,14.14,0,0,0-1.33,6c-.15,4.66-.74,9,1.39,13.36C20.33,38.89,23.09,37.4,25,37Z"/><path class="cls-8" d="M44.62,33.83a2.29,2.29,0,0,0-1.7-.57c-.3-.43-1-5-.14-11.92,3.51.32,6,.49,5,14.88a5.05,5.05,0,0,1-2.26-.43A4.36,4.36,0,0,0,44.62,33.83Z"/><path class="cls-9" d="M20,37.71c.7,7.49,6.1,15.91,14.78,15.66,8.86-.26,13.72-11,13-20.23-.81-10-5.18-18.52-15.59-16.94C24.7,17.33,19.06,27.71,20,37.71Z"/><path class="cls-10" d="M32.75,24.49c-2-.51-4.07-1.43-6.11-1.26a3.4,3.4,0,0,0-3,2.2C22.9,27,22.29,29.31,20,29.05c-1.94-.22-1.92-2.68-1.67-4.13C19,21,20.7,18.52,24.53,17c2.55-1,5.47-.76,8.16-.59A34.06,34.06,0,0,1,44.92,19.5c1.13.51,2.2,2.49.5,3.43a10.53,10.53,0,0,1-2.73.73c-1.2.22-2.35.72-3.58.9a17.82,17.82,0,0,1-5,.19A12.63,12.63,0,0,1,32.75,24.49Z"/><path class="cls-9" d="M18.08,40.83a7.08,7.08,0,0,0,2.91.45l.06-.09c.46-.67,0-4.55-.17-5.28-.48-1.85-1.53-2.86-3.28-2.45C13.93,34.3,15.16,39.65,18.08,40.83Z"/><path class="cls-11" d="M19.53,39.59c1.35-.77.23-3.63-.75-4.13-.79-.41-2.85.18-2,1.81.57-1.45,1.43-.45,1.25.59-.12.7-.88.68-.17,1.62C18.28,40,19.1,39.83,19.53,39.59Z"/><path class="cls-7" d="M43.71,22.8c-1.13.24-2.3.38-3.19.62a11.82,11.82,0,0,1-6.79.23c-2-.63-4.21-1.46-6.38-1.43a4.28,4.28,0,0,0-3.69,1.54c-1.09,1.3-4.17-.66-4.72-1.53-.72-1.16.4-3.94,1-5.08.82-1.58,1.52-3.22,3-4.12a63.51,63.51,0,0,0,7.84-5.26,2.41,2.41,0,0,0,.06.79A5.44,5.44,0,0,0,34,7c0,.46,0,.91,0,1.36,0,.24,1.82-.67,2-.78A27,27,0,0,1,38.63,6a20.44,20.44,0,0,0-.41,2.34A9.28,9.28,0,0,0,42,6.85a11,11,0,0,1-.6,2.28,10,10,0,0,0,3.1-1c-.06,1.67-1.27,2.55-1.77,4.05,1,.24,3.25-.13,4.12.41a13.78,13.78,0,0,0-1.75,2.08,7.4,7.4,0,0,1,3.14,1.69C47.15,16.6,47.11,19,47,20.47S45.09,22.5,43.71,22.8Z"/><path class="cls-8" d="M19.81,34a2.29,2.29,0,0,0-1.71-.57c-.3-.43-1-5-.14-11.92.24.4,2.37,1.82,5.7,2.3-1,1.39-1.82,8-1.33,12.65a2.3,2.3,0,0,1-1.63-.5A4.43,4.43,0,0,0,19.81,34Z"/><path class="cls-12" d="M29.87,9.34c-.3,1.94,2.41-.53,3-1,.13.47.26,1,.4,1.49a13.59,13.59,0,0,0,3.88-2.5c.12.71-.15,1.53,0,2.29,1.31,0,2.44-1.17,3.44-1.82A8.7,8.7,0,0,1,40.2,10,11,11,0,0,0,43.37,9c-.24,1.33-1.49,3-2.09,4.27,1.38.12,2.77-.94,4.17-.74A6.2,6.2,0,0,0,44,15.34a8.26,8.26,0,0,1,3.25.9c-.43.46-1.09.87-1.29,1.48a4.84,4.84,0,0,0,.86-.06,20.54,20.54,0,0,1-.81,2.23,8,8,0,0,1-2.35,2.05,8.41,8.41,0,0,0,1-2.27c-.95.55-4.83,2.55-5.81,3,1.43-.9,5.54-3.85,5.69-5.83-1.56.54-8.12,4.44-9.46,4.91,1.12-.83,7.05-6.32,7.33-6.95-2.62.55-8.07,5.52-10.78,6,1.27-.74,7.41-6.13,7.39-7.88-1.22.07-12.42,6.69-12.4,6.67.94-1.28,7.19-4.63,7-6.39-.08-.66-7.21,3.12-7.68,3.28,0-.46,5.45-4.2,5-4.09-8,1.72-10.27,4.82-9.3,3.21C23.29,12.83,27.64,11.61,29.87,9.34Z"/><path class="cls-13" d="M28.6,35.38a2.73,2.73,0,0,0-1.88-.24c-1.25-1.16.09-4.48,2-3.58C30.06,32.23,29.9,34.78,28.6,35.38Z"/><path class="cls-11" d="M38.75,38.23c-.44-.61-1.14,0-2.37,0s-1.53-.56-2.33-.13.25,2,2.22,2S39.14,38.74,38.75,38.23Z"/><path class="cls-14" d="M37.91,35.25c-.39-1.2-.72-3.81-1.75-3.76s-1.24,2.81-1.63,4.11-.69,2.55-.23,2.95c1.14,1,3.61.42,4.35-.29C38.94,38,38.36,36.62,37.91,35.25Z"/><path class="cls-13" d="M45.09,32.13c1,.66.91,2.8.1,3.63a2.47,2.47,0,0,0-2-.08C41.63,34.56,43.21,30.89,45.09,32.13Z"/><path class="cls-15" d="M28,32.12c.7-.2,1.08.87.52,1.24C27.71,33.88,27.19,32.35,28,32.12Z"/><path class="cls-15" d="M44.32,32.5c.68-.1.9,1,.33,1.25C43.85,34.14,43.55,32.62,44.32,32.5Z"/><path class="cls-16" d="M25.08,29.81a3.34,3.34,0,0,1-.84.12,3.37,3.37,0,0,1,3.24-2,20.07,20.07,0,0,0,2.78.54c.39,0,1.26-.21,1.58.07a2.41,2.41,0,0,1,.35,1.35c-.06.91-2.89.17-3.48.09a16.44,16.44,0,0,0-2.4-.39A6,6,0,0,0,25.08,29.81Z"/><path class="cls-16" d="M45.53,28.62a27.81,27.81,0,0,1-3.29.21c-.37,0-1.15-.3-1.47,0a2.47,2.47,0,0,0-.44,1.31c0,.91,2.65.38,3.2.35.31,0,1.47-.15,1.78-.2A16.3,16.3,0,0,1,45.53,28.62Z"/><path class="cls-16" d="M46.12,28.9A8.2,8.2,0,0,0,46,30.18c.22.06,1.4,0,1.67.07C47.54,29.64,46.68,29.33,46.12,28.9Z"/><path class="cls-14" d="M46.49,37.52a2,2,0,0,1,.3.52c.72,2-3.93,1.75-4.56.92-1.18-1.55.32-2.11,1.47-2.2A3.34,3.34,0,0,1,46.49,37.52Z"/><path class="cls-14" d="M29.13,37.11a1.58,1.58,0,0,1,.3.56c.69,2.09-4.18,1.69-4.81.8-1.18-1.66.4-2.19,1.61-2.25A3.47,3.47,0,0,1,29.13,37.11Z"/><g class="cls-17"><path class="cls-18" d="M35.69,47a8.69,8.69,0,0,0,7.77-4.63.49.49,0,0,0-.3-.67.63.63,0,0,0-.76.3,7.51,7.51,0,0,1-6.94,4c-3.36,0-6.24-1.86-7.17-4.63a.59.59,0,0,0-1.11.35c1.08,3.2,4.34,5.3,8.21,5.32Z"/></g></g></g></g></svg>