<svg xmlns="http://www.w3.org/2000/svg" xmlns:xlink="http://www.w3.org/1999/xlink" viewBox="0 0 66 66"><defs><style>.cls-1{fill:none;}.cls-2{clip-path:url(#clip-path);}.cls-3{fill:#507d52;}.cls-4{fill:#8d573e;}.cls-5{fill:#93b7f5;}.cls-6{fill:#2f58a1;}.cls-7{fill:#a1664c;}.cls-8{opacity:0.1;}.cls-9{fill:#ed9d6c;}.cls-10{fill:#c9beb7;}.cls-11{fill:#ffb97f;}.cls-12,.cls-16{fill:#bf3c1b;}.cls-12{opacity:0.2;}.cls-13,.cls-19{fill:#b54319;}.cls-13{opacity:0.35;}.cls-14{fill:#f0eae6;}.cls-14,.cls-28{opacity:0.7;}.cls-15{fill:#9e8f88;}.cls-16,.cls-18,.cls-21,.cls-26{opacity:0.3;}.cls-17{fill:#ffcb9e;}.cls-18{fill:#6e2210;}.cls-19{opacity:0.5;}.cls-20{fill:#121b21;}.cls-21{fill:#a67663;}.cls-22{fill:#ffd2ab;}.cls-23{fill:#7d8ba8;}.cls-24{fill:#4f2c1e;}.cls-25{fill:#3a3a4a;}.cls-26,.cls-27,.cls-28{fill:#fff;}.cls-29{fill:#c1c5c9;}</style><clipPath id="clip-path" transform="translate(0.01)"><circle class="cls-1" cx="33" cy="33" r="33"/></clipPath></defs><g id="Layer_2" data-name="Layer 2"><g id="avatars"><g class="cls-2"><rect class="cls-3" width="66" height="66"/><path class="cls-4" d="M15.59,66h7.35l-4.05-9.79C17.58,57.28,15.65,59.38,15.59,66Z" transform="translate(0.01)"/><path class="cls-4" d="M46.3,55.92,42.31,66h7.78C50,59.38,47.6,57,46.3,55.92Z" transform="translate(0.01)"/><path class="cls-5" d="M41.68,54.21c-2.11-5.14-13.36-3.63-16.33-1.14s-3.79,5.49.67,9.86A26,26,0,0,0,29.76,66h5.65C38.14,63.06,42.94,57.29,41.68,54.21Z" transform="translate(0.01)"/><path class="cls-6" d="M35.71,58.05a2.55,2.55,0,0,0-2.94-1.3,2.69,2.69,0,0,0-2.24,2l1.62,1.64L30.5,66h6.44l-2.2-5.9Z" transform="translate(0.01)"/><path class="cls-4" d="M25.27,53.58a4.44,4.44,0,0,1,.54-1c-2.36,1-6.71,3.08-7.09,3.85s1.81,5,2.81,9.58h9.33C28,62.21,24.17,56.41,25.27,53.58Z" transform="translate(0.01)"/><path class="cls-4" d="M46.4,56a33.16,33.16,0,0,0-5.65-3.74c.14.32.61,1,.58,1.36-.37,4-3.08,9-5.15,12.36h8.38C45.3,62.2,46.85,56.51,46.4,56Z" transform="translate(0.01)"/><path class="cls-7" d="M43,61.92a25.4,25.4,0,0,0-1.85-3.14l3.24-1.94a14.35,14.35,0,0,0-4.53-5c.55,5.31-2.23,10.81-4.25,14.17h3.12A55.41,55.41,0,0,0,43,61.92Z" transform="translate(0.01)"/><path class="cls-7" d="M21.87,57.47,25.74,59A37.69,37.69,0,0,0,24,62.93,32.09,32.09,0,0,0,27.74,66h3.65c-2.11-3-5-8-5-13.55A10.15,10.15,0,0,0,21.87,57.47Z" transform="translate(0.01)"/><path class="cls-8" d="M26.34,55.67a9.77,9.77,0,0,0,3.81,5l3.13-3,3.34,2.82c3.18-2.82,3.81-4.59,4.07-5.6C41.52,51.78,25,51.27,26.34,55.67Z" transform="translate(0.01)"/><path class="cls-5" d="M25.82,52.61c-1.56,4,4.1,7.2,4.1,7.2l3.36-2.1,3.14,2s6.22-3.22,3.87-7.85C38.17,47.67,27.62,48,25.82,52.61Z" transform="translate(0.01)"/><path class="cls-9" d="M30.82,47.06a4.7,4.7,0,0,0-3.48,4.31,3.65,3.65,0,0,0,1,3.25A6.84,6.84,0,0,0,31,56.15c.74.23,2,1.1,2.27,1.1s.52-.37,1.22-.73c1-.52,2.47-1.22,3-2.32.82-1.61,1.56-4.8,0-6.06S32.75,46.64,30.82,47.06Z" transform="translate(0.01)"/><path class="cls-10" d="M29.84,8.73C8.66,10.29,12,39.69,18.09,38.45c4.46-.91,8.85-2.16,13.28-3.23,4.12-1,8.68-.19,12.89.11,3.3.25,3.25-1.15,3.43-3.82.33-5-.21-6.82,0-8.83C48.81,14.13,42,7.85,29.84,8.73Z" transform="translate(0.01)"/><path class="cls-11" d="M30.54,15c-7.79,1.47-13.33,12.62-12,23.12,1,7.87,7,16.52,16.17,15.92,9.32-.61,14-12.14,12.87-21.81C46.37,21.71,41.44,12.92,30.54,15Z" transform="translate(0.01)"/><path class="cls-11" d="M15.89,33.73c-3.82,1-2.32,6.61.79,7.75a7.54,7.54,0,0,0,3.08.35.36.36,0,0,0,.07-.1c.46-.72-.34-4.43-.57-5.2C18.68,34.6,17.73,33.23,15.89,33.73Z" transform="translate(0.01)"/><path class="cls-12" d="M44.13,18a35.92,35.92,0,0,0-13-2.81c-3.11-.07-7.75-.28-10.24,2-2,1.81-2.17,5.22-2.3,7.73-.05.95-.07,8.26.49,6.68,1-2.86,3.36-3.94,3.3-6.95,4.48,2,11.22,1.88,17.09,1.31,3.68-.35,6.64-1.25,7.37,1.82C47.33,25.06,47.06,19.15,44.13,18Z" transform="translate(0.01)"/><path class="cls-13" d="M17.22,35.78c-.86-.39-3,.31-2,2,.54-1.55,1.48-.53,1.33.58-.1.74-.9.74-.11,1.7.42.52,1.29.33,1.73.06C19.56,39.24,18.27,36.27,17.22,35.78Z" transform="translate(0.01)"/><path class="cls-10" d="M51.55,10.84c-5,4-13-4.82-24.38-1.44-15.49,4.62-9.73,21-9.66,23a9.83,9.83,0,0,0,1.58,4.5,3.63,3.63,0,0,0,2.09,0c-1.39-1.3-1.94-4.83-.8-8.12.63-1.84,1.54-3.13,1.34-5.62,1.36,1.24,11.08,3.1,23.25.56a11.61,11.61,0,0,0,7.51-5.09c-1,0-1.75.18-3,.34C51.29,17.13,51.51,13.5,51.55,10.84Z" transform="translate(0.01)"/><path class="cls-14" d="M38.75,10.43c-5.54-1.57-14-1.73-18.38,2.8s-.61,8.47,14.21,8.3c13.52-.16,16.33-9.7,16.33-9.7C46.87,13.74,44.3,12,38.75,10.43Z" transform="translate(0.01)"/><path class="cls-15" d="M16.74,33.63c1.34.09,1.52,2.7,2.48,3.37a3.43,3.43,0,0,0,2-.09c-1-1.48-1.25-5.25-1.26-6.3C19.19,32.17,15.51,33.55,16.74,33.63Z" transform="translate(0.01)"/><path class="cls-14" d="M16,19a14.69,14.69,0,0,0-1.07,3.85c-.21,1.59-.35,3.83.83,5.12a2.45,2.45,0,0,0,4.13-1.07C21.52,22,16,19,16,19Z" transform="translate(0.01)"/><path class="cls-8" d="M25.87,52.93c1.56,5.89,14.4,7.46,17.16.88C45.08,48.92,24.66,48.41,25.87,52.93Z" transform="translate(0.01)"/><path class="cls-10" d="M47.46,31.06c.75,16-4.23,10-4.23,10l-1.54.62c.56,3.89-3.48,5.53-4.15,2.92l-3.79.2c-1,3.84-5.07-.41-5-2.71s-1.85-.57-1.85-.57c-2.51,2.46-6-3.66-6.26-5l-1.92-.15s.08,21.57,18.63,19.84C53.27,54.71,47.76,30.3,47.76,30.3Z" transform="translate(0.01)"/><path class="cls-16" d="M31,43.71c1.21,3,7.52,2.82,8.44.39C37.35,44.86,32.69,45.21,31,43.71Z" transform="translate(0.01)"/><path class="cls-17" d="M36.77,42.16A18.94,18.94,0,0,1,32,41.91a1.2,1.2,0,0,0-1.19,2c1.28,1.45,3.74,1.4,5.36,1.31,1.27-.08,4-.35,4.16-2.42C40.53,41,37.51,42.1,36.77,42.16Z" transform="translate(0.01)"/><path class="cls-18" d="M26.54,41.72C31.73,44.25,41,44,44.23,41.17,40.12,42,30.57,42.53,26.54,41.72Z" transform="translate(0.01)"/><path class="cls-19" d="M24.16,34.13c.05.63,1.48.33,1.91.43-.38.39-1.49.38-1.95.65s-.44.47.14.46A10.12,10.12,0,0,0,26.8,35C27.86,34.1,24.65,34,24.16,34.13Z" transform="translate(0.01)"/><path class="cls-19" d="M46.2,34.66c-.36-.27-1.29-.29-1.57-.68.37-.09,1.54.23,1.64-.39-.4-.14-3.09-.09-2.3.81a7.18,7.18,0,0,0,2.06.71C46.51,35.13,46.58,35,46.2,34.66Z" transform="translate(0.01)"/><path class="cls-20" d="M28,31.43c-2-.87-3.28,2.68-1.92,3.84a2.88,2.88,0,0,1,2,.18C29.42,34.77,29.5,32.08,28,31.43Z" transform="translate(0.01)"/><path class="cls-10" d="M36.18,38l-1.51-.05A9.93,9.93,0,0,0,29.45,39c-.78.38-2.92,1.77-3.3,2.58A32.91,32.91,0,0,0,42,42a6.79,6.79,0,0,0,2.67-1c-1.85-1.48-4.49-3.15-7-3.22A5.68,5.68,0,0,0,36.18,38Z" transform="translate(0.01)"/><path class="cls-21" d="M36.15,37.26c-1,0-1.44-.31-2.11,0s.31,1.61,2.08,1.54,2.58-1.29,2.17-1.63S37.26,37.24,36.15,37.26Z" transform="translate(0.01)"/><path class="cls-22" d="M35.52,31.63c-.87.05-1,2.41-1.34,3.53s-.51,2.17,0,2.5c1.15.81,3.49.3,4.17-.32.27-.24-.38-1.39-.89-2.54S36.51,31.57,35.52,31.63Z" transform="translate(0.01)"/><path class="cls-20" d="M44.13,31.36c-2.05-1.1-3.66,3.25-1.39,3.79a2.58,2.58,0,0,1,1.74-.49C45.24,33.74,45.23,32,44.13,31.36Z" transform="translate(0.01)"/><path class="cls-23" d="M27.43,31.93c-.82.28-.21,1.86.59,1.29C28.59,32.81,28.15,31.69,27.43,31.93Z" transform="translate(0.01)"/><path class="cls-23" d="M43.61,31.92c-.78.19-.33,1.71.46,1.23C44.63,32.82,44.3,31.75,43.61,31.92Z" transform="translate(0.01)"/><path class="cls-24" d="M42.36,27.09c-1.81.06-3.15,0-3.16,0,0,.85.39,2.58,1.76,2.41.81-.1,1.65-.33,2.46-.37a10.33,10.33,0,0,1,3,.27.51.51,0,0,0,.53-.81A6,6,0,0,0,42.36,27.09Z" transform="translate(0.01)"/><path class="cls-24" d="M28,27.32a6.6,6.6,0,0,0-5,1.73c-.24.21,0,1,.69.8A12.34,12.34,0,0,1,27,29.44c.91,0,1.87.21,2.79.28,1.54.12,1.8-1.64,1.69-2.5C31.48,27.17,30,27.31,28,27.32Z" transform="translate(0.01)"/><path class="cls-22" d="M46.36,36.69a3.23,3.23,0,0,0-3-.76c-1.21.17-2.77.9-1.47,2.66.69.94,5.59,1,4.77-1.3A2.18,2.18,0,0,0,46.36,36.69Z" transform="translate(0.01)"/><path class="cls-22" d="M28.47,36.83a3.26,3.26,0,0,0-3.14-.72c-1.26.23-2.87,1.08-1.45,3,.75,1,5.9.86,5-1.6A2.29,2.29,0,0,0,28.47,36.83Z" transform="translate(0.01)"/><path class="cls-14" d="M38,38.91a5.11,5.11,0,0,1-2.49.67c-.59,0-2.17-.79-3.09-.69a10.82,10.82,0,0,0-3.61,1.87c4.51,1,10.31,1.31,13.56-.39C41.27,39.47,39.14,38.37,38,38.91Z" transform="translate(0.01)"/><path class="cls-14" d="M43.23,46.64c-1.35-1.63-2.79-.22-2.73,1.5-2-2.79-5.64-.9-5.79.94-1.14-3.11-4.28-2.9-4.07-.75-.49-1.86-3.12-4.27-5.12-3.92-3.47.61-.51,5.16.67,6.72,4.22,5.63,21.37,5.07,20.17-5.85C46.05,42.48,42.83,43.16,43.23,46.64Z" transform="translate(0.01)"/><path class="cls-21" d="M42.42,31.34c.83-.06,1.66-.07,2.49-.08A6.21,6.21,0,0,0,47,31.09c.87-.37.69-1.57.16-2.19s-1.38-.42-2.13-.35a18.61,18.61,0,0,0-2.89.52,16.85,16.85,0,0,0-3.67,1,4.4,4.4,0,0,1-2.7.81c-2.27-.08-4.18-1.48-6.44-1.7a18.93,18.93,0,0,0-7.08.16c-.6.17-2.43.87-1.19,1.51s3,.41,4.32.46c.61,0,1.22,0,1.83.08,2.15.18,5.46-.13,5.3,2.55-.1,1.85-1.28,3.75-2.78,4.11a20,20,0,0,1-4.42.48,7.7,7.7,0,0,1-3.21-.67c-.29-.14-1.16-.68-1.43-.29-.47.67,1.28,1.75,1.74,2a10.59,10.59,0,0,0,3.3.71c2.81.29,5.7.12,7.27-2.47.91-1.5,1.36-3.26,2.2-4.8,1.38-2.52,2,.91,2.36,2.41a7.7,7.7,0,0,0,1,2.37,5.33,5.33,0,0,0,4,2.08,17,17,0,0,0,4.5-.48c.5-.21.76-1,.17-1.29a30.29,30.29,0,0,0-3.25.32,11.38,11.38,0,0,1-1.65-.16,4.83,4.83,0,0,1-2-.93,3.94,3.94,0,0,1-1-1.18,3.89,3.89,0,0,1-.15-3.17C39.69,31.51,41.18,31.43,42.42,31.34Z" transform="translate(0.01)"/><path class="cls-25" d="M19.84,29.1c-1.85.18-3.46-.23-3.87.17s.56,2.11.56,2.11a3.32,3.32,0,0,0,1.49.39c.2,1.27.34,4.59,2.84,6.54,2.08,1.61,8.53,1.7,10.47.57a7.79,7.79,0,0,0,3.59-6.09C35.63,27.13,22.44,28.85,19.84,29.1Zm11.52,8.26C29,39.1,22.73,38.76,21,36.86c-1.35-1.47-1.78-4.69-1-5.2,2.25-1.56,11.09-1.59,13.22-.17C34.18,32.18,33.14,36.05,31.36,37.36Z" transform="translate(0.01)"/><path class="cls-25" d="M50,28.47c-2.25-.13-13.67-1.23-12.89,4.38.32,2.29,1.17,4.63,3.27,5.92,1.7,1,7.27.65,9-1.06,2.09-2.05,2.11-5.38,2.25-6.66a2.61,2.61,0,0,0,1.27-.46s.9-1.63.42-2.13S51.58,28.56,50,28.47Zm-.75,7.8c-1.45,2-6.87,2.61-8.94,1-1.57-1.23-2.58-5-1.71-5.78C40.38,30,48,29.58,50,31,50.63,31.51,50.35,34.75,49.23,36.27Z" transform="translate(0.01)"/><path class="cls-26" d="M40.09,31.06c-1.28.49.95,1.31,1.43,1.42a16.31,16.31,0,0,0,5.41.09c1-.12,3-.91,2.48-1.49C48.63,30.27,41.5,30.52,40.09,31.06Z" transform="translate(0.01)"/><path class="cls-27" d="M45.67,31.05c-.68.08-1.13.26-1,.59.34.65,4.33.51,4.62.05S47.12,30.9,45.67,31.05Z" transform="translate(0.01)"/><path class="cls-28" d="M41.26,35.84c-.42,0-.72.06-.65.34.13.55,2.6,1,2.83.62S42.17,35.89,41.26,35.84Z" transform="translate(0.01)"/><path class="cls-28" d="M22.38,36.3c-.47,0-.8,0-.74.32.13.56,2.83,1.06,3.1.73S23.38,36.4,22.38,36.3Z" transform="translate(0.01)"/><path class="cls-26" d="M32.14,31.23c-1.68-.48-9.92-.56-10.72.22-.57.56,1.92,1.25,3,1.35a22.07,22.07,0,0,0,6.22-.21C31.21,32.48,33.67,31.66,32.14,31.23Z" transform="translate(0.01)"/><path class="cls-27" d="M28.55,31c-.75.08-1.25.26-1.07.59.37.65,4.77.51,5.1.05S30.15,30.83,28.55,31Z" transform="translate(0.01)"/><path class="cls-25" d="M38.82,29.56a10,10,0,0,1-5.88.09c-1.85-.5,1,1.11,1.2,2s0,4,.57,2.26,1.79-1.78,2.53-.2.89-2.53,1.21-2.91S40.56,29,38.82,29.56Z" transform="translate(0.01)"/><path class="cls-29" d="M20.74,29.59c5-.07,9-.19,12.09.78C30.76,28.88,27.35,28.75,20.74,29.59Z" transform="translate(0.01)"/><path class="cls-29" d="M39.36,30.1C42,29,45.2,29.28,49.55,28.88,43.72,28.76,41,28.65,39.36,30.1Z" transform="translate(0.01)"/></g></g></g></svg>