<svg xmlns="http://www.w3.org/2000/svg" xmlns:xlink="http://www.w3.org/1999/xlink" viewBox="0 0 66 66"><defs><style>.cls-1{fill:none;}.cls-2{clip-path:url(#clip-path);}.cls-3{fill:#7997a0;}.cls-4{fill:#e0e0e0;}.cls-5{fill:#ffc38f;}.cls-6{fill:#23232d;}.cls-7{fill:#141418;}.cls-8{fill:#3a3a4a;}.cls-10,.cls-15,.cls-30,.cls-31,.cls-9{fill:#fff;}.cls-10{opacity:0.5;}.cls-11,.cls-20,.cls-29,.cls-30{opacity:0.3;}.cls-12{fill:#f2f2f2;}.cls-13{fill:url(#linear-gradient);}.cls-14{fill:#fff9f0;}.cls-15{opacity:0.07;}.cls-16{fill:#fad882;}.cls-17{fill:#ffe9b1;}.cls-18{fill:#ebc271;}.cls-19{fill:#ffc59a;}.cls-20{fill:#d14f2e;}.cls-21{fill:#ffb085;}.cls-22{fill:#6e4c3c;}.cls-23{fill:#1e4c76;}.cls-24{fill:#9cd0ff;}.cls-25{fill:#121b21;}.cls-26{fill:#ff3b3b;opacity:0.8;}.cls-27{fill:#8f2722;}.cls-28{fill:#e8dac5;}.cls-29{fill:#b54d26;}.cls-31{opacity:0.7;}.cls-32{fill:#c1c5c9;}</style><clipPath id="clip-path" transform="translate(0.01)"><circle class="cls-1" cx="33" cy="33" r="33"/></clipPath><linearGradient id="linear-gradient" x1="33.88" y1="51.29" x2="33.88" y2="54.5" gradientUnits="userSpaceOnUse"><stop offset="0" stop-color="#ee996d"/><stop offset="0.02" stop-color="#ee9a6e"/><stop offset="0.37" stop-color="#f8b181"/><stop offset="0.71" stop-color="#fdbf8d"/><stop offset="1" stop-color="#ffc491"/></linearGradient></defs><g id="Layer_2" data-name="Layer 2"><g id="avatars"><g class="cls-2"><rect class="cls-3" width="66" height="66"/><path class="cls-4" d="M29.9,57.74,28.41,54.9c-2,1-2.54,3.26-3.1,5.66-.2.87-.8,3.39-1.38,5.44h3.43c.49-1.88,1-4.09,1.17-4.75C28.89,59.68,29.27,58.05,29.9,57.74Z" transform="translate(0.01)"/><path class="cls-5" d="M48.16,50.48c-2.39,2.91,0,3.74,2.3,5.25,1.14.76,2.49,2.07,3.41.15a28.5,28.5,0,0,0,.94-3.11,11.7,11.7,0,0,1,1.39-3C57.88,47.6,55.55,41.48,48.16,50.48Z" transform="translate(0.01)"/><path class="cls-6" d="M47.43,36.9A1,1,0,0,0,46.1,37l-5.46,5.48a1,1,0,0,0,0,1.33l9.76,9.72a1,1,0,0,0,1.33,0L57.15,48a1,1,0,0,0,0-1.33Z" transform="translate(0.01)"/><path class="cls-7" d="M47.07,36.59a.91.91,0,0,0-1.28.06L40.44,42a.92.92,0,0,0-.06,1.29l9.31,9.27A.93.93,0,0,0,51,52.52l5.35-5.37a.92.92,0,0,0,.05-1.29Z" transform="translate(0.01)"/><path class="cls-8" d="M47.07,36.59a.91.91,0,0,0-1.28.06L40.44,42a.92.92,0,0,0-.06,1.29l9.31,9.27A.93.93,0,0,0,51,52.52l5.35-5.37a.92.92,0,0,0,.05-1.29Z" transform="translate(0.01)"/><path class="cls-9" d="M47.17,38.51a.7.7,0,0,0-1,0l-3.9,3.92a.7.7,0,0,0,0,1l7.2,7.16a.69.69,0,0,0,1,0l3.9-3.92a.7.7,0,0,0,0-1Z" transform="translate(0.01)"/><path class="cls-10" d="M45.79,36.65,40.44,42a1.57,1.57,0,0,0,.16,1.74l5.17,5,3-10.55-1.66-1.65A.91.91,0,0,0,45.79,36.65Z" transform="translate(0.01)"/><path class="cls-5" d="M46.2,49.4c-.17.46.63,1.32.82,1.74.31.67-.2,1.92.61,2.44.65.43,1.19-.08,1.44-.63a3,3,0,0,0-.93-3.25C47.72,49.27,46.46,48.66,46.2,49.4Z" transform="translate(0.01)"/><path class="cls-4" d="M39.6,55.16c-.5-.34-.87,2.55-.51,3.78,1.32,4.59,12.81,7.42,15-2.42l-4.29-1.05C48.19,64.41,41,56.13,39.6,55.16Z" transform="translate(0.01)"/><path class="cls-4" d="M39.67,55.16c-2.4-2.43-8.7-2.24-11.34-.17s-.12,7.19.46,11H39.07C39.31,61,42.33,57.86,39.67,55.16Z" transform="translate(0.01)"/><path class="cls-8" d="M39.87,61.72a11.2,11.2,0,0,1-.23-6.58c-2.41-2.39-9-2.19-11.73,0a10.41,10.41,0,0,1-.25,6.15,32.19,32.19,0,0,1,1,4.66H39.19A14.12,14.12,0,0,1,39.87,61.72Z" transform="translate(0.01)"/><path class="cls-11" d="M29.26,56.72l.87,3.94A33.81,33.81,0,0,1,34,58.91a34.33,34.33,0,0,1,3.92,1.59l.47-4S34.76,58.69,34,58.7A40.78,40.78,0,0,1,29.26,56.72Z" transform="translate(0.01)"/><path class="cls-12" d="M36.91,53.15a9.6,9.6,0,0,0-6.48.09c-3.17,1.5.2,6.42.2,6.42L34,58.8l3.4.75S40,54.46,36.91,53.15Z" transform="translate(0.01)"/><path class="cls-13" d="M36.94,53.62c-.55-.44-.42-1.8-.33-3.38.21-3.57-6-3.7-5.95.2,0,1.72.06,2.81-.4,3.28-.9.92-.81,2.54,3.69,4.62C36.41,57.12,39.6,55.74,36.94,53.62Z" transform="translate(0.01)"/><path class="cls-14" d="M30.08,53.75a.53.53,0,1,0,.54.51A.53.53,0,0,0,30.08,53.75Z" transform="translate(0.01)"/><path class="cls-14" d="M31.28,54.57a.53.53,0,0,0,0,1,.52.52,0,0,0,.5-.54A.53.53,0,0,0,31.28,54.57Z" transform="translate(0.01)"/><path class="cls-14" d="M32.84,55.12a.52.52,0,0,0-.5.54.52.52,0,1,0,.5-.54Z" transform="translate(0.01)"/><path class="cls-14" d="M34.4,55.2a.54.54,0,0,0-.51.55.53.53,0,1,0,.51-.55Z" transform="translate(0.01)"/><path class="cls-14" d="M37.22,53.7a.53.53,0,0,0,0,1,.52.52,0,0,0,.5-.54A.53.53,0,0,0,37.22,53.7Z" transform="translate(0.01)"/><path class="cls-14" d="M36,54.62a.53.53,0,0,0-.5.55.52.52,0,1,0,1,0A.53.53,0,0,0,36,54.62Z" transform="translate(0.01)"/><path class="cls-15" d="M36.56,60.2a10.5,10.5,0,0,1-6.08-.09c-1.11-.29-1.73,1-1.39,2.16.45,1.49,2.74,1.88,4.74,1.85,3.94-.08,5.42-1.62,4.76-3.46C38.41,60.16,37.56,59.83,36.56,60.2Z" transform="translate(0.01)"/><path class="cls-16" d="M17.86,23.67C7.84,25.28,7,37.58,12.37,43.2c4.25,4.4,3.86,7.42.55,7.76,2,2,15.19,6.6,17.39-9.83S22.65,22.89,17.86,23.67Z" transform="translate(0.01)"/><path class="cls-17" d="M16.26,26.16C13.68,26,9.46,29.1,9.8,35.41a17.39,17.39,0,0,0,1.91,6.19s-2.44-9.21,6.6-10.37C28.24,30,16.26,26.16,16.26,26.16Z" transform="translate(0.01)"/><path class="cls-18" d="M24.3,33.33c-1.95,1.48-7.2,0-3.84,9.65,2.37,6.85-.37,9.4-5.75,8.72,0,0,8.33,3.85,14.78-4.54C36.52,38,33.06,26.64,24.3,33.33Z" transform="translate(0.01)"/><path class="cls-18" d="M18.66,31.55c-1.92-.14-3.49,1.33-2.81,5.8a4.2,4.2,0,0,0,4.83,3.81S20.59,31.7,18.66,31.55Z" transform="translate(0.01)"/><path class="cls-16" d="M31.26,9.4C8.56,10.31,13,40.9,22.85,39.67c5-.62,3.68-6.46,8.58-7.69a25,25,0,0,1,7.37-.53c2.39.12,6.73,6.72,7.85,5.2C49.32,33,51.14,8.61,31.26,9.4Z" transform="translate(0.01)"/><path class="cls-19" d="M32.41,16.09c-10.5.6-13.77,7.85-13.24,18.58s8.13,17.61,15.9,17.9C41,52.79,48.32,43,47.44,32.3S42.5,15.52,32.41,16.09Z" transform="translate(0.01)"/><path class="cls-20" d="M32.62,20.53c-.9.26.28,1.84.28,1.84.17-1.11.78-1,1.42-.38C34.32,22,33.52,20.26,32.62,20.53Z" transform="translate(0.01)"/><path class="cls-20" d="M35.52,19.74c-1.81,0-1.19,2.26-1.19,2.26.34-1.23,1.84-1.43,3.24-.37A2.14,2.14,0,0,0,35.52,19.74Z" transform="translate(0.01)"/><path class="cls-20" d="M24,18.23C16.08,21.55,20.83,37,20.83,37,17.63,15.19,31.16,21.57,32.9,22.37,31.37,20,29.59,15.88,24,18.23Z" transform="translate(0.01)"/><path class="cls-20" d="M40.18,16c-2.06.2-2.69,4.15-2.61,5.61,1.92-2.74,6.4-2.17,8.57,3.45C46.17,22.82,43,15.75,40.18,16Z" transform="translate(0.01)"/><path class="cls-19" d="M17.37,31.56c-2.86,1.36-1.55,7.32.84,8.35a4,4,0,0,0,2.35.18l0-.1c.33-.82-.39-4.79-.59-5.61C19.51,32.33,18.74,30.91,17.37,31.56Z" transform="translate(0.01)"/><path class="cls-20" d="M18.35,33.54c-.6-.31-1.82.69-.93,2.29.09-1.66.83-.73.91.43.06.78-.44.88.21,1.77.34.47.85.17,1.08-.16C20.35,36.8,19.07,33.91,18.35,33.54Z" transform="translate(0.01)"/><path class="cls-16" d="M28.87,10.85C18.4,13.16,13.53,29,22.1,41.49,20.6,37.35,19,25.9,21.52,22.27s8.33-2.1,11.38.1A5.31,5.31,0,0,1,33.11,21a12.43,12.43,0,0,1,1.21,1c.32-1.85,2.2-1.52,3.25-.36,1-4.07,7-4.54,9.19,5.88.24,1.16.07-4.53-.16-5.71C45.51,16.35,38.61,8.71,28.87,10.85Z" transform="translate(0.01)"/><path class="cls-17" d="M41.83,12.62c-9,8.67-20.81,1-20.81,1-4.36,2.69-5.34,9-5.34,9S18,23.74,19.9,21s5.14-3.06,8.8-2.44,6.92-.59,11.12-1.2,7.06,4.1,7.06,4.1C46.12,16.24,41.83,12.62,41.83,12.62Z" transform="translate(0.01)"/><path class="cls-14" d="M19.18,39.93a1.14,1.14,0,1,0,1.12,1.16A1.14,1.14,0,0,0,19.18,39.93Z" transform="translate(0.01)"/><path class="cls-21" d="M46.39,37.1a2.62,2.62,0,0,0-2.36-1c-1.06,0-2.51.39-1.75,2,.41.89,4.55,1.57,4.28-.47A1.54,1.54,0,0,0,46.39,37.1Z" transform="translate(0.01)"/><path class="cls-21" d="M27.6,37.33c-.63-.86-1.88-.82-2.77-.66-1.16.21-2.68,1-1.55,2.72.6.92,5.26.79,4.6-1.47A1.9,1.9,0,0,0,27.6,37.33Z" transform="translate(0.01)"/><path class="cls-20" d="M35,37.08c-.82,0-1.15-.33-1.72,0s.69,1.43,1.7,1.35,2.08-1,1.77-1.37S35.88,37.08,35,37.08Z" transform="translate(0.01)"/><path class="cls-22" d="M38.93,27.31a27,27,0,0,1,3.83-.15,33.29,33.29,0,0,1,4.14.5,7.41,7.41,0,0,0-4.33-2A4.49,4.49,0,0,0,38.93,27.31Z" transform="translate(0.01)"/><path class="cls-22" d="M25.59,27.41A8.31,8.31,0,0,0,21,29.51a35.83,35.83,0,0,1,4.51-.77,29.67,29.67,0,0,1,4.2,0A5.59,5.59,0,0,0,25.59,27.41Z" transform="translate(0.01)"/><path class="cls-23" d="M41.69,31.75c-.11,1.62.29,2.88,1.72,3,2,.15,2.63-1.56,2.74-2.68A10,10,0,0,0,41.69,31.75Z" transform="translate(0.01)"/><path class="cls-24" d="M43.11,31.69c-.81.11-.44,1.55.39,1.18A.63.63,0,0,0,43.11,31.69Z" transform="translate(0.01)"/><path class="cls-25" d="M40.64,32A13.46,13.46,0,0,1,44.21,32c3.59.48,4.72.05,4.72.05-1.94-.36-3.81-1.27-5-1.41A3.72,3.72,0,0,0,40.64,32Z" transform="translate(0.01)"/><path class="cls-23" d="M23,32.63c.16,1.11.86,2.78,2.87,2.54,1.42-.18,1.75-1.46,1.57-3.07A9.9,9.9,0,0,0,23,32.63Z" transform="translate(0.01)"/><path class="cls-24" d="M25,32.24a.63.63,0,0,0-.33,1.2C25.53,33.77,25.83,32.31,25,32.24Z" transform="translate(0.01)"/><path class="cls-25" d="M25.11,31.05c-1.16.19-3,1.2-4.91,1.65,0,0,1.16.37,4.72-.28a13.38,13.38,0,0,1,3.57-.09A3.72,3.72,0,0,0,25.11,31.05Z" transform="translate(0.01)"/><path class="cls-26" d="M31.2,41.36c-2.26.59-5.56,2.2-3.33,4.2,2.63,2.37,8.35,2.31,10.83,1.16,2.16-1,3.82-3.61,1.67-4.82l2-.76C38.66,40.69,34.76,40.43,31.2,41.36Z" transform="translate(0.01)"/><path class="cls-27" d="M39.27,42c.3-.1.72-.31,1.13-.47-6.72-.68-14,1.26-12,3.28,1.5,1.59,7,1.8,9.4,1.12S41.88,43,39.27,42Z" transform="translate(0.01)"/><path class="cls-14" d="M39.42,41.39c-3.31-.22-7.57-.09-9.93,1.1-.48.24-.37.49.3.7,1.51.46,4-.13,5.51-.21,3.72-.19,4.08.27,4.32-.1S40.24,41.44,39.42,41.39Z" transform="translate(0.01)"/><path class="cls-28" d="M39.53,41.41c-1.4-.21-8.08-.33-10.27,1.24,0,0-.45.31.53.54a15.24,15.24,0,0,1,10.14-1S40.13,41.47,39.53,41.41Z" transform="translate(0.01)"/><path class="cls-29" d="M45.2,28.8a20.1,20.1,0,0,0-4.22.69,18,18,0,0,0-3.65,1,4.29,4.29,0,0,1-2.63.83c-2.16-.08-4-1.41-6.16-1.62a18.29,18.29,0,0,0-6.76.15c-.58.17-2.32.84-1.14,1.45s2.88.39,4.13.43c.59,0,1.17,0,1.75.08,2.06.18,5.22-.13,5.07,2.44-.1,1.76-1.22,3.58-2.65,3.92a18.91,18.91,0,0,1-4.23.47A7.35,7.35,0,0,1,21.64,38c-.28-.13-1.1-.65-1.37-.27-.45.63,1.23,1.67,1.67,1.86a10,10,0,0,0,3.16.69c2.68.26,5.44.1,6.94-2.37.87-1.44,1.3-3.12,2.1-4.59,1.32-2.41,2,.84,2.4,2.26a7.43,7.43,0,0,0,1.08,2.25,5.42,5.42,0,0,0,4,1.88,5.89,5.89,0,0,0,2.6-.36c.5-.21.69-.79.1-1a4.84,4.84,0,0,0-1.32,0,11.59,11.59,0,0,1-1.66-.12,5,5,0,0,1-2-.84,4,4,0,0,1-1-1.1,3.58,3.58,0,0,1-.23-3c.48-1.36,2-1.48,3.21-1.59,1.5-.14,3-.13,4.52-.27a14.71,14.71,0,0,1,2,0c.86,0,2.7-.26,1.68-1.5S46.59,28.72,45.2,28.8Z" transform="translate(0.01)"/><path class="cls-8" d="M19.63,29c-1.77.07-3.28-.41-3.7-.05s.43,2,.43,2a3,3,0,0,0,1.39.46c.13,1.23.09,4.41,2.36,6.39,1.9,1.66,8.06,2.09,10,1.11a7.39,7.39,0,0,0,3.76-5.61C34.81,27.94,22.13,28.86,19.63,29Zm10.56,8.51c-2.33,1.53-8.32.87-9.89-1-1.21-1.47-1.45-4.57-.72-5,2.23-1.37,10.66-.92,12.63.55C33.16,32.68,32,36.31,30.19,37.47Z" transform="translate(0.01)"/><path class="cls-8" d="M48.66,28.24c-2.25,0-13.74-.3-12.6,5,.47,2.16,1.46,4.33,3.65,5.43,1.77.88,7.3.16,8.94-1.59,2-2.09,1.77-5.27,1.83-6.5a2.59,2.59,0,0,0,1.23-.52s.8-1.62.29-2.06S50.26,28.22,48.66,28.24Zm-.25,7.49c-1.32,2-6.7,2.93-8.87,1.51-1.65-1.07-2.9-4.65-2.07-5.4,1.69-1.57,9.28-2.42,11.36-1.16C49.51,31.09,49.44,34.2,48.41,35.73Z" transform="translate(0.01)"/><path class="cls-30" d="M39,31.34c-1.25.55,1,1.19,1.51,1.26a16.89,16.89,0,0,0,5.42-.25c.94-.19,3-1.07,2.38-1.59C47.43,30,40.32,30.74,39,31.34Z" transform="translate(0.01)"/><path class="cls-9" d="M44.52,31c-.67.11-1.12.31-.93.62.38.59,4.36.21,4.62-.25S46,30.73,44.52,31Z" transform="translate(0.01)"/><path class="cls-31" d="M40.26,36c-.43,0-.73.08-.65.34.15.53,2.63.85,2.85.52S41.17,36,40.26,36Z" transform="translate(0.01)"/><path class="cls-31" d="M21.67,36c-.44-.07-.76,0-.72.26.09.54,2.64,1.16,2.91.86S22.62,36.12,21.67,36Z" transform="translate(0.01)"/><path class="cls-30" d="M31.27,31.66c-1.59-.55-9.44-1.08-10.25-.37-.57.5,1.76,1.3,2.82,1.46a21.65,21.65,0,0,0,5.94.13C30.3,32.81,32.7,32.16,31.27,31.66Z" transform="translate(0.01)"/><path class="cls-9" d="M27.85,31.23c-.72,0-1.21.18-1.05.5.31.64,4.52.75,4.86.33S29.39,31.17,27.85,31.23Z" transform="translate(0.01)"/><path class="cls-8" d="M37.52,30a6.71,6.71,0,0,1-5.52.11c-1.73-.6.91,1.11,1.12,2s-.06,3.64.52,2,1.79-1.75,2.57-.26.7-2.51,1-2.88S39.16,29.27,37.52,30Z" transform="translate(0.01)"/><path class="cls-32" d="M20.47,29.48c4.78.2,8.6.31,11.5,1.4C30.07,29.35,26.83,29,20.47,29.48Z" transform="translate(0.01)"/><path class="cls-32" d="M48.26,28.66c-5.83.26-8.55.32-10.11,1.82C40.67,29.26,43.94,29.31,48.26,28.66Z" transform="translate(0.01)"/></g></g></g></svg>