<svg xmlns="http://www.w3.org/2000/svg" xmlns:xlink="http://www.w3.org/1999/xlink" viewBox="0 0 96 96"><defs><style>.cls-1{fill:none;}.cls-2{clip-path:url(#clip-path);}.cls-3{fill:#fff;}.cls-4{fill:#918fa0;}.cls-5{fill:#d9d9d9;}.cls-6{fill:#8f4721;}.cls-7{fill:#261b18;}.cls-8{fill:#9c552c;}.cls-10,.cls-9{fill:#66241b;}.cls-9{opacity:0.4;}.cls-10,.cls-17{opacity:0.7;}.cls-11{fill:#45362e;}.cls-12{fill:#d47b48;}.cls-13{fill:#732e2b;}.cls-14{fill:#fff7eb;}.cls-15{fill:#e8dac5;}.cls-16{fill:#d17642;}.cls-17{fill:#f0ded1;}</style><clipPath id="clip-path"><circle class="cls-1" cx="48" cy="48" r="48"/></clipPath></defs><g id="Layer_2" data-name="Layer 2"><g id="Layer_4" data-name="Layer 4"><g class="cls-2"><rect class="cls-3" width="96" height="96"/><path class="cls-4" d="M38.66,78.7A23.69,23.69,0,0,0,25.43,96H36C38.82,87.67,40.47,77.85,38.66,78.7Z"/><path class="cls-4" d="M58.83,78.7c-1.82-.85-.17,9,2.61,17.3H72.06A23.71,23.71,0,0,0,58.83,78.7Z"/><path class="cls-4" d="M48.69,76.86c-11.77.07-13.2,4.53-13,5,.39,1.27-.21,7.41.09,14.1h26c.42-6.78,0-12.86.6-14.18C62.51,81.31,60.82,76.79,48.69,76.86Z"/><path class="cls-5" d="M40.71,78.22c-2.67,4.65,8,9.83,8,9.83s9.47-4.85,8.45-9C56,74,43.12,74.05,40.71,78.22Z"/><path class="cls-6" d="M48.78,68.8c-2.73,0-6.58,1.92-6.85,7-.13,2.36.16,3.73,1.17,5,1.61,2.1,3.61,3.8,5.68,3.85s4.06-1.75,5.68-3.85c1-1.31,1.29-2.68,1.16-5C55.35,70.72,51.51,68.79,48.78,68.8Z"/><path class="cls-7" d="M72,47a5.81,5.81,0,0,0-.7-1.07c3.13-.47,1.93-2.84.8-4.65,1.09-.72,1.87-.81,1.77-2.26a3.78,3.78,0,0,0-2.26-2.78c1.1-.8,2.47-.82,2.6-2.37S73,31,72,30.17c4.67-1.08,2.55-6-1.25-6.51.94-1.54,1.92-2.33.2-3.7a5.57,5.57,0,0,0-5.28-.8c1-3.91-4.45-4.85-6.56-2.64-.61-4.33-4.76-4.91-7.3-1.81-1.23-3.27-5.92-3.91-6.75,0-2.83-3.64-8-1.72-8.94,2.46a4,4,0,0,0-7,2.78A5,5,0,0,0,23,21.16c-1.23,1.44-.87,4.07,0,5.49-5-.33-4.17,4.07-1.72,6.52-3.85.25-5.53,5.68-.9,6.1-2.51.89-2.82,4.27.23,4.74-3.1,1.11-1.78,3.85.92,4.44-1,2.75-.34,3.84,1.8,5.54a27.55,27.55,0,0,1,3.36,3.62c3,3.33,5.11,7.31,8,10.63s6-2.31,8.34-3.65A16.62,16.62,0,0,1,53.5,62.38c3.16.47,5.39,3.78,8.61,3.85,2,0,3.2-1.61,4-3.18.91-1.77.62-3.15,1-4.88S69,56.08,70,54.94c.43-.49,1.69-3.74,0-3.72C72.9,51.19,72.89,48.8,72,47Z"/><path class="cls-8" d="M26.25,56.18c1.59,11.7,10.61,24.53,24.21,23.56,13.86-1,20.76-18.19,19-32.57-2-15.64-9.35-28.68-25.57-25.52C32.28,23.91,24.12,40.55,26.25,56.18Z"/><path class="cls-9" d="M41.57,32.77a3.69,3.69,0,0,1-2.49-1c-.28,1.67-2.2,2.25-3.7,2.21a3.59,3.59,0,0,1-3.61,4c-.27,1.17-.55,2.33-.81,3.51-.46,2-1.39,4-1.53,6a26.68,26.68,0,0,1-3.12-9.66c-.49-3.05-1-6.8,0-9.78.81-2.4,3.47-3.74,5.64-4.72,3.94-1.79,8.53-1.55,12.76-1.48a52.28,52.28,0,0,1,14,2.21c2.34.7,7.45,1.72,8.72,4.11C69,31.06,63.76,33.05,62,31.3c-1.72,1.62-5,.54-6.2-1.23-1.64,1.91-3.92,1.16-5.73,0-1,2.31-3.67.56-5.22,1.17-1.13.45-1.37,1.53-3,1.51Z"/><path class="cls-8" d="M23.45,61.2a11.06,11.06,0,0,0,4.59.5l.09-.14c.68-1.08-.27-7.13-.62-8.27-.88-2.87-2.57-4.37-5.3-3.62C16.52,51.23,18.8,59.54,23.45,61.2Z"/><path class="cls-10" d="M25.65,59.15c2.07-1.3.11-5.71-1.45-6.42-1.28-.6-4.47.47-3,3,.79-2.31,2.21-.79,2,.85-.14,1.11-1.33,1.12-.15,2.54C23.71,59.85,25,59.56,25.65,59.15Z"/><path class="cls-7" d="M65.34,33.11a1.79,1.79,0,0,0,.54.24c1.55.19,2.38-1,3.08-2.23,1.75-3.08.38-6.3-1.84-8.77-2.84-3.16-9.79-4.65-13.82-5.43a39.65,39.65,0,0,0-11.91-.36c-6.56.79-14.47,3.9-16.54,10.85-1.28,4.26-.61,9.21-.29,13.57.2,2.64-.86,7.74,1.4,9.74C28.58,53,29.62,49.54,29.87,47c.37-3.71.8-7.28,1.31-10.93,2.36.21,3.44-1.79,3.34-3.87,1.89.46,4.23.09,4.91-2a4.79,4.79,0,0,0,3.11.76c1.08-.19,1.48-1.47,2.08-1.65.87-.24,2.22.88,3.27.68s1.68-1,2.28-2c1.58,2.48,5.19,1.93,7,.18A3.74,3.74,0,0,0,62.92,30C62,30.62,64.21,32.45,65.34,33.11Z"/><path class="cls-11" d="M30,22.21c.11-2,.13-3.92,2.64-4.09,2.13-.15,3.15,1.29,4.89,2.14.42-1.08,0-2.25.59-3.32a3,3,0,0,1,3-1.44c2.18,0,2.94,1.92,4.33,3.22.7-1.39,1.52-3.72,3.37-3.42a4.59,4.59,0,0,1,3.57,3.09c.89-1.47,1.94-4,4-2.65a6.82,6.82,0,0,1,2.82,4.67c.6-1,2.25-3.17,3.51-2.48,1.45.79,1.63,3,1.26,4.44.8-1,3.91-1.26,4.9-.48s.66,2.51,0,3.49c3.15.07,4,3.65.87,4.71-2.82.94-4.26-1.44-5.81-3.24-2.26,2.7-5.94.15-7.43-1.91-1.63,3.15-5.55,1.57-7.62,0-.53,1.34-.81,2.17-2.33,2.58a3.66,3.66,0,0,1-3.42-1c-.49,1-.79,1.8-2.09,2a3,3,0,0,1-2.63-1.37,3.58,3.58,0,0,1-1.48,2.54c-1.18.53-2.1-.4-3-.87-.11,1.16-.1,1.9-1.26,2.4S31,31.11,30,30.8c0,1.52-.27,3.16-2.2,3,.74,2,0,5.59-2.85,4.38-2.52-1.07-2-3.09.09-4.14-3-.18-2.6-5.62,0-6C22.67,24.81,24.43,19.93,30,22.21Z"/><path class="cls-12" d="M65.74,57.81c-1.9-1.2-4.2,1.18-15,1.74-9.31.48-12.8-.92-15.13-.95,2.85,6.55,5.31,15.1,14,15.17,3.56,0,8.35-.38,11.21-5.08a17.65,17.65,0,0,0,1.71-4.59,9.48,9.48,0,0,1,3.81-5.73A2.34,2.34,0,0,0,65.74,57.81Z"/><path class="cls-13" d="M37,59.62s12,3.74,28.55-1.46A8.63,8.63,0,0,0,62,63.57c-.66,2.88-2.12,7-11.63,7.49C39.84,71.61,37,59.62,37,59.62Z"/><path class="cls-14" d="M39.84,60.38A3.74,3.74,0,0,0,43,63.84,32,32,0,0,0,56.56,64c3.23-.61,5-4.44,5-4.44A81,81,0,0,1,39.84,60.38Z"/><path class="cls-14" d="M42.46,68.26c-.21-.6-.14-1.26,1.24-.75a28.51,28.51,0,0,0,8.43,1.11c3.66,0,4.6-1.15,5.2-.51s-2.19,3.62-8,3.12C42.72,70.66,42.46,68.26,42.46,68.26Z"/><path class="cls-15" d="M40.29,61.94s16.38-1.4,20.12-.57a12.4,12.4,0,0,0,1.11-1.79s-8.66,1.88-21.68.8A2.75,2.75,0,0,0,40.29,61.94Z"/><path class="cls-15" d="M44.24,68a29.91,29.91,0,0,0,12.09.43S49.8,70.47,44.24,68Z"/><path class="cls-16" d="M67.58,53.43a2.8,2.8,0,0,1,.37.86c.8,3.17-6.26,2.26-7.09.89-1.56-2.57.81-3.27,2.58-3.27C64.8,51.9,66.7,52.13,67.58,53.43Z"/><path class="cls-16" d="M40.5,53.36a2.74,2.74,0,0,1,.54.8c1.4,3.05-5.59,3.59-7.52,2.27-2.67-1.84.53-3.63,2.38-3.93C37.32,52.28,39.35,52.2,40.5,53.36Z"/><path class="cls-7" d="M39.42,46.05c-4.14-1.12-6.75,3.5-3.92,5a9.12,9.12,0,0,1,4.1.22C42.38,50.37,42.5,46.89,39.42,46.05Z"/><path class="cls-10" d="M55.58,55.24c-.83-.76-2.54.08-4.14.1s-2.73-.64-4.09,0,.2,2.54,4,2.44S56.3,55.9,55.58,55.24Z"/><path class="cls-16" d="M51.35,47c-3.28-.29-5.86,6.07-4.47,8.16,1,1.46,8.2,1.41,9.33-.3C56.62,54.25,54.47,47.29,51.35,47Z"/><path class="cls-17" d="M38,46.86c-1.68.36-.41,2.41,1.23,1.66C40.37,48,39.44,46.54,38,46.86Z"/><path class="cls-7" d="M62.33,38.05c-2.48-.3-4.58.39-3.66,2.11.54,1,2.69.81,5,1.39s3.05,2.33,4.3.77S65.32,38.42,62.33,38.05Z"/><path class="cls-7" d="M38.75,38.42c2.73-.37,4.91.34,3.68,2.19-.73,1.1-3,.9-5.59,1.55-2.4.62-3.62,2.53-4.77.89S35.45,38.85,38.75,38.42Z"/><path class="cls-7" d="M64.91,45.48c-4.25-.56-6.22,4.37-3.22,5.48a9.19,9.19,0,0,1,4.09-.32C68.41,49.37,68.07,45.9,64.91,45.48Z"/><path class="cls-17" d="M63.56,46.47c-1.62.58-.08,2.45,1.44,1.49C66.1,47.27,65,46,63.56,46.47Z"/></g></g></g></svg>