<svg xmlns="http://www.w3.org/2000/svg" xmlns:xlink="http://www.w3.org/1999/xlink" viewBox="0 0 66 66"><defs><style>.cls-1{fill:none;}.cls-2{clip-path:url(#clip-path);}.cls-3{fill:#fff;}.cls-4{fill:#e6e6e6;}.cls-5{fill:#f2f2f2;}.cls-6{fill:#f1aa83;}.cls-7{fill:#ffcb9e;}.cls-8{opacity:0.1;}.cls-9{fill:#261b18;}.cls-10{fill:#fff9f0;}.cls-11{fill:#d14f2e;opacity:0.4;}.cls-12{fill:#bf3c1b;opacity:0.2;}.cls-13{fill:#45362e;}.cls-14{fill:#ff9873;}.cls-15{fill:#e6d2c3;opacity:0.7;}.cls-16{fill:#121b21;}.cls-17{opacity:0.8;}.cls-18{fill:#e63535;}</style><clipPath id="clip-path" transform="translate(0)"><circle class="cls-1" cx="33" cy="33" r="33"/></clipPath></defs><g id="Layer_2" data-name="Layer 2"><g id="avatars"><g class="cls-2"><rect class="cls-3" width="66" height="66"/><path class="cls-4" d="M42.17,62.86c1-4.4,2.11-8.34-1.56-10.3-2.79-1.5-10.18-2.42-13.26,0C24,55.19,24.74,59.4,25.67,63.41A17.75,17.75,0,0,0,26.61,66H41C41.33,65,41.91,64,42.17,62.86Z" transform="translate(0)"/><path class="cls-5" d="M29.29,52.54a2.26,2.26,0,0,0,.31,1.6c2.08,3.77,7.8,3.64,9.39-.24a2.08,2.08,0,0,0-.07-1.85C37.51,49.44,30,49.43,29.29,52.54Z" transform="translate(0)"/><path class="cls-6" d="M34.23,47.68a4,4,0,0,0-4,3.82,3.55,3.55,0,0,0,.69,2.75,4.6,4.6,0,0,0,6.71,0,3.55,3.55,0,0,0,.69-2.75A4,4,0,0,0,34.23,47.68Z" transform="translate(0)"/><path class="cls-7" d="M24.54,59.83A1.67,1.67,0,0,0,22,57.71c-2.31,2.79-3.34,5.64-3.06,8.29h3.36C21.92,64.18,22.7,62.06,24.54,59.83Z" transform="translate(0)"/><path class="cls-4" d="M27.68,52.28c-4.82,2.29-7.32,5.29-10,10.08,1.25,1.31,6.05,3.23,8,2.9C26.21,60.07,29.07,51.62,27.68,52.28Z" transform="translate(0)"/><g class="cls-8"><path d="M25.3,62.6c0-.32-1.41-2.11-1.69-1.75-.4.52,1.57,2.9,2.17,3.66,0,0,.45-6.44,0-6.43C24.48,58.13,25.26,61.85,25.3,62.6Z" transform="translate(0)"/></g><path class="cls-7" d="M45.6,57.71A1.67,1.67,0,0,0,43,59.83c1.84,2.23,2.62,4.35,2.27,6.17h3.36C48.94,63.35,47.91,60.5,45.6,57.71Z" transform="translate(0)"/><path class="cls-4" d="M39.89,52.28c-1.39-.66,1.47,7.79,2,13,2,.33,6.79-1.59,8-2.9C47.21,57.57,44.71,54.57,39.89,52.28Z" transform="translate(0)"/><g class="cls-8"><path d="M42.27,62.6c0-.75.82-4.47-.51-4.52-.42,0,0,6.43,0,6.43.6-.76,2.57-3.14,2.17-3.66C43.68,60.49,42.29,62.28,42.27,62.6Z" transform="translate(0)"/></g><path class="cls-9" d="M52.69,28.94c2.51-.7,5.31-6.23,1-5.87,1.18,1.72-1.55,2.55-2.47,1.25a.71.71,0,0,1-.15-.32c-.17-2.16-2.41-3.63-4.13-4.94A23.13,23.13,0,0,0,38,14.89c-5.59-1.22-12.25-.83-16.63,2.91-1.77,1.5-3.29,4.62-5.76,5.24-3,.75-4.67,3.86-2.25,5.77a1.75,1.75,0,0,1-2.67-1.27c-2.6,1.84-3.54,5.37.1,6.93C6.61,36.7,7.71,41.14,12.26,43c-2.1,2-1,5.32,1.18,6.62-.19-1.39,1.08-4.51,3.51-3,1.49,1,.74,3.57-1.29,2.29-.51,2.37,3.5,3.79,4.65,1.81-.12,1.77,1.11,2.45,2.75,2.32,2.43-.18,3.67-1.67,5.31-2.19a22.89,22.89,0,0,1,6.26-1c4-.11,7.58,3.84,11.59,2.06,1.55-.69,2.29-1.69,2.11-3.2-1.1.78-4-.31-1.66-2.17,1.16-.94,2.91-.11,4.1-.82,1.39-.83.79-3.78.89-3.84,1-.65,2.68-.72,2.8,1,2-4.13,0-5.24-2.19-5.52C57.2,36.68,58.09,29.85,52.69,28.94Z" transform="translate(0)"/><path class="cls-10" d="M47.71,40.11a1.42,1.42,0,0,0-1.36,1.45,1.36,1.36,0,0,0,1.42,1.35,1.42,1.42,0,0,0,1.37-1.46A1.37,1.37,0,0,0,47.71,40.11Z" transform="translate(0)"/><path class="cls-7" d="M32.59,14.5c-8.22.84-14.53,7.92-13.9,19s8.77,19.79,17.46,18.73c7.21-.89,13.25-10,11.74-22C46.55,19.31,40.8,13.65,32.59,14.5Z" transform="translate(0)"/><path class="cls-7" d="M16.55,31.75c-3.56,1.68-1.82,7.81,1.19,8.68a5.93,5.93,0,0,0,2.93,0l0-.11c.4-.88-.56-5-.82-5.83C19.24,32.37,18.26,31,16.55,31.75Z" transform="translate(0)"/><path class="cls-11" d="M18.62,33.88c-1-.51-3.46.2-2.38,2.2.68-1.77,1.72-.54,1.5.73-.15.85-1.06.82-.2,2a1.6,1.6,0,0,0,2,.15C21.16,38,19.79,34.49,18.62,33.88Z" transform="translate(0)"/><path class="cls-12" d="M29.58,18.84A23.78,23.78,0,0,0,23.33,21c-2.91,1.51-3.08,3.05-4.47,5.86-.7,1.42-2.42,2.86-.74,4.32-1.67.66-2,3.56-.95,4.85a1.74,1.74,0,0,0,1.11.68,2.85,2.85,0,0,0-.2,2.48c.43.91,1.17,1.72,2.09,1.54A5.69,5.69,0,0,0,21,43.36c1.18,1.48,3.28,2,4.59.85a1.83,1.83,0,0,0-.55-3.3c-.14.47-.69,1-1.19.61s.18-2,.16-2.67C24,37.16,23,37.83,22,37c.49-.48,1.18-1,1.16-1.87,0-1-.75-1.16-1.38-1.68-1.05-.87-.73-.71-.18-1.66.68-1.16,1.1-2.67-.31-3.55a1.46,1.46,0,0,0,1.47-1.12c1.21.63,2.6-.66,3-1.75C25.6,25.67,27,25,27.13,25a4.07,4.07,0,0,0,1.07-1.72c.12,1.51,1.69,2.51,2.9,1.31.8,1.86,2.39,1.79,4.13,1.34.62,2.15-1.21,1.28-1.82,2.36-1,1.8,2.69,2.54,3.68,2.17a2.85,2.85,0,0,0,1.7-2.87c.15,1.4,2.15.73,2.87.19.45,2,2.27,2.35,3.69,1,.29,3.24,4.52,3.14,3.63-.63C46.93,19.4,37.61,17.25,29.58,18.84Z" transform="translate(0)"/><path class="cls-9" d="M49.88,15.08c1.77-3.79-5.71-6.59-8.51-4.51-.5-4.64-6.36-4.85-9.12-1.52C31.2,7.38,28.87,7,28.51,6.94a4.74,4.74,0,0,0-4.4,1.34c1.56,0,4.24,2.94-.46,2.56-1.95-.16-3.12-.89-5,.18C17,11.89,16,13.4,17.49,14.84c0,0-3.49-.16-4,3-.2,1.29.33,1.6-.94,2.59a3.06,3.06,0,0,1-2.9.71,5.22,5.22,0,0,0,1.82,3.3,3.58,3.58,0,0,0,3.84.06c-.13.79,2.32,7.51,3.36,6.78-1.71,1.2-2.41,3.59-.71,4.66a3.17,3.17,0,0,0,1,.4c-2.59,1-.48,4.85,2.07,3.55-2.2,2.68,4.48,5.71,4.58,2.51a2,2,0,0,0-1.43-2c.44.09.63,2-.54,1.56-1.73-.7,1.24-3.08-.34-4-.77-.46-3,.08-2.2-1.35.58-1,1.87-1.56.31-2.78-.46-.36-1.26-.39-1.31-1.1s.77-1,1.08-1.41c1.06-1.53-.64-3.3-2-3.84.88-.06,3.39.34,3.08-1.33,1.4,1.19,3.41-.53,2.83-2.14.26.73,1.59.47,2,.17.82-.57.73-1.65,1.14-2.47a2.8,2.8,0,0,0,1.23,2.21,1.52,1.52,0,0,0,2.21-.6c.55,1.8,2.35,3.25,3.91,1.41a2.32,2.32,0,0,1,.08,2.36c-.74,1-1.76,0-2.39.46-.8.61.68,1.87,1.22,2a3.18,3.18,0,0,0,3.17-1.12,4.09,4.09,0,0,0,.4-2.39c.9,1.41,2.38,2.34,3.82.84,1.08,1.33,2.13,2,3.63.61.75,1.2.64,2.83,2.39,3.06,2,.27,1.89-2.08,1.51-3.43-.48-1.7-1.14-5,.81-6.54,1.21-.94,3-.37,2.48,1.25a3.19,3.19,0,0,0,1.13-4.44A5.16,5.16,0,0,0,49.88,15.08Z" transform="translate(0)"/><path class="cls-10" d="M19.12,41a1.32,1.32,0,0,0-1.26,1.34,1.26,1.26,0,0,0,1.32,1.24,1.32,1.32,0,0,0,1.26-1.34A1.27,1.27,0,0,0,19.12,41Z" transform="translate(0)"/><path class="cls-13" d="M28.31,13.74v0C28.32,13.67,28.31,13.67,28.31,13.74Z" transform="translate(0)"/><path class="cls-13" d="M49.21,24.21a12.15,12.15,0,0,0-.24-2.5c-.31-1.3-1.07-1.64-2.29-1.58a3.69,3.69,0,0,1,5.83-.77C53.14,17,50.25,15,48,15.59c.47-1.36.85-3.05-.5-4.09a4.92,4.92,0,0,0-5.29-.24c-1.26.78-2.66,2.33-4.47,1.24,1.08.65,3.61-3,.55-4.31-1.91-.79-3.54.3-4.81,1.57a4.34,4.34,0,0,0-1,1.36C31.09,8.68,29.09,7.21,26,8c2.38,0,3.41,3.7,1.28,4.76-1.23.63-2.4-.68-3.41-1.12a5.69,5.69,0,0,0-3.39-.28,4.38,4.38,0,0,0-2.54,2.09c1.7-.24,2.71,3.09,6.41,2a4.24,4.24,0,0,1-4.66.83,3.65,3.65,0,0,0-3.27-.2c-1.57.89-1.14,3.09-1.91,4.46s-1.35,1.4-2.63,1.78a4.79,4.79,0,0,0,3.81.76c-1.13.12-1.77,1.71-1.85,2.58-.11,1.13.87,2,.72,3.05-.13.89-1.33,1.48-2.16,1.46a2,2,0,0,0,2.21.35c.95-.34,1.14-1.6,1.93-1.78,1.07-.24,2.21,1.55,2.2,2.38,1.61-.8-.33-3.27-1.29-4,1.06,0,4-.16,3.77-1.65.13.9,2,0,2.29-.51A1.74,1.74,0,0,0,23,22.8c.6.07,1.72.63,2.19.07s-.1-1.58-.37-2c4.89,1.82,3.44-3.19.46-3.09,2.25-.21,2.85-.55,3.08-4v0c0-.07,0-.07,0,0v0c.19,2-.32,4,3.08,3.67-4.9,1.79-2.9,5.74,2,4.53-.75.18-.79,1.59.34,2.38a2.42,2.42,0,0,0,2.43-.17c.89,1.33,1.17,2.5.15,3.69,1.18.06,1.6-1.7,1.76-2.56.9.52,1.72,1.34,2.82.89.83-.35,1.27-1.26,1.8-1.9,0,1.47.6,2.57,1.5,2.75a2.72,2.72,0,0,0,2.69-1,3.9,3.9,0,0,0,1.18,3,2.65,2.65,0,0,0,3.32.5,1.3,1.3,0,0,1-1.21-.72c2.06-.22,3.67-1.34,3.46-3.46C52.21,26,49.33,26.38,49.21,24.21Z" transform="translate(0)"/><path class="cls-9" d="M40.2,21.45c1,3.29,3.81,4.14,5.47,1.43C43.93,24.48,41,23.17,40.2,21.45Z" transform="translate(0)"/><path class="cls-9" d="M18.35,25.41c2,1.66,4.39,0,3.36-2.4C21.51,24.59,19.59,25.86,18.35,25.41Z" transform="translate(0)"/><path class="cls-9" d="M45.87,24.07c-1.19,2.27,1.07,4,3.28,2.47C47.48,26.75,45.71,25.31,45.87,24.07Z" transform="translate(0)"/><path class="cls-9" d="M43,18.86A4.63,4.63,0,0,0,48.7,20l-.1-1.51A7,7,0,0,1,43,18.86Z" transform="translate(0)"/><path class="cls-9" d="M44.06,14.44a3.46,3.46,0,0,0,4.32,1.07l.23-1.71A4.4,4.4,0,0,1,44.06,14.44Z" transform="translate(0)"/><path class="cls-9" d="M13.47,23.16,14,24.63c2.41,0,4.05-1,4.77-3.12A6.88,6.88,0,0,1,13.47,23.16Z" transform="translate(0)"/><path class="cls-13" d="M10.38,29.61l-.07-1c-1,1.14-1.73,2.41-1,3.78.51.9,1.88,1.86,3,1.07.44-.32.57-1.15.66-1.62l-.06-.05C11.55,32,10.09,30.93,10.38,29.61Z" transform="translate(0)"/><path class="cls-13" d="M11.91,34.89l-.81.5c-2,.07-2.93,3.33-2.07,4.72a4,4,0,0,0,2.64,1.6A4.79,4.79,0,0,1,10.6,38C10.87,36.91,11.89,36.08,11.91,34.89Z" transform="translate(0)"/><path class="cls-13" d="M54.15,30.58a4.65,4.65,0,0,0-1.77-.71v.33c1.77,2.22,1.46,3.92.5,6.22,0,0,.09.08.09.06C55.41,35.46,56.54,32.17,54.15,30.58Z" transform="translate(0)"/><path class="cls-13" d="M53,38.48l-.82-.21c-.34,1.92,2.07,1.44,2.37,2.85C55,39.94,54.74,38.37,53,38.48Z" transform="translate(0)"/><path class="cls-13" d="M12.37,44.15a3,3,0,0,0,.23,4c0-.61.44-1.1.43-1.72s-.43-1-.36-1.67Z" transform="translate(0)"/><path class="cls-14" d="M46.68,37.67a2.7,2.7,0,0,0-2.27-1c-1-.06-2.39.25-1.63,1.79.4.83,4.36,1.62,4.07-.25A1.61,1.61,0,0,0,46.68,37.67Z" transform="translate(0)"/><path class="cls-14" d="M28.35,37.5a2.77,2.77,0,0,0-2.67-.67c-1.12.16-2.57.84-1.48,2.46.58.86,5.06.86,4.43-1.23A1.84,1.84,0,0,0,28.35,37.5Z" transform="translate(0)"/><path class="cls-9" d="M40.92,29.91c2.2.19,4-.49,7.33-.25C47,28.16,42.55,28.18,40.92,29.91Z" transform="translate(0)"/><path class="cls-11" d="M36.6,38.25c-.75,0-1.05-.29-1.57,0s.63,1.3,1.56,1.21,1.89-1,1.61-1.28S37.43,38.23,36.6,38.25Z" transform="translate(0)"/><path class="cls-9" d="M22.53,29.76c4.12,0,5.52.22,8.38.11C29.38,28,24.33,28.15,22.53,29.76Z" transform="translate(0)"/><path class="cls-9" d="M27.15,31.14c-2.18-.79-3.24,3.22-1.72,4.39a2.9,2.9,0,0,1,2.11,0C28.91,34.68,28.77,31.73,27.15,31.14Z" transform="translate(0)"/><path class="cls-15" d="M26.74,33.64c-.9.15-.54,2,.39,1.5C27.8,34.8,27.53,33.51,26.74,33.64Z" transform="translate(0)"/><path class="cls-9" d="M45.25,31.22c-2.19-1.37-4,3.75-1.62,4.45a2.64,2.64,0,0,1,1.91-.32C46.36,34.25,46.43,32,45.25,31.22Z" transform="translate(0)"/><path class="cls-15" d="M44.37,33.49c-.86,0-.71,1.93.21,1.57C45.25,34.8,45.13,33.46,44.37,33.49Z" transform="translate(0)"/><path class="cls-16" d="M45.31,31.11c-2-.74-2.63,1.63-2.63,1.63A1.85,1.85,0,0,1,45,32.28a4.12,4.12,0,0,0,5.07-.43C47.63,32.7,46.39,31.51,45.31,31.11Z" transform="translate(0)"/><path class="cls-16" d="M25.7,31.26a6.42,6.42,0,0,1-5.1,1,4.53,4.53,0,0,0,5.32.13,2.08,2.08,0,0,1,2.42.16S27.77,30.18,25.7,31.26Z" transform="translate(0)"/><g class="cls-17"><path class="cls-18" d="M26,41.74c1,1.91,3.45,1,2.42-1A1.83,1.83,0,0,1,26,41.74Z" transform="translate(0)"/><path class="cls-18" d="M42.17,40.46a1.38,1.38,0,1,0,2.63.73A2,2,0,0,1,42.17,40.46Z" transform="translate(0)"/><path class="cls-18" d="M43.31,41.49a.55.55,0,0,0-.72.29c-1,2.72-3.88,4.5-7.27,4.48a7.56,7.56,0,0,1-6.94-4,.65.65,0,0,0-.77-.3.46.46,0,0,0-.3.65,8.74,8.74,0,0,0,7.76,4.64h.31c3.9,0,7.2-2,8.32-5.15A.52.52,0,0,0,43.31,41.49Z" transform="translate(0)"/></g></g></g></g></svg>