<svg xmlns="http://www.w3.org/2000/svg" xmlns:xlink="http://www.w3.org/1999/xlink" viewBox="0 0 66 66"><defs><style>.cls-1{fill:none;}.cls-2{clip-path:url(#clip-path);}.cls-3{fill:#88af91;}.cls-4{fill:#108d8e;}.cls-5{fill:#c9beb7;}.cls-6{fill:#27b3b0;}.cls-7{fill:#949494;opacity:0.5;}.cls-8{fill:#2b221c;}.cls-9{fill:#ffcb9e;}.cls-10{fill:#bf3c1b;}.cls-10,.cls-11,.cls-19{opacity:0.3;}.cls-11{fill:#c94614;}.cls-12,.cls-22{fill:#45362e;}.cls-13{fill:#f7a286;}.cls-14{fill:#8f3935;}.cls-15{fill:#fff9f0;}.cls-16{fill:#e8dac5;}.cls-17{fill:#ffa073;}.cls-18{fill:#261b18;}.cls-19{fill:#b54d26;}.cls-20{fill:#ffdfc2;}.cls-21{fill:#e6d2c3;}.cls-21,.cls-22{opacity:0.7;}</style><clipPath id="clip-path" transform="translate(0.01)"><circle class="cls-1" cx="33" cy="33" r="33"/></clipPath></defs><g id="Layer_2" data-name="Layer 2"><g id="avatars"><g class="cls-2"><rect class="cls-3" width="66" height="66"/><path class="cls-4" d="M16.09,66A62,62,0,0,1,16,59.78c.24-2.5,1.84-5.2,6.25-6.65l1.93,4.3C21.92,58.62,21.61,66,21.61,66Z" transform="translate(0.01)"/><path class="cls-4" d="M47.09,66a62,62,0,0,0,.08-6.22c-.25-2.5-1.85-5.2-6.25-6.65L39,57.43C41.26,58.62,41.57,66,41.57,66Z" transform="translate(0.01)"/><path class="cls-5" d="M23.94,52.8c-4.07,2.65-3.68,6.86-2.68,13.2H41.87c1.1-6.23,1.58-11.46-2.41-13.6C34.49,49.73,27.25,50.65,23.94,52.8Z" transform="translate(0.01)"/><path class="cls-4" d="M39.26,52s4.39,1.62,4.8,2.71c.32.82-.76,6.16-1.65,11.34H35.78C36.87,60.8,38.19,55.41,39.26,52Z" transform="translate(0.01)"/><path class="cls-6" d="M39.14,51.16c4.14.29,5.68,2.93,5.62,3.6s-6.71,2.67-6.54,2S39.14,51.16,39.14,51.16Z" transform="translate(0.01)"/><path class="cls-6" d="M38.58,54.86c.52-.89,5,2.94,4.7,3.73-.12.34-1.81,3.59-3.74,7.41h-4C36.68,60.53,38,55.85,38.58,54.86Z" transform="translate(0.01)"/><path class="cls-4" d="M23.83,52S19.44,53.57,19,54.66c-.31.82.77,6.16,1.65,11.34H27.3C26.21,60.8,24.89,55.41,23.83,52Z" transform="translate(0.01)"/><path class="cls-6" d="M24,51.16c-4.14.29-5.68,2.93-5.63,3.6s6.72,2.67,6.55,2S24,51.16,24,51.16Z" transform="translate(0.01)"/><path class="cls-6" d="M24.51,54.86c-.52-.89-5,2.94-4.7,3.73.12.34,1.8,3.59,3.73,7.41h4C26.4,60.53,25.08,55.85,24.51,54.86Z" transform="translate(0.01)"/><path class="cls-7" d="M31.55,59.15c9.33,0,12-13.32-.79-13.32C21.55,45.83,21.57,59.15,31.55,59.15Z" transform="translate(0.01)"/><path class="cls-5" d="M31.54,58c10,0,12.84-12.61-.84-12.61C20.87,45.39,20.89,58,31.54,58Z" transform="translate(0.01)"/><path class="cls-8" d="M48.1,16.61a12.39,12.39,0,0,0-2.64-4.88C40.4,6,31.84,5.2,22.08,9.22a18.55,18.55,0,0,0,5-.12C22,11.35,15.91,14.32,14.48,20.29,12.86,27.11,14,35.15,17.81,35.7c3.26.47,7.4-6.68,9.62-6,4.69,1.44,16.43.13,19.8-4.68C48.75,22.85,48.89,19.54,48.1,16.61Z" transform="translate(0.01)"/><path class="cls-9" d="M17.47,38.17c1,8.06,7,17,16.34,16.5,9.53-.5,14.5-12.23,13.45-22.13C46.12,21.77,41.2,12.71,30,14.68,22,16.08,16.21,27.42,17.47,38.17Z" transform="translate(0.01)"/><path class="cls-10" d="M23.81,23.62c-1.14.56-4.13,1.94-5.6-.48-.7-1.14-.14-2.83.33-4.11.58-1.56,2.39-2.41,3.86-3,2.68-1.12,5.77-.91,8.62-.81a35.94,35.94,0,0,1,9.44,1.63c2,.62,5.83,1.22,6.5,3.53.83,2.91-2.28,3.23-4.43,3.2C37.35,23.47,26.27,22.4,23.81,23.62Z" transform="translate(0.01)"/><path class="cls-9" d="M15.49,41.59a7.53,7.53,0,0,0,3.15.4l.06-.09c.48-.73-.1-4.9-.32-5.69-.56-2-1.71-3-3.6-2.56C10.86,34.66,12.32,40.39,15.49,41.59Z" transform="translate(0.01)"/><path class="cls-11" d="M17,40.21c1.43-.87.15-3.92-.92-4.43-.87-.42-3.07.26-2.07,2,.57-1.58,1.52-.52,1.35.61-.11.76-.93.75-.14,1.74C15.68,40.66,16.57,40.49,17,40.21Z" transform="translate(0.01)"/><path class="cls-8" d="M42.57,11.84c-6-3.26-15.2-2.61-20.32,1.05s-6.66,10.54-6.78,16.66a5.81,5.81,0,0,0,2,5c1.83,1.64,1.75-3.2,1.95-5.05.46-4.11,2.22-7.41,6.73-7.49,3-.06,14.85-.39,17.61.61,1.51.55,3.52,1.37,3.87-1a9,9,0,0,0-2.06-7.37A11.69,11.69,0,0,0,42.57,11.84Z" transform="translate(0.01)"/><path class="cls-12" d="M46.56,20.3a11,11,0,0,0-.26-3.66,8.62,8.62,0,0,0-2.37-3.76,15,15,0,0,0-8.45-4.27c-1.6-.17-4.81-.17-6.36.47a21,21,0,0,1,2.26,1,34.53,34.53,0,0,0-6.47,2c-.65.27-6,3.74-6,3.75,1.45.82,3.18.55,4.76.23A16.1,16.1,0,0,1,30.91,16c2.24.55,4.24,1.71,6.46,2.27.09-1-.86-1.9-1.27-2.59,1.27,0,6.11,3.18,7.1,4C43,18.79,41.82,17,41.71,16,43,16.25,45.73,18.83,46.56,20.3Z" transform="translate(0.01)"/><path class="cls-13" d="M34.76,42.08a69.15,69.15,0,0,1-7.69.18c-1.15-.1-1.9.84-1.38,1.48,3.36,4.13,5.59,4.52,8.52,4.66,4.22.2,5.88-1.71,6.52-3.63A6.08,6.08,0,0,1,42,43.12c.71-.74,0-1.38-1.14-1.29C39.11,42,37.19,42,34.76,42.08Z" transform="translate(0.01)"/><path class="cls-14" d="M26,42.62a38.06,38.06,0,0,0,16.2-.27,4.26,4.26,0,0,0-2.12,2.13c-.63,1.42-2.84,2.42-6.22,2.38A9.85,9.85,0,0,1,26,42.62Z" transform="translate(0.01)"/><path class="cls-15" d="M28,43s.16,1.27,2,1.74a19.54,19.54,0,0,0,7.65.26,4,4,0,0,0,2.69-2.25A41,41,0,0,1,28,43Z" transform="translate(0.01)"/><path class="cls-15" d="M28.88,44.8c-.19-.33-.11-.86.75-.37,1.2.69,3.2.82,5.61.73,2.23-.09,3.36-.68,3.8-.32s-1.55,2.44-5.39,2.08C29.65,46.54,28.88,44.8,28.88,44.8Z" transform="translate(0.01)"/><path class="cls-16" d="M28.47,43.87s9-.73,11.16,0a4.17,4.17,0,0,0,.74-1.11A47.14,47.14,0,0,1,28,43,2,2,0,0,0,28.47,43.87Z" transform="translate(0.01)"/><path class="cls-16" d="M30.35,44.68a14.16,14.16,0,0,0,7.09.24S33.57,46.4,30.35,44.68Z" transform="translate(0.01)"/><path class="cls-17" d="M45.69,37.19a1.82,1.82,0,0,1,.26.6c.52,2.2-4.43,1.36-5,.39-1.06-1.81.61-2.21,1.86-2.16A3.55,3.55,0,0,1,45.69,37.19Z" transform="translate(0.01)"/><path class="cls-17" d="M27.08,36.6a2,2,0,0,1,.41.54c1.11,2.1-4.14,2.53-5,1.7-1.55-1.56,0-2.4,1.32-2.68C24.82,36,26.23,35.82,27.08,36.6Z" transform="translate(0.01)"/><path class="cls-18" d="M25.29,35.42a2.92,2.92,0,0,0-2-.21c-1.38-1.22,0-4.83,2-3.91C26.79,32,26.68,34.73,25.29,35.42Z" transform="translate(0.01)"/><path class="cls-19" d="M37.46,38c-.5-.64-1.23,0-2.56,0s-1.67-.56-2.51-.08.32,2.11,2.44,2.07S37.89,38.54,37.46,38Z" transform="translate(0.01)"/><path class="cls-20" d="M34.67,33.52c-2.25-.24-2.51,4.51-2,4.93,1.24,1,3.89.36,4.67-.42C37.65,37.72,36.81,33.74,34.67,33.52Z" transform="translate(0.01)"/><path class="cls-18" d="M45,31.53c1.1.69,1,3,.2,3.91a2.69,2.69,0,0,0-2.17,0C41.35,34.23,43,30.24,45,31.53Z" transform="translate(0.01)"/><path class="cls-21" d="M24.27,32.17c.75-.23,1.18.91.59,1.33C24,34.07,23.43,32.44,24.27,32.17Z" transform="translate(0.01)"/><path class="cls-21" d="M43.93,32.2c.73-.13,1,1,.39,1.33C43.47,34,43.11,32.35,43.93,32.2Z" transform="translate(0.01)"/><path class="cls-8" d="M22.59,26.88a9.09,9.09,0,0,1,4.85.8c.7.31,1.49,1.07,1,2-.38.72-2.46-.89-4.72-.85-2.45,0-2.72,1.17-2.86.69A1.93,1.93,0,0,1,22.59,26.88Z" transform="translate(0.01)"/><path class="cls-8" d="M45.56,27.3a9.26,9.26,0,0,0-4.89.62c-.7.29-1.53,1-1.08,1.95.34.74,2.49-.79,4.74-.67,2.45.13,2.68,1.28,2.83.79A1.92,1.92,0,0,0,45.56,27.3Z" transform="translate(0.01)"/><path class="cls-8" d="M41,40.06c2,1.5,2.94,2.23,5.28.81-.29,2.79-3.16,4-5.67,3.2a3.56,3.56,0,0,1-1.53-.9c-.91,1.52-3.11-.09-3.82-.89-.48,1.06-2.58,1.53-3.38.62-2,2.61-9.86,3.09-10.32-2a4.29,4.29,0,0,0,6.1.28c2.66-2.82,3.93-1.72,7.37-1.71C37.58,39.16,38.82,38.5,41,40.06Z" transform="translate(0.01)"/><path class="cls-22" d="M41.58,41.54c-.18.44-1.12.63-1.51.7A5.57,5.57,0,0,1,37.64,42c-.15,1-2.43-.21-2.72-.62a1.79,1.79,0,0,1-1.36,1c-.83.15-1.1-.29-1.55-.86a3.86,3.86,0,0,1-2.15,1c-.4,0-1.38,0-1.65-.35-.51-.67,1.5-2,2-2.28a3.24,3.24,0,0,1,2.31-.27,11.31,11.31,0,0,0,3.18.15,6.79,6.79,0,0,1,3.74.15c.52.24,1.86.74,2.11,1.29A.46.46,0,0,1,41.58,41.54Z" transform="translate(0.01)"/></g></g></g></svg>