<svg xmlns="http://www.w3.org/2000/svg" xmlns:xlink="http://www.w3.org/1999/xlink" viewBox="0 0 66 66"><defs><style>.cls-1{fill:none;}.cls-2{clip-path:url(#clip-path);}.cls-3{fill:#7997a0;}.cls-4{fill:#912907;}.cls-5{fill:#801a00;}.cls-6{fill:#f06799;}.cls-7{fill:url(#linear-gradient);}.cls-8{fill:#ff87b3;}.cls-9{fill:#fab077;}.cls-10{fill:#591702;}.cls-11{fill:#f59a62;}.cls-12{fill:#283b21;}.cls-13,.cls-18{opacity:0.3;}.cls-14{fill:#960800;}.cls-15{fill:#8f2f2b;}.cls-16{fill:#fff2de;}.cls-17{fill:#e8d3b5;}.cls-18{fill:#bf3c1b;}.cls-19{fill:#82a375;}.cls-20{fill:#a61900;opacity:0.2;}.cls-21{fill:#ffbe8a;}.cls-22{fill:#1f1a17;}.cls-23{fill:#f7985c;}.cls-24{fill:#e6864a;}.cls-25{fill:#a8370a;}</style><clipPath id="clip-path" transform="translate(0.01)"><circle class="cls-1" cx="33" cy="33" r="33"/></clipPath><linearGradient id="linear-gradient" x1="34.71" y1="53.16" x2="34.71" y2="56.65" gradientUnits="userSpaceOnUse"><stop offset="0" stop-color="#e88958"/><stop offset="0.34" stop-color="#f49d62"/><stop offset="0.69" stop-color="#fcab69"/><stop offset="1" stop-color="#ffb06b"/></linearGradient></defs><g id="Layer_2" data-name="Layer 2"><g id="avatars"><g class="cls-2"><rect class="cls-3" width="66" height="66"/><path class="cls-4" d="M55.9,40.27c3.27-1.5,1.89-8.5-1.81-6.24,2.51-.09.08,3.91-1.32.9-.89-1.9,1.16-2.82,2.08-4.09a7.35,7.35,0,0,0,1.3-5.28C55.7,20.4,51,17.15,48.23,13.18,45.25,8.85,41,6.08,35.62,8a8.62,8.62,0,0,0-3.38,2.5,5.32,5.32,0,0,0-1.7-2.37c-.08.77-.12,1.55-.14,2.34-2.95-1.81-7.56-1.07-10.12.58-3.49,2.26-3.16,5.73-4.56,9.12-1.29,3.09-5.36,6.7-5.1,10.3.16,2.25,1.77,3.41,1.66,5.73-.09,1.93-2.19,3-1.23,4.86S16,42.34,14,45.59c-1.85,3-5.45-.54-3.19-1-2.5-1.22-3.54,2-3.17,3.94.51,2.69,4.28,2.75,6.3,2.2-5.27,9.65,9.74,12,17.16,5.64,3.18-2.74,5.73,4.48,9.58,4.83,5.19.46,7.93-3.27,6.87-6.6.89,2.79,4,3,6.32,2a6,6,0,0,0,3.49-5.89,3.8,3.8,0,0,1-4.27.87A2.87,2.87,0,0,1,51.68,47c1.44-2,5.53-4.66,1.54-6.82A3,3,0,0,0,55.9,40.27Z" transform="translate(0.01)"/><path class="cls-5" d="M50.83,34.12c-1-2.83-5.35-2.63-7.72-2.61A48.67,48.67,0,0,0,33,32.28a10.74,10.74,0,0,0-4,1.63c-.89.62-2.18,1.93-3.38,1.81-.59-.07-.32-.39-.78-.59a13.56,13.56,0,0,0-2.59-1.28,4.92,4.92,0,0,0-5,3.22c-.47,2,.58,3.8,1.33,5.47a8.42,8.42,0,0,1-2.23,9.87c-1.44,1.35-1.88,2.44.18,3.78,3.35,2.16,8,2.3,13.34.52,2.52-.84,10.67,3.67,13.45,2.21,2.24-1.17,2.93-2.34,3.81-6.37.72.9,1.69,2.37,3,2.36-1.25-2.35,0-5,.34-7.46.35-2.64-.12-5.29,0-7.94C50.56,37.84,51.38,35.75,50.83,34.12Z" transform="translate(0.01)"/><path class="cls-6" d="M40.71,55.26l-1.63,3.21c.51.26,1,2.6,1.24,3.86A32.11,32.11,0,0,0,41.23,66h3.86a19.58,19.58,0,0,1-1.24-4.39C43.29,58.89,42.77,56.31,40.71,55.26Z" transform="translate(0.01)"/><path class="cls-6" d="M31.17,58.47l-1.63-3.21c-2.06,1.05-2.59,3.63-3.14,6.35A19,19,0,0,1,25.15,66H29a30.28,30.28,0,0,0,.92-3.67C30.18,61.07,30.66,58.73,31.17,58.47Z" transform="translate(0.01)"/><path class="cls-6" d="M41.09,62.11c1.08-4,1.2-6.49-1.29-7.31s-6.9-1.06-9.56.07c-2.12.91-2.8,2.38-1.35,6.86A30.06,30.06,0,0,1,30,66H40.25A32.59,32.59,0,0,1,41.09,62.11Z" transform="translate(0.01)"/><path class="cls-7" d="M37.84,50.63c.2-3.57-6-3.7-6,.19,0,1.73.14,3-.22,3.6-2.47,3.86,8.45,4.33,6.14.19C37.29,53.68,37.75,52.2,37.84,50.63Z" transform="translate(0.01)"/><path class="cls-8" d="M37.6,59.48a10.22,10.22,0,0,1-5.67-.09c-1-.26-1.61.91-1.29,1.9.42,1.33,2.56,1.67,4.42,1.65,3.68-.06,5.06-1.43,4.43-3.06C39.33,59.45,38.54,59.15,37.6,59.48Z" transform="translate(0.01)"/><path class="cls-9" d="M33.38,16.88C25.15,17.93,18.62,24.56,19.7,36s8.78,18.3,17.09,18.23C43.16,54.16,50.85,43.74,50.42,32,50,20.65,41.62,15.83,33.38,16.88Z" transform="translate(0.01)"/><path class="cls-10" d="M47.2,27.2c-1.28-.21-3.89.31-3.42,2.22.14.58.45.63.87.34s.43-.87.74-1.16c1.51-1.42,4,0,4.78,1.5A3.62,3.62,0,0,0,47.2,27.2Z" transform="translate(0.01)"/><path class="cls-10" d="M26,28.19a3.59,3.59,0,0,0-2.76,3.32c.54-1.61,3.1-3.38,5.11-2.19.4.24.67.87,1.07,1s.88.13.92-.48C30.48,27.92,27.4,27.79,26,28.19Z" transform="translate(0.01)"/><path class="cls-11" d="M48.82,37.26A3.14,3.14,0,0,0,46.17,36c-1.18-.08-2.8.27-2,2.11.45,1,5.08,2,4.78-.26A1.76,1.76,0,0,0,48.82,37.26Z" transform="translate(0.01)"/><path class="cls-11" d="M28.35,37a3.5,3.5,0,0,0-3.12.09c-1.16.48-2.53,1.56-.83,2.83.91.68,5.79-.6,4.42-2.46A1.7,1.7,0,0,0,28.35,37Z" transform="translate(0.01)"/><path class="cls-12" d="M28,31.46c-2.13-.79-3.36,3-1.6,4.41a1.9,1.9,0,0,1,1.91-.22C29.64,34.85,29.55,32.05,28,31.46Z" transform="translate(0.01)"/><g class="cls-13"><path class="cls-14" d="M37.14,42a29.69,29.69,0,0,1-4.62,0,10.3,10.3,0,0,1-4.17-1.44,15.69,15.69,0,0,0,1.31,3.14A12.36,12.36,0,0,0,31.34,46a8.19,8.19,0,0,0,6.07,2.82c4.33,0,4.9-2.75,5.05-4.79.08-1.25,1.34-2.1,1.94-3.22a2.67,2.67,0,0,0,.29-.85,9.26,9.26,0,0,1-3.25,1.5A38.88,38.88,0,0,1,37.14,42Z" transform="translate(0.01)"/></g><path class="cls-15" d="M29.81,42.11s1.94,5,7.08,4.73c4.62-.26,5.14-2,5.32-3.21a3.25,3.25,0,0,1,1.49-2.29A20,20,0,0,1,29.81,42.11Z" transform="translate(0.01)"/><path class="cls-16" d="M31.51,42.59a2.61,2.61,0,0,0,1.67,2.22,10.55,10.55,0,0,0,6.63.11c1.55-.45,2.41-3,2.41-3A23.35,23.35,0,0,1,31.51,42.59Z" transform="translate(0.01)"/><path class="cls-16" d="M38,45a14.77,14.77,0,0,1-5.12-.53c-.86-.31-.87.16-.7.56,0,0,.31,1.69,4.32,1.88,3.5.18,5-2,4.59-2.43S40.19,44.89,38,45Z" transform="translate(0.01)"/><path class="cls-17" d="M31.5,42.57a2.74,2.74,0,0,0,.42,1.28s7.83-1.17,9.68-.57A7.13,7.13,0,0,0,42.22,42,25.73,25.73,0,0,1,31.5,42.57Z" transform="translate(0.01)"/><path class="cls-17" d="M33.33,44.45a10.24,10.24,0,0,0,7.27-.06A15.61,15.61,0,0,1,33.33,44.45Z" transform="translate(0.01)"/><path class="cls-18" d="M37.6,38.13c-1.14.06-1.65-.32-2.4.08s.48,1.86,2.49,1.72S40.5,38.36,40,38,38.86,38.07,37.6,38.13Z" transform="translate(0.01)"/><path class="cls-12" d="M47.88,30.88c-2.2-1.34-3.88,3.06-1.71,4a2.42,2.42,0,0,1,2,.29C49.16,34.32,49.06,31.6,47.88,30.88Z" transform="translate(0.01)"/><path class="cls-19" d="M27.6,32.39c-.89,0-.77,1.79.2,1.46C28.5,33.62,28.4,32.37,27.6,32.39Z" transform="translate(0.01)"/><path class="cls-19" d="M47.06,31.87c-.88,0-.87,1.73.1,1.45C47.87,33.13,47.84,31.89,47.06,31.87Z" transform="translate(0.01)"/><path class="cls-9" d="M16.1,31.27c-3.93,1.39-2.21,7.1,1,8a7.56,7.56,0,0,0,3.21.11l.06-.1c.46-.79-.48-4.61-.74-5.39C19,32,18,30.61,16.1,31.27Z" transform="translate(0.01)"/><path class="cls-20" d="M43.07,16.31A41.74,41.74,0,0,0,29.6,17c-3,.68-6.19,1.94-7.93,4.64-1.24,1.92-3.35,4-3.63,6.42-.27,2.22,1.24,3.92,2.16,5.78,1.17,2.34.1,4.15.18,6.5.05,1.53.8,1.82,2.25,1.87-2.34-2.26-.16-5,.27-7.48.23-1.34-.33-2.55-.31-3.93,0-.32,0-.63.05-.94a21,21,0,0,1,.85-3.58c-.48,4.21,5.62,1.9,7.33,1.22a3.26,3.26,0,0,1,1.78-.33c-2.06,2.13,1,5.81,3.47,5.81,4.09,0,5.12-1.69,6.83-4a5.73,5.73,0,0,1,3.85-2.44c1.06-.13,3.25.6,3.7-.65.66-1.86-.16-5.42-1.1-7.12C48.21,16.66,45.16,16.53,43.07,16.31Z" transform="translate(0.01)"/><path class="cls-18" d="M18.56,33.4c-1-.5-3.78,0-2.66,1.92.8-1.6,1.9-.42,1.62.74-.18.77-1.18.71-.27,1.79a2,2,0,0,0,2.16.23C21.22,37.28,19.83,34,18.56,33.4Z" transform="translate(0.01)"/><path class="cls-4" d="M37.6,11a41.77,41.77,0,0,0-5-.6,18.67,18.67,0,0,0-8.2,2.4c-3.78,2-6.21,6.57-7.32,10.63a16.3,16.3,0,0,0-.47,7.44c.46,2.16,3.27,3,3.43,5.21.08,1-.81,1.75-.78,2.71a3.12,3.12,0,0,0,.95,2.15,5.27,5.27,0,0,0,2.37.71c-1.56-1.71-.05-2.71.09-4.38a13.07,13.07,0,0,0-.58-4.47,6.85,6.85,0,0,1,2.05-8c.25,3.08,3.4,2.95,5.64,2.51,1-.2,3.95-1.39,4.47.14.32.95-1.21,1.78-1.56.69,0,1.63.06,3,2,3.38a6,6,0,0,0,6.85-2.94,5.2,5.2,0,0,1,2-2,7.33,7.33,0,0,1,3.3-.59c2.56-.05,3.45-1.91,3.33-4.36C49.81,14.92,43.48,11.51,37.6,11Z" transform="translate(0.01)"/><path class="cls-21" d="M37.58,39c1.65-.09,3.52-.53,2-2.52C37,33,31.89,39.29,37.58,39Z" transform="translate(0.01)"/><path class="cls-22" d="M26.48,31.51A5.49,5.49,0,0,1,22.31,33a3.88,3.88,0,0,0,4.5-.57,1.75,1.75,0,0,1,2.05-.18A1.49,1.49,0,0,0,26.48,31.51Z" transform="translate(0.01)"/><path class="cls-22" d="M48.1,31c-1.6-1.18-2.56.72-2.56.72a1.77,1.77,0,0,1,2.06.18,3.84,3.84,0,0,0,4.49.57A5,5,0,0,1,48.1,31Z" transform="translate(0.01)"/><path class="cls-23" d="M36.74,34.42c-.47.08-.82.41-.78.73s.46.51.93.42.82-.41.78-.73S37.21,34.33,36.74,34.42Z" transform="translate(0.01)"/><path class="cls-23" d="M35.44,35.81c-.33.2-.5.55-.39.77s.47.23.8,0,.49-.55.38-.77S35.76,35.61,35.44,35.81Z" transform="translate(0.01)"/><path class="cls-23" d="M41.15,35.23c-.35-.14-.69,0-.77.19s.14.54.49.68.7,0,.78-.19S41.5,35.37,41.15,35.23Z" transform="translate(0.01)"/><path class="cls-23" d="M32.42,34.38c-.37.09-.6.36-.53.6s.44.36.8.26.6-.36.52-.6S32.78,34.28,32.42,34.38Z" transform="translate(0.01)"/><path class="cls-24" d="M28.33,36.59c-.37,0-.68.21-.68.46s.3.46.68.46.67-.2.67-.45S28.7,36.59,28.33,36.59Z" transform="translate(0.01)"/><path class="cls-24" d="M44.59,36.65c-.37,0-.67.2-.67.46s.29.46.67.46.67-.2.67-.46S45,36.65,44.59,36.65Z" transform="translate(0.01)"/><path class="cls-24" d="M25.31,36.49c-.47.16-.76.53-.66.84s.56.42,1,.27.76-.53.66-.84S25.77,36.34,25.31,36.49Z" transform="translate(0.01)"/><path class="cls-24" d="M29.62,35.76c-.37,0-.64.27-.58.51s.4.42.77.37.64-.27.59-.52S30,35.71,29.62,35.76Z" transform="translate(0.01)"/><path class="cls-24" d="M48.62,36.5c-.33-.18-.68-.13-.77.1s.1.56.44.74.68.13.77-.1S49,36.67,48.62,36.5Z" transform="translate(0.01)"/><path class="cls-23" d="M35.17,34.09c-.25,0-.44.23-.41.41s.25.29.51.25.45-.24.42-.42S35.43,34,35.17,34.09Z" transform="translate(0.01)"/><path class="cls-24" d="M26.76,37.6c-.26,0-.45.24-.42.42s.26.29.52.24.44-.23.42-.41S27,37.56,26.76,37.6Z" transform="translate(0.01)"/><path class="cls-23" d="M42.1,34.58c-.25-.09-.49,0-.54.15s.1.4.35.48.49,0,.55-.16S42.35,34.67,42.1,34.58Z" transform="translate(0.01)"/><path class="cls-24" d="M47,37c-.25-.08-.5,0-.55.16s.11.39.36.48.49,0,.54-.16S47.24,37.11,47,37Z" transform="translate(0.01)"/><path class="cls-23" d="M40.66,33.74c-.32-.05-.59.09-.61.32s.21.44.53.49.58-.09.61-.31S41,33.79,40.66,33.74Z" transform="translate(0.01)"/><path class="cls-23" d="M33.39,36.92c-.36.1-.6.39-.54.63s.4.36.75.25.61-.39.54-.63S33.75,36.81,33.39,36.92Z" transform="translate(0.01)"/><path class="cls-23" d="M38.68,33.82c-.44-.08-.83.11-.87.42s.28.62.72.69.83-.12.87-.42S39.12,33.89,38.68,33.82Z" transform="translate(0.01)"/><path class="cls-24" d="M43.6,35.34c-.44-.08-.83.11-.87.42s.28.61.72.69.83-.12.88-.42S44,35.41,43.6,35.34Z" transform="translate(0.01)"/><path class="cls-23" d="M30.34,37c-.45,0-.8.26-.78.57s.39.55.84.55.79-.26.78-.57S30.78,37,30.34,37Z" transform="translate(0.01)"/><path class="cls-24" d="M45.92,35.43c-.44,0-.79.26-.78.57s.39.56.84.55.79-.26.78-.57S46.37,35.43,45.92,35.43Z" transform="translate(0.01)"/><path class="cls-23" d="M39.53,35.26c-.42-.18-.85-.11-.94.16s.17.64.59.82.85.11.94-.16S40,35.44,39.53,35.26Z" transform="translate(0.01)"/><path class="cls-23" d="M32,35.72c-.49.08-.86.41-.82.75s.48.56,1,.48.86-.41.82-.75S32.47,35.64,32,35.72Z" transform="translate(0.01)"/><path class="cls-23" d="M34,35.07c-.47.18-.78.58-.68.91s.56.45,1,.27.78-.57.68-.9S34.45,34.9,34,35.07Z" transform="translate(0.01)"/><path class="cls-23" d="M42.3,36.45c-.5-.07-.93.15-1,.49s.34.67.83.74.94-.14,1-.48S42.8,36.53,42.3,36.45Z" transform="translate(0.01)"/><path class="cls-25" d="M35.58,10.44a6.94,6.94,0,0,0-3.21,2,14,14,0,0,1,2.32,4.13A4.54,4.54,0,0,1,32.85,21c-1.5,1-10.06,2.51-4.13,4.57,1.81.62,3.69-.55,5.49-.14,1.42.32,2.36,2.41.87,3.38,1.29.62,3.28-.17,4.35-.86a16.71,16.71,0,0,1,2.34-1.47A11.89,11.89,0,0,0,46.63,23c1.77-2.35,1.82-5.36-.72-8.92C43.86,11.17,39,9.53,35.58,10.44Z" transform="translate(0.01)"/><path class="cls-25" d="M26.28,12c-7.48.5-6,6.94-9.15,11.56C16,25.08,15,26.44,15.92,28.27c.75,1.51,3.12,3.69,4.8,3.89a6.09,6.09,0,0,1-.51-3.95c1.35-4.78,6.92-6.24,9.35-10.1C31.57,14.92,30.13,11.69,26.28,12Z" transform="translate(0.01)"/></g></g></g></svg>