<svg xmlns="http://www.w3.org/2000/svg" xmlns:xlink="http://www.w3.org/1999/xlink" viewBox="0 0 96 96"><defs><style>.cls-1{fill:none;}.cls-2{clip-path:url(#clip-path);}.cls-3{fill:#fe6152;}.cls-4{fill:#d47844;}.cls-5{fill:#ebebeb;}.cls-6{fill:#ed671a;}.cls-7{opacity:0.1;}.cls-8{fill:#fbfbfb;}.cls-9{fill:url(#linear-gradient);}.cls-10{fill:#301e18;}.cls-11{fill:#fff9f0;}.cls-12{fill:#472c23;}.cls-13,.cls-14{fill:#661004;}.cls-13{opacity:0.2;}.cls-14{opacity:0.3;}.cls-15{fill:#d4502c;}.cls-16{fill:#1f1a17;}.cls-17{fill:#a89191;}.cls-18{fill:#eda264;}.cls-19{opacity:0.8;}.cls-20{fill:#611f16;}</style><clipPath id="clip-path"><circle class="cls-1" cx="48" cy="48" r="48"/></clipPath><linearGradient id="linear-gradient" x1="48.53" y1="74.99" x2="48.53" y2="82.17" gradientUnits="userSpaceOnUse"><stop offset="0" stop-color="#c25421"/><stop offset="1" stop-color="#d47844"/></linearGradient></defs><g id="Layer_2" data-name="Layer 2"><g id="Layer_4" data-name="Layer 4"><g class="cls-2"><rect class="cls-3" width="96" height="96"/><path class="cls-4" d="M40.57,82.07,38.5,78c-3.19,1.62-3.84,5-4.52,8.65-.58,3-1.24,6.45-3.49,9.36H35.9a30.35,30.35,0,0,0,2.58-8.51C39,84.5,39.45,82.64,40.57,82.07Z"/><path class="cls-4" d="M57.38,78l-2.07,4.08c1.12.57,1.52,2.43,2.09,5.42A30.35,30.35,0,0,0,60,96h5.4c-2.24-2.91-2.9-6.31-3.48-9.36C61.21,83,60.56,79.61,57.38,78Z"/><path class="cls-5" d="M58.48,91.5c1.45-7.24,0-11.75-1.29-14.69-5.76-3.2-15.2-2-19,.58A28,28,0,0,0,38.05,91a27,27,0,0,1,.82,5h19A29,29,0,0,1,58.48,91.5Z"/><path class="cls-6" d="M49.21,87.5l2.33-2.29a3.44,3.44,0,0,0-3.26-2.13c-3-.18-3.75,2-3.75,2l2.37,2.42-3,5.62L46.16,96h3.71l2.56-3Z"/><path class="cls-7" d="M40.23,80.4a12.47,12.47,0,0,0,5,6.65l2.74-3.4L51.51,87c2.44-1.43,4.81-4.86,4.85-7.72C56.39,77.26,39.12,76.15,40.23,80.4Z"/><path class="cls-8" d="M40.28,75.35C37.22,80,44.94,85.93,44.94,85.93l3-2.68,3.4,2.81s7-4.38,4.52-10.24C53.63,70.54,43.35,70.64,40.28,75.35Z"/><path class="cls-9" d="M46.09,69.77c-1.89.56-3.15,3-3.28,5.47-.16,3.15,3.22,7.37,5.57,7.45,1.78,0,9.3-5.83,4-11.55C50.88,69.5,47.91,69.23,46.09,69.77Z"/><path class="cls-10" d="M54.12,65c.66-2.85,2-7.55,5.67-7.84,2.42-.19,4.13,4.06,6.34,4.43S71.3,60,69.8,56.71c6.41.42,6.16-5.84,2.7-7,6.62.31,5.19-5.25,1-5.86,1.46-.58,3.61-1.81,3.56-3.66s-1.7-2.83-3.31-3.48c3.5-1.16,3.49-7.47-1.44-7.34,4.51-2.93,1.89-8.38-3.24-7.43a4.48,4.48,0,0,0-6.47-5.86c1.56-5-5.27-9.72-11.32-3.94-1.24-3.38-8.83-4.66-9.9.3a5.17,5.17,0,0,0-8.9,3.81c-4.11-2.56-10.82,1.5-7.77,6.27-4.91-.54-8.33,6.86-3.4,9.74-6.33.53-5.88,7.48-1.76,8.82-2.17.39-2.58,2.47-.28,4.25-4-1.42-6.81,3.76-3.55,7.16C12.07,52,10,58.19,14.25,59.81c-4.43,2-1.14,8.73,3.1,7.28-.3,2-.94,4,.82,5.66a4.55,4.55,0,0,0,5.6.36c0,2.79,6.26,4.08,7.22,1.76.81,2.54,5.7,3.06,7.2.68.7,0,1.16.47,1.85.49A4.85,4.85,0,0,0,44,73.71c.61-1.12.51-2.52,1.38-3.4,1.57-1.58,3.72-.8,5.59-1.4S53.68,66.84,54.12,65Z"/><path class="cls-11" d="M65.49,55.69a1.84,1.84,0,1,0,1.84-1.84A1.84,1.84,0,0,0,65.49,55.69Z"/><path class="cls-12" d="M17,53c-4.52.85-5.07,4.33-.88,6.53-3.13.91-4.47,5.26,0,5.41-.59-3,4.45-6.45,7.34-4.64.07-1.79.63-4.53,2.05-5.7-2.35.84-4.64-1.91-5.39-3.76-.63-1.57-.13-6-3.18-4.36C14.36,47.85,15.66,51.61,17,53Z"/><path class="cls-11" d="M22.72,55.81A1.84,1.84,0,1,0,24.56,54,1.84,1.84,0,0,0,22.72,55.81Z"/><path class="cls-4" d="M67.92,48.39c-.44-14.68-8.89-22-19.66-21.72S27.08,34.73,27,49.62s10.63,25.75,21.37,26.7C58.61,77.23,68.4,64.77,67.92,48.39Z"/><path class="cls-4" d="M23.91,53.35a8.22,8.22,0,0,0,3.67.49l.08-.11c.62-.92,0-5.66-.21-6.64-.52-2.47-1.54-4.23-3.78-3.63C19,44.72,20.29,51.86,23.91,53.35Z"/><path class="cls-13" d="M30.42,41.25c-.12,1.87-.07,4.46-.85,5-1.87,1.3-2.73-3.39-2.81-4.33-.34-4.36,3.3-7.45,5.77-10.57s6.85-4.49,10.83-5a54.31,54.31,0,0,1,17.48.81c2.68.55,6.6,1.09,7.81,3.93.84,2,2,5.91.51,7.78A3.55,3.55,0,0,1,66.54,40a18.49,18.49,0,0,1-2.67-.64c-1.36,1.16-3.45.19-4.3-1.15-.59,2.48-2.68,1-4,2.2-1.11,1,.3,2.79-.65,4.09-2,2.71-6.64,1.34-7.49-1.62,0,.14-1.46-.23-1.64-.38a6.2,6.2,0,0,1-1.73-3.24c-1.38.24-2.4-.41-3.67-.81-1.54-.48-2.09.14-3.84.44-2.28.4-4.73-2.25-5.88.71A5.93,5.93,0,0,0,30.42,41.25Z"/><path class="cls-14" d="M26.36,52c2.17-.77,1-4.9-.41-5.79-1.14-.73-4.34-.37-3.29,2,1.11-1.86,2.23-.3,1.77,1.08-.3.92-1.43.73-.52,2.16C24.4,52.24,25.68,52.22,26.36,52Z"/><path class="cls-10" d="M59.55,36.57c.87,1.47,3.74,3.22,4.93,1.24,1,1.62,3,.85,3.89-.49,1.11-1.74.59-3.89,0-5.72-.8-2.69-.82-5.38-3.33-7.13A29.66,29.66,0,0,0,54,19.53c-2.23-.41-4.28-1.27-6.58-1.44a25.47,25.47,0,0,0-11.19,2c-5.27,2.11-9.08,7.68-11,12.78a20.48,20.48,0,0,0-1.55,9.55c.36,3,3.88,3.87,4.11,6.29.13,1.4-1.2,2.67-2.45,1.68-1.69,3.74,7.82,4.56,6.32-1.14-.73-2.77-2.53-4.25-2-7.37.51-2.85,1.58-3.46,3.25-5.45,1.55,2.57,4.57,1.75,6.55.47-.42.28,2.13,1.62,2.4,1.67A5.09,5.09,0,0,0,45,37.93c-.58,2,1.51,4.39,3.54,3.33-1.12,4.47,8.47,4.87,7.89.31-1.05.52-3,0-2-1.43.43-.58,2-.67,2.64-1A4.72,4.72,0,0,0,59.55,36.57Z"/><path class="cls-12" d="M71.75,27.09C70.68,28.79,68.24,29,66.47,29c.37,1.37.85,3.21.17,4.57-1.07,2.13-3.85.86-4.46-1,.64,1.36-.17,2.45-1.66,2.44s-1.76-1.06-2.74-1.86a6.86,6.86,0,0,1-4.6,3.36c-1.36.42-2.52,1.15-2.56,2.86-1-.56-1.87-1.2-1.81-2.45-1.87,2.31-4.19-.11-3.83-2.4-1.32,1.9-4.92,2.11-5.71-.32-1.71,1.51-7.48,1.72-6.24-1.82-2.24,1.63-7.15,1.45-8.12-1.81-.79-2.7,1.94-3.85,3.87-4.5-3-4.71,2.43-10.14,7-6.45-.75-5.37,4.05-6,7.73-3.59a3.69,3.69,0,0,1,2.56-3.45c2-.48,3.83.9,5.26,2.64,2.39-1.81,6.19-3,7.76-1.46a4.15,4.15,0,0,1,1,4c2.23-.87,5.31-1.45,6.68,1.09A4.58,4.58,0,0,1,66.24,24C70.44,23.54,72.83,25.37,71.75,27.09Z"/><path class="cls-10" d="M33.09,43.09c-.1-.8,2.48-2.11,5.1-2.43,2.86-.33,5.91.39,5.83,1.45S41.54,42,38.66,42C35.06,42,33.15,43.61,33.09,43.09Z"/><path class="cls-10" d="M67.4,43c.06-.81-2.09-2-4.25-2.18-2.37-.2-4.88.68-4.79,1.73s2-.29,4.42-.41C65.75,42,67.36,43.54,67.4,43Z"/><path class="cls-15" d="M66.54,52.75a2.23,2.23,0,0,1,.17.8c.11,2.89-5.75,1.05-6.21-.27-.88-2.47,1.27-2.73,2.79-2.48C64.45,51,66,51.48,66.54,52.75Z"/><path class="cls-15" d="M38.74,50.53a2.58,2.58,0,0,1,.55.66c1.53,2.58-4.92,3.61-6,2.62-2-1.85-.14-3.07,1.42-3.54C35.89,49.91,37.63,49.62,38.74,50.53Z"/><path class="cls-16" d="M39.3,49.79a3.92,3.92,0,0,0-2.63-.62c-1.6-1.82.79-6.34,3.31-4.79C41.85,45.54,41.24,49.12,39.3,49.79Z"/><path class="cls-14" d="M53.85,53.35c-.52-.47-1.15,0-2.39,0s-1.61-.43-2.36-.08.35,1.86,2.33,1.85S54.3,53.76,53.85,53.35Z"/><path class="cls-16" d="M64.28,44.59c1.49,1,1.3,3.55.12,4.78a3.7,3.7,0,0,0-2.53.53C58.71,48.87,61.49,42.79,64.28,44.59Z"/><path class="cls-17" d="M39.41,45.59c1-.19,1.39,1.39.54,1.84C38.78,48,38.26,45.8,39.41,45.59Z"/><path class="cls-16" d="M70.48,46.25a5.08,5.08,0,0,1-6.43,0l.49-1.41S67.06,47.84,70.48,46.25Z"/><path class="cls-17" d="M63.46,45.5c1,0,1.13,1.58.24,1.88C62.45,47.8,62.32,45.53,63.46,45.5Z"/><path class="cls-16" d="M31.69,44.84A5.09,5.09,0,0,0,38,45.92l-.24-1.48S34.77,47,31.69,44.84Z"/><path class="cls-18" d="M53.49,51.49c-2.36-3.57-7.76,2.3-2.15,2.35C53,53.86,54.84,53.54,53.49,51.49Z"/><g class="cls-19"><path class="cls-20" d="M62.86,58.39a2.64,2.64,0,0,1-3.51-1.18,2.36,2.36,0,0,0,.4,2.25,9.93,9.93,0,0,1-9.79,6,10.1,10.1,0,0,1-9.11-5.93,2.2,2.2,0,0,0,0-2.33,2.37,2.37,0,0,1-3.28,1.32,2.4,2.4,0,0,0,1.82,1.56A11.7,11.7,0,0,0,49.6,67L50,67A11.3,11.3,0,0,0,61.22,60,2,2,0,0,0,62.86,58.39Z"/></g></g></g></g></svg>