<svg xmlns="http://www.w3.org/2000/svg" xmlns:xlink="http://www.w3.org/1999/xlink" viewBox="0 0 66 66"><defs><style>.cls-1{fill:none;}.cls-2{clip-path:url(#clip-path);}.cls-3{fill:#507d52;}.cls-4{fill:#c9beb7;}.cls-5{fill:#1e1e29;}.cls-6{fill:#3a3a4a;}.cls-7{opacity:0.1;}.cls-8{fill:#e3d9d3;}.cls-9{fill:url(#linear-gradient);}.cls-10{fill:#db5f07;}.cls-11{fill:#fbb37b;}.cls-12{fill:#d14f2e;}.cls-12,.cls-16{opacity:0.4;}.cls-13{fill:#ea750c;}.cls-14{fill:#f89e66;}.cls-15{fill:#472117;}.cls-16,.cls-21{fill:#bc551e;}.cls-17{fill:#96342f;}.cls-18{fill:#fff5e6;}.cls-19{fill:#efdbbd;}.cls-20{fill:#af968e;}.cls-21{opacity:0.3;}.cls-22{fill:#bc4411;}.cls-23{fill:#d65b14;}.cls-24{fill:#ffc08d;}.cls-25{fill:#ea771a;}</style><clipPath id="clip-path" transform="translate(0.01)"><circle class="cls-1" cx="33" cy="33" r="33"/></clipPath><linearGradient id="linear-gradient" x1="-2096.13" y1="51.12" x2="-2096.13" y2="56.13" gradientTransform="matrix(-1, 0, 0, 1, -2062.06, 0)" gradientUnits="userSpaceOnUse"><stop offset="0" stop-color="#ee996d"/><stop offset="0.02" stop-color="#ee9a6e"/><stop offset="0.37" stop-color="#f8b181"/><stop offset="0.71" stop-color="#fdbf8d"/><stop offset="1" stop-color="#ffc491"/></linearGradient></defs><g id="Layer_2" data-name="Layer 2"><g id="avatars"><g class="cls-2"><rect class="cls-3" width="66" height="66"/><path class="cls-4" d="M24.05,66c-.43-4.23.66-7.93,2.72-9.13L24.21,54C21.08,55.57,20,60.09,20,66Z" transform="translate(0.01)"/><path class="cls-4" d="M43.26,66c.44-4.23-.65-7.93-2.72-9.13L43.1,54c3.13,1.59,4.24,6.11,4.25,12Z" transform="translate(0.01)"/><path class="cls-4" d="M40.11,52.39c-4-2.23-9.88-1.46-12.55.34-3.73,2.52-2.83,6.7-1.83,13.27h16C42.78,59.82,43.78,54.44,40.11,52.39Z" transform="translate(0.01)"/><path class="cls-5" d="M34.54,59.86l1.63-1.61a2.41,2.41,0,0,0-2.28-1.48,2.44,2.44,0,0,0-2.61,1.36l1.65,1.7-2.07,5L31.72,66h4.06l1-1.19Z" transform="translate(0.01)"/><path class="cls-6" d="M28,52s-4,1.27-4.31,2.09c-.23.57.64,6.17,1.27,11.93h4.31C29.49,62.34,29.47,56.41,28,52Z" transform="translate(0.01)"/><path class="cls-6" d="M39.32,52s4,1.27,4.31,2.09c.24.57-.64,6.17-1.27,11.93H38.05C37.82,62.34,37.84,56.41,39.32,52Z" transform="translate(0.01)"/><path class="cls-7" d="M39.53,54.14a7.3,7.3,0,0,1-3.38,5.39l-2.51-2.36-1.91,2.37a8.67,8.67,0,0,1-3.45-4.64C27.5,51.93,39.55,52.7,39.53,54.14Z" transform="translate(0.01)"/><path class="cls-8" d="M33.66,56.88l2.37,2s4.88-3.06,3.15-7.15c-1.55-3.68-8.72-3.62-10.87-.33s3.25,7.39,3.25,7.39Z" transform="translate(0.01)"/><path class="cls-9" d="M34,56.5c1.24,0,6.49-4.08,2.8-8.07a4.7,4.7,0,0,0-4.4-1c-1.32.39-2.2,2.08-2.29,3.81C30,53.49,32.33,56.44,34,56.5Z" transform="translate(0.01)"/><path class="cls-10" d="M10.85,30.49a25.26,25.26,0,0,1-2.64.12C11,39.5,24,35.37,29.88,33.75c3.71-1,8.08-1.49,11.82-.3,1.6.5,2.89,1.52,4.64,1.47,2.69-.08,9.76,2,10.59-2.26-.09.46-2.23-1.2-2.42-1.5a5.51,5.51,0,0,1-.43-2.9c-.12-3.12.28-6.24-.43-9.36a14.93,14.93,0,0,0-6.26-9.12,9.89,9.89,0,0,0-5-1.59C41,8.16,37.91,8.72,37,10c.47-.65,1.54-2.1.81-2.93-.87-1-3.33.6-3.42,1.69C34,8,32.92,5.91,31.73,6.83c-.89.7.26,2.35.55,3.09a13.87,13.87,0,0,0-3.17-.78c-5.75-.79-12.08.3-15.54,5.44-2,3-.6,6.35-.37,9.7.17,2.5-.81,4.55-3.71,3.11A3.43,3.43,0,0,0,10.85,30.49Z" transform="translate(0.01)"/><path class="cls-11" d="M16.72,34.75c1.64,5.69,1.6,7.09,4,12.77S29,56.81,37.06,56.34c7.29-.42,9.93-4.06,11.8-10.18a37.15,37.15,0,0,0,1.87-14.38c-1-11.43-9.42-20-18.81-19.21S13.55,23.73,16.72,34.75Z" transform="translate(0.01)"/><path class="cls-12" d="M27,34.75c1.08-1-2.26-1-2.77-.85.06.65,1.54.31,2,.41-.39.41-1.56.43-2,.72s-.44.5.16.47A10.86,10.86,0,0,0,27,34.75Z" transform="translate(0.01)"/><path class="cls-12" d="M47.27,34.05c-.74-1,2.06-.83,2.46-.65-.15.64-1.34.2-1.74.27.26.43,1.23.53,1.58.84s.29.52-.21.45A7.7,7.7,0,0,1,47.27,34.05Z" transform="translate(0.01)"/><path class="cls-13" d="M49.31,28.68a1,1,0,0,0,.3-.22c2.24-2.71-8.76-3.54-7.59-.34.58,1.58,2.58.82,3.76.66C46.55,28.68,48.45,29.06,49.31,28.68Z" transform="translate(0.01)"/><path class="cls-13" d="M24.26,29.67a.89.89,0,0,1-.36-.19C21,26.92,32.84,25,32.13,28.4c-.35,1.67-2.67,1.09-4,1C27.28,29.41,25.27,30,24.26,29.67Z" transform="translate(0.01)"/><path class="cls-14" d="M49.17,36.3a2,2,0,0,1,.16.62c.21,2.23-4.4,1.06-4.82.06-.78-1.88.87-2.17,2.05-2A3.18,3.18,0,0,1,49.17,36.3Z" transform="translate(0.01)"/><path class="cls-14" d="M28,36.05a1.76,1.76,0,0,1,.46.48c1.3,1.93-3.66,3-4.54,2.29-1.67-1.35-.25-2.38.94-2.81A3.51,3.51,0,0,1,28,36.05Z" transform="translate(0.01)"/><path class="cls-15" d="M28.39,35.45a3,3,0,0,0-2.06-.37c-1.32-1.34.34-4.94,2.35-3.85C30.18,32,29.86,34.85,28.39,35.45Z" transform="translate(0.01)"/><path class="cls-16" d="M46.94,39.27c-.34-.93-2.45-.4-2.45-.4-.36.1.29.25,1.15.5a.52.52,0,0,1,.32.27C41.3,40.92,33.28,42,27.43,39.9a1.07,1.07,0,0,1,.16-.14c.83-.61,2-.64,1.68-.85a5.54,5.54,0,0,0-2.75.49c-.71.53-.75,2.27-.19,2.36s.49-.87.87-1.55c.35,1.9,2.17,9.91,8.84,10.1,5,.14,6.63-2.48,6.92-5.6.17-1.73,1.95-3.85,3.06-4.86.07.53-.26,1.28.13,1.35C46.7,41.3,47.28,40.19,46.94,39.27Z" transform="translate(0.01)"/><path class="cls-17" d="M28.44,41.2a18,18,0,0,0,16.13-.51,5.05,5.05,0,0,0-1.87,3.43c-.29,1.85-1,4.48-6.37,4.65C30.37,49,28.44,41.2,28.44,41.2Z" transform="translate(0.01)"/><path class="cls-18" d="M30.37,42s0,2.51,1.8,3.47a9.45,9.45,0,0,0,7.66.49c1.84-.61,3-4.41,3-4.41A20.82,20.82,0,0,1,30.37,42Z" transform="translate(0.01)"/><path class="cls-18" d="M31,45.76c-.17-.64-.14-1.35.84-.83a13.42,13.42,0,0,0,5.9,1c2.55,0,3.18-1.32,3.61-.64s-1.43,3.94-5.48,3.5C31.23,48.35,31,45.76,31,45.76Z" transform="translate(0.01)"/><path class="cls-19" d="M30.77,44s9.14-1.42,11.25-.41a13.05,13.05,0,0,0,.8-2S36.3,43.81,30.36,42A5.34,5.34,0,0,0,30.77,44Z" transform="translate(0.01)"/><path class="cls-19" d="M32.36,45a13.86,13.86,0,0,0,8.43.25S36.29,47.46,32.36,45Z" transform="translate(0.01)"/><path class="cls-15" d="M47.79,30.51c1.08.85.76,2.83-.24,3.7a2.84,2.84,0,0,0-2,.23C43.19,33.43,45.76,28.93,47.79,30.51Z" transform="translate(0.01)"/><path class="cls-20" d="M28,31.7c.78-.18,1.14,1,.51,1.4C27.65,33.63,27.15,31.92,28,31.7Z" transform="translate(0.01)"/><path class="cls-20" d="M47,30.81c.78-.06.94,1.17.26,1.45C46.32,32.63,46.11,30.88,47,30.81Z" transform="translate(0.01)"/><path class="cls-11" d="M14.93,40.8a10.47,10.47,0,0,0,3.74.24.86.86,0,0,1,.07-.1c.56-.79-.41-4.66-.68-5.46-.7-2-1.86-3.41-4.09-2.81C9.33,33.93,11.15,39.74,14.93,40.8Z" transform="translate(0.01)"/><path class="cls-21" d="M20.93,28.76c-.46,2.5.15,5.05-.48,5.55-1.39,1.1-2.29-2.49-2.4-3.22-.48-3.36,2.19-5.93,3.94-8.46s5.07-3.82,8.13-4.41A42,42,0,0,1,43.69,18c1.59.22,6.35.55,5.1,3.3-.76,1.66-3.3,2.11-4.86,2.54a13.78,13.78,0,0,0-6.67,4.46c-.68.77-1.07,1.77-1.76,2.51,0,.05-1.65-3.71-2-4a9.17,9.17,0,0,0-3.05,3.63,5,5,0,0,1-2.23-4.82c-1,.51-5,6.25-5.16,6.13A4.91,4.91,0,0,1,20.93,28.76Z" transform="translate(0.01)"/><path class="cls-12" d="M17.3,39.55c2.15-.73.63-4.07-.83-4.74-1.2-.55-4.42-.1-3.18,1.84,1-1.58,2.23-.36,1.87.8-.24.77-1.4.67-.38,1.8A2.69,2.69,0,0,0,17.3,39.55Z" transform="translate(0.01)"/><path class="cls-22" d="M38.42,41.33c-.08,1.2-2,1.05-1.58,0-.54,1.55-2.11.76-1.33-.15-1.1.7-3.35,1-2.77-.14-.61.62-3.69,1-2.54-.38-1.09.54-2.73.78-2.71,0-1,1.54-5,5.66-4.64,1,.26-3.51,4.82-4.51,7.52-4.36,2.86.16,5.8.85,8.65.36,2.59-.44,6.32-2,8.72-.07,3.84,3.07.75,5.73-.3,5.35-.63-.23-1.56-1.79-2.17-3.07-.07,1.51-1.71,1-2.57.53.38.69-1,1.57-2.45.31C41,41.72,39.89,42.46,38.42,41.33Z" transform="translate(0.01)"/><path class="cls-22" d="M17.51,40.21c-1.09,4.1-.26,5.72.49,4.2-.08.59-.48,4.13.88,2.66-.59,1-.14,4.57,1.28,3.53-.18.95.46,3.78,1.46,3.62.19.92,1.76,3.75,2.67,2.08-.14.25,1.12,1.86,1.34,2.12.54.63,1.37,1.47,2.28,1.43.5,0,.68-.44,1.17-.37s1.16.91,1.67,1.16,1.1.46,1.57-.08a2,2,0,0,0,3.3.32c.52,1.13,2.63,1,3.06-.16,1,1.54,2.36-.41,2.87-1.3-.51.91,2,1.85,2.83-2.55.1,1.11,1,.88,1.58.24a4.24,4.24,0,0,0,.66-2.22c1.54,1.12,2-2,1.84-2.88,1.53.38,1.11-2.93.92-3.65,1.86.88,1-2.78.76-3.43.8,2.06,1.84-.7.58-3.65,1.9,1.5.76-7.76,0-9.25-.31,1.57-.26,6.19-1.55,7.3-1,.85-2.56-.72-3.85-.13-.82.38,3,12.29-2.67,12.44-2.06.06-2.18-2.08-5.9-1.47-1.9.31-3.91,3.22-6.39,2.09-4.75-2.16-4.43-9-3.33-11.45.86-1.92-3.74.14-5.25-1.81-1-1.23-.68-3.21-1.56-4.41-1.09-1.48-2.49-.72-2.56,1S17.92,38.67,17.51,40.21Z" transform="translate(0.01)"/><path class="cls-23" d="M22.07,41c.48.63,1.28,1.08,1.61,1.79.47,1,.37,8-1.07,8.26s-1.24-2.9-1.26-3.66c-1.13,2-1.47-2.25-1.21-3-1.82,1.18-.76-3.53-.69-4.19,0,.37-.79-.88-.81-.94a5.08,5.08,0,0,1,0-1.74c.29.47,1.58,1.23,1.67.21C20.24,38.42,21.62,40.39,22.07,41Z" transform="translate(0.01)"/><path class="cls-10" d="M46.84,15.68A23,23,0,0,0,38,12.41a46.51,46.51,0,0,0-5.16-.78,19.67,19.67,0,0,0-8.56,2.14c-4,1.89-6.64,6.4-7.91,10.44a15.82,15.82,0,0,0-.72,7.47c.3,1.6,1.67,5,4,5.48.53.11,1.26-.2,1.11-2.06-.22-2.73-1.32-6.49.79-9a4.09,4.09,0,0,0,1.23,4c1.18-2.28,3.49-4.93,6.12-5.48a8,8,0,0,0,1.4,4.58,5.54,5.54,0,0,1,3-3.65,11.5,11.5,0,0,0,2.14,3.77c1.73-1.9,3-4.32,5.18-5.76s5.37-1.16,7.63-2.72C50.3,19.3,48.46,16.66,46.84,15.68Z" transform="translate(0.01)"/><path class="cls-24" d="M40.75,37.45c.7-.61-.57-7.34-3.65-7.13-2.59.17-3.48,6.75-2.06,7.58A6.11,6.11,0,0,0,40.75,37.45Z" transform="translate(0.01)"/><path class="cls-23" d="M39.84,51.6c-2.35-1.13-4.69.21-6.6,2-1.63,1.51-2.14,4.73,0,6.28.67.49,1.5.62,1.45-1.21.83,1.51,2.94,2.8,3.23.73,1.34,1.15,2.44.38,3-1.15,1.39,2,3-1.17,3-2.49C43.82,53.48,41.56,52.43,39.84,51.6Z" transform="translate(0.01)"/><path class="cls-23" d="M34.69,38.62c-4.9-2.66-13.42.46-11.29,7.14.28.88.48,1.89,1.48,2.14,1.2-2.82-.31-7.17,3.12-8.67-1.44,2.36,2.67.1,3.29-.13-1.81,2.72,1.42,1.52,2.73.63a2.19,2.19,0,0,0-.56,1.4c.93.38,1.72-.42,2.33-1.06-.4,1.29,1,1.46,1.67.69.4.67.77.54,1-.17.4.36.71.23,1.14.4,0-.25.17-.53.08-.84.83.51,2.77.88,2.1-.8.69,1.19,3.4,1.21,2.76-.59,1.57,1.1,2,3.19,2.1,5,.1,1.15-.5,6.46,1.79,4.61,1-.8,1-2.89.56-4,2.24,1.61-.24-3.61-.56-4.15-1.12-1.92-2.42-3.16-4.73-3-1.95.17-2.85,1.28-4.48,2S36.07,39.36,34.69,38.62Z" transform="translate(0.01)"/><path class="cls-23" d="M28.11,52.51A4.65,4.65,0,0,0,31.83,54a12.36,12.36,0,0,0,1.67-.51c0,1.45-.23,6.33-2.41,5.51-.71-.27-1.27-1.19-1.94-1.6.33.2-.76,1.27-1.61.76a3.28,3.28,0,0,1-1.14-3c-.69,2-1.62-1.36-1.65-2,0-.8-.47-3.29.61-3.56S27.39,51.91,28.11,52.51Z" transform="translate(0.01)"/><path class="cls-23" d="M45.49,51.41c.26-.42.32-1.47.95-1.39.84.11,1,2.48.82,3-.2.78-.92,1.86-1.56.73,0-.06,0,0,0,0-.08,2.46-2.12,3.44-3.87,1.69-.57-.57-1.06-2.06-.24-2.58.31-.19,1.4.11,1.83,0A3.24,3.24,0,0,0,45.49,51.41Z" transform="translate(0.01)"/><path class="cls-25" d="M22.87,28.64c-1.56-1.62.46-2.88.05-4.66-1.05,1.2-2.47,2-3.33,3.4.1-.67.28-1.35.4-2a5.64,5.64,0,0,1-3.52,3.08c.66-1.06-1.46-3.56-1.93-4.59a11.63,11.63,0,0,1-.82-5.44c.11-4.21,3.88-6.63,7.42-7.73a18.33,18.33,0,0,1,12.27.22,9.39,9.39,0,0,1,5.67,6.51c1,3.48.4,8.19-3,10.19-.28.17-.55.36-.82.52a15.25,15.25,0,0,0-1-2.28,13.48,13.48,0,0,0-.75-1.94c-1.23.81-2.24,2-3.37,2.86a8.48,8.48,0,0,1-.42-3.45c-1.26-.12-2.83,1.18-3.82,1.84C23.93,26.44,22.64,28.39,22.87,28.64Z" transform="translate(0.01)"/><path class="cls-25" d="M36.4,11.31a12.11,12.11,0,0,1,3.73,5.23,10,10,0,0,1,.54,3.17c0,.39-.37,1.41-.09,1.72.48.53,3.45-.31,4-.46a7.31,7.31,0,0,0,2.73-1.29c.61-.47.95-1.16,1.76-1.06,2.7.36.58,6,2.76,7.25a6.91,6.91,0,0,1,.45-2.5c1.3-3.58-.31-6.28-2.48-9C47.11,11,42.1,9.1,37.94,10.6,37.71,10.68,36.6,11.48,36.4,11.31Z" transform="translate(0.01)"/></g></g></g></svg>